<svg width="160" height="105" viewBox="0 0 160 105" fill="none" xmlns="http://www.w3.org/2000/svg">
<path d="M13.3078 35.9831C13.3311 35.6436 13.2373 35.3064 13.0418 35.0275C12.8464 34.7487 12.5611 34.545 12.2336 34.4504L11.5174 34.1447C10.5941 33.7874 10.3914 33.3784 10.3914 32.3064V20.467H26.1386V32.3064C26.1386 33.3784 25.9876 33.7874 25.0643 34.1447L24.2964 34.4504C23.9746 34.5484 23.6967 34.7547 23.5103 35.0341C23.3238 35.3136 23.2403 35.649 23.2739 35.9831V37.8214H36.4929V35.9831C36.5266 35.649 36.443 35.3136 36.2565 35.0341C36.0701 34.7547 35.7923 34.5484 35.4705 34.4504L34.7543 34.1447C33.831 33.7874 33.6282 33.3784 33.6282 32.3064V5.51499C33.6282 4.44299 33.831 4.034 34.7543 3.67666L35.4705 3.37099C35.7923 3.27304 36.0701 3.06674 36.2565 2.78725C36.443 2.50777 36.5266 2.1724 36.4929 1.83833V0H23.2782V1.83833C23.2446 2.1724 23.3281 2.50777 23.5146 2.78725C23.7011 3.06674 23.9789 3.27304 24.3007 3.37099L25.0686 3.67666C25.9919 4.034 26.1429 4.44299 26.1429 5.51499V16.334H10.3914V5.51499C10.3914 4.44299 10.5941 4.034 11.5174 3.67666L12.2336 3.37099C12.5611 3.27639 12.8464 3.07272 13.0418 2.79388C13.2373 2.51503 13.3311 2.17782 13.3078 1.83833V0H0.00682016V1.83833C-0.025708 2.17283 0.0587887 2.50825 0.245961 2.78763C0.433134 3.06701 0.711443 3.27313 1.03363 3.37099L1.79726 3.67666C2.72052 4.034 2.87152 4.44299 2.87152 5.51499V32.3064C2.87152 33.3784 2.72052 33.7874 1.79726 34.1447L1.03363 34.4504C0.711443 34.5483 0.433134 34.7544 0.245961 35.0338C0.0587887 35.3131 -0.025708 35.6486 0.00682016 35.9831V37.8214H13.3078V35.9831Z" fill="black"/>
<path d="M50.6365 36.4438C50.6439 36.1395 50.5723 35.8385 50.4287 35.5699C50.2851 35.3013 50.0743 35.0744 49.8168 34.9112L49.2559 34.6572C48.488 34.2998 48.3931 33.7358 48.3931 32.7672V15.7228L39.6997 16.1791V17.5568C39.6826 17.8569 39.7444 18.1563 39.8791 18.4252C40.0138 18.6941 40.2168 18.9231 40.4677 19.0895L40.9811 19.3951C41.6973 19.8257 41.7447 20.2562 41.7447 21.2335V32.7672C41.7447 33.7875 41.6455 34.2998 40.8258 34.6572L40.2131 34.9112C39.9427 35.0636 39.7193 35.2871 39.5672 35.5573C39.4151 35.8275 39.3401 36.1341 39.3503 36.4438V37.8215H50.6538L50.6365 36.4438Z" fill="black"/>
<path d="M44.9079 12.7739C45.7076 12.7747 46.4896 12.5389 47.155 12.0961C47.8203 11.6534 48.3391 11.0236 48.6458 10.2866C48.9524 9.54956 49.0331 8.73832 48.8776 7.95552C48.7221 7.17271 48.3374 6.45352 47.7722 5.88893C47.207 5.32433 46.4868 4.9397 45.7025 4.7837C44.9182 4.6277 44.1051 4.70733 43.3662 5.01253C42.6273 5.31773 41.9957 5.83477 41.5513 6.49825C41.1069 7.16173 40.8697 7.94184 40.8697 8.73987C40.8663 9.27021 40.9684 9.79597 41.17 10.2867C41.3717 10.7774 41.6689 11.2232 42.0446 11.5984C42.4202 11.9737 42.8667 12.2708 43.3582 12.4725C43.8497 12.6743 44.3764 12.7767 44.9079 12.7739Z" fill="black"/>
<path d="M53.6567 39.1992C53.6567 39.7072 53.8638 39.9139 54.58 39.9139C55.2962 39.9139 57.5439 39.3499 61.5347 39.3499C67.2123 39.3499 70.0252 40.1162 70.0252 41.8512C70.0252 43.2289 67.8249 44.2492 63.7824 44.2492C62.6203 44.27 61.4627 44.0983 60.3569 43.7412C60.3569 41.8512 59.2826 40.7275 57.4447 40.7275C55.8053 40.7275 54.6792 41.7479 54.6792 43.3839C54.6792 46.4965 57.6475 48.2315 63.3769 48.2315C71.2505 48.2315 75.4569 45.3212 75.4569 40.5769C75.4569 36.1855 71.6733 33.8908 64.2397 33.8908C62.7556 33.8908 61.3233 33.9899 59.8435 34.0932L60.7624 31.8975C61.7902 32.2094 62.8592 32.3647 63.9334 32.3582C69.9735 32.3582 73.8563 28.8882 73.8563 23.9888C73.8563 22.2667 73.55 20.9278 72.4758 19.6492C72.6603 19.612 72.8485 19.5961 73.0366 19.6018C73.7528 19.6018 74.469 20.5705 75.6252 20.5705C76.7814 20.5705 77.6702 19.6492 77.6702 18.1208C77.6702 16.5925 76.4924 15.6195 75.06 15.6195C73.6277 15.6195 72.4714 16.4375 70.9701 17.9142C69.0243 16.2825 66.8801 15.6195 64.0672 15.6195C58.2342 15.6195 54.2953 19.0895 54.2953 23.9888C54.2748 25.2891 54.5827 26.5736 55.1903 27.7239C55.798 28.8743 56.686 29.8536 57.7726 30.5715L54.5541 36.8485C54.0148 37.9335 53.6567 38.6352 53.6567 39.1992ZM64.106 19.0378C66.5091 19.0378 67.7861 20.7599 67.7861 23.9888C67.7861 27.2178 66.4444 28.8925 64.106 28.8925C61.7676 28.8925 60.4216 27.2091 60.4216 23.9931C60.4216 20.7771 61.6857 19.0378 64.106 19.0378Z" fill="black"/>
<path d="M78.4829 39.1991C78.4829 39.7071 78.69 39.9138 79.4062 39.9138C80.1223 39.9138 82.3701 39.3498 86.3608 39.3498C92.0385 39.3498 94.8514 40.1161 94.8514 41.8511C94.8514 43.2288 92.6511 44.2491 88.6129 44.2491C87.4493 44.2702 86.2903 44.0985 85.183 43.7411C85.183 41.8511 84.1088 40.7274 82.2709 40.7274C80.6314 40.7274 79.5097 41.7478 79.5097 43.3838C79.5097 46.4965 82.4736 48.2315 88.203 48.2315C96.0767 48.2315 100.283 45.3211 100.283 40.5768C100.283 36.1854 96.4995 33.8908 89.0659 33.8908C87.5861 33.8908 86.1537 33.9898 84.6696 34.0931L85.5886 31.8974C86.6163 32.2093 87.6854 32.3646 88.7596 32.3581C94.7996 32.3581 98.6825 28.8881 98.6825 23.9887C98.7398 22.8138 98.4885 21.6443 97.9534 20.5962C97.5234 19.6631 96.9119 18.8245 96.1543 18.1293H96.1759C95.7839 17.7778 95.5224 17.3045 95.4338 16.7861C95.4338 11.6973 98.0483 9.34235 100.848 8.65352C101.274 8.5528 101.707 8.48372 102.143 8.44687C102.332 8.44687 102.522 8.42104 102.708 8.42104H102.734C103.282 8.42104 103.739 8.5545 103.743 8.92044C103.743 9.48873 103.312 10.212 103.312 11.0731C103.312 12.8769 104.852 14.0178 106.573 14.0178C108.554 14.0178 110.228 12.61 110.228 10.5736C110.227 10.4052 110.216 10.2369 110.193 10.0699C110.195 10.0398 110.195 10.0096 110.193 9.97953C110.17 9.82359 110.136 9.66959 110.09 9.51887C110.043 9.37875 109.987 9.24207 109.921 9.10987C109.89 9.03883 109.854 8.96981 109.813 8.90322L109.779 8.84295C108.705 7.00892 105.896 6.11343 102.686 6.11343C93.872 6.11343 91.8314 11.9772 91.8314 15.7657V15.8777C90.8872 15.676 89.9236 15.5792 88.958 15.5892H88.7294C83.0302 15.6796 79.1948 19.1152 79.1948 23.95C79.1744 25.2502 79.4822 26.5347 80.0899 27.6851C80.6975 28.8354 81.5856 29.8147 82.6721 30.5327L79.4493 36.8097C78.841 37.9334 78.4829 38.6351 78.4829 39.1991ZM88.6949 19.0506C88.7725 19.0506 88.8459 19.0506 88.9278 19.0506C89.0745 19.0506 89.2212 19.0506 89.3593 19.0506H89.4758C89.573 19.058 89.6696 19.0724 89.7648 19.0937C89.8209 19.0937 89.8684 19.1195 89.9201 19.1324L90.1445 19.1884L90.317 19.2573C90.3774 19.2573 90.4422 19.3003 90.4982 19.3262L90.6795 19.4209L90.8218 19.4984L91.0073 19.6275L91.1195 19.7093C91.1829 19.7605 91.2434 19.8151 91.3007 19.8729L91.3913 19.959C91.4522 20.0221 91.5098 20.0882 91.5639 20.1571C91.5898 20.1872 91.6157 20.213 91.6372 20.2432C91.6588 20.2733 91.7451 20.3982 91.8012 20.48L91.8529 20.5618C91.9047 20.6479 91.9565 20.7426 92.0039 20.8373L92.0428 20.9148C92.0902 21.0138 92.1334 21.1215 92.1765 21.2291L92.2067 21.3066C92.2455 21.4185 92.2844 21.5348 92.3189 21.6553C92.3281 21.6805 92.3353 21.7064 92.3405 21.7328C92.375 21.8533 92.4052 21.9825 92.4311 22.1117C92.4335 22.1389 92.4335 22.1662 92.4311 22.1935C92.4569 22.3269 92.4785 22.4604 92.5001 22.624V22.7101C92.5001 22.8521 92.5303 22.9985 92.5432 23.1406C92.5432 23.175 92.5432 23.2052 92.5432 23.2396C92.5432 23.386 92.5432 23.5367 92.5432 23.696C92.5432 23.7907 92.5432 23.8811 92.5432 23.9801C92.5432 27.1961 91.2144 28.8795 88.8631 28.8795C86.5118 28.8795 85.2434 27.2047 85.2434 23.9887C85.2434 20.8804 86.4342 19.1626 88.6949 19.0506Z" fill="black"/>
<path d="M111.563 34.9198L111.002 34.6658C110.234 34.3084 110.139 33.7445 110.139 32.7758V15.7228L101.446 16.1791V17.5568C101.429 17.8569 101.491 18.1563 101.625 18.4252C101.76 18.6941 101.963 18.9231 102.214 19.0895L102.723 19.3951C103.439 19.8257 103.491 20.2562 103.491 21.2335V32.7672C103.491 33.7875 103.387 34.2998 102.572 34.6572L101.955 34.9112C101.687 35.0658 101.465 35.2897 101.313 35.5594C101.161 35.8291 101.085 36.1346 101.092 36.4438V37.8215H112.396V36.4438C112.4 36.1397 112.326 35.8396 112.18 35.5726C112.034 35.3056 111.822 35.0807 111.563 34.9198Z" fill="black"/>
<path d="M125.944 36.4439C125.965 36.1499 125.911 35.8554 125.785 35.5886C125.66 35.3218 125.468 35.0915 125.228 34.9198L124.715 34.6658C123.998 34.2353 123.899 33.7445 123.899 32.7758V22.0042C125.383 20.5232 126.764 19.8085 128.399 19.8085C130.698 19.8085 131.674 21.3885 131.674 24.5442V32.7672C131.674 33.7359 131.622 34.2482 130.906 34.6572L130.34 34.9112C130.099 35.0837 129.906 35.3153 129.781 35.5838C129.655 35.8523 129.601 36.1485 129.624 36.4439V37.8216H140.57V36.4439C140.586 36.1398 140.519 35.8369 140.375 35.5682C140.232 35.2995 140.017 35.0752 139.754 34.9198L139.09 34.6658C138.27 34.3085 138.167 33.8048 138.167 32.7758V24.8585C138.167 18.5772 135.867 15.5162 130.75 15.5162C129.388 15.5089 128.041 15.7921 126.797 16.3467C125.554 16.9014 124.444 17.7147 123.541 18.7322C123.674 18.0956 123.725 17.4444 123.692 16.7948V15.7228L115.357 16.1792V17.5569C115.334 17.8522 115.388 18.1485 115.513 18.417C115.639 18.6855 115.832 18.9171 116.073 19.0895L116.634 19.3952C117.35 19.8257 117.402 20.2562 117.402 21.2335V32.7672C117.402 33.7876 117.303 34.2999 116.483 34.6572L115.875 34.9198C115.604 35.0723 115.381 35.2957 115.229 35.5659C115.076 35.8361 115.001 36.1428 115.012 36.4525V37.8302H125.957L125.944 36.4439Z" fill="black"/>
<path d="M153.054 23.5797C149.883 22.2537 148.144 21.793 148.144 20.622C148.144 19.7007 149.115 18.8353 150.599 18.8353C151.138 18.8492 151.664 18.9972 152.131 19.2658C152.234 21.5605 153.36 22.6842 155.457 22.6842C157.248 22.6842 158.322 21.6122 158.322 19.7738C158.322 17.4275 155.867 15.5375 151.721 15.5375C146.66 15.5375 143.524 18.2929 143.524 22.5292C143.524 26.3565 145.72 27.7342 149.456 29.3702C153.037 30.9502 154.823 31.0535 154.823 32.7369C154.823 33.9122 153.494 34.8292 150.987 34.8292C150.2 34.8158 149.421 34.6612 148.688 34.3729C148.74 33.9122 148.792 33.5118 148.792 33.2492C148.792 31.4109 147.562 30.2872 145.569 30.2872C143.675 30.2872 142.449 31.5142 142.449 33.3009C142.449 36.2586 145.72 38.5575 150.94 38.5575C156.549 38.5575 160 35.3932 160 30.9502C160 26.5072 157.092 25.263 153.054 23.5797Z" fill="black"/>
<path d="M64.5674 68.3199C64.5674 72.1946 67.7125 74.9457 72.2857 74.9457C74.5789 74.9895 76.8079 74.1878 78.5457 72.6941C80.2283 74.2784 81.8462 74.9457 84.0379 74.9457C87.1226 74.9457 89.1201 74.0244 89.1201 73.0729C89.1265 72.9236 89.0937 72.7752 89.0252 72.6424L88.3263 71.4412C87.4982 71.8201 86.601 72.0253 85.6902 72.044C84.0724 72.044 82.8946 71.4068 81.6909 70.0119C83.6582 67.6053 84.5815 65.5775 85.5738 64.6261C86.868 63.356 88.3047 63.7392 88.3047 62.7232V61.4876H80.004V62.5639C79.9838 62.7964 80.0462 63.0286 80.1802 63.2199C80.3143 63.4112 80.5116 63.5493 80.7374 63.61L81.2767 63.8339C81.816 64.0535 82.1007 64.2644 82.1007 64.9403C82.1007 65.6163 81.4665 66.8433 80.1636 68.1434C78.5629 65.9195 77.2306 63.5149 76.1944 60.9795C80.0385 59.1713 81.8031 57.8109 81.8031 55.2105C81.8031 52.6102 79.7063 50.647 76.436 50.647C72.7171 50.647 70.1156 53.0235 70.1156 56.162C70.1769 57.7046 70.5328 59.2213 71.164 60.6308C66.5045 62.8652 64.5674 64.6734 64.5674 68.3199ZM76.4188 53.1053C77.657 53.1053 78.481 54.0223 78.481 55.2923C78.481 56.8121 77.4629 57.7635 75.2712 58.7365C74.6715 57.3115 74.3522 56.2007 74.3522 55.344C74.3522 53.9922 75.1461 53.1053 76.4188 53.1053ZM72.1045 62.8652C73.3772 65.5603 74.7405 68.3199 76.8071 70.8859C75.9423 71.435 74.9414 71.7332 73.9165 71.7469C73.2739 71.7583 72.6356 71.6393 72.0405 71.3972C71.4453 71.155 70.9057 70.7947 70.4542 70.3382C70.0028 69.8817 69.649 69.3384 69.4143 68.7413C69.1795 68.1443 69.0688 67.5058 69.0888 66.8648C69.0801 65.0221 69.9991 63.976 72.0959 62.8652H72.1045Z" fill="black"/>
<path d="M30.456 74.9195V65.6805C28.6229 65.8971 26.7795 66.0164 24.9337 66.0378H3.18097V67.8761C3.18097 68.6425 3.38806 69.1031 4.04383 69.4088L4.70823 69.7145C5.5711 70.0718 5.62718 70.5755 5.62718 71.5528V98.3442C5.62718 99.4162 5.47618 99.8252 4.55723 100.183L3.78929 100.488C3.46746 100.586 3.18964 100.792 3.00319 101.072C2.81673 101.351 2.73319 101.687 2.76679 102.021V103.859H16.0721V102.021C16.0954 101.681 16.0015 101.344 15.8061 101.065C15.6106 100.787 15.3254 100.583 14.9979 100.488L14.2817 100.183C13.3627 99.8252 13.1557 99.4162 13.1557 98.3442V86.5565H17.6555C18.8851 86.5565 19.7005 86.9139 20.1103 87.4735L20.8265 88.4939C21.3399 89.1569 21.6462 89.6692 22.4659 89.6692H24.1528V79.4098H22.4659C21.6462 79.4098 21.3399 79.9738 20.8265 80.6368L20.1017 81.6055C19.6703 82.1652 18.8764 82.5225 17.6468 82.5225H13.1557V70.0718H21.6462C24.7655 70.0718 25.9605 70.9888 27.0693 73.4902C27.5784 74.6138 27.9322 74.9195 29.2265 74.9195H30.456Z" fill="black"/>
<path d="M42.8629 81.6056C40.5634 81.6056 38.3631 83.1856 36.6244 86.3413C36.7432 85.6498 36.811 84.9504 36.8272 84.249V81.6658L28.2935 82.2169V83.5946C28.2707 83.89 28.3246 84.1862 28.45 84.4547C28.5755 84.7232 28.7682 84.9548 29.0096 85.1272L29.5705 85.4329C30.2867 85.8419 30.3385 86.294 30.3385 87.2713V98.805C30.3385 99.8253 30.2349 100.338 29.4195 100.695L28.8026 100.949C28.534 101.104 28.3122 101.327 28.1604 101.597C28.0086 101.867 27.9323 102.172 27.9397 102.482V103.859H39.3856V102.482C39.3929 102.172 39.3167 101.867 39.1649 101.597C39.013 101.327 38.7912 101.104 38.5227 100.949L37.9058 100.695C37.0903 100.338 36.9868 99.8339 36.9868 98.805V96.1529C36.9868 91.6583 37.6512 88.7996 39.8515 87.112C40.2829 88.3389 41.6419 89.1526 43.0743 89.1526C43.5701 89.1574 44.0618 89.0626 44.5201 88.8739C44.9784 88.6852 45.394 88.4064 45.7422 88.0541C46.0904 87.7019 46.364 87.2833 46.5468 86.8234C46.7295 86.3635 46.8178 85.8716 46.8062 85.377C46.8019 83.1382 45.1667 81.6056 42.8629 81.6056Z" fill="black"/>
<path d="M58.8676 100.949L58.3067 100.695C57.5388 100.338 57.4438 99.7737 57.4438 98.8051V81.7607L48.7505 82.217V83.5947C48.7333 83.8948 48.7952 84.1942 48.9299 84.4631C49.0646 84.732 49.2675 84.961 49.5185 85.1274L50.0275 85.433C50.7437 85.842 50.7955 86.2941 50.7955 87.2714V98.8051C50.7955 99.8254 50.6919 100.338 49.8765 100.695L49.2596 100.949C48.9911 101.104 48.7692 101.328 48.6174 101.597C48.4656 101.867 48.3893 102.172 48.3967 102.482V103.859H59.7002V102.482C59.7063 102.176 59.6327 101.874 59.4867 101.606C59.3408 101.337 59.1274 101.111 58.8676 100.949Z" fill="black"/>
<path d="M53.9579 78.9751C54.7578 78.9759 55.54 78.74 56.2054 78.297C56.8709 77.8541 57.3897 77.2241 57.6962 76.4868C58.0027 75.7495 58.0831 74.9381 57.9273 74.1552C57.7714 73.3722 57.3863 72.6531 56.8207 72.0886C56.2551 71.5242 55.5344 71.1399 54.7498 70.9844C53.9653 70.8289 53.1521 70.9091 52.4132 71.215C51.6744 71.5209 51.0431 72.0386 50.5992 72.7026C50.1554 73.3667 49.9189 74.1472 49.9197 74.9454C49.9169 75.4754 50.0194 76.0007 50.2213 76.4909C50.4232 76.9811 50.7206 77.4264 51.0961 77.8012C51.4717 78.1759 51.918 78.4727 52.4092 78.6742C52.9004 78.8757 53.4268 78.9779 53.9579 78.9751Z" fill="black"/>
<path d="M73.4516 81.6571C66.9068 81.6571 61.9453 86.5565 61.9453 93.0875C61.9453 99.8769 66.7514 104.471 73.9132 104.471C77.5415 104.471 79.6901 103.399 82.1967 101.203C83.2709 100.286 83.7843 99.5195 83.7843 99.1105C83.7673 98.8586 83.6565 98.6221 83.4737 98.4475L81.7868 97.0698C79.7936 99.4679 77.9039 100.437 75.0867 100.437C71.1477 100.437 68.9517 97.8534 68.9 92.9885H84.1381V92.2738C84.1381 85.9451 79.6383 81.6571 73.4516 81.6571ZM69.3098 89.5142C69.7197 86.6081 71.303 85.0238 73.5033 85.0238C75.8029 85.0238 77.287 86.6598 77.4423 89.5142H69.3098Z" fill="black"/>
<path d="M110.934 100.949L110.269 100.695C109.449 100.338 109.35 99.8341 109.35 98.8051V90.8878C109.35 84.6065 107.046 81.5455 101.934 81.5455C100.573 81.5408 99.2265 81.826 97.9848 82.3821C96.7431 82.9382 95.6346 83.7523 94.7334 84.7701C94.8708 84.1325 94.923 83.4796 94.8887 82.8284V81.7607L86.5362 82.2171V83.5948C86.5134 83.8901 86.5673 84.1864 86.6927 84.4549C86.8182 84.7233 87.0109 84.955 87.2523 85.1274L87.8175 85.4331C88.5337 85.8421 88.5855 86.2941 88.5855 87.2714V98.8051C88.5855 99.8255 88.4819 100.338 87.6622 100.695L87.0496 100.949C86.7792 101.102 86.5558 101.325 86.4036 101.595C86.2515 101.865 86.1765 102.172 86.1867 102.482V103.859H97.1321V102.482C97.1549 102.186 97.101 101.89 96.9755 101.622C96.8501 101.353 96.6573 101.122 96.4159 100.949L95.9069 100.695C95.1907 100.286 95.0871 99.7738 95.0871 98.8051V88.042C96.5713 86.5611 97.9518 85.8464 99.587 85.8464C101.891 85.8464 102.862 87.4264 102.862 90.5821V98.8008C102.862 99.7695 102.81 100.282 102.094 100.691L101.533 100.945C101.291 101.117 101.099 101.349 100.973 101.617C100.848 101.886 100.794 102.182 100.817 102.477V103.855H111.762V102.477C111.779 102.171 111.71 101.866 111.564 101.597C111.418 101.327 111.2 101.103 110.934 100.949Z" fill="black"/>
<path d="M136.759 100.949L136.146 100.695C135.327 100.337 135.228 99.8337 135.228 98.8048V65.5814L126.275 66.0377V67.4154C126.265 67.7251 126.34 68.0318 126.492 68.302C126.644 68.5722 126.868 68.7956 127.138 68.948L127.751 69.2537C128.571 69.6111 128.67 70.0717 128.67 71.0921V81.3514C128.67 82.289 128.826 83.2201 129.131 84.1068C126.974 82.4751 125.041 81.6054 122.686 81.6054C117.164 81.6054 112.866 86.4531 112.866 92.9884C112.866 99.7735 117.267 104.47 122.535 104.47C124.938 104.47 126.983 103.549 129.183 101.56C128.984 102.205 128.881 102.875 128.877 103.549V104.315L137.622 103.859V102.481C137.632 102.172 137.557 101.865 137.405 101.595C137.253 101.325 137.03 101.101 136.759 100.949ZM128.678 98.3441C127.453 99.6702 126.172 100.286 124.692 100.286C121.62 100.286 119.782 97.6811 119.782 93.0358C119.782 88.3905 121.724 85.6868 124.692 85.6868C126.124 85.6868 127.401 86.2508 128.678 87.4734V98.3441Z" fill="black"/>
<path d="M150.163 89.6175C146.992 88.2915 145.253 87.8309 145.253 86.6599C145.253 85.7385 146.224 84.8732 147.708 84.8732C148.246 84.881 148.773 85.0215 149.244 85.2822C149.343 87.5769 150.469 88.7005 152.566 88.7005C154.356 88.7005 155.431 87.6285 155.431 85.7902C155.431 83.4439 152.976 81.5539 148.834 81.5539C143.769 81.5539 140.637 84.3092 140.637 88.5455C140.637 92.3729 142.837 93.7506 146.569 95.3865C150.15 96.9666 151.94 97.0699 151.94 98.7532C151.94 99.9286 150.611 100.846 148.105 100.846C147.315 100.833 146.535 100.677 145.801 100.385C145.853 99.9286 145.905 99.5239 145.905 99.2656C145.905 97.4272 144.675 96.3036 142.682 96.3036C140.792 96.3036 139.562 97.5305 139.562 99.3172C139.562 102.279 142.837 104.578 148.053 104.578C153.662 104.578 157.113 101.414 157.113 96.9709C157.113 92.5279 154.201 91.3181 150.163 89.6175Z" fill="black"/>
</svg>
