<svg xmlns="http://www.w3.org/2000/svg" viewBox="0 0 900 900"><defs><style>.cls-1{fill:none;stroke:#000;stroke-linecap:round;stroke-miterlimit:10;stroke-width:19.86px;}</style></defs><g id="Layer_1" data-name="Layer 1"><path class="cls-1" d="M503.55,240c-1,1.32-1.92,2.62-2.92,3.87s-2.16,2.43-3.22,3.64-1.94,2.63-3.06,3.79-2.52,2.07-3.69,3.18-2.3,2.29-3.51,3.34-2.48,2.11-3.74,3.11-2.45,2.15-3.75,3.09-2.72,1.78-4.06,2.68-2.55,2.07-3.91,2.9-2.9,1.53-4.3,2.31-3,1.31-4.42,2-2.87,1.54-4.32,2.21-3.09,1.08-4.56,1.69-2.85,1.69-4.34,2.24-3.09,1.11-4.6,1.6-3.2.76-4.72,1.18-3.11,1.17-4.63,1.53-3.33.28-4.85.55c-1.68.31-3.26.66-4.78.85-1.73.21-3.33.62-4.82.69a37.83,37.83,0,0,1-4.88,0,33.13,33.13,0,0,0-4.87-.08,17,17,0,0,0-9.44,2.15,30.46,30.46,0,0,0-4.59,1.8,44.23,44.23,0,0,0-3.73,3.23c-1.22,1-2.51,2-3.75,3.15s-2.12,2.37-3.27,3.65-2.4,2.16-3.47,3.5-1.79,2.67-2.8,4.05-2,2.54-2.93,3.95-1.87,2.62-2.78,4.05-1.63,2.8-2.5,4.25-2,2.6-2.81,4.07-1.38,2.92-2.18,4.28-1.43,2.91-2.29,4.23-2.14,2.44-3.07,3.71-1.66,2.79-2.65,4-2,2.57-3,3.73-2.58,2-3.7,3.11-2.1,2.47-3.27,3.51-2.63,1.89-3.86,2.87-2.55,2-3.83,2.87-2.48,2.09-3.81,2.93-2.73,1.73-4.1,2.49-2.82,1.62-4.23,2.31-3.08,1.07-4.51,1.67-2.86,1.64-4.32,2.16-3.13,1-4.6,1.42-3.18.88-4.64,1.24c-1.68.41-3.32.43-4.76.7-1.8.33-3.4.49-4.74.65-3,.37-4.9.5-4.9.5,1.18-2.18,1.29-1.33,2.8-4.12.67-1.23,1-3,1.87-4.63.72-1.33,1.94-2.56,2.79-4.13.75-1.37,1.34-2.93,2.18-4.47.75-1.39,1.38-2.93,2.2-4.44s1.91-2.66,2.72-4.16,1.46-2.92,2.27-4.41,1.72-2.79,2.53-4.27,1.21-3.08,2-4.55,1.51-2.92,2.31-4.39,1.58-2.89,2.38-4.36,1.85-2.74,2.65-4.2,1.75-2.8,2.54-4.26,1.43-3,2.23-4.45,1.57-2.9,2.37-4.35,1.21-3.12,2-4.57,2.06-2.65,2.85-4.1,1.48-3,2.27-4.42,1.41-3,2.2-4.46,1.67-2.88,2.46-4.32,1.82-2.79,2.61-4.23,1.15-3.17,1.94-4.6,2-2.68,2.83-4.11,1.72-2.87,2.5-4.29,1.08-3.24,1.86-4.65,2-2.73,2.78-4.13,1.49-3,2.27-4.42,1.79-2.89,2.55-4.25c.88-1.56,1.47-3.13,2.21-4.45.94-1.65,1.87-3,2.57-4.25,1.35-2.32,2.06-3.95,2.4-4.37a13.71,13.71,0,0,1,3.77-3c1.1-.67,2.53-1.28,4.32-2.14,1.24-.59,2.56-1.51,4.25-2.26,1.31-.58,3-.75,4.61-1.46,1.35-.58,2.64-1.61,4.24-2.3,1.37-.6,2.86-1.18,4.44-1.86,1.38-.6,3-.94,4.53-1.62s2.9-1.18,4.44-1.85,2.74-1.56,4.27-2.24,3-1.06,4.49-1.73,2.82-1.42,4.34-2.1,2.93-1.18,4.44-1.86,2.89-1.58,4.31-2.32,3-1.42,4.34-2.25,2.67-1.91,4-2.84,2.49-2.13,3.72-3.15,2.67-1.92,3.83-3,2.56-2.1,3.64-3.28,1.84-2.75,2.84-4,2.12-2.51,3-3.82,1.87-2.71,2.69-4.08,1.46-3,2.19-4.36,1.74-2.82,2.39-4.27.88-3.2,1.44-4.68,1.65-2.93,2.12-4.42.84-3.25,1.22-4.74c.43-1.7.57-3.34.86-4.81.36-1.82.87-3.4,1.05-4.77.41-3,0-2.44.14-4.87s.63-2.41.74-4.85-.27-2.45-.17-4.88.26-2.43.37-4.86.26-2.43.37-4.86-.25-2.45-.14-4.88.48-2.42.59-4.86-.48-2.46-.37-4.89.41-2.42.51-4.86-.21-2.45-.1-4.88.42-2.42.52-4.86-.16-2.44-.05-4.88.69-2.41.8-4.85,0-2.44.12-4.88"/><path class="cls-1" d="M373.44,235.56c-2.29.91-1.67.71-4.52,2-1.27.56-2.63,1.57-4.33,2.37-1.36.64-2.8,1.43-4.39,2.22-1.38.69-2.78,1.56-4.3,2.35s-2.87,1.45-4.36,2.27-2.9,1.44-4.36,2.28-2.76,1.7-4.19,2.57-2.68,1.85-4.08,2.75-2.71,1.81-4.08,2.74-2.9,1.55-4.24,2.52-2.66,1.92-4,2.93-2.3,2.37-3.56,3.42-2.57,2-3.79,3.13-2.69,1.94-3.85,3.09-2.44,2.23-3.55,3.44-1.93,2.69-3,3.95-1.92,2.68-2.87,4-2,2.62-2.84,4-1.83,2.76-2.55,4.22-1.33,3-2.08,4.54-1.66,2.85-2.39,4.39-1.2,3.09-1.92,4.62-1.49,3-2.19,4.5-1,3.19-1.67,4.72-1.69,2.88-2.38,4.41-1.11,3.14-1.79,4.67-1.75,2.87-2.43,4.39-1.32,3.06-2,4.58-1,3.2-1.68,4.73-1.24,3.1-1.91,4.62-1.68,2.92-2.33,4.44-1.18,3.14-1.83,4.65-1.22,3.14-1.87,4.65-1.57,3-2.22,4.49-1.14,3.18-1.78,4.67-1.22,3.16-1.85,4.65-1.7,3-2.33,4.44-1.08,3.26-1.69,4.71c-.71,1.65-1.66,3.07-2.25,4.47-.74,1.76-1.4,3.3-1.95,4.61a44.49,44.49,0,0,0-1.55,4.78c-.41.85.94.41,4-.77a47.06,47.06,0,0,0,4.65-1.74c1.34-.66,2.9-1.3,4.46-2.18,1.35-.77,2.8-1.61,4.28-2.54,1.33-.85,2.68-1.84,4.1-2.82s2.66-1.89,4-2.92,2.26-2.4,3.57-3.48,2.76-1.8,4-2.92,2.32-2.32,3.53-3.49,2.43-2.21,3.59-3.43,2.25-2.4,3.35-3.66,2-2.63,3-3.93,1.92-2.67,2.91-4,2.32-2.39,3.24-3.79"/><path class="cls-1" d="M316.31,271.8c-2,1.38-1.4,1.11-3.85,2.85-1.11.79-2.48,1.66-3.95,2.72-1.21.85-2.6,1.67-4,2.66-1.24.89-2.42,2-3.78,3s-2.84,1.44-4.17,2.4-2.36,2.15-3.67,3.1-2.74,1.65-4,2.59-2.6,1.86-3.9,2.8-2.56,1.95-3.84,2.88-2.38,2.21-3.65,3.14-2.86,1.59-4.11,2.52-2.64,1.94-3.86,2.86-2.48,2.19-3.66,3.1c-1.41,1.09-2.83,1.9-3.92,2.78-1.7,1.37-3,2.42-3.67,3.11s-1.13,2.38-2.26,4.35c-.7,1.22-2,2.36-2.87,4-.7,1.34-1,3-1.8,4.55-.69,1.39-1.69,2.71-2.43,4.24s-1.5,2.82-2.22,4.33-.86,3.15-1.56,4.64-1.78,2.74-2.46,4.22-1.28,3-2,4.47-1.45,2.92-2.11,4.39-1.15,3.07-1.81,4.53S235.6,361,235,362.48s-1.36,3-2,4.45-1.54,2.94-2.16,4.37-1.37,3.05-2,4.46c-.7,1.63-1.51,3.05-2.08,4.4-.76,1.81-1.42,3.32-1.88,4.49-.65,1.61-.94,3.43-1.72,5.06s-1.91,3-2.71,4.61-1.61,3.23-2.4,4.76-1.48,3.36-2.2,4.85a52.65,52.65,0,0,0-2.42,4.77c-.79,2.4-.8,4.47.28,5.32,1.3,1,3,1.16,4.54,1.46a13.38,13.38,0,0,0,4.75.5c1.5-.23,2.9-1.18,4.47-1.77s3.13-.69,4.59-1.45,2.48-2,3.85-2.91,2.68-1.7,4-2.64,2.72-1.73,3.95-2.71,2.77-1.76,3.94-2.77,2.36-2.32,3.48-3.32c1.32-1.2,2.47-2.35,3.48-3.29"/><path class="cls-1" d="M539.52,246.89c.9-2.29,1-1.53,2.1-4.47.49-1.3.63-3,1.28-4.78.52-1.41,1.2-2.92,1.81-4.59.52-1.46,1.44-2.88,2-4.51.53-1.48.86-3.11,1.42-4.73s1.09-3,1.63-4.65.87-3.13,1.4-4.73,1-3.11,1.47-4.7,1.25-3,1.74-4.62.58-3.25,1.07-4.83,1.46-3,1.93-4.57.65-3.23,1.11-4.81,1.23-3.07,1.67-4.66.61-3.24,1-4.83.53-3.26.92-4.85,1.2-3.11,1.57-4.7.63-3.25,1-4.84.85-3.2,1.16-4.8.51-3.28.79-4.87.18-3.33.41-4.93.92-3.23,1.1-4.83.47-3.32.59-4.91-.24-3.36-.21-4.94,0-3.36-.09-4.92"/><path class="cls-1" d="M254.21,398.8c-.08,2.43-.52,2.42-.61,4.85s0,2.43-.08,4.87.38,2.44.29,4.87-.35,2.42-.44,4.86,0,2.43,0,4.86-.22,2.43-.3,4.86.2,2.44.12,4.88-.28,2.42-.36,4.85,0,2.44-.13,4.87-.41,2.42-.49,4.85,0,2.44,0,4.87.19,2.44.11,4.88-.17,2.42-.25,4.85-.23,2.43-.31,4.86.26,2.44.18,4.88-.39,2.42-.47,4.85.17,2.44.09,4.87.08,2.44,0,4.88-.09,2.43-.17,4.86-.52,2.42-.61,4.85.19,2.44.11,4.88-.19,2.43-.28,4.86.12,2.44,0,4.88-.14,2.44-.23,4.87a34.71,34.71,0,0,0-.31,4.74,32,32,0,0,0,1.28,4.57,32.56,32.56,0,0,0,1.6,4.4,31.5,31.5,0,0,0,2.17,4.15,30.57,30.57,0,0,0,2.62,3.87,31.29,31.29,0,0,0,3.34,3.27,33.88,33.88,0,0,0,3.43,3.24c1.32.88,2.88,1.53,4.3,2.51s2.72,1.82,4.11,2.8,2.63,2,4,3,2.53,2.13,3.88,3.13,2.8,1.76,4.14,2.78,2.28,2.45,3.59,3.48,2.91,1.68,4.19,2.73,2.57,2.11,3.84,3.18,2.26,2.47,3.49,3.57,2.6,2.09,3.81,3.21,2.25,2.48,3.41,3.63,2.74,2,3.85,3.2,2.25,2.51,3.3,3.74,2.09,2.66,3.06,3.94,2,2.76,2.84,4.1a46.68,46.68,0,0,1,2.54,4.29c.69,1.38.93,3.07,1.6,4.64s1.81,2.72,2.41,4.29.64,3.2,1.2,4.76,1.5,2.89,2.05,4.45,1.12,3,1.66,4.59.91,3.13,1.46,4.67.63,3.24,1.2,4.76,1.56,2.9,2.16,4.41,1.36,3,2,4.45,1,3.13,1.75,4.57,1.69,2.83,2.48,4.21,1.49,3,2.39,4.27a37.92,37.92,0,0,0,3.35,3.55A27.22,27.22,0,0,0,352,658a20.45,20.45,0,0,0,3.93,2.87,17.33,17.33,0,0,0,4.67,1.55c1.55.22,3.16-.37,4.87-.58a22.3,22.3,0,0,0,4.84-.64,33.21,33.21,0,0,0,4.49-2,47,47,0,0,0,4.22-2.48c1.29-.85,2.72-1.68,4.08-2.73s2.11-2.43,3.4-3.55,2.76-1.71,4-2.89,2.31-2.35,3.46-3.56,1.95-2.66,3.05-3.9,2.11-2.51,3.16-3.8,2.22-2.42,3.22-3.75,1.9-2.68,2.85-4,2.12-2.54,3-3.93,1.41-3,2.27-4.42,1.73-2.78,2.55-4.22,1.58-2.87,2.35-4.34,1.94-2.71,2.66-4.2.92-3.2,1.6-4.71,1.33-3,2-4.53,1.69-2.87,2.28-4.42,1-3.13,1.57-4.69.68-3.24,1.17-4.82,1.3-3,1.75-4.64,1-3.14,1.41-4.74.36-3.3.72-4.92.61-3.22.93-4.85.9-3.17,1.18-4.8.62-3.24.85-4.88.25-3.28.44-4.92.71-3.24.86-4.89-.26-3.32-.16-5,.27-3.27.33-4.93,0-3.28,0-4.94,0-3.28-.06-4.94.37-3.3.29-5-.24-3.29-.36-4.94-.31-3.28-.46-4.92-.2-3.29-.4-4.94-.61-3.24-.85-4.87-.55-3.25-.84-4.88-.51-3.25-.83-4.87-1-3.15-1.37-4.76-.75-3.2-1.16-4.8-.38-3.3-.82-4.9-.91-3.16-1.39-4.75-1.23-3.06-1.75-4.63-1-3.13-1.57-4.69-1-3.12-1.62-4.67-1.23-3.05-1.86-4.58-1.22-3.05-1.88-4.57-1.57-2.9-2.26-4.4-1.19-3.07-1.91-4.57-1.25-3.05-2-4.52-1.84-2.75-2.62-4.21-1.5-2.92-2.32-4.37-1.42-3-2.27-4.4-1.46-3-2.34-4.37-1.81-2.75-2.71-4.15-1.76-2.78-2.69-4.16-2-2.59-3-3.95"/><path class="cls-1" d="M434.85,809.46c.45-1.53.48-3.24,1-4.87s1.3-3,1.79-4.64.73-3.18,1.22-4.8,1.16-3.07,1.65-4.68.9-3.15,1.39-4.76l1.47-4.73c.48-1.55.91-3.15,1.42-4.75s.63-3.24,1.14-4.84,1.25-3,1.76-4.64,1.34-3,1.86-4.61.52-3.29,1-4.87,1.37-3,1.89-4.6.76-3.22,1.29-4.8,1.33-3,1.86-4.6,1-3.13,1.58-4.7,1.08-3.11,1.62-4.69.64-3.26,1.19-4.83,1.41-3,2-4.57,1.1-3.1,1.66-4.67,1.1-3.11,1.66-4.67,1.32-3,1.89-4.59,1.2-3.07,1.78-4.63.54-3.31,1.11-4.87,1.18-3.08,1.77-4.63,1.34-3,1.93-4.58,1.23-3.05,1.83-4.6.9-3.19,1.5-4.74,1.67-2.89,2.27-4.43,1.09-3.12,1.7-4.66,1.43-3,2-4.52l1.86-4.6c.62-1.53,1.11-3.11,1.74-4.64s1.18-3.09,1.81-4.61,1.46-3,2.11-4.5.89-3.21,1.54-4.73,1.12-3.11,1.77-4.63,1.51-2.95,2.17-4.47,1.2-3.08,1.87-4.59,1.47-3,2.15-4.47,1.24-3.07,1.92-4.58,1.4-3,2.09-4.5,1.83-2.79,2.53-4.29,1.34-3,2-4.51,1.2-3.1,1.91-4.59,1.27-3.06,2-4.54,1.59-2.91,2.33-4.39,1.45-3,2.19-4.45,1.56-2.92,2.31-4.39,1.7-2.84,2.46-4.3,1.17-3.13,1.94-4.59,1.48-3,2.26-4.42,1.82-2.78,2.61-4.23,1.73-2.82,2.54-4.26,1.2-3.12,2-4.55,1.66-2.87,2.49-4.29,2.09-2.62,2.92-4,1.55-2.94,2.4-4.35,1.75-2.81,2.61-4.21,1.42-3,2.29-4.42,1.79-2.79,2.68-4.18,2-2.66,2.88-4,2-2.66,2.91-4,1.83-2.77,2.77-4.12,1.85-2.74,2.81-4.08,2-2.63,3-4,1.9-2.72,2.89-4,2.23-2.47,3.24-3.76,2-2.64,3-3.91,1.73-2.87,2.79-4.13,2.53-2.19,3.61-3.43,2-2.67,3.09-3.89,2.15-2.52,3.27-3.72,2.29-2.4,3.44-3.57,2.21-2.49,3.39-3.63,2.58-2.1,3.79-3.21,2.43-2.27,3.66-3.34,2.36-2.36,3.63-3.4,2.84-1.76,4.14-2.75,2.52-2.19,3.85-3.14,2.94-1.57,4.31-2.47,2.66-2,4.07-2.83,2.87-1.66,4.31-2.44,3-1.46,4.45-2.17,2.84-1.65,4.29-2.36,3-1.39,4.4-2.13,3.09-1.16,4.51-1.91,2.89-1.58,4.29-2.36,2.83-1.68,4.22-2.49,2.59-2.06,4-2.9,3.11-1.23,4.46-2.09,2.58-2.07,3.91-3,2.81-1.72,4.12-2.65,2.4-2.27,3.69-3.23,2.62-2,3.87-3,2.56-2.05,3.77-3.1,2.59-2,3.77-3.1,2.52-2.12,3.65-3.26,2.22-2.43,3.3-3.61,2.17-2.46,3.2-3.69,2-2.58,3-3.86,2-2.63,2.85-4,1.74-2.78,2.54-4.17,1.91-2.7,2.63-4.14,1.2-3.07,1.81-4.56,1-3.1,1.54-4.64,1.23-3,1.64-4.61.48-3.23.78-4.83.52-3.2.71-4.82.55-3.21.64-4.84.41-3.25.41-4.89-.31-3.24-.4-4.88-.49-3.21-.66-4.84-.25-3.23-.49-4.85-.2-3.26-.52-4.87-1.15-3.07-1.52-4.67-.27-3.27-.69-4.86-.89-3.12-1.36-4.7-1.27-3-1.78-4.56-.63-3.21-1.18-4.76-1.27-3-1.85-4.53-1-3.09-1.6-4.62-1.3-3-1.93-4.49-1.3-3-2-4.48-1.31-3-2-4.47-1.42-2.92-2.1-4.41-1.31-3-2-4.46-1.29-3-2-4.47-1.37-2.95-2.09-4.42-1.56-3-2.31-4.47-1.63-3-2.4-4.42-1.62-3-2.41-4.42-1.67-2.93-2.48-4.37-1.46-3.06-2.29-4.48-2-2.75-2.85-4.16-1.79-2.86-2.67-4.25-1.48-3.07-2.4-4.44-2.26-2.56-3.2-3.9-1.61-3-2.58-4.34-2.05-2.71-3.05-4-2.41-2.41-3.44-3.69-1.9-2.83-3-4.07-2.44-2.38-3.53-3.59-2.27-2.53-3.4-3.7-2.12-2.69-3.28-3.82-2.71-2.11-3.9-3.2-2.55-2.27-3.77-3.3-2.48-2.41-3.73-3.38c-1.41-1.09-2.79-2-4.06-2.95A16.66,16.66,0,0,0,607.76,196a20.35,20.35,0,0,0-5.23,1.18,21,21,0,0,0-4.35,3.15c-1.93,1.61-2.19,1.3-4.11,2.9s-1.72,1.85-3.65,3.46-1.94,1.59-3.87,3.2-2,1.45-4,3.06-1.89,1.65-3.81,3.25-1.87,1.68-3.79,3.29-1.81,1.76-3.73,3.36-2.09,1.41-4,3-1.8,1.76-3.73,3.36-1.81,1.74-3.74,3.34-2,1.51-3.93,3.11-2.2,1.28-4.13,2.88-1.88,1.66-3.81,3.27-1.78,1.78-3.71,3.38-2,1.56-3.9,3.16-1.76,1.81-3.69,3.42-2.16,1.32-4.09,2.93-1.77,1.79-3.7,3.4-1.94,1.59-3.87,3.2-2.13,1.36-4.06,3-1.59,2-3.52,3.62-2.28,1.19-4.21,2.8-1.83,1.73-3.76,3.34A18.76,18.76,0,0,1,498.28,279c-1.41.15-3,0-4.8.22-1.49.15-3.06.6-4.74.77s-3.16,0-4.8.17-3.12.65-4.74.82-3.17.29-4.78.45-3.18.3-4.78.46-3.24-.08-4.82.09-3.19.53-4.75.69-3.21.52-4.76.69-3.27.19-4.79.36c-1.69.19-3.28.51-4.76.68-1.77.2-3.39.26-4.78.44-2.13.26-3.8.32-4.78.49"/><path class="cls-1" d="M250.68,405.08c-2.5.05-1.84.21-4.89.79A45.3,45.3,0,0,0,241,407a49.46,49.46,0,0,0-4.75,1.47c-1.46.59-2.89,1.44-4.44,2.25s-3.14,1.09-4.59,2-2.53,2.11-3.87,3.19a49.49,49.49,0,0,0-3.93,3.11c-1.15,1.12-2.25,2.41-3.36,3.72s-1.91,2.67-2.9,4.07-1.92,2.67-2.79,4.15-1.24,3-2,4.58-1.48,2.91-2.11,4.51-1.25,3-1.78,4.66-.77,3.17-1.2,4.83-1.1,3.1-1.44,4.78-.43,3.25-.69,4.94-.63,3.23-.81,4.92-.57,3.26-.69,5,.26,3.31.2,5-.48,3.29-.48,5,.45,3.29.5,5,.11,3.29.21,5-.1,3.31,0,5,.33,3.28.51,5,.56,3.25.78,4.93.3,3.29.56,5,.7,3.23,1,4.9.37,3.29.68,5,.7,3.23,1,4.89.93,3.18,1.3,4.83.76,3.22,1.15,4.86.8,3.21,1.22,4.85"/><path class="cls-1" d="M247.62,519.39s-.79,1.24-2.41,4c-.71,1.18-1.83,2.42-2.8,4-.77,1.27-1.41,2.79-2.34,4.3-.79,1.31-1.61,2.73-2.51,4.2s-1.82,2.62-2.71,4.07-1.75,2.69-2.64,4.12-1.45,2.89-2.34,4.3-2,2.56-2.89,4-1.35,3-2.25,4.36-1.88,2.65-2.77,4l-2.66,4.1c-.88,1.35-1.58,2.84-2.49,4.22s-1.83,2.67-2.74,4.05-2.28,2.38-3.19,3.75-1.26,3.07-2.18,4.43-1.92,2.63-2.84,4-2,2.57-2.94,3.92-1.72,2.77-2.65,4.12-1.81,2.71-2.75,4.05-1.78,2.74-2.72,4.08-2.35,2.33-3.3,3.66-1.95,2.62-2.91,3.94-1.57,2.9-2.54,4.21-1.84,2.71-2.81,4-2.32,2.35-3.31,3.64-2,2.61-3,3.89-2.14,2.48-3.15,3.75-2,2.64-3,3.89-1.81,2.76-2.84,4-2,2.62-3,3.85-2.53,2.16-3.59,3.37-2.25,2.39-3.33,3.58-1.8,2.83-2.9,4-2.31,2.37-3.43,3.49"/><path class="cls-1" d="M488.47,353.53c-2.35,1-2,.33-4.5,2.32a37.69,37.69,0,0,0-3.48,3.73,67.63,67.63,0,0,0-6.09,8.13,48.43,48.43,0,0,0-2.21,4.61c-.6,1.49-.83,3.21-1.36,4.92-.47,1.54-.72,3.21-1.11,4.95-.35,1.58-.81,3.2-1.08,5s-.83,3.25-1,5"/><path class="cls-1" d="M148.79,656.76c-.92-1.34-2.08-2.52-3-3.88s-1.67-2.8-2.55-4.17-1.87-2.67-2.74-4-1.75-2.75-2.6-4.14-2-2.62-2.81-4-1.29-3-2.11-4.43-1.82-2.72-2.61-4.14-1.39-3-2.17-4.39-1.77-2.75-2.52-4.19-1-3.14-1.77-4.59-1.61-2.84-2.32-4.3-1.88-2.71-2.58-4.19-.94-3.15-1.62-4.63-1.18-3-1.83-4.54-1.88-2.74-2.51-4.24-.73-3.22-1.35-4.73-1.46-2.92-2.06-4.44-1-3.1-1.58-4.63-1.06-3.07-1.62-4.6-1.3-3-1.83-4.54-1.36-3-1.87-4.53-.85-3.15-1.34-4.7-.61-3.22-1.08-4.78-1.06-3.08-1.52-4.65-.77-3.16-1.2-4.73-1.16-3.06-1.57-4.64-.75-3.17-1.14-4.76-.71-3.17-1.08-4.76-.57-3.21-.91-4.8-.63-3.2-1-4.8-1.09-3.1-1.39-4.7-.67-3.2-.95-4.8-.53-3.22-.79-4.83-.09-3.28-.33-4.89-.35-3.24-.57-4.86-.67-3.19-.87-4.81-.53-3.22-.7-4.84-.38-3.24-.53-4.86.12-3.28,0-4.91-.61-3.22-.72-4.85-.19-3.25-.27-4.88-.24-3.25-.31-4.88,0-3.26,0-4.89.25-3.26.23-4.89-.58-3.26-.58-4.89.63-3.3.65-4.95,0-3.3.09-4.94-.46-3.32-.4-5,.53-3.28.62-4.93-.29-3.33-.18-5,.82-3.26.95-4.9,0-3.31.2-4.95.51-3.27.69-4.91.07-3.31.26-5,.54-3.26.76-4.89.69-3.24.93-4.87.18-3.31.44-4.94.8-3.21,1.09-4.84.59-3.25.9-4.86.42-3.29.75-4.9.45-3.28.8-4.9.83-3.2,1.2-4.8,1-3.15,1.43-4.75.58-3.26,1-4.86.7-3.23,1.14-4.82,1.22-3.09,1.68-4.67.92-3.17,1.4-4.75.65-3.26,1.16-4.83,1.42-3,1.95-4.57.56-3.3,1.11-4.85,1.2-3.08,1.77-4.63,1.45-3,2-4.53,1.22-3.06,1.84-4.59,1.13-3.11,1.76-4.63,1.13-3.11,1.78-4.63,1.33-3,2-4.53,1.52-2.94,2.21-4.43,1.21-3.09,1.92-4.57,1.81-2.79,2.55-4.27,1.16-3.11,1.92-4.58,1.83-2.76,2.6-4.22,1.43-3,2.22-4.43,1.38-3,2.2-4.44,1.73-2.82,2.56-4.24,1.8-2.77,2.65-4.19,1.48-3,2.35-4.37,2-2.66,2.86-4,1.91-2.69,2.82-4.07,1.57-2.92,2.49-4.28,1.75-2.81,2.7-4.16,2-2.64,3-4,2.13-2.53,3.11-3.86,1.86-2.72,2.86-4,2.11-2.54,3.12-3.84,2-2.64,3-3.93,1.82-2.78,2.87-4.05,2.32-2.36,3.39-3.62,2-2.6,3.13-3.84,2.08-2.57,3.19-3.8,2.47-2.21,3.59-3.43,2.18-2.48,3.31-3.68,2.54-2.14,3.69-3.32,1.9-2.76,3.07-3.93,2.34-2.33,3.52-3.48,2.36-2.31,3.56-3.45,2.44-2.23,3.65-3.35l3.68-3.32c1.23-1.1,2.75-1.88,4-3s2.4-2.27,3.66-3.34,2.4-2.28,3.67-3.33,2.64-2,3.93-3,2.48-2.2,3.77-3.21,2.76-1.83,4.08-2.83,2.49-2.18,3.82-3.16,2.59-2.06,3.93-3,3-1.53,4.31-2.47,2.47-2.24,3.84-3.17,2.91-1.58,4.29-2.49,2.69-1.91,4.08-2.8,2.65-2,4.06-2.85,3.1-1.26,4.51-2.11,2.57-2.14,4-3,3.13-1.19,4.57-2,2.66-2,4.1-2.8,2.87-1.64,4.33-2.42,3-1.38,4.47-2.13,2.9-1.59,4.37-2.33,3-1.47,4.45-2.19,3-1.34,4.51-2,3.15-1,4.66-1.72,3-1.44,4.48-2.1,3-1.46,4.49-2.09,3-1.32,4.56-1.93,3.07-1.2,4.61-1.8,3.12-1.08,4.67-1.65,3.08-1.19,4.64-1.74,3-1.33,4.59-1.86,3.17-1,4.74-1.45,3.15-1,4.73-1.48,3.18-.88,4.77-1.34,3.25-.64,4.84-1.09,3.21-.75,4.8-1.17,3.15-1,4.75-1.41,3.22-.72,4.83-1.09,3.16-1,4.78-1.33,3.23-.66,4.85-1,3.28-.41,4.9-.72,3.23-.67,4.86-.95,3.2-.87,4.83-1.14,3.3-.25,4.93-.49,3.25-.6,4.89-.82,3.27-.41,4.91-.61,3.31-.06,4.95-.24,3.24-.77,4.89-.93,3.27-.43,4.92-.56,3.3-.19,4.94-.3,3.29-.33,4.94-.42,3.32.29,5,.23,3.3-.11,5-.15,3.29-.26,4.95-.28,3.3-.19,4.95-.19,3.14-.09,4.71-.07,3.13.59,4.69.63,3.16-.35,4.72-.29,3.15,0,4.71.07"/><path class="cls-1" d="M468.8,85.16c1.64.09,3.29-.12,4.92,0s3.26.38,4.9.5,3.27.14,4.9.29,3.27.29,4.9.46,3.3,0,4.93.2,3.2.82,4.82,1,3.29.21,4.91.45,3.21.69,4.83,1,3.28.27,4.89.54,3.14,1.1,4.74,1.4,3.25.45,4.86.77,3.32.16,4.92.51,3.1,1.17,4.69,1.54,3.15.92,4.74,1.31,3.34.18,4.92.59,3,1.39,4.61,1.82,3.23.62,4.8,1.07,3.09,1.1,4.66,1.58,3.11,1,4.67,1.52,3.19.8,4.74,1.32,3.21.74,4.76,1.28,3,1.25,4.57,1.81,2.95,1.49,4.48,2.07,3.11,1,4.63,1.63,3,1.32,4.52,1.94,3.16,1,4.66,1.59,3,1.34,4.49,2,3,1.38,4.47,2.06,2.91,1.51,4.39,2.21,2.93,1.46,4.4,2.18,3.14,1,4.61,1.78,3,1.43,4.4,2.19,2.89,1.55,4.33,2.33,2.68,1.93,4.11,2.73,2.8,1.7,4.22,2.52,3,1.42,4.37,2.26,2.9,1.55,4.29,2.41,2.82,1.68,4.2,2.55,2.54,2.11,3.92,3,2.94,1.49,4.3,2.4,2.71,1.85,4.06,2.78,2.74,1.8,4.08,2.75,2.6,2,3.92,3,2.45,2.2,3.76,3.18,2.94,1.55,4.24,2.55,2.21,2.49,3.5,3.51,2.56,2,3.83,3.07,2.89,1.65,4.14,2.7,2.26,2.41,3.5,3.48,2.79,1.79,4,2.87,2.06,2.62,3.27,3.72,2.58,2,3.77,3.16,2.25,2.38,3.44,3.52,2.56,2.06,3.73,3.21,2.24,2.39,3.39,3.56,2.13,2.5,3.26,3.68,2.5,2.15,3.62,3.34,2,2.58,3.15,3.79,2.19,2.43,3.28,3.65,2.33,2.32,3.4,3.56,2.31,2.34,3.37,3.59,2,2.59,3.06,3.85,1.85,2.72,2.87,4,2.22,2.43,3.22,3.72,2.13,2.5,3.11,3.81,1.69,2.83,2.66,4.15,1.94,2.64,2.9,4,2.17,2.48,3.11,3.83,1.5,2.94,2.42,4.3,2.26,2.43,3.16,3.8,1.7,2.81,2.58,4.19,1.48,2.94,2.34,4.34,1.67,2.81,2.51,4.22,1.77,2.76,2.59,4.18,1.78,2.76,2.58,4.19,1.59,2.87,2.37,4.31,1.4,3,2.16,4.42,1.71,2.8,2.46,4.26,1.1,3.11,1.83,4.59,1.75,2.79,2.46,4.27,1.08,3.11,1.77,4.6,1.49,2.91,2.15,4.41,1.55,2.9,2.19,4.41,1.18,3.06,1.8,4.58,1.11,3.09,1.71,4.61,1.46,3,2,4.48.91,3.16,1.47,4.7,1,3.13,1.52,4.68,1.36,3,1.88,4.55,1.16,3.07,1.66,4.63.88,3.16,1.36,4.73.72,3.2,1.17,4.78,1,3.11,1.47,4.69.74,3.2,1.15,4.78.89,3.15,1.29,4.75,1.1,3.1,1.47,4.7.46,3.26.81,4.86.82,3.18,1.15,4.79.77,3.19,1.08,4.8.25,3.28.53,4.9.65,3.21.92,4.83.15,3.29.39,4.91,1,3.16,1.25,4.79.43,3.25.63,4.88.4,3.25.58,4.89.28,3.26.44,4.9.27,3.26.4,4.9-.17,3.3-.06,4.93.34,3.26.43,4.9.36,3.27.42,4.91,0,3.28,0,4.92.24,3.27.27,4.91-.22,3.28-.22,4.92.22,3.31.2,4.95.07,3.31,0,5-.58,3.29-.64,4.93.28,3.32.2,5-.51,3.28-.62,4.92-.11,3.31-.24,4.95,0,3.32-.18,5-.87,3.23-1,4.87.15,3.34-.05,5-.95,3.21-1.17,4.84,0,3.33-.25,5-.43,3.28-.7,4.91-.71,3.23-1,4.85-.49,3.27-.8,4.89-.61,3.25-.94,4.87-.75,3.22-1.1,4.83-1.08,3.14-1.45,4.74-.65,3.24-1,4.84-.63,3.25-1.05,4.85-.79,3.21-1.23,4.79-.89,3.18-1.36,4.77-1,3.14-1.5,4.72-.92,3.17-1.42,4.74-.78,3.22-1.3,4.79-1.17,3.09-1.71,4.65-1.12,3.11-1.69,4.66-1.23,3.07-1.82,4.61-1.45,3-2.06,4.51-1.34,3-2,4.54-1.1,3.11-1.76,4.63-1.37,3-2,4.51-1.15,3.1-1.84,4.6-1.43,3-2.14,4.47-1.66,2.86-2.39,4.34-1.42,3-2.18,4.44-1.24,3.08-2,4.54-1.79,2.78-2.58,4.23-1.5,2.94-2.31,4.38-1.65,2.86-2.49,4.28-2,2.68-2.81,4.09-1.34,3-2.21,4.45-1.64,2.87-2.53,4.26-1.84,2.74-2.75,4.12-1.73,2.82-2.66,4.18-2.24,2.47-3.19,3.82-1.91,2.69-2.87,4-1.8,2.77-2.78,4.1-1.84,2.74-2.84,4.06-1.93,2.68-3,4-2.47,2.25-3.51,3.54S733,681.74,732,683s-2,2.62-3.08,3.88-2.13,2.53-3.22,3.77-2.26,2.41-3.37,3.64-2.28,2.38-3.4,3.59-2.51,2.18-3.64,3.38-2.15,2.51-3.3,3.69-2.51,2.16-3.68,3.33-2.09,2.57-3.28,3.72-2.51,2.15-3.7,3.29-2.12,2.57-3.33,3.69-2.73,1.9-4,3-2.34,2.33-3.58,3.41-2.29,2.41-3.55,3.48S684.3,731,683,732s-2.49,2.17-3.78,3.2-2.8,1.78-4.1,2.8-2.64,2-3.95,3-2.53,2.14-3.85,3.12-2.79,1.78-4.13,2.75-2.64,2-4,2.93-2.86,1.66-4.22,2.59-2.69,1.91-4.07,2.82-2.64,2-4,2.89-2.82,1.7-4.22,2.57-2.85,1.67-4.27,2.52-2.75,1.82-4.18,2.65-2.76,1.82-4.2,2.64-3.07,1.25-4.52,2-2.84,1.68-4.3,2.46-2.92,1.52-4.39,2.27-3,1.41-4.46,2.14-2.87,1.66-4.36,2.37-3,1.29-4.54,2-2.94,1.5-4.45,2.17-3,1.34-4.53,2-3,1.42-4.5,2.06-3,1.39-4.53,2-3.24.8-4.78,1.39-3,1.47-4.52,2-3.07,1.24-4.62,1.78-3.18.92-4.75,1.44-3.08,1.19-4.65,1.7-3.18.92-4.75,1.4-3.17.93-4.76,1.4-3.13,1-4.72,1.5-3.23.7-4.83,1.12-3.29.45-4.89.85-3.11,1.16-4.72,1.54-3.21.77-4.82,1.13-3.23.72-4.85,1.05-3.21.76-4.83,1.07-3.35,0-5,.31-3.24.6-4.87.87-3.22.74-4.85,1-3.23.79-4.86,1-3.28.38-4.92.58-3.28.46-4.92.63-3.29.27-4.94.42-3.28.36-4.93.49-3.31-.07-5,0-3.31,0-5,0-3.27.52-4.92.59-3.3.18-4.95.23-3.3,0-5,0-3.3-.27-4.95-.27-3,.62-4.53.6-3,0-4.53-.08-3-.11-4.53-.17-3-.22-4.52-.29"/></g></svg>