<?xml version="1.0" standalone="no"?>
<!DOCTYPE svg PUBLIC "-//W3C//DTD SVG 1.1//EN" "http://www.w3.org/Graphics/SVG/1.1/DTD/svg11.dtd" >
<svg xmlns="http://www.w3.org/2000/svg" xmlns:xlink="http://www.w3.org/1999/xlink" version="1.1">
<metadata>
Created by FontForge 20170731 at Sun Feb 14 19:14:54 2021
 By Aleksey,,,
Copyright (c) 2017 by Colophon Foundry. All rights reserved.
</metadata>
<defs>
<font id="ApercuMonoPro-Bold" horiz-adv-x="1269" >
  <font-face 
    font-family="Apercu Mono Pro"
    font-weight="700"
    font-stretch="normal"
    units-per-em="2048"
    panose-1="2 1 8 9 4 0 0 4 0 3"
    ascent="1614"
    descent="-434"
    x-height="1032"
    cap-height="1434"
    bbox="-1270 -608 1393 2312"
    underline-thickness="126"
    underline-position="-454"
    unicode-range="U+000D-FB02"
  />
<missing-glyph 
d="M176 0v1434h916v-1434h-916zM348 156h572v1122h-572v-1122z" />
    <glyph glyph-name="fi" unicode="fi" 
d="M352 0v815h-215v217h215v64q0 176 111 264q116 90 274 90q118 0 203.5 -36.5t151.5 -119.5l-166 -157q-40 57 -80.5 77.5t-95.5 20.5q-64 0 -104 -35.5t-40 -99.5v-68h524v-1032h-253v815h-271v-815h-254z" />
    <glyph glyph-name="fl" unicode="fl" 
d="M197 0v815h-131v217h131v53q0 180 93.5 272.5t262.5 92.5h567v-1450h-254v1233h-299q-116 0 -116 -129v-72h217v-217h-217v-815h-254z" />
    <glyph glyph-name=".notdef" 
d="M176 0v1434h916v-1434h-916zM348 156h572v1122h-572v-1122z" />
    <glyph glyph-name=".null" horiz-adv-x="0" 
 />
    <glyph glyph-name="nonmarkingreturn" horiz-adv-x="682" 
 />
    <glyph glyph-name="CR" unicode="&#xd;" 
 />
    <glyph glyph-name="space" unicode=" " 
 />
    <glyph glyph-name="exclam" unicode="!" 
d="M524 496l-57 938h336l-58 -938h-221zM465 152q0 72 50.5 122t119.5 50t119.5 -50t50.5 -122q0 -70 -49.5 -119t-120.5 -49t-120.5 49t-49.5 119z" />
    <glyph glyph-name="quotedbl" unicode="&#x22;" 
d="M358 940l-63 510h289l-64 -510h-162zM748 940l-64 510h289l-64 -510h-161z" />
    <glyph glyph-name="numbersign" unicode="#" 
d="M168 0l80 395h-193v201h234l49 242h-201v200h242l82 396h205l-82 -396h233l80 396h205l-80 -396h192v-200h-233l-49 -242h201v-201h-242l-82 -395h-205l82 395h-233l-80 -395h-205zM494 596h233l49 242h-233z" />
    <glyph glyph-name="dollar" unicode="$" 
d="M786 -4v-201h-249v199q-167 30 -277 135.5t-145 276.5l235 88q26 -123 104 -194t212 -71q98 0 153 48.5t55 138.5q-2 24 -6 42t-13.5 35t-18 28t-29.5 24.5t-39 22.5t-54 22.5t-67 24t-86 28.5q-181 58 -267.5 156.5t-86.5 255.5q0 148 88 250t242 133v200h249v-200
q121 -29 202.5 -105.5t119.5 -189.5l-215 -109q-31 85 -92 127.5t-142 42.5q-80 0 -133 -41.5t-53 -113.5q0 -80 60 -125t212 -84q199 -52 297.5 -147.5t98.5 -266.5q0 -179 -93.5 -289t-261.5 -141z" />
    <glyph glyph-name="percent" unicode="%" 
d="M27 1122q0 139 95 233.5t240 94.5t240.5 -94.5t95.5 -233.5t-95.5 -233t-240.5 -94t-240 94t-95 233zM510 1122q0 68 -40.5 112t-107.5 44t-107 -44t-40 -112t40 -111.5t107 -43.5t107.5 43.5t40.5 111.5zM170 258l-107 137l1016 756l107 -135zM571 311q0 139 95.5 233.5
t240.5 94.5t240.5 -94.5t95.5 -233.5t-95.5 -233t-240.5 -94t-240.5 94t-95.5 233zM1055 311q0 68 -40.5 112t-107.5 44t-107 -44t-40 -112t40 -111.5t107 -43.5t107.5 43.5t40.5 111.5z" />
    <glyph glyph-name="ampersand" unicode="&#x26;" 
d="M27 422q0 144 74 257.5t198 184.5q-98 140 -98 281q0 129 92.5 217t241.5 88q148 0 239.5 -84.5t91.5 -202.5q0 -117 -64 -212t-169 -152l235 -310q58 107 105 259l147 -173q-39 -162 -106 -276l229 -299h-301l-84 111q-160 -127 -377 -127q-198 0 -326 119t-128 319z
M637 1137q0 42 -28.5 69t-73.5 27q-48 0 -78.5 -29t-30.5 -76q0 -73 66 -157q145 65 145 166zM717 299l-289 385q-74 -44 -115 -112t-41 -146q0 -89 59 -148t152 -59q135 0 234 80z" />
    <glyph glyph-name="quotesingle" unicode="'" 
d="M555 940l-63 510h288l-63 -510h-162z" />
    <glyph glyph-name="parenleft" unicode="(" 
d="M483 717q0 183 29 338q27 145 74 252q50 116 112 229h220q-101 -187 -144 -367q-45 -184 -45 -452q0 -278 45 -457q43 -172 144 -362h-220q-59 108 -112 227q-103 246 -103 592z" />
    <glyph glyph-name="parenright" unicode=")" 
d="M541 717q0 259 -47 452q-45 187 -142 367h219q67 -122 113 -229q102 -240 102 -590q0 -188 -28 -340q-27 -142 -74 -252q-48 -109 -113 -227h-219q97 183 142 362q47 186 47 457z" />
    <glyph glyph-name="asterisk" unicode="*" 
d="M500 698l-174 129l137 187l-223 76l67 202l223 -73v231h209v-231l224 73l67 -202l-223 -76l137 -187l-174 -129l-135 191z" />
    <glyph glyph-name="plus" unicode="+" 
d="M524 162v377h-377v221h377v377h221v-377h377v-221h-377v-377h-221z" />
    <glyph glyph-name="comma" unicode="," 
d="M379 -319l153 618h342l-317 -618h-178z" />
    <glyph glyph-name="hyphen" unicode="-" 
d="M279 539v221h714v-221h-714z" />
    <glyph glyph-name="period" unicode="." 
d="M453 166q0 78 52 130t130 52t130 -52t52 -130t-52 -130t-130 -52t-130 52t-52 130z" />
    <glyph glyph-name="slash" unicode="/" 
d="M106 -102l832 1638h246l-832 -1638h-246z" />
    <glyph glyph-name="zero" unicode="0" 
d="M106 717q0 347 138 540t391 193q252 0 390 -193t138 -540t-138 -540t-390 -193q-253 0 -391 193t-138 540zM387 453l344 741q-43 18 -96 18q-275 0 -275 -495q0 -156 27 -264zM909 717q0 147 -20 237l-336 -721q38 -12 82 -12q274 0 274 496z" />
    <glyph glyph-name="one" unicode="1" 
d="M240 0v238h325v835l-274 -164v279l420 246h112v-1196h326v-238h-909z" />
    <glyph glyph-name="two" unicode="2" 
d="M180 0v102l512 662q61 79 86 138t25 122q0 89 -45.5 138.5t-130.5 49.5q-78 0 -126.5 -48.5t-60.5 -139.5l-237 45q9 163 131.5 272t298.5 109q199 0 313.5 -114t114.5 -302q0 -176 -123 -340l-350 -456h504v-238h-912z" />
    <glyph glyph-name="three" unicode="3" 
d="M145 397l248 33q53 -209 232 -209q100 0 163.5 66t63.5 174q0 119 -61.5 185.5t-163.5 66.5q-65 0 -125 -31l-103 143l271 371h-457v238h821v-91l-338 -456q50 4 58 4q163 0 259.5 -117t96.5 -309q0 -144 -63.5 -254.5t-173.5 -168.5t-248 -58q-196 0 -328.5 115.5
t-151.5 297.5z" />
    <glyph glyph-name="four" unicode="4" 
d="M733 0v266h-606v131l594 1037h270v-930h152v-238h-152v-266h-258zM440 504h293v547z" />
    <glyph glyph-name="five" unicode="5" 
d="M195 375l243 45q40 -199 215 -199q104 0 158.5 65.5t54.5 188.5q0 121 -58 184.5t-167 63.5q-138 0 -254 -129l-162 33l80 807h737v-238h-526l-33 -299q89 53 203 53q213 0 325.5 -125.5t112.5 -349.5q0 -218 -130 -354.5t-341 -136.5q-184 0 -311.5 107.5t-146.5 283.5z
" />
    <glyph glyph-name="six" unicode="6" 
d="M156 451q0 126 69 251l418 748h287l-312 -532h33q199 0 331 -131.5t132 -335.5q0 -198 -137.5 -332.5t-341.5 -134.5q-132 0 -242 61t-173.5 168t-63.5 238zM856 451q0 104 -61.5 166.5t-159.5 62.5t-159.5 -62.5t-61.5 -166.5q0 -101 63.5 -165.5t157.5 -64.5
q95 0 158 64t63 166z" />
    <glyph glyph-name="seven" unicode="7" 
d="M236 0l565 1196h-635v238h944v-107l-616 -1327h-258z" />
    <glyph glyph-name="eight" unicode="8" 
d="M168 428q0 238 188 344q-133 108 -133 287q0 162 117.5 276.5t294.5 114.5t294.5 -114.5t117.5 -276.5q0 -182 -136 -287q92 -52 141.5 -139.5t49.5 -204.5q0 -132 -64 -234.5t-169.5 -156t-233.5 -53.5t-233.5 53.5t-169.5 156t-64 234.5zM807 1055q0 80 -47 129
t-125 49t-125 -49t-47 -129q0 -82 47 -132.5t125 -50.5t125 50.5t47 132.5zM844 428q0 95 -58.5 151t-150.5 56t-150.5 -56t-58.5 -151t58.5 -151t150.5 -56t150.5 56t58.5 151z" />
    <glyph glyph-name="nine" unicode="9" 
d="M340 -16l311 532h-33q-199 0 -330.5 131.5t-131.5 335.5q0 198 137.5 332.5t341.5 134.5q132 0 242 -61t173.5 -168t63.5 -238q0 -126 -70 -252l-417 -747h-287zM856 983q0 101 -63.5 165t-157.5 64q-95 0 -158 -64t-63 -165q0 -104 61.5 -166.5t159.5 -62.5t159.5 62.5
t61.5 166.5z" />
    <glyph glyph-name="colon" unicode=":" 
d="M453 166q0 78 52 130t130 52t130 -52t52 -130t-52 -130t-130 -52t-130 52t-52 130zM453 866q0 78 52 130.5t130 52.5t130 -52.5t52 -130.5t-52 -130t-130 -52t-130 52t-52 130z" />
    <glyph glyph-name="semicolon" unicode=";" 
d="M338 -319l154 618h342l-318 -618h-178zM453 866q0 78 52 130.5t130 52.5t130 -52.5t52 -130.5t-52 -130t-130 -52t-130 52t-52 130z" />
    <glyph glyph-name="less" unicode="&#x3c;" 
d="M1034 98l-801 418v238l801 417v-268l-516 -268l516 -268v-269z" />
    <glyph glyph-name="equal" unicode="=" 
d="M188 709v221h893v-221h-893zM188 340v221h893v-221h-893z" />
    <glyph glyph-name="greater" unicode="&#x3e;" 
d="M236 98v269l516 268l-516 268v268l800 -417v-238z" />
    <glyph glyph-name="question" unicode="?" 
d="M354 698q0 95 55.5 159.5t165.5 107.5l93 36q112 46 112 134q0 50 -35.5 76t-97.5 26q-63 0 -108.5 -35.5t-65.5 -101.5l-223 37q25 139 130 226t261 87q172 0 275.5 -88t103.5 -236q0 -96 -50 -159t-155 -107l-78 -33q-107 -44 -140.5 -69.5t-33.5 -65.5
q0 -32 21.5 -51.5t52.5 -19.5q83 0 117 94l180 -68q-36 -100 -113 -155.5t-184 -55.5q-125 0 -204 72.5t-79 189.5zM467 156q0 72 50.5 122t119.5 50t119.5 -50t50.5 -122q0 -70 -49.5 -119t-120.5 -49t-120.5 49t-49.5 119z" />
    <glyph glyph-name="at" unicode="@" 
d="M66 578v79q0 190 47 344t129.5 256.5t196 157.5t247.5 55q245 0 390 -117t145 -333v-801h-205l-17 90q-78 -106 -221 -106q-163 0 -265.5 120t-102.5 300q0 186 100 301q101 116 268 116q71 0 134 -24t102 -66v43q0 260 -309 260q-179 0 -295.5 -158.5t-116.5 -443.5v-69
q0 -123 28.5 -221t73.5 -159.5t105 -102.5t118.5 -57.5t118.5 -16.5q95 0 167 32t143 101l116 -183q-175 -168 -438 -168q-146 0 -268 52.5t-208.5 150.5t-134.5 243.5t-48 324.5zM1010 623q0 107 -51.5 171t-141.5 64t-141 -64t-51 -171t51.5 -172.5t140.5 -65.5
q90 0 141.5 65.5t51.5 172.5z" />
    <glyph glyph-name="A" unicode="A" 
d="M39 0l450 1434h291l451 -1434h-275l-100 334h-442l-101 -334h-274zM487 580h295l-147 495z" />
    <glyph glyph-name="B" unicode="B" 
d="M197 0v1434h483q192 0 301 -99.5t109 -287.5q0 -88 -37.5 -159t-104.5 -106q215 -89 215 -350q0 -206 -125 -319t-348 -113h-493zM463 877h203q87 0 127.5 36t40.5 119t-42.5 119.5t-132.5 36.5h-196v-311zM463 246h203q119 0 175 48t56 144q0 193 -231 193h-203v-385z
" />
    <glyph glyph-name="C" unicode="C" 
d="M84 717q0 176 47.5 317t130.5 231t193 137.5t237 47.5q407 0 539 -432l-252 -78q-36 146 -108.5 205t-178.5 59q-145 0 -243 -110q-99 -111 -99 -377t99 -377t243 -111q106 0 178.5 59.5t108.5 205.5l252 -78q-132 -432 -539 -432q-127 0 -237 47.5t-193 137.5
t-130.5 231t-47.5 317z" />
    <glyph glyph-name="D" unicode="D" 
d="M131 0v1434h404q143 0 266 -44.5t218 -131t149.5 -225.5t54.5 -316t-54.5 -316t-149.5 -225.5t-218 -131t-266 -44.5h-404zM397 246h115q177 0 307 106q133 109 133 365q0 255 -133 364q-131 107 -307 107h-115v-942z" />
    <glyph glyph-name="E" unicode="E" 
d="M186 0v1434h910v-246h-643v-301h540v-246h-540v-395h663v-246h-930z" />
    <glyph glyph-name="F" unicode="F" 
d="M186 0v1434h895v-267h-628v-297h528v-245h-528v-625h-267z" />
    <glyph glyph-name="G" unicode="G" 
d="M90 717q-2 150 33.5 276t93.5 209t132.5 140.5t150 83t147.5 24.5q435 0 549 -436l-252 -76q-30 139 -98 202.5t-176 63.5q-146 0 -230 -121t-84 -366t78 -366.5t213 -121.5q117 0 195.5 69.5t91.5 201.5h-275v221h531v-721h-223l-21 139q-54 -79 -127.5 -117t-191.5 -38
q-75 -1 -150.5 26.5t-146 87.5t-124.5 145t-86 208t-30 266z" />
    <glyph glyph-name="H" unicode="H" 
d="M139 0v1434h267v-549h458v549h266v-1434h-266v639h-458v-639h-267z" />
    <glyph glyph-name="I" unicode="I" 
d="M199 0v246h303v942h-303v246h872v-246h-303v-942h303v-246h-872z" />
    <glyph glyph-name="J" unicode="J" 
d="M119 375l262 55q19 -94 74.5 -147.5t134.5 -53.5q94 0 142 58t48 188v959h267v-930q0 -272 -115 -396t-342 -124q-195 0 -322 106q-128 110 -149 285z" />
    <glyph glyph-name="K" unicode="K" 
d="M117 0v1434h266v-535l412 535h321l-502 -639l539 -795h-324l-446 680v-680h-266z" />
    <glyph glyph-name="L" unicode="L" 
d="M180 0v1434h266v-1188h646v-246h-912z" />
    <glyph glyph-name="M" unicode="M" 
d="M90 0v1434h252l293 -713l293 713h252v-1434h-240v887l-238 -516h-135l-237 516v-887h-240z" />
    <glyph glyph-name="N" unicode="N" 
d="M145 0v1434h246l486 -922v922h245v-1434h-245l-486 918v-918h-246z" />
    <glyph glyph-name="O" unicode="O" 
d="M78 717q0 176 42 316t117 230.5t176.5 138.5t221.5 48t221.5 -48t176.5 -138.5t117 -230.5t42 -316t-42 -316t-117 -230.5t-176.5 -138.5t-221.5 -48t-221.5 48t-176.5 138.5t-117 230.5t-42 316zM926 717q0 245 -78 366t-213 121t-213 -121t-78 -366t78 -366.5
t213 -121.5t213 121.5t78 366.5z" />
    <glyph glyph-name="P" unicode="P" 
d="M203 0v1434h520q215 0 331.5 -118t116.5 -319t-116.5 -318.5t-331.5 -117.5h-254v-561h-266zM469 807h244q188 0 188 190q0 191 -188 191h-244v-381z" />
    <glyph glyph-name="Q" unicode="Q" 
d="M1229 168l-182 -188l-105 102q-131 -98 -307 -98q-120 0 -221.5 48t-176.5 138.5t-117 230.5t-42 316t42 316t117 230.5t176.5 138.5t221.5 48t221.5 -48t176.5 -138.5t117 -230.5t42 -316q0 -253 -86 -430zM758 260l-172 166l182 188l133 -129q25 98 25 232
q0 245 -78 366t-213 121t-213 -121t-78 -366t78 -366.5t213 -121.5q63 0 123 31z" />
    <glyph glyph-name="R" unicode="R" 
d="M143 0v1434h523q206 0 321 -110.5t115 -297.5q0 -144 -70 -245.5t-198 -139.5l397 -641h-297l-385 618h-139v-618h-267zM410 864h258q168 0 168 162t-168 162h-258v-324z" />
    <glyph glyph-name="S" unicode="S" 
d="M104 406l236 88q26 -123 103.5 -194t211.5 -71q98 0 153.5 48.5t55.5 138.5q-2 24 -6 42t-13.5 35t-18 28t-29.5 24.5t-39 22.5t-54 22.5t-67 24t-86 28.5q-181 58 -267.5 156.5t-86.5 255.5q0 177 124.5 286t327.5 109q172 0 286 -82.5t163 -224.5l-215 -109
q-31 85 -92 127.5t-142 42.5q-80 0 -133 -41.5t-53 -113.5q0 -80 60 -125t212 -84q199 -52 297 -147.5t98 -266.5q0 -212 -130.5 -327t-352.5 -115q-212 0 -357 110.5t-186 311.5z" />
    <glyph glyph-name="T" unicode="T" 
d="M502 0v1188h-404v246h1073v-246h-403v-1188h-266z" />
    <glyph glyph-name="U" unicode="U" 
d="M121 545v889h266v-893q0 -155 63 -233.5t185 -78.5q132 0 190 75t58 237v893h266v-889q0 -276 -141 -420q-141 -141 -373 -141t-373 141q-141 144 -141 420z" />
    <glyph glyph-name="V" unicode="V" 
d="M489 0l-466 1434h282l330 -1059l330 1059h282l-467 -1434h-291z" />
    <glyph glyph-name="W" unicode="W" 
d="M160 0l-137 1434h253l68 -902l209 629h164l209 -629l67 902h254l-137 -1434h-283l-192 670l-234 -670h-241z" />
    <glyph glyph-name="X" unicode="X" 
d="M59 0l424 770l-360 664h287l225 -439l225 439h287l-361 -664l424 -770h-286l-289 545l-289 -545h-287z" />
    <glyph glyph-name="Y" unicode="Y" 
d="M512 0v528l-455 906h287l291 -621l291 621h286l-454 -906v-528h-246z" />
    <glyph glyph-name="Z" unicode="Z" 
d="M150 0v123l614 1065h-586v246h934v-123l-614 -1065h637v-246h-985z" />
    <glyph glyph-name="bracketleft" unicode="[" 
d="M369 -102v1638h643v-221h-398v-1196h398v-221h-643z" />
    <glyph glyph-name="backslash" unicode="\" 
d="M928 -102l-832 1638h246l832 -1638h-246z" />
    <glyph glyph-name="bracketright" unicode="]" 
d="M258 -102v221h397v1196h-397v221h643v-1638h-643z" />
    <glyph glyph-name="asciicircum" unicode="^" 
d="M125 825l399 609h219l400 -609h-256l-252 387l-254 -387h-256z" />
    <glyph glyph-name="underscore" unicode="_" 
d="M143 -221v221h983v-221h-983z" />
    <glyph glyph-name="grave" unicode="`" 
d="M655 1147l-280 303h344l131 -303h-195z" />
    <glyph glyph-name="a" unicode="a" 
d="M207 297q0 152 122 245t318 93h172v45q0 79 -49.5 121.5t-130.5 42.5q-133 0 -178 -144l-215 62q37 129 144.5 208t248.5 79q208 0 315 -103t107 -330v-616h-197l-26 131q-120 -147 -318 -147q-140 0 -226.5 83.5t-86.5 229.5zM817 422v22h-186q-193 0 -193 -145
q0 -45 32 -77t85 -32q103 0 182.5 66t79.5 166z" />
    <glyph glyph-name="b" unicode="b" 
d="M451 106v-106h-254v1450h254v-512q37 46 106.5 78.5t142.5 32.5q215 0 342 -147.5t127 -385.5q0 -249 -122 -390.5t-347 -141.5q-83 0 -152.5 37t-96.5 85zM905 516q0 146 -66.5 230.5t-172.5 84.5t-172 -84t-66 -231t66 -231t172 -84t172.5 85t66.5 230z" />
    <glyph glyph-name="c" unicode="c" 
d="M152 516q0 148 58.5 268t172.5 192.5t264 72.5q321 0 447 -285l-217 -92q-37 87 -92 123t-138 36q-110 0 -175.5 -83.5t-65.5 -231.5t65.5 -231.5t175.5 -83.5q83 0 138 36t92 123l217 -92q-126 -284 -447 -284q-150 0 -264 72t-172.5 192t-58.5 268z" />
    <glyph glyph-name="d" unicode="d" 
d="M147 516q0 248 123 390.5t348 142.5q73 0 143 -32.5t107 -78.5v512h254v-1450h-254v106q-27 -48 -97 -85t-153 -37q-225 0 -348 142.5t-123 389.5zM891 516q0 147 -66 231t-172 84t-172.5 -84.5t-66.5 -230.5q0 -145 66.5 -230t172.5 -85t172 84t66 231z" />
    <glyph glyph-name="e" unicode="e" 
d="M147 516q0 80 18.5 155.5t58.5 144.5t97 120.5t140 82t182 30.5q118 0 212.5 -45t151.5 -119t87 -163t30 -183v-105h-727q6 -95 77 -164t183 -69q157 0 252 147l203 -106q-147 -258 -469 -258q-99 0 -182 30.5t-140 82t-97 120t-58.5 144t-18.5 155.5zM399 627h486
q-21 98 -82 155.5t-160 57.5q-95 0 -160.5 -60.5t-83.5 -152.5z" />
    <glyph glyph-name="f" unicode="f" 
d="M453 0v815h-250v217h250v64q0 173 97 263.5t261 90.5q120 0 215 -59l-55 -205q-58 49 -129 49q-63 0 -99 -35t-36 -100v-68h360v-217h-360v-815h-254z" />
    <glyph glyph-name="g" unicode="g" 
d="M182 -94q0 127 84 205q-53 65 -53 159q0 142 127 217q-72 90 -72 213q0 155 109 252t270 97q105 0 191 -45l194 102l101 -168l-148 -74q41 -71 41 -164q0 -156 -108 -250t-271 -94q-72 0 -149 23q-49 -27 -49 -78q0 -76 96 -76h211q168 0 265 -79.5t97 -223.5
q0 -117 -67.5 -199.5t-171 -119.5t-230.5 -37q-207 0 -338 88q-129 88 -129 252zM788 700q0 63 -39.5 103.5t-101.5 40.5t-101.5 -40.5t-39.5 -103.5q0 -61 39.5 -100t101.5 -39t101.5 39t39.5 100zM864 -94q0 58 -41.5 82t-124.5 24h-139q-75 0 -119 8q-22 -36 -22 -94
q0 -71 62.5 -109t168.5 -38q102 0 158.5 31.5t56.5 95.5z" />
    <glyph glyph-name="h" unicode="h" 
d="M178 0v1450h254v-584q52 84 138.5 133.5t189.5 49.5q151 0 236 -80t85 -232v-737h-254v647q0 94 -37.5 139t-115.5 45q-100 0 -171 -103t-71 -292v-436h-254z" />
    <glyph glyph-name="i" unicode="i" 
d="M459 1329q0 69 47.5 116.5t116.5 47.5t116 -47.5t47 -116.5t-47 -116.5t-116 -47.5t-116.5 47.5t-47.5 116.5zM188 0v217h320v598h-268v217h522v-815h319v-217h-893z" />
    <glyph glyph-name="j" unicode="j" 
d="M547 1329q0 69 47.5 116.5t116.5 47.5t116 -47.5t47 -116.5t-47 -116.5t-116 -47.5t-116.5 47.5t-47.5 116.5zM418 -434l-62 223q126 32 183 101.5t57 211.5v713h-365v217h619v-975q0 -205 -129 -325q-129 -123 -303 -166z" />
    <glyph glyph-name="k" unicode="k" 
d="M162 0v1450h254v-801l338 383h307l-440 -473l487 -559h-307l-385 469v-469h-254z" />
    <glyph glyph-name="l" unicode="l" 
d="M365 389v828h-265v217h518v-990q0 -215 156 -215q138 0 172 174l223 -45q-26 -183 -129 -278.5t-266 -95.5q-185 0 -297 108.5t-112 296.5z" />
    <glyph glyph-name="m" unicode="m" 
d="M68 0v1032h219v-131q33 69 91 108.5t134 39.5q167 0 213 -168q31 76 95 122t143 46q107 0 172 -72t65 -207v-770h-219v702q0 63 -20 91t-64 28q-71 0 -110 -101.5t-39 -303.5v-416h-220v705q0 116 -88 116q-70 0 -111.5 -103.5t-41.5 -301.5v-416h-219z" />
    <glyph glyph-name="n" unicode="n" 
d="M180 0v1032h254v-166q57 82 150 132.5t190 50.5q146 0 232 -81.5t86 -230.5v-737h-254v662q0 83 -41 125t-107 42q-110 0 -183 -114t-73 -303v-412h-254z" />
    <glyph glyph-name="o" unicode="o" 
d="M127 516q0 109 36.5 206.5t102 170t161 114.5t208.5 42t208.5 -42t161 -114.5t102 -170t36.5 -206.5q0 -147 -62 -267.5t-179 -192.5t-267 -72t-267 72t-179 192.5t-62 267.5zM897 516q0 132 -70 223q-68 92 -192 92t-195 -92q-67 -91 -67 -223t67 -223q71 -92 195 -92
t192 92q70 91 70 223z" />
    <glyph glyph-name="p" unicode="p" 
d="M197 -418v1450h254v-106q27 48 96.5 85.5t152.5 37.5q225 0 348 -142.5t123 -390.5q0 -247 -123 -389.5t-348 -142.5q-73 0 -142.5 32t-106.5 78v-512h-254zM905 516q0 146 -66.5 230.5t-172.5 84.5t-172 -84t-66 -231t66 -231t172 -84t172.5 85t66.5 230z" />
    <glyph glyph-name="q" unicode="q" 
d="M819 -418v512q-37 -46 -107 -78t-143 -32q-225 0 -348 142.5t-123 389.5q0 248 123 390.5t348 142.5q83 0 153 -37.5t97 -85.5v106h254v-1450h-254zM842 516q0 147 -66 231t-172 84t-172.5 -84.5t-66.5 -230.5q0 -145 66.5 -230t172.5 -85t172 84t66 231z" />
    <glyph glyph-name="r" unicode="r" 
d="M168 0v1032h254v-158q63 90 158.5 132.5t197.5 42.5q143 0 230 -93.5t94 -261.5h-250q-9 148 -131 148q-126 0 -212.5 -149t-86.5 -378v-315h-254z" />
    <glyph glyph-name="s" unicode="s" 
d="M201 293l229 80q29 -91 84.5 -131.5t149.5 -40.5q74 0 122 27.5t48 70.5q0 41 -47.5 67t-170.5 52q-348 77 -348 332q0 86 52.5 155.5t136 106.5t178.5 37q276 0 403 -232l-182 -127q-74 141 -219 141q-55 0 -94 -25t-39 -63q0 -42 39.5 -67.5t146.5 -48.5
q197 -38 288 -110t91 -202q0 -155 -119 -243q-116 -88 -295 -88q-347 0 -454 309z" />
    <glyph glyph-name="t" unicode="t" 
d="M371 416v399h-254v217h254v258l254 160v-418h448v-217h-448v-405q0 -103 43.5 -156t126.5 -53q108 0 211 121l86 -205q-133 -133 -297 -133q-208 0 -316 109t-108 323z" />
    <glyph glyph-name="u" unicode="u" 
d="M180 295v737h254v-661q0 -83 41 -125.5t107 -42.5q110 0 183 114.5t73 303.5v411h254v-1032h-254v166q-57 -82 -149.5 -132t-190.5 -50q-146 0 -232 81t-86 230z" />
    <glyph glyph-name="v" unicode="v" 
d="M549 0l-432 1032h256l262 -674l262 674h256l-432 -1032h-172z" />
    <glyph glyph-name="w" unicode="w" 
d="M260 0l-205 1032h226l92 -639l176 578h172l176 -578l92 639h225l-204 -1032h-197l-178 602l-178 -602h-197z" />
    <glyph glyph-name="x" unicode="x" 
d="M158 0l342 551l-299 481h266l168 -268l168 268h266l-299 -481l342 -551h-266l-211 336l-211 -336h-266z" />
    <glyph glyph-name="y" unicode="y" 
d="M291 -418l231 547l-409 903h266l266 -612l246 612h266l-612 -1450h-254z" />
    <glyph glyph-name="z" unicode="z" 
d="M223 0v98l479 717h-452v217h774v-98l-467 -717h492v-217h-826z" />
    <glyph glyph-name="braceleft" unicode="{" 
d="M489 102v299q0 109 -54 157t-171 48v221q117 0 171 48t54 157v299q0 92 56.5 148.5t148.5 56.5h348v-221h-223q-49 0 -66.5 -19t-17.5 -73v-305q0 -105 -36 -147.5t-115 -53.5q79 -11 115 -53.5t36 -147.5v-305q0 -54 17.5 -73t66.5 -19h223v-221h-348q-92 0 -148.5 56
t-56.5 148z" />
    <glyph glyph-name="bar" unicode="|" 
d="M508 -102v1638h254v-1638h-254z" />
    <glyph glyph-name="braceright" unicode="}" 
d="M227 -102v221h224q49 0 66.5 19t17.5 73v305q0 105 36 147.5t115 53.5q-79 11 -115 53.5t-36 147.5v305q0 54 -17.5 73t-66.5 19h-224v221h348q92 0 148.5 -56.5t56.5 -148.5v-299q0 -109 54.5 -157t171.5 -48v-221q-117 0 -171.5 -48t-54.5 -157v-299q0 -92 -56.5 -148
t-148.5 -56h-348z" />
    <glyph glyph-name="asciitilde" unicode="~" 
d="M616 559q-107 55 -182 55q-104 0 -186 -104l-131 141q39 97 125.5 162.5t183.5 65.5q58 0 108.5 -15.5t118.5 -50.5q107 -55 183 -55q104 0 186 104l131 -141q-39 -96 -125.5 -161.5t-183.5 -65.5q-59 0 -110 15.5t-118 49.5z" />
    <glyph glyph-name="uni00A0" unicode="&#xa0;" 
 />
    <glyph glyph-name="exclamdown" unicode="&#xa1;" 
d="M805 864q0 -72 -50.5 -122t-119.5 -50t-119.5 50t-50.5 122q0 70 49.5 119t120.5 49t120.5 -49t49.5 -119zM524 520h221l58 -938h-336z" />
    <glyph glyph-name="cent" unicode="&#xa2;" 
d="M528 -102v299q-181 37 -279.5 178t-98.5 342t98.5 342t279.5 178v299h250v-299q250 -47 344 -283l-227 -92q-42 86 -100.5 128t-141.5 42q-114 0 -175.5 -85t-61.5 -230t61.5 -230.5t175.5 -85.5q83 0 141.5 42t100.5 128l227 -92q-94 -235 -344 -282v-299h-250z" />
    <glyph glyph-name="sterling" unicode="&#xa3;" 
d="M293 -16l-141 155q120 112 170.5 189t50.5 174q0 51 -19 125h-170v237h99q-33 90 -33 160q0 185 121 305.5t315 120.5q158 0 267 -74t157 -209l-211 -100q-68 145 -213 145q-79 0 -130.5 -52t-51.5 -150q0 -80 16 -146h354v-237h-282q6 -37 6 -78q0 -111 -40.5 -186
t-125.5 -148q111 66 203 66q50 0 113 -31q67 -31 108 -31q43 0 77 25t71 90l176 -111q-69 -123 -150.5 -181t-187.5 -58q-83 0 -170 41q-75 34 -142 34q-61 0 -113.5 -17.5t-123.5 -57.5z" />
    <glyph glyph-name="currency" unicode="&#xa4;" 
d="M291 86l-199 199l182 141q-51 89 -51 203q0 113 51 202l-182 142l199 198l141 -182q89 53 203 53t203 -53l141 182l199 -198l-183 -142q52 -91 52 -202q0 -112 -52 -203l183 -141l-199 -199l-141 182q-89 -53 -203 -53t-203 53zM801 629q0 83 -44.5 132.5t-121.5 49.5
t-121.5 -49.5t-44.5 -132.5t44.5 -133t121.5 -50t121.5 50t44.5 133z" />
    <glyph glyph-name="yen" unicode="&#xa5;" 
d="M510 0v242h-299v221h299v147h-299v221h184l-313 603h287l264 -562l264 562h287l-314 -603h174v-221h-288v-147h288v-221h-288v-242h-246z" />
    <glyph glyph-name="brokenbar" unicode="&#xa6;" 
d="M508 821v715h254v-715h-254zM508 -102v714h254v-714h-254z" />
    <glyph glyph-name="section" unicode="&#xa7;" 
d="M203 -111l215 95q13 -42 29 -73t36 -49t36 -29t40 -15t36.5 -5t37.5 -1q70 0 116 37.5t46 101.5q0 62 -54.5 104t-203.5 109l-158 74q-234 120 -234 333q0 90 43.5 156.5t112.5 97.5q-90 96 -90 244q0 172 122 276.5t298 104.5q165 0 280 -85.5t158 -238.5l-215 -94
q-13 42 -29 73t-36 49t-36 29t-40 15t-36.5 5t-37.5 1q-70 0 -116 -37.5t-46 -101.5q0 -62 54.5 -104t203.5 -109l158 -74q233 -119 233 -334q0 -90 -43 -156.5t-112 -97.5q90 -96 90 -243q0 -172 -122 -276.5t-298 -104.5q-165 0 -280 85t-158 238zM860 436q0 60 -60.5 105
t-207.5 110l-84 37q-96 -37 -96 -108q0 -60 60.5 -105t207.5 -110l84 -37q96 37 96 108z" />
    <glyph glyph-name="dieresis" unicode="&#xa8;" 
d="M279 1325q0 63 41 104t104 41t104 -41t41 -104t-41 -104t-104 -41t-104 41t-41 104zM700 1325q0 63 41.5 104t104.5 41t104 -41t41 -104t-41 -104t-104 -41t-104.5 41t-41.5 104z" />
    <glyph glyph-name="copyright" unicode="&#xa9;" 
d="M68 717q-3 160 72.5 295t207 212t287.5 74q156 3 287.5 -74t207 -212t72.5 -295q3 -160 -72.5 -295.5t-207 -212.5t-287.5 -74q-156 -3 -287.5 74t-207 212.5t-72.5 295.5zM1047 717q0 189 -116.5 310.5t-295.5 121.5t-295.5 -121.5t-116.5 -310.5t116.5 -310.5
t295.5 -121.5t295.5 121.5t116.5 310.5zM334 717q0 78 26 141t69.5 102t96.5 59.5t109 20.5q106 0 178.5 -57.5t85.5 -153.5l-127 -28q-20 57 -51.5 81.5t-85.5 24.5q-75 0 -115.5 -49t-40.5 -141t40.5 -141.5t115.5 -49.5q54 0 85.5 25t51.5 82l127 -29
q-13 -96 -85.5 -153.5t-178.5 -57.5q-56 0 -109 21t-96.5 60t-69.5 102t-26 141z" />
    <glyph glyph-name="ordfeminine" unicode="&#xaa;" 
d="M299 852q0 121 95.5 193.5t250.5 72.5h135v35q0 60 -38 89.5t-103 29.5q-107 0 -141 -94l-168 39q19 101 103 163t206 62q340 0 340 -340v-488h-166l-18 107q-100 -115 -250 -115q-107 0 -176.5 66.5t-69.5 179.5zM780 944v23h-135q-63 0 -100 -30.5t-37 -84.5
q0 -34 22 -55t62 -21q76 0 132 48t56 120z" />
    <glyph glyph-name="guillemotleft" unicode="&#xab;" 
d="M688 104l-633 447v168l633 446v-262l-379 -268l379 -268v-263zM1200 104l-633 447v168l633 446v-262l-379 -268l379 -268v-263z" />
    <glyph glyph-name="logicalnot" unicode="&#xac;" 
d="M866 291v305h-676v229h922v-534h-246z" />
    <glyph glyph-name="uni00AD" unicode="&#xad;" 
d="M279 539v221h714v-221h-714z" />
    <glyph glyph-name="registered" unicode="&#xae;" 
d="M68 717q-3 160 72.5 295t207 212t287.5 74q156 3 287.5 -74t207 -212t72.5 -295q3 -160 -72.5 -295.5t-207 -212.5t-287.5 -74q-156 -3 -287.5 74t-207 212.5t-72.5 295.5zM1047 717q0 189 -116.5 310.5t-295.5 121.5t-295.5 -121.5t-116.5 -310.5t116.5 -310.5
t295.5 -121.5t295.5 121.5t116.5 310.5zM432 414v606h221q92 0 145.5 -48t53.5 -130q0 -61 -33.5 -107t-89.5 -63l178 -258h-145l-174 248h-29v-248h-127zM559 782h88q74 0 74 60q0 57 -74 57h-88v-117z" />
    <glyph glyph-name="overscore" unicode="&#xaf;" 
d="M360 1217v200h549v-200h-549z" />
    <glyph glyph-name="degree" unicode="&#xb0;" 
d="M319 1133q0 134 89 223q90 90 227 90t227 -90q88 -88 88 -223q0 -138 -88 -226t-227 -88t-227 88q-89 89 -89 226zM733 1133q0 44 -27 72t-71 28t-71 -28t-27 -72q0 -45 27 -73t71 -28t71 28t27 73z" />
    <glyph glyph-name="plusminus" unicode="&#xb1;" 
d="M524 326v376h-377v222h377v376h221v-376h377v-222h-377v-376h-221zM184 -35v221h901v-221h-901z" />
    <glyph glyph-name="uni00B2" unicode="&#xb2;" 
d="M356 614v72l297 363q56 65 56 139q0 40 -21 62t-57 22q-84 0 -105 -109l-164 47q12 102 87.5 167t181.5 65q122 0 195 -67.5t73 -182.5q0 -102 -82 -203l-168 -205h262v-170h-555z" />
    <glyph glyph-name="uni00B3" unicode="&#xb3;" 
d="M348 864l164 21q10 -53 42.5 -81t76.5 -28q100 0 100 121q0 54 -26 81.5t-72 27.5q-41 0 -76 -21l-82 102l135 177h-225v170h485v-72l-182 -234q99 0 166.5 -69t67.5 -168q0 -133 -74 -209t-213 -76q-122 0 -201.5 73t-85.5 185z" />
    <glyph glyph-name="acute" unicode="&#xb4;" 
d="M397 1147l131 303h344l-280 -303h-195z" />
    <glyph glyph-name="uni00B5" unicode="&#xb5;" 
d="M180 -418v1450h254v-661q0 -83 41 -125.5t107 -42.5q110 0 183 114.5t73 303.5v411h254v-1032h-254v166q-57 -82 -149.5 -132t-190.5 -50q-10 0 -64 4v-406h-254z" />
    <glyph glyph-name="paragraph" unicode="&#xb6;" 
d="M451 -418v1061q-107 0 -198 53.5t-144.5 144.5t-53.5 197q0 162 117 279t279 117h761v-217h-106v-1635h-254v1635h-147v-1635h-254z" />
    <glyph glyph-name="middot" unicode="&#xb7;" 
d="M453 717q0 78 52 130t130 52t130 -52t52 -130t-52 -130t-130 -52t-130 52t-52 130z" />
    <glyph glyph-name="cedilla" unicode="&#xb8;" 
d="M662 -545l-304 135l289 287h184z" />
    <glyph glyph-name="uni00B9" unicode="&#xb9;" 
d="M391 614v170h176v400l-174 -78v194l281 134h76v-650h176v-170h-535z" />
    <glyph glyph-name="ordmasculine" unicode="&#xba;" 
d="M236 1024q0 113 47.5 207.5t139.5 152.5t210 58t210 -57.5t140.5 -152.5t48.5 -208t-48.5 -208t-140.5 -152.5t-210 -57.5t-210 58t-139.5 152.5t-47.5 207.5zM831 1024q0 96 -54 159.5t-144 63.5t-144.5 -63.5t-54.5 -159.5t54.5 -160.5t144.5 -64.5t144 64.5t54 160.5z
" />
    <glyph glyph-name="guillemotright" unicode="&#xbb;" 
d="M70 104v263l379 268l-379 268v262l632 -446v-168zM582 104v263l379 268l-379 268v262l632 -446v-168z" />
    <glyph glyph-name="onequarter" unicode="&#xbc;" 
d="M29 750v139h164v332l-154 -70v172l242 111h63v-545h164v-139h-479zM360 168l-108 82l784 991l109 -82zM938 0v125h-311v72l293 487h170v-412h102v-147h-102v-125h-152zM831 272h107v187z" />
    <glyph glyph-name="onehalf" unicode="&#xbd;" 
d="M29 750v139h164v332l-154 -70v172l242 111h63v-545h164v-139h-479zM319 168l-108 82l784 991l109 -82zM723 0v68l256 284q49 58 49 117q0 35 -20.5 55.5t-53.5 20.5t-54.5 -24t-25.5 -66l-149 37q14 92 77.5 146t160.5 54q107 0 166 -55t59 -158q0 -121 -80 -209
l-111 -123h201v-147h-475z" />
    <glyph glyph-name="threequarters" unicode="&#xbe;" 
d="M84 961l154 32q5 -50 31.5 -77t70.5 -27q41 0 66.5 27t25.5 71q0 45 -25 71.5t-67 26.5q-38 0 -68 -24l-69 96l114 129h-196v148h438v-66l-156 -172q86 -5 137.5 -62t51.5 -153q0 -110 -68 -175t-184 -65q-110 0 -179.5 59t-76.5 161zM360 168l-108 82l784 991l109 -82z
M938 0v125h-311v72l293 487h170v-412h102v-147h-102v-125h-152zM831 272h107v187z" />
    <glyph glyph-name="questiondown" unicode="&#xbf;" 
d="M803 860q0 -72 -50.5 -122t-119.5 -50t-119.5 50t-50.5 122q0 70 49.5 119t120.5 49t120.5 -49t49.5 -119zM915 317q0 -95 -55.5 -159t-165.5 -107l-92 -37q-113 -46 -113 -133q0 -50 36 -76t98 -26q63 0 108.5 35.5t65.5 101.5l223 -37q-25 -139 -130 -226t-261 -87
q-172 0 -275.5 88t-103.5 235q0 96 50 159.5t155 107.5l77 32q107 44 141 70t34 66q0 32 -21.5 51.5t-52.5 19.5q-83 0 -117 -94l-180 68q36 100 113 155.5t184 55.5q125 0 203.5 -73t78.5 -190z" />
    <glyph glyph-name="Agrave" unicode="&#xc0;" 
d="M39 0l450 1434h291l451 -1434h-275l-100 334h-442l-101 -334h-274zM487 580h295l-147 495zM539 1548l-281 303h344l131 -303h-194z" />
    <glyph glyph-name="Aacute" unicode="&#xc1;" 
d="M39 0l450 1434h291l451 -1434h-275l-100 334h-442l-101 -334h-274zM487 580h295l-147 495zM539 1548l131 303h344l-281 -303h-194z" />
    <glyph glyph-name="Acircumflex" unicode="&#xc2;" 
d="M39 0l450 1434h291l451 -1434h-275l-100 334h-442l-101 -334h-274zM487 580h295l-147 495zM250 1548l350 357h70l350 -357h-250l-135 142l-135 -142h-250z" />
    <glyph glyph-name="Atilde" unicode="&#xc3;" 
d="M39 0l450 1434h291l451 -1434h-275l-100 334h-442l-101 -334h-274zM487 580h295l-147 495zM614 1618q-31 16 -43.5 21.5t-30.5 10.5t-38 5q-73 0 -131 -82l-133 106q35 80 104 129.5t147 49.5q46 0 80 -11t80 -37q41 -21 62.5 -28.5t50.5 -7.5q67 0 131 88l133 -113
q-35 -80 -104.5 -129t-147.5 -49q-47 0 -81 11t-79 36z" />
    <glyph glyph-name="Adieresis" unicode="&#xc4;" 
d="M39 0l450 1434h291l451 -1434h-275l-100 334h-442l-101 -334h-274zM487 580h295l-147 495zM279 1726q0 63 41 104.5t104 41.5t104 -41.5t41 -104.5t-41 -104t-104 -41t-104 41t-41 104zM700 1726q0 63 41.5 104.5t104.5 41.5t104 -41.5t41 -104.5t-41 -104t-104 -41
t-104.5 41t-41.5 104z" />
    <glyph glyph-name="Aring" unicode="&#xc5;" 
d="M39 0l450 1434h291l451 -1434h-275l-100 334h-442l-101 -334h-274zM487 580h295l-147 495zM424 1743q0 91 59.5 150t151.5 59t151.5 -59t59.5 -150t-59.5 -150t-151.5 -59t-151.5 59t-59.5 150zM696 1743q0 30 -16 47.5t-45 17.5t-45.5 -17.5t-16.5 -47.5t16.5 -48
t45.5 -18t45 18t16 48z" />
    <glyph glyph-name="AE" unicode="&#xc6;" 
d="M-23 0l398 1434h823v-267h-356v-311h274v-266h-274v-324h377v-266h-644v383h-243l-103 -383h-252zM393 616h182v519h-43z" />
    <glyph glyph-name="Ccedilla" unicode="&#xc7;" 
d="M84 717q0 176 47.5 317t130.5 231t193 137.5t237 47.5q407 0 539 -432l-252 -78q-36 146 -108.5 205t-178.5 59q-145 0 -243 -110q-99 -111 -99 -377t99 -377t243 -111q106 0 178.5 59.5t108.5 205.5l252 -78q-132 -432 -539 -432q-127 0 -237 47.5t-193 137.5
t-130.5 231t-47.5 317zM608 -545l-303 135l289 287h184z" />
    <glyph glyph-name="Egrave" unicode="&#xc8;" 
d="M186 0v1434h910v-246h-643v-301h540v-246h-540v-395h663v-246h-930zM551 1548l-281 303h344l131 -303h-194z" />
    <glyph glyph-name="Eacute" unicode="&#xc9;" 
d="M186 0v1434h910v-246h-643v-301h540v-246h-540v-395h663v-246h-930zM551 1548l131 303h344l-281 -303h-194z" />
    <glyph glyph-name="Ecircumflex" unicode="&#xca;" 
d="M186 0v1434h910v-246h-643v-301h540v-246h-540v-395h663v-246h-930zM262 1548l350 357h70l350 -357h-250l-135 142l-135 -142h-250z" />
    <glyph glyph-name="Edieresis" unicode="&#xcb;" 
d="M186 0v1434h910v-246h-643v-301h540v-246h-540v-395h663v-246h-930zM291 1726q0 63 41 104.5t104 41.5t104.5 -41.5t41.5 -104.5t-41.5 -104t-104.5 -41t-104 41t-41 104zM713 1726q0 63 41 104.5t104 41.5t104.5 -41.5t41.5 -104.5t-41.5 -104t-104.5 -41t-104 41
t-41 104z" />
    <glyph glyph-name="Igrave" unicode="&#xcc;" 
d="M199 0v246h303v942h-303v246h872v-246h-303v-942h303v-246h-872zM539 1548l-281 303h344l131 -303h-194z" />
    <glyph glyph-name="Iacute" unicode="&#xcd;" 
d="M199 0v246h303v942h-303v246h872v-246h-303v-942h303v-246h-872zM539 1548l131 303h344l-281 -303h-194z" />
    <glyph glyph-name="Icircumflex" unicode="&#xce;" 
d="M199 0v246h303v942h-303v246h872v-246h-303v-942h303v-246h-872zM250 1548l350 357h70l350 -357h-250l-135 142l-135 -142h-250z" />
    <glyph glyph-name="Idieresis" unicode="&#xcf;" 
d="M199 0v246h303v942h-303v246h872v-246h-303v-942h303v-246h-872zM279 1726q0 63 41 104.5t104 41.5t104 -41.5t41 -104.5t-41 -104t-104 -41t-104 41t-41 104zM700 1726q0 63 41.5 104.5t104.5 41.5t104 -41.5t41 -104.5t-41 -104t-104 -41t-104.5 41t-41.5 104z" />
    <glyph glyph-name="Eth" unicode="&#xd0;" 
d="M131 0v606h-86v221h86v607h404q143 0 266 -44.5t218 -131t149.5 -225.5t54.5 -316t-54.5 -316t-149.5 -225.5t-218 -131t-266 -44.5h-404zM397 246h115q177 0 307 106q133 109 133 365q0 255 -133 364q-131 107 -307 107h-115v-361h213v-221h-213v-360z" />
    <glyph glyph-name="Ntilde" unicode="&#xd1;" 
d="M145 0v1434h246l486 -922v922h245v-1434h-245l-486 918v-918h-246zM614 1618q-31 16 -43.5 21.5t-30.5 10.5t-38 5q-73 0 -131 -82l-133 106q35 80 104 129.5t147 49.5q46 0 80 -11t80 -37q41 -21 62.5 -28.5t50.5 -7.5q67 0 131 88l133 -113q-35 -80 -104.5 -129
t-147.5 -49q-47 0 -81 11t-79 36z" />
    <glyph glyph-name="Ograve" unicode="&#xd2;" 
d="M78 717q0 176 42 316t117 230.5t176.5 138.5t221.5 48t221.5 -48t176.5 -138.5t117 -230.5t42 -316t-42 -316t-117 -230.5t-176.5 -138.5t-221.5 -48t-221.5 48t-176.5 138.5t-117 230.5t-42 316zM926 717q0 245 -78 366t-213 121t-213 -121t-78 -366t78 -366.5
t213 -121.5t213 121.5t78 366.5zM539 1548l-281 303h344l131 -303h-194z" />
    <glyph glyph-name="Oacute" unicode="&#xd3;" 
d="M78 717q0 176 42 316t117 230.5t176.5 138.5t221.5 48t221.5 -48t176.5 -138.5t117 -230.5t42 -316t-42 -316t-117 -230.5t-176.5 -138.5t-221.5 -48t-221.5 48t-176.5 138.5t-117 230.5t-42 316zM926 717q0 245 -78 366t-213 121t-213 -121t-78 -366t78 -366.5
t213 -121.5t213 121.5t78 366.5zM539 1548l131 303h344l-281 -303h-194z" />
    <glyph glyph-name="Ocircumflex" unicode="&#xd4;" 
d="M78 717q0 176 42 316t117 230.5t176.5 138.5t221.5 48t221.5 -48t176.5 -138.5t117 -230.5t42 -316t-42 -316t-117 -230.5t-176.5 -138.5t-221.5 -48t-221.5 48t-176.5 138.5t-117 230.5t-42 316zM926 717q0 245 -78 366t-213 121t-213 -121t-78 -366t78 -366.5
t213 -121.5t213 121.5t78 366.5zM250 1548l350 357h70l350 -357h-250l-135 142l-135 -142h-250z" />
    <glyph glyph-name="Otilde" unicode="&#xd5;" 
d="M78 717q0 176 42 316t117 230.5t176.5 138.5t221.5 48t221.5 -48t176.5 -138.5t117 -230.5t42 -316t-42 -316t-117 -230.5t-176.5 -138.5t-221.5 -48t-221.5 48t-176.5 138.5t-117 230.5t-42 316zM926 717q0 245 -78 366t-213 121t-213 -121t-78 -366t78 -366.5
t213 -121.5t213 121.5t78 366.5zM614 1618q-31 16 -43.5 21.5t-30.5 10.5t-38 5q-73 0 -131 -82l-133 106q35 80 104 129.5t147 49.5q46 0 80 -11t80 -37q41 -21 62.5 -28.5t50.5 -7.5q67 0 131 88l133 -113q-35 -80 -104.5 -129t-147.5 -49q-47 0 -81 11t-79 36z" />
    <glyph glyph-name="Odieresis" unicode="&#xd6;" 
d="M78 717q0 176 42 316t117 230.5t176.5 138.5t221.5 48t221.5 -48t176.5 -138.5t117 -230.5t42 -316t-42 -316t-117 -230.5t-176.5 -138.5t-221.5 -48t-221.5 48t-176.5 138.5t-117 230.5t-42 316zM926 717q0 245 -78 366t-213 121t-213 -121t-78 -366t78 -366.5
t213 -121.5t213 121.5t78 366.5zM279 1726q0 63 41 104.5t104 41.5t104 -41.5t41 -104.5t-41 -104t-104 -41t-104 41t-41 104zM700 1726q0 63 41.5 104.5t104.5 41.5t104 -41.5t41 -104.5t-41 -104t-104 -41t-104.5 41t-41.5 104z" />
    <glyph glyph-name="multiply" unicode="&#xd7;" 
d="M336 199l-156 155l299 299l-299 299l156 156l299 -299l299 299l156 -156l-299 -299l299 -299l-156 -155l-299 299z" />
    <glyph glyph-name="Oslash" unicode="&#xd8;" 
d="M78 717q0 176 42 316t117 230.5t176.5 138.5t221.5 48t221.5 -48t176.5 -138.5t117 -230.5t42 -316t-42 -316t-117 -230.5t-176.5 -138.5t-221.5 -48t-221.5 48t-176.5 138.5t-117 230.5t-42 316zM926 717q0 245 -78 366t-213 121t-213 -121t-78 -366t78 -366.5
t213 -121.5t213 121.5t78 366.5zM152 -84l-177 129l1143 1473l176 -129z" />
    <glyph glyph-name="Ugrave" unicode="&#xd9;" 
d="M121 545v889h266v-893q0 -155 63 -233.5t185 -78.5q132 0 190 75t58 237v893h266v-889q0 -276 -141 -420q-141 -141 -373 -141t-373 141q-141 144 -141 420zM539 1548l-281 303h344l131 -303h-194z" />
    <glyph glyph-name="Uacute" unicode="&#xda;" 
d="M121 545v889h266v-893q0 -155 63 -233.5t185 -78.5q132 0 190 75t58 237v893h266v-889q0 -276 -141 -420q-141 -141 -373 -141t-373 141q-141 144 -141 420zM539 1548l131 303h344l-281 -303h-194z" />
    <glyph glyph-name="Ucircumflex" unicode="&#xdb;" 
d="M121 545v889h266v-893q0 -155 63 -233.5t185 -78.5q132 0 190 75t58 237v893h266v-889q0 -276 -141 -420q-141 -141 -373 -141t-373 141q-141 144 -141 420zM250 1548l350 357h70l350 -357h-250l-135 142l-135 -142h-250z" />
    <glyph glyph-name="Udieresis" unicode="&#xdc;" 
d="M121 545v889h266v-893q0 -155 63 -233.5t185 -78.5q132 0 190 75t58 237v893h266v-889q0 -276 -141 -420q-141 -141 -373 -141t-373 141q-141 144 -141 420zM279 1726q0 63 41 104.5t104 41.5t104 -41.5t41 -104.5t-41 -104t-104 -41t-104 41t-41 104zM700 1726
q0 63 41.5 104.5t104.5 41.5t104 -41.5t41 -104.5t-41 -104t-104 -41t-104.5 41t-41.5 104z" />
    <glyph glyph-name="Yacute" unicode="&#xdd;" 
d="M512 0v528l-455 906h287l291 -621l291 621h286l-454 -906v-528h-246zM539 1548l131 303h344l-281 -303h-194z" />
    <glyph glyph-name="Thorn" unicode="&#xde;" 
d="M184 0v1434h267v-281h274q216 0 332.5 -117.5t116.5 -318.5t-116.5 -318.5t-332.5 -117.5h-274v-281h-267zM451 526h264q188 0 188 191q0 190 -188 190h-264v-381z" />
    <glyph glyph-name="germandbls" unicode="&#xdf;" 
d="M545 0v221q88 -16 129 -16q113 0 164 57.5t51 171.5q0 234 -246 234h-68v229h41q83 0 127.5 42t44.5 126q0 79 -41.5 123.5t-115.5 44.5q-76 0 -121 -53t-45 -150v-1030h-246v668h-106v229h106v127q0 201 111.5 313.5t300.5 112.5q184 0 286.5 -97.5t102.5 -265.5
q0 -96 -46.5 -168t-117.5 -98q126 -33 202.5 -130t76.5 -242q0 -237 -114 -351t-343 -114q-67 0 -133 16z" />
    <glyph glyph-name="agrave" unicode="&#xe0;" 
d="M207 297q0 152 122 245t318 93h172v45q0 79 -49.5 121.5t-130.5 42.5q-133 0 -178 -144l-215 62q37 129 144.5 208t248.5 79q208 0 315 -103t107 -330v-616h-197l-26 131q-120 -147 -318 -147q-140 0 -226.5 83.5t-86.5 229.5zM817 422v22h-186q-193 0 -193 -145
q0 -45 32 -77t85 -32q103 0 182.5 66t79.5 166zM567 1147l-280 303h344l131 -303h-195z" />
    <glyph glyph-name="aacute" unicode="&#xe1;" 
d="M207 297q0 152 122 245t318 93h172v45q0 79 -49.5 121.5t-130.5 42.5q-133 0 -178 -144l-215 62q37 129 144.5 208t248.5 79q208 0 315 -103t107 -330v-616h-197l-26 131q-120 -147 -318 -147q-140 0 -226.5 83.5t-86.5 229.5zM817 422v22h-186q-193 0 -193 -145
q0 -45 32 -77t85 -32q103 0 182.5 66t79.5 166zM541 1147l131 303h344l-281 -303h-194z" />
    <glyph glyph-name="acircumflex" unicode="&#xe2;" 
d="M207 297q0 152 122 245t318 93h172v45q0 79 -49.5 121.5t-130.5 42.5q-133 0 -178 -144l-215 62q37 129 144.5 208t248.5 79q208 0 315 -103t107 -330v-616h-197l-26 131q-120 -147 -318 -147q-140 0 -226.5 83.5t-86.5 229.5zM817 422v22h-186q-193 0 -193 -145
q0 -45 32 -77t85 -32q103 0 182.5 66t79.5 166zM252 1147l350 356h70l350 -356h-250l-135 141l-135 -141h-250z" />
    <glyph glyph-name="atilde" unicode="&#xe3;" 
d="M207 297q0 152 122 245t318 93h172v45q0 79 -49.5 121.5t-130.5 42.5q-133 0 -178 -144l-215 62q37 129 144.5 208t248.5 79q208 0 315 -103t107 -330v-616h-197l-26 131q-120 -147 -318 -147q-140 0 -226.5 83.5t-86.5 229.5zM817 422v22h-186q-193 0 -193 -145
q0 -45 32 -77t85 -32q103 0 182.5 66t79.5 166zM616 1217q-42 21 -63 28.5t-49 7.5q-73 0 -131 -82l-133 107q35 80 104.5 129t147.5 49q46 0 80 -11t79 -36q30 -15 43.5 -21t31.5 -11t38 -5q67 0 131 88l133 -112q-35 -80 -104.5 -129.5t-147.5 -49.5q-46 0 -80 11t-80 37z
" />
    <glyph glyph-name="adieresis" unicode="&#xe4;" 
d="M207 297q0 152 122 245t318 93h172v45q0 79 -49.5 121.5t-130.5 42.5q-133 0 -178 -144l-215 62q37 129 144.5 208t248.5 79q208 0 315 -103t107 -330v-616h-197l-26 131q-120 -147 -318 -147q-140 0 -226.5 83.5t-86.5 229.5zM817 422v22h-186q-193 0 -193 -145
q0 -45 32 -77t85 -32q103 0 182.5 66t79.5 166zM281 1325q0 63 41 104t104 41t104 -41t41 -104t-41 -104t-104 -41t-104 41t-41 104zM702 1325q0 63 41.5 104t104.5 41t104 -41t41 -104t-41 -104t-104 -41t-104.5 41t-41.5 104z" />
    <glyph glyph-name="aring" unicode="&#xe5;" 
d="M207 297q0 152 122 245t318 93h172v45q0 79 -49.5 121.5t-130.5 42.5q-133 0 -178 -144l-215 62q37 129 144.5 208t248.5 79q208 0 315 -103t107 -330v-616h-197l-26 131q-120 -147 -318 -147q-140 0 -226.5 83.5t-86.5 229.5zM817 422v22h-186q-193 0 -193 -145
q0 -45 32 -77t85 -32q103 0 182.5 66t79.5 166zM426 1341q0 91 59.5 150t151.5 59t151.5 -59t59.5 -150t-59.5 -149.5t-151.5 -58.5t-151.5 58.5t-59.5 149.5zM698 1341q0 30 -16 48t-45 18t-45.5 -18t-16.5 -48t16.5 -47.5t45.5 -17.5t45 17.5t16 47.5z" />
    <glyph glyph-name="ae" unicode="&#xe6;" 
d="M74 295q0 161 105 250.5t280 89.5h90v43q0 104 -29 151.5t-92 47.5q-60 0 -97 -43.5t-48 -120.5l-166 45q15 123 102 207t211 84q182 0 240 -156q38 72 106 114t146 42q154 0 237.5 -122t83.5 -345v-117h-479q0 -141 37.5 -214t107.5 -73q56 0 89.5 36t68.5 134l164 -49
q-48 -163 -124 -239t-198 -76q-90 0 -153 49t-90 135q-39 -87 -115 -135.5t-180 -48.5q-135 0 -216 82.5t-81 228.5zM760 635h299q0 106 -41 174t-109 68q-63 0 -106 -68.5t-43 -173.5zM549 408v61h-68q-97 0 -147.5 -38.5t-50.5 -113.5q0 -66 31 -102.5t87 -36.5
q75 0 111.5 62.5t36.5 167.5z" />
    <glyph glyph-name="ccedilla" unicode="&#xe7;" 
d="M152 516q0 148 58.5 268t172.5 192.5t264 72.5q321 0 447 -285l-217 -92q-37 87 -92 123t-138 36q-110 0 -175.5 -83.5t-65.5 -231.5t65.5 -231.5t175.5 -83.5q83 0 138 36t92 123l217 -92q-126 -284 -447 -284q-150 0 -264 72t-172.5 192t-58.5 268zM575 -545l-303 135
l289 287h184z" />
    <glyph glyph-name="egrave" unicode="&#xe8;" 
d="M147 516q0 80 18.5 155.5t58.5 144.5t97 120.5t140 82t182 30.5q118 0 212.5 -45t151.5 -119t87 -163t30 -183v-105h-727q6 -95 77 -164t183 -69q157 0 252 147l203 -106q-147 -258 -469 -258q-99 0 -182 30.5t-140 82t-97 120t-58.5 144t-18.5 155.5zM399 627h486
q-21 98 -82 155.5t-160 57.5q-95 0 -160.5 -60.5t-83.5 -152.5zM571 1147l-280 303h344l131 -303h-195z" />
    <glyph glyph-name="eacute" unicode="&#xe9;" 
d="M147 516q0 80 18.5 155.5t58.5 144.5t97 120.5t140 82t182 30.5q118 0 212.5 -45t151.5 -119t87 -163t30 -183v-105h-727q6 -95 77 -164t183 -69q157 0 252 147l203 -106q-147 -258 -469 -258q-99 0 -182 30.5t-140 82t-97 120t-58.5 144t-18.5 155.5zM399 627h486
q-21 98 -82 155.5t-160 57.5q-95 0 -160.5 -60.5t-83.5 -152.5zM545 1147l131 303h344l-281 -303h-194z" />
    <glyph glyph-name="ecircumflex" unicode="&#xea;" 
d="M147 516q0 80 18.5 155.5t58.5 144.5t97 120.5t140 82t182 30.5q118 0 212.5 -45t151.5 -119t87 -163t30 -183v-105h-727q6 -95 77 -164t183 -69q157 0 252 147l203 -106q-147 -258 -469 -258q-99 0 -182 30.5t-140 82t-97 120t-58.5 144t-18.5 155.5zM399 627h486
q-21 98 -82 155.5t-160 57.5q-95 0 -160.5 -60.5t-83.5 -152.5zM256 1147l350 356h70l350 -356h-250l-135 141l-135 -141h-250z" />
    <glyph glyph-name="edieresis" unicode="&#xeb;" 
d="M147 516q0 80 18.5 155.5t58.5 144.5t97 120.5t140 82t182 30.5q118 0 212.5 -45t151.5 -119t87 -163t30 -183v-105h-727q6 -95 77 -164t183 -69q157 0 252 147l203 -106q-147 -258 -469 -258q-99 0 -182 30.5t-140 82t-97 120t-58.5 144t-18.5 155.5zM399 627h486
q-21 98 -82 155.5t-160 57.5q-95 0 -160.5 -60.5t-83.5 -152.5zM285 1325q0 63 41 104t104 41t104 -41t41 -104t-41 -104t-104 -41t-104 41t-41 104zM707 1325q0 63 41 104t104 41t104 -41t41 -104t-41 -104t-104 -41t-104 41t-41 104z" />
    <glyph glyph-name="igrave" unicode="&#xec;" 
d="M188 0v217h320v598h-268v217h522v-815h319v-217h-893zM553 1147l-281 303h344l132 -303h-195z" />
    <glyph glyph-name="iacute" unicode="&#xed;" 
d="M188 0v217h320v598h-268v217h522v-815h319v-217h-893zM526 1147l131 303h344l-280 -303h-195z" />
    <glyph glyph-name="icircumflex" unicode="&#xee;" 
d="M188 0v217h320v598h-268v217h522v-815h319v-217h-893zM238 1147l350 356h69l351 -356h-250l-135 141l-136 -141h-249z" />
    <glyph glyph-name="idieresis" unicode="&#xef;" 
d="M188 0v217h320v598h-268v217h522v-815h319v-217h-893zM266 1325q0 63 41.5 104t104.5 41t104 -41t41 -104t-41 -104t-104 -41t-104.5 41t-41.5 104zM688 1325q0 63 41.5 104t104.5 41t104 -41t41 -104t-41 -104t-104 -41t-104.5 41t-41.5 104z" />
    <glyph glyph-name="eth" unicode="&#xf0;" 
d="M117 516q0 234 136 383.5t374 149.5q89 0 166 -41q-58 104 -168 182l-66 -96l-153 108l59 86q-104 54 -176 80l127 186q103 -45 172 -86l67 99l156 -107l-66 -96q200 -142 296 -336t96 -463q0 -263 -135 -422t-375 -159q-238 0 -374 149t-136 383zM870 516
q-2 140 -65.5 227.5t-177.5 87.5t-179 -88t-65 -227t65 -227t179 -88t178.5 88t64.5 227z" />
    <glyph glyph-name="ntilde" unicode="&#xf1;" 
d="M180 0v1032h254v-166q57 82 150 132.5t190 50.5q146 0 232 -81.5t86 -230.5v-737h-254v662q0 83 -41 125t-107 42q-110 0 -183 -114t-73 -303v-412h-254zM668 1217q-41 21 -62.5 28.5t-50.5 7.5q-73 0 -131 -82l-133 107q35 80 104.5 129t147.5 49q46 0 80 -11t79 -36
q30 -15 43.5 -21t31.5 -11t38 -5q67 0 131 88l133 -112q-35 -80 -104.5 -129.5t-147.5 -49.5q-46 0 -79.5 11t-79.5 37z" />
    <glyph glyph-name="ograve" unicode="&#xf2;" 
d="M127 516q0 109 36.5 206.5t102 170t161 114.5t208.5 42t208.5 -42t161 -114.5t102 -170t36.5 -206.5q0 -147 -62 -267.5t-179 -192.5t-267 -72t-267 72t-179 192.5t-62 267.5zM897 516q0 132 -70 223q-68 92 -192 92t-195 -92q-67 -91 -67 -223t67 -223q71 -92 195 -92
t192 92q70 91 70 223zM565 1147l-280 303h344l131 -303h-195z" />
    <glyph glyph-name="oacute" unicode="&#xf3;" 
d="M127 516q0 109 36.5 206.5t102 170t161 114.5t208.5 42t208.5 -42t161 -114.5t102 -170t36.5 -206.5q0 -147 -62 -267.5t-179 -192.5t-267 -72t-267 72t-179 192.5t-62 267.5zM897 516q0 132 -70 223q-68 92 -192 92t-195 -92q-67 -91 -67 -223t67 -223q71 -92 195 -92
t192 92q70 91 70 223zM539 1147l131 303h344l-281 -303h-194z" />
    <glyph glyph-name="ocircumflex" unicode="&#xf4;" 
d="M127 516q0 109 36.5 206.5t102 170t161 114.5t208.5 42t208.5 -42t161 -114.5t102 -170t36.5 -206.5q0 -147 -62 -267.5t-179 -192.5t-267 -72t-267 72t-179 192.5t-62 267.5zM897 516q0 132 -70 223q-68 92 -192 92t-195 -92q-67 -91 -67 -223t67 -223q71 -92 195 -92
t192 92q70 91 70 223zM250 1147l350 356h70l350 -356h-250l-135 141l-135 -141h-250z" />
    <glyph glyph-name="otilde" unicode="&#xf5;" 
d="M127 516q0 109 36.5 206.5t102 170t161 114.5t208.5 42t208.5 -42t161 -114.5t102 -170t36.5 -206.5q0 -147 -62 -267.5t-179 -192.5t-267 -72t-267 72t-179 192.5t-62 267.5zM897 516q0 132 -70 223q-68 92 -192 92t-195 -92q-67 -91 -67 -223t67 -223q71 -92 195 -92
t192 92q70 91 70 223zM614 1217q-42 21 -63 28.5t-49 7.5q-73 0 -131 -82l-133 107q35 80 104 129t147 49q47 0 81 -11t79 -36q30 -15 43.5 -21t31.5 -11t38 -5q67 0 131 88l133 -112q-35 -80 -104.5 -129.5t-147.5 -49.5q-46 0 -80 11t-80 37z" />
    <glyph glyph-name="odieresis" unicode="&#xf6;" 
d="M127 516q0 109 36.5 206.5t102 170t161 114.5t208.5 42t208.5 -42t161 -114.5t102 -170t36.5 -206.5q0 -147 -62 -267.5t-179 -192.5t-267 -72t-267 72t-179 192.5t-62 267.5zM897 516q0 132 -70 223q-68 92 -192 92t-195 -92q-67 -91 -67 -223t67 -223q71 -92 195 -92
t192 92q70 91 70 223zM279 1325q0 63 41 104t104 41t104 -41t41 -104t-41 -104t-104 -41t-104 41t-41 104zM700 1325q0 63 41.5 104t104.5 41t104 -41t41 -104t-41 -104t-104 -41t-104.5 41t-41.5 104z" />
    <glyph glyph-name="divide" unicode="&#xf7;" 
d="M463 1036q0 74 49.5 123t122.5 49t122.5 -49t49.5 -123t-49.5 -123t-122.5 -49t-122.5 49t-49.5 123zM147 535v221h975v-221h-975zM463 254q0 74 49.5 123t122.5 49t122.5 -49t49.5 -123t-49.5 -123t-122.5 -49t-122.5 49t-49.5 123z" />
    <glyph glyph-name="oslash" unicode="&#xf8;" 
d="M127 516q0 109 36.5 206.5t102 170t161 114.5t208.5 42t208.5 -42t161 -114.5t102 -170t36.5 -206.5q0 -147 -62 -267.5t-179 -192.5t-267 -72t-267 72t-179 192.5t-62 267.5zM897 516q0 132 -70 223q-68 92 -192 92t-195 -92q-67 -91 -67 -223t67 -223q71 -92 195 -92
t192 92q70 91 70 223zM272 -123l-176 129l901 1149l177 -129z" />
    <glyph glyph-name="ugrave" unicode="&#xf9;" 
d="M180 295v737h254v-661q0 -83 41 -125.5t107 -42.5q110 0 183 114.5t73 303.5v411h254v-1032h-254v166q-57 -82 -149.5 -132t-190.5 -50q-146 0 -232 81t-86 230zM557 1147l-281 303h345l131 -303h-195z" />
    <glyph glyph-name="uacute" unicode="&#xfa;" 
d="M180 295v737h254v-661q0 -83 41 -125.5t107 -42.5q110 0 183 114.5t73 303.5v411h254v-1032h-254v166q-57 -82 -149.5 -132t-190.5 -50q-146 0 -232 81t-86 230zM530 1147l132 303h344l-281 -303h-195z" />
    <glyph glyph-name="ucircumflex" unicode="&#xfb;" 
d="M180 295v737h254v-661q0 -83 41 -125.5t107 -42.5q110 0 183 114.5t73 303.5v411h254v-1032h-254v166q-57 -82 -149.5 -132t-190.5 -50q-146 0 -232 81t-86 230zM242 1147l350 356h70l350 -356h-250l-135 141l-135 -141h-250z" />
    <glyph glyph-name="udieresis" unicode="&#xfc;" 
d="M180 295v737h254v-661q0 -83 41 -125.5t107 -42.5q110 0 183 114.5t73 303.5v411h254v-1032h-254v166q-57 -82 -149.5 -132t-190.5 -50q-146 0 -232 81t-86 230zM270 1325q0 63 41.5 104t104.5 41t104 -41t41 -104t-41 -104t-104 -41t-104.5 41t-41.5 104zM692 1325
q0 63 41.5 104t104.5 41t104 -41t41 -104t-41 -104t-104 -41t-104.5 41t-41.5 104z" />
    <glyph glyph-name="yacute" unicode="&#xfd;" 
d="M291 -418l231 547l-409 903h266l266 -612l246 612h266l-612 -1450h-254zM551 1147l131 303h344l-281 -303h-194z" />
    <glyph glyph-name="thorn" unicode="&#xfe;" 
d="M170 -418v1868h254v-512q37 46 107 78.5t143 32.5q225 0 348 -142.5t123 -390.5q0 -247 -123 -389.5t-348 -142.5q-83 0 -153 37t-97 85v-524h-254zM879 516q0 146 -66.5 230.5t-173.5 84.5q-106 0 -172 -84t-66 -231t66 -231t172 -84t173 85t67 230z" />
    <glyph glyph-name="ydieresis" unicode="&#xff;" 
d="M291 -418l231 547l-409 903h266l266 -612l246 612h266l-612 -1450h-254zM291 1325q0 63 41 104t104 41t104.5 -41t41.5 -104t-41.5 -104t-104.5 -41t-104 41t-41 104zM713 1325q0 63 41 104t104 41t104.5 -41t41.5 -104t-41.5 -104t-104.5 -41t-104 41t-41 104z" />
    <glyph glyph-name="Amacron" unicode="&#x100;" 
d="M39 0l450 1434h291l451 -1434h-275l-100 334h-442l-101 -334h-274zM487 580h295l-147 495zM358 1618v201h549v-201h-549z" />
    <glyph glyph-name="amacron" unicode="&#x101;" 
d="M207 297q0 152 122 245t318 93h172v45q0 79 -49.5 121.5t-130.5 42.5q-133 0 -178 -144l-215 62q37 129 144.5 208t248.5 79q208 0 315 -103t107 -330v-616h-197l-26 131q-120 -147 -318 -147q-140 0 -226.5 83.5t-86.5 229.5zM817 422v22h-186q-193 0 -193 -145
q0 -45 32 -77t85 -32q103 0 182.5 66t79.5 166zM360 1217v200h549v-200h-549z" />
    <glyph glyph-name="Abreve" unicode="&#x102;" 
d="M39 0l450 1434h291l451 -1434h-275l-100 334h-442l-101 -334h-274zM487 580h295l-147 495zM393 1835h187q0 -25 15 -41t40 -16t40 16t15 41h187q0 -94 -67.5 -158.5t-174.5 -64.5t-174.5 64.5t-67.5 158.5z" />
    <glyph glyph-name="abreve" unicode="&#x103;" 
d="M207 297q0 152 122 245t318 93h172v45q0 79 -49.5 121.5t-130.5 42.5q-133 0 -178 -144l-215 62q37 129 144.5 208t248.5 79q208 0 315 -103t107 -330v-616h-197l-26 131q-120 -147 -318 -147q-140 0 -226.5 83.5t-86.5 229.5zM817 422v22h-186q-193 0 -193 -145
q0 -45 32 -77t85 -32q103 0 182.5 66t79.5 166zM395 1434h187q0 -25 15.5 -41.5t39.5 -16.5t39.5 16.5t15.5 41.5h187q0 -94 -67.5 -159t-174.5 -65t-174.5 65t-67.5 159z" />
    <glyph glyph-name="Aogonek" unicode="&#x104;" 
d="M39 0l450 1434h291l451 -1434h-275l-100 334h-442l-101 -334h-274zM487 580h295l-147 495zM938 -195q0 56 32.5 109t84.5 86h176q-119 -94 -119 -160q0 -53 53 -53q31 0 64 20l41 -155q-60 -31 -133 -31q-91 0 -145 49t-54 135z" />
    <glyph glyph-name="aogonek" unicode="&#x105;" 
d="M1059 -193l41 -155q-60 -31 -133 -31q-91 0 -145 49t-54 135q0 56 32.5 109t84.5 86h-21l-26 131q-120 -147 -318 -147q-140 0 -226.5 83.5t-86.5 229.5q0 152 122 245t318 93h172v45q0 79 -49.5 121.5t-130.5 42.5q-133 0 -178 -144l-215 62q37 129 144.5 208t248.5 79
q208 0 315 -103t107 -330v-616q-119 -94 -119 -160q0 -53 53 -53q31 0 64 20zM817 422v22h-186q-193 0 -193 -145q0 -45 32 -77t85 -32q103 0 182.5 66t79.5 166z" />
    <glyph glyph-name="Cacute" unicode="&#x106;" 
d="M84 717q0 176 47.5 317t130.5 231t193 137.5t237 47.5q407 0 539 -432l-252 -78q-36 146 -108.5 205t-178.5 59q-145 0 -243 -110q-99 -111 -99 -377t99 -377t243 -111q106 0 178.5 59.5t108.5 205.5l252 -78q-132 -432 -539 -432q-127 0 -237 47.5t-193 137.5
t-130.5 231t-47.5 317zM596 1548l131 303h344l-280 -303h-195z" />
    <glyph glyph-name="cacute" unicode="&#x107;" 
d="M152 516q0 148 58.5 268t172.5 192.5t264 72.5q321 0 447 -285l-217 -92q-37 87 -92 123t-138 36q-110 0 -175.5 -83.5t-65.5 -231.5t65.5 -231.5t175.5 -83.5q83 0 138 36t92 123l217 -92q-126 -284 -447 -284q-150 0 -264 72t-172.5 192t-58.5 268zM551 1147l131 303
h344l-281 -303h-194z" />
    <glyph glyph-name="Ccircumflex" unicode="&#x108;" 
d="M84 717q0 176 47.5 317t130.5 231t193 137.5t237 47.5q407 0 539 -432l-252 -78q-36 146 -108.5 205t-178.5 59q-145 0 -243 -110q-99 -111 -99 -377t99 -377t243 -111q106 0 178.5 59.5t108.5 205.5l252 -78q-132 -432 -539 -432q-127 0 -237 47.5t-193 137.5
t-130.5 231t-47.5 317zM307 1548l350 357h70l350 -357h-250l-135 142l-135 -142h-250z" />
    <glyph glyph-name="ccircumflex" unicode="&#x109;" 
d="M152 516q0 148 58.5 268t172.5 192.5t264 72.5q321 0 447 -285l-217 -92q-37 87 -92 123t-138 36q-110 0 -175.5 -83.5t-65.5 -231.5t65.5 -231.5t175.5 -83.5q83 0 138 36t92 123l217 -92q-126 -284 -447 -284q-150 0 -264 72t-172.5 192t-58.5 268zM262 1147l350 356
h70l350 -356h-250l-135 141l-135 -141h-250z" />
    <glyph glyph-name="Cdotaccent" unicode="&#x10a;" 
d="M84 717q0 176 47.5 317t130.5 231t193 137.5t237 47.5q407 0 539 -432l-252 -78q-36 146 -108.5 205t-178.5 59q-145 0 -243 -110q-99 -111 -99 -377t99 -377t243 -111q106 0 178.5 59.5t108.5 205.5l252 -78q-132 -432 -539 -432q-127 0 -237 47.5t-193 137.5
t-130.5 231t-47.5 317zM528 1729q0 69 47.5 116t116.5 47t116.5 -47t47.5 -116t-47.5 -116.5t-116.5 -47.5t-116.5 47.5t-47.5 116.5z" />
    <glyph glyph-name="cdotaccent" unicode="&#x10b;" 
d="M152 516q0 148 58.5 268t172.5 192.5t264 72.5q321 0 447 -285l-217 -92q-37 87 -92 123t-138 36q-110 0 -175.5 -83.5t-65.5 -231.5t65.5 -231.5t175.5 -83.5q83 0 138 36t92 123l217 -92q-126 -284 -447 -284q-150 0 -264 72t-172.5 192t-58.5 268zM483 1329
q0 69 47.5 116.5t116.5 47.5t116.5 -47.5t47.5 -116.5t-47.5 -116.5t-116.5 -47.5t-116.5 47.5t-47.5 116.5z" />
    <glyph glyph-name="Ccaron" unicode="&#x10c;" 
d="M84 717q0 176 47.5 317t130.5 231t193 137.5t237 47.5q407 0 539 -432l-252 -78q-36 146 -108.5 205t-178.5 59q-145 0 -243 -110q-99 -111 -99 -377t99 -377t243 -111q106 0 178.5 59.5t108.5 205.5l252 -78q-132 -432 -539 -432q-127 0 -237 47.5t-193 137.5
t-130.5 231t-47.5 317zM657 1548l-350 357h250l135 -142l135 142h250l-350 -357h-70z" />
    <glyph glyph-name="ccaron" unicode="&#x10d;" 
d="M152 516q0 148 58.5 268t172.5 192.5t264 72.5q321 0 447 -285l-217 -92q-37 87 -92 123t-138 36q-110 0 -175.5 -83.5t-65.5 -231.5t65.5 -231.5t175.5 -83.5q83 0 138 36t92 123l217 -92q-126 -284 -447 -284q-150 0 -264 72t-172.5 192t-58.5 268zM612 1147l-350 356
h250l135 -141l135 141h250l-350 -356h-70z" />
    <glyph glyph-name="Dcaron" unicode="&#x10e;" 
d="M131 0v1434h404q143 0 266 -44.5t218 -131t149.5 -225.5t54.5 -316t-54.5 -316t-149.5 -225.5t-218 -131t-266 -44.5h-404zM397 246h115q177 0 307 106q133 109 133 365q0 255 -133 364q-131 107 -307 107h-115v-942zM483 1548l-350 357h250l135 -142l135 142h250
l-350 -357h-70z" />
    <glyph glyph-name="dcaron" unicode="&#x10f;" 
d="M25 516q0 248 123 390.5t348 142.5q73 0 142.5 -32.5t106.5 -78.5v512h254v-1450h-254v106q-27 -48 -96.5 -85t-152.5 -37q-225 0 -348 142.5t-123 389.5zM768 516q0 147 -66 231t-172 84t-172.5 -84.5t-66.5 -230.5q0 -145 66.5 -230t172.5 -85t172 84t66 231z
M1063 1110l51 377h279l-168 -377h-162z" />
    <glyph glyph-name="Dcroat" unicode="&#x110;" 
d="M131 0v606h-86v221h86v607h404q143 0 266 -44.5t218 -131t149.5 -225.5t54.5 -316t-54.5 -316t-149.5 -225.5t-218 -131t-266 -44.5h-404zM397 246h115q177 0 307 106q133 109 133 365q0 255 -133 364q-131 107 -307 107h-115v-361h213v-221h-213v-360z" />
    <glyph glyph-name="dslash" unicode="&#x111;" 
d="M117 516q0 248 123 390.5t348 142.5q73 0 143 -32.5t107 -78.5v209h-211v188h211v115h254v-115h137v-188h-137v-1147h-254v106q-27 -48 -97 -85t-153 -37q-225 0 -348 142.5t-123 389.5zM860 516q0 147 -65.5 231t-171.5 84q-107 0 -173.5 -84.5t-66.5 -230.5
q0 -145 67 -230t173 -85t171.5 84t65.5 231z" />
    <glyph glyph-name="Emacron" unicode="&#x112;" 
d="M186 0v1434h910v-246h-643v-301h540v-246h-540v-395h663v-246h-930zM371 1618v201h549v-201h-549z" />
    <glyph glyph-name="emacron" unicode="&#x113;" 
d="M147 516q0 80 18.5 155.5t58.5 144.5t97 120.5t140 82t182 30.5q118 0 212.5 -45t151.5 -119t87 -163t30 -183v-105h-727q6 -95 77 -164t183 -69q157 0 252 147l203 -106q-147 -258 -469 -258q-99 0 -182 30.5t-140 82t-97 120t-58.5 144t-18.5 155.5zM399 627h486
q-21 98 -82 155.5t-160 57.5q-95 0 -160.5 -60.5t-83.5 -152.5zM365 1217v200h548v-200h-548z" />
    <glyph glyph-name="Ebreve" unicode="&#x114;" 
d="M186 0v1434h910v-246h-643v-301h540v-246h-540v-395h663v-246h-930zM406 1835h186q0 -25 15 -41t40 -16t40 16t15 41h187q0 -94 -67.5 -158.5t-174.5 -64.5t-174 64.5t-67 158.5z" />
    <glyph glyph-name="ebreve" unicode="&#x115;" 
d="M147 516q0 80 18.5 155.5t58.5 144.5t97 120.5t140 82t182 30.5q118 0 212.5 -45t151.5 -119t87 -163t30 -183v-105h-727q6 -95 77 -164t183 -69q157 0 252 147l203 -106q-147 -258 -469 -258q-99 0 -182 30.5t-140 82t-97 120t-58.5 144t-18.5 155.5zM399 627h486
q-21 98 -82 155.5t-160 57.5q-95 0 -160.5 -60.5t-83.5 -152.5zM399 1434h187q0 -25 15.5 -41.5t39.5 -16.5t39.5 16.5t15.5 41.5h187q0 -94 -67.5 -159t-174.5 -65t-174.5 65t-67.5 159z" />
    <glyph glyph-name="Edotaccent" unicode="&#x116;" 
d="M186 0v1434h910v-246h-643v-301h540v-246h-540v-395h663v-246h-930zM483 1729q0 69 47.5 116t116.5 47t116.5 -47t47.5 -116t-47.5 -116.5t-116.5 -47.5t-116.5 47.5t-47.5 116.5z" />
    <glyph glyph-name="edotaccent" unicode="&#x117;" 
d="M147 516q0 80 18.5 155.5t58.5 144.5t97 120.5t140 82t182 30.5q118 0 212.5 -45t151.5 -119t87 -163t30 -183v-105h-727q6 -95 77 -164t183 -69q157 0 252 147l203 -106q-147 -258 -469 -258q-99 0 -182 30.5t-140 82t-97 120t-58.5 144t-18.5 155.5zM399 627h486
q-21 98 -82 155.5t-160 57.5q-95 0 -160.5 -60.5t-83.5 -152.5zM477 1329q0 69 47.5 116.5t116.5 47.5t116.5 -47.5t47.5 -116.5t-47.5 -116.5t-116.5 -47.5t-116.5 47.5t-47.5 116.5z" />
    <glyph glyph-name="Eogonek" unicode="&#x118;" 
d="M186 0v1434h910v-246h-643v-301h540v-246h-540v-395h663v-246h-930zM823 -195q0 56 32.5 109t84.5 86h176q-119 -94 -119 -160q0 -53 54 -53q30 0 63 20l41 -155q-60 -31 -133 -31q-91 0 -145 49t-54 135z" />
    <glyph glyph-name="eogonek" unicode="&#x119;" 
d="M147 516q0 80 18.5 155.5t58.5 144.5t97 120.5t140 82t182 30.5q118 0 212.5 -45t151.5 -119t87 -163t30 -183v-105h-727q6 -95 77 -164t183 -69q157 0 252 147l203 -106q-147 -258 -469 -258q-99 0 -182 30.5t-140 82t-97 120t-58.5 144t-18.5 155.5zM399 627h486
q-21 98 -82 155.5t-160 57.5q-95 0 -160.5 -60.5t-83.5 -152.5zM500 -195q0 56 32 109t84 86h177q-119 -94 -119 -160q0 -53 53 -53q31 0 64 20l40 -155q-60 -31 -133 -31q-91 0 -144.5 49t-53.5 135z" />
    <glyph glyph-name="Ecaron" unicode="&#x11a;" 
d="M186 0v1434h910v-246h-643v-301h540v-246h-540v-395h663v-246h-930zM612 1548l-350 357h250l135 -142l135 142h250l-350 -357h-70z" />
    <glyph glyph-name="ecaron" unicode="&#x11b;" 
d="M147 516q0 80 18.5 155.5t58.5 144.5t97 120.5t140 82t182 30.5q118 0 212.5 -45t151.5 -119t87 -163t30 -183v-105h-727q6 -95 77 -164t183 -69q157 0 252 147l203 -106q-147 -258 -469 -258q-99 0 -182 30.5t-140 82t-97 120t-58.5 144t-18.5 155.5zM399 627h486
q-21 98 -82 155.5t-160 57.5q-95 0 -160.5 -60.5t-83.5 -152.5zM606 1147l-350 356h250l135 -141l135 141h250l-350 -356h-70z" />
    <glyph glyph-name="Gcircumflex" unicode="&#x11c;" 
d="M90 717q-2 150 33.5 276t93.5 209t132.5 140.5t150 83t147.5 24.5q435 0 549 -436l-252 -76q-30 139 -98 202.5t-176 63.5q-146 0 -230 -121t-84 -366t78 -366.5t213 -121.5q117 0 195.5 69.5t91.5 201.5h-275v221h531v-721h-223l-21 139q-54 -79 -127.5 -117t-191.5 -38
q-75 -1 -150.5 26.5t-146 87.5t-124.5 145t-86 208t-30 266zM264 1548l350 357h70l350 -357h-250l-135 142l-135 -142h-250z" />
    <glyph glyph-name="gcircumflex" unicode="&#x11d;" 
d="M182 -94q0 127 84 205q-53 65 -53 159q0 142 127 217q-72 90 -72 213q0 155 109 252t270 97q105 0 191 -45l194 102l101 -168l-148 -74q41 -71 41 -164q0 -156 -108 -250t-271 -94q-72 0 -149 23q-49 -27 -49 -78q0 -76 96 -76h211q168 0 265 -79.5t97 -223.5
q0 -117 -67.5 -199.5t-171 -119.5t-230.5 -37q-207 0 -338 88q-129 88 -129 252zM788 700q0 63 -39.5 103.5t-101.5 40.5t-101.5 -40.5t-39.5 -103.5q0 -61 39.5 -100t101.5 -39t101.5 39t39.5 100zM864 -94q0 58 -41.5 82t-124.5 24h-139q-75 0 -119 8q-22 -36 -22 -94
q0 -71 62.5 -109t168.5 -38q102 0 158.5 31.5t56.5 95.5zM270 1147l351 356h69l350 -356h-249l-136 141l-135 -141h-250z" />
    <glyph glyph-name="Gbreve" unicode="&#x11e;" 
d="M90 717q-2 150 33.5 276t93.5 209t132.5 140.5t150 83t147.5 24.5q435 0 549 -436l-252 -76q-30 139 -98 202.5t-176 63.5q-146 0 -230 -121t-84 -366t78 -366.5t213 -121.5q117 0 195.5 69.5t91.5 201.5h-275v221h531v-721h-223l-21 139q-54 -79 -127.5 -117t-191.5 -38
q-75 -1 -150.5 26.5t-146 87.5t-124.5 145t-86 208t-30 266zM408 1835h186q0 -25 15 -41t40 -16t40.5 16t15.5 41h186q0 -94 -67.5 -158.5t-174.5 -64.5t-174 64.5t-67 158.5z" />
    <glyph glyph-name="gbreve" unicode="&#x11f;" 
d="M182 -94q0 127 84 205q-53 65 -53 159q0 142 127 217q-72 90 -72 213q0 155 109 252t270 97q105 0 191 -45l194 102l101 -168l-148 -74q41 -71 41 -164q0 -156 -108 -250t-271 -94q-72 0 -149 23q-49 -27 -49 -78q0 -76 96 -76h211q168 0 265 -79.5t97 -223.5
q0 -117 -67.5 -199.5t-171 -119.5t-230.5 -37q-207 0 -338 88q-129 88 -129 252zM788 700q0 63 -39.5 103.5t-101.5 40.5t-101.5 -40.5t-39.5 -103.5q0 -61 39.5 -100t101.5 -39t101.5 39t39.5 100zM864 -94q0 58 -41.5 82t-124.5 24h-139q-75 0 -119 8q-22 -36 -22 -94
q0 -71 62.5 -109t168.5 -38q102 0 158.5 31.5t56.5 95.5zM414 1434h186q0 -25 15.5 -41.5t39.5 -16.5q25 0 40.5 16.5t15.5 41.5h186q0 -94 -67.5 -159t-174.5 -65t-174 65t-67 159z" />
    <glyph glyph-name="Gdotaccent" unicode="&#x120;" 
d="M90 717q-2 150 33.5 276t93.5 209t132.5 140.5t150 83t147.5 24.5q435 0 549 -436l-252 -76q-30 139 -98 202.5t-176 63.5q-146 0 -230 -121t-84 -366t78 -366.5t213 -121.5q117 0 195.5 69.5t91.5 201.5h-275v221h531v-721h-223l-21 139q-54 -79 -127.5 -117t-191.5 -38
q-75 -1 -150.5 26.5t-146 87.5t-124.5 145t-86 208t-30 266zM485 1729q0 69 47.5 116t116.5 47t116.5 -47t47.5 -116t-47.5 -116.5t-116.5 -47.5t-116.5 47.5t-47.5 116.5z" />
    <glyph glyph-name="gdotaccent" unicode="&#x121;" 
d="M182 -94q0 127 84 205q-53 65 -53 159q0 142 127 217q-72 90 -72 213q0 155 109 252t270 97q105 0 191 -45l194 102l101 -168l-148 -74q41 -71 41 -164q0 -156 -108 -250t-271 -94q-72 0 -149 23q-49 -27 -49 -78q0 -76 96 -76h211q168 0 265 -79.5t97 -223.5
q0 -117 -67.5 -199.5t-171 -119.5t-230.5 -37q-207 0 -338 88q-129 88 -129 252zM788 700q0 63 -39.5 103.5t-101.5 40.5t-101.5 -40.5t-39.5 -103.5q0 -61 39.5 -100t101.5 -39t101.5 39t39.5 100zM864 -94q0 58 -41.5 82t-124.5 24h-139q-75 0 -119 8q-22 -36 -22 -94
q0 -71 62.5 -109t168.5 -38q102 0 158.5 31.5t56.5 95.5zM492 1329q0 69 47 116.5t116 47.5t116.5 -47.5t47.5 -116.5t-47.5 -116.5t-116.5 -47.5t-116 47.5t-47 116.5z" />
    <glyph glyph-name="Gcommaaccent" unicode="&#x122;" 
d="M90 717q-2 150 33.5 276t93.5 209t132.5 140.5t150 83t147.5 24.5q435 0 549 -436l-252 -76q-30 139 -98 202.5t-176 63.5q-146 0 -230 -121t-84 -366t78 -366.5t213 -121.5q117 0 195.5 69.5t91.5 201.5h-275v221h531v-721h-223l-21 139q-54 -79 -127.5 -117t-191.5 -38
q-75 -1 -150.5 26.5t-146 87.5t-124.5 145t-86 208t-30 266zM389 -483l90 377h312l-267 -377h-135z" />
    <glyph glyph-name="gcommaaccent" unicode="&#x123;" 
d="M182 -94q0 127 84 205q-53 65 -53 159q0 142 127 217q-72 90 -72 213q0 155 109 252t270 97q105 0 191 -45l194 102l101 -168l-148 -74q41 -71 41 -164q0 -156 -108 -250t-271 -94q-72 0 -149 23q-49 -27 -49 -78q0 -76 96 -76h211q168 0 265 -79.5t97 -223.5
q0 -117 -67.5 -199.5t-171 -119.5t-230.5 -37q-207 0 -338 88q-129 88 -129 252zM788 700q0 63 -39.5 103.5t-101.5 40.5t-101.5 -40.5t-39.5 -103.5q0 -61 39.5 -100t101.5 -39t101.5 39t39.5 100zM864 -94q0 58 -41.5 82t-124.5 24h-139q-75 0 -119 8q-22 -36 -22 -94
q0 -71 62.5 -109t168.5 -38q102 0 158.5 31.5t56.5 95.5zM516 1200l203 344h164l-88 -344h-279z" />
    <glyph glyph-name="Hcircumflex" unicode="&#x124;" 
d="M139 0v1434h267v-549h458v549h266v-1434h-266v639h-458v-639h-267zM250 1548l350 357h70l350 -357h-250l-135 142l-135 -142h-250z" />
    <glyph glyph-name="hcircumflex" unicode="&#x125;" 
d="M178 0v1450h254v-584q52 84 138.5 133.5t189.5 49.5q151 0 236 -80t85 -232v-737h-254v647q0 94 -37.5 139t-115.5 45q-100 0 -171 -103t-71 -292v-436h-254zM170 1565l350 356h70l350 -356h-250l-135 141l-135 -141h-250z" />
    <glyph glyph-name="Hbar" unicode="&#x126;" 
d="M139 0v1073h-108v221h108v140h267v-140h458v140h266v-140h109v-221h-109v-1073h-266v639h-458v-639h-267zM406 885h458v188h-458v-188z" />
    <glyph glyph-name="hbar" unicode="&#x127;" 
d="M178 0v1145h-147v188h147v117h254v-117h227v-188h-227v-279q52 84 138.5 133.5t189.5 49.5q151 0 236 -80t85 -232v-737h-254v647q0 94 -37.5 139t-115.5 45q-100 0 -171 -103t-71 -292v-436h-254z" />
    <glyph glyph-name="Itilde" unicode="&#x128;" 
d="M199 0v246h303v942h-303v246h872v-246h-303v-942h303v-246h-872zM614 1618q-31 16 -43.5 21.5t-30.5 10.5t-38 5q-73 0 -131 -82l-133 106q35 80 104 129.5t147 49.5q46 0 80 -11t80 -37q41 -21 62.5 -28.5t50.5 -7.5q67 0 131 88l133 -113q-35 -80 -104.5 -129
t-147.5 -49q-47 0 -81 11t-79 36z" />
    <glyph glyph-name="itilde" unicode="&#x129;" 
d="M188 0v217h320v598h-268v217h522v-815h319v-217h-893zM602 1217q-41 21 -62.5 28.5t-50.5 7.5q-73 0 -131 -82l-133 107q35 80 104.5 129t147.5 49q47 0 81 -11t79 -36q30 -15 43.5 -21t31.5 -11t38 -5q67 0 131 88l133 -112q-35 -80 -104.5 -129.5t-147.5 -49.5
q-46 0 -80 11t-80 37z" />
    <glyph glyph-name="Imacron" unicode="&#x12a;" 
d="M199 0v246h303v942h-303v246h872v-246h-303v-942h303v-246h-872zM358 1618v201h549v-201h-549z" />
    <glyph glyph-name="imacron" unicode="&#x12b;" 
d="M188 0v217h320v598h-268v217h522v-815h319v-217h-893zM346 1217v200h549v-200h-549z" />
    <glyph glyph-name="Ibreve" unicode="&#x12c;" 
d="M199 0v246h303v942h-303v246h872v-246h-303v-942h303v-246h-872zM393 1835h187q0 -25 15 -41t40 -16t40 16t15 41h187q0 -94 -67.5 -158.5t-174.5 -64.5t-174.5 64.5t-67.5 158.5z" />
    <glyph glyph-name="ibreve" unicode="&#x12d;" 
d="M188 0v217h320v598h-268v217h522v-815h319v-217h-893zM381 1434h186q0 -25 15.5 -41.5t40.5 -16.5q24 0 39.5 16.5t15.5 41.5h186q0 -94 -67 -159t-174 -65t-174.5 65t-67.5 159z" />
    <glyph glyph-name="Iogonek" unicode="&#x12e;" 
d="M199 0v246h303v942h-303v246h872v-246h-303v-942h303v-246h-872zM778 -195q0 56 32.5 109t84.5 86h176q-119 -94 -119 -160q0 -53 54 -53q30 0 63 20l41 -155q-60 -31 -133 -31q-91 0 -145 49t-54 135z" />
    <glyph glyph-name="iogonek" unicode="&#x12f;" 
d="M188 0v217h320v598h-268v217h522v-815h319v-217h-893zM459 1329q0 69 47.5 116.5t116.5 47.5t116 -47.5t47 -116.5t-47 -116.5t-116 -47.5t-116.5 47.5t-47.5 116.5zM791 -195q0 56 32 109t84 86h176q-118 -93 -118 -160q0 -53 53 -53q30 0 63 20l41 -155
q-60 -31 -133 -31q-91 0 -144.5 49t-53.5 135z" />
    <glyph glyph-name="Idot" unicode="&#x130;" 
d="M199 0v246h303v942h-303v246h872v-246h-303v-942h303v-246h-872zM471 1729q0 69 47.5 116t116.5 47t116.5 -47t47.5 -116t-47.5 -116.5t-116.5 -47.5t-116.5 47.5t-47.5 116.5z" />
    <glyph glyph-name="dotlessi" unicode="&#x131;" 
d="M188 0v217h320v598h-268v217h522v-815h319v-217h-893z" />
    <glyph glyph-name="IJ" unicode="&#x132;" 
d="M18 0v1434h267v-1434h-267zM367 354l262 56q19 -93 63 -137t117 -44q176 0 176 246v959h266v-930q0 -271 -111.5 -395.5t-330.5 -124.5q-185 0 -302 98t-140 272z" />
    <glyph glyph-name="ij" unicode="&#x133;" 
d="M147 1329q0 69 47.5 116.5t116.5 47.5t116.5 -47.5t47.5 -116.5t-47.5 -116.5t-116.5 -47.5t-116.5 47.5t-47.5 116.5zM825 1329q0 69 47.5 116.5t116.5 47.5t116.5 -47.5t47.5 -116.5t-47.5 -116.5t-116.5 -47.5t-116.5 47.5t-47.5 116.5zM186 0v1032h254v-1032h-254z
M696 -434l-61 223q126 32 182.5 101.5t56.5 211.5v713h-262v217h516v-975q0 -205 -129 -325q-129 -123 -303 -166z" />
    <glyph glyph-name="Jcircumflex" unicode="&#x134;" 
d="M119 375l262 55q19 -94 74.5 -147.5t134.5 -53.5q94 0 142 58t48 188v959h267v-930q0 -272 -115 -396t-342 -124q-195 0 -322 106q-128 110 -149 285zM528 1548l351 357h69l350 -357h-249l-136 142l-135 -142h-250z" />
    <glyph glyph-name="jcircumflex" unicode="&#x135;" 
d="M418 -434l-62 223q126 32 183 101.5t57 211.5v713h-365v217h619v-975q0 -205 -129 -325q-129 -123 -303 -166zM340 1147l350 356h70l350 -356h-250l-135 141l-135 -141h-250z" />
    <glyph glyph-name="Kcommaaccent" unicode="&#x136;" 
d="M117 0v1434h266v-535l412 535h321l-502 -639l539 -795h-324l-446 680v-680h-266zM326 -483l90 377h311l-266 -377h-135z" />
    <glyph glyph-name="kcommaaccent" unicode="&#x137;" 
d="M162 0v1450h254v-801l338 383h307l-440 -473l487 -559h-307l-385 469v-469h-254zM365 -483l90 377h311l-266 -377h-135z" />
    <glyph glyph-name="kgreenlandic" unicode="&#x138;" 
d="M162 0v1032h254v-383l338 383h307l-440 -473l487 -559h-307l-385 469v-469h-254z" />
    <glyph glyph-name="Lacute" unicode="&#x139;" 
d="M180 0v1434h266v-1188h646v-246h-912zM217 1548l131 303h344l-280 -303h-195z" />
    <glyph glyph-name="lacute" unicode="&#x13a;" 
d="M365 389v828h-265v217h518v-990q0 -215 156 -215q138 0 172 174l223 -45q-26 -183 -129 -278.5t-266 -95.5q-185 0 -297 108.5t-112 296.5zM403 1548l132 303h344l-281 -303h-195z" />
    <glyph glyph-name="Lcommaaccent" unicode="&#x13b;" 
d="M180 0v1434h266v-1188h646v-246h-912zM410 -483l90 377h311l-266 -377h-135z" />
    <glyph glyph-name="lcommaaccent" unicode="&#x13c;" 
d="M365 389v828h-265v217h518v-990q0 -215 156 -215q138 0 172 174l223 -45q-26 -183 -129 -278.5t-266 -95.5q-185 0 -297 108.5t-112 296.5zM510 -483l90 377h311l-266 -377h-135z" />
    <glyph glyph-name="Lcaron" unicode="&#x13d;" 
d="M180 0v1434h266v-1188h646v-246h-912zM766 1110l51 377h279l-168 -377h-162z" />
    <glyph glyph-name="lcaron" unicode="&#x13e;" 
d="M365 389v828h-265v217h518v-990q0 -215 156 -215q138 0 172 174l223 -45q-26 -183 -129 -278.5t-266 -95.5q-185 0 -297 108.5t-112 296.5zM844 1110l51 377h279l-168 -377h-162z" />
    <glyph glyph-name="Ldot" unicode="&#x13f;" 
d="M180 0v1434h266v-1188h646v-246h-912zM698 766q0 78 52.5 130t130.5 52t130 -52t52 -130t-52 -130t-130 -52t-130.5 52t-52.5 130z" />
    <glyph glyph-name="ldot" unicode="&#x140;" 
d="M365 389v828h-265v217h518v-990q0 -215 156 -215q138 0 172 174l223 -45q-26 -183 -129 -278.5t-266 -95.5q-185 0 -297 108.5t-112 296.5zM827 717q0 78 52.5 130t130.5 52t130 -52t52 -130t-52 -130t-130 -52t-130.5 52t-52.5 130z" />
    <glyph glyph-name="Lslash" unicode="&#x141;" 
d="M180 0v1434h266v-1188h646v-246h-912zM96 451l-94 202l717 332l96 -201z" />
    <glyph glyph-name="lslash" unicode="&#x142;" 
d="M365 389v86l-119 -63l-109 194l228 123v488h-265v217h518v-568l134 74l110 -195l-244 -131v-161q0 -224 156 -224q138 0 172 174l223 -45q-26 -183 -129 -278.5t-266 -95.5q-185 0 -297 108.5t-112 296.5z" />
    <glyph glyph-name="Nacute" unicode="&#x143;" 
d="M145 0v1434h246l486 -922v922h245v-1434h-245l-486 918v-918h-246zM539 1548l131 303h344l-281 -303h-194z" />
    <glyph glyph-name="nacute" unicode="&#x144;" 
d="M180 0v1032h254v-166q57 82 150 132.5t190 50.5q146 0 232 -81.5t86 -230.5v-737h-254v662q0 83 -41 125t-107 42q-110 0 -183 -114t-73 -303v-412h-254zM592 1147l131 303h344l-281 -303h-194z" />
    <glyph glyph-name="Ncommaaccent" unicode="&#x145;" 
d="M145 0v1434h246l486 -922v922h245v-1434h-245l-486 918v-918h-246zM389 -483l90 377h312l-267 -377h-135z" />
    <glyph glyph-name="ncommaaccent" unicode="&#x146;" 
d="M180 0v1032h254v-166q57 82 150 132.5t190 50.5q146 0 232 -81.5t86 -230.5v-737h-254v662q0 83 -41 125t-107 42q-110 0 -183 -114t-73 -303v-412h-254zM389 -483l90 377h312l-267 -377h-135z" />
    <glyph glyph-name="Ncaron" unicode="&#x147;" 
d="M145 0v1434h246l486 -922v922h245v-1434h-245l-486 918v-918h-246zM600 1548l-350 357h250l135 -142l135 142h250l-350 -357h-70z" />
    <glyph glyph-name="ncaron" unicode="&#x148;" 
d="M180 0v1032h254v-166q57 82 150 132.5t190 50.5q146 0 232 -81.5t86 -230.5v-737h-254v662q0 83 -41 125t-107 42q-110 0 -183 -114t-73 -303v-412h-254zM653 1147l-350 356h250l135 -141l135 141h250l-350 -356h-70z" />
    <glyph glyph-name="Eng" unicode="&#x14a;" 
d="M672 -434v246q95 0 147 44t58 144l-486 918v-918h-246v1434h246l486 -922v922h245v-1434q0 -434 -450 -434z" />
    <glyph glyph-name="eng" unicode="&#x14b;" 
d="M659 -434l-61 223q126 32 183 99t57 200v574q0 83 -41 125t-107 42q-110 0 -183 -114t-73 -303v-412h-254v1032h254v-166q57 82 150 132.5t190 50.5q146 0 232 -81.5t86 -230.5v-618q0 -239 -104.5 -370t-328.5 -183z" />
    <glyph glyph-name="Omacron" unicode="&#x14c;" 
d="M78 717q0 176 42 316t117 230.5t176.5 138.5t221.5 48t221.5 -48t176.5 -138.5t117 -230.5t42 -316t-42 -316t-117 -230.5t-176.5 -138.5t-221.5 -48t-221.5 48t-176.5 138.5t-117 230.5t-42 316zM926 717q0 245 -78 366t-213 121t-213 -121t-78 -366t78 -366.5
t213 -121.5t213 121.5t78 366.5zM358 1618v201h549v-201h-549z" />
    <glyph glyph-name="omacron" unicode="&#x14d;" 
d="M127 516q0 109 36.5 206.5t102 170t161 114.5t208.5 42t208.5 -42t161 -114.5t102 -170t36.5 -206.5q0 -147 -62 -267.5t-179 -192.5t-267 -72t-267 72t-179 192.5t-62 267.5zM897 516q0 132 -70 223q-68 92 -192 92t-195 -92q-67 -91 -67 -223t67 -223q71 -92 195 -92
t192 92q70 91 70 223zM358 1217v200h549v-200h-549z" />
    <glyph glyph-name="Obreve" unicode="&#x14e;" 
d="M78 717q0 176 42 316t117 230.5t176.5 138.5t221.5 48t221.5 -48t176.5 -138.5t117 -230.5t42 -316t-42 -316t-117 -230.5t-176.5 -138.5t-221.5 -48t-221.5 48t-176.5 138.5t-117 230.5t-42 316zM926 717q0 245 -78 366t-213 121t-213 -121t-78 -366t78 -366.5
t213 -121.5t213 121.5t78 366.5zM393 1835h187q0 -25 15 -41t40 -16t40 16t15 41h187q0 -94 -67.5 -158.5t-174.5 -64.5t-174.5 64.5t-67.5 158.5z" />
    <glyph glyph-name="obreve" unicode="&#x14f;" 
d="M127 516q0 109 36.5 206.5t102 170t161 114.5t208.5 42t208.5 -42t161 -114.5t102 -170t36.5 -206.5q0 -147 -62 -267.5t-179 -192.5t-267 -72t-267 72t-179 192.5t-62 267.5zM897 516q0 132 -70 223q-68 92 -192 92t-195 -92q-67 -91 -67 -223t67 -223q71 -92 195 -92
t192 92q70 91 70 223zM393 1434h187q0 -25 15.5 -41.5t39.5 -16.5t39.5 16.5t15.5 41.5h187q0 -94 -67.5 -159t-174.5 -65t-174.5 65t-67.5 159z" />
    <glyph glyph-name="Ohungarumlaut" unicode="&#x150;" 
d="M78 717q0 176 42 316t117 230.5t176.5 138.5t221.5 48t221.5 -48t176.5 -138.5t117 -230.5t42 -316t-42 -316t-117 -230.5t-176.5 -138.5t-221.5 -48t-221.5 48t-176.5 138.5t-117 230.5t-42 316zM926 717q0 245 -78 366t-213 121t-213 -121t-78 -366t78 -366.5
t213 -121.5t213 121.5t78 366.5zM281 1548l131 303h344l-283 -303h-192zM696 1548l131 303h344l-282 -303h-193z" />
    <glyph glyph-name="ohungarumlaut" unicode="&#x151;" 
d="M127 516q0 109 36.5 206.5t102 170t161 114.5t208.5 42t208.5 -42t161 -114.5t102 -170t36.5 -206.5q0 -147 -62 -267.5t-179 -192.5t-267 -72t-267 72t-179 192.5t-62 267.5zM897 516q0 132 -70 223q-68 92 -192 92t-195 -92q-67 -91 -67 -223t67 -223q71 -92 195 -92
t192 92q70 91 70 223zM270 1147l131 303h344l-282 -303h-193zM686 1147l131 303h344l-282 -303h-193z" />
    <glyph glyph-name="OE" unicode="&#x152;" 
d="M57 717q0 349 142.5 533t392.5 184h590v-254h-342v-289h286v-254h-286v-383h362v-254h-610q-250 0 -392.5 184t-142.5 533zM573 254v942q-130 0 -188 -137q-57 -132 -57 -342q0 -235 57 -349t188 -114z" />
    <glyph glyph-name="oe" unicode="&#x153;" 
d="M156 516q0 100 30.5 193t89 170.5t155.5 123.5t220 46q95 0 175.5 -29.5t136 -79.5t95 -116t57.5 -138t18 -147v-105h-383v-223q98 30 165 149l205 -75q-64 -149 -179 -225t-290 -76q-123 0 -220 46t-155.5 123t-89 170t-30.5 193zM559 223v590q-65 -31 -105 -108
t-40 -189q0 -228 145 -293zM750 635h122q-27 132 -122 176v-176z" />
    <glyph glyph-name="Racute" unicode="&#x154;" 
d="M143 0v1434h523q206 0 321 -110.5t115 -297.5q0 -144 -70 -245.5t-198 -139.5l397 -641h-297l-385 618h-139v-618h-267zM410 864h258q168 0 168 162t-168 162h-258v-324zM436 1548l131 303h344l-280 -303h-195z" />
    <glyph glyph-name="racute" unicode="&#x155;" 
d="M168 0v1032h254v-158q63 90 158.5 132.5t197.5 42.5q143 0 230 -93.5t94 -261.5h-250q-9 148 -131 148q-126 0 -212.5 -149t-86.5 -378v-315h-254zM616 1147l132 303h344l-281 -303h-195z" />
    <glyph glyph-name="Rcommaaccent" unicode="&#x156;" 
d="M143 0v1434h523q206 0 321 -110.5t115 -297.5q0 -144 -70 -245.5t-198 -139.5l397 -641h-297l-385 618h-139v-618h-267zM410 864h258q168 0 168 162t-168 162h-258v-324zM410 -483l90 377h311l-266 -377h-135z" />
    <glyph glyph-name="rcommaaccent" unicode="&#x157;" 
d="M168 0v1032h254v-158q63 90 158.5 132.5t197.5 42.5q143 0 230 -93.5t94 -261.5h-250q-9 148 -131 148q-126 0 -212.5 -149t-86.5 -378v-315h-254zM49 -483l90 377h312l-267 -377h-135z" />
    <glyph glyph-name="Rcaron" unicode="&#x158;" 
d="M143 0v1434h523q206 0 321 -110.5t115 -297.5q0 -144 -70 -245.5t-198 -139.5l397 -641h-297l-385 618h-139v-618h-267zM410 864h258q168 0 168 162t-168 162h-258v-324zM498 1548l-351 357h250l135 -142l136 142h250l-351 -357h-69z" />
    <glyph glyph-name="rcaron" unicode="&#x159;" 
d="M168 0v1032h254v-158q63 90 158.5 132.5t197.5 42.5q143 0 230 -93.5t94 -261.5h-250q-9 148 -131 148q-126 0 -212.5 -149t-86.5 -378v-315h-254zM678 1147l-350 356h250l135 -141l135 141h250l-350 -356h-70z" />
    <glyph glyph-name="Sacute" unicode="&#x15a;" 
d="M104 406l236 88q26 -123 103.5 -194t211.5 -71q98 0 153.5 48.5t55.5 138.5q-2 24 -6 42t-13.5 35t-18 28t-29.5 24.5t-39 22.5t-54 22.5t-67 24t-86 28.5q-181 58 -267.5 156.5t-86.5 255.5q0 177 124.5 286t327.5 109q172 0 286 -82.5t163 -224.5l-215 -109
q-31 85 -92 127.5t-142 42.5q-80 0 -133 -41.5t-53 -113.5q0 -80 60 -125t212 -84q199 -52 297 -147.5t98 -266.5q0 -212 -130.5 -327t-352.5 -115q-212 0 -357 110.5t-186 311.5zM553 1548l131 303h344l-280 -303h-195z" />
    <glyph glyph-name="sacute" unicode="&#x15b;" 
d="M201 293l229 80q29 -91 84.5 -131.5t149.5 -40.5q74 0 122 27.5t48 70.5q0 41 -47.5 67t-170.5 52q-348 77 -348 332q0 86 52.5 155.5t136 106.5t178.5 37q276 0 403 -232l-182 -127q-74 141 -219 141q-55 0 -94 -25t-39 -63q0 -42 39.5 -67.5t146.5 -48.5
q197 -38 288 -110t91 -202q0 -155 -119 -243q-116 -88 -295 -88q-347 0 -454 309zM543 1147l131 303h344l-281 -303h-194z" />
    <glyph glyph-name="Scircumflex" unicode="&#x15c;" 
d="M104 406l236 88q26 -123 103.5 -194t211.5 -71q98 0 153.5 48.5t55.5 138.5q-2 24 -6 42t-13.5 35t-18 28t-29.5 24.5t-39 22.5t-54 22.5t-67 24t-86 28.5q-181 58 -267.5 156.5t-86.5 255.5q0 177 124.5 286t327.5 109q172 0 286 -82.5t163 -224.5l-215 -109
q-31 85 -92 127.5t-142 42.5q-80 0 -133 -41.5t-53 -113.5q0 -80 60 -125t212 -84q199 -52 297 -147.5t98 -266.5q0 -212 -130.5 -327t-352.5 -115q-212 0 -357 110.5t-186 311.5zM264 1548l350 357h70l350 -357h-250l-135 142l-135 -142h-250z" />
    <glyph glyph-name="scircumflex" unicode="&#x15d;" 
d="M201 293l229 80q29 -91 84.5 -131.5t149.5 -40.5q74 0 122 27.5t48 70.5q0 41 -47.5 67t-170.5 52q-348 77 -348 332q0 86 52.5 155.5t136 106.5t178.5 37q276 0 403 -232l-182 -127q-74 141 -219 141q-55 0 -94 -25t-39 -63q0 -42 39.5 -67.5t146.5 -48.5
q197 -38 288 -110t91 -202q0 -155 -119 -243q-116 -88 -295 -88q-347 0 -454 309zM254 1147l350 356h70l350 -356h-250l-135 141l-135 -141h-250z" />
    <glyph glyph-name="Scedilla" unicode="&#x15e;" 
d="M104 406l236 88q26 -123 103.5 -194t211.5 -71q98 0 153.5 48.5t55.5 138.5q-2 24 -6 42t-13.5 35t-18 28t-29.5 24.5t-39 22.5t-54 22.5t-67 24t-86 28.5q-181 58 -267.5 156.5t-86.5 255.5q0 177 124.5 286t327.5 109q172 0 286 -82.5t163 -224.5l-215 -109
q-31 85 -92 127.5t-142 42.5q-80 0 -133 -41.5t-53 -113.5q0 -80 60 -125t212 -84q199 -52 297 -147.5t98 -266.5q0 -212 -130.5 -327t-352.5 -115q-212 0 -357 110.5t-186 311.5zM551 -545l-303 135l289 287h184z" />
    <glyph glyph-name="scedilla" unicode="&#x15f;" 
d="M201 293l229 80q29 -91 84.5 -131.5t149.5 -40.5q74 0 122 27.5t48 70.5q0 41 -47.5 67t-170.5 52q-348 77 -348 332q0 86 52.5 155.5t136 106.5t178.5 37q276 0 403 -232l-182 -127q-74 141 -219 141q-55 0 -94 -25t-39 -63q0 -42 39.5 -67.5t146.5 -48.5
q197 -38 288 -110t91 -202q0 -155 -119 -243q-116 -88 -295 -88q-347 0 -454 309zM555 -545l-303 135l289 287h184z" />
    <glyph glyph-name="Scaron" unicode="&#x160;" 
d="M104 406l236 88q26 -123 103.5 -194t211.5 -71q98 0 153.5 48.5t55.5 138.5q-2 24 -6 42t-13.5 35t-18 28t-29.5 24.5t-39 22.5t-54 22.5t-67 24t-86 28.5q-181 58 -267.5 156.5t-86.5 255.5q0 177 124.5 286t327.5 109q172 0 286 -82.5t163 -224.5l-215 -109
q-31 85 -92 127.5t-142 42.5q-80 0 -133 -41.5t-53 -113.5q0 -80 60 -125t212 -84q199 -52 297 -147.5t98 -266.5q0 -212 -130.5 -327t-352.5 -115q-212 0 -357 110.5t-186 311.5zM614 1548l-350 357h250l135 -142l135 142h250l-350 -357h-70z" />
    <glyph glyph-name="scaron" unicode="&#x161;" 
d="M201 293l229 80q29 -91 84.5 -131.5t149.5 -40.5q74 0 122 27.5t48 70.5q0 41 -47.5 67t-170.5 52q-348 77 -348 332q0 86 52.5 155.5t136 106.5t178.5 37q276 0 403 -232l-182 -127q-74 141 -219 141q-55 0 -94 -25t-39 -63q0 -42 39.5 -67.5t146.5 -48.5
q197 -38 288 -110t91 -202q0 -155 -119 -243q-116 -88 -295 -88q-347 0 -454 309zM604 1147l-350 356h250l135 -141l135 141h250l-350 -356h-70z" />
    <glyph glyph-name="uni0162" unicode="&#x162;" 
d="M502 0v1188h-404v246h1073v-246h-403v-1188h-266zM551 -545l-303 135l289 287h184z" />
    <glyph glyph-name="uni0163" unicode="&#x163;" 
d="M371 416v399h-254v217h254v258l254 160v-418h448v-217h-448v-405q0 -103 43.5 -156t126.5 -53q108 0 211 121l86 -205q-133 -133 -297 -133q-208 0 -316 109t-108 323zM635 -545l-303 135l289 287h184z" />
    <glyph glyph-name="Tcaron" unicode="&#x164;" 
d="M502 0v1188h-404v246h1073v-246h-403v-1188h-266zM600 1548l-350 357h250l135 -142l135 142h250l-350 -357h-70z" />
    <glyph glyph-name="tcaron" unicode="&#x165;" 
d="M371 416v399h-254v217h254v258l254 160v-418h448v-217h-448v-405q0 -103 43.5 -156t126.5 -53q108 0 211 121l86 -205q-133 -133 -297 -133q-208 0 -316 109t-108 323zM905 1110l51 377h279l-168 -377h-162z" />
    <glyph glyph-name="Tbar" unicode="&#x166;" 
d="M502 0v1188h-404v246h1073v-246h-403v-1188h-266zM250 606v221h770v-221h-770z" />
    <glyph glyph-name="tbar" unicode="&#x167;" 
d="M371 416v84h-117v192h117v123h-254v217h254v258l254 160v-418h448v-217h-448v-123h188v-192h-188v-90q0 -103 43.5 -156t126.5 -53q108 0 211 121l86 -205q-133 -133 -297 -133q-208 0 -316 109t-108 323z" />
    <glyph glyph-name="Utilde" unicode="&#x168;" 
d="M121 545v889h266v-893q0 -155 63 -233.5t185 -78.5q132 0 190 75t58 237v893h266v-889q0 -276 -141 -420q-141 -141 -373 -141t-373 141q-141 144 -141 420zM614 1618q-31 16 -43.5 21.5t-30.5 10.5t-38 5q-73 0 -131 -82l-133 106q35 80 104 129.5t147 49.5q46 0 80 -11
t80 -37q41 -21 62.5 -28.5t50.5 -7.5q67 0 131 88l133 -113q-35 -80 -104.5 -129t-147.5 -49q-47 0 -81 11t-79 36z" />
    <glyph glyph-name="utilde" unicode="&#x169;" 
d="M180 295v737h254v-661q0 -83 41 -125.5t107 -42.5q110 0 183 114.5t73 303.5v411h254v-1032h-254v166q-57 -82 -149.5 -132t-190.5 -50q-146 0 -232 81t-86 230zM606 1217q-42 21 -63 28.5t-49 7.5q-74 0 -132 -82l-133 107q35 80 104.5 129t147.5 49q47 0 81 -11t79 -36
q30 -15 43.5 -21t31.5 -11t38 -5q67 0 131 88l133 -112q-35 -80 -104.5 -129.5t-147.5 -49.5q-46 0 -80 11t-80 37z" />
    <glyph glyph-name="Umacron" unicode="&#x16a;" 
d="M121 545v889h266v-893q0 -155 63 -233.5t185 -78.5q132 0 190 75t58 237v893h266v-889q0 -276 -141 -420q-141 -141 -373 -141t-373 141q-141 144 -141 420zM358 1618v201h549v-201h-549z" />
    <glyph glyph-name="umacron" unicode="&#x16b;" 
d="M180 295v737h254v-661q0 -83 41 -125.5t107 -42.5q110 0 183 114.5t73 303.5v411h254v-1032h-254v166q-57 -82 -149.5 -132t-190.5 -50q-146 0 -232 81t-86 230zM350 1217v200h549v-200h-549z" />
    <glyph glyph-name="Ubreve" unicode="&#x16c;" 
d="M121 545v889h266v-893q0 -155 63 -233.5t185 -78.5q132 0 190 75t58 237v893h266v-889q0 -276 -141 -420q-141 -141 -373 -141t-373 141q-141 144 -141 420zM393 1835h187q0 -25 15 -41t40 -16t40 16t15 41h187q0 -94 -67.5 -158.5t-174.5 -64.5t-174.5 64.5t-67.5 158.5
z" />
    <glyph glyph-name="ubreve" unicode="&#x16d;" 
d="M180 295v737h254v-661q0 -83 41 -125.5t107 -42.5q110 0 183 114.5t73 303.5v411h254v-1032h-254v166q-57 -82 -149.5 -132t-190.5 -50q-146 0 -232 81t-86 230zM385 1434h186q0 -25 15.5 -41.5t40.5 -16.5q24 0 39.5 16.5t15.5 41.5h186q0 -94 -67 -159t-174 -65
t-174.5 65t-67.5 159z" />
    <glyph glyph-name="Uring" unicode="&#x16e;" 
d="M121 545v889h266v-893q0 -155 63 -233.5t185 -78.5q132 0 190 75t58 237v893h266v-889q0 -276 -141 -420q-141 -141 -373 -141t-373 141q-141 144 -141 420zM424 1743q0 91 59.5 150t151.5 59t151.5 -59t59.5 -150t-59.5 -150t-151.5 -59t-151.5 59t-59.5 150zM696 1743
q0 30 -16 47.5t-45 17.5t-45.5 -17.5t-16.5 -47.5t16.5 -48t45.5 -18t45 18t16 48z" />
    <glyph glyph-name="uring" unicode="&#x16f;" 
d="M180 295v737h254v-661q0 -83 41 -125.5t107 -42.5q110 0 183 114.5t73 303.5v411h254v-1032h-254v166q-57 -82 -149.5 -132t-190.5 -50q-146 0 -232 81t-86 230zM416 1341q0 91 59.5 150t151.5 59t151.5 -59t59.5 -150t-59.5 -149.5t-151.5 -58.5t-151.5 58.5
t-59.5 149.5zM688 1341q0 30 -16 48t-45 18t-45.5 -18t-16.5 -48t16.5 -47.5t45.5 -17.5t45 17.5t16 47.5z" />
    <glyph glyph-name="Uhungarumlaut" unicode="&#x170;" 
d="M121 545v889h266v-893q0 -155 63 -233.5t185 -78.5q132 0 190 75t58 237v893h266v-889q0 -276 -141 -420q-141 -141 -373 -141t-373 141q-141 144 -141 420zM281 1548l131 303h344l-283 -303h-192zM696 1548l131 303h344l-282 -303h-193z" />
    <glyph glyph-name="uhungarumlaut" unicode="&#x171;" 
d="M180 295v737h254v-661q0 -83 41 -125.5t107 -42.5q110 0 183 114.5t73 303.5v411h254v-1032h-254v166q-57 -82 -149.5 -132t-190.5 -50q-146 0 -232 81t-86 230zM262 1147l131 303h344l-282 -303h-193zM678 1147l131 303h344l-283 -303h-192z" />
    <glyph glyph-name="Uogonek" unicode="&#x172;" 
d="M121 545v889h266v-893q0 -155 63 -233.5t185 -78.5q132 0 190 75t58 237v893h266v-889q0 -276 -141 -420q-141 -141 -373 -141t-373 141q-141 144 -141 420zM487 -195q0 56 32.5 109t84.5 86h176q-118 -93 -118 -160q0 -53 53 -53q30 0 63 20l41 -155q-60 -31 -133 -31
q-91 0 -145 49t-54 135z" />
    <glyph glyph-name="uogonek" unicode="&#x173;" 
d="M180 295v737h254v-661q0 -83 41 -125.5t107 -42.5q110 0 183 114.5t73 303.5v411h254v-1032h-254v166q-57 -82 -149.5 -132t-190.5 -50q-146 0 -232 81t-86 230zM799 -195q0 56 32 109t84 86h177q-119 -94 -119 -160q0 -53 53 -53q31 0 64 20l40 -155q-60 -31 -133 -31
q-91 0 -144.5 49t-53.5 135z" />
    <glyph glyph-name="Wcircumflex" unicode="&#x174;" 
d="M160 0l-137 1434h253l68 -902l209 629h164l209 -629l67 902h254l-137 -1434h-283l-192 670l-234 -670h-241zM250 1548l350 357h70l350 -357h-250l-135 142l-135 -142h-250z" />
    <glyph glyph-name="wcircumflex" unicode="&#x175;" 
d="M260 0l-205 1032h226l92 -639l176 578h172l176 -578l92 639h225l-204 -1032h-197l-178 602l-178 -602h-197zM250 1147l350 356h70l350 -356h-250l-135 141l-135 -141h-250z" />
    <glyph glyph-name="Ycircumflex" unicode="&#x176;" 
d="M512 0v528l-455 906h287l291 -621l291 621h286l-454 -906v-528h-246zM250 1548l350 357h70l350 -357h-250l-135 142l-135 -142h-250z" />
    <glyph glyph-name="ycircumflex" unicode="&#x177;" 
d="M291 -418l231 547l-409 903h266l266 -612l246 612h266l-612 -1450h-254zM262 1147l350 356h70l350 -356h-250l-135 141l-135 -141h-250z" />
    <glyph glyph-name="Ydieresis" unicode="&#x178;" 
d="M512 0v528l-455 906h287l291 -621l291 621h286l-454 -906v-528h-246zM279 1726q0 63 41 104.5t104 41.5t104 -41.5t41 -104.5t-41 -104t-104 -41t-104 41t-41 104zM700 1726q0 63 41.5 104.5t104.5 41.5t104 -41.5t41 -104.5t-41 -104t-104 -41t-104.5 41t-41.5 104z" />
    <glyph glyph-name="Zacute" unicode="&#x179;" 
d="M150 0v123l614 1065h-586v246h934v-123l-614 -1065h637v-246h-985zM539 1548l131 303h344l-281 -303h-194z" />
    <glyph glyph-name="zacute" unicode="&#x17a;" 
d="M223 0v98l479 717h-452v217h774v-98l-467 -717h492v-217h-826zM537 1147l131 303h344l-281 -303h-194z" />
    <glyph glyph-name="Zdotaccent" unicode="&#x17b;" 
d="M150 0v123l614 1065h-586v246h934v-123l-614 -1065h637v-246h-985zM471 1729q0 69 47.5 116t116.5 47t116.5 -47t47.5 -116t-47.5 -116.5t-116.5 -47.5t-116.5 47.5t-47.5 116.5z" />
    <glyph glyph-name="zdotaccent" unicode="&#x17c;" 
d="M223 0v98l479 717h-452v217h774v-98l-467 -717h492v-217h-826zM469 1329q0 69 47.5 116.5t116.5 47.5t116.5 -47.5t47.5 -116.5t-47.5 -116.5t-116.5 -47.5t-116.5 47.5t-47.5 116.5z" />
    <glyph glyph-name="Zcaron" unicode="&#x17d;" 
d="M150 0v123l614 1065h-586v246h934v-123l-614 -1065h637v-246h-985zM600 1548l-350 357h250l135 -142l135 142h250l-350 -357h-70z" />
    <glyph glyph-name="zcaron" unicode="&#x17e;" 
d="M223 0v98l479 717h-452v217h774v-98l-467 -717h492v-217h-826zM598 1147l-350 356h250l135 -141l135 141h250l-350 -356h-70z" />
    <glyph glyph-name="florin" unicode="&#x192;" 
d="M61 -393l95 205q66 -29 116 -29q117 0 144 129l174 903h-264l43 217h266l10 53q35 180 146 272.5t280 92.5q119 0 184 -41l-94 -205q-66 29 -117 29q-116 0 -143 -129l-12 -72h323l-43 -217h-323l-174 -885q-35 -180 -146 -272t-280 -92q-120 0 -185 41z" />
    <glyph glyph-name="uni01B5" unicode="&#x1b5;" 
d="M150 0v123l276 483h-219v221h348l209 361h-586v246h934v-123l-281 -484h209v-221h-335l-207 -360h637v-246h-985z" />
    <glyph glyph-name="uni01B6" unicode="&#x1b6;" 
d="M221 0v98l234 348h-158v189h283l120 180h-452v217h774v-98l-195 -299h148v-189h-270l-150 -229h492v-217h-826z" />
    <glyph glyph-name="Aringacute" unicode="&#x1fa;" 
d="M39 0l450 1434h291l451 -1434h-275l-100 334h-442l-101 -334h-274zM487 580h295l-147 495zM424 1743q0 91 59.5 150t151.5 59t151.5 -59t59.5 -150t-59.5 -150t-151.5 -59t-151.5 59t-59.5 150zM696 1743q0 30 -16 47.5t-45 17.5t-45.5 -17.5t-16.5 -47.5t16.5 -48
t45.5 -18t45 18t16 48zM539 2009l131 303h344l-281 -303h-194z" />
    <glyph glyph-name="aringacute" unicode="&#x1fb;" 
d="M207 297q0 152 122 245t318 93h172v45q0 79 -49.5 121.5t-130.5 42.5q-133 0 -178 -144l-215 62q37 129 144.5 208t248.5 79q208 0 315 -103t107 -330v-616h-197l-26 131q-120 -147 -318 -147q-140 0 -226.5 83.5t-86.5 229.5zM817 422v22h-186q-193 0 -193 -145
q0 -45 32 -77t85 -32q103 0 182.5 66t79.5 166zM426 1341q0 91 59.5 150t151.5 59t151.5 -59t59.5 -150t-59.5 -149.5t-151.5 -58.5t-151.5 58.5t-59.5 149.5zM698 1341q0 30 -16 48t-45 18t-45.5 -18t-16.5 -48t16.5 -47.5t45.5 -17.5t45 17.5t16 47.5zM541 1632l131 303
h344l-281 -303h-194z" />
    <glyph glyph-name="AEacute" unicode="&#x1fc;" 
d="M-23 0l398 1434h823v-267h-356v-311h274v-266h-274v-324h377v-266h-644v383h-243l-103 -383h-252zM393 616h182v519h-43zM702 1548l132 303h344l-281 -303h-195z" />
    <glyph glyph-name="aeacute" unicode="&#x1fd;" 
d="M74 295q0 161 105 250.5t280 89.5h90v43q0 104 -29 151.5t-92 47.5q-60 0 -97 -43.5t-48 -120.5l-166 45q15 123 102 207t211 84q182 0 240 -156q38 72 106 114t146 42q154 0 237.5 -122t83.5 -345v-117h-479q0 -141 37.5 -214t107.5 -73q56 0 89.5 36t68.5 134l164 -49
q-48 -163 -124 -239t-198 -76q-90 0 -153 49t-90 135q-39 -87 -115 -135.5t-180 -48.5q-135 0 -216 82.5t-81 228.5zM760 635h299q0 106 -41 174t-109 68q-63 0 -106 -68.5t-43 -173.5zM549 408v61h-68q-97 0 -147.5 -38.5t-50.5 -113.5q0 -66 31 -102.5t87 -36.5
q75 0 111.5 62.5t36.5 167.5zM573 1147l132 303h344l-281 -303h-195z" />
    <glyph glyph-name="Scommaaccent" unicode="&#x218;" 
d="M104 406l236 88q26 -123 103.5 -194t211.5 -71q98 0 153.5 48.5t55.5 138.5q-2 24 -6 42t-13.5 35t-18 28t-29.5 24.5t-39 22.5t-54 22.5t-67 24t-86 28.5q-181 58 -267.5 156.5t-86.5 255.5q0 177 124.5 286t327.5 109q172 0 286 -82.5t163 -224.5l-215 -109
q-31 85 -92 127.5t-142 42.5q-80 0 -133 -41.5t-53 -113.5q0 -80 60 -125t212 -84q199 -52 297 -147.5t98 -266.5q0 -212 -130.5 -327t-352.5 -115q-212 0 -357 110.5t-186 311.5zM389 -483l90 377h312l-267 -377h-135z" />
    <glyph glyph-name="scommaaccent" unicode="&#x219;" 
d="M201 293l229 80q29 -91 84.5 -131.5t149.5 -40.5q74 0 122 27.5t48 70.5q0 41 -47.5 67t-170.5 52q-348 77 -348 332q0 86 52.5 155.5t136 106.5t178.5 37q276 0 403 -232l-182 -127q-74 141 -219 141q-55 0 -94 -25t-39 -63q0 -42 39.5 -67.5t146.5 -48.5
q197 -38 288 -110t91 -202q0 -155 -119 -243q-116 -88 -295 -88q-347 0 -454 309zM393 -483l90 377h312l-267 -377h-135z" />
    <glyph glyph-name="uni021A" unicode="&#x21a;" 
d="M502 0v1188h-404v246h1073v-246h-403v-1188h-266zM389 -483l90 377h312l-267 -377h-135z" />
    <glyph glyph-name="uni021B" unicode="&#x21b;" 
d="M371 416v399h-254v217h254v258l254 160v-418h448v-217h-448v-405q0 -103 43.5 -156t126.5 -53q108 0 211 121l86 -205q-133 -133 -297 -133q-208 0 -316 109t-108 323zM473 -483l90 377h311l-266 -377h-135z" />
    <glyph glyph-name="uni0237" unicode="&#x237;" 
d="M418 -434l-62 223q126 32 183 101.5t57 211.5v713h-365v217h619v-975q0 -205 -129 -325q-129 -123 -303 -166z" />
    <glyph glyph-name="circumflex" unicode="&#x2c6;" 
d="M250 1147l350 356h70l350 -356h-250l-135 141l-135 -141h-250z" />
    <glyph glyph-name="caron" unicode="&#x2c7;" 
d="M600 1147l-350 356h250l135 -141l135 141h250l-350 -356h-70z" />
    <glyph glyph-name="uni02C9" unicode="&#x2c9;" 
d="M360 1217v200h549v-200h-549z" />
    <glyph glyph-name="breve" unicode="&#x2d8;" 
d="M393 1434h187q0 -25 15.5 -41.5t39.5 -16.5t39.5 16.5t15.5 41.5h187q0 -94 -67.5 -159t-174.5 -65t-174.5 65t-67.5 159z" />
    <glyph glyph-name="dotaccent" unicode="&#x2d9;" 
d="M471 1286q0 69 47.5 116.5t116.5 47.5t116.5 -47.5t47.5 -116.5t-47.5 -116.5t-116.5 -47.5t-116.5 47.5t-47.5 116.5z" />
    <glyph glyph-name="ring" unicode="&#x2da;" 
d="M424 1341q0 91 59.5 150t151.5 59t151.5 -59t59.5 -150t-59.5 -149.5t-151.5 -58.5t-151.5 58.5t-59.5 149.5zM696 1341q0 30 -16 48t-45 18t-45.5 -18t-16.5 -48t16.5 -47.5t45.5 -17.5t45 17.5t16 47.5z" />
    <glyph glyph-name="ogonek" unicode="&#x2db;" 
d="M469 -195q0 56 32.5 109t84.5 86h176q-119 -94 -119 -160q0 -53 53 -53q31 0 64 20l41 -155q-60 -31 -133 -31q-91 0 -145 49t-54 135z" />
    <glyph glyph-name="tilde" unicode="&#x2dc;" 
d="M612 1217q-42 21 -63 28.5t-49 7.5q-73 0 -131 -82l-133 107q35 80 104 129t147 49q47 0 81 -11t79 -36q30 -15 43.5 -21t31.5 -11t38 -5q67 0 131 88l133 -112q-35 -80 -104.5 -129.5t-147.5 -49.5q-46 0 -80 11t-80 37z" />
    <glyph glyph-name="hungarumlaut" unicode="&#x2dd;" 
d="M190 1147l132 303h344l-283 -303h-193zM606 1147l131 303h344l-282 -303h-193z" />
    <glyph glyph-name="gravecomb" unicode="&#x300;" horiz-adv-x="0" 
d="M-592 1147l-280 303h344l131 -303h-195z" />
    <glyph glyph-name="acutecomb" unicode="&#x301;" horiz-adv-x="0" 
d="M-872 1147l131 303h344l-281 -303h-194z" />
    <glyph glyph-name="uni0302" unicode="&#x302;" horiz-adv-x="0" 
d="M-1020 1147l350 356h70l350 -356h-250l-135 141l-135 -141h-250z" />
    <glyph glyph-name="tildecomb" unicode="&#x303;" horiz-adv-x="0" 
d="M-657 1217q-41 21 -62.5 28.5t-50.5 7.5q-73 0 -131 -82l-133 107q35 80 104.5 129t147.5 49q46 0 80 -11t79 -36q30 -15 43.5 -21t31.5 -11t38 -5q67 0 131 88l133 -112q-35 -80 -104.5 -129.5t-147.5 -49.5q-46 0 -79.5 11t-79.5 37z" />
    <glyph glyph-name="uni0304" unicode="&#x304;" horiz-adv-x="0" 
d="M-909 1217v200h549v-200h-549z" />
    <glyph glyph-name="uni0306" unicode="&#x306;" horiz-adv-x="0" 
d="M-877 1434h187q0 -25 15.5 -41.5t39.5 -16.5t39.5 16.5t15.5 41.5h187q0 -94 -67.5 -159t-174.5 -65t-174.5 65t-67.5 159z" />
    <glyph glyph-name="uni0307" unicode="&#x307;" horiz-adv-x="0" 
d="M-799 1286q0 69 47.5 116.5t116.5 47.5t116.5 -47.5t47.5 -116.5t-47.5 -116.5t-116.5 -47.5t-116.5 47.5t-47.5 116.5z" />
    <glyph glyph-name="uni0308" unicode="&#x308;" horiz-adv-x="0" 
d="M-991 1325q0 63 41 104t104 41t104.5 -41t41.5 -104t-41.5 -104t-104.5 -41t-104 41t-41 104zM-569 1325q0 63 41 104t104 41t104 -41t41 -104t-41 -104t-104 -41t-104 41t-41 104z" />
    <glyph glyph-name="uni030A" unicode="&#x30a;" horiz-adv-x="0" 
d="M-846 1341q0 91 59.5 150t151.5 59t151.5 -59t59.5 -150t-59.5 -149.5t-151.5 -58.5t-151.5 58.5t-59.5 149.5zM-573 1341q0 30 -16.5 48t-45.5 18t-45 -18t-16 -48t16 -47.5t45 -17.5t45.5 17.5t16.5 47.5z" />
    <glyph glyph-name="uni030B" unicode="&#x30b;" horiz-adv-x="0" 
d="M-1104 1147l131 303h344l-282 -303h-193zM-688 1147l131 303h344l-283 -303h-192z" />
    <glyph glyph-name="uni030C" unicode="&#x30c;" horiz-adv-x="0" 
d="M-670 1147l-350 356h250l135 -141l135 141h250l-350 -356h-70z" />
    <glyph glyph-name="uni0312" unicode="&#x312;" horiz-adv-x="0" 
d="M-819 1200l203 344h163l-88 -344h-278z" />
    <glyph glyph-name="uni0326" unicode="&#x326;" horiz-adv-x="0" 
d="M-836 -483l91 377h311l-266 -377h-136z" />
    <glyph glyph-name="uni0327" unicode="&#x327;" horiz-adv-x="0" 
d="M-567 -545l-303 135l288 287h185z" />
    <glyph glyph-name="uni0328" unicode="&#x328;" horiz-adv-x="0" 
d="M-801 -195q0 56 32.5 109t84.5 86h176q-119 -94 -119 -160q0 -53 54 -53q30 0 63 20l41 -155q-60 -31 -133 -31q-91 0 -145 49t-54 135z" />
    <glyph glyph-name="uni0335" unicode="&#x335;" horiz-adv-x="0" 
d="M-948 623v188h629v-188h-629z" />
    <glyph glyph-name="uni0336" unicode="&#x336;" horiz-adv-x="0" 
d="M-1217 606v221h1164v-221h-1164z" />
    <glyph glyph-name="uni0337" unicode="&#x337;" horiz-adv-x="0" 
d="M-862 494l-109 194l563 307l109 -194z" />
    <glyph glyph-name="uni0338" unicode="&#x338;" horiz-adv-x="0" 
d="M-997 -123l-177 129l902 1149l176 -129z" />
    <glyph glyph-name="uni037E" unicode="&#x37e;" 
d="M338 -319l154 618h342l-318 -618h-178zM453 866q0 78 52 130.5t130 52.5t130 -52.5t52 -130.5t-52 -130t-130 -52t-130 52t-52 130z" />
    <glyph glyph-name="tonos" unicode="&#x384;" 
d="M397 1147l86 303h336l-229 -303h-193z" />
    <glyph glyph-name="dieresistonos" unicode="&#x385;" 
d="M475 1147l86 303h275l-209 -303h-152zM219 1290q0 48 32 81.5t79 33.5q49 0 81.5 -32.5t32.5 -82.5q0 -47 -32.5 -78.5t-81.5 -31.5q-47 0 -79 31.5t-32 78.5zM827 1290q0 47 33 81t78 34q49 0 82 -33.5t33 -81.5q0 -47 -33 -78.5t-82 -31.5q-44 0 -77.5 33t-33.5 77z
" />
    <glyph glyph-name="Alphatonos" unicode="&#x386;" 
d="M-4 1130l110 304h304l-220 -304h-194zM39 0l450 1434h291l451 -1434h-275l-100 334h-442l-101 -334h-274zM487 580h295l-147 495z" />
    <glyph glyph-name="anoteleia" unicode="&#x387;" 
d="M453 717q0 78 52 130t130 52t130 -52t52 -130t-52 -130t-130 -52t-130 52t-52 130z" />
    <glyph glyph-name="Epsilontonos" unicode="&#x388;" 
d="M10 1130l111 304h303l-219 -304h-195zM473 0v1434h684v-246h-418v-301h316v-246h-316v-395h439v-246h-705z" />
    <glyph glyph-name="Etatonos" unicode="&#x389;" 
d="M-49 1130l110 304h304l-220 -304h-194zM401 0v1434h267v-549h295v549h266v-1434h-266v639h-295v-639h-267z" />
    <glyph glyph-name="Iotatonos" unicode="&#x38a;" 
d="M37 1130l110 304h304l-220 -304h-194zM502 0v246h221v942h-221v246h708v-246h-221v-942h221v-246h-708z" />
    <glyph glyph-name="Omicrontonos" unicode="&#x38c;" 
d="M238 717q0 175 38 315.5t105 231t157 138.5t195 48t195 -48t157.5 -138.5t105.5 -231t38 -315.5t-38 -315.5t-105.5 -231t-157.5 -138.5t-195 -48t-195 48t-157 138.5t-105 231t-38 315.5zM-8 1130l110 304h304l-220 -304h-194zM963 717q0 242 -63 364.5t-167 122.5
q-103 0 -166 -122.5t-63 -364.5t63 -365t166 -123t166.5 123t63.5 365z" />
    <glyph glyph-name="Upsilontonos" unicode="&#x38e;" 
d="M-59 1130l110 304h303l-219 -304h-194zM696 0v487l-305 947h279l149 -584l150 584h278l-305 -947v-487h-246z" />
    <glyph glyph-name="Omegatonos" unicode="&#x38f;" 
d="M242 0v225h190q-211 292 -211 631q0 276 135.5 435t388.5 159t389 -159.5t136 -434.5q0 -339 -211 -631h190v-225h-465v225q99 96 158 264q57 165 57 342q0 373 -254 373q-253 0 -253 -373q0 -177 57 -342q59 -168 158 -264v-225h-465zM-37 1130l111 304h303l-219 -304
h-195z" />
    <glyph glyph-name="iotadieresistonos" unicode="&#x390;" 
d="M188 0v217h320v598h-268v217h522v-815h319v-217h-893zM461 1147l86 303h274l-209 -303h-151zM205 1290q0 48 31.5 81.5t78.5 33.5q49 0 82 -32.5t33 -82.5q0 -47 -33 -78.5t-82 -31.5q-47 0 -78.5 31.5t-31.5 78.5zM813 1290q0 47 33 81t78 34q49 0 81.5 -33.5
t32.5 -81.5q0 -47 -32.5 -78.5t-81.5 -31.5q-44 0 -77.5 33t-33.5 77z" />
    <glyph glyph-name="Alpha" unicode="&#x391;" 
d="M39 0l450 1434h291l451 -1434h-275l-100 334h-442l-101 -334h-274zM487 580h295l-147 495z" />
    <glyph glyph-name="Beta" unicode="&#x392;" 
d="M197 0v1434h483q192 0 301 -99.5t109 -287.5q0 -88 -37.5 -159t-104.5 -106q215 -89 215 -350q0 -206 -125 -319t-348 -113h-493zM463 877h203q87 0 127.5 36t40.5 119t-42.5 119.5t-132.5 36.5h-196v-311zM463 246h203q119 0 175 48t56 144q0 193 -231 193h-203v-385z
" />
    <glyph glyph-name="Gamma" unicode="&#x393;" 
d="M242 0v1434h874v-246h-608v-1188h-266z" />
    <glyph glyph-name="uni0394" unicode="&#x394;" 
d="M780 1434l451 -1434h-1192l450 1434h291zM387 246h496l-248 829z" />
    <glyph glyph-name="Epsilon" unicode="&#x395;" 
d="M186 0v1434h910v-246h-643v-301h540v-246h-540v-395h663v-246h-930z" />
    <glyph glyph-name="Zeta" unicode="&#x396;" 
d="M150 0v123l614 1065h-586v246h934v-123l-614 -1065h637v-246h-985z" />
    <glyph glyph-name="Eta" unicode="&#x397;" 
d="M139 0v1434h267v-549h458v549h266v-1434h-266v639h-458v-639h-267z" />
    <glyph glyph-name="Theta" unicode="&#x398;" 
d="M78 717q0 176 42 316t117 230.5t176.5 138.5t221.5 48t221.5 -48t176.5 -138.5t117 -230.5t42 -316t-42 -316t-117 -230.5t-176.5 -138.5t-221.5 -48t-221.5 48t-176.5 138.5t-117 230.5t-42 316zM926 717q0 245 -78 366t-213 121t-213 -121t-78 -366t78 -366.5
t213 -121.5t213 121.5t78 366.5zM420 604v225h428v-225h-428z" />
    <glyph glyph-name="Iota" unicode="&#x399;" 
d="M199 0v246h303v942h-303v246h872v-246h-303v-942h303v-246h-872z" />
    <glyph glyph-name="Kappa" unicode="&#x39a;" 
d="M117 0v1434h266v-535l412 535h321l-502 -639l539 -795h-324l-446 680v-680h-266z" />
    <glyph glyph-name="Lambda" unicode="&#x39b;" 
d="M635 1075l-322 -1075h-274l450 1434h291l451 -1434h-275z" />
    <glyph glyph-name="Mu" unicode="&#x39c;" 
d="M90 0v1434h252l293 -713l293 713h252v-1434h-240v887l-238 -516h-135l-237 516v-887h-240z" />
    <glyph glyph-name="Nu" unicode="&#x39d;" 
d="M145 0v1434h246l486 -922v922h245v-1434h-245l-486 918v-918h-246z" />
    <glyph glyph-name="Xi" unicode="&#x39e;" 
d="M178 1188v246h914v-246h-914zM289 641v246h692v-246h-692zM158 0v246h954v-246h-954z" />
    <glyph glyph-name="Omicron" unicode="&#x39f;" 
d="M78 717q0 176 42 316t117 230.5t176.5 138.5t221.5 48t221.5 -48t176.5 -138.5t117 -230.5t42 -316t-42 -316t-117 -230.5t-176.5 -138.5t-221.5 -48t-221.5 48t-176.5 138.5t-117 230.5t-42 316zM926 717q0 245 -78 366t-213 121t-213 -121t-78 -366t78 -366.5
t213 -121.5t213 121.5t78 366.5z" />
    <glyph glyph-name="Pi" unicode="&#x3a0;" 
d="M115 0v1434h1040v-1434h-266v1188h-508v-1188h-266z" />
    <glyph glyph-name="Rho" unicode="&#x3a1;" 
d="M203 0v1434h520q215 0 331.5 -118t116.5 -319t-116.5 -318.5t-331.5 -117.5h-254v-561h-266zM469 807h244q188 0 188 190q0 191 -188 191h-244v-381z" />
    <glyph glyph-name="Sigma" unicode="&#x3a3;" 
d="M166 0v123l381 594l-381 594v123h921v-246h-546l276 -443v-57l-276 -442h563v-246h-938z" />
    <glyph glyph-name="Tau" unicode="&#x3a4;" 
d="M502 0v1188h-404v246h1073v-246h-403v-1188h-266z" />
    <glyph glyph-name="Upsilon" unicode="&#x3a5;" 
d="M512 0v528l-455 906h287l291 -621l291 621h286l-454 -906v-528h-246z" />
    <glyph glyph-name="Phi" unicode="&#x3a6;" 
d="M502 0v152q-86 -2 -172 39t-154.5 113t-110.5 181t-40 232q-2 123 40 231.5t110.5 180.5t154.5 113.5t172 39.5v152h266v-152q86 2 172 -39.5t154.5 -113.5t110.5 -180.5t40 -231.5q2 -123 -40 -232t-110.5 -181t-154.5 -113t-172 -39v-152h-266zM502 397v639
q-88 0 -147.5 -81t-59.5 -238t59.5 -238.5t147.5 -81.5zM975 717q0 157 -59.5 238t-147.5 81v-639q88 0 147.5 81.5t59.5 238.5z" />
    <glyph glyph-name="Chi" unicode="&#x3a7;" 
d="M59 0l424 770l-360 664h287l225 -439l225 439h287l-361 -664l424 -770h-286l-289 545l-289 -545h-287z" />
    <glyph glyph-name="Psi" unicode="&#x3a8;" 
d="M502 0v373q-200 3 -324 127q-123 126 -123 340v594h267v-590q0 -214 180 -226v816h266v-816q180 12 180 226v590h266v-594q0 -215 -122 -340q-124 -124 -324 -127v-373h-266z" />
    <glyph glyph-name="uni03A9" unicode="&#x3a9;" 
d="M131 0v225h191q-211 292 -211 631q0 276 135.5 435t388.5 159t388.5 -159t135.5 -435q0 -339 -211 -631h191v-225h-465v225q97 95 157 264q58 168 58 342q0 373 -254 373t-254 -373q0 -177 57 -342q59 -168 158 -264v-225h-465z" />
    <glyph glyph-name="Iotadieresis" unicode="&#x3aa;" 
d="M199 0v246h303v942h-303v246h872v-246h-303v-942h303v-246h-872zM279 1726q0 63 41 104.5t104 41.5t104 -41.5t41 -104.5t-41 -104t-104 -41t-104 41t-41 104zM700 1726q0 63 41.5 104.5t104.5 41.5t104 -41.5t41 -104.5t-41 -104t-104 -41t-104.5 41t-41.5 104z" />
    <glyph glyph-name="Upsilondieresis" unicode="&#x3ab;" 
d="M512 0v528l-455 906h287l291 -621l291 621h286l-454 -906v-528h-246zM279 1726q0 63 41 104.5t104 41.5t104 -41.5t41 -104.5t-41 -104t-104 -41t-104 41t-41 104zM700 1726q0 63 41.5 104.5t104.5 41.5t104 -41.5t41 -104.5t-41 -104t-104 -41t-104.5 41t-41.5 104z" />
    <glyph glyph-name="alphatonos" unicode="&#x3ac;" 
d="M147 516q0 248 123 390.5t348 142.5q76 0 144 -31t106 -80v94h254v-1032h-254v106q-27 -48 -97 -85t-153 -37q-225 0 -348 142.5t-123 389.5zM891 516q0 147 -66 231t-172 84t-172.5 -84.5t-66.5 -230.5q0 -145 66.5 -230t172.5 -85t172 84t66 231zM537 1147l86 303h335
l-229 -303h-192z" />
    <glyph glyph-name="epsilontonos" unicode="&#x3ad;" 
d="M254 309q0 88 44 150t122 94q-119 76 -119 223q0 119 90 196t246 77q142 0 229 -65t113 -177l-211 -51q-14 50 -44 73t-83 23q-56 0 -89.5 -30.5t-33.5 -78.5q0 -54 41.5 -85t114.5 -31h53v-172h-59q-79 0 -125.5 -35t-46.5 -96q0 -57 39 -92t102 -35q61 0 101.5 35.5
t47.5 97.5l228 -31q-12 -140 -116 -227.5t-261 -87.5q-172 0 -277.5 89t-105.5 236zM520 1147l86 303h336l-229 -303h-193z" />
    <glyph glyph-name="etatonos" unicode="&#x3ae;" 
d="M180 0v1032h254v-166q57 82 150 132.5t190 50.5q146 0 232 -81.5t86 -230.5v-1155h-254v1080q0 83 -41 125t-107 42q-110 0 -183 -114t-73 -303v-412h-254zM655 1147l86 303h336l-229 -303h-193z" />
    <glyph glyph-name="iotatonos" unicode="&#x3af;" 
d="M188 0v217h320v598h-268v217h522v-815h319v-217h-893zM508 1147l86 303h336l-230 -303h-192z" />
    <glyph glyph-name="upsilondieresistonos" unicode="&#x3b0;" 
d="M188 451v581h254v-614q0 -107 51.5 -162t141.5 -55t141 54.5t51 162.5v614h254v-581q0 -227 -113 -347t-333 -120t-333.5 120t-113.5 347zM473 1147l86 303h275l-209 -303h-152zM217 1290q0 48 32 81.5t79 33.5q49 0 81.5 -32.5t32.5 -82.5q0 -47 -32.5 -78.5
t-81.5 -31.5q-47 0 -79 31.5t-32 78.5zM825 1290q0 47 33 81t78 34q49 0 82 -33.5t33 -81.5q0 -47 -33 -78.5t-82 -31.5q-44 0 -77.5 33t-33.5 77z" />
    <glyph glyph-name="alpha" unicode="&#x3b1;" 
d="M147 516q0 248 123 390.5t348 142.5q76 0 144 -31t106 -80v94h254v-1032h-254v106q-27 -48 -97 -85t-153 -37q-225 0 -348 142.5t-123 389.5zM891 516q0 147 -66 231t-172 84t-172.5 -84.5t-66.5 -230.5q0 -145 66.5 -230t172.5 -85t172 84t66 231z" />
    <glyph glyph-name="beta" unicode="&#x3b2;" 
d="M176 -418v1422q0 212 115.5 329t296.5 117q184 0 286.5 -97.5t102.5 -265.5q0 -95 -46.5 -168t-117.5 -98q122 -33 200.5 -136.5t78.5 -248.5q0 -218 -110.5 -335t-305.5 -117q-83 0 -150.5 30.5t-103.5 81.5v-514h-246zM846 434q0 109 -66.5 171.5t-179.5 62.5h-68v229
h41q81 0 126.5 42.5t45.5 125.5q0 79 -41.5 123.5t-115.5 44.5q-79 0 -122.5 -49t-43.5 -144v-602q0 -109 56 -171t153 -62q104 0 159.5 61t55.5 168z" />
    <glyph glyph-name="gamma" unicode="&#x3b3;" 
d="M504 -418v455l-334 995h256l209 -719l209 719h256l-342 -995v-455h-254z" />
    <glyph glyph-name="delta" unicode="&#x3b4;" 
d="M111 516q-2 104 33.5 199.5t95 163t135.5 110t153 47.5l-278 205v193h784v-217h-409l313 -252q221 -182 221 -449q0 -152 -62 -272t-182.5 -190t-279.5 -70t-279.5 70t-182.5 190t-62 272zM893 516q0 135 -70 223q-71 92 -188 92q-118 0 -189 -92q-69 -87 -69 -223
q0 -135 69 -225q72 -90 189 -90q116 0 188 90q70 91 70 225z" />
    <glyph glyph-name="epsilon" unicode="&#x3b5;" 
d="M254 309q0 88 44 150t122 94q-119 76 -119 223q0 119 90 196t246 77q142 0 229 -65t113 -177l-211 -51q-14 50 -44 73t-83 23q-56 0 -89.5 -30.5t-33.5 -78.5q0 -54 41.5 -85t114.5 -31h53v-172h-59q-79 0 -125.5 -35t-46.5 -96q0 -57 39 -92t102 -35q61 0 101.5 35.5
t47.5 97.5l228 -31q-12 -140 -116 -227.5t-261 -87.5q-172 0 -277.5 89t-105.5 236z" />
    <glyph glyph-name="zeta" unicode="&#x3b6;" 
d="M387 -340l127 195q70 -76 186 -76q64 0 102 30.5t38 88.5q0 125 -176 125h-86q-189 0 -298.5 109t-109.5 298q0 126 56 229.5t180 227.5l325 330h-504v217h828v-201l-461 -477q-94 -95 -132 -163.5t-38 -150.5q0 -96 58.5 -151t154.5 -55h76q180 0 282.5 -90.5
t102.5 -251.5q0 -148 -108 -238t-290 -90q-200 0 -313 94z" />
    <glyph glyph-name="eta" unicode="&#x3b7;" 
d="M180 0v1032h254v-166q57 82 150 132.5t190 50.5q146 0 232 -81.5t86 -230.5v-1155h-254v1080q0 83 -41 125t-107 42q-110 0 -183 -114t-73 -303v-412h-254z" />
    <glyph glyph-name="theta" unicode="&#x3b8;" 
d="M1192 717q0 -176 -42 -316t-117 -230.5t-176.5 -138.5t-221.5 -48t-221.5 48t-176.5 138.5t-117 230.5t-42 316t42 316t117 230.5t176.5 138.5t221.5 48t221.5 -48t176.5 -138.5t117 -230.5t42 -316zM348 825h574q-17 191 -92 285t-195 94t-195 -94t-92 -285zM922 608
h-574q17 -191 92 -285t195 -94t195 94t92 285z" />
    <glyph glyph-name="iota" unicode="&#x3b9;" 
d="M188 0v217h320v598h-268v217h522v-815h319v-217h-893z" />
    <glyph glyph-name="kappa" unicode="&#x3ba;" 
d="M162 0v1032h254v-383l338 383h307l-440 -473l487 -559h-307l-385 469v-469h-254z" />
    <glyph glyph-name="lambda" unicode="&#x3bb;" 
d="M522 903l-231 547h254l612 -1450h-266l-246 612l-266 -612h-266z" />
    <glyph glyph-name="uni03BC" unicode="&#x3bc;" 
d="M190 -418v1450h254v-661q0 -85 39 -127.5t109 -42.5q98 0 166.5 114.5t68.5 305.5v411h254v-1032h-254v166q-89 -182 -249 -182q-90 0 -134 47v-449h-254z" />
    <glyph glyph-name="nu" unicode="&#x3bd;" 
d="M549 0l-432 1032h256l262 -674l262 674h256l-432 -1032h-172z" />
    <glyph glyph-name="xi" unicode="&#x3be;" 
d="M362 -340l127 195q85 -76 187 -76q64 0 101.5 30.5t37.5 88.5q0 125 -176 125h-21q-193 0 -317.5 107.5t-124.5 291.5q0 127 63.5 219.5t163.5 140.5q-84 45 -131 118.5t-47 168.5q0 159 126.5 270t318.5 111q170 0 285 -84t139 -240l-230 -65q-13 80 -66 126t-128 46
q-79 0 -128.5 -47.5t-49.5 -122.5q0 -79 51 -126.5t143 -47.5h156v-209h-166q-107 0 -170.5 -60t-63.5 -167q0 -99 64 -158t170 -59h35q362 0 362 -334q0 -150 -109 -243t-288 -93q-201 0 -314 94z" />
    <glyph glyph-name="omicron" unicode="&#x3bf;" 
d="M127 516q0 109 36.5 206.5t102 170t161 114.5t208.5 42t208.5 -42t161 -114.5t102 -170t36.5 -206.5q0 -147 -62 -267.5t-179 -192.5t-267 -72t-267 72t-179 192.5t-62 267.5zM897 516q0 132 -70 223q-68 92 -192 92t-195 -92q-67 -91 -67 -223t67 -223q71 -92 195 -92
t192 92q70 91 70 223z" />
    <glyph glyph-name="pi" unicode="&#x3c0;" 
d="M225 0v815h-180v217h1180v-217h-181v-815h-253v815h-312v-815h-254z" />
    <glyph glyph-name="rho" unicode="&#x3c1;" 
d="M147 -418v936q0 242 136 387q135 144 368 144q225 0 348 -142.5t123 -390.5q0 -247 -123 -389.5t-348 -142.5q-73 0 -143 32t-107 78v-512h-254zM856 516q0 148 -61.5 231.5t-165.5 83.5t-166 -83.5t-62 -231.5t62 -231.5t166 -83.5t165.5 83.5t61.5 231.5z" />
    <glyph glyph-name="uni03C2" unicode="&#x3c2;" 
d="M1079 -106q0 -152 -110.5 -240t-286.5 -88q-200 0 -313 94l127 195q70 -76 186 -76q61 0 100 27.5t39 80.5q0 55 -37.5 86t-103.5 31h-27q-233 0 -368 143t-135 369q0 113 33 209.5t95 169t158.5 113.5t216.5 41q173 0 292.5 -75t176.5 -220l-227 -92q-42 86 -100 127.5
t-142 41.5q-105 0 -171 -79t-66 -211q0 -154 83.5 -237t217.5 -83h45q143 0 230 -85.5t87 -241.5z" />
    <glyph glyph-name="sigma" unicode="&#x3c3;" 
d="M1165 1032v-217h-125q80 -136 80 -299q0 -147 -62 -267.5t-179 -192.5t-267 -72t-267 72t-179 192.5t-62 267.5q0 109 36.5 206.5t102 170t161 114.5t208.5 42q63 0 136 -17h417zM874 516q0 133 -69 223q-68 92 -193 92q-123 0 -194 -92q-68 -92 -68 -223t68 -223
q71 -92 194 -92q125 0 193 92q69 90 69 223z" />
    <glyph glyph-name="tau" unicode="&#x3c4;" 
d="M508 0v815h-318v217h889v-217h-317v-815h-254z" />
    <glyph glyph-name="upsilon" unicode="&#x3c5;" 
d="M188 451v581h254v-614q0 -107 51.5 -162t141.5 -55t141 54.5t51 162.5v614h254v-581q0 -227 -113 -347t-333 -120t-333.5 120t-113.5 347z" />
    <glyph glyph-name="phi" unicode="&#x3c6;" 
d="M508 -418v402q-199 6 -327 155t-128 377q0 223 126 367.5t329 163.5v251h254v-251q203 -19 329 -163.5t126 -367.5q0 -228 -128 -377t-327 -155v-402h-254zM508 201v630q-87 -17 -138 -100t-51 -215t51 -215t138 -100zM950 516q0 132 -50.5 215t-137.5 100v-630
q87 17 137.5 100t50.5 215z" />
    <glyph glyph-name="chi" unicode="&#x3c7;" 
d="M158 0l342 551l-299 481h266l168 -268l168 268h266l-299 -481l342 -551h-266l-211 336l-211 -336h-266z" />
    <glyph glyph-name="psi" unicode="&#x3c8;" 
d="M508 -418v402q-214 0 -334.5 123t-120.5 344v581h254v-594q0 -115 52 -176t149 -61v1077h254v-1077q97 0 149 61t52 176v594h254v-581q0 -221 -120.5 -344t-334.5 -123v-402h-254z" />
    <glyph glyph-name="omega" unicode="&#x3c9;" 
d="M35 412q0 175 56.5 330t170.5 307l209 -146q-82 -121 -126 -254t-44 -258q0 -190 98 -190q101 0 101 190v375h270v-375q0 -190 100 -190q99 0 99 190q0 125 -44 258t-126 254l209 146q114 -152 170.5 -307t56.5 -330q0 -207 -86.5 -317.5t-235.5 -110.5q-225 0 -278 219
q-53 -219 -279 -219q-149 0 -235 110.5t-86 317.5z" />
    <glyph glyph-name="iotadieresis" unicode="&#x3ca;" 
d="M188 0v217h320v598h-268v217h522v-815h319v-217h-893zM266 1325q0 63 41.5 104t104.5 41t104 -41t41 -104t-41 -104t-104 -41t-104.5 41t-41.5 104zM688 1325q0 63 41.5 104t104.5 41t104 -41t41 -104t-41 -104t-104 -41t-104.5 41t-41.5 104z" />
    <glyph glyph-name="upsilondieresis" unicode="&#x3cb;" 
d="M188 451v581h254v-614q0 -107 51.5 -162t141.5 -55t141 54.5t51 162.5v614h254v-581q0 -227 -113 -347t-333 -120t-333.5 120t-113.5 347zM279 1325q0 63 41 104t104 41t104 -41t41 -104t-41 -104t-104 -41t-104 41t-41 104zM700 1325q0 63 41.5 104t104.5 41t104 -41
t41 -104t-41 -104t-104 -41t-104.5 41t-41.5 104z" />
    <glyph glyph-name="omicrontonos" unicode="&#x3cc;" 
d="M127 516q0 109 36.5 206.5t102 170t161 114.5t208.5 42t208.5 -42t161 -114.5t102 -170t36.5 -206.5q0 -147 -62 -267.5t-179 -192.5t-267 -72t-267 72t-179 192.5t-62 267.5zM897 516q0 132 -70 223q-68 92 -192 92t-195 -92q-67 -91 -67 -223t67 -223q71 -92 195 -92
t192 92q70 91 70 223zM520 1147l86 303h336l-229 -303h-193z" />
    <glyph glyph-name="upsilontonos" unicode="&#x3cd;" 
d="M188 451v581h254v-614q0 -107 51.5 -162t141.5 -55t141 54.5t51 162.5v614h254v-581q0 -227 -113 -347t-333 -120t-333.5 120t-113.5 347zM520 1147l86 303h336l-229 -303h-193z" />
    <glyph glyph-name="omegatonos" unicode="&#x3ce;" 
d="M35 412q0 175 56.5 330t170.5 307l209 -146q-82 -121 -126 -254t-44 -258q0 -190 98 -190q101 0 101 190v375h270v-375q0 -190 100 -190q99 0 99 190q0 125 -44 258t-126 254l209 146q114 -152 170.5 -307t56.5 -330q0 -207 -86.5 -317.5t-235.5 -110.5q-225 0 -278 219
q-53 -219 -279 -219q-149 0 -235 110.5t-86 317.5zM520 1147l86 303h336l-229 -303h-193z" />
    <glyph glyph-name="uni0400" unicode="&#x400;" 
d="M186 0v1434h910v-246h-643v-301h540v-246h-540v-395h663v-246h-930zM551 1548l-281 303h344l131 -303h-194z" />
    <glyph glyph-name="uni0401" unicode="&#x401;" 
d="M186 0v1434h910v-246h-643v-301h540v-246h-540v-395h663v-246h-930zM291 1726q0 63 41 104.5t104 41.5t104.5 -41.5t41.5 -104.5t-41.5 -104t-104.5 -41t-104 41t-41 104zM713 1726q0 63 41 104.5t104 41.5t104.5 -41.5t41.5 -104.5t-41.5 -104t-104.5 -41t-104 41
t-41 104z" />
    <glyph glyph-name="uni0402" unicode="&#x402;" 
d="M776 -16l-61 223q126 32 182.5 99t56.5 200v141q0 94 -37.5 139t-115.5 45q-100 0 -171 -103t-71 -292v-436h-266v1188h-254v246h917v-246h-397v-322q52 84 138.5 133.5t189.5 49.5q151 0 236 -80t85 -232v-200q0 -239 -104 -370t-328 -183z" />
    <glyph glyph-name="uni0403" unicode="&#x403;" 
d="M242 0v1434h874v-246h-608v-1188h-266zM578 1548l131 303h344l-281 -303h-194z" />
    <glyph glyph-name="uni0404" unicode="&#x404;" 
d="M84 717q0 177 45 317.5t124.5 230.5t186 137.5t232.5 47.5q214 0 355.5 -114t203.5 -318l-252 -78q-65 264 -307 264q-276 0 -316 -364h516v-246h-516q40 -365 316 -365q242 0 307 265l252 -78q-62 -204 -203.5 -318t-355.5 -114q-126 0 -232.5 47.5t-186 137.5
t-124.5 230.5t-45 317.5z" />
    <glyph glyph-name="uni0405" unicode="&#x405;" 
d="M104 406l236 88q26 -123 103.5 -194t211.5 -71q98 0 153.5 48.5t55.5 138.5q-2 24 -6 42t-13.5 35t-18 28t-29.5 24.5t-39 22.5t-54 22.5t-67 24t-86 28.5q-181 58 -267.5 156.5t-86.5 255.5q0 177 124.5 286t327.5 109q172 0 286 -82.5t163 -224.5l-215 -109
q-31 85 -92 127.5t-142 42.5q-80 0 -133 -41.5t-53 -113.5q0 -80 60 -125t212 -84q199 -52 297 -147.5t98 -266.5q0 -212 -130.5 -327t-352.5 -115q-212 0 -357 110.5t-186 311.5z" />
    <glyph glyph-name="uni0406" unicode="&#x406;" 
d="M199 0v246h303v942h-303v246h872v-246h-303v-942h303v-246h-872z" />
    <glyph glyph-name="uni0407" unicode="&#x407;" 
d="M199 0v246h303v942h-303v246h872v-246h-303v-942h303v-246h-872zM279 1726q0 63 41 104.5t104 41.5t104 -41.5t41 -104.5t-41 -104t-104 -41t-104 41t-41 104zM700 1726q0 63 41.5 104.5t104.5 41.5t104 -41.5t41 -104.5t-41 -104t-104 -41t-104.5 41t-41.5 104z" />
    <glyph glyph-name="uni0408" unicode="&#x408;" 
d="M119 375l262 55q19 -94 74.5 -147.5t134.5 -53.5q94 0 142 58t48 188v959h267v-930q0 -272 -115 -396t-342 -124q-195 0 -322 106q-128 110 -149 285z" />
    <glyph glyph-name="uni0409" unicode="&#x409;" 
d="M-8 0v254q59 0 91 37t36 119l47 1024h631v-584h45q206 0 318 -111t112 -313t-112 -314t-318 -112h-312v1217h-112l-41 -828q-11 -200 -103 -294.5t-282 -94.5zM797 246h20q98 0 141 43t43 137q0 93 -43 135.5t-141 42.5h-20v-358z" />
    <glyph glyph-name="uni040A" unicode="&#x40a;" 
d="M31 0v1434h266v-545h184v545h267v-584h65q209 0 328 -113t119 -311t-119 -312t-328 -114h-332v643h-184v-643h-266zM748 246h40q201 0 201 180q0 178 -201 178h-40v-358z" />
    <glyph glyph-name="uni040B" unicode="&#x40b;" 
d="M293 0v1188h-254v246h917v-246h-397v-322q52 84 138.5 133.5t189.5 49.5q151 0 236 -80t85 -232v-737h-254v647q0 94 -37.5 139t-115.5 45q-100 0 -171 -103t-71 -292v-436h-266z" />
    <glyph glyph-name="uni040C" unicode="&#x40c;" 
d="M117 0v1434h266v-535l412 535h321l-502 -639l539 -795h-324l-446 680v-680h-266zM475 1548l131 303h344l-280 -303h-195z" />
    <glyph glyph-name="uni040D" unicode="&#x40d;" 
d="M1124 0h-245v918l-486 -918h-246v1434h246v-922l486 922h245v-1434zM539 1548l-281 303h344l131 -303h-194z" />
    <glyph glyph-name="uni040E" unicode="&#x40e;" 
d="M324 0l217 516l-449 918h268l297 -648l277 648h254l-619 -1434h-245zM406 1835h186q0 -25 15 -41t40 -16t40 16t15 41h187q0 -94 -67.5 -158.5t-174.5 -64.5t-174 64.5t-67 158.5z" />
    <glyph glyph-name="uni040F" unicode="&#x40f;" 
d="M502 -254v254h-334v1434h266v-1180h402v1180h266v-1434h-334v-254h-266z" />
    <glyph glyph-name="uni0410" unicode="&#x410;" 
d="M39 0l450 1434h291l451 -1434h-275l-100 334h-442l-101 -334h-274zM487 580h295l-147 495z" />
    <glyph glyph-name="uni0411" unicode="&#x411;" 
d="M197 0v1434h835v-246h-569v-311h248q224 0 348.5 -114.5t124.5 -324.5t-124.5 -324t-348.5 -114h-514zM463 246h223q232 0 232 192q0 193 -232 193h-223v-385z" />
    <glyph glyph-name="uni0412" unicode="&#x412;" 
d="M197 0v1434h483q192 0 301 -99.5t109 -287.5q0 -88 -37.5 -159t-104.5 -106q215 -89 215 -350q0 -206 -125 -319t-348 -113h-493zM463 877h203q87 0 127.5 36t40.5 119t-42.5 119.5t-132.5 36.5h-196v-311zM463 246h203q119 0 175 48t56 144q0 193 -231 193h-203v-385z
" />
    <glyph glyph-name="uni0413" unicode="&#x413;" 
d="M242 0v1434h874v-246h-608v-1188h-266z" />
    <glyph glyph-name="uni0414" unicode="&#x414;" 
d="M78 -254l-25 426h131l158 1262h776v-1262h131l-24 -426h-213v254h-701v-254h-233zM465 254h387v926h-277z" />
    <glyph glyph-name="uni0415" unicode="&#x415;" 
d="M186 0v1434h910v-246h-643v-301h540v-246h-540v-395h663v-246h-930z" />
    <glyph glyph-name="uni0416" unicode="&#x416;" 
d="M18 0l349 788l-312 646h267l194 -439v439h238v-439l194 439h266l-311 -646l348 -788h-266l-231 563v-563h-238v563l-231 -563h-267z" />
    <glyph glyph-name="uni0417" unicode="&#x417;" 
d="M139 369l250 88q17 -110 81.5 -173t158.5 -63q95 0 158 60t63 153q0 106 -76.5 161.5t-198.5 55.5h-69v221h57q116 0 181 49.5t65 141.5q0 71 -55 116.5t-138 45.5q-80 0 -132 -47.5t-70 -128.5l-226 45q23 163 138 259.5t290 96.5q202 0 318.5 -100.5t116.5 -266.5
q0 -102 -44 -175t-130 -130q107 -45 171 -136t64 -210q0 -195 -132.5 -321.5t-346.5 -126.5q-191 0 -325 103.5t-169 281.5z" />
    <glyph glyph-name="uni0418" unicode="&#x418;" 
d="M1124 0h-245v918l-486 -918h-246v1434h246v-922l486 922h245v-1434z" />
    <glyph glyph-name="uni0419" unicode="&#x419;" 
d="M1124 0h-245v918l-486 -918h-246v1434h246v-922l486 922h245v-1434zM393 1835h187q0 -25 15 -41t40 -16t40 16t15 41h187q0 -94 -67.5 -158.5t-174.5 -64.5t-174.5 64.5t-67.5 158.5z" />
    <glyph glyph-name="uni041A" unicode="&#x41a;" 
d="M117 0v1434h266v-535l412 535h321l-502 -639l539 -795h-324l-446 680v-680h-266z" />
    <glyph glyph-name="uni041B" unicode="&#x41b;" 
d="M37 0v254q43 0 68.5 2.5t51.5 11t39.5 25t23 45.5t11.5 72l76 1024h864v-1434h-266v1180h-358l-58 -791q-13 -199 -126 -294t-326 -95z" />
    <glyph glyph-name="uni041C" unicode="&#x41c;" 
d="M90 0v1434h252l293 -713l293 713h252v-1434h-240v887l-238 -516h-135l-237 516v-887h-240z" />
    <glyph glyph-name="uni041D" unicode="&#x41d;" 
d="M139 0v1434h267v-549h458v549h266v-1434h-266v639h-458v-639h-267z" />
    <glyph glyph-name="uni041E" unicode="&#x41e;" 
d="M78 717q0 176 42 316t117 230.5t176.5 138.5t221.5 48t221.5 -48t176.5 -138.5t117 -230.5t42 -316t-42 -316t-117 -230.5t-176.5 -138.5t-221.5 -48t-221.5 48t-176.5 138.5t-117 230.5t-42 316zM926 717q0 245 -78 366t-213 121t-213 -121t-78 -366t78 -366.5
t213 -121.5t213 121.5t78 366.5z" />
    <glyph glyph-name="uni041F" unicode="&#x41f;" 
d="M115 0v1434h1040v-1434h-266v1188h-508v-1188h-266z" />
    <glyph glyph-name="uni0420" unicode="&#x420;" 
d="M203 0v1434h520q215 0 331.5 -118t116.5 -319t-116.5 -318.5t-331.5 -117.5h-254v-561h-266zM469 807h244q188 0 188 190q0 191 -188 191h-244v-381z" />
    <glyph glyph-name="uni0421" unicode="&#x421;" 
d="M84 717q0 176 47.5 317t130.5 231t193 137.5t237 47.5q407 0 539 -432l-252 -78q-36 146 -108.5 205t-178.5 59q-145 0 -243 -110q-99 -111 -99 -377t99 -377t243 -111q106 0 178.5 59.5t108.5 205.5l252 -78q-132 -432 -539 -432q-127 0 -237 47.5t-193 137.5
t-130.5 231t-47.5 317z" />
    <glyph glyph-name="uni0422" unicode="&#x422;" 
d="M502 0v1188h-404v246h1073v-246h-403v-1188h-266z" />
    <glyph glyph-name="uni0423" unicode="&#x423;" 
d="M324 0l217 516l-449 918h268l297 -648l277 648h254l-619 -1434h-245z" />
    <glyph glyph-name="uni0424" unicode="&#x424;" 
d="M508 0v150q-191 23 -321 176.5t-130 390.5t130 390.5t321 176.5v150h254v-150q92 -11 173.5 -55.5t143 -115.5t97.5 -173.5t36 -222.5t-36 -222.5t-97.5 -173.5t-143 -115.5t-173.5 -55.5v-150h-254zM508 373v688q-91 -21 -148 -111t-57 -233t57 -233t148 -111zM967 717
q0 143 -57 233t-148 111v-688q91 21 148 111t57 233z" />
    <glyph glyph-name="uni0425" unicode="&#x425;" 
d="M59 0l424 770l-360 664h287l225 -439l225 439h287l-361 -664l424 -770h-286l-289 545l-289 -545h-287z" />
    <glyph glyph-name="uni0426" unicode="&#x426;" 
d="M905 -254v254h-809v1434h266v-1180h394v1180h266v-1180h149l-36 -508h-230z" />
    <glyph glyph-name="uni0427" unicode="&#x427;" 
d="M926 0v633q-61 -43 -150.5 -65.5t-185.5 -22.5q-208 0 -323 135.5t-115 404.5v349h266v-349q0 -139 57.5 -212.5t161.5 -73.5q103 0 164 28q57 29 125 97v510h266v-1434h-266z" />
    <glyph glyph-name="uni0428" unicode="&#x428;" 
d="M102 0v1434h246v-1188h164v1188h246v-1188h164v1188h245v-1434h-1065z" />
    <glyph glyph-name="uni0429" unicode="&#x429;" 
d="M979 -254v254h-948v1434h245v-1188h164v1188h246v-1188h164v1188h246v-1180h149l-37 -508h-229z" />
    <glyph glyph-name="uni042A" unicode="&#x42a;" 
d="M223 0v1188h-203v246h469v-584h250q209 0 328 -113t119 -311t-119 -312t-328 -114h-516zM489 246h226q200 0 200 180q0 178 -200 178h-226v-358z" />
    <glyph glyph-name="uni042B" unicode="&#x42b;" 
d="M51 0v1434h266v-584h107q209 0 327.5 -113t118.5 -311t-118.5 -312t-327.5 -114h-373zM958 0v1434h267v-1434h-267zM317 246h82q201 0 201 180q0 178 -201 178h-82v-358z" />
    <glyph glyph-name="uni042C" unicode="&#x42c;" 
d="M121 0v1434h266v-584h250q209 0 327.5 -113t118.5 -311t-118.5 -312t-327.5 -114h-516zM387 246h225q201 0 201 180q0 178 -201 178h-225v-358z" />
    <glyph glyph-name="uni042D" unicode="&#x42d;" 
d="M39 416l252 78q65 -265 307 -265q275 0 315 365h-516v246h516q-40 364 -315 364q-242 0 -307 -264l-252 78q62 204 203.5 318t355.5 114q126 0 232.5 -47.5t186 -137.5t124.5 -230.5t45 -317.5t-45 -317.5t-124.5 -230.5t-186 -137.5t-232.5 -47.5q-214 0 -355.5 114
t-203.5 318z" />
    <glyph glyph-name="uni042E" unicode="&#x42e;" 
d="M395 596h-100v-596h-266v1434h266v-592h100q20 294 133 451t289 157q192 0 309 -188t117 -545t-117 -545t-309 -188q-176 0 -289 158t-133 454zM977 717q0 487 -160 487t-160 -487q0 -488 160 -488t160 488z" />
    <glyph glyph-name="uni042F" unicode="&#x42f;" 
d="M39 0l397 641q-128 38 -198 139.5t-70 245.5q0 187 115 297.5t321 110.5h522v-1434h-266v618h-139l-385 -618h-297zM602 864h258v324h-258q-168 0 -168 -162t168 -162z" />
    <glyph glyph-name="uni0430" unicode="&#x430;" 
d="M207 297q0 152 122 245t318 93h172v45q0 79 -49.5 121.5t-130.5 42.5q-133 0 -178 -144l-215 62q37 129 144.5 208t248.5 79q208 0 315 -103t107 -330v-616h-197l-26 131q-120 -147 -318 -147q-140 0 -226.5 83.5t-86.5 229.5zM817 422v22h-186q-193 0 -193 -145
q0 -45 32 -77t85 -32q103 0 182.5 66t79.5 166z" />
    <glyph glyph-name="uni0431" unicode="&#x431;" 
d="M106 635q0 427 140 614q141 185 397 185h74q112 0 153 96h158q0 -318 -297 -318h-80q-123 0 -197 -66t-81 -206q50 47 128.5 78t164.5 31q149 0 261 -69.5t170 -189.5t58 -274q0 -232 -146 -382t-382 -150q-238 0 -379.5 176.5t-141.5 474.5zM889 516q0 135 -70 223
q-71 92 -188 92q-118 0 -189 -92q-69 -87 -69 -223q0 -135 69 -225q72 -90 189 -90q116 0 188 90q70 91 70 225z" />
    <glyph glyph-name="uni0432" unicode="&#x432;" 
d="M184 0v1032h447q133 0 220 -70.5t87 -185.5q0 -138 -115 -211q72 -32 115 -97t43 -153q0 -135 -97.5 -225t-244.5 -90h-455zM438 651h127q61 0 94 27.5t33 73.5t-33 73t-94 27h-127v-201zM438 197h146q78 0 109.5 28.5t31.5 87.5t-31.5 88t-109.5 29h-146v-233z" />
    <glyph glyph-name="uni0433" unicode="&#x433;" 
d="M266 0v1032h709v-217h-455v-815h-254z" />
    <glyph glyph-name="uni0434" unicode="&#x434;" 
d="M145 -233l-32 450h86l131 815h739v-815h76l-31 -450h-221v233h-528v-233h-220zM446 217h369v598h-276z" />
    <glyph glyph-name="uni0435" unicode="&#x435;" 
d="M147 516q0 80 18.5 155.5t58.5 144.5t97 120.5t140 82t182 30.5q118 0 212.5 -45t151.5 -119t87 -163t30 -183v-105h-727q6 -95 77 -164t183 -69q157 0 252 147l203 -106q-147 -258 -469 -258q-99 0 -182 30.5t-140 82t-97 120t-58.5 144t-18.5 155.5zM399 627h486
q-21 98 -82 155.5t-160 57.5q-95 0 -160.5 -60.5t-83.5 -152.5z" />
    <glyph glyph-name="uni0436" unicode="&#x436;" 
d="M29 0l268 559l-229 473h260l180 -391v391h254v-391l180 391h260l-227 -473l266 -559h-258l-221 477v-477h-254v477l-221 -477h-258z" />
    <glyph glyph-name="uni0437" unicode="&#x437;" 
d="M250 299l227 31q7 -60 49.5 -96.5t100.5 -36.5q57 0 94 35t37 92q0 56 -50.5 91.5t-125.5 35.5h-50v172h50q72 0 112.5 31t40.5 87q0 50 -31 80.5t-86 30.5q-51 0 -85 -29.5t-46 -83.5l-211 56q27 114 118 184t229 70q155 0 242 -75t87 -194q0 -80 -26.5 -133.5
t-85.5 -91.5q75 -30 117 -93t42 -153q0 -148 -101 -236.5t-271 -88.5q-154 0 -258 88t-119 227z" />
    <glyph glyph-name="uni0438" unicode="&#x438;" 
d="M193 0v1032h253v-637l355 637h276v-1032h-254v637l-354 -637h-276z" />
    <glyph glyph-name="uni0439" unicode="&#x439;" 
d="M193 0v1032h253v-637l355 637h276v-1032h-254v637l-354 -637h-276zM393 1434h187q0 -25 15.5 -41.5t39.5 -16.5t39.5 16.5t15.5 41.5h187q0 -94 -67.5 -159t-174.5 -65t-174.5 65t-67.5 159z" />
    <glyph glyph-name="uni043A" unicode="&#x43a;" 
d="M162 0v1032h254v-383l338 383h307l-440 -473l487 -559h-307l-385 469v-469h-254z" />
    <glyph glyph-name="uni043B" unicode="&#x43b;" 
d="M98 0v217q92 0 135 33t50 112l67 670h752v-1032h-254v815h-262l-62 -545q-9 -60 -25.5 -103.5t-43.5 -73.5t-58 -48t-80 -28t-97.5 -13t-121.5 -4z" />
    <glyph glyph-name="uni043C" unicode="&#x43c;" 
d="M137 0v1032h269l229 -540l229 540h269v-1032h-254v543l-183 -449h-123l-182 449v-543h-254z" />
    <glyph glyph-name="uni043D" unicode="&#x43d;" 
d="M184 0v1032h254v-375h393v375h254v-1032h-254v440h-393v-440h-254z" />
    <glyph glyph-name="uni043E" unicode="&#x43e;" 
d="M127 516q0 109 36.5 206.5t102 170t161 114.5t208.5 42t208.5 -42t161 -114.5t102 -170t36.5 -206.5q0 -147 -62 -267.5t-179 -192.5t-267 -72t-267 72t-179 192.5t-62 267.5zM897 516q0 132 -70 223q-68 92 -192 92t-195 -92q-67 -91 -67 -223t67 -223q71 -92 195 -92
t192 92q70 91 70 223z" />
    <glyph glyph-name="uni043F" unicode="&#x43f;" 
d="M193 0v1032h884v-1032h-254v815h-377v-815h-253z" />
    <glyph glyph-name="uni0440" unicode="&#x440;" 
d="M197 -418v1450h254v-106q27 48 96.5 85.5t152.5 37.5q225 0 348 -142.5t123 -390.5q0 -247 -123 -389.5t-348 -142.5q-73 0 -142.5 32t-106.5 78v-512h-254zM905 516q0 146 -66.5 230.5t-172.5 84.5t-172 -84t-66 -231t66 -231t172 -84t172.5 85t66.5 230z" />
    <glyph glyph-name="uni0441" unicode="&#x441;" 
d="M152 516q0 148 58.5 268t172.5 192.5t264 72.5q321 0 447 -285l-217 -92q-37 87 -92 123t-138 36q-110 0 -175.5 -83.5t-65.5 -231.5t65.5 -231.5t175.5 -83.5q83 0 138 36t92 123l217 -92q-126 -284 -447 -284q-150 0 -264 72t-172.5 192t-58.5 268z" />
    <glyph glyph-name="uni0442" unicode="&#x442;" 
d="M508 0v815h-354v217h962v-217h-354v-815h-254z" />
    <glyph glyph-name="uni0443" unicode="&#x443;" 
d="M291 -418l231 547l-409 903h266l266 -612l246 612h266l-612 -1450h-254z" />
    <glyph glyph-name="uni0444" unicode="&#x444;" 
d="M508 -418v402q-206 12 -340.5 162.5t-134.5 369.5t134.5 370t340.5 163v401h254v-401q206 -12 340.5 -163t134.5 -370t-134.5 -369.5t-340.5 -162.5v-402h-254zM508 201v630q-99 -12 -154 -95t-55 -220t55 -220t154 -95zM971 516q0 137 -55 220t-154 95v-630
q99 12 154 95t55 220z" />
    <glyph glyph-name="uni0445" unicode="&#x445;" 
d="M158 0l342 551l-299 481h266l168 -268l168 268h266l-299 -481l342 -551h-266l-211 336l-211 -336h-266z" />
    <glyph glyph-name="uni0446" unicode="&#x446;" 
d="M909 -233v233h-743v1032h254v-815h411v815h254v-815h76l-31 -450h-221z" />
    <glyph glyph-name="uni0447" unicode="&#x447;" 
d="M825 0v428q-72 -62 -141.5 -87.5t-165.5 -25.5q-145 0 -234 82.5t-89 227.5v407h254v-315q0 -86 40.5 -129t114.5 -43q62 0 119.5 48t101.5 138v301h254v-1032h-254z" />
    <glyph glyph-name="uni0448" unicode="&#x448;" 
d="M82 0v1032h254v-815h172v815h254v-815h172v815h254v-1032h-1106z" />
    <glyph glyph-name="uni0449" unicode="&#x449;" 
d="M983 -233v233h-930v1032h254v-815h172v815h254v-815h172v815h254v-815h76l-31 -450h-221z" />
    <glyph glyph-name="uni044A" unicode="&#x44a;" 
d="M285 0v815h-199v217h453v-393h225q164 0 260 -86.5t96 -233.5q0 -146 -96 -232.5t-260 -86.5h-479zM539 217h180q73 0 108 24.5t35 77.5t-35 78t-108 25h-180v-205z" />
    <glyph glyph-name="uni044B" unicode="&#x44b;" 
d="M61 0v1032h254v-393h193q164 0 260 -86.5t96 -233.5q0 -146 -96 -232.5t-260 -86.5h-447zM946 0v1032h254v-1032h-254zM315 217h148q73 0 108 24.5t35 77.5t-35 78t-108 25h-148v-205z" />
    <glyph glyph-name="uni044C" unicode="&#x44c;" 
d="M152 0v1032h254v-393h270q164 0 260 -86.5t96 -233.5q0 -146 -96 -232.5t-260 -86.5h-524zM406 217h225q73 0 108 24.5t35 77.5t-35 78t-108 25h-225v-205z" />
    <glyph glyph-name="uni044D" unicode="&#x44d;" 
d="M182 252l209 106q89 -157 252 -157q92 0 156.5 59t81.5 156h-443v200h443q-17 97 -81.5 156t-156.5 59q-163 0 -252 -157l-209 106q157 269 453 269q163 0 283.5 -72t180.5 -191.5t60 -269.5t-60 -269.5t-180.5 -191t-283.5 -71.5q-296 0 -453 268z" />
    <glyph glyph-name="uni044E" unicode="&#x44e;" 
d="M430 410h-78v-410h-254v1032h254v-405h80q24 195 126.5 308.5t264.5 113.5q185 0 291 -148q107 -146 107 -385t-107 -385q-105 -147 -291 -147q-162 0 -265 114t-128 312zM987 516q0 154 -42.5 234.5t-121.5 80.5t-121.5 -80.5t-42.5 -234.5t42.5 -234.5t121.5 -80.5
t121.5 80.5t42.5 234.5z" />
    <glyph glyph-name="uni044F" unicode="&#x44f;" 
d="M217 0l270 459q-95 30 -148.5 103.5t-53.5 176.5q0 127 96 211q98 82 246 82h393v-1032h-254v446h-29l-250 -446h-270zM612 664h154v151h-154q-38 0 -60 -20.5t-22 -55.5t22 -55t60 -20z" />
    <glyph glyph-name="uni0450" unicode="&#x450;" 
d="M147 516q0 80 18.5 155.5t58.5 144.5t97 120.5t140 82t182 30.5q118 0 212.5 -45t151.5 -119t87 -163t30 -183v-105h-727q6 -95 77 -164t183 -69q157 0 252 147l203 -106q-147 -258 -469 -258q-99 0 -182 30.5t-140 82t-97 120t-58.5 144t-18.5 155.5zM399 627h486
q-21 98 -82 155.5t-160 57.5q-95 0 -160.5 -60.5t-83.5 -152.5zM557 1147l-281 303h345l131 -303h-195z" />
    <glyph glyph-name="uni0451" unicode="&#x451;" 
d="M147 516q0 80 18.5 155.5t58.5 144.5t97 120.5t140 82t182 30.5q118 0 212.5 -45t151.5 -119t87 -163t30 -183v-105h-727q6 -95 77 -164t183 -69q157 0 252 147l203 -106q-147 -258 -469 -258q-99 0 -182 30.5t-140 82t-97 120t-58.5 144t-18.5 155.5zM399 627h486
q-21 98 -82 155.5t-160 57.5q-95 0 -160.5 -60.5t-83.5 -152.5zM270 1325q0 63 41.5 104t104.5 41t104 -41t41 -104t-41 -104t-104 -41t-104.5 41t-41.5 104zM692 1325q0 63 41.5 104t104.5 41t104 -41t41 -104t-41 -104t-104 -41t-104.5 41t-41.5 104z" />
    <glyph glyph-name="uni0452" unicode="&#x452;" 
d="M672 -434l-62 223q126 32 183 99t57 200v559q0 184 -154 184q-100 0 -170.5 -103t-70.5 -292v-436h-254v1145h-148v188h148v117h254v-117h227v-188h-227v-279q52 84 138 133.5t189 49.5q152 0 237 -80t85 -232v-618q0 -239 -104 -370t-328 -183z" />
    <glyph glyph-name="uni0453" unicode="&#x453;" 
d="M266 0v1032h709v-217h-455v-815h-254zM524 1147l131 303h344l-280 -303h-195z" />
    <glyph glyph-name="uni0454" unicode="&#x454;" 
d="M111 516q0 150 60 269.5t180.5 191.5t283.5 72q295 0 452 -269l-208 -106q-89 157 -252 157q-92 0 -156.5 -59t-81.5 -156h442v-200h-442q17 -97 81.5 -156t156.5 -59q163 0 252 157l208 -106q-157 -268 -452 -268q-163 0 -283.5 71.5t-180.5 191t-60 269.5z" />
    <glyph glyph-name="uni0455" unicode="&#x455;" 
d="M201 293l229 80q29 -91 84.5 -131.5t149.5 -40.5q74 0 122 27.5t48 70.5q0 41 -47.5 67t-170.5 52q-348 77 -348 332q0 86 52.5 155.5t136 106.5t178.5 37q276 0 403 -232l-182 -127q-74 141 -219 141q-55 0 -94 -25t-39 -63q0 -42 39.5 -67.5t146.5 -48.5
q197 -38 288 -110t91 -202q0 -155 -119 -243q-116 -88 -295 -88q-347 0 -454 309z" />
    <glyph glyph-name="uni0456" unicode="&#x456;" 
d="M459 1329q0 69 47.5 116.5t116.5 47.5t116 -47.5t47 -116.5t-47 -116.5t-116 -47.5t-116.5 47.5t-47.5 116.5zM188 0v217h320v598h-268v217h522v-815h319v-217h-893z" />
    <glyph glyph-name="uni0457" unicode="&#x457;" 
d="M188 0v217h320v598h-268v217h522v-815h319v-217h-893zM266 1325q0 63 41.5 104t104.5 41t104 -41t41 -104t-41 -104t-104 -41t-104.5 41t-41.5 104zM688 1325q0 63 41.5 104t104.5 41t104 -41t41 -104t-41 -104t-104 -41t-104.5 41t-41.5 104z" />
    <glyph glyph-name="uni0458" unicode="&#x458;" 
d="M547 1329q0 69 47.5 116.5t116.5 47.5t116 -47.5t47 -116.5t-47 -116.5t-116 -47.5t-116.5 47.5t-47.5 116.5zM418 -434l-62 223q126 32 183 101.5t57 211.5v713h-365v217h619v-975q0 -205 -129 -325q-129 -123 -303 -166z" />
    <glyph glyph-name="uni0459" unicode="&#x459;" 
d="M-14 0v217q93 0 136.5 33t47.5 112l41 670h596v-393h86q164 0 260 -86.5t96 -233.5q0 -146 -96 -232.5t-260 -86.5h-340v815h-107l-34 -545q-7 -72 -29.5 -121t-54.5 -78t-87.5 -44.5t-111 -20.5t-143.5 -6zM807 217h41q73 0 108 24.5t35 77.5t-35 78t-108 25h-41v-205z
" />
    <glyph glyph-name="uni045A" unicode="&#x45a;" 
d="M57 0v1032h254v-393h221v393h254v-393h107q164 0 260 -86.5t96 -233.5q0 -146 -96 -232.5t-260 -86.5h-361v422h-221v-422h-254zM786 217h62q73 0 108 24.5t35 77.5t-35 78t-108 25h-62v-205z" />
    <glyph glyph-name="uni045B" unicode="&#x45b;" 
d="M195 0v1145h-148v188h148v117h254v-117h227v-188h-227v-279q52 84 138 133.5t189 49.5q152 0 237 -80t85 -232v-737h-254v647q0 184 -154 184q-100 0 -170.5 -103t-70.5 -292v-436h-254z" />
    <glyph glyph-name="uni045C" unicode="&#x45c;" 
d="M162 0v1032h254v-383l338 383h307l-440 -473l487 -559h-307l-385 469v-469h-254zM498 1147l131 303h344l-281 -303h-194z" />
    <glyph glyph-name="uni045D" unicode="&#x45d;" 
d="M193 0v1032h253v-637l355 637h276v-1032h-254v637l-354 -637h-276zM565 1147l-280 303h344l131 -303h-195z" />
    <glyph glyph-name="uni045E" unicode="&#x45e;" 
d="M291 -418l231 547l-409 903h266l266 -612l246 612h266l-612 -1450h-254zM406 1434h186q0 -25 15.5 -41.5t39.5 -16.5t39.5 16.5t15.5 41.5h187q0 -94 -67.5 -159t-174.5 -65t-174 65t-67 159z" />
    <glyph glyph-name="uni045F" unicode="&#x45f;" 
d="M508 -233v233h-307v1032h254v-815h360v815h254v-1032h-307v-233h-254z" />
    <glyph glyph-name="uni0462" unicode="&#x462;" 
d="M1206 426q0 -198 -118.5 -312t-327.5 -114h-516v1014h-185v246h185v174h266v-174h205v-246h-205v-164h250q209 0 327.5 -113t118.5 -311zM936 426q0 178 -201 178h-225v-358h225q201 0 201 180z" />
    <glyph glyph-name="uni0463" unicode="&#x463;" 
d="M1163 319q0 -146 -96 -232.5t-260 -86.5h-445v928h-253v221h253v285h254v-285h254v-221h-254v-289h191q164 0 260 -86.5t96 -233.5zM905 319q0 53 -35 78t-108 25h-146v-205h146q73 0 108 24.5t35 77.5z" />
    <glyph glyph-name="uni0472" unicode="&#x472;" 
d="M1192 717q0 -176 -42 -316t-117 -230.5t-176.5 -138.5t-221.5 -48t-221.5 48t-176.5 138.5t-117 230.5t-42 316t42 316t117 230.5t176.5 138.5t221.5 48t221.5 -48t176.5 -138.5t117 -230.5t42 -316zM348 827h574q-18 191 -93 284t-194 93t-194 -93t-93 -284zM922 606
h-574q18 -191 93 -284t194 -93t194 93t93 284z" />
    <glyph glyph-name="uni0473" unicode="&#x473;" 
d="M1143 516q0 -147 -62 -267.5t-179 -192.5t-267 -72t-267 72t-179 192.5t-62 267.5q0 109 36.5 206.5t102 170t161 114.5t208.5 42t208.5 -42t161 -114.5t102 -170t36.5 -206.5zM387 627h496q-26 94 -90 149t-158 55t-158 -55t-90 -149zM883 406h-496q26 -94 90 -149.5
t158 -55.5t158 55.5t90 149.5z" />
    <glyph glyph-name="uni0474" unicode="&#x474;" 
d="M1221 1450v-254q-84 0 -127 -34.5t-66 -121.5l-289 -1040h-270l-420 1434h295l260 -1035l160 719q41 178 147 255t310 77z" />
    <glyph glyph-name="uni0475" unicode="&#x475;" 
d="M471 0l-350 1032h256l209 -719l116 408q43 144 103 217q58 66 132 88.5t210 22.5v-218q-91 0 -139 -32.5t-74 -112.5l-234 -686h-229z" />
    <glyph glyph-name="uni0490" unicode="&#x490;" 
d="M850 1595h266v-407h-608v-1188h-266v1434h608v161z" />
    <glyph glyph-name="uni0491" unicode="&#x491;" 
d="M266 0v1032h455v168h254v-385h-455v-815h-254z" />
    <glyph glyph-name="Wgrave" unicode="&#x1e80;" 
d="M160 0l-137 1434h253l68 -902l209 629h164l209 -629l67 902h254l-137 -1434h-283l-192 670l-234 -670h-241zM539 1548l-281 303h344l131 -303h-194z" />
    <glyph glyph-name="wgrave" unicode="&#x1e81;" 
d="M260 0l-205 1032h226l92 -639l176 578h172l176 -578l92 639h225l-204 -1032h-197l-178 602l-178 -602h-197zM565 1147l-280 303h344l131 -303h-195z" />
    <glyph glyph-name="Wacute" unicode="&#x1e82;" 
d="M160 0l-137 1434h253l68 -902l209 629h164l209 -629l67 902h254l-137 -1434h-283l-192 670l-234 -670h-241zM539 1548l131 303h344l-281 -303h-194z" />
    <glyph glyph-name="wacute" unicode="&#x1e83;" 
d="M260 0l-205 1032h226l92 -639l176 578h172l176 -578l92 639h225l-204 -1032h-197l-178 602l-178 -602h-197zM539 1147l131 303h344l-281 -303h-194z" />
    <glyph glyph-name="Wdieresis" unicode="&#x1e84;" 
d="M160 0l-137 1434h253l68 -902l209 629h164l209 -629l67 902h254l-137 -1434h-283l-192 670l-234 -670h-241zM279 1726q0 63 41 104.5t104 41.5t104 -41.5t41 -104.5t-41 -104t-104 -41t-104 41t-41 104zM700 1726q0 63 41.5 104.5t104.5 41.5t104 -41.5t41 -104.5
t-41 -104t-104 -41t-104.5 41t-41.5 104z" />
    <glyph glyph-name="wdieresis" unicode="&#x1e85;" 
d="M260 0l-205 1032h226l92 -639l176 578h172l176 -578l92 639h225l-204 -1032h-197l-178 602l-178 -602h-197zM279 1325q0 63 41 104t104 41t104 -41t41 -104t-41 -104t-104 -41t-104 41t-41 104zM700 1325q0 63 41.5 104t104.5 41t104 -41t41 -104t-41 -104t-104 -41
t-104.5 41t-41.5 104z" />
    <glyph glyph-name="uni1E9E" unicode="&#x1e9e;" 
d="M483 18v246q128 -35 203 -35q118 0 176 51t58 166q0 112 -81 176t-229 64h-39v100l183 402h-246q-76 0 -121 -53t-45 -150v-985h-266v1008q0 199 121 312.5t311 113.5h567v-113l-227 -469q149 -19 247.5 -128.5t98.5 -250.5q0 -222 -129.5 -355.5t-347.5 -133.5
q-98 0 -234 34z" />
    <glyph glyph-name="Ygrave" unicode="&#x1ef2;" 
d="M512 0v528l-455 906h287l291 -621l291 621h286l-454 -906v-528h-246zM539 1548l-281 303h344l131 -303h-194z" />
    <glyph glyph-name="ygrave" unicode="&#x1ef3;" 
d="M291 -418l231 547l-409 903h266l266 -612l246 612h266l-612 -1450h-254zM578 1147l-281 303h344l131 -303h-194z" />
    <glyph glyph-name="endash" unicode="&#x2013;" 
d="M215 539v221h838v-221h-838z" />
    <glyph glyph-name="emdash" unicode="&#x2014;" 
d="M133 539v221h1004v-221h-1004z" />
    <glyph glyph-name="quoteleft" unicode="&#x2018;" 
d="M707 1450h188l-160 -500h-334z" />
    <glyph glyph-name="quoteright" unicode="&#x2019;" 
d="M401 950l160 500h334l-305 -500h-189z" />
    <glyph glyph-name="quotesinglbase" unicode="&#x201a;" 
d="M379 -319l153 618h342l-317 -618h-178z" />
    <glyph glyph-name="quotedblleft" unicode="&#x201c;" 
d="M1108 1450l-160 -500h-334l306 500h188zM657 1450l-159 -500h-334l305 500h188z" />
    <glyph glyph-name="quotedblright" unicode="&#x201d;" 
d="M162 950l160 500h333l-305 -500h-188zM612 950l160 500h334l-305 -500h-189z" />
    <glyph glyph-name="quotedblbase" unicode="&#x201e;" 
d="M182 -319l160 499h334l-305 -499h-189zM633 -319l160 499h333l-305 -499h-188z" />
    <glyph glyph-name="dagger" unicode="&#x2020;" 
d="M510 -102v913h-326v221h326v504h250v-504h325v-221h-325v-913h-250z" />
    <glyph glyph-name="daggerdbl" unicode="&#x2021;" 
d="M510 -102v503h-326v222h326v188h-326v221h326v504h250v-504h325v-221h-325v-188h325v-222h-325v-503h-250z" />
    <glyph glyph-name="bullet" unicode="&#x2022;" 
d="M393 676q0 100 70 170q72 72 172 72q98 0 170 -72t72 -170q0 -100 -72 -172q-70 -70 -170 -70q-102 0 -172 70t-70 172z" />
    <glyph glyph-name="ellipsis" unicode="&#x2026;" 
d="M453 166q0 78 52 130t130 52t130 -52t52 -130t-52 -130t-130 -52t-130 52t-52 130zM862 166q0 78 52 130t130 52t130.5 -52t52.5 -130t-52.5 -130t-130.5 -52t-130 52t-52 130zM43 166q0 78 52 130t130 52t130.5 -52t52.5 -130t-52.5 -130t-130.5 -52t-130 52t-52 130z
" />
    <glyph glyph-name="perthousand" unicode="&#x2030;" 
d="M76 1178q0 111 79 191.5t193 80.5q118 0 195 -80q78 -78 78 -192t-78 -195q-78 -78 -195 -78q-114 0 -193 80.5t-79 192.5zM463 1178q0 52 -31 85t-84 33t-85 -33t-32 -85t32 -85.5t85 -33.5t84 33.5t31 85.5zM150 403l-105 138l1020 747l104 -137zM264 256
q0 111 79.5 191.5t193.5 80.5q62 0 118 -25.5t93 -70.5q80 96 208 96q119 0 195 -79q78 -78 78 -193q0 -114 -78 -195q-77 -77 -195 -77q-128 0 -208 96q-37 -45 -93 -70.5t-118 -25.5q-114 0 -193.5 80.5t-79.5 191.5zM651 256q0 52 -30.5 85.5t-83.5 33.5t-85 -33.5
t-32 -85.5t32 -85.5t85 -33.5t83.5 33.5t30.5 85.5zM1071 256q0 52 -31 85.5t-84 33.5t-84.5 -33.5t-31.5 -85.5t31.5 -85.5t84.5 -33.5t84 33.5t31 85.5z" />
    <glyph glyph-name="guilsinglleft" unicode="&#x2039;" 
d="M950 104l-633 447v168l633 446v-262l-379 -268l379 -268v-263z" />
    <glyph glyph-name="guilsinglright" unicode="&#x203a;" 
d="M319 104v263l379 268l-379 268v262l633 -446v-168z" />
    <glyph glyph-name="fraction" unicode="&#x2044;" 
d="M225 223l-116 127l950 836l117 -127z" />
    <glyph glyph-name="uni2048" unicode="&#x2048;" 
d="M147 698q0 95 56 159.5t166 107.5l92 36q112 46 112 134q0 50 -35.5 76t-97.5 26q-63 0 -108.5 -35.5t-65.5 -101.5l-223 37q25 139 130 226t261 87q172 0 275.5 -88t103.5 -236q0 -96 -50 -159t-155 -107l-78 -33q-107 -44 -140.5 -69.5t-33.5 -65.5q0 -32 21.5 -51.5
t52.5 -19.5q83 0 117 94l180 -68q-36 -100 -113 -155.5t-184 -55.5q-125 0 -204 72.5t-79 189.5zM260 156q0 72 50 122t120 50t120 -50t50 -122q0 -70 -49 -119t-121 -49t-121 49t-49 119zM946 496l-57 938h336l-58 -938h-221zM887 152q0 72 50.5 122t119.5 50t119.5 -50
t50.5 -122q0 -70 -49.5 -119t-120.5 -49t-120.5 49t-49.5 119z" />
    <glyph glyph-name="uni2049" unicode="&#x2049;" 
d="M561 698q0 95 55.5 159.5t165.5 107.5l92 36q113 46 113 134q0 50 -35.5 76t-97.5 26q-63 0 -108.5 -35.5t-65.5 -101.5l-223 37q25 139 130 226t261 87q172 0 275.5 -88t103.5 -236q0 -96 -50 -159t-155 -107l-78 -33q-107 -44 -140.5 -69.5t-33.5 -65.5
q0 -32 21.5 -51.5t52.5 -19.5q83 0 117 94l180 -68q-36 -100 -113 -155.5t-184 -55.5q-125 0 -204 72.5t-79 189.5zM674 156q0 72 50 122t120 50t120 -50t50 -122q0 -70 -49 -119t-121 -49t-121 49t-49 119zM102 496l-57 938h336l-57 -938h-222zM43 152q0 72 50.5 122
t119.5 50t119.5 -50t50.5 -122q0 -70 -49.5 -119t-120.5 -49t-120.5 49t-49.5 119z" />
    <glyph glyph-name="uni2070" unicode="&#x2070;" 
d="M295 1024q0 197 90.5 307.5t249.5 110.5t249.5 -110.5t90.5 -307.5t-90.5 -307.5t-249.5 -110.5t-249.5 110.5t-90.5 307.5zM500 899l174 367q-18 6 -39 6q-69 0 -110.5 -62.5t-41.5 -185.5q0 -66 17 -125zM786 1024q0 80 -18 133l-174 -375q18 -6 41 -6q69 0 110 62.5
t41 185.5z" />
    <glyph glyph-name="uni2074" unicode="&#x2074;" 
d="M672 614v134h-342v92l329 594h195v-516h88v-170h-88v-134h-182zM543 918h129v249z" />
    <glyph glyph-name="uni2075" unicode="&#x2075;" 
d="M344 848l178 20q7 -42 36.5 -67t68.5 -25q53 0 81.5 31.5t28.5 89.5q0 113 -110 113q-66 0 -119 -47l-146 30l44 441h471v-170h-318l-20 -138q57 31 129 31q122 0 191 -71t69 -189q0 -134 -82 -212.5t-219 -78.5q-111 0 -192 69t-91 173z" />
    <glyph glyph-name="uni2076" unicode="&#x2076;" 
d="M346 877q0 89 37 153l231 412h205l-182 -303q15 6 37 6q109 0 178.5 -69.5t69.5 -198.5q0 -119 -81 -195t-208 -76q-128 0 -207.5 75t-79.5 196zM729 877q0 44 -26.5 71t-69.5 27q-42 0 -69 -27t-27 -71q0 -43 27.5 -72t68.5 -29t68.5 28.5t27.5 72.5z" />
    <glyph glyph-name="uni2077" unicode="&#x2077;" 
d="M399 614l271 650h-303v170h534v-72l-307 -748h-195z" />
    <glyph glyph-name="uni2078" unicode="&#x2078;" 
d="M352 872q0 66 32.5 113t86.5 72q-92 51 -92 164q0 93 71 157t185 64t185 -64t71 -157q0 -113 -92 -164q54 -25 86.5 -72t32.5 -113q0 -121 -77.5 -193.5t-205.5 -72.5t-205.5 72.5t-77.5 193.5zM719 1214q0 41 -23 66t-61 25t-61 -25t-23 -66t23 -65.5t61 -24.5t61 24.5
t23 65.5zM727 872q0 43 -25 70t-67 27t-67 -27t-25 -70t25 -69.5t67 -26.5t67 26.5t25 69.5z" />
    <glyph glyph-name="uni2079" unicode="&#x2079;" 
d="M451 606l182 303q-15 -6 -37 -6q-109 0 -178.5 69.5t-69.5 198.5q0 119 81 195t208 76q128 0 207.5 -75t79.5 -196q0 -89 -37 -153l-232 -412h-204zM733 1171q0 43 -27.5 72t-68.5 29t-68.5 -28.5t-27.5 -72.5t26.5 -71t69.5 -27q42 0 69 27t27 71z" />
    <glyph glyph-name="uni2080" unicode="&#x2080;" 
d="M295 -8q0 197 90.5 307.5t249.5 110.5t249.5 -110.5t90.5 -307.5t-90.5 -307.5t-249.5 -110.5t-249.5 110.5t-90.5 307.5zM500 -133l174 366q-21 7 -39 7q-69 0 -110.5 -62.5t-41.5 -185.5q0 -66 17 -125zM786 -8q0 80 -18 133l-174 -375q18 -6 41 -6q69 0 110 62.5
t41 185.5z" />
    <glyph glyph-name="uni2081" unicode="&#x2081;" 
d="M391 -418v170h176v400l-174 -78v194l281 133h76v-649h176v-170h-535z" />
    <glyph glyph-name="uni2082" unicode="&#x2082;" 
d="M356 -418v72l297 362q56 65 56 140q0 40 -21 62t-57 22q-84 0 -105 -109l-164 47q12 102 87.5 167t181.5 65q122 0 195 -67.5t73 -182.5q0 -102 -82 -203l-168 -205h262v-170h-555z" />
    <glyph glyph-name="uni2083" unicode="&#x2083;" 
d="M348 -168l164 21q10 -53 42.5 -81t76.5 -28q100 0 100 121q0 54 -26 81t-72 27q-42 0 -76 -20l-82 102l135 176h-225v170h485v-71l-182 -234q99 0 166.5 -69t67.5 -168q0 -133 -74 -209t-213 -76q-122 0 -201.5 73t-85.5 185z" />
    <glyph glyph-name="uni2084" unicode="&#x2084;" 
d="M672 -418v133h-342v92l329 594h195v-516h88v-170h-88v-133h-182zM543 -115h129v250z" />
    <glyph glyph-name="uni2085" unicode="&#x2085;" 
d="M344 -184l178 20q7 -42 36.5 -67t68.5 -25q53 0 81.5 31.5t28.5 89.5q0 112 -110 112q-66 0 -119 -47l-146 31l44 440h471v-170h-318l-20 -137q57 31 129 31q122 0 191 -71t69 -189q0 -134 -82 -212.5t-219 -78.5q-111 0 -192 69t-91 173z" />
    <glyph glyph-name="uni2086" unicode="&#x2086;" 
d="M346 -156q0 90 37 154l231 412h205l-182 -304q17 7 37 7q109 0 178.5 -70t69.5 -199q0 -119 -81 -194.5t-208 -75.5q-128 0 -207.5 74.5t-79.5 195.5zM729 -156q0 44 -26.5 71.5t-69.5 27.5q-42 0 -69 -27.5t-27 -71.5q0 -43 27.5 -71.5t68.5 -28.5q42 0 69 28t27 72z
" />
    <glyph glyph-name="uni2087" unicode="&#x2087;" 
d="M399 -418l271 649h-303v170h534v-71l-307 -748h-195z" />
    <glyph glyph-name="uni2088" unicode="&#x2088;" 
d="M352 -160q0 66 32.5 113t86.5 72q-92 51 -92 163q0 93 71 157.5t185 64.5t185 -64.5t71 -157.5q0 -112 -92 -163q54 -25 86.5 -72t32.5 -113q0 -121 -77.5 -193.5t-205.5 -72.5t-205.5 72.5t-77.5 193.5zM719 182q0 41 -23 65.5t-61 24.5t-61 -24.5t-23 -65.5t23 -65.5
t61 -24.5t61 24.5t23 65.5zM727 -160q0 43 -25 70t-67 27t-67 -27t-25 -70t25 -69.5t67 -26.5t67 26.5t25 69.5z" />
    <glyph glyph-name="uni2089" unicode="&#x2089;" 
d="M451 -418l182 303q-15 -6 -37 -6q-109 0 -178.5 69.5t-69.5 198.5q0 119 81 195t208 76q128 0 207.5 -75t79.5 -196q0 -89 -37 -153l-232 -412h-204zM733 147q0 43 -27.5 72t-68.5 29t-68.5 -28.5t-27.5 -72.5t26.5 -71t69.5 -27q42 0 69 27t27 71z" />
    <glyph glyph-name="franc" unicode="&#x20a3;" 
d="M1081 1167h-628v-297h528v-245h-528v-236h315v-246h-315v-143h-267v143h-147v246h147v1045h895v-267z" />
    <glyph glyph-name="uni20A8" unicode="&#x20a8;" 
d="M565 639l193 -639h-219l-183 614v-614h-225v958h-61v156h61v320h303q128 0 220.5 -88.5t115.5 -231.5h164v-156h-162q-27 -215 -207 -319zM356 1188v-74h183q-27 74 -103 74h-80zM545 958h-189v-94h80q88 0 109 94zM1237 238q0 -112 -68.5 -183t-177.5 -71
q-95 0 -158.5 56.5t-80.5 164.5l147 67q15 -116 94 -116q31 0 49.5 19t18.5 54q0 34 -28.5 62.5t-90.5 58.5q-170 83 -170 225q0 102 63 163t162 61q75 0 131 -38t82 -106l-127 -96q-12 36 -35.5 56t-50.5 20t-44 -14t-17 -37q0 -34 24 -57t84 -50q98 -45 145.5 -100
t47.5 -139z" />
    <glyph glyph-name="dong" unicode="&#x20ab;" 
d="M1055 1362v-158h-72v-833h-246v65q-62 -80 -176 -80q-158 0 -249 106.5t-91 289.5q0 182 91 287.5t245 105.5q115 0 180 -74v133h-176v158h176v72h246v-72h72zM750 752q0 88 -39.5 136t-104.5 48q-67 0 -106 -47.5t-39 -136.5q0 -90 38.5 -137.5t106.5 -47.5
q67 0 105.5 47.5t38.5 137.5zM1055 276v-157h-842v157h842z" />
    <glyph glyph-name="Euro" unicode="&#x20ac;" 
d="M244 442h-205l102 222h80v106h-182l102 221h103q50 220 195 339.5t352 119.5q313 0 442 -240l-221 -131q-32 63 -90.5 98t-130.5 35q-222 0 -287 -221h430l-103 -221h-356v-106h459l-103 -222h-327q65 -221 287 -221q72 0 130.5 35t90.5 98l221 -131q-129 -239 -442 -239
q-207 0 -352 119t-195 339z" />
    <glyph glyph-name="uni20AD" unicode="&#x20ad;" 
d="M1196 901v-246h-471l444 -655h-323l-430 655h-17v-655h-266v655h-98v246h98v533h266v-533h2l410 533h322l-418 -533h481z" />
    <glyph glyph-name="uni20B1" unicode="&#x20b1;" 
d="M1206 1135v-99h-82q2 -8 2 -39t-2 -39h82v-98h-96q-36 -142 -146 -220.5t-286 -78.5h-254v-561h-266v860h-117v98h117v78h-117v99h117v299h520q176 0 286 -78.5t146 -220.5h96zM424 1188v-53h389q-47 53 -145 53h-244zM854 1036h-430v-78h430q2 8 2 39t-2 39zM813 860
h-389v-53h244q98 0 145 53z" />
    <glyph glyph-name="uni20B4" unicode="&#x20b4;" 
d="M991 973h109v-221h-932v221h571q41 47 41 100q0 55 -42.5 93t-102.5 38q-138 0 -191 -151l-215 137q108 260 406 260q176 0 287.5 -92t111.5 -234q0 -81 -43 -151zM168 461v221h932v-221h-572q-41 -47 -41 -101q0 -55 43 -93t103 -38q137 0 190 152l215 -137
q-108 -260 -405 -260q-176 0 -288 91.5t-112 233.5q0 82 43 152h-108z" />
    <glyph glyph-name="uni20B8" unicode="&#x20b8;" 
d="M145 1147v246h979v-246h-979zM502 0v786h-357v246h979v-246h-356v-786h-266z" />
    <glyph glyph-name="uni20BA" unicode="&#x20ba;" 
d="M901 496h270v-60q0 -201 -116.5 -318.5t-331.5 -117.5h-459v449l-180 -48v222l180 47v127l-180 -47v221l180 47v416h266v-344l322 84v-222l-322 -84v-127l322 84v-221l-322 -84v-274h183q188 0 188 190v60z" />
    <glyph glyph-name="uni20BD" unicode="&#x20bd;" 
d="M750 561h-254v-117h280v-245h-280v-199h-267v199h-157v245h157v117h-157v246h157v627h521q215 0 331.5 -118t116.5 -319t-116.5 -318.5t-331.5 -117.5zM496 1188v-381h243q189 0 189 190q0 191 -189 191h-243z" />
    <glyph glyph-name="uni20BF" unicode="&#x20bf;" 
d="M733 4v-147h-176v143h-100v-143h-176v143h-129v1434h129v143h176v-143h100v143h176v-152q149 -25 230 -120.5t81 -257.5q0 -89 -37 -159.5t-104 -105.5q215 -89 215 -350q0 -183 -100.5 -294t-284.5 -134zM614 1188h-196v-311h203q86 0 126.5 36t40.5 119t-42 119.5
t-132 36.5zM852 438q0 193 -231 193h-203v-385h203q119 0 175 48t56 144z" />
    <glyph glyph-name="uni2113" unicode="&#x2113;" 
d="M819 373l215 -78q-39 -160 -130 -235.5t-251 -75.5q-198 0 -290.5 98.5t-92.5 296.5v113l-112 -66l-117 205q129 72 229 137v322q0 168 88.5 264t253.5 96q150 0 229 -79.5t79 -199.5q0 -235 -351 -491l-32 -23v-315q0 -68 34.5 -104.5t96.5 -36.5q57 0 94 42t57 130z
M537 1151v-190q116 107 116 204q0 68 -55 68q-61 0 -61 -82z" />
    <glyph glyph-name="uni2116" unicode="&#x2116;" 
d="M745 1188q0 118 68.5 190t187.5 72t187.5 -72t68.5 -190t-68.5 -190t-187.5 -72t-187.5 72t-68.5 190zM25 0v1434h245l179 -717v717h245v-1434h-245l-179 713v-713h-245zM1085 1188q0 44 -23.5 71t-60.5 27t-60 -27t-23 -71t23 -71t60 -27t60.5 27t23.5 71zM745 610v201
h512v-201h-512z" />
    <glyph glyph-name="uni2117" unicode="&#x2117;" 
d="M1202 717q3 -160 -72.5 -295.5t-207 -212.5t-287.5 -74q-156 -3 -287.5 74t-207 212.5t-72.5 295.5q-3 160 72.5 295t207 212t287.5 74q156 3 287.5 -74t207 -212t72.5 -295zM1047 717q0 189 -116.5 310.5t-295.5 121.5t-295.5 -121.5t-116.5 -310.5t116.5 -310.5
t295.5 -121.5t295.5 121.5t116.5 310.5zM852 842q0 -82 -53.5 -130t-145.5 -48h-94v-250h-127v606h221q92 0 145.5 -48t53.5 -130zM721 842q0 57 -74 57h-88v-115h88q74 0 74 58z" />
    <glyph glyph-name="uni2120" unicode="&#x2120;" 
d="M16 827l144 86q21 -151 131 -151q36 0 59 24t23 64q0 44 -33.5 77t-112.5 72q-82 39 -124 94.5t-42 139.5q0 97 68 157t164 60q167 0 219 -143l-125 -93q-11 41 -36 60.5t-56 19.5t-52.5 -18.5t-21.5 -44.5q0 -37 34.5 -64t143.5 -80q74 -37 110 -90.5t36 -130.5
q0 -126 -69.5 -197t-186.5 -71q-107 0 -181 64t-92 165zM614 614v820h154l158 -478l157 478h154v-820h-154v390l-108 -314h-98l-109 314v-390h-154z" />
    <glyph glyph-name="trademark" unicode="&#x2122;" 
d="M166 614v635h-156v185h500v-185h-156v-635h-188zM584 614v820h178l158 -424l157 424h183v-820h-185v449l-117 -336h-77l-123 336v-449h-174z" />
    <glyph glyph-name="uni2126" unicode="&#x2126;" 
d="M131 0v225h191q-211 292 -211 631q0 276 135.5 435t388.5 159t388.5 -159t135.5 -435q0 -339 -211 -631h191v-225h-465v225q97 95 157 264q58 168 58 342q0 373 -254 373t-254 -373q0 -177 57 -342q59 -168 158 -264v-225h-465z" />
    <glyph glyph-name="estimated" unicode="&#x212e;" 
d="M272 717v-318q56 -83 154 -133.5t209 -50.5q140 0 253 65t167 177h90q-67 -140 -207 -230q-137 -88 -303 -88q-165 0 -295.5 77.5t-201 209t-70.5 291.5q0 159 70.5 291t201 210t295.5 78q248 0 407.5 -163t159.5 -416h-930zM272 1051v-258h734v251q-53 78 -153 128.5
t-218 50.5q-109 0 -205.5 -46.5t-157.5 -125.5z" />
    <glyph glyph-name="uni2153" unicode="&#x2153;" 
d="M29 750v139h164v332l-154 -70v172l242 111h63v-545h164v-139h-479zM319 168l-108 82l784 991l109 -82zM752 211l153 33q5 -50 32 -77.5t71 -27.5q41 0 66.5 27.5t25.5 71.5q0 45 -25 71.5t-67 26.5q-37 0 -68 -25l-70 97l115 129h-197v147h439v-66l-156 -172
q86 -5 137.5 -62t51.5 -153q0 -110 -68 -174.5t-184 -64.5q-110 0 -179.5 58.5t-76.5 160.5z" />
    <glyph glyph-name="uni2154" unicode="&#x2154;" 
d="M57 750v67l256 285q49 58 49 117q0 35 -20 55t-53 20t-54.5 -24t-25.5 -66l-150 37q14 92 77.5 146.5t160.5 54.5q107 0 166 -55t59 -158q0 -121 -80 -209l-110 -123h200v-147h-475zM319 168l-108 82l784 991l109 -82zM752 211l153 33q5 -50 32 -77.5t71 -27.5
q41 0 66.5 27.5t25.5 71.5q0 45 -25 71.5t-67 26.5q-37 0 -68 -25l-70 97l115 129h-197v147h439v-66l-156 -172q86 -5 137.5 -62t51.5 -153q0 -110 -68 -174.5t-184 -64.5q-110 0 -179.5 58.5t-76.5 160.5z" />
    <glyph glyph-name="oneeighth" unicode="&#x215b;" 
d="M29 750v139h164v332l-154 -70v172l242 111h63v-545h164v-139h-479zM342 168l-109 82l785 991l108 -82zM762 197q0 117 100 174q-76 55 -76 135q0 85 59.5 135.5t158.5 50.5q98 0 157.5 -50.5t59.5 -135.5q0 -80 -76 -135q100 -57 100 -174q0 -92 -67.5 -148.5
t-173.5 -56.5q-105 0 -173.5 57t-68.5 148zM1073 487q0 31 -19 50.5t-50 19.5t-50.5 -19.5t-19.5 -50.5t19.5 -50t50.5 -19t50 19t19 50zM1085 211q0 37 -22 58.5t-59 21.5t-59.5 -21.5t-22.5 -58.5t22.5 -58.5t59.5 -21.5t59 21.5t22 58.5z" />
    <glyph glyph-name="threeeighths" unicode="&#x215c;" 
d="M84 961l154 32q5 -50 31.5 -77t70.5 -27q41 0 66.5 27t25.5 71q0 45 -25 71.5t-67 26.5q-38 0 -68 -24l-69 96l114 129h-196v148h438v-66l-156 -172q86 -5 137.5 -62t51.5 -153q0 -110 -68 -175t-184 -65q-110 0 -179.5 59t-76.5 161zM342 168l-109 82l785 991l108 -82z
M762 197q0 117 100 174q-76 55 -76 135q0 85 59.5 135.5t158.5 50.5q98 0 157.5 -50.5t59.5 -135.5q0 -80 -76 -135q100 -57 100 -174q0 -92 -67.5 -148.5t-173.5 -56.5q-105 0 -173.5 57t-68.5 148zM1073 487q0 31 -19 50.5t-50 19.5t-50.5 -19.5t-19.5 -50.5t19.5 -50
t50.5 -19t50 19t19 50zM1085 211q0 37 -22 58.5t-59 21.5t-59.5 -21.5t-22.5 -58.5t22.5 -58.5t59.5 -21.5t59 21.5t22 58.5z" />
    <glyph glyph-name="fiveeighths" unicode="&#x215d;" 
d="M80 932l141 33q8 -36 32 -56t60 -20q39 0 62.5 23t23.5 65t-23.5 65t-62.5 23q-30 0 -55 -14t-35 -37l-139 22l41 398h399v-148h-270l-12 -108q46 26 112 26q95 0 150 -59t55 -168q0 -110 -65.5 -173t-180.5 -63q-95 0 -158 50t-75 141zM342 168l-109 82l785 991l108 -82
zM762 197q0 117 100 174q-76 55 -76 135q0 85 59.5 135.5t158.5 50.5q98 0 157.5 -50.5t59.5 -135.5q0 -80 -76 -135q100 -57 100 -174q0 -92 -67.5 -148.5t-173.5 -56.5q-105 0 -173.5 57t-68.5 148zM1073 487q0 31 -19 50.5t-50 19.5t-50.5 -19.5t-19.5 -50.5t19.5 -50
t50.5 -19t50 19t19 50zM1085 211q0 37 -22 58.5t-59 21.5t-59.5 -21.5t-22.5 -58.5t22.5 -58.5t59.5 -21.5t59 21.5t22 58.5z" />
    <glyph glyph-name="seveneighths" unicode="&#x215e;" 
d="M176 737l242 549h-307v148h518v-62l-279 -635h-174zM254 168l-109 82l785 991l108 -82zM700 197q0 116 101 174q-76 55 -76 135q0 85 59.5 135.5t157.5 50.5t157.5 -50.5t59.5 -135.5q0 -80 -76 -135q101 -58 101 -174q0 -92 -68 -148.5t-174 -56.5q-105 0 -173.5 57
t-68.5 148zM1012 487q0 31 -19.5 50.5t-50.5 19.5t-50.5 -19.5t-19.5 -50.5t19.5 -50t50.5 -19t50.5 19t19.5 50zM1024 211q0 37 -22.5 58.5t-59.5 21.5t-59.5 -21.5t-22.5 -58.5t22.5 -58.5t59.5 -21.5t59.5 21.5t22.5 58.5z" />
    <glyph glyph-name="arrowleft" unicode="&#x2190;" 
d="M573 195l-522 522l522 522l146 -149l-260 -265h739v-217h-739l260 -264z" />
    <glyph glyph-name="arrowup" unicode="&#x2191;" 
d="M526 143v740l-264 -260l-149 145l522 522l522 -522l-149 -145l-265 260v-740h-217z" />
    <glyph glyph-name="arrowright" unicode="&#x2192;" 
d="M696 195l-145 149l260 264h-739v217h739l-260 265l145 149l523 -522z" />
    <glyph glyph-name="arrowdown" unicode="&#x2193;" 
d="M637 143l-522 523l149 145l264 -260v739h217v-739l265 260l149 -145z" />
    <glyph glyph-name="arrowboth" unicode="&#x2194;" 
d="M840 1147l430 -430l-430 -430l-146 151l168 170h-454l167 -170l-145 -151l-430 430l430 430l145 -152l-167 -170h454l-168 170z" />
    <glyph glyph-name="arrowupdn" unicode="&#x2195;" 
d="M526 446v740l-264 -260l-149 145l522 522l522 -522l-149 -145l-265 260v-740h-217zM635 -160l-522 522l149 146l264 -260v739h217v-739l265 260l149 -146z" />
    <glyph glyph-name="uni2196" unicode="&#x2196;" 
d="M967 252l-525 522l-2 -375h-209v740h740v-209l-375 -2l522 -525z" />
    <glyph glyph-name="uni2197" unicode="&#x2197;" 
d="M303 252l-151 151l522 525l-375 2v209h739v-740h-209l-2 375z" />
    <glyph glyph-name="uni2198" unicode="&#x2198;" 
d="M330 258v217h370l-548 547l153 154l547 -549v370h217v-739h-739z" />
    <glyph glyph-name="uni2199" unicode="&#x2199;" 
d="M201 258v739h217v-370l547 549l153 -154l-549 -547h371v-217h-739z" />
    <glyph glyph-name="partialdiff" unicode="&#x2202;" 
d="M92 428q-3 172 80.5 316t231 226t325.5 79q93 0 178 -45q-19 117 -74.5 173t-154.5 56q-76 0 -138 -38t-98 -114l-231 72q37 124 165.5 210.5t276.5 86.5q272 0 397.5 -171t125.5 -525q0 -340 -152 -557q-151 -213 -485 -213q-195 0 -321 123.5t-126 320.5zM889 588
q0 125 -43 184t-139 59q-140 0 -237 -118.5t-97 -268.5q0 -109 53 -176t154 -67q142 0 225.5 112t83.5 275z" />
    <glyph glyph-name="uni2206" unicode="&#x2206;" 
d="M102 0v66l428 1368h209l428 -1368v-66h-1065zM403 229h463l-231 811z" />
    <glyph glyph-name="product" unicode="&#x220f;" 
d="M217 0v1434h836v-1434h-254v1212h-328v-1212h-254z" />
    <glyph glyph-name="summation" unicode="&#x2211;" 
d="M168 0v106l459 611l-459 610v107h934v-222h-576l357 -475v-41l-357 -475h576v-221h-934z" />
    <glyph glyph-name="minus" unicode="&#x2212;" 
d="M184 539v221h901v-221h-901z" />
    <glyph glyph-name="uni2215" unicode="&#x2215;" 
d="M96 -102l832 1638h246l-832 -1638h-246z" />
    <glyph glyph-name="uni2219" unicode="&#x2219;" 
d="M430 621q0 86 60.5 146t146.5 60q85 0 145 -60t60 -146t-60 -146.5t-145 -60.5q-86 0 -146.5 60.5t-60.5 146.5z" />
    <glyph glyph-name="radical" unicode="&#x221a;" 
d="M573 0l-182 567h-244v230h377l146 -463l317 1116h246l-451 -1450h-209z" />
    <glyph glyph-name="infinity" unicode="&#x221e;" 
d="M31 735q0 162 85 250t230 88q98 0 178.5 -59t110.5 -148q30 89 110.5 148t178.5 59q145 0 230 -88t85 -250t-85 -250t-230 -88q-98 0 -178.5 59t-110.5 148q-30 -89 -110.5 -148t-178.5 -59q-145 0 -230 88t-85 250zM539 735q-21 70 -70 119t-107 49q-68 0 -108.5 -44.5
t-40.5 -123.5t40.5 -123.5t108.5 -44.5q58 0 107 49t70 119zM1057 735q0 79 -41 123.5t-109 44.5q-58 0 -106.5 -48.5t-69.5 -119.5q21 -71 69.5 -119.5t106.5 -48.5q68 0 109 44.5t41 123.5z" />
    <glyph glyph-name="integral" unicode="&#x222b;" 
d="M53 -393l94 205q66 -29 117 -29q117 0 144 129l229 1173q70 365 418 365q128 0 192 -41l-94 -205q-66 29 -117 29q-116 0 -143 -129l-229 -1174q-70 -364 -412 -364q-135 0 -199 41z" />
    <glyph glyph-name="approxequal" unicode="&#x2248;" 
d="M616 768q-107 55 -182 55q-104 0 -186 -104l-131 141q39 96 125.5 161.5t183.5 65.5q59 0 109.5 -15.5t117.5 -49.5q107 -55 183 -55q104 0 186 104l131 -141q-39 -97 -125.5 -162.5t-183.5 -65.5q-58 0 -109 15.5t-119 50.5zM623 344q-107 55 -183 55q-104 0 -186 -104
l-131 141q39 97 125.5 162.5t183.5 65.5q58 0 108.5 -15.5t118.5 -50.5q107 -55 183 -55q104 0 186 104l131 -141q-39 -96 -125.5 -161.5t-183.5 -65.5q-59 0 -109.5 15.5t-117.5 49.5z" />
    <glyph glyph-name="notequal" unicode="&#x2260;" 
d="M475 129l-192 107l59 104h-154v221h279l84 148h-363v221h488l121 211l192 -107l-59 -104h153v-221h-278l-84 -148h362v-221h-487z" />
    <glyph glyph-name="lessequal" unicode="&#x2264;" 
d="M1036 287l-800 418v237l800 418v-268l-516 -269l516 -268v-268zM150 0v221h974v-221h-974z" />
    <glyph glyph-name="greaterequal" unicode="&#x2265;" 
d="M233 287v268l517 268l-517 269v268l801 -418v-237zM145 0v221h975v-221h-975z" />
    <glyph glyph-name="lozenge" unicode="&#x25ca;" 
d="M512 0l-373 717l373 717h246l372 -717l-372 -717h-246zM635 217l242 500l-242 500l-242 -500z" />
    <glyph glyph-name="uniF8FF" unicode="&#xf8ff;" 
d="M29 45v1219q0 14 9.5 27.5t22.5 17.5l553 159l21 5l20 -5l553 -159q13 -4 23 -17.5t10 -27.5v-1219q0 -19 -13 -32t-32 -13l-14 2l-547 158l-547 -158l-14 -2q-19 0 -32 13t-13 32zM590 750v620l-471 -137q12 -191 146.5 -329.5t324.5 -153.5zM1151 1233l-471 137v-620
q190 15 324.5 153.5t146.5 329.5zM117 104l473 138v417q-149 12 -274 89t-199 200v-844zM1153 104v844q-75 -124 -200 -200.5t-273 -88.5v-417z" />
    <glyph glyph-name="NULL" 
 />
    <glyph glyph-name="Gcommaaccent.ss02" 
d="M90 717q-2 150 33.5 276t93.5 209t132.5 140.5t150 83t147.5 24.5q435 0 549 -436l-252 -76q-30 139 -98 202.5t-176 63.5q-146 0 -230 -121t-84 -366t78 -366.5t213 -121.5q117 0 195.5 69.5t91.5 201.5h-275v221h531v-721h-223l-21 139q-54 -79 -127.5 -117t-191.5 -38
q-75 -1 -150.5 26.5t-146 87.5t-124.5 145t-86 208t-30 266zM518 -608l-37 49q96 69 123 190q-52 19 -78 55.5t-26 80.5q0 57 40.5 97t102.5 40t102.5 -43t40.5 -107q0 -105 -66.5 -190t-201.5 -172z" />
    <glyph glyph-name="Kcommaaccent.ss02" 
d="M117 0v1434h266v-535l412 535h321l-502 -639l539 -795h-324l-446 680v-680h-266zM455 -608l-37 49q96 69 123 190q-52 19 -78.5 56t-26.5 80q0 57 41 97t103 40t102.5 -43t40.5 -107q0 -105 -66.5 -190t-201.5 -172z" />
    <glyph glyph-name="Lcaron.ss02" 
d="M180 0v1434h266v-1188h646v-246h-912zM803 1094l-37 49q96 69 123 190q-52 19 -78.5 55.5t-26.5 79.5q0 57 41 97.5t103 40.5t102.5 -43t40.5 -107q0 -105 -66.5 -190t-201.5 -172z" />
    <glyph glyph-name="Lcommaaccent.ss02" 
d="M180 0v1434h266v-1188h646v-246h-912zM539 -608l-37 49q96 69 123 190q-52 19 -78.5 56t-26.5 80q0 57 41 97t103 40t102.5 -43t40.5 -107q0 -105 -66.5 -190t-201.5 -172z" />
    <glyph glyph-name="Ncommaaccent.ss02" 
d="M145 0v1434h246l486 -922v922h245v-1434h-245l-486 918v-918h-246zM518 -608l-37 49q96 69 123 190q-52 19 -78 55.5t-26 80.5q0 57 40.5 97t102.5 40t102.5 -43t40.5 -107q0 -105 -66.5 -190t-201.5 -172z" />
    <glyph glyph-name="Rcommaaccent.ss02" 
d="M143 0v1434h523q206 0 321 -110.5t115 -297.5q0 -144 -70 -245.5t-198 -139.5l397 -641h-297l-385 618h-139v-618h-267zM410 864h258q168 0 168 162t-168 162h-258v-324zM539 -608l-37 49q96 69 123 190q-52 19 -78.5 56t-26.5 80q0 57 41 97t103 40t102.5 -43t40.5 -107
q0 -105 -66.5 -190t-201.5 -172z" />
    <glyph glyph-name="Scommaaccent.ss02" 
d="M104 406l236 88q26 -123 103.5 -194t211.5 -71q98 0 153.5 48.5t55.5 138.5q-2 24 -6 42t-13.5 35t-18 28t-29.5 24.5t-39 22.5t-54 22.5t-67 24t-86 28.5q-181 58 -267.5 156.5t-86.5 255.5q0 177 124.5 286t327.5 109q172 0 286 -82.5t163 -224.5l-215 -109
q-31 85 -92 127.5t-142 42.5q-80 0 -133 -41.5t-53 -113.5q0 -80 60 -125t212 -84q199 -52 297 -147.5t98 -266.5q0 -212 -130.5 -327t-352.5 -115q-212 0 -357 110.5t-186 311.5zM518 -608l-37 49q96 69 123 190q-52 19 -78 55.5t-26 80.5q0 57 40.5 97t102.5 40t102.5 -43
t40.5 -107q0 -105 -66.5 -190t-201.5 -172z" />
    <glyph glyph-name="uni021A.ss02" 
d="M502 0v1188h-404v246h1073v-246h-403v-1188h-266zM518 -608l-37 49q96 69 123 190q-52 19 -78 55.5t-26 80.5q0 57 40.5 97t102.5 40t102.5 -43t40.5 -107q0 -105 -66.5 -190t-201.5 -172z" />
    <glyph glyph-name="i.loclTRK" 
d="M188 0v217h320v598h-268v217h522v-815h319v-217h-893zM459 1329q0 69 47.5 116.5t116.5 47.5t116 -47.5t47 -116.5t-47 -116.5t-116 -47.5t-116.5 47.5t-47.5 116.5z" />
    <glyph glyph-name="a.ss01" 
d="M147 516q0 248 123 390.5t348 142.5q76 0 144 -31t106 -80v94h254v-1032h-254v106q-27 -48 -97 -85t-153 -37q-225 0 -348 142.5t-123 389.5zM891 516q0 147 -66 231t-172 84t-172.5 -84.5t-66.5 -230.5q0 -145 66.5 -230t172.5 -85t172 84t66 231z" />
    <glyph glyph-name="aacute.ss01" 
d="M147 516q0 248 123 390.5t348 142.5q76 0 144 -31t106 -80v94h254v-1032h-254v106q-27 -48 -97 -85t-153 -37q-225 0 -348 142.5t-123 389.5zM891 516q0 147 -66 231t-172 84t-172.5 -84.5t-66.5 -230.5q0 -145 66.5 -230t172.5 -85t172 84t66 231zM555 1147l131 303h344
l-280 -303h-195z" />
    <glyph glyph-name="abreve.ss01" 
d="M147 516q0 248 123 390.5t348 142.5q76 0 144 -31t106 -80v94h254v-1032h-254v106q-27 -48 -97 -85t-153 -37q-225 0 -348 142.5t-123 389.5zM891 516q0 147 -66 231t-172 84t-172.5 -84.5t-66.5 -230.5q0 -145 66.5 -230t172.5 -85t172 84t66 231zM410 1434h186
q0 -25 15.5 -41.5t39.5 -16.5q25 0 40.5 16.5t15.5 41.5h186q0 -94 -67.5 -159t-174.5 -65t-174 65t-67 159z" />
    <glyph glyph-name="acircumflex.ss01" 
d="M147 516q0 248 123 390.5t348 142.5q76 0 144 -31t106 -80v94h254v-1032h-254v106q-27 -48 -97 -85t-153 -37q-225 0 -348 142.5t-123 389.5zM891 516q0 147 -66 231t-172 84t-172.5 -84.5t-66.5 -230.5q0 -145 66.5 -230t172.5 -85t172 84t66 231zM266 1147l350 356h70
l350 -356h-250l-135 141l-135 -141h-250z" />
    <glyph glyph-name="adieresis.ss01" 
d="M147 516q0 248 123 390.5t348 142.5q76 0 144 -31t106 -80v94h254v-1032h-254v106q-27 -48 -97 -85t-153 -37q-225 0 -348 142.5t-123 389.5zM891 516q0 147 -66 231t-172 84t-172.5 -84.5t-66.5 -230.5q0 -145 66.5 -230t172.5 -85t172 84t66 231zM295 1325q0 63 41 104
t104 41t104.5 -41t41.5 -104t-41.5 -104t-104.5 -41t-104 41t-41 104zM717 1325q0 63 41 104t104 41t104.5 -41t41.5 -104t-41.5 -104t-104.5 -41t-104 41t-41 104z" />
    <glyph glyph-name="agrave.ss01" 
d="M147 516q0 248 123 390.5t348 142.5q76 0 144 -31t106 -80v94h254v-1032h-254v106q-27 -48 -97 -85t-153 -37q-225 0 -348 142.5t-123 389.5zM891 516q0 147 -66 231t-172 84t-172.5 -84.5t-66.5 -230.5q0 -145 66.5 -230t172.5 -85t172 84t66 231zM582 1147l-281 303
h344l131 -303h-194z" />
    <glyph glyph-name="amacron.ss01" 
d="M147 516q0 248 123 390.5t348 142.5q76 0 144 -31t106 -80v94h254v-1032h-254v106q-27 -48 -97 -85t-153 -37q-225 0 -348 142.5t-123 389.5zM891 516q0 147 -66 231t-172 84t-172.5 -84.5t-66.5 -230.5q0 -145 66.5 -230t172.5 -85t172 84t66 231zM375 1217v200h549
v-200h-549z" />
    <glyph glyph-name="aogonek.ss01" 
d="M147 516q0 248 123 390.5t348 142.5q76 0 144 -31t106 -80v94h254v-1032h-254v106q-27 -48 -97 -85t-153 -37q-225 0 -348 142.5t-123 389.5zM891 516q0 147 -66 231t-172 84t-172.5 -84.5t-66.5 -230.5q0 -145 66.5 -230t172.5 -85t172 84t66 231zM829 -195
q0 56 32.5 109t84.5 86h176q-118 -93 -118 -160q0 -53 53 -53q30 0 63 20l41 -155q-60 -31 -133 -31q-91 0 -145 49t-54 135z" />
    <glyph glyph-name="aring.ss01" 
d="M147 516q0 248 123 390.5t348 142.5q76 0 144 -31t106 -80v94h254v-1032h-254v106q-27 -48 -97 -85t-153 -37q-225 0 -348 142.5t-123 389.5zM891 516q0 147 -66 231t-172 84t-172.5 -84.5t-66.5 -230.5q0 -145 66.5 -230t172.5 -85t172 84t66 231zM440 1341
q0 91 59.5 150t151.5 59t151.5 -59t59.5 -150t-59.5 -149.5t-151.5 -58.5t-151.5 58.5t-59.5 149.5zM713 1341q0 30 -16.5 48t-45.5 18t-45 -18t-16 -48t16 -47.5t45 -17.5t45.5 17.5t16.5 47.5z" />
    <glyph glyph-name="aringacute.ss01" 
d="M147 516q0 248 123 390.5t348 142.5q76 0 144 -31t106 -80v94h254v-1032h-254v106q-27 -48 -97 -85t-153 -37q-225 0 -348 142.5t-123 389.5zM891 516q0 147 -66 231t-172 84t-172.5 -84.5t-66.5 -230.5q0 -145 66.5 -230t172.5 -85t172 84t66 231zM440 1341
q0 91 59.5 150t151.5 59t151.5 -59t59.5 -150t-59.5 -149.5t-151.5 -58.5t-151.5 58.5t-59.5 149.5zM713 1341q0 30 -16.5 48t-45.5 18t-45 -18t-16 -48t16 -47.5t45 -17.5t45.5 17.5t16.5 47.5zM555 1632l131 303h344l-280 -303h-195z" />
    <glyph glyph-name="atilde.ss01" 
d="M147 516q0 248 123 390.5t348 142.5q76 0 144 -31t106 -80v94h254v-1032h-254v106q-27 -48 -97 -85t-153 -37q-225 0 -348 142.5t-123 389.5zM891 516q0 147 -66 231t-172 84t-172.5 -84.5t-66.5 -230.5q0 -145 66.5 -230t172.5 -85t172 84t66 231zM631 1217
q-41 21 -62.5 28.5t-50.5 7.5q-73 0 -131 -82l-133 107q35 80 104.5 129t147.5 49q47 0 81 -11t79 -36q31 -16 43.5 -21.5t30.5 -10.5t38 -5q67 0 131 88l133 -112q-35 -80 -104 -129.5t-147 -49.5q-46 0 -80 11t-80 37z" />
    <glyph glyph-name="ae.ss01" 
d="M39 516q0 267 85.5 400t227.5 133q44 0 92.5 -22t65.5 -52v57h205v-71q27 36 83.5 62t112.5 26q152 0 236 -122t84 -345v-117h-516q0 -136 47 -211.5t123 -75.5q55 0 88.5 36t68.5 134l177 -49q-45 -160 -126 -237.5t-208 -77.5q-51 0 -97.5 19t-72.5 50v-53h-205v53
q-20 -31 -64.5 -50t-93.5 -19q-142 0 -227.5 132.5t-85.5 399.5zM500 518q0 359 -138 359q-141 0 -141 -361q0 -360 141 -360q138 0 138 362zM711 635h323q0 106 -40.5 174t-108.5 68q-67 0 -120.5 -70t-53.5 -172z" />
    <glyph glyph-name="aeacute.ss01" 
d="M39 516q0 267 85.5 400t227.5 133q44 0 92.5 -22t65.5 -52v57h205v-71q27 36 83.5 62t112.5 26q152 0 236 -122t84 -345v-117h-516q0 -136 47 -211.5t123 -75.5q55 0 88.5 36t68.5 134l177 -49q-45 -160 -126 -237.5t-208 -77.5q-51 0 -97.5 19t-72.5 50v-53h-205v53
q-20 -31 -64.5 -50t-93.5 -19q-142 0 -227.5 132.5t-85.5 399.5zM500 518q0 359 -138 359q-141 0 -141 -361q0 -360 141 -360q138 0 138 362zM711 635h323q0 106 -40.5 174t-108.5 68q-67 0 -120.5 -70t-53.5 -172zM516 1147l131 303h344l-280 -303h-195z" />
    <glyph glyph-name="dcaron.ss02" 
d="M25 516q0 248 123 390.5t348 142.5q73 0 142.5 -32.5t106.5 -78.5v512h254v-1450h-254v106q-27 -48 -96.5 -85t-152.5 -37q-225 0 -348 142.5t-123 389.5zM768 516q0 147 -66 231t-172 84t-172.5 -84.5t-66.5 -230.5q0 -145 66.5 -230t172.5 -85t172 84t66 231z
M1106 1057l-37 49q96 69 123 190q-52 19 -78.5 56t-26.5 80q0 57 41 97t103 40t102.5 -43t40.5 -107q0 -105 -66.5 -190t-201.5 -172z" />
    <glyph glyph-name="gcommaaccent.ss02" 
d="M182 -94q0 127 84 205q-53 65 -53 159q0 142 127 217q-72 90 -72 213q0 155 109 252t270 97q105 0 191 -45l194 102l101 -168l-148 -74q41 -71 41 -164q0 -156 -108 -250t-271 -94q-72 0 -149 23q-49 -27 -49 -78q0 -76 96 -76h211q168 0 265 -79.5t97 -223.5
q0 -117 -67.5 -199.5t-171 -119.5t-230.5 -37q-207 0 -338 88q-129 88 -129 252zM788 700q0 63 -39.5 103.5t-101.5 40.5t-101.5 -40.5t-39.5 -103.5q0 -61 39.5 -100t101.5 -39t101.5 39t39.5 100zM864 -94q0 58 -41.5 82t-124.5 24h-139q-75 0 -119 8q-22 -36 -22 -94
q0 -71 62.5 -109t168.5 -38q102 0 158.5 31.5t56.5 95.5zM502 1300q0 106 66.5 191.5t201.5 171.5l37 -49q-96 -69 -123 -191q52 -19 78 -55.5t26 -79.5q0 -57 -40.5 -97t-102.5 -40t-102.5 42.5t-40.5 106.5z" />
    <glyph glyph-name="kcommaaccent.ss02" 
d="M162 0v1450h254v-801l338 383h307l-440 -473l487 -559h-307l-385 469v-469h-254zM494 -608l-37 49q96 69 123 190q-52 19 -78.5 56t-26.5 80q0 57 40.5 97t102.5 40t103 -43t41 -107q0 -105 -66.5 -190t-201.5 -172z" />
    <glyph glyph-name="lcaron.ss02" 
d="M365 389v828h-265v217h518v-990q0 -215 156 -215q138 0 172 174l223 -45q-26 -183 -129 -278.5t-266 -95.5q-185 0 -297 108.5t-112 296.5zM881 1094l-37 49q96 69 123 190q-52 19 -78.5 55.5t-26.5 79.5q0 57 41 97.5t103 40.5t102.5 -43t40.5 -107q0 -105 -66.5 -190
t-201.5 -172z" />
    <glyph glyph-name="lcommaaccent.ss02" 
d="M365 389v828h-265v217h518v-990q0 -215 156 -215q138 0 172 174l223 -45q-26 -183 -129 -278.5t-266 -95.5q-185 0 -297 108.5t-112 296.5zM639 -608l-37 49q96 69 123 190q-52 19 -78 55.5t-26 80.5q0 57 40.5 97t102.5 40t102.5 -43t40.5 -107q0 -105 -66.5 -190
t-201.5 -172z" />
    <glyph glyph-name="ncommaaccent.ss02" 
d="M180 0v1032h254v-166q57 82 150 132.5t190 50.5q146 0 232 -81.5t86 -230.5v-737h-254v662q0 83 -41 125t-107 42q-110 0 -183 -114t-73 -303v-412h-254zM518 -608l-37 49q96 69 123 190q-52 19 -78 55.5t-26 80.5q0 57 40.5 97t102.5 40t102.5 -43t40.5 -107
q0 -105 -66.5 -190t-201.5 -172z" />
    <glyph glyph-name="rcommaaccent.ss02" 
d="M168 0v1032h254v-158q63 90 158.5 132.5t197.5 42.5q143 0 230 -93.5t94 -261.5h-250q-9 148 -131 148q-126 0 -212.5 -149t-86.5 -378v-315h-254zM178 -608l-37 49q96 69 123 190q-52 19 -78 55.5t-26 80.5q0 57 40.5 97t102.5 40t102.5 -43t40.5 -107
q0 -105 -66.5 -190t-201.5 -172z" />
    <glyph glyph-name="scommaaccent.ss02" 
d="M201 293l229 80q29 -91 84.5 -131.5t149.5 -40.5q74 0 122 27.5t48 70.5q0 41 -47.5 67t-170.5 52q-348 77 -348 332q0 86 52.5 155.5t136 106.5t178.5 37q276 0 403 -232l-182 -127q-74 141 -219 141q-55 0 -94 -25t-39 -63q0 -42 39.5 -67.5t146.5 -48.5
q197 -38 288 -110t91 -202q0 -155 -119 -243q-116 -88 -295 -88q-347 0 -454 309zM522 -608l-37 49q96 69 123 190q-52 19 -78 55.5t-26 80.5q0 57 40.5 97t102.5 40t103 -43t41 -107q0 -105 -67 -190t-202 -172z" />
    <glyph glyph-name="tcaron.ss02" 
d="M371 416v399h-254v217h254v258l254 160v-418h448v-217h-448v-405q0 -103 43.5 -156t126.5 -53q108 0 211 121l86 -205q-133 -133 -297 -133q-208 0 -316 109t-108 323zM942 1094l-37 49q96 69 123 190q-52 19 -78 55.5t-26 79.5q0 57 40.5 97.5t102.5 40.5t102.5 -43
t40.5 -107q0 -105 -66.5 -190t-201.5 -172z" />
    <glyph glyph-name="uni021B.ss02" 
d="M371 416v399h-254v217h254v258l254 160v-418h448v-217h-448v-405q0 -103 43.5 -156t126.5 -53q108 0 211 121l86 -205q-133 -133 -297 -133q-208 0 -316 109t-108 323zM602 -608l-37 49q96 69 123 190q-52 19 -78 55.5t-26 80.5q0 57 40.5 97t102.5 40t102.5 -43
t40.5 -107q0 -105 -66.5 -190t-201.5 -172z" />
    <glyph glyph-name="f_b" 
d="M727 86v-86h-254v1235h-31q-54 0 -74 -30.5t-20 -104.5v-68h70v-217h-70v-815h-254v815h-65v217h65v64q0 354 318 354h315v-492q76 91 188 91q142 0 234 -151t92 -382q0 -244 -87 -388t-239 -144q-122 0 -188 102zM977 516q0 315 -137 315q-135 0 -135 -315t135 -315
q137 0 137 315z" />
    <glyph glyph-name="f_f" 
d="M883 1100v-68h258v-217h-258v-815h-254v815h-180v-815h-254v815h-127v217h127v64q0 173 97 263.5t261 90.5q126 0 219 -59q89 59 215 59q120 0 215 -59l-55 -205q-58 49 -129 49q-63 0 -99 -35t-36 -100zM629 1032v64q0 61 16 123q-37 16 -67 16q-129 0 -129 -135v-68
h180z" />
    <glyph glyph-name="f_h" 
d="M94 0v815h-65v217h65v64q0 354 318 354h356v-492q73 91 209 91q119 0 191.5 -82t72.5 -246v-721h-264v729q0 58 -17.5 80t-56.5 22q-65 0 -100 -65.5t-35 -179.5v-586h-254v1235h-72q-54 0 -74 -30.5t-20 -104.5v-68h84v-217h-84v-815h-254z" />
    <glyph glyph-name="f_i" 
d="M352 0v815h-215v217h215v64q0 176 111 264q116 90 274 90q118 0 203.5 -36.5t151.5 -119.5l-166 -157q-40 57 -80.5 77.5t-95.5 20.5q-64 0 -104 -35.5t-40 -99.5v-68h524v-1032h-253v815h-271v-815h-254z" />
    <glyph glyph-name="f_j" 
d="M698 -434l-61 223q126 32 183 101.5t57 211.5v713h-271v-815h-254v815h-215v217h215v64q0 176 111 264q116 90 274 90q118 0 203.5 -36.5t151.5 -119.5l-166 -157q-40 57 -80.5 77.5t-95.5 20.5q-64 0 -104 -35.5t-40 -99.5v-68h524v-975q0 -205 -129 -325
q-129 -123 -303 -166z" />
    <glyph glyph-name="f_k" 
d="M1018 559l244 -559h-269l-180 469v-469h-254v1233h-74q-116 0 -116 -129v-72h94v-217h-94v-815h-254v815h-105v217h105v53q0 180 93.5 272.5t262.5 92.5h342v-801l133 383h268z" />
    <glyph glyph-name="f_l" 
d="M240 0v815h-131v217h131v53q0 180 93.5 272.5t262.5 92.5h567v-1450h-254v1233h-299q-116 0 -116 -129v-72h217v-217h-217v-815h-254z" />
    <glyph glyph-name="zero.osf" 
d="M1143 516q0 -147 -62 -267.5t-179 -192.5t-267 -72t-267 72t-179 192.5t-62 267.5q0 109 36.5 206.5t102 170t161 114.5t208.5 42t208.5 -42t161 -114.5t102 -170t36.5 -206.5zM373 516q0 -112 45 -186l266 497q-36 4 -49 4q-124 0 -195 -92q-67 -91 -67 -223zM897 516
q0 106 -45 186l-266 -497q46 -4 49 -4q124 0 192 92q70 91 70 223z" />
    <glyph glyph-name="one.osf" 
d="M180 0v238h326v434l-275 -164v278l420 246h113v-794h326v-238h-910z" />
    <glyph glyph-name="two.osf" 
d="M252 0v102l360 361q94 94 117 131q31 45 31 96q0 56 -36 88.5t-97 32.5q-65 0 -108.5 -38t-55.5 -114l-221 37q3 151 113.5 252t269.5 101q183 0 279.5 -98t96.5 -255q0 -87 -37 -151.5t-130 -157.5l-148 -149h340v-238h-774z" />
    <glyph glyph-name="three.osf" 
d="M145 -4l248 33q53 -209 232 -209q101 0 164 65.5t63 173.5q0 119 -61.5 185.5t-163.5 66.5q-67 0 -125 -30l-103 143l271 371h-457v237h821v-90l-338 -457q50 4 58 4q163 0 259.5 -117t96.5 -309q0 -144 -63.5 -254.5t-173.5 -168.5t-248 -58q-196 0 -328.5 116
t-151.5 298z" />
    <glyph glyph-name="four.osf" 
d="M733 -401v266h-606v131l594 1036h270v-930h152v-237h-152v-266h-258zM440 102h293v547z" />
    <glyph glyph-name="five.osf" 
d="M186 -27l244 45q40 -198 215 -198q104 0 158.5 65.5t54.5 188.5q0 121 -58 184.5t-167 63.5q-138 0 -254 -129l-162 32l80 807h737v-237h-526l-33 -299q89 53 203 53q213 0 325.5 -125.5t112.5 -349.5q0 -218 -130 -355t-341 -137q-184 0 -312 107.5t-147 283.5z" />
    <glyph glyph-name="six.osf" 
d="M156 451q0 126 69 251l418 748h287l-312 -532h33q199 0 331 -131.5t132 -335.5q0 -198 -137.5 -332.5t-341.5 -134.5q-132 0 -242 61t-173.5 168t-63.5 238zM856 451q0 104 -61.5 166.5t-159.5 62.5t-159.5 -62.5t-61.5 -166.5q0 -101 63.5 -165.5t157.5 -64.5
q95 0 158 64t63 166z" />
    <glyph glyph-name="seven.osf" 
d="M236 -401l565 1196h-635v237h944v-106l-616 -1327h-258z" />
    <glyph glyph-name="eight.osf" 
d="M168 428q0 238 188 344q-133 108 -133 287q0 162 117.5 276.5t294.5 114.5t294.5 -114.5t117.5 -276.5q0 -182 -136 -287q92 -52 141.5 -139.5t49.5 -204.5q0 -132 -64 -234.5t-169.5 -156t-233.5 -53.5t-233.5 53.5t-169.5 156t-64 234.5zM807 1055q0 80 -47 129
t-125 49t-125 -49t-47 -129q0 -82 47 -132.5t125 -50.5t125 50.5t47 132.5zM844 428q0 95 -58.5 151t-150.5 56t-150.5 -56t-58.5 -151t58.5 -151t150.5 -56t150.5 56t58.5 151z" />
    <glyph glyph-name="nine.osf" 
d="M340 -418l311 533h-33q-199 0 -330.5 131.5t-131.5 335.5q0 198 137.5 332.5t341.5 134.5q132 0 242 -61t173.5 -168t63.5 -238q0 -126 -70 -252l-417 -748h-287zM856 582q0 101 -63.5 165t-157.5 64q-95 0 -158 -64t-63 -165q0 -105 61.5 -167.5t159.5 -62.5t159.5 62.5
t61.5 167.5z" />
    <glyph glyph-name="zero.osf.zero" 
d="M127 516q0 109 36.5 206.5t102 170t161 114.5t208.5 42t208.5 -42t161 -114.5t102 -170t36.5 -206.5q0 -147 -62 -267.5t-179 -192.5t-267 -72t-267 72t-179 192.5t-62 267.5zM897 516q0 132 -70 223q-68 92 -192 92t-195 -92q-67 -91 -67 -223t67 -223q71 -92 195 -92
t192 92q70 91 70 223z" />
    <glyph glyph-name="zero.zero" 
d="M106 717q0 347 138 540t391 193q252 0 390 -193t138 -540t-138 -540t-390 -193q-253 0 -391 193t-138 540zM909 717q0 495 -274 495q-275 0 -275 -495q0 -496 275 -496q274 0 274 496z" />
    <glyph glyph-name="uni2080.zero" 
d="M295 -8q0 197 90.5 307.5t249.5 110.5t249.5 -110.5t90.5 -307.5t-90.5 -307.5t-249.5 -110.5t-249.5 110.5t-90.5 307.5zM786 -8q0 123 -41 185.5t-110 62.5t-110.5 -62.5t-41.5 -185.5t41.5 -185.5t110.5 -62.5t110 62.5t41 185.5z" />
    <glyph glyph-name="uni2070.zero" 
d="M295 1024q0 197 90.5 307.5t249.5 110.5t249.5 -110.5t90.5 -307.5t-90.5 -307.5t-249.5 -110.5t-249.5 110.5t-90.5 307.5zM786 1024q0 123 -41 185.5t-110 62.5t-110.5 -62.5t-41.5 -185.5t41.5 -185.5t110.5 -62.5t110 62.5t41 185.5z" />
    <glyph glyph-name="bullet.case" 
d="M393 717q0 100 70 170q71 71 172 71q99 0 170 -71q72 -72 72 -170q0 -100 -72 -172q-70 -70 -170 -70q-102 0 -172 70t-70 172z" />
    <glyph glyph-name="exclamdown.case" 
d="M805 1282q0 -72 -50.5 -122t-119.5 -50t-119.5 50t-50.5 122q0 70 49.5 119t120.5 49t120.5 -49t49.5 -119zM524 938h221l58 -938h-336z" />
    <glyph glyph-name="questiondown.case" 
d="M803 1278q0 -72 -50.5 -122t-119.5 -50t-119.5 50t-50.5 122q0 70 49.5 119t120.5 49t120.5 -49t49.5 -119zM915 735q0 -95 -55.5 -159t-165.5 -107l-92 -37q-113 -46 -113 -133q0 -50 36 -76t98 -26q63 0 108.5 35.5t65.5 101.5l223 -37q-25 -139 -130 -226t-261 -87
q-172 0 -275.5 88t-103.5 235q0 96 50 159t155 107l77 33q107 44 141 69.5t34 65.5q0 32 -21.5 52t-52.5 20q-83 0 -117 -94l-180 67q36 100 113 155.5t184 55.5q125 0 203.5 -72.5t78.5 -189.5z" />
    <glyph glyph-name="comma.ss02" 
d="M473 -303l-47 63q76 48 117.5 101.5t54.5 124.5q-70 16 -107.5 66.5t-37.5 111.5q0 75 54 128.5t134 53.5q83 0 130.5 -54t47.5 -142q0 -132 -87.5 -238.5t-258.5 -214.5z" />
    <glyph glyph-name="semicolon.ss02" 
d="M453 887q0 78 52 130t130 52t130 -52t52 -130t-52 -130t-130 -52t-130 52t-52 130zM473 -303l-47 63q76 48 117.5 101.5t54.5 124.5q-70 16 -107.5 66.5t-37.5 111.5q0 75 54 128.5t134 53.5q83 0 130.5 -54t47.5 -142q0 -132 -87.5 -238.5t-258.5 -214.5z" />
    <glyph glyph-name="periodcentered.ss04" 
d="M463 717q0 73 49.5 122.5t122.5 49.5t122.5 -49.5t49.5 -122.5t-49.5 -122.5t-122.5 -49.5t-122.5 49.5t-49.5 122.5z" />
    <glyph glyph-name="colon.ss04" 
d="M463 156q0 74 49.5 123t122.5 49t122.5 -49t49.5 -123t-49.5 -123t-122.5 -49t-122.5 49t-49.5 123zM463 852q0 74 49.5 123t122.5 49t122.5 -49t49.5 -123t-49.5 -123t-122.5 -49t-122.5 49t-49.5 123z" />
    <glyph glyph-name="comma.ss04" 
d="M362 -319l138 618h360l-311 -618h-187z" />
    <glyph glyph-name="ellipsis.ss04" 
d="M463 156q0 74 49.5 123t122.5 49t122.5 -49t49.5 -123t-49.5 -123t-122.5 -49t-122.5 49t-49.5 123zM868 156q0 74 49 123t123 49t123 -49t49 -123t-49 -123t-123 -49t-123 49t-49 123zM49 156q0 74 49.5 123t122.5 49t122.5 -49t49.5 -123t-49.5 -123t-122.5 -49
t-122.5 49t-49.5 123z" />
    <glyph glyph-name="period.ss04" 
d="M463 156q0 74 49.5 123t122.5 49t122.5 -49t49.5 -123t-49.5 -123t-122.5 -49t-122.5 49t-49.5 123z" />
    <glyph glyph-name="semicolon.ss04" 
d="M463 881q0 73 49.5 122.5t122.5 49.5t122.5 -49.5t49.5 -122.5t-49.5 -122.5t-122.5 -49.5t-122.5 49.5t-49.5 122.5zM322 -319l137 618h360l-311 -618h-186z" />
    <glyph glyph-name="comma.ss02.ss04" 
d="M477 -307l-41 57q145 115 154 238q-64 22 -95.5 68t-31.5 104q0 68 49.5 118t122.5 50q79 0 128.5 -51t49.5 -130q0 -131 -89.5 -246.5t-246.5 -207.5z" />
    <glyph glyph-name="semicolon.ss02.ss04" 
d="M463 881q0 73 49.5 122.5t122.5 49.5t122.5 -49.5t49.5 -122.5t-49.5 -122.5t-122.5 -49.5t-122.5 49.5t-49.5 122.5zM477 -307l-41 57q145 115 154 238q-64 22 -95.5 68t-31.5 104q0 68 49.5 118t122.5 50q79 0 128.5 -51t49.5 -130q0 -131 -89.5 -246.5t-246.5 -207.5z
" />
    <glyph glyph-name="braceleft.case" 
d="M524 205v237q0 93 -35.5 128.5t-128.5 35.5v221q93 0 128.5 35.5t35.5 128.5v238q0 92 56.5 148.5t148.5 56.5h180v-222h-55q-49 0 -66.5 -19t-17.5 -73v-202q0 -104 -36.5 -147t-115.5 -54q79 -11 115.5 -54t36.5 -147v-203q0 -54 17.5 -73t66.5 -19h55v-221h-180
q-92 0 -148.5 56.5t-56.5 148.5z" />
    <glyph glyph-name="braceright.case" 
d="M745 205q0 -92 -56 -148.5t-148 -56.5h-181v221h56q49 0 66.5 19t17.5 73v203q0 105 36 147.5t115 53.5q-79 11 -115 53.5t-36 147.5v202q0 54 -17.5 73t-66.5 19h-56v222h181q92 0 148 -56.5t56 -148.5v-238q0 -93 35.5 -128.5t128.5 -35.5v-221q-93 0 -128.5 -35.5
t-35.5 -128.5v-237z" />
    <glyph glyph-name="bracketleft.case" 
d="M399 0v1434h471v-222h-225v-991h225v-221h-471z" />
    <glyph glyph-name="bracketright.case" 
d="M870 1434v-1434h-471v221h226v991h-226v222h471z" />
    <glyph glyph-name="parenleft.case" 
d="M424 717q0 147 29 282q29 125 65 211q60 132 107 224h223q-88 -195 -131 -347q-47 -165 -47 -370q0 -223 45 -377q50 -169 131 -340h-221q-59 116 -107 221q-94 226 -94 496z" />
    <glyph glyph-name="parenright.case" 
d="M846 717q0 -275 -96 -496q-36 -85 -105 -221h-221q81 171 131 340q45 154 45 377q0 205 -47 370q-43 152 -131 347h223q62 -122 105 -224q39 -85 65 -211q31 -130 31 -282z" />
    <glyph glyph-name="emdash.case" 
d="M133 606v221h1004v-221h-1004z" />
    <glyph glyph-name="endash.case" 
d="M215 606v221h838v-221h-838z" />
    <glyph glyph-name="hyphen.case" 
d="M279 606v221h714v-221h-714z" />
    <glyph glyph-name="uni00AD.case" 
d="M279 539v221h714v-221h-714z" />
    <glyph glyph-name="guillemotleft.case" 
d="M694 186l-633 447v168l633 446v-262l-379 -268l379 -268v-263zM1206 186l-633 447v168l633 446v-262l-379 -268l379 -268v-263z" />
    <glyph glyph-name="guillemotright.case" 
d="M63 186v263l379 268l-379 268v262l633 -446v-168zM575 186v263l379 268l-379 268v262l633 -446v-168z" />
    <glyph glyph-name="guilsinglleft.case" 
d="M950 186l-633 447v168l633 446v-262l-379 -268l379 -268v-263z" />
    <glyph glyph-name="guilsinglright.case" 
d="M319 186v263l379 268l-379 268v262l633 -446v-168z" />
    <glyph glyph-name="quotedblbase.ss02" 
d="M606 147q0 -132 -87 -238t-259 -214l-47 63q76 48 117.5 101.5t54.5 124.5q-70 16 -107.5 66.5t-37.5 111.5q0 75 54 128.5t134 53.5q83 0 130.5 -54.5t47.5 -142.5zM1057 147q0 -132 -87 -238t-259 -214l-47 63q76 48 117.5 101.5t54.5 124.5q-70 16 -108 66.5
t-38 111.5q0 75 54 128.5t135 53.5q83 0 130.5 -54.5t47.5 -142.5z" />
    <glyph glyph-name="quotedblleft.ss02" 
d="M664 997q0 132 87.5 238.5t258.5 214.5l47 -64q-76 -48 -117.5 -101t-54.5 -124q70 -16 107.5 -66.5t37.5 -111.5q0 -75 -54 -128.5t-134 -53.5q-83 0 -130.5 54t-47.5 142zM213 997q0 132 87.5 238.5t258.5 214.5l47 -64q-76 -48 -117.5 -101t-54.5 -124
q70 -16 108 -66.5t38 -111.5q0 -75 -54 -128.5t-135 -53.5q-83 0 -130.5 54t-47.5 142z" />
    <glyph glyph-name="quotedblright.ss02" 
d="M606 1253q0 -132 -87 -238t-259 -214l-47 63q76 48 117.5 101.5t54.5 124.5q-70 16 -107.5 66.5t-37.5 111.5q0 75 54 128.5t134 53.5q83 0 130.5 -54.5t47.5 -142.5zM1057 1253q0 -132 -87 -238t-259 -214l-47 63q76 48 117.5 101.5t54.5 124.5q-70 16 -108 66.5
t-38 111.5q0 75 54 128.5t135 53.5q83 0 130.5 -54.5t47.5 -142.5z" />
    <glyph glyph-name="quoteleft.ss02" 
d="M438 997q0 132 87.5 238.5t258.5 214.5l47 -64q-76 -48 -117.5 -101t-54.5 -124q70 -16 108 -66.5t38 -111.5q0 -75 -54 -128.5t-135 -53.5q-83 0 -130.5 54t-47.5 142z" />
    <glyph glyph-name="quoteright.ss02" 
d="M831 1253q0 -132 -87 -238t-259 -214l-47 63q76 48 117.5 101.5t54.5 124.5q-70 16 -107.5 66.5t-37.5 111.5q0 75 54 128.5t134 53.5q83 0 130.5 -54.5t47.5 -142.5z" />
    <glyph glyph-name="quotesinglbase.ss02" 
d="M831 147q0 -132 -87 -238t-259 -214l-47 63q76 48 117.5 101.5t54.5 124.5q-70 16 -107.5 66.5t-37.5 111.5q0 75 54 128.5t134 53.5q83 0 130.5 -54.5t47.5 -142.5z" />
    <glyph glyph-name="uni037E.ss02.001" 
d="M473 887q0 78 52 130t130 52t130.5 -52t52.5 -130t-52.5 -130t-130.5 -52t-130 52t-52 130zM494 -303l-48 63q76 48 117.5 101.5t54.5 124.5q-70 16 -107.5 66.5t-37.5 111.5q0 75 54 128.5t135 53.5q83 0 130.5 -54t47.5 -142q0 -132 -87.5 -238.5t-258.5 -214.5z" />
    <glyph glyph-name="uni037E.ss04" 
d="M483 881q0 73 49.5 122.5t122.5 49.5t122.5 -49.5t49.5 -122.5t-49.5 -122.5t-122.5 -49.5t-122.5 49.5t-49.5 122.5zM498 -307l-41 57q144 114 153 238q-64 22 -95.5 68t-31.5 104q0 68 49.5 118t122.5 50q79 0 129 -51t50 -130q0 -131 -89.5 -246.5t-246.5 -207.5z" />
    <glyph glyph-name="arrowup.ss03" 
d="M526 102v781l-264 -260l-149 145l522 522l522 -522l-149 -145l-265 260v-781h-217z" />
    <glyph glyph-name="uni2197.ss03" 
d="M330 258l-154 154l553 553l-375 2v209h740v-740h-209l-2 375z" />
    <glyph glyph-name="arrowright.ss03" 
d="M707 195l-146 149l260 264h-782v217h782l-260 265l146 149l522 -522z" />
    <glyph glyph-name="uni2198.ss03" 
d="M354 258v209l375 2l-553 553l154 154l553 -553l2 374h209v-739h-740z" />
    <glyph glyph-name="arrowdown.ss03" 
d="M526 1296h217v-782l263 260l151 -145l-522 -523l-524 523l151 145l264 -260v782z" />
    <glyph glyph-name="uni2199.ss03" 
d="M176 258v735h209l2 -370l553 553l154 -154l-553 -553l370 -2v-209h-735z" />
    <glyph glyph-name="arrowleft.ss03" 
d="M1231 842v-217h-782l260 -265l-146 -151l-522 524l522 522l146 -151l-260 -262h782z" />
    <glyph glyph-name="uni2196.ss03" 
d="M940 258l-553 553l-2 -371h-209v736h735v-209l-370 -2l553 -553z" />
    <glyph glyph-name="caroncomb.alt" horiz-adv-x="0" 
d="M-791 1110l52 377h278l-168 -377h-162z" />
    <glyph glyph-name="uni0308.cap" horiz-adv-x="0" 
d="M-989 1726q0 63 41 104.5t104 41.5t104.5 -41.5t41.5 -104.5t-41.5 -104t-104.5 -41t-104 41t-41 104zM-567 1726q0 63 41 104.5t104 41.5t104.5 -41.5t41.5 -104.5t-41.5 -104t-104.5 -41t-104 41t-41 104z" />
    <glyph glyph-name="uni0307.cap" horiz-adv-x="0" 
d="M-799 1729q0 69 47.5 116t116.5 47t116.5 -47t47.5 -116t-47.5 -116.5t-116.5 -47.5t-116.5 47.5t-47.5 116.5z" />
    <glyph glyph-name="gravecomb.cap" horiz-adv-x="0" 
d="M-592 1548l-280 303h344l131 -303h-195z" />
    <glyph glyph-name="acutecomb.cap" horiz-adv-x="0" 
d="M-872 1548l131 303h344l-281 -303h-194z" />
    <glyph glyph-name="uni030B.cap" horiz-adv-x="0" 
d="M-1104 1548l131 303h344l-282 -303h-193zM-688 1548l131 303h344l-283 -303h-192z" />
    <glyph glyph-name="uni0302.cap" horiz-adv-x="0" 
d="M-1020 1548l350 357h70l350 -357h-250l-135 142l-135 -142h-250z" />
    <glyph glyph-name="uni030C.cap" horiz-adv-x="0" 
d="M-670 1548l-350 357h250l135 -142l135 142h250l-350 -357h-70z" />
    <glyph glyph-name="uni0306.cap" horiz-adv-x="0" 
d="M-877 1835h187q0 -25 15 -41t40 -16t40 16t15 41h187q0 -94 -67.5 -158.5t-174.5 -64.5t-174.5 64.5t-67.5 158.5z" />
    <glyph glyph-name="uni030A.cap" horiz-adv-x="0" 
d="M-846 1743q0 91 59.5 150t151.5 59t151.5 -59t59.5 -150t-59.5 -150t-151.5 -59t-151.5 59t-59.5 150zM-573 1743q0 30 -16.5 47.5t-45.5 17.5t-45 -17.5t-16 -47.5t16 -48t45 -18t45.5 18t16.5 48z" />
    <glyph glyph-name="tildecomb.cap" horiz-adv-x="0" 
d="M-657 1618q-30 15 -43.5 21t-31.5 11t-38 5q-73 0 -131 -82l-133 106q35 80 104.5 129.5t147.5 49.5q46 0 79.5 -11t79.5 -37q41 -21 62.5 -28.5t50.5 -7.5q67 0 131 88l133 -113q-35 -80 -104.5 -129t-147.5 -49q-46 0 -80 11t-79 36z" />
    <glyph glyph-name="uni0304.cap" horiz-adv-x="0" 
d="M-909 1618v201h549v-201h-549z" />
    <glyph glyph-name="uni0327.cap" horiz-adv-x="0" 
d="M-567 -545l-303 135l288 287h185z" />
    <glyph glyph-name="uni0328.cap" horiz-adv-x="0" 
d="M-801 -195q0 56 32.5 109t84.5 86h176q-119 -94 -119 -160q0 -53 54 -53q30 0 63 20l41 -155q-60 -31 -133 -31q-91 0 -145 49t-54 135z" />
    <glyph glyph-name="uni0335.cap" horiz-adv-x="0" 
d="M-1020 606v221h770v-221h-770z" />
    <glyph glyph-name="uni0337.cap" horiz-adv-x="0" 
d="M-946 444l-94 203l716 332l97 -201z" />
    <glyph glyph-name="uni0338.cap" horiz-adv-x="0" 
d="M-1094 -84l-176 129l1143 1473l176 -129z" />
    <glyph glyph-name="caroncomb.alt.ss02" horiz-adv-x="0" 
d="M-750 1094l-36 49q95 68 122 190q-52 19 -78 55.5t-26 79.5q0 57 40.5 97.5t102.5 40.5t103 -43t41 -107q0 -105 -67 -190t-202 -172z" />
    <glyph glyph-name="uni0312.ss02" horiz-adv-x="0" 
d="M-788 1300q0 106 66.5 191.5t201.5 171.5l37 -49q-96 -69 -123 -191q52 -19 78 -55.5t26 -79.5q0 -57 -40.5 -97t-102.5 -40t-102.5 42.5t-40.5 106.5z" />
    <glyph glyph-name="uni0326.ss02" horiz-adv-x="0" 
d="M-750 -608l-36 49q95 68 122 190q-52 19 -78 55.5t-26 80.5q0 57 40.5 97t102.5 40t103 -43t41 -107q0 -105 -67 -190t-202 -172z" />
    <glyph glyph-name="brevecombcy" horiz-adv-x="0" 
d="M-877 1434h187q0 -25 15.5 -41.5t39.5 -16.5t39.5 16.5t15.5 41.5h187q0 -94 -67.5 -159t-174.5 -65t-174.5 65t-67.5 159z" />
    <glyph glyph-name="tonoscomb" 
d="M397 1147l86 303h336l-229 -303h-193z" />
    <glyph glyph-name="dieresistonoscomb" 
d="M473 1147l86 303h275l-209 -303h-152zM217 1290q0 48 32 81.5t79 33.5q49 0 81.5 -32.5t32.5 -82.5q0 -47 -32.5 -78.5t-81.5 -31.5q-47 0 -79 31.5t-32 78.5zM825 1290q0 47 33 81t78 34q49 0 82 -33.5t33 -81.5q0 -47 -33 -78.5t-82 -31.5q-44 0 -77.5 33t-33.5 77z
" />
  </font>
</defs>
</svg>
