<?xml version="1.0" standalone="no"?>
<!DOCTYPE svg PUBLIC "-//W3C//DTD SVG 1.1//EN" "http://www.w3.org/Graphics/SVG/1.1/DTD/svg11.dtd" >
<svg xmlns="http://www.w3.org/2000/svg" xmlns:xlink="http://www.w3.org/1999/xlink" version="1.1">
<metadata>
Created by FontForge 20170731 at Sun Feb 14 19:15:07 2021
 By Aleksey,,,
Copyright (c) 2018 by Colophon Foundry. All rights reserved.
</metadata>
<defs>
<font id="ApercuPro-Thin" horiz-adv-x="1269" >
  <font-face 
    font-family="Apercu Pro Thin"
    font-weight="250"
    font-stretch="normal"
    units-per-em="2048"
    panose-1="2 11 2 3 5 6 1 4 1 3"
    ascent="1614"
    descent="-434"
    x-height="1032"
    cap-height="1434"
    bbox="-1200 -434 2355 2255"
    underline-thickness="126"
    underline-position="-454"
    unicode-range="U+000D-FB02"
  />
<missing-glyph horiz-adv-x="1173" 
d="M184 0v1434h805v-1434h-805zM238 53h698v1327h-698v-1327z" />
    <glyph glyph-name="f_f" unicode="ff" horiz-adv-x="1140" 
d="M193 0v983h-168v49h168v125q0 144 65 218.5t178 74.5q66 0 119 -27l-14 -47q-48 25 -105 25q-89 0 -139.5 -59.5t-50.5 -178.5v-131h520v125q0 144 65.5 218.5t178.5 74.5q66 0 118 -27l-14 -47q-48 25 -104 25q-89 0 -140 -59.5t-51 -178.5v-131h230v-49h-230v-983h-53
v983h-520v-983h-53z" />
    <glyph glyph-name="f_f_i" unicode="ffi" horiz-adv-x="1523" 
d="M193 0v983h-168v49h168v125q0 144 65 218.5t178 74.5q66 0 119 -27l-14 -47q-48 25 -105 25q-89 0 -139.5 -59.5t-50.5 -178.5v-131h520v64q0 165 99 259.5t247 94.5q134 0 248 -66l-10 -51q-109 68 -238 68q-128 0 -210.5 -79t-82.5 -220v-70h574v-1032h-54v983h-520
v-983h-53v983h-520v-983h-53z" />
    <glyph glyph-name="f_f_l" unicode="ffl" horiz-adv-x="1552" 
d="M193 0v983h-168v49h168v125q0 144 65 218.5t178 74.5q66 0 119 -27l-14 -47q-48 25 -105 25q-89 0 -139.5 -59.5t-50.5 -178.5v-131h520v125q0 144 65.5 218.5t178.5 74.5h383v-1450h-54v1401h-329q-89 0 -140 -59.5t-51 -178.5v-131h230v-49h-230v-983h-53v983h-520
v-983h-53z" />
    <glyph glyph-name="f_i" unicode="fi" horiz-adv-x="978" 
d="M193 0v983h-168v49h168v64q0 165 99 259.5t247 94.5q133 0 247 -66l-10 -51q-109 68 -237 68t-210.5 -79t-82.5 -220v-70h573v-1032h-53v983h-520v-983h-53z" />
    <glyph glyph-name="f_l" unicode="fl" horiz-adv-x="978" 
d="M193 0v983h-168v49h168v125q0 144 65 218.5t178 74.5h383v-1450h-53v1401h-330q-89 0 -139.5 -59.5t-50.5 -178.5v-131h229v-49h-229v-983h-53z" />
    <glyph glyph-name=".notdef" horiz-adv-x="1173" 
d="M184 0v1434h805v-1434h-805zM238 53h698v1327h-698v-1327z" />
    <glyph glyph-name=".null" horiz-adv-x="0" 
 />
    <glyph glyph-name="nonmarkingreturn" horiz-adv-x="682" 
 />
    <glyph glyph-name="CR" unicode="&#xd;" horiz-adv-x="516" 
 />
    <glyph glyph-name="space" unicode=" " horiz-adv-x="516" 
 />
    <glyph glyph-name="exclam" unicode="!" horiz-adv-x="483" 
d="M221 311l-12 1123h65l-12 -1123h-41zM184 53q0 25 16.5 41.5t41.5 16.5t41 -16.5t16 -41.5t-16 -41t-41 -16t-41.5 16t-16.5 41z" />
    <glyph glyph-name="quotedbl" unicode="&#x22;" horiz-adv-x="602" 
d="M125 1032l-23 418h91l-23 -418h-45zM432 1032l-22 418h90l-23 -418h-45z" />
    <glyph glyph-name="numbersign" unicode="#" horiz-adv-x="1259" 
d="M236 0l96 469h-250v49h260l80 397h-258v50h268l96 469h54l-97 -469h389l97 469h53l-96 -469h250v-50h-260l-80 -397h258v-49h-269l-96 -469h-53l96 469h-389l-96 -469h-53zM395 518h389l80 397h-389z" />
    <glyph glyph-name="dollar" unicode="$" horiz-adv-x="983" 
d="M512 -16v-168h-45v170q-150 10 -246.5 108.5t-134.5 267.5l47 23q25 -160 125.5 -258t241.5 -98q144 0 235.5 95.5t91.5 258.5q0 94 -34.5 160t-102.5 114t-186 95q-346 138 -346 370q0 144 88 232q90 90 221 96v168h45v-168q201 -15 287 -215l-45 -27q-82 193 -271 193
q-117 0 -194.5 -76.5t-77.5 -194.5q0 -115 76.5 -191.5t244.5 -145.5q185 -75 267 -165.5t82 -238.5q0 -181 -104.5 -290t-264.5 -115z" />
    <glyph glyph-name="percent" unicode="%" horiz-adv-x="1703" 
d="M317 -29l-43 35l1110 1464l43 -34zM127 1122q0 137 88.5 232.5t220.5 95.5t220.5 -95.5t88.5 -232.5q0 -136 -88.5 -231.5t-220.5 -95.5t-220.5 95.5t-88.5 231.5zM692 1122q0 119 -72 199t-184 80t-184 -80t-72 -199t72 -198.5t184 -79.5t184 79.5t72 198.5zM958 311
q0 136 89 232t221 96t220.5 -95.5t88.5 -232.5q0 -136 -88.5 -231.5t-220.5 -95.5t-221 95.5t-89 231.5zM1524 311q0 119 -72 199t-184 80t-184 -80t-72 -199t72 -198.5t184 -79.5t184 79.5t72 198.5z" />
    <glyph glyph-name="ampersand" unicode="&#x26;" horiz-adv-x="1132" 
d="M86 391q0 142 73 247t218 187q-74 94 -111 171t-37 155q0 137 81.5 218t203.5 81q133 0 210 -73.5t77 -192.5q0 -114 -79.5 -197t-268.5 -178l417 -516q64 116 111 274l33 -45q-57 -169 -113 -266l207 -256h-59l-175 213q-74 -117 -171.5 -173t-229.5 -56
q-179 0 -283 107t-104 300zM748 1182q0 102 -60.5 160.5t-173.5 58.5q-101 0 -166 -66.5t-65 -179.5q0 -83 30 -147q40 -75 109 -160q112 59 174 98q152 95 152 236zM844 250l-436 536q-138 -79 -203.5 -175t-65.5 -224q0 -168 89.5 -261t244.5 -93q235 0 371 217z" />
    <glyph glyph-name="quotesingle" unicode="'" horiz-adv-x="294" 
d="M125 1032l-23 418h91l-23 -418h-45z" />
    <glyph glyph-name="parenleft" unicode="(" horiz-adv-x="428" 
d="M106 717q0 458 224 819h53q-223 -343 -223 -819t223 -819h-53q-224 361 -224 819z" />
    <glyph glyph-name="parenright" unicode=")" horiz-adv-x="428" 
d="M268 717q0 476 -223 819h53q224 -361 224 -819t-224 -819h-53q223 343 223 819z" />
    <glyph glyph-name="asterisk" unicode="*" horiz-adv-x="897" 
d="M270 819l-43 31l179 248l-289 92l16 51l289 -94v303h53v-303l289 94l16 -51l-288 -92l178 -248l-43 -31l-178 248z" />
    <glyph glyph-name="plus" unicode="+" horiz-adv-x="1044" 
d="M496 268v355h-353v49h353v352h53v-352h352v-49h-352v-355h-53z" />
    <glyph glyph-name="comma" unicode="," horiz-adv-x="327" 
d="M61 -117l95 297h69l-123 -297h-41z" />
    <glyph glyph-name="hyphen" unicode="-" horiz-adv-x="878" 
d="M143 625v49h592v-49h-592z" />
    <glyph glyph-name="period" unicode="." horiz-adv-x="360" 
d="M123 53q0 25 16 41.5t41 16.5t41.5 -16.5t16.5 -41.5t-16.5 -41t-41.5 -16t-41 16t-16 41z" />
    <glyph glyph-name="slash" unicode="/" horiz-adv-x="978" 
d="M16 -102l893 1638h54l-893 -1638h-54z" />
    <glyph glyph-name="zero" unicode="0" horiz-adv-x="1167" 
d="M115 717q0 331 121 532q124 201 348 201q225 0 346 -201q123 -199 123 -532q0 -335 -123 -535q-119 -198 -346 -198q-226 0 -348 198q-121 201 -121 535zM999 717q0 203 -48.5 357t-143 240.5t-223.5 86.5t-223.5 -86.5t-143.5 -240.5t-49 -357t49 -357t143.5 -240.5
t223.5 -86.5t223.5 86.5t143 240.5t48.5 357z" />
    <glyph glyph-name="one" unicode="1" horiz-adv-x="583" 
d="M346 0v1360l-240 -148v58l261 164h32v-1434h-53z" />
    <glyph glyph-name="two" unicode="2" horiz-adv-x="931" 
d="M66 0v20l518 697q87 116 127 205q32 74 32 178q0 142 -79 221.5t-220 79.5q-128 0 -211.5 -78t-103.5 -231l-49 10q23 169 118 258.5t246 89.5q166 0 259.5 -93t93.5 -257q0 -109 -35 -193q-33 -80 -131 -213l-481 -645h686v-49h-770z" />
    <glyph glyph-name="three" unicode="3" horiz-adv-x="1036" 
d="M98 379l52 8q27 -172 119.5 -263t248.5 -91q170 0 268.5 109.5t98.5 295.5t-96.5 295t-260.5 109q-81 0 -137 -37l-33 37l410 542h-604v50h686v-21l-410 -541q44 19 111 19q163 0 275 -127t112 -326q0 -204 -115.5 -329t-304.5 -125q-175 0 -282 102t-138 293z" />
    <glyph glyph-name="four" unicode="4" horiz-adv-x="997" 
d="M715 0v369h-625v20l617 1045h61v-1016h164v-49h-164v-369h-53zM164 418h551v934z" />
    <glyph glyph-name="five" unicode="5" horiz-adv-x="987" 
d="M94 365l51 8q20 -156 109.5 -248t243.5 -92q166 0 262 115.5t96 318.5t-93 318.5t-255 115.5q-103 0 -186 -47.5t-134 -128.5l-47 12l105 697h583v-50h-542l-92 -585q52 69 136 110t189 41q171 0 280 -131.5t109 -351.5q0 -221 -114 -352t-297 -131q-174 0 -277 103.5
t-127 277.5z" />
    <glyph glyph-name="six" unicode="6" horiz-adv-x="1056" 
d="M98 451q0 149 103 323l401 676h62l-369 -612q31 31 101.5 55.5t131.5 24.5q191 0 310.5 -133t119.5 -334q0 -200 -121.5 -333.5t-308.5 -133.5t-308.5 133.5t-121.5 333.5zM905 451q0 176 -107 296.5t-270 120.5t-269.5 -120.5t-106.5 -296.5q0 -177 106.5 -297.5
t269.5 -120.5t270 121t107 297z" />
    <glyph glyph-name="seven" unicode="7" horiz-adv-x="847" 
d="M168 0l551 1384h-649v50h712v-21l-561 -1413h-53z" />
    <glyph glyph-name="eight" unicode="8" horiz-adv-x="1032" 
d="M102 391q0 142 77 243t198 134q-97 32 -159 120t-62 206q0 156 101.5 256t258.5 100t259 -100t102 -256q0 -118 -62.5 -206t-159.5 -120q121 -33 198 -134t77 -243q0 -189 -112 -298t-302 -109t-302 109t-112 298zM827 1096q0 135 -87 220t-224 85t-224 -85t-87 -220
t87 -220t224 -85t224 85t87 220zM877 387q0 163 -99 258.5t-262 95.5t-261.5 -95.5t-98.5 -258.5t98.5 -258.5t261.5 -95.5t262 95.5t99 258.5z" />
    <glyph glyph-name="nine" unicode="9" horiz-adv-x="1056" 
d="M393 -16l369 612q-31 -31 -102 -55.5t-132 -24.5q-192 0 -311 133t-119 334q0 200 121.5 333.5t308.5 133.5t308.5 -133.5t121.5 -333.5q0 -151 -102 -324l-401 -675h-62zM905 983q0 176 -107 297t-270 121t-269.5 -120.5t-106.5 -297.5t106.5 -297.5t269.5 -120.5
t270 121t107 297z" />
    <glyph glyph-name="colon" unicode=":" horiz-adv-x="360" 
d="M123 881q0 25 16 41t41 16t41.5 -16t16.5 -41t-16.5 -41.5t-41.5 -16.5t-41 16.5t-16 41.5zM123 53q0 25 16 41.5t41 16.5t41.5 -16.5t16.5 -41.5t-16.5 -41t-41.5 -16t-41 16t-16 41z" />
    <glyph glyph-name="semicolon" unicode=";" horiz-adv-x="354" 
d="M137 803q0 25 16.5 41t41.5 16t41 -16t16 -41t-16 -41.5t-41 -16.5t-41.5 16.5t-16.5 41.5zM61 -117l95 297h69l-123 -297h-41z" />
    <glyph glyph-name="less" unicode="&#x3c;" horiz-adv-x="876" 
d="M750 242l-635 364v58l635 364v-53l-590 -340l590 -340v-53z" />
    <glyph glyph-name="equal" unicode="=" horiz-adv-x="1044" 
d="M143 786v50h758v-50h-758zM143 459v49h758v-49h-758z" />
    <glyph glyph-name="greater" unicode="&#x3e;" horiz-adv-x="876" 
d="M127 242v53l590 340l-590 340v53l635 -364v-58z" />
    <glyph glyph-name="question" unicode="?" horiz-adv-x="811" 
d="M176 625q0 91 57.5 161.5t176.5 135.5q149 81 197 137.5t48 138.5q0 90 -66 146.5t-179 56.5q-99 0 -165.5 -60.5t-90.5 -179.5l-52 10q24 133 110 206t212 73q124 0 204.5 -71.5t80.5 -178.5q0 -96 -52.5 -159t-207.5 -152q-124 -70 -172 -127.5t-48 -140.5
q0 -85 50 -135t129 -50q77 0 119.5 42t62.5 143l49 -13q-50 -221 -231 -221q-102 0 -167 63t-65 175zM356 53q0 25 16.5 41.5t41.5 16.5t41 -16.5t16 -41.5t-16 -41t-41 -16t-41.5 16t-16.5 41z" />
    <glyph glyph-name="at" unicode="@" horiz-adv-x="1757" 
d="M123 616q-2 154 39.5 291.5t117 239.5t175 176.5t215.5 111.5t237 35q338 0 532.5 -199t194.5 -550q0 -239 -91 -369.5t-243 -130.5q-89 0 -138.5 58t-49.5 143q-43 -92 -123 -146.5t-186 -54.5q-139 0 -227.5 103t-88.5 280q0 193 109.5 323t277.5 130q90 0 165.5 -52.5
t99.5 -138.5l28 176h45l-49 -542q-4 -46 -4 -64q0 -166 150 -166q125 0 198.5 120.5t73.5 330.5q0 332 -179 516t-505 184q-110 2 -216.5 -33.5t-198 -106t-161 -167t-108.5 -225.5t-37 -273q-2 -173 53.5 -317.5t152.5 -241t229.5 -149t283.5 -51.5q154 0 270 30.5
t234 106.5l24 -45q-144 -81 -254 -109q-115 -33 -274 -33q-162 -2 -304.5 55t-246.5 160.5t-163.5 257.5t-57.5 336zM1126 680q0 153 -68 240.5t-192 87.5q-146 0 -235.5 -117t-89.5 -293q0 -158 73 -243t203 -85q93 0 165 58t108 150.5t36 201.5z" />
    <glyph glyph-name="A" unicode="A" horiz-adv-x="1146" 
d="M25 0l518 1434h61l518 -1434h-53l-162 446h-667l-162 -446h-53zM258 496h631l-316 874z" />
    <glyph glyph-name="B" unicode="B" horiz-adv-x="1179" 
d="M184 0v1434h441q179 0 276.5 -90.5t97.5 -256.5q0 -116 -54.5 -195t-147.5 -116q120 -30 192 -128t72 -253q0 -189 -107 -292t-297 -103h-473zM238 791h387q154 0 237.5 77.5t83.5 218.5t-85.5 219t-235.5 78h-387v-593zM238 49h403q179 0 273 87t94 259t-94 259t-273 87
h-403v-692z" />
    <glyph glyph-name="C" unicode="C" horiz-adv-x="1329" 
d="M106 717q-2 139 30.5 259t90 206.5t135 148t166 91t181.5 28.5q199 0 333.5 -100.5t184.5 -282.5l-51 -14q-43 165 -164 256.5t-303 91.5q-106 2 -204.5 -43t-176.5 -128.5t-124 -216.5t-44 -296q-2 -163 44 -296t124 -216.5t176.5 -128.5t204.5 -43q174 0 289.5 94.5
t170.5 269.5l50 -16q-55 -185 -189 -291t-321 -106q-121 0 -229 48t-192 137.5t-133 231t-49 316.5z" />
    <glyph glyph-name="D" unicode="D" horiz-adv-x="1282" 
d="M184 0v1434h371q132 0 243.5 -44.5t196.5 -130.5t133 -225t48 -317t-48 -317t-133 -225t-196.5 -130.5t-243.5 -44.5h-371zM238 49h319q119 0 220.5 41.5t179 122t121.5 210t44 294.5t-44 294.5t-121.5 209.5t-179 121.5t-220.5 41.5h-319v-1335z" />
    <glyph glyph-name="E" unicode="E" horiz-adv-x="1056" 
d="M184 0v1434h738v-50h-684v-596h561v-49h-561v-690h704v-49h-758z" />
    <glyph glyph-name="F" unicode="F" horiz-adv-x="1026" 
d="M184 0v1434h768v-50h-714v-612h591v-49h-591v-723h-54z" />
    <glyph glyph-name="G" unicode="G" horiz-adv-x="1366" 
d="M106 717q-2 172 46 313.5t132.5 232.5t196 140t236.5 47q196 0 326 -103t180 -290l-52 -19q-48 174 -165 268.5t-289 94.5q-116 0 -216.5 -45t-177 -129.5t-120 -216t-43.5 -293.5q0 -163 43 -293.5t118.5 -215.5t176.5 -130t219 -45q208 0 337 156.5t132 435.5h-352v49
h405v-674h-41l-12 225v133q-42 -173 -167 -273.5t-302 -100.5q-133 0 -244.5 48t-193.5 138.5t-127.5 230.5t-45.5 316z" />
    <glyph glyph-name="H" unicode="H" horiz-adv-x="1302" 
d="M184 0v1434h54v-646h827v646h53v-1434h-53v739h-827v-739h-54z" />
    <glyph glyph-name="I" unicode="I" horiz-adv-x="421" 
d="M184 0v1434h54v-1434h-54z" />
    <glyph glyph-name="J" unicode="J" horiz-adv-x="978" 
d="M61 346l48 10q21 -156 103.5 -239.5t223.5 -83.5q156 0 243 95t87 278v1028h53v-1031q0 -199 -104 -309t-279 -110q-160 0 -255 95.5t-120 266.5z" />
    <glyph glyph-name="K" unicode="K" horiz-adv-x="974" 
d="M184 0v1434h54v-637l587 637h68l-598 -648l647 -786h-65l-639 776v-776h-54z" />
    <glyph glyph-name="L" unicode="L" horiz-adv-x="991" 
d="M184 0v1434h54v-1385h671v-49h-725z" />
    <glyph glyph-name="M" unicode="M" horiz-adv-x="1499" 
d="M184 0v1434h66l500 -1225l499 1225h66v-1434h-53v1323l-490 -1192h-45l-489 1192v-1323h-54z" />
    <glyph glyph-name="N" unicode="N" horiz-adv-x="1323" 
d="M184 0v1434h62l839 -1348v1348h54v-1434h-62l-839 1352v-1352h-54z" />
    <glyph glyph-name="O" unicode="O" horiz-adv-x="1437" 
d="M106 717q0 163 48.5 301.5t132 232.5t195.5 146.5t237 52.5t237 -52.5t195 -146.5t131.5 -232.5t48.5 -301.5t-48.5 -301.5t-131.5 -232.5t-195 -146.5t-237 -52.5t-237 52.5t-195.5 146.5t-132 232.5t-48.5 301.5zM1278 717q0 154 -45 284t-121.5 217t-178 135
t-214.5 48t-214.5 -48t-178 -135t-121.5 -217t-45 -284t45 -284t121.5 -217t178 -135t214.5 -48t214.5 48t178 135t121.5 217t45 284z" />
    <glyph glyph-name="P" unicode="P" horiz-adv-x="1140" 
d="M184 0v1434h443q197 0 310.5 -101.5t113.5 -279.5t-113.5 -279.5t-310.5 -101.5h-389v-672h-54zM238 721h391q179 0 273.5 86t94.5 246t-94.5 245.5t-273.5 85.5h-391v-663z" />
    <glyph glyph-name="Q" unicode="Q" horiz-adv-x="1437" 
d="M106 717q0 163 48.5 301.5t132 232.5t195.5 146.5t237 52.5t237 -52.5t195 -146.5t131.5 -232.5t48.5 -301.5q0 -171 -51.5 -314.5t-146.5 -242.5l145 -146l-31 -30l-147 147q-159 -147 -381 -147q-125 0 -237 52.5t-195.5 146.5t-132 232.5t-48.5 301.5zM1065 166
l-180 180l30 31l181 -180q87 92 134.5 225t47.5 295q0 154 -45 284t-121.5 217t-178 135t-214.5 48t-214.5 -48t-178 -135t-121.5 -217t-45 -284t45 -284t121.5 -217t178 -135t214.5 -48q198 0 346 133z" />
    <glyph glyph-name="R" unicode="R" horiz-adv-x="1193" 
d="M184 0v1434h453q167 0 264.5 -93t97.5 -249q0 -152 -92 -244t-252 -98l469 -750h-61l-471 750h-354v-750h-54zM238 799h387q155 0 238 76.5t83 216.5t-83 216t-238 76h-387v-585z" />
    <glyph glyph-name="S" unicode="S" horiz-adv-x="983" 
d="M86 362l47 23q25 -160 125.5 -258t241.5 -98q144 0 235.5 94t91.5 252q0 144 -73.5 225.5t-249.5 151.5q-346 138 -346 370q0 144 93.5 236t231.5 92q224 0 316 -215l-45 -27q-82 193 -271 193q-117 0 -194.5 -76.5t-77.5 -194.5q0 -115 76.5 -191.5t244.5 -145.5
q185 -75 267 -167t82 -245q0 -180 -108 -288.5t-273 -108.5q-163 0 -269.5 101t-144.5 277z" />
    <glyph glyph-name="T" unicode="T" horiz-adv-x="1032" 
d="M489 0v1384h-428v50h910v-50h-428v-1384h-54z" />
    <glyph glyph-name="U" unicode="U" horiz-adv-x="1245" 
d="M160 489v945h53v-947q0 -207 108 -330.5t302 -123.5t301.5 123.5t107.5 330.5v947h53v-945q0 -236 -121 -370.5t-341 -134.5q-221 0 -342 134.5t-121 370.5z" />
    <glyph glyph-name="V" unicode="V" horiz-adv-x="1146" 
d="M547 0l-522 1434h61l487 -1360l488 1360h61l-522 -1434h-53z" />
    <glyph glyph-name="W" unicode="W" horiz-adv-x="1667" 
d="M408 0l-383 1434h57l356 -1362l365 1210h61l365 -1210l356 1362h57l-382 -1434h-64l-362 1204l-363 -1204h-63z" />
    <glyph glyph-name="X" unicode="X" horiz-adv-x="1048" 
d="M33 0l461 791l-373 643h61l342 -588l342 588h62l-373 -643l461 -791h-66l-426 737l-426 -737h-65z" />
    <glyph glyph-name="Y" unicode="Y" horiz-adv-x="1007" 
d="M477 0v643l-444 791h59l412 -738l411 738h60l-445 -791v-643h-53z" />
    <glyph glyph-name="Z" unicode="Z" horiz-adv-x="1011" 
d="M88 0v25l752 1359h-727v50h796v-25l-751 -1360h766v-49h-836z" />
    <glyph glyph-name="bracketleft" unicode="[" horiz-adv-x="514" 
d="M184 -102v1638h273v-49h-219v-1540h219v-49h-273z" />
    <glyph glyph-name="backslash" unicode="\" horiz-adv-x="978" 
d="M909 -102l-893 1638h54l893 -1638h-54z" />
    <glyph glyph-name="bracketright" unicode="]" horiz-adv-x="514" 
d="M57 -102v49h219v1540h-219v49h273v-1638h-273z" />
    <glyph glyph-name="asciicircum" unicode="^" horiz-adv-x="868" 
d="M66 920l344 514h49l344 -514h-68l-301 452l-301 -452h-67z" />
    <glyph glyph-name="underscore" unicode="_" horiz-adv-x="890" 
d="M68 -49v49h755v-49h-755z" />
    <glyph glyph-name="grave" unicode="`" horiz-adv-x="296" 
d="M197 1147l-154 262h82l121 -262h-49z" />
    <glyph glyph-name="a" unicode="a" horiz-adv-x="960" 
d="M102 293q0 149 106.5 231t283.5 82h280v105q0 144 -73 216t-212 72q-116 0 -198 -58.5t-107 -172.5l-47 12q30 131 124 200t228 69q160 0 249 -87.5t89 -246.5v-715h-41l-12 184q-124 -200 -358 -200q-135 0 -223.5 83t-88.5 226zM772 365v192h-276q-162 0 -251 -70.5
t-89 -193.5q0 -122 75 -191t195 -69q86 0 164 38.5t130 116t52 177.5z" />
    <glyph glyph-name="b" unicode="b" horiz-adv-x="1142" 
d="M209 287l4 -131v-156h-53v1450h53v-563q0 -35 -4 -121q120 283 395 283q197 0 318.5 -150.5t121.5 -382.5q0 -152 -53.5 -272.5t-153 -190t-229.5 -69.5q-146 0 -252 80.5t-147 222.5zM991 516q0 206 -108.5 344.5t-282.5 138.5q-113 0 -203 -65t-139 -175t-49 -243
q0 -209 107.5 -346t283.5 -137t283.5 137t107.5 346z" />
    <glyph glyph-name="c" unicode="c" horiz-adv-x="1011" 
d="M98 516q0 145 50.5 265t151.5 194t235 74q293 0 387 -283l-48 -16q-47 132 -128 190.5t-211 58.5q-117 0 -205.5 -67.5t-133 -176t-44.5 -239.5t44.5 -239.5t133 -176t205.5 -67.5q135 0 214.5 59.5t129.5 192.5l47 -17q-54 -146 -148.5 -215t-242.5 -69
q-101 0 -184.5 42.5t-138 115.5t-84.5 169.5t-30 204.5z" />
    <glyph glyph-name="d" unicode="d" horiz-adv-x="1142" 
d="M98 516q0 232 122 382.5t319 150.5q278 0 395 -283q-4 86 -4 121v563h53v-1450h-53v156l4 131q-38 -140 -146.5 -221.5t-252.5 -81.5q-130 0 -230 69.5t-153.5 190t-53.5 272.5zM934 516q0 206 -108.5 344.5t-282.5 138.5t-282.5 -138.5t-108.5 -344.5q0 -209 107.5 -346
t283.5 -137t283.5 137t107.5 346z" />
    <glyph glyph-name="e" unicode="e" horiz-adv-x="1067" 
d="M969 528h-817v-12q0 -129 48.5 -239t138.5 -177t200 -67q129 0 209 55t143 186l45 -20q-69 -142 -163 -206t-234 -64q-194 0 -317.5 152t-123.5 380q0 117 36 217.5t97.5 169t142.5 107.5t171 39q189 0 306.5 -129.5t117.5 -335.5v-56zM154 578h761q-5 196 -103 308.5
t-267 112.5q-147 0 -260 -119t-131 -302z" />
    <glyph glyph-name="f" unicode="f" horiz-adv-x="567" 
d="M193 0v983h-168v49h168v125q0 144 65 218.5t178 74.5q66 0 119 -27l-14 -47q-48 25 -105 25q-89 0 -139.5 -59.5t-50.5 -178.5v-131h229v-49h-229v-983h-53z" />
    <glyph glyph-name="g" unicode="g" horiz-adv-x="948" 
d="M82 -111q0 71 38 136t95 104q-51 20 -80 62.5t-29 93.5q0 119 127 172q-88 94 -88 245q0 157 92.5 252t241.5 95q124 0 217 -72l174 98l25 -45l-162 -90q80 -92 80 -238q0 -157 -92.5 -251.5t-241.5 -94.5q-125 0 -213 70q-55 -20 -80.5 -54t-25.5 -87q0 -56 41 -90.5
t110 -34.5h285q126 0 205.5 -75t79.5 -198q0 -142 -111 -231q-113 -90 -289 -90q-187 0 -293 87t-106 236zM760 702q0 135 -78.5 216t-202.5 81t-202 -81t-78 -216t78 -215.5t202 -80.5q125 0 203 80.5t78 215.5zM831 -115q0 108 -66 167t-183 59h-273q-9 0 -41 4
q-60 -37 -98.5 -100.5t-38.5 -129.5q0 -126 92 -198t258 -72q160 0 255 73.5t95 196.5z" />
    <glyph glyph-name="h" unicode="h" horiz-adv-x="1087" 
d="M160 0v1450h53v-674q51 135 148 204t233 69q162 0 248 -91t86 -262v-696h-54v692q0 307 -292 307q-163 0 -266 -125.5t-103 -318.5v-555h-53z" />
    <glyph glyph-name="i" unicode="i" horiz-adv-x="372" 
d="M160 0v1032h53v-1032h-53zM131 1329q0 25 15 40t40 15t40.5 -15t15.5 -40t-15.5 -40t-40.5 -15t-40 15t-15 40z" />
    <glyph glyph-name="j" unicode="j" horiz-adv-x="372" 
d="M35 -434l-10 49q74 23 104.5 74t30.5 155v1188h53v-1171q0 -129 -40.5 -196.5t-137.5 -98.5zM131 1329q0 25 15 40t40 15t40.5 -15t15.5 -40t-15.5 -40t-40.5 -15t-40 15t-15 40z" />
    <glyph glyph-name="k" unicode="k" horiz-adv-x="806" 
d="M160 0v1450h53v-883l461 465h76l-474 -473l506 -559h-73l-496 551v-551h-53z" />
    <glyph glyph-name="l" unicode="l" horiz-adv-x="372" 
d="M160 0v1450h53v-1450h-53z" />
    <glyph glyph-name="m" unicode="m" horiz-adv-x="1576" 
d="M160 0v1032h53v-215q40 106 126 169t206 63q107 0 179 -63t85 -171q102 234 338 234q130 0 200 -84t70 -244v-721h-53v717q0 135 -59.5 208.5t-169.5 73.5q-122 0 -221 -111.5t-99 -271.5v-616h-53v717q0 136 -60.5 209t-169.5 73q-123 0 -221 -113t-98 -270v-616h-53z
" />
    <glyph glyph-name="n" unicode="n" horiz-adv-x="1060" 
d="M160 0v1032h53v-246q49 129 144 196t225 67q155 0 237 -90.5t82 -262.5v-696h-53v692q0 152 -71 229.5t-208 77.5q-157 0 -256.5 -125.5t-99.5 -318.5v-555h-53z" />
    <glyph glyph-name="o" unicode="o" horiz-adv-x="1138" 
d="M98 516q0 141 55.5 261.5t165 196t250.5 75.5t250.5 -75.5t165 -196t55.5 -261.5t-55.5 -261t-164.5 -195.5t-251 -75.5t-251 75.5t-164.5 195.5t-55.5 261zM987 516q0 94 -29 181t-82 154t-132.5 107.5t-174.5 40.5q-125 0 -222 -69t-146 -178t-49 -236t49 -236
t146 -178t222 -69q95 0 174.5 40.5t132.5 107.5t82 154t29 181z" />
    <glyph glyph-name="p" unicode="p" horiz-adv-x="1142" 
d="M160 -418v1450h53v-155l-4 -132q38 140 146.5 222t252.5 82q195 0 315.5 -150.5t120.5 -382.5q0 -152 -53.5 -272.5t-153 -190t-229.5 -69.5q-282 0 -399 282q4 -86 4 -121v-563h-53zM991 516q0 209 -107.5 346t-283.5 137t-283.5 -137t-107.5 -346q0 -206 108.5 -344.5
t282.5 -138.5t282.5 138.5t108.5 344.5z" />
    <glyph glyph-name="q" unicode="q" horiz-adv-x="1142" 
d="M930 -418v563q0 35 4 121q-117 -282 -399 -282q-130 0 -230 69.5t-153.5 190t-53.5 272.5t53.5 273t153.5 190.5t230 69.5q147 0 254 -78t145 -217l-4 123v155h53v-1450h-53zM934 516q0 209 -107.5 346t-283.5 137t-283.5 -137t-107.5 -346q0 -206 108.5 -344.5
t282.5 -138.5t282.5 138.5t108.5 344.5z" />
    <glyph glyph-name="r" unicode="r" horiz-adv-x="643" 
d="M160 0v1032h53v-180q41 96 111 146.5t163 50.5q59 0 123 -23l-16 -51q-47 24 -119 24q-107 0 -184.5 -100.5t-77.5 -249.5v-649h-53z" />
    <glyph glyph-name="s" unicode="s" horiz-adv-x="827" 
d="M94 248l45 20q33 -121 101 -178t192 -57q106 0 177 65.5t71 177.5q0 181 -236 242q-138 37 -213 109.5t-75 173.5q0 114 76 181t192 67q179 0 268 -160l-39 -31q-77 141 -235 141q-90 0 -151.5 -54.5t-61.5 -147.5q0 -84 65 -141.5t197 -96.5q134 -39 200 -106.5
t66 -173.5q0 -131 -88.5 -213t-212.5 -82q-268 0 -338 264z" />
    <glyph glyph-name="t" unicode="t" horiz-adv-x="624" 
d="M211 252v731h-186v49h186v379l53 39v-418h283v-49h-283v-752q0 -102 40 -150t120 -48q71 0 127 35l16 -45q-67 -39 -147 -39q-209 0 -209 268z" />
    <glyph glyph-name="u" unicode="u" horiz-adv-x="1060" 
d="M160 336v696h53v-692q0 -152 71 -229.5t208 -77.5q156 0 256 125.5t100 318.5v555h53v-1032h-53v246q-49 -127 -146 -194.5t-223 -67.5q-155 0 -237 90t-82 262z" />
    <glyph glyph-name="v" unicode="v" horiz-adv-x="876" 
d="M414 0l-381 1032h55l350 -969l350 969h56l-381 -1032h-49z" />
    <glyph glyph-name="w" unicode="w" horiz-adv-x="1302" 
d="M334 0l-305 1032h51l287 -969l258 969h53l258 -969l287 969h51l-305 -1032h-70l-248 942l-248 -942h-69z" />
    <glyph glyph-name="x" unicode="x" horiz-adv-x="786" 
d="M20 0l345 565l-283 467h57l254 -418l254 418h58l-283 -467l344 -565h-61l-312 516l-311 -516h-62z" />
    <glyph glyph-name="y" unicode="y" horiz-adv-x="798" 
d="M721 1032h57l-534 -1450h-56l179 484l-347 966h58l315 -895z" />
    <glyph glyph-name="z" unicode="z" horiz-adv-x="827" 
d="M74 0v29l577 954h-553v49h621v-37l-572 -946h594v-49h-667z" />
    <glyph glyph-name="braceleft" unicode="{" horiz-adv-x="493" 
d="M207 66v481q0 78 -33 111.5t-108 33.5v49q75 0 108 34t33 112v481q0 78 42.5 123t112.5 45h74v-49h-74q-102 0 -102 -119v-491q0 -122 -96 -160q96 -38 96 -160v-491q0 -119 102 -119h74v-49h-74q-70 0 -112.5 45t-42.5 123z" />
    <glyph glyph-name="bar" unicode="|" horiz-adv-x="421" 
d="M184 -102v1638h54v-1638h-54z" />
    <glyph glyph-name="braceright" unicode="}" horiz-adv-x="493" 
d="M57 -102v49h74q102 0 102 119v491q0 122 97 160q-97 38 -97 160v491q0 119 -102 119h-74v49h74q70 0 113 -45t43 -123v-481q0 -78 33 -112t108 -34v-49q-75 0 -108 -33.5t-33 -111.5v-481q0 -78 -43 -123t-113 -45h-74z" />
    <glyph glyph-name="asciitilde" unicode="~" horiz-adv-x="995" 
d="M481 666q-55 29 -91.5 42t-74.5 13q-54 0 -94 -24.5t-84 -78.5l-35 37q92 115 207 115q52 0 95 -14.5t110 -48.5q56 -30 92 -43t74 -13q54 0 94 24.5t84 78.5l35 -37q-92 -115 -207 -115q-51 0 -94 14.5t-111 49.5z" />
    <glyph glyph-name="uni00A0" unicode="&#xa0;" horiz-adv-x="516" 
 />
    <glyph glyph-name="exclamdown" unicode="&#xa1;" horiz-adv-x="483" 
d="M184 963q0 25 16.5 41t41.5 16t41 -16t16 -41t-16 -41.5t-41 -16.5t-41.5 16.5t-16.5 41.5zM209 -418l12 1123h41l12 -1123h-65z" />
    <glyph glyph-name="cent" unicode="&#xa2;" horiz-adv-x="1011" 
d="M508 -102v290q-190 12 -300 163t-110 370t110 369.5t300 162.5v283h53v-283q273 -12 361 -282l-48 -17q-47 132 -128 191t-211 59q-117 0 -205.5 -67.5t-133 -176t-44.5 -239.5t44.5 -239.5t133 -176t205.5 -67.5q135 0 214.5 59.5t129.5 191.5l47 -16
q-49 -139 -138.5 -209t-226.5 -76v-290h-53z" />
    <glyph glyph-name="sterling" unicode="&#xa3;" horiz-adv-x="966" 
d="M131 -16l-41 47q107 94 148 199.5t41 242.5q0 109 -54 248h-145v49h125q-30 91 -44 154t-14 131q0 185 98.5 290t260.5 105q124 0 212.5 -73t129.5 -208l-45 -18q-80 250 -297 250q-137 0 -221 -91t-84 -257q0 -68 14 -130t47 -153h340v-49h-321q51 -137 51 -242
q0 -124 -32 -216.5t-107 -184.5q70 49 169 49q68 0 142 -45q48 -27 80.5 -38t72.5 -11q79 0 126 35.5t98 134.5l39 -21q-56 -109 -114 -153.5t-144 -44.5q-47 0 -83 11t-87 38q-53 26 -81.5 35.5t-64.5 9.5q-65 0 -111 -21t-104 -73z" />
    <glyph glyph-name="currency" unicode="&#xa4;" horiz-adv-x="1040" 
d="M96 168l-37 39l150 149q-88 110 -88 275t88 272l-150 150l37 39l148 -148q109 100 276 100q168 0 277 -100l147 148l37 -39l-150 -150q89 -109 89 -272t-89 -275l150 -149l-37 -39l-149 149q-106 -100 -275 -100q-168 0 -274 100zM866 631q0 162 -95.5 263t-250.5 101
t-250.5 -101t-95.5 -263t95.5 -263.5t250.5 -101.5t250.5 101.5t95.5 263.5z" />
    <glyph glyph-name="yen" unicode="&#xa5;" horiz-adv-x="958" 
d="M453 0v365h-332v49h332v233h-332v49h305l-393 738h59l387 -738l387 738h60l-394 -738h306v-49h-332v-233h332v-49h-332v-365h-53z" />
    <glyph glyph-name="brokenbar" unicode="&#xa6;" horiz-adv-x="421" 
d="M184 821v715h54v-715h-54zM184 -102v714h54v-714h-54z" />
    <glyph glyph-name="section" unicode="&#xa7;" horiz-adv-x="972" 
d="M137 -156l49 19q20 -117 96.5 -182.5t190.5 -65.5q125 0 201 73.5t76 209.5q0 82 -43 143q-40 59 -119.5 111t-233.5 124q-146 69 -207 137t-61 169q0 78 55.5 150t151.5 122q-139 111 -139 260q0 154 94.5 245t234.5 91q127 0 219 -77t117 -202l-49 -18
q-20 117 -96.5 182.5t-190.5 65.5q-125 0 -200.5 -73.5t-75.5 -209.5q0 -81 41 -143q42 -60 121.5 -112.5t232.5 -123.5q146 -69 207 -136.5t61 -168.5q0 -78 -55.5 -150t-150.5 -122q139 -111 139 -260q0 -153 -95 -244.5t-235 -91.5q-127 0 -219 76.5t-117 201.5zM817 436
q-2 34 -7.5 59t-23 50t-37 43.5t-61.5 44.5t-84.5 48.5t-116.5 59.5q-119 63 -149 82q-199 -102 -199 -243q4 -96 63.5 -149t266.5 -157q127 -66 149 -81q199 102 199 243z" />
    <glyph glyph-name="dieresis" unicode="&#xa8;" horiz-adv-x="598" 
d="M98 1309q0 25 17.5 42t42.5 17t42 -17t17 -42t-17 -42.5t-42 -17.5t-42.5 17.5t-17.5 42.5zM381 1309q0 25 17 42t42 17t42.5 -17t17.5 -42t-17.5 -42.5t-42.5 -17.5t-42 17.5t-17 42.5z" />
    <glyph glyph-name="copyright" unicode="&#xa9;" horiz-adv-x="1785" 
d="M123 717q-3 164 56 313t162 256.5t247 169.5t305 60q161 2 305 -60t247 -169.5t162 -256.5t56 -313q3 -166 -56 -315t-162 -256t-247 -169t-305 -59q-161 -3 -305 59t-247 169t-162 256t-56 315zM1610 717q2 153 -52 292t-149 240.5t-230 160t-286 56.5
q-151 2 -286 -56.5t-230 -160t-149 -240.5t-52 -292q-2 -153 52 -292.5t149 -240.5t230 -160t286 -57q151 -2 286 57t230 160t149 240.5t52 292.5zM510 717q0 209 109.5 325.5t273.5 116.5q128 0 212.5 -67.5t113.5 -194.5l-43 -10q-32 113 -101.5 168t-181.5 55
q-150 0 -240 -102.5t-90 -290.5t90 -290.5t240 -102.5q115 0 183 54t100 171l43 -8q-29 -129 -113 -198t-213 -69q-164 0 -273.5 117t-109.5 326z" />
    <glyph glyph-name="ordfeminine" unicode="&#xaa;" horiz-adv-x="845" 
d="M135 850q0 122 92 187t260 65h168v51q0 121 -57.5 180.5t-159.5 59.5q-86 0 -146 -46.5t-73 -127.5l-53 12q20 99 93.5 155t178.5 56q127 0 199 -73.5t72 -213.5v-541h-41l-13 170q-70 -178 -288 -178q-104 0 -168 67t-64 177zM655 993v60h-163q-304 0 -304 -203
q0 -92 51.5 -143.5t137.5 -51.5q129 0 203.5 82.5t74.5 255.5z" />
    <glyph glyph-name="guillemotleft" unicode="&#xab;" horiz-adv-x="1030" 
d="M559 262l-457 352v41l457 353v-54l-416 -319l416 -320v-53zM907 262l-456 352v41l456 353v-54l-415 -319l415 -320v-53z" />
    <glyph glyph-name="logicalnot" unicode="&#xac;" horiz-adv-x="1095" 
d="M899 291v405h-756v49h809v-454h-53z" />
    <glyph glyph-name="uni00AD" unicode="&#xad;" horiz-adv-x="878" 
d="M143 625v49h592v-49h-592z" />
    <glyph glyph-name="registered" unicode="&#xae;" horiz-adv-x="1785" 
d="M123 717q-3 164 56 313t162 256.5t247 169.5t305 60q161 2 305 -60t247 -169.5t162 -256.5t56 -313q3 -166 -56 -315t-162 -256t-247 -169t-305 -59q-161 -3 -305 59t-247 169t-162 256t-56 315zM1610 717q2 153 -52 292t-149 240.5t-230 160t-286 56.5
q-151 2 -286 -56.5t-230 -160t-149 -240.5t-52 -292q-2 -153 52 -292.5t149 -240.5t230 -160t286 -57q151 -2 286 57t230 160t149 240.5t52 292.5zM643 281v872h266q116 0 186 -65t70 -170q0 -91 -62 -157.5t-151 -74.5l258 -405h-61l-254 401h-199v-401h-53zM696 731h215
q95 0 148 52.5t53 134.5t-53 134t-148 52h-215v-373z" />
    <glyph glyph-name="overscore" unicode="&#xaf;" horiz-adv-x="487" 
d="M31 1270v49h426v-49h-426z" />
    <glyph glyph-name="degree" unicode="&#xb0;" horiz-adv-x="692" 
d="M123 1214q0 99 62.5 163.5t160.5 64.5t160.5 -64.5t62.5 -163.5t-62.5 -163t-160.5 -64t-160.5 64t-62.5 163zM516 1214q0 79 -47.5 129t-122.5 50t-122.5 -50t-47.5 -129t47.5 -128.5t122.5 -49.5t122.5 49.5t47.5 128.5z" />
    <glyph glyph-name="plusminus" unicode="&#xb1;" horiz-adv-x="1044" 
d="M496 436v355h-353v49h353v352h53v-352h352v-49h-352v-355h-53zM143 0v49h758v-49h-758z" />
    <glyph glyph-name="uni00B2" unicode="&#xb2;" horiz-adv-x="614" 
d="M70 614v21l299 369q56 67 77 116t21 105q0 77 -45.5 122.5t-120.5 45.5q-69 0 -114.5 -44t-57.5 -130l-49 12q12 99 70.5 155t150.5 56q98 0 158.5 -60t60.5 -157q0 -114 -112 -250l-254 -311h391v-50h-475z" />
    <glyph glyph-name="uni00B3" unicode="&#xb3;" horiz-adv-x="620" 
d="M74 827l53 7q12 -86 61.5 -132.5t124.5 -46.5q87 0 139 57.5t52 151.5t-47.5 151.5t-132.5 57.5q-43 0 -72 -18l-31 37l209 292h-317v50h395v-21l-209 -291q6 2 31 2q96 0 161.5 -71t65.5 -189q0 -112 -66.5 -185t-177.5 -73q-97 0 -161.5 59t-77.5 162z" />
    <glyph glyph-name="acute" unicode="&#xb4;" horiz-adv-x="325" 
d="M51 1147l121 262h82l-154 -262h-49z" />
    <glyph glyph-name="uni00B5" unicode="&#xb5;" horiz-adv-x="1060" 
d="M160 -418v1450h53v-692q0 -152 71 -229.5t208 -77.5q156 0 256 125.5t100 318.5v555h53v-1032h-53v246q-49 -127 -146 -194.5t-223 -67.5q-92 0 -160.5 36.5t-105.5 104.5v-543h-53z" />
    <glyph glyph-name="paragraph" unicode="&#xb6;" horiz-adv-x="1200" 
d="M418 -418v1266q-122 0 -207.5 86t-85.5 207t85.5 207t207.5 86h643v-50h-176v-1802h-54v1802h-360v-1802h-53z" />
    <glyph glyph-name="middot" unicode="&#xb7;" horiz-adv-x="483" 
d="M184 717q0 25 16.5 41t41.5 16t41 -16t16 -41t-16 -41.5t-41 -16.5t-41.5 16.5t-16.5 41.5z" />
    <glyph glyph-name="cedilla" unicode="&#xb8;" horiz-adv-x="358" 
d="M190 -397l-69 37l131 237h53z" />
    <glyph glyph-name="uni00B9" unicode="&#xb9;" horiz-adv-x="391" 
d="M219 614v744l-162 -84v55l195 105h20v-820h-53z" />
    <glyph glyph-name="ordmasculine" unicode="&#xba;" horiz-adv-x="1015" 
d="M145 1024q0 109 43.5 203.5t127.5 154.5t192 60t192 -60t127 -154.5t43 -203.5t-43 -203.5t-127 -154.5t-192 -60t-192 60t-127.5 154.5t-43.5 203.5zM817 1024q0 97 -34.5 179.5t-106 136t-168.5 53.5t-168.5 -53.5t-106 -136t-34.5 -179.5t34.5 -179.5t106 -136
t168.5 -53.5t168.5 53.5t106 136t34.5 179.5z" />
    <glyph glyph-name="guillemotright" unicode="&#xbb;" horiz-adv-x="1030" 
d="M123 262v53l416 320l-416 319v54l457 -353v-41zM471 262v53l416 320l-416 319v54l457 -353v-41z" />
    <glyph glyph-name="onequarter" unicode="&#xbc;" horiz-adv-x="1447" 
d="M219 614v744l-162 -84v55l195 105h20v-820h-53zM131 -29l-43 35l1110 1464l43 -34zM1231 0v195h-332v20l324 604h61v-575h109v-49h-109v-195h-53zM969 244h262v485z" />
    <glyph glyph-name="onehalf" unicode="&#xbd;" horiz-adv-x="1552" 
d="M219 614v744l-162 -84v55l195 105h20v-820h-53zM131 -29l-43 35l1110 1464l43 -34zM1008 0v20l299 369q56 67 77 116t21 105q0 78 -45.5 123t-120.5 45q-69 0 -114.5 -44t-57.5 -130l-49 12q12 99 70.5 155t150.5 56q98 0 158.5 -60t60.5 -157q0 -114 -112 -250
l-254 -311h391v-49h-475z" />
    <glyph glyph-name="threequarters" unicode="&#xbe;" horiz-adv-x="1656" 
d="M74 827l53 7q12 -86 61.5 -132.5t124.5 -46.5q87 0 139 57.5t52 151.5t-47.5 151.5t-132.5 57.5q-43 0 -72 -18l-31 37l209 292h-317v50h395v-21l-209 -291q6 2 31 2q96 0 161.5 -71t65.5 -189q0 -112 -66.5 -185t-177.5 -73q-97 0 -161.5 59t-77.5 162zM340 -29l-43 35
l1110 1464l43 -34zM1440 0v195h-332v20l324 604h61v-575h109v-49h-109v-195h-53zM1178 244h262v485z" />
    <glyph glyph-name="questiondown" unicode="&#xbf;" horiz-adv-x="811" 
d="M455 963q0 -25 -16.5 -41.5t-41.5 -16.5t-41 16.5t-16 41.5t16 41t41 16t41.5 -16t16.5 -41zM635 391q0 -91 -57.5 -161.5t-176.5 -135.5q-149 -81 -197 -137.5t-48 -138.5q0 -90 66 -146.5t179 -56.5q99 0 165.5 60.5t90.5 179.5l52 -11q-24 -133 -110 -205.5
t-212 -72.5q-124 0 -204.5 71.5t-80.5 178.5q0 96 52.5 159t207.5 152q124 70 172 127.5t48 140.5q0 85 -50 135t-129 50q-77 0 -119.5 -42t-62.5 -143l-49 13q50 221 231 221q102 0 167 -63t65 -175z" />
    <glyph glyph-name="Agrave" unicode="&#xc0;" horiz-adv-x="1146" 
d="M25 0l518 1434h61l518 -1434h-53l-162 446h-667l-162 -446h-53zM258 496h631l-316 874zM549 1548l-154 262h82l121 -262h-49z" />
    <glyph glyph-name="Aacute" unicode="&#xc1;" horiz-adv-x="1146" 
d="M25 0l518 1434h61l518 -1434h-53l-162 446h-667l-162 -446h-53zM258 496h631l-316 874zM549 1548l121 262h82l-154 -262h-49z" />
    <glyph glyph-name="Acircumflex" unicode="&#xc2;" horiz-adv-x="1146" 
d="M25 0l518 1434h61l518 -1434h-53l-162 446h-667l-162 -446h-53zM258 496h631l-316 874zM334 1548l223 262h33l223 -262h-65l-175 207l-174 -207h-65z" />
    <glyph glyph-name="Atilde" unicode="&#xc3;" horiz-adv-x="1146" 
d="M25 0l518 1434h61l518 -1434h-53l-162 446h-667l-162 -446h-53zM258 496h631l-316 874zM326 1640l-35 27q56 109 162 109q34 0 61 -11.5t72 -42.5q40 -27 61.5 -37t46.5 -10q42 0 68.5 18.5t58.5 67.5l35 -26q-56 -109 -162 -109q-32 0 -57.5 11t-75.5 42
q-40 27 -61.5 37t-46.5 10q-42 0 -68.5 -18.5t-58.5 -67.5z" />
    <glyph glyph-name="Adieresis" unicode="&#xc4;" horiz-adv-x="1146" 
d="M25 0l518 1434h61l518 -1434h-53l-162 446h-667l-162 -446h-53zM258 496h631l-316 874zM373 1710q0 25 17 42t42 17t42.5 -17t17.5 -42t-17.5 -42t-42.5 -17t-42 17t-17 42zM655 1710q0 25 17.5 42t42.5 17t42 -17t17 -42t-17 -42t-42 -17t-42.5 17t-17.5 42z" />
    <glyph glyph-name="Aring" unicode="&#xc5;" horiz-adv-x="1146" 
d="M25 0l518 1434h61l518 -1434h-53l-162 446h-667l-162 -446h-53zM258 496h631l-316 874zM385 1743q0 78 54.5 132t133.5 54t134 -54t55 -132t-55 -132.5t-134 -54.5t-133.5 54.5t-54.5 132.5zM709 1743q0 60 -39.5 99.5t-96.5 39.5t-96 -39.5t-39 -99.5t39 -99.5t96 -39.5
t96.5 39.5t39.5 99.5z" />
    <glyph glyph-name="AE" unicode="&#xc6;" horiz-adv-x="1593" 
d="M25 0l628 1434h805v-50h-684v-596h561v-49h-561v-690h705v-49h-758v446h-445l-196 -446h-55zM297 496h424v888h-33z" />
    <glyph glyph-name="Ccedilla" unicode="&#xc7;" horiz-adv-x="1329" 
d="M106 717q-2 139 30.5 259t90 206.5t135 148t166 91t181.5 28.5q199 0 333.5 -100.5t184.5 -282.5l-51 -14q-43 165 -164 256.5t-303 91.5q-106 2 -204.5 -43t-176.5 -128.5t-124 -216.5t-44 -296q-2 -163 44 -296t124 -216.5t176.5 -128.5t204.5 -43q174 0 289.5 94.5
t170.5 269.5l50 -16q-55 -185 -189 -291t-321 -106q-121 0 -229 48t-192 137.5t-133 231t-49 316.5zM616 -397l-69 37l131 237h53z" />
    <glyph glyph-name="Egrave" unicode="&#xc8;" horiz-adv-x="1056" 
d="M184 0v1434h738v-50h-684v-596h561v-49h-561v-690h704v-49h-758zM528 1548l-153 262h82l121 -262h-50z" />
    <glyph glyph-name="Eacute" unicode="&#xc9;" horiz-adv-x="1056" 
d="M184 0v1434h738v-50h-684v-596h561v-49h-561v-690h704v-49h-758zM528 1548l121 262h82l-153 -262h-50z" />
    <glyph glyph-name="Ecircumflex" unicode="&#xca;" horiz-adv-x="1056" 
d="M184 0v1434h738v-50h-684v-596h561v-49h-561v-690h704v-49h-758zM313 1548l224 262h32l224 -262h-66l-174 207l-174 -207h-66z" />
    <glyph glyph-name="Edieresis" unicode="&#xcb;" horiz-adv-x="1056" 
d="M184 0v1434h738v-50h-684v-596h561v-49h-561v-690h704v-49h-758zM352 1710q0 25 17.5 42t42.5 17t42 -17t17 -42t-17 -42t-42 -17t-42.5 17t-17.5 42zM635 1710q0 25 17 42t42 17t42.5 -17t17.5 -42t-17.5 -42t-42.5 -17t-42 17t-17 42z" />
    <glyph glyph-name="Igrave" unicode="&#xcc;" horiz-adv-x="421" 
d="M184 0v1434h54v-1434h-54zM186 1548l-153 262h82l121 -262h-50z" />
    <glyph glyph-name="Iacute" unicode="&#xcd;" horiz-adv-x="421" 
d="M184 0v1434h54v-1434h-54zM186 1548l121 262h82l-153 -262h-50z" />
    <glyph glyph-name="Icircumflex" unicode="&#xce;" horiz-adv-x="421" 
d="M184 0v1434h54v-1434h-54zM-29 1548l224 262h32l224 -262h-66l-174 207l-174 -207h-66z" />
    <glyph glyph-name="Idieresis" unicode="&#xcf;" horiz-adv-x="421" 
d="M184 0v1434h54v-1434h-54zM10 1710q0 25 17.5 42t42.5 17t42 -17t17 -42t-17 -42t-42 -17t-42.5 17t-17.5 42zM293 1710q0 25 17 42t42 17t42.5 -17t17.5 -42t-17.5 -42t-42.5 -17t-42 17t-17 42z" />
    <glyph glyph-name="Eth" unicode="&#xd0;" horiz-adv-x="1282" 
d="M1176 717q0 -178 -48 -317t-133 -225t-196.5 -130.5t-243.5 -44.5h-371v692h-143v49h143v693h371q132 0 243.5 -44.5t196.5 -130.5t133 -225t48 -317zM1122 717q0 165 -44 294.5t-121.5 209.5t-179 121.5t-220.5 41.5h-319v-643h266v-49h-266v-643h319q119 0 220.5 41.5
t179 122t121.5 210t44 294.5z" />
    <glyph glyph-name="Ntilde" unicode="&#xd1;" horiz-adv-x="1323" 
d="M184 0v1434h62l839 -1348v1348h54v-1434h-62l-839 1352v-1352h-54zM414 1640l-35 27q56 109 162 109q34 0 61 -11.5t72 -42.5q40 -27 61.5 -37t46.5 -10q42 0 68.5 18.5t58.5 67.5l35 -26q-56 -109 -162 -109q-32 0 -57.5 11t-75.5 42q-40 27 -61.5 37t-46.5 10
q-42 0 -68.5 -18.5t-58.5 -67.5z" />
    <glyph glyph-name="Ograve" unicode="&#xd2;" horiz-adv-x="1437" 
d="M106 717q0 163 48.5 301.5t132 232.5t195.5 146.5t237 52.5t237 -52.5t195 -146.5t131.5 -232.5t48.5 -301.5t-48.5 -301.5t-131.5 -232.5t-195 -146.5t-237 -52.5t-237 52.5t-195.5 146.5t-132 232.5t-48.5 301.5zM1278 717q0 154 -45 284t-121.5 217t-178 135
t-214.5 48t-214.5 -48t-178 -135t-121.5 -217t-45 -284t45 -284t121.5 -217t178 -135t214.5 -48t214.5 48t178 135t121.5 217t45 284zM694 1548l-153 262h82l120 -262h-49z" />
    <glyph glyph-name="Oacute" unicode="&#xd3;" horiz-adv-x="1437" 
d="M106 717q0 163 48.5 301.5t132 232.5t195.5 146.5t237 52.5t237 -52.5t195 -146.5t131.5 -232.5t48.5 -301.5t-48.5 -301.5t-131.5 -232.5t-195 -146.5t-237 -52.5t-237 52.5t-195.5 146.5t-132 232.5t-48.5 301.5zM1278 717q0 154 -45 284t-121.5 217t-178 135
t-214.5 48t-214.5 -48t-178 -135t-121.5 -217t-45 -284t45 -284t121.5 -217t178 -135t214.5 -48t214.5 48t178 135t121.5 217t45 284zM694 1548l121 262h82l-154 -262h-49z" />
    <glyph glyph-name="Ocircumflex" unicode="&#xd4;" horiz-adv-x="1437" 
d="M106 717q0 163 48.5 301.5t132 232.5t195.5 146.5t237 52.5t237 -52.5t195 -146.5t131.5 -232.5t48.5 -301.5t-48.5 -301.5t-131.5 -232.5t-195 -146.5t-237 -52.5t-237 52.5t-195.5 146.5t-132 232.5t-48.5 301.5zM1278 717q0 154 -45 284t-121.5 217t-178 135
t-214.5 48t-214.5 -48t-178 -135t-121.5 -217t-45 -284t45 -284t121.5 -217t178 -135t214.5 -48t214.5 48t178 135t121.5 217t45 284zM479 1548l223 262h33l223 -262h-65l-174 207l-174 -207h-66z" />
    <glyph glyph-name="Otilde" unicode="&#xd5;" horiz-adv-x="1437" 
d="M106 717q0 163 48.5 301.5t132 232.5t195.5 146.5t237 52.5t237 -52.5t195 -146.5t131.5 -232.5t48.5 -301.5t-48.5 -301.5t-131.5 -232.5t-195 -146.5t-237 -52.5t-237 52.5t-195.5 146.5t-132 232.5t-48.5 301.5zM1278 717q0 154 -45 284t-121.5 217t-178 135
t-214.5 48t-214.5 -48t-178 -135t-121.5 -217t-45 -284t45 -284t121.5 -217t178 -135t214.5 -48t214.5 48t178 135t121.5 217t45 284zM471 1640l-35 27q56 109 162 109q34 0 61 -11.5t72 -42.5q40 -27 62 -37t47 -10q42 0 68.5 18.5t58.5 67.5l34 -26q-56 -109 -161 -109
q-32 0 -57.5 11t-75.5 42q-40 27 -62 37t-47 10q-42 0 -68.5 -18.5t-58.5 -67.5z" />
    <glyph glyph-name="Odieresis" unicode="&#xd6;" horiz-adv-x="1437" 
d="M106 717q0 163 48.5 301.5t132 232.5t195.5 146.5t237 52.5t237 -52.5t195 -146.5t131.5 -232.5t48.5 -301.5t-48.5 -301.5t-131.5 -232.5t-195 -146.5t-237 -52.5t-237 52.5t-195.5 146.5t-132 232.5t-48.5 301.5zM1278 717q0 154 -45 284t-121.5 217t-178 135
t-214.5 48t-214.5 -48t-178 -135t-121.5 -217t-45 -284t45 -284t121.5 -217t178 -135t214.5 -48t214.5 48t178 135t121.5 217t45 284zM518 1710q0 25 17.5 42t42.5 17t42 -17t17 -42t-17 -42t-42 -17t-42.5 17t-17.5 42zM801 1710q0 25 17 42t42 17t42.5 -17t17.5 -42
t-17.5 -42t-42.5 -17t-42 17t-17 42z" />
    <glyph glyph-name="multiply" unicode="&#xd7;" horiz-adv-x="856" 
d="M180 360l-39 37l252 252l-250 248l35 35l250 -248l248 248l39 -37l-250 -250l250 -248l-35 -35l-250 248z" />
    <glyph glyph-name="Oslash" unicode="&#xd8;" horiz-adv-x="1437" 
d="M1331 717q0 -163 -48.5 -301.5t-131.5 -232.5t-195 -146.5t-237 -52.5q-236 0 -406 170l-127 -166l-36 30l131 170q-175 210 -175 529q0 163 48.5 301.5t132 232.5t195.5 146.5t237 52.5q235 0 405 -170l127 166l37 -31l-131 -170q174 -209 174 -528zM313 229l779 1010
q-73 79 -169.5 120.5t-203.5 41.5q-113 0 -214.5 -48t-178 -135t-121.5 -217t-45 -284q0 -299 153 -488zM1278 717q0 297 -154 487l-778 -1009q73 -79 169.5 -120.5t203.5 -41.5q113 0 214.5 48t178 135t121.5 217t45 284z" />
    <glyph glyph-name="Ugrave" unicode="&#xd9;" horiz-adv-x="1245" 
d="M160 489v945h53v-947q0 -207 108 -330.5t302 -123.5t301.5 123.5t107.5 330.5v947h53v-945q0 -236 -121 -370.5t-341 -134.5q-221 0 -342 134.5t-121 370.5zM598 1548l-154 262h82l121 -262h-49z" />
    <glyph glyph-name="Uacute" unicode="&#xda;" horiz-adv-x="1245" 
d="M160 489v945h53v-947q0 -207 108 -330.5t302 -123.5t301.5 123.5t107.5 330.5v947h53v-945q0 -236 -121 -370.5t-341 -134.5q-221 0 -342 134.5t-121 370.5zM598 1548l121 262h82l-154 -262h-49z" />
    <glyph glyph-name="Ucircumflex" unicode="&#xdb;" horiz-adv-x="1245" 
d="M160 489v945h53v-947q0 -207 108 -330.5t302 -123.5t301.5 123.5t107.5 330.5v947h53v-945q0 -236 -121 -370.5t-341 -134.5q-221 0 -342 134.5t-121 370.5zM383 1548l223 262h33l223 -262h-65l-174 207l-174 -207h-66z" />
    <glyph glyph-name="Udieresis" unicode="&#xdc;" horiz-adv-x="1245" 
d="M160 489v945h53v-947q0 -207 108 -330.5t302 -123.5t301.5 123.5t107.5 330.5v947h53v-945q0 -236 -121 -370.5t-341 -134.5q-221 0 -342 134.5t-121 370.5zM422 1710q0 25 17 42t42 17t42.5 -17t17.5 -42t-17.5 -42t-42.5 -17t-42 17t-17 42zM705 1710q0 25 17 42t42 17
t42 -17t17 -42t-17 -42t-42 -17t-42 17t-17 42z" />
    <glyph glyph-name="Yacute" unicode="&#xdd;" horiz-adv-x="1007" 
d="M477 0v643l-444 791h59l412 -738l411 738h60l-445 -791v-643h-53zM479 1548l121 262h82l-154 -262h-49z" />
    <glyph glyph-name="Thorn" unicode="&#xde;" horiz-adv-x="1140" 
d="M184 0v1434h54v-336h389q197 0 310.5 -101.5t113.5 -279.5t-113.5 -279.5t-310.5 -101.5h-389v-336h-54zM238 385h391q179 0 273.5 86t94.5 246t-94.5 246t-273.5 86h-391v-664z" />
    <glyph glyph-name="germandbls" unicode="&#xdf;" horiz-adv-x="1077" 
d="M373 2v55q83 -24 155 -24q182 0 279.5 99.5t97.5 275.5q0 171 -105 263.5t-300 92.5h-94v49h96q140 0 223 86q82 88 82 213q0 138 -75.5 213.5t-207.5 75.5q-130 0 -204 -90t-74 -258v-1053h-53v764h-111v49h111v242q0 186 91.5 290.5t241.5 104.5q151 0 242.5 -90.5
t91.5 -247.5q0 -114 -63 -200t-154 -117q134 -21 223 -121q92 -100 92 -264q0 -199 -113 -312.5t-313 -113.5q-76 0 -159 18z" />
    <glyph glyph-name="agrave" unicode="&#xe0;" horiz-adv-x="960" 
d="M102 293q0 149 106.5 231t283.5 82h280v105q0 144 -73 216t-212 72q-116 0 -198 -58.5t-107 -172.5l-47 12q30 131 124 200t228 69q160 0 249 -87.5t89 -246.5v-715h-41l-12 184q-124 -200 -358 -200q-135 0 -223.5 83t-88.5 226zM772 365v192h-276q-162 0 -251 -70.5
t-89 -193.5q0 -122 75 -191t195 -69q86 0 164 38.5t130 116t52 177.5zM459 1147l-154 262h82l121 -262h-49z" />
    <glyph glyph-name="aacute" unicode="&#xe1;" horiz-adv-x="960" 
d="M102 293q0 149 106.5 231t283.5 82h280v105q0 144 -73 216t-212 72q-116 0 -198 -58.5t-107 -172.5l-47 12q30 131 124 200t228 69q160 0 249 -87.5t89 -246.5v-715h-41l-12 184q-124 -200 -358 -200q-135 0 -223.5 83t-88.5 226zM772 365v192h-276q-162 0 -251 -70.5
t-89 -193.5q0 -122 75 -191t195 -69q86 0 164 38.5t130 116t52 177.5zM453 1147l120 262h82l-153 -262h-49z" />
    <glyph glyph-name="acircumflex" unicode="&#xe2;" horiz-adv-x="960" 
d="M102 293q0 149 106.5 231t283.5 82h280v105q0 144 -73 216t-212 72q-116 0 -198 -58.5t-107 -172.5l-47 12q30 131 124 200t228 69q160 0 249 -87.5t89 -246.5v-715h-41l-12 184q-124 -200 -358 -200q-135 0 -223.5 83t-88.5 226zM772 365v192h-276q-162 0 -251 -70.5
t-89 -193.5q0 -122 75 -191t195 -69q86 0 164 38.5t130 116t52 177.5zM242 1147l223 262h33l223 -262h-66l-174 207l-174 -207h-65z" />
    <glyph glyph-name="atilde" unicode="&#xe3;" horiz-adv-x="960" 
d="M102 293q0 149 106.5 231t283.5 82h280v105q0 144 -73 216t-212 72q-116 0 -198 -58.5t-107 -172.5l-47 12q30 131 124 200t228 69q160 0 249 -87.5t89 -246.5v-715h-41l-12 184q-124 -200 -358 -200q-135 0 -223.5 83t-88.5 226zM772 365v192h-276q-162 0 -251 -70.5
t-89 -193.5q0 -122 75 -191t195 -69q86 0 164 38.5t130 116t52 177.5zM233 1239l-34 27q56 108 161 108q34 0 62 -11.5t72 -41.5q40 -27 61.5 -37t46.5 -10q42 0 68.5 18.5t58.5 67.5l35 -27q-56 -108 -162 -108q-32 0 -57.5 11t-75.5 42q-40 27 -62 37t-47 10
q-42 0 -68.5 -18.5t-58.5 -67.5z" />
    <glyph glyph-name="adieresis" unicode="&#xe4;" horiz-adv-x="960" 
d="M102 293q0 149 106.5 231t283.5 82h280v105q0 144 -73 216t-212 72q-116 0 -198 -58.5t-107 -172.5l-47 12q30 131 124 200t228 69q160 0 249 -87.5t89 -246.5v-715h-41l-12 184q-124 -200 -358 -200q-135 0 -223.5 83t-88.5 226zM772 365v192h-276q-162 0 -251 -70.5
t-89 -193.5q0 -122 75 -191t195 -69q86 0 164 38.5t130 116t52 177.5zM281 1309q0 25 17 42t42 17t42 -17t17 -42t-17 -42.5t-42 -17.5t-42 17.5t-17 42.5zM563 1309q0 25 17.5 42t42.5 17t42 -17t17 -42t-17 -42.5t-42 -17.5t-42.5 17.5t-17.5 42.5z" />
    <glyph glyph-name="aring" unicode="&#xe5;" horiz-adv-x="960" 
d="M102 293q0 149 106.5 231t283.5 82h280v105q0 144 -73 216t-212 72q-116 0 -198 -58.5t-107 -172.5l-47 12q30 131 124 200t228 69q160 0 249 -87.5t89 -246.5v-715h-41l-12 184q-124 -200 -358 -200q-135 0 -223.5 83t-88.5 226zM772 365v192h-276q-162 0 -251 -70.5
t-89 -193.5q0 -122 75 -191t195 -69q86 0 164 38.5t130 116t52 177.5zM293 1341q0 78 54.5 132.5t133.5 54.5t134 -54.5t55 -132.5t-55 -132t-134 -54t-133.5 54t-54.5 132zM616 1341q0 60 -39 100t-96 40t-96 -40t-39 -100t39 -99.5t96 -39.5t96 39.5t39 99.5z" />
    <glyph glyph-name="ae" unicode="&#xe6;" horiz-adv-x="1740" 
d="M102 276q0 143 106.5 222.5t283.5 79.5h280v133q0 144 -73 216t-212 72q-116 0 -198 -58.5t-107 -172.5l-47 12q30 131 124 200t228 69q147 0 235 -72.5t101 -206.5q55 129 162.5 204t233.5 75q189 0 306 -129.5t117 -335.5v-56h-817q0 -212 110.5 -353.5t276.5 -141.5
q129 0 209.5 55t143.5 186l45 -20q-69 -142 -163.5 -206t-234.5 -64q-139 0 -248 86.5t-149 199.5q-99 -286 -401 -286q-135 0 -223.5 78.5t-88.5 213.5zM827 578h762q-5 196 -103 308.5t-267 112.5q-147 0 -260.5 -119t-131.5 -302zM772 365v163h-276q-162 0 -251 -67.5
t-89 -184.5q0 -114 75 -178.5t195 -64.5q145 0 245.5 90t100.5 242z" />
    <glyph glyph-name="ccedilla" unicode="&#xe7;" horiz-adv-x="1011" 
d="M98 516q0 145 50.5 265t151.5 194t235 74q293 0 387 -283l-48 -16q-47 132 -128 190.5t-211 58.5q-117 0 -205.5 -67.5t-133 -176t-44.5 -239.5t44.5 -239.5t133 -176t205.5 -67.5q135 0 214.5 59.5t129.5 192.5l47 -17q-54 -146 -148.5 -215t-242.5 -69
q-101 0 -184.5 42.5t-138 115.5t-84.5 169.5t-30 204.5zM449 -397l-70 37l131 237h53z" />
    <glyph glyph-name="egrave" unicode="&#xe8;" horiz-adv-x="1067" 
d="M969 528h-817v-12q0 -129 48.5 -239t138.5 -177t200 -67q129 0 209 55t143 186l45 -20q-69 -142 -163 -206t-234 -64q-194 0 -317.5 152t-123.5 380q0 117 36 217.5t97.5 169t142.5 107.5t171 39q189 0 306.5 -129.5t117.5 -335.5v-56zM154 578h761q-5 196 -103 308.5
t-267 112.5q-147 0 -260 -119t-131 -302zM522 1147l-153 262h82l120 -262h-49z" />
    <glyph glyph-name="eacute" unicode="&#xe9;" horiz-adv-x="1067" 
d="M969 528h-817v-12q0 -129 48.5 -239t138.5 -177t200 -67q129 0 209 55t143 186l45 -20q-69 -142 -163 -206t-234 -64q-194 0 -317.5 152t-123.5 380q0 117 36 217.5t97.5 169t142.5 107.5t171 39q189 0 306.5 -129.5t117.5 -335.5v-56zM154 578h761q-5 196 -103 308.5
t-267 112.5q-147 0 -260 -119t-131 -302zM516 1147l121 262h82l-154 -262h-49z" />
    <glyph glyph-name="ecircumflex" unicode="&#xea;" horiz-adv-x="1067" 
d="M969 528h-817v-12q0 -129 48.5 -239t138.5 -177t200 -67q129 0 209 55t143 186l45 -20q-69 -142 -163 -206t-234 -64q-194 0 -317.5 152t-123.5 380q0 117 36 217.5t97.5 169t142.5 107.5t171 39q189 0 306.5 -129.5t117.5 -335.5v-56zM154 578h761q-5 196 -103 308.5
t-267 112.5q-147 0 -260 -119t-131 -302zM305 1147l223 262h33l223 -262h-65l-174 207l-174 -207h-66z" />
    <glyph glyph-name="edieresis" unicode="&#xeb;" horiz-adv-x="1067" 
d="M969 528h-817v-12q0 -129 48.5 -239t138.5 -177t200 -67q129 0 209 55t143 186l45 -20q-69 -142 -163 -206t-234 -64q-194 0 -317.5 152t-123.5 380q0 117 36 217.5t97.5 169t142.5 107.5t171 39q189 0 306.5 -129.5t117.5 -335.5v-56zM154 578h761q-5 196 -103 308.5
t-267 112.5q-147 0 -260 -119t-131 -302zM344 1309q0 25 17 42t42 17t42.5 -17t17.5 -42t-17.5 -42.5t-42.5 -17.5t-42 17.5t-17 42.5zM627 1309q0 25 17 42t42 17t42 -17t17 -42t-17 -42.5t-42 -17.5t-42 17.5t-17 42.5z" />
    <glyph glyph-name="igrave" unicode="&#xec;" horiz-adv-x="372" 
d="M160 0v1032h53v-1032h-53zM164 1147l-154 262h82l121 -262h-49z" />
    <glyph glyph-name="iacute" unicode="&#xed;" horiz-adv-x="372" 
d="M160 0v1032h53v-1032h-53zM158 1147l121 262h81l-153 -262h-49z" />
    <glyph glyph-name="icircumflex" unicode="&#xee;" horiz-adv-x="372" 
d="M160 0v1032h53v-1032h-53zM-53 1147l223 262h33l223 -262h-66l-174 207l-174 -207h-65z" />
    <glyph glyph-name="idieresis" unicode="&#xef;" horiz-adv-x="372" 
d="M160 0v1032h53v-1032h-53zM-14 1309q0 25 17 42t42 17t42 -17t17 -42t-17 -42.5t-42 -17.5t-42 17.5t-17 42.5zM268 1309q0 25 17.5 42t42.5 17t42 -17t17 -42t-17 -42.5t-42 -17.5t-42.5 17.5t-17.5 42.5z" />
    <glyph glyph-name="eth" unicode="&#xf0;" horiz-adv-x="1083" 
d="M98 516q0 144 53 265t155.5 194.5t234.5 73.5q112 0 212 -59t154 -177q-82 315 -356 500l-111 -164l-39 27l109 163q-78 48 -195 95l25 43q121 -52 197 -101l79 121l39 -27l-80 -118q210 -141 310 -344.5t100 -491.5q1 -81 -18.5 -159.5t-58.5 -146t-92.5 -119
t-124.5 -80.5t-150 -27q-132 0 -234.5 73.5t-155.5 194t-53 264.5zM932 516q0 96 -26 182.5t-74.5 154t-123.5 107t-167 39.5q-120 0 -210 -68.5t-134.5 -177t-44.5 -237.5t44.5 -237.5t134.5 -177t210 -68.5q92 0 167 39.5t123.5 107t74.5 154t26 182.5z" />
    <glyph glyph-name="ntilde" unicode="&#xf1;" horiz-adv-x="1060" 
d="M160 0v1032h53v-246q49 129 144 196t225 67q155 0 237 -90.5t82 -262.5v-696h-53v692q0 152 -71 229.5t-208 77.5q-157 0 -256.5 -125.5t-99.5 -318.5v-555h-53zM285 1239l-35 27q55 108 162 108q34 0 61 -11t72 -42q40 -27 61.5 -37t46.5 -10q42 0 68.5 18.5t58.5 67.5
l35 -27q-55 -108 -162 -108q-32 0 -57.5 11t-75.5 42q-40 27 -61.5 37t-46.5 10q-42 0 -68.5 -18.5t-58.5 -67.5z" />
    <glyph glyph-name="ograve" unicode="&#xf2;" horiz-adv-x="1138" 
d="M98 516q0 141 55.5 261.5t165 196t250.5 75.5t250.5 -75.5t165 -196t55.5 -261.5t-55.5 -261t-164.5 -195.5t-251 -75.5t-251 75.5t-164.5 195.5t-55.5 261zM987 516q0 94 -29 181t-82 154t-132.5 107.5t-174.5 40.5q-125 0 -222 -69t-146 -178t-49 -236t49 -236
t146 -178t222 -69q95 0 174.5 40.5t132.5 107.5t82 154t29 181zM547 1147l-154 262h82l121 -262h-49z" />
    <glyph glyph-name="oacute" unicode="&#xf3;" horiz-adv-x="1138" 
d="M98 516q0 141 55.5 261.5t165 196t250.5 75.5t250.5 -75.5t165 -196t55.5 -261.5t-55.5 -261t-164.5 -195.5t-251 -75.5t-251 75.5t-164.5 195.5t-55.5 261zM987 516q0 94 -29 181t-82 154t-132.5 107.5t-174.5 40.5q-125 0 -222 -69t-146 -178t-49 -236t49 -236
t146 -178t222 -69q95 0 174.5 40.5t132.5 107.5t82 154t29 181zM541 1147l121 262h81l-153 -262h-49z" />
    <glyph glyph-name="ocircumflex" unicode="&#xf4;" horiz-adv-x="1138" 
d="M98 516q0 141 55.5 261.5t165 196t250.5 75.5t250.5 -75.5t165 -196t55.5 -261.5t-55.5 -261t-164.5 -195.5t-251 -75.5t-251 75.5t-164.5 195.5t-55.5 261zM987 516q0 94 -29 181t-82 154t-132.5 107.5t-174.5 40.5q-125 0 -222 -69t-146 -178t-49 -236t49 -236
t146 -178t222 -69q95 0 174.5 40.5t132.5 107.5t82 154t29 181zM330 1147l223 262h33l223 -262h-66l-174 207l-174 -207h-65z" />
    <glyph glyph-name="otilde" unicode="&#xf5;" horiz-adv-x="1138" 
d="M98 516q0 141 55.5 261.5t165 196t250.5 75.5t250.5 -75.5t165 -196t55.5 -261.5t-55.5 -261t-164.5 -195.5t-251 -75.5t-251 75.5t-164.5 195.5t-55.5 261zM987 516q0 94 -29 181t-82 154t-132.5 107.5t-174.5 40.5q-125 0 -222 -69t-146 -178t-49 -236t49 -236
t146 -178t222 -69q95 0 174.5 40.5t132.5 107.5t82 154t29 181zM322 1239l-35 27q55 108 162 108q34 0 61 -11t72 -42q40 -27 61.5 -37t46.5 -10q42 0 68.5 18.5t58.5 67.5l35 -27q-56 -108 -162 -108q-32 0 -57.5 11t-75.5 42q-40 27 -61.5 37t-46.5 10q-42 0 -68.5 -18.5
t-58.5 -67.5z" />
    <glyph glyph-name="odieresis" unicode="&#xf6;" horiz-adv-x="1138" 
d="M98 516q0 141 55.5 261.5t165 196t250.5 75.5t250.5 -75.5t165 -196t55.5 -261.5t-55.5 -261t-164.5 -195.5t-251 -75.5t-251 75.5t-164.5 195.5t-55.5 261zM987 516q0 94 -29 181t-82 154t-132.5 107.5t-174.5 40.5q-125 0 -222 -69t-146 -178t-49 -236t49 -236
t146 -178t222 -69q95 0 174.5 40.5t132.5 107.5t82 154t29 181zM369 1309q0 25 17 42t42 17t42 -17t17 -42t-17 -42.5t-42 -17.5t-42 17.5t-17 42.5zM651 1309q0 25 17.5 42t42.5 17t42 -17t17 -42t-17 -42.5t-42 -17.5t-42.5 17.5t-17.5 42.5z" />
    <glyph glyph-name="divide" unicode="&#xf7;" horiz-adv-x="1044" 
d="M465 1024q0 25 16 41t41 16t41.5 -16t16.5 -41t-16.5 -41t-41.5 -16t-41 16t-16 41zM143 623v49h758v-49h-758zM465 270q0 25 16 41.5t41 16.5t41.5 -16.5t16.5 -41.5t-16.5 -41t-41.5 -16t-41 16t-16 41z" />
    <glyph glyph-name="oslash" unicode="&#xf8;" horiz-adv-x="1138" 
d="M1040 516q0 -141 -55.5 -261t-164.5 -195.5t-251 -75.5q-177 0 -297 108l-98 -127l-43 33l105 133q-67 73 -102.5 174t-35.5 211q0 141 55.5 261.5t165 196t250.5 75.5q174 0 295 -109l99 127l43 -33l-103 -131q67 -74 102 -175.5t35 -211.5zM268 174l563 725
q-109 100 -262 100q-125 0 -222 -69t-146 -178t-49 -236q0 -94 30.5 -184.5t85.5 -157.5zM987 516q0 94 -31 185.5t-86 158.5l-565 -727q109 -100 264 -100q95 0 174.5 40.5t132.5 107.5t82 154t29 181z" />
    <glyph glyph-name="ugrave" unicode="&#xf9;" horiz-adv-x="1060" 
d="M160 336v696h53v-692q0 -152 71 -229.5t208 -77.5q156 0 256 125.5t100 318.5v555h53v-1032h-53v246q-49 -127 -146 -194.5t-223 -67.5q-155 0 -237 90t-82 262zM510 1147l-154 262h82l121 -262h-49z" />
    <glyph glyph-name="uacute" unicode="&#xfa;" horiz-adv-x="1060" 
d="M160 336v696h53v-692q0 -152 71 -229.5t208 -77.5q156 0 256 125.5t100 318.5v555h53v-1032h-53v246q-49 -127 -146 -194.5t-223 -67.5q-155 0 -237 90t-82 262zM504 1147l121 262h82l-154 -262h-49z" />
    <glyph glyph-name="ucircumflex" unicode="&#xfb;" horiz-adv-x="1060" 
d="M160 336v696h53v-692q0 -152 71 -229.5t208 -77.5q156 0 256 125.5t100 318.5v555h53v-1032h-53v246q-49 -127 -146 -194.5t-223 -67.5q-155 0 -237 90t-82 262zM293 1147l223 262h33l223 -262h-65l-175 207l-174 -207h-65z" />
    <glyph glyph-name="udieresis" unicode="&#xfc;" horiz-adv-x="1060" 
d="M160 336v696h53v-692q0 -152 71 -229.5t208 -77.5q156 0 256 125.5t100 318.5v555h53v-1032h-53v246q-49 -127 -146 -194.5t-223 -67.5q-155 0 -237 90t-82 262zM332 1309q0 25 17 42t42 17t42.5 -17t17.5 -42t-17.5 -42.5t-42.5 -17.5t-42 17.5t-17 42.5zM614 1309
q0 25 17.5 42t42.5 17t42 -17t17 -42t-17 -42.5t-42 -17.5t-42.5 17.5t-17.5 42.5z" />
    <glyph glyph-name="yacute" unicode="&#xfd;" horiz-adv-x="798" 
d="M721 1032h57l-534 -1450h-56l179 484l-347 966h58l315 -895zM362 1147l121 262h82l-153 -262h-50z" />
    <glyph glyph-name="thorn" unicode="&#xfe;" horiz-adv-x="1142" 
d="M160 -418v1868h53v-573l-4 -132q38 140 146.5 222t252.5 82q195 0 315.5 -150.5t120.5 -382.5q0 -152 -53.5 -272.5t-153 -190t-229.5 -69.5q-282 0 -399 282q4 -86 4 -121v-563h-53zM991 516q0 209 -107.5 346t-283.5 137t-283.5 -137t-107.5 -346q0 -206 108.5 -344.5
t282.5 -138.5t282.5 138.5t108.5 344.5z" />
    <glyph glyph-name="ydieresis" unicode="&#xff;" horiz-adv-x="798" 
d="M721 1032h57l-534 -1450h-56l179 484l-347 966h58l315 -895zM190 1309q0 25 17.5 42t42.5 17t42 -17t17 -42t-17 -42.5t-42 -17.5t-42.5 17.5t-17.5 42.5zM473 1309q0 25 17 42t42 17t42.5 -17t17.5 -42t-17.5 -42.5t-42.5 -17.5t-42 17.5t-17 42.5z" />
    <glyph glyph-name="Amacron" unicode="&#x100;" horiz-adv-x="1146" 
d="M25 0l518 1434h61l518 -1434h-53l-162 446h-667l-162 -446h-53zM258 496h631l-316 874zM360 1671v49h426v-49h-426z" />
    <glyph glyph-name="amacron" unicode="&#x101;" horiz-adv-x="960" 
d="M102 293q0 149 106.5 231t283.5 82h280v105q0 144 -73 216t-212 72q-116 0 -198 -58.5t-107 -172.5l-47 12q30 131 124 200t228 69q160 0 249 -87.5t89 -246.5v-715h-41l-12 184q-124 -200 -358 -200q-135 0 -223.5 83t-88.5 226zM772 365v192h-276q-162 0 -251 -70.5
t-89 -193.5q0 -122 75 -191t195 -69q86 0 164 38.5t130 116t52 177.5zM268 1270v49h426v-49h-426z" />
    <glyph glyph-name="Abreve" unicode="&#x102;" horiz-adv-x="1146" 
d="M25 0l518 1434h61l518 -1434h-53l-162 446h-667l-162 -446h-53zM258 496h631l-316 874zM375 1835h53q0 -82 36 -128t109 -46t109.5 46t36.5 128h53q0 -102 -51.5 -162.5t-147.5 -60.5t-147 60.5t-51 162.5z" />
    <glyph glyph-name="abreve" unicode="&#x103;" horiz-adv-x="960" 
d="M102 293q0 149 106.5 231t283.5 82h280v105q0 144 -73 216t-212 72q-116 0 -198 -58.5t-107 -172.5l-47 12q30 131 124 200t228 69q160 0 249 -87.5t89 -246.5v-715h-41l-12 184q-124 -200 -358 -200q-135 0 -223.5 83t-88.5 226zM772 365v192h-276q-162 0 -251 -70.5
t-89 -193.5q0 -122 75 -191t195 -69q86 0 164 38.5t130 116t52 177.5zM283 1434h53q0 -82 36 -128t109 -46t109.5 46t36.5 128h53q0 -102 -51.5 -163t-147.5 -61t-147 60.5t-51 163.5z" />
    <glyph glyph-name="Aogonek" unicode="&#x104;" horiz-adv-x="1146" 
d="M25 0l518 1434h61l518 -1434h-53l-162 446h-667l-162 -446h-53zM258 496h631l-316 874zM954 -201q0 61 30 113t85 88h53q-60 -50 -87 -95t-27 -104q0 -43 24.5 -70.5t65.5 -27.5q30 0 59 16l17 -45q-33 -20 -82 -20q-62 0 -100 39.5t-38 105.5z" />
    <glyph glyph-name="aogonek" unicode="&#x105;" horiz-adv-x="960" 
d="M860 -281l17 -45q-33 -20 -82 -20q-62 0 -100 39.5t-38 105.5q0 63 33.5 119t93.5 94l-12 172q-124 -200 -358 -200q-135 0 -223.5 83t-88.5 226q0 149 106.5 231t283.5 82h280v105q0 144 -73 216t-212 72q-116 0 -198 -58.5t-107 -172.5l-47 12q30 131 124 200t228 69
q160 0 249 -87.5t89 -246.5v-715q-60 -50 -87 -95t-27 -104q0 -43 24.5 -70.5t65.5 -27.5q30 0 59 16zM772 365v192h-276q-162 0 -251 -70.5t-89 -193.5q0 -122 75 -191t195 -69q86 0 164 38.5t130 116t52 177.5z" />
    <glyph glyph-name="Cacute" unicode="&#x106;" horiz-adv-x="1329" 
d="M106 717q-2 139 30.5 259t90 206.5t135 148t166 91t181.5 28.5q199 0 333.5 -100.5t184.5 -282.5l-51 -14q-43 165 -164 256.5t-303 91.5q-106 2 -204.5 -43t-176.5 -128.5t-124 -216.5t-44 -296q-2 -163 44 -296t124 -216.5t176.5 -128.5t204.5 -43q174 0 289.5 94.5
t170.5 269.5l50 -16q-55 -185 -189 -291t-321 -106q-121 0 -229 48t-192 137.5t-133 231t-49 316.5zM684 1548l121 262h82l-154 -262h-49z" />
    <glyph glyph-name="cacute" unicode="&#x107;" horiz-adv-x="1011" 
d="M98 516q0 145 50.5 265t151.5 194t235 74q293 0 387 -283l-48 -16q-47 132 -128 190.5t-211 58.5q-117 0 -205.5 -67.5t-133 -176t-44.5 -239.5t44.5 -239.5t133 -176t205.5 -67.5q135 0 214.5 59.5t129.5 192.5l47 -17q-54 -146 -148.5 -215t-242.5 -69
q-101 0 -184.5 42.5t-138 115.5t-84.5 169.5t-30 204.5zM506 1147l121 262h82l-154 -262h-49z" />
    <glyph glyph-name="Ccircumflex" unicode="&#x108;" horiz-adv-x="1329" 
d="M106 717q-2 139 30.5 259t90 206.5t135 148t166 91t181.5 28.5q199 0 333.5 -100.5t184.5 -282.5l-51 -14q-43 165 -164 256.5t-303 91.5q-106 2 -204.5 -43t-176.5 -128.5t-124 -216.5t-44 -296q-2 -163 44 -296t124 -216.5t176.5 -128.5t204.5 -43q174 0 289.5 94.5
t170.5 269.5l50 -16q-55 -185 -189 -291t-321 -106q-121 0 -229 48t-192 137.5t-133 231t-49 316.5zM469 1548l223 262h33l223 -262h-65l-174 207l-174 -207h-66z" />
    <glyph glyph-name="ccircumflex" unicode="&#x109;" horiz-adv-x="1011" 
d="M98 516q0 145 50.5 265t151.5 194t235 74q293 0 387 -283l-48 -16q-47 132 -128 190.5t-211 58.5q-117 0 -205.5 -67.5t-133 -176t-44.5 -239.5t44.5 -239.5t133 -176t205.5 -67.5q135 0 214.5 59.5t129.5 192.5l47 -17q-54 -146 -148.5 -215t-242.5 -69
q-101 0 -184.5 42.5t-138 115.5t-84.5 169.5t-30 204.5zM295 1147l223 262h33l223 -262h-65l-174 207l-175 -207h-65z" />
    <glyph glyph-name="Cdotaccent" unicode="&#x10a;" horiz-adv-x="1329" 
d="M106 717q-2 139 30.5 259t90 206.5t135 148t166 91t181.5 28.5q199 0 333.5 -100.5t184.5 -282.5l-51 -14q-43 165 -164 256.5t-303 91.5q-106 2 -204.5 -43t-176.5 -128.5t-124 -216.5t-44 -296q-2 -163 44 -296t124 -216.5t176.5 -128.5t204.5 -43q174 0 289.5 94.5
t170.5 269.5l50 -16q-55 -185 -189 -291t-321 -106q-121 0 -229 48t-192 137.5t-133 231t-49 316.5zM653 1731q0 25 15.5 40t40.5 15t40 -15t15 -40t-15 -40.5t-40 -15.5t-40.5 15.5t-15.5 40.5z" />
    <glyph glyph-name="cdotaccent" unicode="&#x10b;" horiz-adv-x="1011" 
d="M98 516q0 145 50.5 265t151.5 194t235 74q293 0 387 -283l-48 -16q-47 132 -128 190.5t-211 58.5q-117 0 -205.5 -67.5t-133 -176t-44.5 -239.5t44.5 -239.5t133 -176t205.5 -67.5q135 0 214.5 59.5t129.5 192.5l47 -17q-54 -146 -148.5 -215t-242.5 -69
q-101 0 -184.5 42.5t-138 115.5t-84.5 169.5t-30 204.5zM479 1329q0 25 15.5 40t40.5 15t40 -15t15 -40t-15 -40t-40 -15t-40.5 15t-15.5 40z" />
    <glyph glyph-name="Ccaron" unicode="&#x10c;" horiz-adv-x="1329" 
d="M106 717q-2 139 30.5 259t90 206.5t135 148t166 91t181.5 28.5q199 0 333.5 -100.5t184.5 -282.5l-51 -14q-43 165 -164 256.5t-303 91.5q-106 2 -204.5 -43t-176.5 -128.5t-124 -216.5t-44 -296q-2 -163 44 -296t124 -216.5t176.5 -128.5t204.5 -43q174 0 289.5 94.5
t170.5 269.5l50 -16q-55 -185 -189 -291t-321 -106q-121 0 -229 48t-192 137.5t-133 231t-49 316.5zM692 1548l-223 262h66l174 -206l174 206h65l-223 -262h-33z" />
    <glyph glyph-name="ccaron" unicode="&#x10d;" horiz-adv-x="1011" 
d="M98 516q0 145 50.5 265t151.5 194t235 74q293 0 387 -283l-48 -16q-47 132 -128 190.5t-211 58.5q-117 0 -205.5 -67.5t-133 -176t-44.5 -239.5t44.5 -239.5t133 -176t205.5 -67.5q135 0 214.5 59.5t129.5 192.5l47 -17q-54 -146 -148.5 -215t-242.5 -69
q-101 0 -184.5 42.5t-138 115.5t-84.5 169.5t-30 204.5zM518 1147l-223 262h65l175 -207l174 207h65l-223 -262h-33z" />
    <glyph glyph-name="Dcaron" unicode="&#x10e;" horiz-adv-x="1282" 
d="M184 0v1434h371q132 0 243.5 -44.5t196.5 -130.5t133 -225t48 -317t-48 -317t-133 -225t-196.5 -130.5t-243.5 -44.5h-371zM238 49h319q119 0 220.5 41.5t179 122t121.5 210t44 294.5t-44 294.5t-121.5 209.5t-179 121.5t-220.5 41.5h-319v-1335zM444 1548l-223 262h66
l174 -206l174 206h65l-223 -262h-33z" />
    <glyph glyph-name="dcaron" unicode="&#x10f;" horiz-adv-x="1222" 
d="M98 516q0 232 122 382.5t319 150.5q278 0 395 -283q-4 86 -4 121v563h53v-1450h-53v156l4 131q-38 -140 -146.5 -221.5t-252.5 -81.5q-130 0 -230 69.5t-153.5 190t-53.5 272.5zM934 516q0 206 -108.5 344.5t-282.5 138.5t-282.5 -138.5t-108.5 -344.5q0 -209 107.5 -346
t283.5 -137t283.5 137t107.5 346zM1102 1126l37 324h84l-84 -324h-37z" />
    <glyph glyph-name="Dcroat" unicode="&#x110;" horiz-adv-x="1282" 
d="M1176 717q0 -178 -48 -317t-133 -225t-196.5 -130.5t-243.5 -44.5h-371v692h-143v49h143v693h371q132 0 243.5 -44.5t196.5 -130.5t133 -225t48 -317zM1122 717q0 165 -44 294.5t-121.5 209.5t-179 121.5t-220.5 41.5h-319v-643h266v-49h-266v-643h319q119 0 220.5 41.5
t179 122t121.5 210t44 294.5z" />
    <glyph glyph-name="dslash" unicode="&#x111;" horiz-adv-x="1142" 
d="M1120 1266v-49h-137v-1217h-53v156l4 131q-38 -140 -146.5 -221.5t-252.5 -81.5q-130 0 -230 69.5t-153.5 190t-53.5 272.5q0 232 122 382.5t319 150.5q278 0 395 -283q-4 86 -4 121v330h-281v49h281v184h53v-184h137zM934 516q0 206 -108.5 344.5t-282.5 138.5
t-282.5 -138.5t-108.5 -344.5q0 -209 107.5 -346t283.5 -137t283.5 137t107.5 346z" />
    <glyph glyph-name="Emacron" unicode="&#x112;" horiz-adv-x="1056" 
d="M184 0v1434h738v-50h-684v-596h561v-49h-561v-690h704v-49h-758zM340 1671v49h426v-49h-426z" />
    <glyph glyph-name="emacron" unicode="&#x113;" horiz-adv-x="1067" 
d="M969 528h-817v-12q0 -129 48.5 -239t138.5 -177t200 -67q129 0 209 55t143 186l45 -20q-69 -142 -163 -206t-234 -64q-194 0 -317.5 152t-123.5 380q0 117 36 217.5t97.5 169t142.5 107.5t171 39q189 0 306.5 -129.5t117.5 -335.5v-56zM154 578h761q-5 196 -103 308.5
t-267 112.5q-147 0 -260 -119t-131 -302zM332 1270v49h426v-49h-426z" />
    <glyph glyph-name="Ebreve" unicode="&#x114;" horiz-adv-x="1056" 
d="M184 0v1434h738v-50h-684v-596h561v-49h-561v-690h704v-49h-758zM354 1835h54q0 -82 36 -128t109 -46t109 46t36 128h54q0 -102 -51.5 -162.5t-147.5 -60.5t-147.5 60.5t-51.5 162.5z" />
    <glyph glyph-name="ebreve" unicode="&#x115;" horiz-adv-x="1067" 
d="M969 528h-817v-12q0 -129 48.5 -239t138.5 -177t200 -67q129 0 209 55t143 186l45 -20q-69 -142 -163 -206t-234 -64q-194 0 -317.5 152t-123.5 380q0 117 36 217.5t97.5 169t142.5 107.5t171 39q189 0 306.5 -129.5t117.5 -335.5v-56zM154 578h761q-5 196 -103 308.5
t-267 112.5q-147 0 -260 -119t-131 -302zM346 1434h53q0 -82 36.5 -128t109.5 -46t109 46t36 128h53q0 -103 -51 -163.5t-147 -60.5t-147.5 61t-51.5 163z" />
    <glyph glyph-name="Edotaccent" unicode="&#x116;" horiz-adv-x="1056" 
d="M184 0v1434h738v-50h-684v-596h561v-49h-561v-690h704v-49h-758zM498 1731q0 25 15 40t40 15t40 -15t15 -40t-15 -40.5t-40 -15.5t-40 15.5t-15 40.5z" />
    <glyph glyph-name="edotaccent" unicode="&#x117;" horiz-adv-x="1067" 
d="M969 528h-817v-12q0 -129 48.5 -239t138.5 -177t200 -67q129 0 209 55t143 186l45 -20q-69 -142 -163 -206t-234 -64q-194 0 -317.5 152t-123.5 380q0 117 36 217.5t97.5 169t142.5 107.5t171 39q189 0 306.5 -129.5t117.5 -335.5v-56zM154 578h761q-5 196 -103 308.5
t-267 112.5q-147 0 -260 -119t-131 -302zM489 1329q0 25 15.5 40t40.5 15t40 -15t15 -40t-15 -40t-40 -15t-40.5 15t-15.5 40z" />
    <glyph glyph-name="Eogonek" unicode="&#x118;" horiz-adv-x="1056" 
d="M184 0v1434h738v-50h-684v-596h561v-49h-561v-690h704v-49h-758zM774 -201q0 61 30 113t85 88h53q-60 -50 -87.5 -95t-27.5 -104q0 -43 25 -70.5t66 -27.5q30 0 59 16l16 -45q-33 -20 -82 -20q-62 0 -99.5 39.5t-37.5 105.5z" />
    <glyph glyph-name="eogonek" unicode="&#x119;" horiz-adv-x="1067" 
d="M969 528h-817v-12q0 -129 48.5 -239t138.5 -177t200 -67q129 0 209 55t143 186l45 -20q-51 -106 -115.5 -167.5t-150.5 -86.5q-60 -50 -87.5 -95t-27.5 -104q0 -43 24.5 -70.5t65.5 -27.5q31 0 60 16l16 -45q-33 -20 -82 -20q-62 0 -99.5 39.5t-37.5 105.5q0 111 96 187
q-12 -2 -59 -2q-194 0 -317.5 152t-123.5 380q0 117 36 217.5t97.5 169t142.5 107.5t171 39q189 0 306.5 -129.5t117.5 -335.5v-56zM154 578h761q-5 196 -103 308.5t-267 112.5q-147 0 -260 -119t-131 -302z" />
    <glyph glyph-name="Ecaron" unicode="&#x11a;" horiz-adv-x="1056" 
d="M184 0v1434h738v-50h-684v-596h561v-49h-561v-690h704v-49h-758zM537 1548l-224 262h66l174 -206l174 206h66l-224 -262h-32z" />
    <glyph glyph-name="ecaron" unicode="&#x11b;" horiz-adv-x="1067" 
d="M969 528h-817v-12q0 -129 48.5 -239t138.5 -177t200 -67q129 0 209 55t143 186l45 -20q-69 -142 -163 -206t-234 -64q-194 0 -317.5 152t-123.5 380q0 117 36 217.5t97.5 169t142.5 107.5t171 39q189 0 306.5 -129.5t117.5 -335.5v-56zM154 578h761q-5 196 -103 308.5
t-267 112.5q-147 0 -260 -119t-131 -302zM528 1147l-223 262h66l174 -207l174 207h65l-223 -262h-33z" />
    <glyph glyph-name="Gcircumflex" unicode="&#x11c;" horiz-adv-x="1366" 
d="M106 717q-2 172 46 313.5t132.5 232.5t196 140t236.5 47q196 0 326 -103t180 -290l-52 -19q-48 174 -165 268.5t-289 94.5q-116 0 -216.5 -45t-177 -129.5t-120 -216t-43.5 -293.5q0 -163 43 -293.5t118.5 -215.5t176.5 -130t219 -45q208 0 337 156.5t132 435.5h-352v49
h405v-674h-41l-12 225v133q-42 -173 -167 -273.5t-302 -100.5q-133 0 -244.5 48t-193.5 138.5t-127.5 230.5t-45.5 316zM477 1548l223 262h33l223 -262h-65l-174 207l-174 -207h-66z" />
    <glyph glyph-name="gcircumflex" unicode="&#x11d;" horiz-adv-x="948" 
d="M82 -111q0 71 38 136t95 104q-51 20 -80 62.5t-29 93.5q0 119 127 172q-88 94 -88 245q0 157 92.5 252t241.5 95q124 0 217 -72l174 98l25 -45l-162 -90q80 -92 80 -238q0 -157 -92.5 -251.5t-241.5 -94.5q-125 0 -213 70q-55 -20 -80.5 -54t-25.5 -87q0 -56 41 -90.5
t110 -34.5h285q126 0 205.5 -75t79.5 -198q0 -142 -111 -231q-113 -90 -289 -90q-187 0 -293 87t-106 236zM760 702q0 135 -78.5 216t-202.5 81t-202 -81t-78 -216t78 -215.5t202 -80.5q125 0 203 80.5t78 215.5zM831 -115q0 108 -66 167t-183 59h-273q-9 0 -41 4
q-60 -37 -98.5 -100.5t-38.5 -129.5q0 -126 92 -198t258 -72q160 0 255 73.5t95 196.5zM242 1147l223 262h33l223 -262h-66l-174 207l-174 -207h-65z" />
    <glyph glyph-name="Gbreve" unicode="&#x11e;" horiz-adv-x="1366" 
d="M106 717q-2 172 46 313.5t132.5 232.5t196 140t236.5 47q196 0 326 -103t180 -290l-52 -19q-48 174 -165 268.5t-289 94.5q-116 0 -216.5 -45t-177 -129.5t-120 -216t-43.5 -293.5q0 -163 43 -293.5t118.5 -215.5t176.5 -130t219 -45q208 0 337 156.5t132 435.5h-352v49
h405v-674h-41l-12 225v133q-42 -173 -167 -273.5t-302 -100.5q-133 0 -244.5 48t-193.5 138.5t-127.5 230.5t-45.5 316zM518 1835h53q0 -82 36.5 -128t109.5 -46t109 46t36 128h53q0 -102 -51 -162.5t-147 -60.5t-147.5 60.5t-51.5 162.5z" />
    <glyph glyph-name="gbreve" unicode="&#x11f;" horiz-adv-x="948" 
d="M82 -111q0 71 38 136t95 104q-51 20 -80 62.5t-29 93.5q0 119 127 172q-88 94 -88 245q0 157 92.5 252t241.5 95q124 0 217 -72l174 98l25 -45l-162 -90q80 -92 80 -238q0 -157 -92.5 -251.5t-241.5 -94.5q-125 0 -213 70q-55 -20 -80.5 -54t-25.5 -87q0 -56 41 -90.5
t110 -34.5h285q126 0 205.5 -75t79.5 -198q0 -142 -111 -231q-113 -90 -289 -90q-187 0 -293 87t-106 236zM760 702q0 135 -78.5 216t-202.5 81t-202 -81t-78 -216t78 -215.5t202 -80.5q125 0 203 80.5t78 215.5zM831 -115q0 108 -66 167t-183 59h-273q-9 0 -41 4
q-60 -37 -98.5 -100.5t-38.5 -129.5q0 -126 92 -198t258 -72q160 0 255 73.5t95 196.5zM283 1434h53q0 -82 36 -128t109 -46t109.5 46t36.5 128h53q0 -102 -51.5 -163t-147.5 -61t-147 60.5t-51 163.5z" />
    <glyph glyph-name="Gdotaccent" unicode="&#x120;" horiz-adv-x="1366" 
d="M106 717q-2 172 46 313.5t132.5 232.5t196 140t236.5 47q196 0 326 -103t180 -290l-52 -19q-48 174 -165 268.5t-289 94.5q-116 0 -216.5 -45t-177 -129.5t-120 -216t-43.5 -293.5q0 -163 43 -293.5t118.5 -215.5t176.5 -130t219 -45q208 0 337 156.5t132 435.5h-352v49
h405v-674h-41l-12 225v133q-42 -173 -167 -273.5t-302 -100.5q-133 0 -244.5 48t-193.5 138.5t-127.5 230.5t-45.5 316zM662 1731q0 25 15 40t40 15t40 -15t15 -40t-15 -40.5t-40 -15.5t-40 15.5t-15 40.5z" />
    <glyph glyph-name="gdotaccent" unicode="&#x121;" horiz-adv-x="948" 
d="M82 -111q0 71 38 136t95 104q-51 20 -80 62.5t-29 93.5q0 119 127 172q-88 94 -88 245q0 157 92.5 252t241.5 95q124 0 217 -72l174 98l25 -45l-162 -90q80 -92 80 -238q0 -157 -92.5 -251.5t-241.5 -94.5q-125 0 -213 70q-55 -20 -80.5 -54t-25.5 -87q0 -56 41 -90.5
t110 -34.5h285q126 0 205.5 -75t79.5 -198q0 -142 -111 -231q-113 -90 -289 -90q-187 0 -293 87t-106 236zM760 702q0 135 -78.5 216t-202.5 81t-202 -81t-78 -216t78 -215.5t202 -80.5q125 0 203 80.5t78 215.5zM831 -115q0 108 -66 167t-183 59h-273q-9 0 -41 4
q-60 -37 -98.5 -100.5t-38.5 -129.5q0 -126 92 -198t258 -72q160 0 255 73.5t95 196.5zM426 1329q0 25 15 40t40 15t40.5 -15t15.5 -40t-15.5 -40t-40.5 -15t-40 15t-15 40z" />
    <glyph glyph-name="uni0122" unicode="&#x122;" horiz-adv-x="1366" 
d="M106 717q-2 172 46 313.5t132.5 232.5t196 140t236.5 47q196 0 326 -103t180 -290l-52 -19q-48 174 -165 268.5t-289 94.5q-116 0 -216.5 -45t-177 -129.5t-120 -216t-43.5 -293.5q0 -163 43 -293.5t118.5 -215.5t176.5 -130t219 -45q208 0 337 156.5t132 435.5h-352v49
h405v-674h-41l-12 225v133q-42 -173 -167 -273.5t-302 -100.5q-133 0 -244.5 48t-193.5 138.5t-127.5 230.5t-45.5 316zM592 -397l82 291h82l-127 -291h-37z" />
    <glyph glyph-name="uni0123" unicode="&#x123;" horiz-adv-x="948" 
d="M82 -111q0 71 38 136t95 104q-51 20 -80 62.5t-29 93.5q0 119 127 172q-88 94 -88 245q0 157 92.5 252t241.5 95q124 0 217 -72l174 98l25 -45l-162 -90q80 -92 80 -238q0 -157 -92.5 -251.5t-241.5 -94.5q-125 0 -213 70q-55 -20 -80.5 -54t-25.5 -87q0 -56 41 -90.5
t110 -34.5h285q126 0 205.5 -75t79.5 -198q0 -142 -111 -231q-113 -90 -289 -90q-187 0 -293 87t-106 236zM760 702q0 135 -78.5 216t-202.5 81t-202 -81t-78 -216t78 -215.5t202 -80.5q125 0 203 80.5t78 215.5zM831 -115q0 108 -66 167t-183 59h-273q-9 0 -41 4
q-60 -37 -98.5 -100.5t-38.5 -129.5q0 -126 92 -198t258 -72q160 0 255 73.5t95 196.5zM444 1200l113 250h49l-88 -250h-74z" />
    <glyph glyph-name="Hcircumflex" unicode="&#x124;" horiz-adv-x="1302" 
d="M184 0v1434h54v-646h827v646h53v-1434h-53v739h-827v-739h-54zM412 1548l223 262h33l223 -262h-66l-174 207l-174 -207h-65z" />
    <glyph glyph-name="hcircumflex" unicode="&#x125;" horiz-adv-x="1087" 
d="M160 0v1450h53v-674q51 135 148 204t233 69q162 0 248 -91t86 -262v-696h-54v692q0 307 -292 307q-163 0 -266 -125.5t-103 -318.5v-555h-53zM168 1548l223 262h33l223 -262h-65l-174 207l-175 -207h-65z" />
    <glyph glyph-name="Hbar" unicode="&#x126;" horiz-adv-x="1302" 
d="M1251 1155v-49h-133v-1106h-53v739h-827v-739h-54v1106h-133v49h133v279h54v-279h827v279h53v-279h133zM1065 788v318h-827v-318h827z" />
    <glyph glyph-name="hbar" unicode="&#x127;" horiz-adv-x="1087" 
d="M928 696v-696h-54v692q0 307 -292 307q-163 0 -266 -125.5t-103 -318.5v-555h-53v1217h-137v49h137v184h53v-184h281v-49h-281v-441q51 135 148 204t233 69q162 0 248 -91t86 -262z" />
    <glyph glyph-name="Itilde" unicode="&#x128;" horiz-adv-x="421" 
d="M184 0v1434h54v-1434h-54zM-37 1640l-35 27q56 109 162 109q34 0 61 -11.5t72 -42.5q40 -27 62 -37t47 -10q42 0 68.5 18.5t58.5 67.5l35 -26q-56 -109 -162 -109q-32 0 -57.5 11t-75.5 42q-40 27 -62 37t-47 10q-42 0 -68.5 -18.5t-58.5 -67.5z" />
    <glyph glyph-name="itilde" unicode="&#x129;" horiz-adv-x="372" 
d="M160 0v1032h53v-1032h-53zM-61 1239l-35 27q55 108 162 108q34 0 61 -11t72 -42q40 -27 61.5 -37t46.5 -10q42 0 68.5 18.5t58.5 67.5l35 -27q-55 -108 -162 -108q-32 0 -57.5 11t-75.5 42q-40 27 -61.5 37t-46.5 10q-42 0 -68.5 -18.5t-58.5 -67.5z" />
    <glyph glyph-name="Imacron" unicode="&#x12a;" horiz-adv-x="421" 
d="M184 0v1434h54v-1434h-54zM-2 1671v49h426v-49h-426z" />
    <glyph glyph-name="imacron" unicode="&#x12b;" horiz-adv-x="372" 
d="M160 0v1032h53v-1032h-53zM-27 1270v49h426v-49h-426z" />
    <glyph glyph-name="Ibreve" unicode="&#x12c;" horiz-adv-x="421" 
d="M184 0v1434h54v-1434h-54zM12 1835h54q0 -82 36 -128t109 -46t109 46t36 128h54q0 -102 -51.5 -162.5t-147.5 -60.5t-147.5 60.5t-51.5 162.5z" />
    <glyph glyph-name="ibreve" unicode="&#x12d;" horiz-adv-x="372" 
d="M160 0v1032h53v-1032h-53zM-12 1434h53q0 -82 36 -128t109 -46t109.5 46t36.5 128h53q0 -102 -51.5 -163t-147.5 -61t-147 60.5t-51 163.5z" />
    <glyph glyph-name="Iogonek" unicode="&#x12e;" horiz-adv-x="421" 
d="M184 0v1434h54v-1434h-54zM70 -201q0 61 30 113.5t84 87.5h54q-60 -50 -87.5 -95t-27.5 -104q0 -43 24.5 -70.5t65.5 -27.5q30 0 59 16l17 -45q-33 -20 -82 -20q-62 0 -99.5 39.5t-37.5 105.5z" />
    <glyph glyph-name="iogonek" unicode="&#x12f;" horiz-adv-x="372" 
d="M160 0v1032h53v-1032h-53zM131 1329q0 25 15 40t40 15t40.5 -15t15.5 -40t-15.5 -40t-40.5 -15t-40 15t-15 40zM45 -201q0 61 30 113t85 88h53q-60 -50 -87.5 -95t-27.5 -104q0 -43 24.5 -70.5t65.5 -27.5q31 0 60 16l16 -45q-33 -20 -82 -20q-62 0 -99.5 39.5
t-37.5 105.5z" />
    <glyph glyph-name="Idot" unicode="&#x130;" horiz-adv-x="421" 
d="M184 0v1434h54v-1434h-54zM156 1731q0 25 15 40t40 15t40 -15t15 -40t-15 -40.5t-40 -15.5t-40 15.5t-15 40.5z" />
    <glyph glyph-name="dotlessi" unicode="&#x131;" horiz-adv-x="372" 
d="M160 0v1032h53v-1032h-53z" />
    <glyph glyph-name="IJ" unicode="&#x132;" horiz-adv-x="1400" 
d="M184 0v1434h54v-1434h-54zM483 346l47 10q20 -156 103.5 -239.5t224.5 -83.5q156 0 243 95t87 278v1028h53v-1031q0 -199 -104 -309t-279 -110q-160 0 -255 95.5t-120 266.5z" />
    <glyph glyph-name="ij" unicode="&#x133;" horiz-adv-x="745" 
d="M160 0v1032h53v-1032h-53zM131 1329q0 25 15 40t40 15t40.5 -15t15.5 -40t-15.5 -40t-40.5 -15t-40 15t-15 40zM408 -434l-11 49q74 23 104.5 74t30.5 155v1188h54v-1171q0 -129 -40.5 -196.5t-137.5 -98.5zM504 1329q0 25 15 40t40 15t40 -15t15 -40t-15 -40t-40 -15
t-40 15t-15 40z" />
    <glyph glyph-name="Jcircumflex" unicode="&#x134;" horiz-adv-x="978" 
d="M61 346l48 10q21 -156 103.5 -239.5t223.5 -83.5q156 0 243 95t87 278v1028h53v-1031q0 -199 -104 -309t-279 -110q-160 0 -255 95.5t-120 266.5zM553 1548l223 262h33l223 -262h-65l-174 207l-175 -207h-65z" />
    <glyph glyph-name="jcircumflex" unicode="&#x135;" horiz-adv-x="372" 
d="M35 -434l-10 49q74 23 104.5 74t30.5 155v1188h53v-1171q0 -129 -40.5 -196.5t-137.5 -98.5zM-53 1147l223 262h33l223 -262h-66l-174 207l-174 -207h-65z" />
    <glyph glyph-name="uni0136" unicode="&#x136;" horiz-adv-x="974" 
d="M184 0v1434h54v-637l587 637h68l-598 -648l647 -786h-65l-639 776v-776h-54zM406 -397l81 291h82l-127 -291h-36z" />
    <glyph glyph-name="uni0137" unicode="&#x137;" horiz-adv-x="806" 
d="M160 0v1450h53v-883l461 465h76l-474 -473l506 -559h-73l-496 551v-551h-53zM326 -397l82 291h81l-127 -291h-36z" />
    <glyph glyph-name="kgreenlandic" unicode="&#x138;" horiz-adv-x="806" 
d="M160 0v1032h53v-465l461 465h76l-474 -473l506 -559h-73l-496 551v-551h-53z" />
    <glyph glyph-name="Lacute" unicode="&#x139;" horiz-adv-x="991" 
d="M184 0v1434h54v-1385h671v-49h-725zM186 1548l121 262h82l-153 -262h-50z" />
    <glyph glyph-name="lacute" unicode="&#x13a;" horiz-adv-x="372" 
d="M160 0v1450h53v-1450h-53zM158 1548l121 262h81l-153 -262h-49z" />
    <glyph glyph-name="uni013B" unicode="&#x13b;" horiz-adv-x="991" 
d="M184 0v1434h54v-1385h671v-49h-725zM424 -397l82 291h82l-127 -291h-37z" />
    <glyph glyph-name="uni013C" unicode="&#x13c;" horiz-adv-x="372" 
d="M160 0v1450h53v-1450h-53zM63 -397l82 291h82l-127 -291h-37z" />
    <glyph glyph-name="Lcaron" unicode="&#x13d;" horiz-adv-x="991" 
d="M184 0v1434h54v-1385h671v-49h-725zM715 1110l37 324h84l-84 -324h-37z" />
    <glyph glyph-name="lcaron" unicode="&#x13e;" horiz-adv-x="452" 
d="M160 0v1450h53v-1450h-53zM332 1110l37 324h84l-84 -324h-37z" />
    <glyph glyph-name="Ldot" unicode="&#x13f;" horiz-adv-x="991" 
d="M184 0v1434h54v-1385h671v-49h-725zM735 688q0 25 16.5 41t41.5 16t41 -16t16 -41t-16 -41t-41 -16t-41.5 16t-16.5 41z" />
    <glyph glyph-name="ldot" unicode="&#x140;" horiz-adv-x="663" 
d="M160 0v1450h53v-1450h-53zM451 717q0 25 16 41t41 16t41 -16t16 -41t-16 -41.5t-41 -16.5t-41 16.5t-16 41.5z" />
    <glyph glyph-name="Lslash" unicode="&#x141;" horiz-adv-x="991" 
d="M238 49h671v-49h-725v549l-151 -86l-25 39l176 100v832h54v-801l342 194l24 -39l-366 -208v-531z" />
    <glyph glyph-name="lslash" unicode="&#x142;" horiz-adv-x="372" 
d="M395 805l-182 -103v-702h-53v672l-156 -88l-27 45l183 102v719h53v-688l156 88z" />
    <glyph glyph-name="Nacute" unicode="&#x143;" horiz-adv-x="1323" 
d="M184 0v1434h62l839 -1348v1348h54v-1434h-62l-839 1352v-1352h-54zM637 1548l121 262h82l-154 -262h-49z" />
    <glyph glyph-name="nacute" unicode="&#x144;" horiz-adv-x="1060" 
d="M160 0v1032h53v-246q49 129 144 196t225 67q155 0 237 -90.5t82 -262.5v-696h-53v692q0 152 -71 229.5t-208 77.5q-157 0 -256.5 -125.5t-99.5 -318.5v-555h-53zM504 1147l121 262h82l-154 -262h-49z" />
    <glyph glyph-name="uni0145" unicode="&#x145;" horiz-adv-x="1323" 
d="M184 0v1434h62l839 -1348v1348h54v-1434h-62l-839 1352v-1352h-54zM539 -397l82 291h81l-127 -291h-36z" />
    <glyph glyph-name="uni0146" unicode="&#x146;" horiz-adv-x="1060" 
d="M160 0v1032h53v-246q49 129 144 196t225 67q155 0 237 -90.5t82 -262.5v-696h-53v692q0 152 -71 229.5t-208 77.5q-157 0 -256.5 -125.5t-99.5 -318.5v-555h-53zM410 -397l82 291h81l-127 -291h-36z" />
    <glyph glyph-name="Ncaron" unicode="&#x147;" horiz-adv-x="1323" 
d="M184 0v1434h62l839 -1348v1348h54v-1434h-62l-839 1352v-1352h-54zM645 1548l-223 262h65l175 -206l174 206h65l-223 -262h-33z" />
    <glyph glyph-name="ncaron" unicode="&#x148;" horiz-adv-x="1060" 
d="M160 0v1032h53v-246q49 129 144 196t225 67q155 0 237 -90.5t82 -262.5v-696h-53v692q0 152 -71 229.5t-208 77.5q-157 0 -256.5 -125.5t-99.5 -318.5v-555h-53zM516 1147l-223 262h65l174 -207l175 207h65l-223 -262h-33z" />
    <glyph glyph-name="Eng" unicode="&#x14a;" horiz-adv-x="1323" 
d="M805 -434v49q133 0 206.5 90.5t73.5 265.5v29l-847 1352v-1352h-54v1434h62l839 -1340v1340h54v-1450q0 -205 -88.5 -311.5t-245.5 -106.5z" />
    <glyph glyph-name="eng" unicode="&#x14b;" horiz-adv-x="1060" 
d="M723 -434l-10 49q74 23 104.5 74t30.5 155v848q0 152 -71 229.5t-208 77.5q-157 0 -256.5 -125.5t-99.5 -318.5v-555h-53v1032h53v-246q49 129 144 196t225 67q155 0 237 -90.5t82 -262.5v-835q0 -129 -40.5 -196.5t-137.5 -98.5z" />
    <glyph glyph-name="Omacron" unicode="&#x14c;" horiz-adv-x="1437" 
d="M106 717q0 163 48.5 301.5t132 232.5t195.5 146.5t237 52.5t237 -52.5t195 -146.5t131.5 -232.5t48.5 -301.5t-48.5 -301.5t-131.5 -232.5t-195 -146.5t-237 -52.5t-237 52.5t-195.5 146.5t-132 232.5t-48.5 301.5zM1278 717q0 154 -45 284t-121.5 217t-178 135
t-214.5 48t-214.5 -48t-178 -135t-121.5 -217t-45 -284t45 -284t121.5 -217t178 -135t214.5 -48t214.5 48t178 135t121.5 217t45 284zM506 1671v49h426v-49h-426z" />
    <glyph glyph-name="omacron" unicode="&#x14d;" horiz-adv-x="1138" 
d="M98 516q0 141 55.5 261.5t165 196t250.5 75.5t250.5 -75.5t165 -196t55.5 -261.5t-55.5 -261t-164.5 -195.5t-251 -75.5t-251 75.5t-164.5 195.5t-55.5 261zM987 516q0 94 -29 181t-82 154t-132.5 107.5t-174.5 40.5q-125 0 -222 -69t-146 -178t-49 -236t49 -236
t146 -178t222 -69q95 0 174.5 40.5t132.5 107.5t82 154t29 181zM356 1270v49h426v-49h-426z" />
    <glyph glyph-name="Obreve" unicode="&#x14e;" horiz-adv-x="1437" 
d="M106 717q0 163 48.5 301.5t132 232.5t195.5 146.5t237 52.5t237 -52.5t195 -146.5t131.5 -232.5t48.5 -301.5t-48.5 -301.5t-131.5 -232.5t-195 -146.5t-237 -52.5t-237 52.5t-195.5 146.5t-132 232.5t-48.5 301.5zM1278 717q0 154 -45 284t-121.5 217t-178 135
t-214.5 48t-214.5 -48t-178 -135t-121.5 -217t-45 -284t45 -284t121.5 -217t178 -135t214.5 -48t214.5 48t178 135t121.5 217t45 284zM520 1835h53q0 -82 36.5 -128t109.5 -46t109 46t36 128h54q0 -102 -51.5 -162.5t-147.5 -60.5t-147.5 60.5t-51.5 162.5z" />
    <glyph glyph-name="obreve" unicode="&#x14f;" horiz-adv-x="1138" 
d="M98 516q0 141 55.5 261.5t165 196t250.5 75.5t250.5 -75.5t165 -196t55.5 -261.5t-55.5 -261t-164.5 -195.5t-251 -75.5t-251 75.5t-164.5 195.5t-55.5 261zM987 516q0 94 -29 181t-82 154t-132.5 107.5t-174.5 40.5q-125 0 -222 -69t-146 -178t-49 -236t49 -236
t146 -178t222 -69q95 0 174.5 40.5t132.5 107.5t82 154t29 181zM371 1434h53q0 -82 36 -128t109 -46t109.5 46t36.5 128h53q0 -102 -51.5 -163t-147.5 -61t-147 60.5t-51 163.5z" />
    <glyph glyph-name="Ohungarumlaut" unicode="&#x150;" horiz-adv-x="1437" 
d="M106 717q0 163 48.5 301.5t132 232.5t195.5 146.5t237 52.5t237 -52.5t195 -146.5t131.5 -232.5t48.5 -301.5t-48.5 -301.5t-131.5 -232.5t-195 -146.5t-237 -52.5t-237 52.5t-195.5 146.5t-132 232.5t-48.5 301.5zM1278 717q0 154 -45 284t-121.5 217t-178 135
t-214.5 48t-214.5 -48t-178 -135t-121.5 -217t-45 -284t45 -284t121.5 -217t178 -135t214.5 -48t214.5 48t178 135t121.5 217t45 284zM551 1548l121 262h82l-154 -262h-49zM817 1548l121 262h82l-154 -262h-49z" />
    <glyph glyph-name="ohungarumlaut" unicode="&#x151;" horiz-adv-x="1138" 
d="M98 516q0 141 55.5 261.5t165 196t250.5 75.5t250.5 -75.5t165 -196t55.5 -261.5t-55.5 -261t-164.5 -195.5t-251 -75.5t-251 75.5t-164.5 195.5t-55.5 261zM987 516q0 94 -29 181t-82 154t-132.5 107.5t-174.5 40.5q-125 0 -222 -69t-146 -178t-49 -236t49 -236
t146 -178t222 -69q95 0 174.5 40.5t132.5 107.5t82 154t29 181zM399 1147l121 262h82l-153 -262h-50zM666 1147l120 262h82l-153 -262h-49z" />
    <glyph glyph-name="OE" unicode="&#x152;" horiz-adv-x="2150" 
d="M106 717q0 163 48.5 301.5t132 232.5t195.5 146.5t237 52.5q187 0 337.5 -110.5t221.5 -305.5v400h737v-50h-684v-596h561v-49h-561v-690h705v-49h-758v399q-71 -195 -221 -305t-338 -110q-125 0 -237 52.5t-195.5 146.5t-132 232.5t-48.5 301.5zM1278 717q0 154 -45 284
t-121.5 217t-178 135t-214.5 48t-214.5 -48t-178 -135t-121.5 -217t-45 -284t45 -284t121.5 -217t178 -135t214.5 -48t214.5 48t178 135t121.5 217t45 284z" />
    <glyph glyph-name="oe" unicode="&#x153;" horiz-adv-x="1955" 
d="M98 516q0 141 55.5 261.5t165 196t250.5 75.5q162 0 279.5 -94.5t165.5 -252.5q48 162 162 252q118 95 258 95q189 0 306.5 -129.5t117.5 -335.5v-56h-818q0 -212 110.5 -353.5t276.5 -141.5q129 0 209.5 55t143.5 186l45 -20q-69 -142 -163.5 -206t-234.5 -64
q-151 0 -261.5 92.5t-153.5 251.5q-48 -158 -164.5 -251t-278.5 -93q-142 0 -251 75.5t-164.5 195.5t-55.5 261zM987 516q0 94 -29 181t-82 154t-132.5 107.5t-174.5 40.5q-125 0 -222 -69t-146 -178t-49 -236t49 -236t146 -178t222 -69q95 0 174.5 40.5t132.5 107.5t82 154
t29 181zM1042 578h762q-5 196 -103 308.5t-267 112.5q-147 0 -260.5 -119t-131.5 -302z" />
    <glyph glyph-name="Racute" unicode="&#x154;" horiz-adv-x="1193" 
d="M184 0v1434h453q167 0 264.5 -93t97.5 -249q0 -152 -92 -244t-252 -98l469 -750h-61l-471 750h-354v-750h-54zM238 799h387q155 0 238 76.5t83 216.5t-83 216t-238 76h-387v-585zM451 1548l120 262h82l-153 -262h-49z" />
    <glyph glyph-name="racute" unicode="&#x155;" horiz-adv-x="643" 
d="M160 0v1032h53v-180q41 96 111 146.5t163 50.5q59 0 123 -23l-16 -51q-47 24 -119 24q-107 0 -184.5 -100.5t-77.5 -249.5v-649h-53zM350 1147l121 262h82l-154 -262h-49z" />
    <glyph glyph-name="uni0156" unicode="&#x156;" horiz-adv-x="1193" 
d="M184 0v1434h453q167 0 264.5 -93t97.5 -249q0 -152 -92 -244t-252 -98l469 -750h-61l-471 750h-354v-750h-54zM238 799h387q155 0 238 76.5t83 216.5t-83 216t-238 76h-387v-585zM475 -397l82 291h82l-127 -291h-37z" />
    <glyph glyph-name="uni0157" unicode="&#x157;" horiz-adv-x="643" 
d="M160 0v1032h53v-180q41 96 111 146.5t163 50.5q59 0 123 -23l-16 -51q-47 24 -119 24q-107 0 -184.5 -100.5t-77.5 -249.5v-649h-53zM63 -397l82 291h82l-127 -291h-37z" />
    <glyph glyph-name="Rcaron" unicode="&#x158;" horiz-adv-x="1193" 
d="M184 0v1434h453q167 0 264.5 -93t97.5 -249q0 -152 -92 -244t-252 -98l469 -750h-61l-471 750h-354v-750h-54zM238 799h387q155 0 238 76.5t83 216.5t-83 216t-238 76h-387v-585zM459 1548l-223 262h65l174 -206l174 206h66l-223 -262h-33z" />
    <glyph glyph-name="rcaron" unicode="&#x159;" horiz-adv-x="643" 
d="M160 0v1032h53v-180q41 96 111 146.5t163 50.5q59 0 123 -23l-16 -51q-47 24 -119 24q-107 0 -184.5 -100.5t-77.5 -249.5v-649h-53zM362 1147l-223 262h66l174 -207l174 207h65l-223 -262h-33z" />
    <glyph glyph-name="Sacute" unicode="&#x15a;" horiz-adv-x="983" 
d="M86 362l47 23q25 -160 125.5 -258t241.5 -98q144 0 235.5 94t91.5 252q0 144 -73.5 225.5t-249.5 151.5q-346 138 -346 370q0 144 93.5 236t231.5 92q224 0 316 -215l-45 -27q-82 193 -271 193q-117 0 -194.5 -76.5t-77.5 -194.5q0 -115 76.5 -191.5t244.5 -145.5
q185 -75 267 -167t82 -245q0 -180 -108 -288.5t-273 -108.5q-163 0 -269.5 101t-144.5 277zM459 1548l121 262h82l-154 -262h-49z" />
    <glyph glyph-name="sacute" unicode="&#x15b;" horiz-adv-x="827" 
d="M94 248l45 20q33 -121 101 -178t192 -57q106 0 177 65.5t71 177.5q0 181 -236 242q-138 37 -213 109.5t-75 173.5q0 114 76 181t192 67q179 0 268 -160l-39 -31q-77 141 -235 141q-90 0 -151.5 -54.5t-61.5 -147.5q0 -84 65 -141.5t197 -96.5q134 -39 200 -106.5
t66 -173.5q0 -131 -88.5 -213t-212.5 -82q-268 0 -338 264zM393 1147l121 262h82l-154 -262h-49z" />
    <glyph glyph-name="Scircumflex" unicode="&#x15c;" horiz-adv-x="983" 
d="M86 362l47 23q25 -160 125.5 -258t241.5 -98q144 0 235.5 94t91.5 252q0 144 -73.5 225.5t-249.5 151.5q-346 138 -346 370q0 144 93.5 236t231.5 92q224 0 316 -215l-45 -27q-82 193 -271 193q-117 0 -194.5 -76.5t-77.5 -194.5q0 -115 76.5 -191.5t244.5 -145.5
q185 -75 267 -167t82 -245q0 -180 -108 -288.5t-273 -108.5q-163 0 -269.5 101t-144.5 277zM244 1548l223 262h33l223 -262h-66l-174 207l-174 -207h-65z" />
    <glyph glyph-name="scircumflex" unicode="&#x15d;" horiz-adv-x="827" 
d="M94 248l45 20q33 -121 101 -178t192 -57q106 0 177 65.5t71 177.5q0 181 -236 242q-138 37 -213 109.5t-75 173.5q0 114 76 181t192 67q179 0 268 -160l-39 -31q-77 141 -235 141q-90 0 -151.5 -54.5t-61.5 -147.5q0 -84 65 -141.5t197 -96.5q134 -39 200 -106.5
t66 -173.5q0 -131 -88.5 -213t-212.5 -82q-268 0 -338 264zM182 1147l224 262h32l224 -262h-66l-174 207l-174 -207h-66z" />
    <glyph glyph-name="Scedilla" unicode="&#x15e;" horiz-adv-x="983" 
d="M86 362l47 23q25 -160 125.5 -258t241.5 -98q144 0 235.5 94t91.5 252q0 144 -73.5 225.5t-249.5 151.5q-346 138 -346 370q0 144 93.5 236t231.5 92q224 0 316 -215l-45 -27q-82 193 -271 193q-117 0 -194.5 -76.5t-77.5 -194.5q0 -115 76.5 -191.5t244.5 -145.5
q185 -75 267 -167t82 -245q0 -180 -108 -288.5t-273 -108.5q-163 0 -269.5 101t-144.5 277zM403 -397l-69 37l131 237h53z" />
    <glyph glyph-name="scedilla" unicode="&#x15f;" horiz-adv-x="827" 
d="M94 248l45 20q33 -121 101 -178t192 -57q106 0 177 65.5t71 177.5q0 181 -236 242q-138 37 -213 109.5t-75 173.5q0 114 76 181t192 67q179 0 268 -160l-39 -31q-77 141 -235 141q-90 0 -151.5 -54.5t-61.5 -147.5q0 -84 65 -141.5t197 -96.5q134 -39 200 -106.5
t66 -173.5q0 -131 -88.5 -213t-212.5 -82q-268 0 -338 264zM344 -397l-70 37l132 237h53z" />
    <glyph glyph-name="Scaron" unicode="&#x160;" horiz-adv-x="983" 
d="M86 362l47 23q25 -160 125.5 -258t241.5 -98q144 0 235.5 94t91.5 252q0 144 -73.5 225.5t-249.5 151.5q-346 138 -346 370q0 144 93.5 236t231.5 92q224 0 316 -215l-45 -27q-82 193 -271 193q-117 0 -194.5 -76.5t-77.5 -194.5q0 -115 76.5 -191.5t244.5 -145.5
q185 -75 267 -167t82 -245q0 -180 -108 -288.5t-273 -108.5q-163 0 -269.5 101t-144.5 277zM467 1548l-223 262h65l174 -206l174 206h66l-223 -262h-33z" />
    <glyph glyph-name="scaron" unicode="&#x161;" horiz-adv-x="827" 
d="M94 248l45 20q33 -121 101 -178t192 -57q106 0 177 65.5t71 177.5q0 181 -236 242q-138 37 -213 109.5t-75 173.5q0 114 76 181t192 67q179 0 268 -160l-39 -31q-77 141 -235 141q-90 0 -151.5 -54.5t-61.5 -147.5q0 -84 65 -141.5t197 -96.5q134 -39 200 -106.5
t66 -173.5q0 -131 -88.5 -213t-212.5 -82q-268 0 -338 264zM406 1147l-224 262h66l174 -207l174 207h66l-224 -262h-32z" />
    <glyph glyph-name="uni0162" unicode="&#x162;" horiz-adv-x="1032" 
d="M489 0v1384h-428v50h910v-50h-428v-1384h-54zM424 -397l-70 37l131 237h54z" />
    <glyph glyph-name="uni0163" unicode="&#x163;" horiz-adv-x="624" 
d="M211 252v731h-186v49h186v379l53 39v-418h283v-49h-283v-752q0 -102 40 -150t120 -48q71 0 127 35l16 -45q-67 -39 -147 -39q-209 0 -209 268zM324 -397l-70 37l131 237h53z" />
    <glyph glyph-name="Tcaron" unicode="&#x164;" horiz-adv-x="1032" 
d="M489 0v1384h-428v50h910v-50h-428v-1384h-54zM500 1548l-224 262h66l174 -206l174 206h66l-224 -262h-32z" />
    <glyph glyph-name="tcaron" unicode="&#x165;" horiz-adv-x="624" 
d="M211 252v731h-186v49h186v379l53 39v-418h283v-49h-283v-752q0 -102 40 -150t120 -48q71 0 127 35l16 -45q-67 -39 -147 -39q-209 0 -209 268zM510 1110l37 324h84l-84 -324h-37z" />
    <glyph glyph-name="Tbar" unicode="&#x166;" horiz-adv-x="1032" 
d="M971 1384h-428v-643h205v-49h-205v-692h-54v692h-204v49h204v643h-428v50h910v-50z" />
    <glyph glyph-name="tbar" unicode="&#x167;" horiz-adv-x="624" 
d="M551 68l16 -45q-67 -39 -147 -39q-209 0 -209 268v301h-160v49h160v381h-186v49h186v379l53 39v-418h283v-49h-283v-381h258v-49h-258v-322q0 -102 40 -150t120 -48q71 0 127 35z" />
    <glyph glyph-name="Utilde" unicode="&#x168;" horiz-adv-x="1245" 
d="M160 489v945h53v-947q0 -207 108 -330.5t302 -123.5t301.5 123.5t107.5 330.5v947h53v-945q0 -236 -121 -370.5t-341 -134.5q-221 0 -342 134.5t-121 370.5zM375 1640l-35 27q56 109 162 109q34 0 61 -11.5t72 -42.5q40 -27 61.5 -37t46.5 -10q42 0 68.5 18.5t58.5 67.5
l35 -26q-56 -109 -162 -109q-32 0 -57.5 11t-75.5 42q-40 27 -61.5 37t-46.5 10q-42 0 -68.5 -18.5t-58.5 -67.5z" />
    <glyph glyph-name="utilde" unicode="&#x169;" horiz-adv-x="1060" 
d="M160 336v696h53v-692q0 -152 71 -229.5t208 -77.5q156 0 256 125.5t100 318.5v555h53v-1032h-53v246q-49 -127 -146 -194.5t-223 -67.5q-155 0 -237 90t-82 262zM285 1239l-35 27q55 108 162 108q34 0 61 -11t72 -42q40 -27 61.5 -37t46.5 -10q42 0 68.5 18.5t58.5 67.5
l35 -27q-55 -108 -162 -108q-32 0 -57.5 11t-75.5 42q-40 27 -61.5 37t-46.5 10q-42 0 -68.5 -18.5t-58.5 -67.5z" />
    <glyph glyph-name="Umacron" unicode="&#x16a;" horiz-adv-x="1245" 
d="M160 489v945h53v-947q0 -207 108 -330.5t302 -123.5t301.5 123.5t107.5 330.5v947h53v-945q0 -236 -121 -370.5t-341 -134.5q-221 0 -342 134.5t-121 370.5zM410 1671v49h426v-49h-426z" />
    <glyph glyph-name="umacron" unicode="&#x16b;" horiz-adv-x="1060" 
d="M160 336v696h53v-692q0 -152 71 -229.5t208 -77.5q156 0 256 125.5t100 318.5v555h53v-1032h-53v246q-49 -127 -146 -194.5t-223 -67.5q-155 0 -237 90t-82 262zM319 1270v49h426v-49h-426z" />
    <glyph glyph-name="Ubreve" unicode="&#x16c;" horiz-adv-x="1245" 
d="M160 489v945h53v-947q0 -207 108 -330.5t302 -123.5t301.5 123.5t107.5 330.5v947h53v-945q0 -236 -121 -370.5t-341 -134.5q-221 0 -342 134.5t-121 370.5zM424 1835h53q0 -82 36.5 -128t109.5 -46t109 46t36 128h53q0 -102 -51 -162.5t-147 -60.5t-147.5 60.5
t-51.5 162.5z" />
    <glyph glyph-name="ubreve" unicode="&#x16d;" horiz-adv-x="1060" 
d="M160 336v696h53v-692q0 -152 71 -229.5t208 -77.5q156 0 256 125.5t100 318.5v555h53v-1032h-53v246q-49 -127 -146 -194.5t-223 -67.5q-155 0 -237 90t-82 262zM334 1434h53q0 -82 36 -128t109 -46t109.5 46t36.5 128h53q0 -102 -51.5 -163t-147.5 -61t-147 60.5
t-51 163.5z" />
    <glyph glyph-name="Uring" unicode="&#x16e;" horiz-adv-x="1245" 
d="M160 489v945h53v-947q0 -207 108 -330.5t302 -123.5t301.5 123.5t107.5 330.5v947h53v-945q0 -236 -121 -370.5t-341 -134.5q-221 0 -342 134.5t-121 370.5zM434 1743q0 78 55 132t134 54t133.5 -54t54.5 -132t-54.5 -132.5t-133.5 -54.5t-134 54.5t-55 132.5zM758 1743
q0 60 -39 99.5t-96 39.5t-96.5 -39.5t-39.5 -99.5t39.5 -99.5t96.5 -39.5t96 39.5t39 99.5z" />
    <glyph glyph-name="uring" unicode="&#x16f;" horiz-adv-x="1060" 
d="M160 336v696h53v-692q0 -152 71 -229.5t208 -77.5q156 0 256 125.5t100 318.5v555h53v-1032h-53v246q-49 -127 -146 -194.5t-223 -67.5q-155 0 -237 90t-82 262zM344 1341q0 78 54.5 132.5t133.5 54.5t134 -54.5t55 -132.5t-55 -132t-134 -54t-133.5 54t-54.5 132z
M668 1341q0 60 -39.5 100t-96.5 40t-96 -40t-39 -100t39 -99.5t96 -39.5t96.5 39.5t39.5 99.5z" />
    <glyph glyph-name="Uhungarumlaut" unicode="&#x170;" horiz-adv-x="1245" 
d="M160 489v945h53v-947q0 -207 108 -330.5t302 -123.5t301.5 123.5t107.5 330.5v947h53v-945q0 -236 -121 -370.5t-341 -134.5q-221 0 -342 134.5t-121 370.5zM455 1548l120 262h82l-153 -262h-49zM721 1548l121 262h82l-154 -262h-49z" />
    <glyph glyph-name="uhungarumlaut" unicode="&#x171;" horiz-adv-x="1060" 
d="M160 336v696h53v-692q0 -152 71 -229.5t208 -77.5q156 0 256 125.5t100 318.5v555h53v-1032h-53v246q-49 -127 -146 -194.5t-223 -67.5q-155 0 -237 90t-82 262zM362 1147l121 262h82l-153 -262h-50zM629 1147l121 262h81l-153 -262h-49z" />
    <glyph glyph-name="Uogonek" unicode="&#x172;" horiz-adv-x="1245" 
d="M1032 1434h53v-945q0 -194 -83.5 -322.5t-239.5 -166.5q-60 -50 -87.5 -95t-27.5 -104q0 -43 24.5 -70.5t65.5 -27.5q31 0 60 16l16 -45q-33 -20 -82 -20q-62 0 -99.5 39.5t-37.5 105.5q0 113 96 189q-54 -4 -67 -4q-221 0 -342 134.5t-121 370.5v945h53v-947
q0 -207 108 -330.5t302 -123.5t301.5 123.5t107.5 330.5v947z" />
    <glyph glyph-name="uogonek" unicode="&#x173;" horiz-adv-x="1060" 
d="M936 -281l16 -45q-33 -20 -82 -20q-62 0 -99.5 39.5t-37.5 105.5q0 61 30 113t85 88v246q-49 -127 -146 -194.5t-223 -67.5q-155 0 -237 90t-82 262v696h53v-692q0 -152 71 -229.5t208 -77.5q156 0 256 125.5t100 318.5v555h53v-1032q-60 -50 -87.5 -95t-27.5 -104
q0 -43 25 -70.5t66 -27.5q30 0 59 16z" />
    <glyph glyph-name="Wcircumflex" unicode="&#x174;" horiz-adv-x="1667" 
d="M408 0l-383 1434h57l356 -1362l365 1210h61l365 -1210l356 1362h57l-382 -1434h-64l-362 1204l-363 -1204h-63zM594 1548l223 262h33l223 -262h-65l-174 207l-175 -207h-65z" />
    <glyph glyph-name="wcircumflex" unicode="&#x175;" horiz-adv-x="1302" 
d="M334 0l-305 1032h51l287 -969l258 969h53l258 -969l287 969h51l-305 -1032h-70l-248 942l-248 -942h-69zM412 1147l223 262h33l223 -262h-66l-174 207l-174 -207h-65z" />
    <glyph glyph-name="Ycircumflex" unicode="&#x176;" horiz-adv-x="1007" 
d="M477 0v643l-444 791h59l412 -738l411 738h60l-445 -791v-643h-53zM264 1548l223 262h33l223 -262h-65l-174 207l-174 -207h-66z" />
    <glyph glyph-name="ycircumflex" unicode="&#x177;" horiz-adv-x="798" 
d="M721 1032h57l-534 -1450h-56l179 484l-347 966h58l315 -895zM152 1147l223 262h33l223 -262h-66l-174 207l-174 -207h-65z" />
    <glyph glyph-name="Ydieresis" unicode="&#x178;" horiz-adv-x="1007" 
d="M477 0v643l-444 791h59l412 -738l411 738h60l-445 -791v-643h-53zM303 1710q0 25 17 42t42 17t42.5 -17t17.5 -42t-17.5 -42t-42.5 -17t-42 17t-17 42zM586 1710q0 25 17 42t42 17t42.5 -17t17.5 -42t-17.5 -42t-42.5 -17t-42 17t-17 42z" />
    <glyph glyph-name="Zacute" unicode="&#x179;" horiz-adv-x="1011" 
d="M88 0v25l752 1359h-727v50h796v-25l-751 -1360h766v-49h-836zM481 1548l121 262h82l-154 -262h-49z" />
    <glyph glyph-name="zacute" unicode="&#x17a;" horiz-adv-x="827" 
d="M74 0v29l577 954h-553v49h621v-37l-572 -946h594v-49h-667zM379 1147l121 262h82l-154 -262h-49z" />
    <glyph glyph-name="Zdotaccent" unicode="&#x17b;" horiz-adv-x="1011" 
d="M88 0v25l752 1359h-727v50h796v-25l-751 -1360h766v-49h-836zM451 1731q0 25 15 40t40 15t40 -15t15 -40t-15 -40.5t-40 -15.5t-40 15.5t-15 40.5z" />
    <glyph glyph-name="zdotaccent" unicode="&#x17c;" horiz-adv-x="827" 
d="M74 0v29l577 954h-553v49h621v-37l-572 -946h594v-49h-667zM352 1329q0 25 15.5 40t40.5 15t40 -15t15 -40t-15 -40t-40 -15t-40.5 15t-15.5 40z" />
    <glyph glyph-name="Zcaron" unicode="&#x17d;" horiz-adv-x="1011" 
d="M88 0v25l752 1359h-727v50h796v-25l-751 -1360h766v-49h-836zM489 1548l-223 262h66l174 -206l174 206h65l-223 -262h-33z" />
    <glyph glyph-name="zcaron" unicode="&#x17e;" horiz-adv-x="827" 
d="M74 0v29l577 954h-553v49h621v-37l-572 -946h594v-49h-667zM391 1147l-223 262h65l175 -207l174 207h65l-223 -262h-33z" />
    <glyph glyph-name="florin" unicode="&#x192;" horiz-adv-x="716" 
d="M-170 -408l23 48q45 -25 106 -25q80 0 134.5 59.5t78.5 178.5l221 1130h-168l11 49h167l27 139q29 138 107.5 208.5t191.5 70.5q67 0 113 -27l-23 -47q-45 25 -100 25q-89 0 -150.5 -59t-85.5 -179l-26 -131h229l-10 -49h-230l-221 -1139q-26 -137 -98.5 -207.5
t-177.5 -70.5q-74 0 -119 26z" />
    <glyph glyph-name="uni01B5" unicode="&#x1b5;" horiz-adv-x="1007" 
d="M88 0v25l369 667h-267v49h293l353 643h-723v50h792v-25l-366 -668h278v-49h-305l-354 -643h762v-49h-832z" />
    <glyph glyph-name="uni01B6" unicode="&#x1b6;" horiz-adv-x="827" 
d="M74 0v29l297 491h-199v49h229l250 414h-553v49h621v-37l-258 -426h182v-49h-211l-285 -471h594v-49h-667z" />
    <glyph glyph-name="Aringacute" unicode="&#x1fa;" horiz-adv-x="1146" 
d="M25 0l518 1434h61l518 -1434h-53l-162 446h-667l-162 -446h-53zM258 496h631l-316 874zM385 1743q0 78 54.5 132t133.5 54t134 -54t55 -132t-55 -132.5t-134 -54.5t-133.5 54.5t-54.5 132.5zM709 1743q0 60 -39.5 99.5t-96.5 39.5t-96 -39.5t-39 -99.5t39 -99.5t96 -39.5
t96.5 39.5t39.5 99.5zM559 1993l121 262h82l-154 -262h-49z" />
    <glyph glyph-name="aringacute" unicode="&#x1fb;" horiz-adv-x="960" 
d="M102 293q0 149 106.5 231t283.5 82h280v105q0 144 -73 216t-212 72q-116 0 -198 -58.5t-107 -172.5l-47 12q30 131 124 200t228 69q160 0 249 -87.5t89 -246.5v-715h-41l-12 184q-124 -200 -358 -200q-135 0 -223.5 83t-88.5 226zM772 365v192h-276q-162 0 -251 -70.5
t-89 -193.5q0 -122 75 -191t195 -69q86 0 164 38.5t130 116t52 177.5zM293 1341q0 78 54.5 132.5t133.5 54.5t134 -54.5t55 -132.5t-55 -132t-134 -54t-133.5 54t-54.5 132zM616 1341q0 60 -39 100t-96 40t-96 -40t-39 -100t39 -99.5t96 -39.5t96 39.5t39 99.5zM453 1626
l120 262h82l-153 -262h-49z" />
    <glyph glyph-name="AEacute" unicode="&#x1fc;" horiz-adv-x="1593" 
d="M25 0l628 1434h805v-50h-684v-596h561v-49h-561v-690h705v-49h-758v446h-445l-196 -446h-55zM297 496h424v888h-33zM1055 1548l121 262h81l-153 -262h-49z" />
    <glyph glyph-name="aeacute" unicode="&#x1fd;" horiz-adv-x="1740" 
d="M102 276q0 143 106.5 222.5t283.5 79.5h280v133q0 144 -73 216t-212 72q-116 0 -198 -58.5t-107 -172.5l-47 12q30 131 124 200t228 69q147 0 235 -72.5t101 -206.5q55 129 162.5 204t233.5 75q189 0 306 -129.5t117 -335.5v-56h-817q0 -212 110.5 -353.5t276.5 -141.5
q129 0 209.5 55t143.5 186l45 -20q-69 -142 -163.5 -206t-234.5 -64q-139 0 -248 86.5t-149 199.5q-99 -286 -401 -286q-135 0 -223.5 78.5t-88.5 213.5zM827 578h762q-5 196 -103 308.5t-267 112.5q-147 0 -260.5 -119t-131.5 -302zM772 365v163h-276q-162 0 -251 -67.5
t-89 -184.5q0 -114 75 -178.5t195 -64.5q145 0 245.5 90t100.5 242zM805 1147l121 262h82l-154 -262h-49z" />
    <glyph glyph-name="uni0218" unicode="&#x218;" horiz-adv-x="983" 
d="M86 362l47 23q25 -160 125.5 -258t241.5 -98q144 0 235.5 94t91.5 252q0 144 -73.5 225.5t-249.5 151.5q-346 138 -346 370q0 144 93.5 236t231.5 92q224 0 316 -215l-45 -27q-82 193 -271 193q-117 0 -194.5 -76.5t-77.5 -194.5q0 -115 76.5 -191.5t244.5 -145.5
q185 -75 267 -167t82 -245q0 -180 -108 -288.5t-273 -108.5q-163 0 -269.5 101t-144.5 277zM373 -397l82 291h82l-127 -291h-37z" />
    <glyph glyph-name="uni0219" unicode="&#x219;" horiz-adv-x="827" 
d="M94 248l45 20q33 -121 101 -178t192 -57q106 0 177 65.5t71 177.5q0 181 -236 242q-138 37 -213 109.5t-75 173.5q0 114 76 181t192 67q179 0 268 -160l-39 -31q-77 141 -235 141q-90 0 -151.5 -54.5t-61.5 -147.5q0 -84 65 -141.5t197 -96.5q134 -39 200 -106.5
t66 -173.5q0 -131 -88.5 -213t-212.5 -82q-268 0 -338 264zM309 -397l82 291h82l-127 -291h-37z" />
    <glyph glyph-name="uni021A" unicode="&#x21a;" horiz-adv-x="1032" 
d="M489 0v1384h-428v50h910v-50h-428v-1384h-54zM393 -397l82 291h82l-127 -291h-37z" />
    <glyph glyph-name="uni021B" unicode="&#x21b;" horiz-adv-x="624" 
d="M211 252v731h-186v49h186v379l53 39v-418h283v-49h-283v-752q0 -102 40 -150t120 -48q71 0 127 35l16 -45q-67 -39 -147 -39q-209 0 -209 268zM289 -397l82 291h82l-127 -291h-37z" />
    <glyph glyph-name="uni0237" unicode="&#x237;" horiz-adv-x="372" 
d="M35 -434l-10 49q74 23 104.5 74t30.5 155v1188h53v-1171q0 -129 -40.5 -196.5t-137.5 -98.5z" />
    <glyph glyph-name="uni02BC" unicode="&#x2bc;" horiz-adv-x="403" 
d="M78 1110l149 340h74l-174 -340h-49z" />
    <glyph glyph-name="circumflex" unicode="&#x2c6;" horiz-adv-x="643" 
d="M82 1147l223 262h33l223 -262h-65l-174 207l-175 -207h-65z" />
    <glyph glyph-name="caron" unicode="&#x2c7;" horiz-adv-x="643" 
d="M305 1147l-223 262h65l175 -207l174 207h65l-223 -262h-33z" />
    <glyph glyph-name="uni02C9" unicode="&#x2c9;" horiz-adv-x="425" 
d="M0 1270v49h426v-49h-426z" />
    <glyph glyph-name="breve" unicode="&#x2d8;" horiz-adv-x="544" 
d="M57 1434h54q0 -82 36 -128t109 -46t109 46t36 128h54q0 -102 -51.5 -163t-147.5 -61t-147.5 61t-51.5 163z" />
    <glyph glyph-name="dotaccent" unicode="&#x2d9;" horiz-adv-x="413" 
d="M152 1329q0 25 15 40t40 15t40 -15t15 -40t-15 -40t-40 -15t-40 15t-15 40z" />
    <glyph glyph-name="ring" unicode="&#x2da;" horiz-adv-x="479" 
d="M51 1341q0 78 55 132.5t134 54.5t133.5 -54.5t54.5 -132.5t-54.5 -132t-133.5 -54t-134 54t-55 132zM375 1341q0 60 -39 100t-96 40t-96.5 -40t-39.5 -100t39.5 -99.5t96.5 -39.5t96 39.5t39 99.5z" />
    <glyph glyph-name="ogonek" unicode="&#x2db;" horiz-adv-x="372" 
d="M63 -201q0 61 30 113t85 88h53q-60 -50 -87 -95t-27 -104q0 -43 24.5 -70.5t65.5 -27.5q30 0 59 16l17 -45q-33 -20 -82 -20q-62 0 -100 39.5t-38 105.5z" />
    <glyph glyph-name="tilde" unicode="&#x2dc;" horiz-adv-x="770" 
d="M137 1239l-35 27q55 108 162 108q34 0 61 -11t72 -42q40 -27 62 -37t47 -10q42 0 68.5 18.5t58.5 67.5l35 -27q-56 -108 -162 -108q-32 0 -57.5 11t-75.5 42q-40 27 -62 37t-47 10q-42 0 -68.5 -18.5t-58.5 -67.5z" />
    <glyph glyph-name="hungarumlaut" unicode="&#x2dd;" horiz-adv-x="591" 
d="M51 1147l121 262h82l-154 -262h-49zM317 1147l121 262h82l-153 -262h-50z" />
    <glyph glyph-name="gravecomb" unicode="&#x300;" horiz-adv-x="0" 
d="M-49 1147l-154 262h82l121 -262h-49z" />
    <glyph glyph-name="acutecomb" unicode="&#x301;" horiz-adv-x="0" 
d="M-203 1147l121 262h82l-154 -262h-49z" />
    <glyph glyph-name="uni0302" unicode="&#x302;" horiz-adv-x="0" 
d="M-479 1147l223 262h33l223 -262h-66l-174 207l-174 -207h-65z" />
    <glyph glyph-name="tildecomb" unicode="&#x303;" horiz-adv-x="0" 
d="M-530 1239l-35 27q55 108 162 108q34 0 61 -11t72 -42q40 -27 61.5 -37t46.5 -10q42 0 68.5 18.5t58.5 67.5l35 -27q-56 -108 -162 -108q-32 0 -57.5 11t-75.5 42q-40 27 -61.5 37t-46.5 10q-42 0 -68.5 -18.5t-58.5 -67.5z" />
    <glyph glyph-name="uni0304" unicode="&#x304;" horiz-adv-x="0" 
d="M-426 1270v49h426v-49h-426z" />
    <glyph glyph-name="uni0306" unicode="&#x306;" horiz-adv-x="0" 
d="M-397 1434h53q0 -82 36 -128t109 -46t109.5 46t36.5 128h53q0 -102 -51.5 -163t-147.5 -61t-147 60.5t-51 163.5z" />
    <glyph glyph-name="uni0307" unicode="&#x307;" horiz-adv-x="0" 
d="M-111 1329q0 25 15.5 40t40.5 15t40 -15t15 -40t-15 -40t-40 -15t-40.5 15t-15.5 40z" />
    <glyph glyph-name="uni0308" unicode="&#x308;" horiz-adv-x="0" 
d="M-401 1309q0 25 17 42t42 17t42 -17t17 -42t-17 -42.5t-42 -17.5t-42 17.5t-17 42.5zM-119 1309q0 25 17.5 42t42.5 17t42 -17t17 -42t-17 -42.5t-42 -17.5t-42.5 17.5t-17.5 42.5z" />
    <glyph glyph-name="uni030A" unicode="&#x30a;" horiz-adv-x="0" 
d="M-377 1341q0 78 55 132.5t134 54.5t133.5 -54.5t54.5 -132.5t-54.5 -132t-133.5 -54t-134 54t-55 132zM-53 1341q0 60 -39 100t-96 40t-96.5 -40t-39.5 -100t39.5 -99.5t96.5 -39.5t96 39.5t39 99.5z" />
    <glyph glyph-name="uni030B" unicode="&#x30b;" horiz-adv-x="0" 
d="M-469 1147l121 262h82l-154 -262h-49zM-203 1147l121 262h82l-154 -262h-49z" />
    <glyph glyph-name="uni030C" unicode="&#x30c;" horiz-adv-x="0" 
d="M-256 1147l-223 262h65l174 -207l174 207h66l-223 -262h-33z" />
    <glyph glyph-name="uni0312" unicode="&#x312;" horiz-adv-x="0" 
d="M-162 1200l113 250h49l-88 -250h-74z" />
    <glyph glyph-name="uni0326" unicode="&#x326;" horiz-adv-x="0" 
d="M-164 -397l82 291h82l-127 -291h-37z" />
    <glyph glyph-name="uni0327" unicode="&#x327;" horiz-adv-x="0" 
d="M-115 -397l-69 37l131 237h53z" />
    <glyph glyph-name="uni0328" unicode="&#x328;" horiz-adv-x="0" 
d="M-219 -201q0 61 30 113t85 88h53q-60 -50 -87.5 -95t-27.5 -104q0 -43 24.5 -70.5t65.5 -27.5q31 0 60 16l16 -45q-33 -20 -82 -20q-62 0 -99.5 39.5t-37.5 105.5z" />
    <glyph glyph-name="uni0335" unicode="&#x335;" horiz-adv-x="0" 
d="M-471 692v49h471v-49h-471z" />
    <glyph glyph-name="uni0336" unicode="&#x336;" horiz-adv-x="0" 
d="M-1200 692v49h1200v-49h-1200z" />
    <glyph glyph-name="uni0337" unicode="&#x337;" horiz-adv-x="0" 
d="M-391 633l-27 45l391 221l27 -45z" />
    <glyph glyph-name="uni0338" unicode="&#x338;" horiz-adv-x="0" 
d="M-831 -35l-43 33l831 1069l43 -33z" />
    <glyph glyph-name="uni037E" unicode="&#x37e;" horiz-adv-x="354" 
d="M137 803q0 25 16.5 41t41.5 16t41 -16t16 -41t-16 -41.5t-41 -16.5t-41.5 16.5t-16.5 41.5zM61 -117l95 297h69l-123 -297h-41z" />
    <glyph glyph-name="tonos" unicode="&#x384;" horiz-adv-x="421" 
d="M123 1147l98 287h78l-131 -287h-45z" />
    <glyph glyph-name="dieresistonos" unicode="&#x385;" horiz-adv-x="647" 
d="M242 1147l88 287h78l-121 -287h-45zM98 1292q0 25 17.5 42.5t42.5 17.5t42 -17.5t17 -42.5t-17 -42t-42 -17t-42.5 17t-17.5 42zM430 1292q0 25 17 42.5t42 17.5t42.5 -17.5t17.5 -42.5t-17.5 -42t-42.5 -17t-42 17t-17 42z" />
    <glyph glyph-name="Alphatonos" unicode="&#x386;" horiz-adv-x="1146" 
d="M25 0l518 1434h61l518 -1434h-53l-162 446h-667l-162 -446h-53zM258 496h631l-316 874zM152 1147l98 287h78l-131 -287h-45z" />
    <glyph glyph-name="anoteleia" unicode="&#x387;" horiz-adv-x="360" 
d="M123 717q0 25 16 41t41 16t41.5 -16t16.5 -41t-16.5 -41.5t-41.5 -16.5t-41 16.5t-16 41.5z" />
    <glyph glyph-name="Epsilontonos" unicode="&#x388;" horiz-adv-x="1056" 
d="M184 0v1434h738v-50h-684v-596h561v-49h-561v-690h704v-49h-758zM-135 1147l98 287h78l-131 -287h-45z" />
    <glyph glyph-name="Etatonos" unicode="&#x389;" horiz-adv-x="1302" 
d="M184 0v1434h54v-646h827v646h53v-1434h-53v739h-827v-739h-54zM-94 1147l98 287h78l-131 -287h-45z" />
    <glyph glyph-name="Iotatonos" unicode="&#x38a;" horiz-adv-x="421" 
d="M184 0v1434h54v-1434h-54zM-94 1147l98 287h78l-131 -287h-45z" />
    <glyph glyph-name="Omicrontonos" unicode="&#x38c;" horiz-adv-x="1437" 
d="M106 717q0 163 48.5 301.5t132 232.5t195.5 146.5t237 52.5t237 -52.5t195 -146.5t131.5 -232.5t48.5 -301.5t-48.5 -301.5t-131.5 -232.5t-195 -146.5t-237 -52.5t-237 52.5t-195.5 146.5t-132 232.5t-48.5 301.5zM1278 717q0 154 -45 284t-121.5 217t-178 135
t-214.5 48t-214.5 -48t-178 -135t-121.5 -217t-45 -284t45 -284t121.5 -217t178 -135t214.5 -48t214.5 48t178 135t121.5 217t45 284zM-49 1147l98 287h78l-131 -287h-45z" />
    <glyph glyph-name="Upsilontonos" unicode="&#x38e;" horiz-adv-x="1007" 
d="M477 0v643l-444 791h59l412 -738l411 738h60l-445 -791v-643h-53zM-217 1147l98 287h78l-131 -287h-45z" />
    <glyph glyph-name="Omegatonos" unicode="&#x38f;" horiz-adv-x="1323" 
d="M86 0v49h377q-197 171 -295 353.5t-98 406.5q-3 179 73 327t213 232.5t306 81.5q169 3 306 -81.5t212.5 -232.5t72.5 -327q0 -224 -98 -406.5t-295 -353.5h377v-49h-442v49q218 199 309 363q96 175 96 397q0 261 -152.5 426.5t-385.5 165.5t-386 -165.5t-153 -426.5
q0 -222 96 -397q91 -164 309 -363v-49h-442zM-82 1147l98 287h78l-131 -287h-45z" />
    <glyph glyph-name="iotadieresistonos" unicode="&#x390;" horiz-adv-x="372" 
d="M160 0v1032h53v-1032h-53zM104 1147l89 287h77l-120 -287h-46zM-39 1292q0 25 17 42.5t42 17.5t42.5 -17.5t17.5 -42.5t-17.5 -42t-42.5 -17t-42 17t-17 42zM293 1292q0 25 17 42.5t42 17.5t42.5 -17.5t17.5 -42.5t-17.5 -42t-42.5 -17t-42 17t-17 42z" />
    <glyph glyph-name="Alpha" unicode="&#x391;" horiz-adv-x="1146" 
d="M25 0l518 1434h61l518 -1434h-53l-162 446h-667l-162 -446h-53zM258 496h631l-316 874z" />
    <glyph glyph-name="Beta" unicode="&#x392;" horiz-adv-x="1179" 
d="M184 0v1434h441q179 0 276.5 -90.5t97.5 -256.5q0 -116 -54.5 -195t-147.5 -116q120 -30 192 -128t72 -253q0 -189 -107 -292t-297 -103h-473zM238 791h387q154 0 237.5 77.5t83.5 218.5t-85.5 219t-235.5 78h-387v-593zM238 49h403q179 0 273 87t94 259t-94 259t-273 87
h-403v-692z" />
    <glyph glyph-name="Gamma" unicode="&#x393;" horiz-adv-x="1013" 
d="M184 0v1434h768v-50h-714v-1384h-54z" />
    <glyph glyph-name="uni0394" unicode="&#x394;" horiz-adv-x="1146" 
d="M604 1434l518 -1434h-1097l518 1434h61zM96 49h955l-478 1321z" />
    <glyph glyph-name="Epsilon" unicode="&#x395;" horiz-adv-x="1056" 
d="M184 0v1434h738v-50h-684v-596h561v-49h-561v-690h704v-49h-758z" />
    <glyph glyph-name="Zeta" unicode="&#x396;" horiz-adv-x="1011" 
d="M88 0v25l752 1359h-727v50h796v-25l-751 -1360h766v-49h-836z" />
    <glyph glyph-name="Eta" unicode="&#x397;" horiz-adv-x="1302" 
d="M184 0v1434h54v-646h827v646h53v-1434h-53v739h-827v-739h-54z" />
    <glyph glyph-name="Theta" unicode="&#x398;" horiz-adv-x="1437" 
d="M106 717q0 163 48.5 301.5t132 232.5t195.5 146.5t237 52.5t237 -52.5t195 -146.5t131.5 -232.5t48.5 -301.5t-48.5 -301.5t-131.5 -232.5t-195 -146.5t-237 -52.5t-237 52.5t-195.5 146.5t-132 232.5t-48.5 301.5zM1278 717q0 154 -45 284t-121.5 217t-178 135
t-214.5 48t-214.5 -48t-178 -135t-121.5 -217t-45 -284t45 -284t121.5 -217t178 -135t214.5 -48t214.5 48t178 135t121.5 217t45 284zM487 694v49h463v-49h-463z" />
    <glyph glyph-name="Iota" unicode="&#x399;" horiz-adv-x="421" 
d="M184 0v1434h54v-1434h-54z" />
    <glyph glyph-name="Kappa" unicode="&#x39a;" horiz-adv-x="974" 
d="M184 0v1434h54v-637l587 637h68l-598 -648l647 -786h-65l-639 776v-776h-54z" />
    <glyph glyph-name="Lambda" unicode="&#x39b;" horiz-adv-x="1146" 
d="M25 0l518 1434h61l518 -1434h-53l-496 1370l-495 -1370h-53z" />
    <glyph glyph-name="Mu" unicode="&#x39c;" horiz-adv-x="1499" 
d="M184 0v1434h66l500 -1225l499 1225h66v-1434h-53v1323l-490 -1192h-45l-489 1192v-1323h-54z" />
    <glyph glyph-name="Nu" unicode="&#x39d;" horiz-adv-x="1323" 
d="M184 0v1434h62l839 -1348v1348h54v-1434h-62l-839 1352v-1352h-54z" />
    <glyph glyph-name="Xi" unicode="&#x39e;" horiz-adv-x="1050" 
d="M135 1384v50h780v-50h-780zM233 739v49h584v-49h-584zM115 0v49h821v-49h-821z" />
    <glyph glyph-name="Omicron" unicode="&#x39f;" horiz-adv-x="1437" 
d="M106 717q0 163 48.5 301.5t132 232.5t195.5 146.5t237 52.5t237 -52.5t195 -146.5t131.5 -232.5t48.5 -301.5t-48.5 -301.5t-131.5 -232.5t-195 -146.5t-237 -52.5t-237 52.5t-195.5 146.5t-132 232.5t-48.5 301.5zM1278 717q0 154 -45 284t-121.5 217t-178 135
t-214.5 48t-214.5 -48t-178 -135t-121.5 -217t-45 -284t45 -284t121.5 -217t178 -135t214.5 -48t214.5 48t178 135t121.5 217t45 284z" />
    <glyph glyph-name="Pi" unicode="&#x3a0;" horiz-adv-x="1282" 
d="M184 0v1434h914v-1434h-54v1384h-806v-1384h-54z" />
    <glyph glyph-name="Rho" unicode="&#x3a1;" horiz-adv-x="1140" 
d="M184 0v1434h443q197 0 310.5 -101.5t113.5 -279.5t-113.5 -279.5t-310.5 -101.5h-389v-672h-54zM238 721h391q179 0 273.5 86t94.5 246t-94.5 245.5t-273.5 85.5h-391v-663z" />
    <glyph glyph-name="Sigma" unicode="&#x3a3;" horiz-adv-x="1021" 
d="M117 0v20l446 697l-446 696v21h774v-50h-690l413 -655v-24l-413 -656h706v-49h-790z" />
    <glyph glyph-name="Tau" unicode="&#x3a4;" horiz-adv-x="1032" 
d="M489 0v1384h-428v50h910v-50h-428v-1384h-54z" />
    <glyph glyph-name="Upsilon" unicode="&#x3a5;" horiz-adv-x="1007" 
d="M477 0v643l-444 791h59l412 -738l411 738h60l-445 -791v-643h-53z" />
    <glyph glyph-name="Phi" unicode="&#x3a6;" horiz-adv-x="1486" 
d="M717 0v147q-276 0 -443.5 155.5t-167.5 414.5t167.5 414t443.5 155v148h53v-148q276 0 443 -155t167 -414t-167 -414.5t-443 -155.5v-147h-53zM717 197v1040q-247 0 -402 -143t-155 -377t155 -377t402 -143zM1327 717q0 234 -155 377t-402 143v-1040q247 0 402 143
t155 377z" />
    <glyph glyph-name="Chi" unicode="&#x3a7;" horiz-adv-x="1048" 
d="M33 0l461 791l-373 643h61l342 -588l342 588h62l-373 -643l461 -791h-66l-426 737l-426 -737h-65z" />
    <glyph glyph-name="Psi" unicode="&#x3a8;" horiz-adv-x="1363" 
d="M655 0v385q-238 0 -366.5 134.5t-128.5 381.5v533h53v-533q0 -217 114.5 -342t317.5 -125h10v1000h54v-1000h10q203 0 317.5 125t114.5 342v533h53v-533q0 -247 -128.5 -381.5t-366.5 -134.5v-385h-54z" />
    <glyph glyph-name="uni03A9" unicode="&#x3a9;" horiz-adv-x="1323" 
d="M86 0v49h377q-197 171 -295 353.5t-98 406.5q-3 179 73 327t213 232.5t306 81.5q169 3 306 -81.5t212.5 -232.5t72.5 -327q0 -224 -98 -406.5t-295 -353.5h377v-49h-442v49q218 199 309 363q96 175 96 397q0 261 -152.5 426.5t-385.5 165.5t-386 -165.5t-153 -426.5
q0 -222 96 -397q91 -164 309 -363v-49h-442z" />
    <glyph glyph-name="Iotadieresis" unicode="&#x3aa;" horiz-adv-x="421" 
d="M184 0v1434h54v-1434h-54zM10 1710q0 25 17.5 42t42.5 17t42 -17t17 -42t-17 -42t-42 -17t-42.5 17t-17.5 42zM293 1710q0 25 17 42t42 17t42.5 -17t17.5 -42t-17.5 -42t-42.5 -17t-42 17t-17 42z" />
    <glyph glyph-name="Upsilondieresis" unicode="&#x3ab;" horiz-adv-x="1007" 
d="M477 0v643l-444 791h59l412 -738l411 738h60l-445 -791v-643h-53zM303 1710q0 25 17 42t42 17t42.5 -17t17.5 -42t-17.5 -42t-42.5 -17t-42 17t-17 42zM586 1710q0 25 17 42t42 17t42.5 -17t17.5 -42t-17.5 -42t-42.5 -17t-42 17t-17 42z" />
    <glyph glyph-name="alphatonos" unicode="&#x3ac;" horiz-adv-x="1142" 
d="M98 516q0 232 122 382.5t319 150.5q278 0 395 -283q-4 86 -4 121v145h53v-1032h-53v156l4 131q-38 -140 -146.5 -221.5t-252.5 -81.5q-130 0 -230 69.5t-153.5 190t-53.5 272.5zM934 516q0 206 -108.5 344.5t-282.5 138.5t-282.5 -138.5t-108.5 -344.5q0 -209 107.5 -346
t283.5 -137t283.5 137t107.5 346zM549 1147l98 287h78l-131 -287h-45z" />
    <glyph glyph-name="epsilontonos" unicode="&#x3ad;" horiz-adv-x="806" 
d="M94 274q0 101 53.5 170.5t151.5 100.5q-82 31 -129 93.5t-47 143.5q0 120 79.5 193.5t200.5 73.5q119 0 192 -56t93 -166l-51 -10q-23 96 -81 139t-153 43q-101 0 -164 -58t-63 -161q0 -88 67 -150.5t169 -62.5h55v-49h-51q-120 0 -194.5 -65.5t-74.5 -178.5
q0 -109 74 -175t178 -66q121 0 186.5 55t90.5 178l49 -8q-53 -274 -326 -274q-132 0 -218.5 79t-86.5 211zM377 1147l98 287h78l-131 -287h-45z" />
    <glyph glyph-name="etatonos" unicode="&#x3ae;" horiz-adv-x="1060" 
d="M848 -418v1110q0 152 -71 229.5t-208 77.5q-157 0 -256.5 -125.5t-99.5 -318.5v-555h-53v1032h53v-246q49 129 144 196t225 67q155 0 237 -90.5t82 -262.5v-1114h-53zM510 1147l98 287h78l-131 -287h-45z" />
    <glyph glyph-name="iotatonos" unicode="&#x3af;" horiz-adv-x="372" 
d="M160 0v1032h53v-1032h-53zM164 1147l98 287h78l-131 -287h-45z" />
    <glyph glyph-name="upsilondieresistonos" unicode="&#x3b0;" horiz-adv-x="1060" 
d="M160 377v655h53v-651q0 -169 82 -258.5t235 -89.5t235.5 89.5t82.5 258.5v651h53v-655q0 -190 -96.5 -291.5t-274.5 -101.5t-274 101.5t-96 291.5zM449 1147l88 287h77l-120 -287h-45zM305 1292q0 25 17.5 42.5t42.5 17.5t42 -17.5t17 -42.5t-17 -42t-42 -17t-42.5 17
t-17.5 42zM637 1292q0 25 17 42.5t42 17.5t42.5 -17.5t17.5 -42.5t-17.5 -42t-42.5 -17t-42 17t-17 42z" />
    <glyph glyph-name="alpha" unicode="&#x3b1;" horiz-adv-x="1142" 
d="M98 516q0 232 122 382.5t319 150.5q278 0 395 -283q-4 86 -4 121v145h53v-1032h-53v156l4 131q-38 -140 -146.5 -221.5t-252.5 -81.5q-130 0 -230 69.5t-153.5 190t-53.5 272.5zM934 516q0 206 -108.5 344.5t-282.5 138.5t-282.5 -138.5t-108.5 -344.5q0 -209 107.5 -346
t283.5 -137t283.5 137t107.5 346z" />
    <glyph glyph-name="beta" unicode="&#x3b2;" horiz-adv-x="1024" 
d="M160 -418v1473q0 185 99 290t247 105q159 0 249.5 -89.5t90.5 -248.5q0 -114 -68.5 -200t-167.5 -117q132 -21 221 -121q95 -103 95 -264q0 -198 -103 -312t-282 -114q-113 0 -198 49t-130 135v-586h-53zM872 408q0 169 -107.5 262.5t-297.5 93.5h-94v49h96
q146 0 235 86.5t89 212.5q0 139 -76 214t-213 75q-132 0 -211.5 -92t-79.5 -256v-697q0 -97 48 -172.5t121 -113t155 -37.5q159 0 247 100t88 275z" />
    <glyph glyph-name="gamma" unicode="&#x3b3;" horiz-adv-x="892" 
d="M420 -418v422l-387 1028h55l358 -964l359 964h55l-387 -1028v-422h-53z" />
    <glyph glyph-name="delta" unicode="&#x3b4;" horiz-adv-x="1138" 
d="M98 516q0 141 55.5 261.5t165 196t250.5 75.5q46 0 90 -13l-454 348v50h719v-50h-635l522 -399q117 -90 173 -199.5t56 -269.5q0 -141 -55.5 -261t-164.5 -195.5t-251 -75.5t-251 75.5t-164.5 195.5t-55.5 261zM987 516q0 94 -29 181t-82 154t-132.5 107.5t-174.5 40.5
q-125 0 -222 -69t-146 -178t-49 -236t49 -236t146 -178t222 -69q95 0 174.5 40.5t132.5 107.5t82 154t29 181z" />
    <glyph glyph-name="epsilon" unicode="&#x3b5;" horiz-adv-x="806" 
d="M94 274q0 101 53.5 170.5t151.5 100.5q-82 31 -129 93.5t-47 143.5q0 120 79.5 193.5t200.5 73.5q119 0 192 -56t93 -166l-51 -10q-23 96 -81 139t-153 43q-101 0 -164 -58t-63 -161q0 -88 67 -150.5t169 -62.5h55v-49h-51q-120 0 -194.5 -65.5t-74.5 -178.5
q0 -109 74 -175t178 -66q121 0 186.5 55t90.5 178l49 -8q-53 -274 -326 -274q-132 0 -218.5 79t-86.5 211z" />
    <glyph glyph-name="zeta" unicode="&#x3b6;" horiz-adv-x="892" 
d="M227 -279l33 46q42 -73 118.5 -112.5t166.5 -39.5q113 0 183.5 62.5t70.5 177.5q0 95 -64.5 148.5t-195.5 53.5h-113q-143 0 -244 82q-100 81 -100 250q0 108 49 207.5t154 220.5l495 567h-645v50h733v-21l-546 -625q-187 -213 -187 -399q0 -139 81.5 -211t229.5 -72h109
q140 0 218.5 -68.5t78.5 -182.5q0 -131 -87.5 -210t-219.5 -79q-93 0 -183.5 43.5t-134.5 111.5z" />
    <glyph glyph-name="eta" unicode="&#x3b7;" horiz-adv-x="1060" 
d="M848 -418v1110q0 152 -71 229.5t-208 77.5q-157 0 -256.5 -125.5t-99.5 -318.5v-555h-53v1032h53v-246q49 129 144 196t225 67q155 0 237 -90.5t82 -262.5v-1114h-53z" />
    <glyph glyph-name="theta" unicode="&#x3b8;" horiz-adv-x="1187" 
d="M98 717q0 333 127 534q126 199 369 199t369 -199q127 -201 127 -534q0 -334 -127 -535q-125 -198 -369 -198t-369 198q-127 201 -127 535zM152 741h884q-3 305 -116 482q-114 178 -326 178t-326 -178q-113 -177 -116 -482zM1036 692h-884q3 -304 116 -481
q114 -178 326 -178t326 178q113 177 116 481z" />
    <glyph glyph-name="iota" unicode="&#x3b9;" horiz-adv-x="372" 
d="M160 0v1032h53v-1032h-53z" />
    <glyph glyph-name="kappa" unicode="&#x3ba;" horiz-adv-x="806" 
d="M160 0v1032h53v-465l461 465h76l-474 -473l506 -559h-73l-496 551v-551h-53z" />
    <glyph glyph-name="lambda" unicode="&#x3bb;" horiz-adv-x="798" 
d="M20 0l347 969l-123 334q-18 53 -45 75.5t-66 22.5q-26 0 -65 -17l-15 46q36 20 82 20q60 0 94.5 -28t59.5 -93l489 -1329h-57l-328 895l-315 -895h-58z" />
    <glyph glyph-name="uni03BC" unicode="&#x3bc;" horiz-adv-x="1060" 
d="M160 -418v1450h53v-692q0 -152 71 -229.5t208 -77.5q156 0 256 125.5t100 318.5v555h53v-1032h-53v246q-49 -127 -146 -194.5t-223 -67.5q-92 0 -160.5 36.5t-105.5 104.5v-543h-53z" />
    <glyph glyph-name="nu" unicode="&#x3bd;" horiz-adv-x="876" 
d="M414 0l-381 1032h55l350 -969l350 969h56l-381 -1032h-49z" />
    <glyph glyph-name="xi" unicode="&#x3be;" horiz-adv-x="870" 
d="M242 -248l43 29q82 -166 250 -166q120 0 189 62t69 182q0 94 -64 146t-194 52h-46q-169 0 -280 103t-111 270q0 133 70 224t182 130q-94 37 -150.5 119t-56.5 189q0 148 96.5 253t252.5 105q141 0 233 -78.5t115 -220.5l-49 -10q-47 260 -299 260q-132 0 -213.5 -88
t-81.5 -226q0 -125 82 -201.5t215 -76.5h131v-49h-131q-140 0 -244 -84q-98 -82 -98 -242q0 -170 100 -248q103 -80 242 -80h57q136 0 215.5 -64.5t79.5 -176.5q0 -134 -86.5 -216.5t-222.5 -82.5q-101 0 -173.5 44.5t-121.5 141.5z" />
    <glyph glyph-name="omicron" unicode="&#x3bf;" horiz-adv-x="1138" 
d="M98 516q0 141 55.5 261.5t165 196t250.5 75.5t250.5 -75.5t165 -196t55.5 -261.5t-55.5 -261t-164.5 -195.5t-251 -75.5t-251 75.5t-164.5 195.5t-55.5 261zM987 516q0 94 -29 181t-82 154t-132.5 107.5t-174.5 40.5q-125 0 -222 -69t-146 -178t-49 -236t49 -236
t146 -178t222 -69q95 0 174.5 40.5t132.5 107.5t82 154t29 181z" />
    <glyph glyph-name="pi" unicode="&#x3c0;" horiz-adv-x="1107" 
d="M244 0v983h-191v49h1002v-49h-191v-983h-53v983h-514v-983h-53z" />
    <glyph glyph-name="rho" unicode="&#x3c1;" horiz-adv-x="1142" 
d="M160 -418v938q0 244 123 386.5t325 142.5q195 0 315.5 -150.5t120.5 -382.5q0 -152 -53.5 -272.5t-153 -190t-229.5 -69.5q-282 0 -399 282q4 -86 4 -121v-563h-53zM991 516q0 209 -107.5 346t-283.5 137t-283.5 -137t-107.5 -346q0 -206 108.5 -344.5t282.5 -138.5
t282.5 138.5t108.5 344.5z" />
    <glyph glyph-name="uni03C2" unicode="&#x3c2;" horiz-adv-x="1007" 
d="M283 -326l32 41q87 -100 242 -100q121 0 188.5 58t67.5 161q0 205 -233 205h-19q-126 0 -230.5 56.5t-168.5 167t-64 253.5q0 145 51 265t151 194t232 74q151 0 246.5 -70t143.5 -213l-48 -16q-47 132 -128.5 190.5t-213.5 58.5q-116 0 -204 -67.5t-132 -176t-44 -239.5
q0 -193 121 -310.5t296 -117.5h25q128 0 200 -66t72 -178q0 -125 -83.5 -201.5t-225.5 -76.5q-179 0 -274 108z" />
    <glyph glyph-name="sigma" unicode="&#x3c3;" horiz-adv-x="1112" 
d="M98 516q0 141 55.5 261.5t165 196t250.5 75.5q55 0 125 -17h406v-49h-293q109 -68 171 -193.5t62 -273.5q0 -141 -55.5 -261t-164.5 -195.5t-251 -75.5t-251 75.5t-164.5 195.5t-55.5 261zM987 516q0 94 -29 181t-82 154t-132.5 107.5t-174.5 40.5q-125 0 -222 -69
t-146 -178t-49 -236t49 -236t146 -178t222 -69q95 0 174.5 40.5t132.5 107.5t82 154t29 181z" />
    <glyph glyph-name="tau" unicode="&#x3c4;" horiz-adv-x="708" 
d="M328 0v983h-303v49h659v-49h-303v-983h-53z" />
    <glyph glyph-name="upsilon" unicode="&#x3c5;" horiz-adv-x="1060" 
d="M160 377v655h53v-651q0 -169 82 -258.5t235 -89.5t235.5 89.5t82.5 258.5v651h53v-655q0 -190 -96.5 -291.5t-274.5 -101.5t-274 101.5t-96 291.5z" />
    <glyph glyph-name="phi" unicode="&#x3c6;" horiz-adv-x="1265" 
d="M608 -418v402q-215 0 -362.5 152.5t-147.5 379.5q0 228 146.5 380.5t363.5 152.5v208h49v-208q217 0 363.5 -152.5t146.5 -380.5q0 -227 -147.5 -379.5t-362.5 -152.5v-402h-49zM600 33h8v966h-8q-186 0 -317 -139t-131 -344t131 -344t317 -139zM657 33h9q186 0 317 139
t131 344t-131 344t-317 139h-9v-966z" />
    <glyph glyph-name="chi" unicode="&#x3c7;" horiz-adv-x="786" 
d="M20 0l345 565l-283 467h57l254 -418l254 418h58l-283 -467l344 -565h-61l-312 516l-311 -516h-62z" />
    <glyph glyph-name="psi" unicode="&#x3c8;" horiz-adv-x="1327" 
d="M637 -418v402q-214 0 -345.5 137.5t-131.5 349.5v561h53v-561q0 -192 117 -315t307 -123v1224h53v-1224q190 0 307 123t117 315v561h53v-561q0 -212 -131.5 -349.5t-345.5 -137.5v-402h-53z" />
    <glyph glyph-name="omega" unicode="&#x3c9;" horiz-adv-x="1392" 
d="M86 444q0 321 254 605l43 -35q-244 -268 -244 -570q0 -211 76 -311t211 -100q115 0 179.5 94t64.5 242v397h53v-397q0 -148 64.5 -242t179.5 -94q135 0 210.5 99.5t75.5 311.5q0 303 -243 570l43 35q254 -284 254 -605q0 -227 -88.5 -343.5t-239.5 -116.5
q-216 0 -283 227q-67 -227 -282 -227q-151 0 -239.5 116.5t-88.5 343.5z" />
    <glyph glyph-name="iotadieresis" unicode="&#x3ca;" horiz-adv-x="372" 
d="M160 0v1032h53v-1032h-53zM-14 1309q0 25 17 42t42 17t42 -17t17 -42t-17 -42.5t-42 -17.5t-42 17.5t-17 42.5zM268 1309q0 25 17.5 42t42.5 17t42 -17t17 -42t-17 -42.5t-42 -17.5t-42.5 17.5t-17.5 42.5z" />
    <glyph glyph-name="upsilondieresis" unicode="&#x3cb;" horiz-adv-x="1060" 
d="M160 377v655h53v-651q0 -169 82 -258.5t235 -89.5t235.5 89.5t82.5 258.5v651h53v-655q0 -190 -96.5 -291.5t-274.5 -101.5t-274 101.5t-96 291.5zM330 1309q0 25 17 42t42 17t42.5 -17t17.5 -42t-17.5 -42.5t-42.5 -17.5t-42 17.5t-17 42.5zM612 1309q0 25 17.5 42
t42.5 17t42 -17t17 -42t-17 -42.5t-42 -17.5t-42.5 17.5t-17.5 42.5z" />
    <glyph glyph-name="omicrontonos" unicode="&#x3cc;" horiz-adv-x="1138" 
d="M98 516q0 141 55.5 261.5t165 196t250.5 75.5t250.5 -75.5t165 -196t55.5 -261.5t-55.5 -261t-164.5 -195.5t-251 -75.5t-251 75.5t-164.5 195.5t-55.5 261zM987 516q0 94 -29 181t-82 154t-132.5 107.5t-174.5 40.5q-125 0 -222 -69t-146 -178t-49 -236t49 -236
t146 -178t222 -69q95 0 174.5 40.5t132.5 107.5t82 154t29 181zM547 1147l98 287h78l-131 -287h-45z" />
    <glyph glyph-name="upsilontonos" unicode="&#x3cd;" horiz-adv-x="1060" 
d="M160 377v655h53v-651q0 -169 82 -258.5t235 -89.5t235.5 89.5t82.5 258.5v651h53v-655q0 -190 -96.5 -291.5t-274.5 -101.5t-274 101.5t-96 291.5zM508 1147l98 287h78l-131 -287h-45z" />
    <glyph glyph-name="omegatonos" unicode="&#x3ce;" horiz-adv-x="1392" 
d="M86 444q0 321 254 605l43 -35q-244 -268 -244 -570q0 -211 76 -311t211 -100q115 0 179.5 94t64.5 242v397h53v-397q0 -148 64.5 -242t179.5 -94q135 0 210.5 99.5t75.5 311.5q0 303 -243 570l43 35q254 -284 254 -605q0 -227 -88.5 -343.5t-239.5 -116.5
q-216 0 -283 227q-67 -227 -282 -227q-151 0 -239.5 116.5t-88.5 343.5zM674 1147l98 287h78l-131 -287h-45z" />
    <glyph glyph-name="uni0400" unicode="&#x400;" horiz-adv-x="1056" 
d="M184 0v1434h738v-50h-684v-596h561v-49h-561v-690h704v-49h-758zM528 1548l-153 262h82l121 -262h-50z" />
    <glyph glyph-name="uni0401" unicode="&#x401;" horiz-adv-x="1056" 
d="M184 0v1434h738v-50h-684v-596h561v-49h-561v-690h704v-49h-758zM352 1710q0 25 17.5 42t42.5 17t42 -17t17 -42t-17 -42t-42 -17t-42.5 17t-17.5 42zM635 1710q0 25 17 42t42 17t42.5 -17t17.5 -42t-17.5 -42t-42.5 -17t-42 17t-17 42z" />
    <glyph glyph-name="uni0402" unicode="&#x402;" horiz-adv-x="1421" 
d="M803 0v49q50 -16 102 -16q152 0 258.5 112.5t106.5 272.5q0 173 -117.5 278t-316.5 105q-179 0 -334 -96v-705h-53v1384h-388v50h895v-50h-454v-622q163 88 344 88q225 0 351 -115t126 -317q0 -184 -122.5 -309t-295.5 -125q-56 0 -102 16z" />
    <glyph glyph-name="uni0403" unicode="&#x403;" horiz-adv-x="1013" 
d="M184 0v1434h768v-50h-714v-1384h-54zM543 1548l121 262h81l-153 -262h-49z" />
    <glyph glyph-name="uni0404" unicode="&#x404;" horiz-adv-x="1329" 
d="M1169 397l50 -16q-55 -185 -189 -291t-321 -106q-121 0 -229 48t-192 137.5t-133 231t-49 316.5q-2 139 30.5 259t90 206.5t135 148t166 91t181.5 28.5q199 0 333.5 -100.5t184.5 -282.5l-51 -14q-43 165 -164 256.5t-303 91.5q-106 0 -202.5 -42.5t-173.5 -123
t-123.5 -208.5t-49.5 -286h649v-49h-649q2 -127 33 -235.5t83 -185.5t121.5 -131.5t148 -80.5t163.5 -26q174 0 289.5 94.5t170.5 269.5z" />
    <glyph glyph-name="uni0405" unicode="&#x405;" horiz-adv-x="983" 
d="M86 362l47 23q25 -160 125.5 -258t241.5 -98q144 0 235.5 94t91.5 252q0 144 -73.5 225.5t-249.5 151.5q-346 138 -346 370q0 144 93.5 236t231.5 92q224 0 316 -215l-45 -27q-82 193 -271 193q-117 0 -194.5 -76.5t-77.5 -194.5q0 -115 76.5 -191.5t244.5 -145.5
q185 -75 267 -167t82 -245q0 -180 -108 -288.5t-273 -108.5q-163 0 -269.5 101t-144.5 277z" />
    <glyph glyph-name="uni0406" unicode="&#x406;" horiz-adv-x="421" 
d="M184 0v1434h54v-1434h-54z" />
    <glyph glyph-name="uni0407" unicode="&#x407;" horiz-adv-x="421" 
d="M184 0v1434h54v-1434h-54zM10 1710q0 25 17.5 42t42.5 17t42 -17t17 -42t-17 -42t-42 -17t-42.5 17t-17.5 42zM293 1710q0 25 17 42t42 17t42.5 -17t17.5 -42t-17.5 -42t-42.5 -17t-42 17t-17 42z" />
    <glyph glyph-name="uni0408" unicode="&#x408;" horiz-adv-x="978" 
d="M61 346l48 10q21 -156 103.5 -239.5t223.5 -83.5q156 0 243 95t87 278v1028h53v-1031q0 -199 -104 -309t-279 -110q-160 0 -255 95.5t-120 266.5z" />
    <glyph glyph-name="uni0409" unicode="&#x409;" horiz-adv-x="2019" 
d="M90 6v53q24 -6 55 -6q85 0 124.5 90.5t58.5 329.5l67 961h721v-631h391q197 0 309.5 -106.5t112.5 -295.5q0 -188 -112.5 -294.5t-309.5 -106.5h-444v1384h-623l-65 -917q-19 -266 -68 -366.5t-162 -100.5q-31 0 -55 6zM1116 49h391q180 0 274.5 90.5t94.5 261.5
t-94.5 262t-274.5 91h-391v-705z" />
    <glyph glyph-name="uni040A" unicode="&#x40a;" horiz-adv-x="2021" 
d="M1931 393q0 -188 -112.5 -290.5t-311.5 -102.5h-442v739h-827v-739h-54v1434h54v-646h827v646h53v-646h389q200 0 312 -103t112 -292zM1878 393q0 164 -98.5 255t-270.5 91h-391v-690h391q172 0 270.5 90t98.5 254z" />
    <glyph glyph-name="uni040B" unicode="&#x40b;" horiz-adv-x="1462" 
d="M449 0v1384h-388v50h895v-50h-454v-622q216 90 403 90q398 0 398 -369v-483h-54v487q0 316 -354 316q-196 0 -393 -98v-705h-53z" />
    <glyph glyph-name="uni040C" unicode="&#x40c;" horiz-adv-x="974" 
d="M184 0v1434h54v-637l587 637h68l-598 -648l647 -786h-65l-639 776v-776h-54zM463 1548l121 262h82l-154 -262h-49z" />
    <glyph glyph-name="uni040D" unicode="&#x40d;" horiz-adv-x="1325" 
d="M184 0v1434h54v-1356l841 1356h62v-1434h-54v1360l-841 -1360h-62zM639 1548l-154 262h82l121 -262h-49z" />
    <glyph glyph-name="uni040E" unicode="&#x40e;" horiz-adv-x="976" 
d="M891 1434h53l-592 -1434h-53l154 371l-420 1063h53l395 -994zM276 1810h54q0 -100 43.5 -155.5t126.5 -55.5t126.5 55.5t43.5 155.5h53q0 -119 -58 -189.5t-165 -70.5t-165.5 70.5t-58.5 189.5z" />
    <glyph glyph-name="uni040F" unicode="&#x40f;" horiz-adv-x="1282" 
d="M614 -274v274h-430v1434h54v-1385h806v1385h54v-1434h-430v-274h-54z" />
    <glyph glyph-name="uni0410" unicode="&#x410;" horiz-adv-x="1146" 
d="M25 0l518 1434h61l518 -1434h-53l-162 446h-667l-162 -446h-53zM258 496h631l-316 874z" />
    <glyph glyph-name="uni0411" unicode="&#x411;" horiz-adv-x="1140" 
d="M184 0v1434h779v-50h-725v-602h389q199 0 311.5 -103.5t112.5 -287.5t-112.5 -287.5t-311.5 -103.5h-443zM238 49h391q180 0 274 88t94 254t-94 254t-274 88h-391v-684z" />
    <glyph glyph-name="uni0412" unicode="&#x412;" horiz-adv-x="1179" 
d="M184 0v1434h441q179 0 276.5 -90.5t97.5 -256.5q0 -116 -54.5 -195t-147.5 -116q120 -30 192 -128t72 -253q0 -189 -107 -292t-297 -103h-473zM238 791h387q154 0 237.5 77.5t83.5 218.5t-85.5 219t-235.5 78h-387v-593zM238 49h403q179 0 273 87t94 259t-94 259t-273 87
h-403v-692z" />
    <glyph glyph-name="uni0413" unicode="&#x413;" horiz-adv-x="1013" 
d="M184 0v1434h768v-50h-714v-1384h-54z" />
    <glyph glyph-name="uni0414" unicode="&#x414;" horiz-adv-x="1372" 
d="M82 -274v323h94q46 67 66 115q51 123 82 520l55 750h756v-1385h155v-323h-53v274h-1102v-274h-53zM240 49h841v1335h-653l-53 -712q-21 -301 -56 -430q-31 -131 -79 -193z" />
    <glyph glyph-name="uni0415" unicode="&#x415;" horiz-adv-x="1056" 
d="M184 0v1434h738v-50h-684v-596h561v-49h-561v-690h704v-49h-758z" />
    <glyph glyph-name="uni0416" unicode="&#x416;" horiz-adv-x="1527" 
d="M33 0l647 786l-598 648h68l587 -637v637h54v-637l587 637h68l-598 -648l647 -786h-65l-639 776v-776h-54v776l-639 -776h-65z" />
    <glyph glyph-name="uni0417" unicode="&#x417;" horiz-adv-x="1107" 
d="M98 352l49 15q36 -162 145 -248t261 -86q176 0 289.5 103.5t113.5 269.5q0 80 -33.5 145.5t-89 106t-122.5 62t-138 21.5h-79v50h79q139 0 232 81q94 82 94 232q0 131 -96 215q-94 82 -240 82q-139 0 -222.5 -68.5t-119.5 -206.5l-49 11q35 149 136.5 231t252.5 82
q170 0 280.5 -97t110.5 -249q0 -119 -69 -211t-176 -123q138 -38 220.5 -128t82.5 -234q0 -185 -129 -304.5t-328 -119.5q-169 0 -291.5 96.5t-163.5 271.5z" />
    <glyph glyph-name="uni0418" unicode="&#x418;" horiz-adv-x="1325" 
d="M184 0v1434h54v-1356l841 1356h62v-1434h-54v1360l-841 -1360h-62z" />
    <glyph glyph-name="uni0419" unicode="&#x419;" horiz-adv-x="1325" 
d="M184 0v1434h54v-1356l841 1356h62v-1434h-54v1360l-841 -1360h-62zM440 1810h54q0 -100 43.5 -155.5t126.5 -55.5t126.5 55.5t43.5 155.5h53q0 -119 -58 -189.5t-165 -70.5t-165.5 70.5t-58.5 189.5z" />
    <glyph glyph-name="uni041A" unicode="&#x41a;" horiz-adv-x="974" 
d="M184 0v1434h54v-637l587 637h68l-598 -648l647 -786h-65l-639 776v-776h-54z" />
    <glyph glyph-name="uni041B" unicode="&#x41b;" horiz-adv-x="1320" 
d="M90 6v53q24 -6 55 -6q85 0 124.5 90.5t58.5 329.5l67 961h742v-1434h-54v1384h-643l-65 -917q-19 -266 -68 -366.5t-162 -100.5q-31 0 -55 6z" />
    <glyph glyph-name="uni041C" unicode="&#x41c;" horiz-adv-x="1499" 
d="M184 0v1434h66l500 -1225l499 1225h66v-1434h-53v1323l-490 -1192h-45l-489 1192v-1323h-54z" />
    <glyph glyph-name="uni041D" unicode="&#x41d;" horiz-adv-x="1302" 
d="M184 0v1434h54v-646h827v646h53v-1434h-53v739h-827v-739h-54z" />
    <glyph glyph-name="uni041E" unicode="&#x41e;" horiz-adv-x="1437" 
d="M106 717q0 163 48.5 301.5t132 232.5t195.5 146.5t237 52.5t237 -52.5t195 -146.5t131.5 -232.5t48.5 -301.5t-48.5 -301.5t-131.5 -232.5t-195 -146.5t-237 -52.5t-237 52.5t-195.5 146.5t-132 232.5t-48.5 301.5zM1278 717q0 154 -45 284t-121.5 217t-178 135
t-214.5 48t-214.5 -48t-178 -135t-121.5 -217t-45 -284t45 -284t121.5 -217t178 -135t214.5 -48t214.5 48t178 135t121.5 217t45 284z" />
    <glyph glyph-name="uni041F" unicode="&#x41f;" horiz-adv-x="1282" 
d="M184 0v1434h914v-1434h-54v1384h-806v-1384h-54z" />
    <glyph glyph-name="uni0420" unicode="&#x420;" horiz-adv-x="1140" 
d="M184 0v1434h443q197 0 310.5 -101.5t113.5 -279.5t-113.5 -279.5t-310.5 -101.5h-389v-672h-54zM238 721h391q179 0 273.5 86t94.5 246t-94.5 245.5t-273.5 85.5h-391v-663z" />
    <glyph glyph-name="uni0421" unicode="&#x421;" horiz-adv-x="1329" 
d="M106 717q-2 139 30.5 259t90 206.5t135 148t166 91t181.5 28.5q199 0 333.5 -100.5t184.5 -282.5l-51 -14q-43 165 -164 256.5t-303 91.5q-106 2 -204.5 -43t-176.5 -128.5t-124 -216.5t-44 -296q-2 -163 44 -296t124 -216.5t176.5 -128.5t204.5 -43q174 0 289.5 94.5
t170.5 269.5l50 -16q-55 -185 -189 -291t-321 -106q-121 0 -229 48t-192 137.5t-133 231t-49 316.5z" />
    <glyph glyph-name="uni0422" unicode="&#x422;" horiz-adv-x="1032" 
d="M489 0v1384h-428v50h910v-50h-428v-1384h-54z" />
    <glyph glyph-name="uni0423" unicode="&#x423;" horiz-adv-x="976" 
d="M891 1434h53l-592 -1434h-53l154 371l-420 1063h53l395 -994z" />
    <glyph glyph-name="uni0424" unicode="&#x424;" horiz-adv-x="1527" 
d="M737 -20v172h-18q-138 0 -253.5 42.5t-194 117.5t-122 179t-43.5 226t43.5 226t122 179t194 117.5t253.5 42.5h18v172h54v-172h18q277 0 444.5 -158.5t167.5 -406.5t-167.5 -406.5t-444.5 -158.5h-18v-172h-54zM713 201h24v1032h-24q-250 0 -401.5 -145t-151.5 -371
t151.5 -371t401.5 -145zM791 201h24q250 0 401.5 145.5t151.5 370.5t-151.5 370.5t-401.5 145.5h-24v-1032z" />
    <glyph glyph-name="uni0425" unicode="&#x425;" horiz-adv-x="1048" 
d="M33 0l461 791l-373 643h61l342 -588l342 588h62l-373 -643l461 -791h-66l-426 737l-426 -737h-65z" />
    <glyph glyph-name="uni0426" unicode="&#x426;" horiz-adv-x="1335" 
d="M1200 -274v274h-1016v1434h54v-1385h806v1385h54v-1385h155v-323h-53z" />
    <glyph glyph-name="uni0427" unicode="&#x427;" horiz-adv-x="1212" 
d="M975 0v662q-113 -42 -197.5 -60t-199.5 -18q-198 0 -308 105.5t-110 299.5v445h53v-449q0 -166 96 -259t269 -93q119 0 206.5 18t190.5 60v723h53v-1434h-53z" />
    <glyph glyph-name="uni0428" unicode="&#x428;" horiz-adv-x="1888" 
d="M184 0v1434h54v-1385h680v1385h53v-1385h680v1385h53v-1434h-1520z" />
    <glyph glyph-name="uni0429" unicode="&#x429;" horiz-adv-x="1941" 
d="M1806 -274v274h-1622v1434h54v-1385h680v1385h53v-1385h680v1385h53v-1385h156v-323h-54z" />
    <glyph glyph-name="uni042A" unicode="&#x42a;" horiz-adv-x="1372" 
d="M416 0v1384h-367v50h420v-631h389q197 0 310.5 -107t113.5 -295t-113.5 -294.5t-310.5 -106.5h-442zM469 49h391q180 0 274.5 90.5t94.5 261.5t-94.5 262t-274.5 91h-391v-705z" />
    <glyph glyph-name="uni042B" unicode="&#x42b;" horiz-adv-x="1542" 
d="M184 0v1434h54v-631h389q197 0 310.5 -107t113.5 -295t-113.5 -294.5t-310.5 -106.5h-443zM238 49h391q180 0 274 90.5t94 261.5t-94.5 262t-273.5 91h-391v-705zM1305 0v1434h53v-1434h-53z" />
    <glyph glyph-name="uni042C" unicode="&#x42c;" horiz-adv-x="1140" 
d="M184 0v1434h54v-631h389q197 0 310.5 -107t113.5 -295t-113.5 -294.5t-310.5 -106.5h-443zM238 49h391q180 0 274 90.5t94 261.5t-94.5 262t-273.5 91h-391v-705z" />
    <glyph glyph-name="uni042D" unicode="&#x42d;" horiz-adv-x="1320" 
d="M1214 717q1 -139 -30 -259t-86.5 -206.5t-130 -148t-160 -91t-176.5 -28.5q-195 0 -334 105.5t-195 291.5l50 16q61 -175 182.5 -269.5t296.5 -94.5q101 0 194 42.5t167.5 122.5t120 208t48.5 286h-649v49h649q-3 158 -48.5 286t-120 208.5t-167.5 123t-194 42.5
q-169 0 -293.5 -93t-175.5 -255l-51 14q61 180 197 281.5t323 101.5q91 1 176.5 -28.5t160 -91t130 -148t86.5 -206.5t30 -259z" />
    <glyph glyph-name="uni042E" unicode="&#x42e;" horiz-adv-x="1828" 
d="M1722 717q0 -163 -47 -301.5t-127.5 -232.5t-188.5 -146.5t-229 -52.5t-229 52.5t-188 146.5t-127 232.5t-47 301.5v22h-301v-739h-54v1434h54v-646h303q12 197 94.5 349t212 232.5t282.5 80.5q121 0 229 -52.5t188.5 -146.5t127.5 -232.5t47 -301.5zM1669 717
q0 154 -43.5 284t-117 217t-171.5 135t-207 48t-207 -48t-171.5 -135t-116.5 -217t-43 -284t43 -284t116.5 -217t171.5 -135t207 -48t207 48t171.5 135t117 217t43.5 284z" />
    <glyph glyph-name="uni042F" unicode="&#x42f;" horiz-adv-x="1193" 
d="M557 1434h453v-1434h-54v717h-356l-469 -717h-61l469 717q-160 6 -252 102t-92 256q0 165 97.5 262t264.5 97zM956 766v618h-387q-154 0 -237.5 -81t-83.5 -228t83.5 -228t237.5 -81h387z" />
    <glyph glyph-name="uni0430" unicode="&#x430;" horiz-adv-x="960" 
d="M102 293q0 149 106.5 231t283.5 82h280v105q0 144 -73 216t-212 72q-116 0 -198 -58.5t-107 -172.5l-47 12q30 131 124 200t228 69q160 0 249 -87.5t89 -246.5v-715h-41l-12 184q-124 -200 -358 -200q-135 0 -223.5 83t-88.5 226zM772 365v192h-276q-162 0 -251 -70.5
t-89 -193.5q0 -122 75 -191t195 -69q86 0 164 38.5t130 116t52 177.5z" />
    <glyph glyph-name="uni0431" unicode="&#x431;" horiz-adv-x="1146" 
d="M98 569q0 183 26 321.5t71 228t112.5 147.5t143 84t170.5 32q136 9 192 23q73 18 135 47l19 -47q-71 -33 -142 -49q-61 -14 -200 -23q-108 -8 -185.5 -40.5t-138 -102t-96 -186t-49.5 -285.5q48 136 164.5 212.5t257.5 76.5q107 0 197 -42.5t149 -113.5t92 -163t33 -193
t-33 -193t-92 -163t-149 -113.5t-197 -42.5q-216 0 -348 157t-132 428zM995 496q0 121 -49 225t-146 170.5t-222 66.5q-95 0 -174.5 -38.5t-132.5 -103t-82 -147.5t-29 -173t29 -173t82 -147.5t132.5 -103.5t174.5 -39q125 0 222 66.5t146 171t49 225.5z" />
    <glyph glyph-name="uni0432" unicode="&#x432;" horiz-adv-x="925" 
d="M160 0v1032h325q135 0 211 -67.5t76 -184.5q0 -76 -43 -136.5t-108 -86.5q91 -29 141.5 -100t50.5 -168q0 -126 -83.5 -207.5t-227.5 -81.5h-342zM213 578h274q111 0 171.5 54t60.5 148t-60.5 148.5t-171.5 54.5h-274v-405zM213 49h289q121 0 189.5 64.5t68.5 175.5
t-68.5 175t-189.5 64h-289v-479z" />
    <glyph glyph-name="uni0433" unicode="&#x433;" horiz-adv-x="786" 
d="M160 0v1032h573v-49h-520v-983h-53z" />
    <glyph glyph-name="uni0434" unicode="&#x434;" horiz-adv-x="1136" 
d="M61 -254v303h115q50 56 70 133q25 96 39 267l53 583h590v-983h147v-303h-53v254h-907v-254h-54zM240 49h634v934h-489l-49 -541q-14 -173 -39 -268q-21 -76 -57 -125z" />
    <glyph glyph-name="uni0435" unicode="&#x435;" horiz-adv-x="1067" 
d="M969 528h-817v-12q0 -129 48.5 -239t138.5 -177t200 -67q129 0 209 55t143 186l45 -20q-69 -142 -163 -206t-234 -64q-194 0 -317.5 152t-123.5 380q0 117 36 217.5t97.5 169t142.5 107.5t171 39q189 0 306.5 -129.5t117.5 -335.5v-56zM154 578h761q-5 196 -103 308.5
t-267 112.5q-147 0 -260 -119t-131 -302z" />
    <glyph glyph-name="uni0436" unicode="&#x436;" horiz-adv-x="1241" 
d="M25 0l505 559l-473 473h76l461 -465v465h53v-465l461 465h76l-473 -473l506 -559h-74l-496 551v-551h-53v551l-496 -551h-73z" />
    <glyph glyph-name="uni0437" unicode="&#x437;" horiz-adv-x="845" 
d="M82 270l49 6q14 -117 88 -180t201 -63q123 0 200.5 72.5t77.5 185.5t-78 173t-202 60h-66v49h66q110 0 181 62t71 156q0 98 -69.5 153t-186.5 55q-94 0 -164 -56.5t-88 -158.5l-47 13q17 113 99.5 182.5t199.5 69.5q141 0 223 -68t82 -188q0 -87 -50 -150.5t-128 -89.5
q211 -58 211 -260q0 -134 -95 -223q-95 -86 -237 -86q-149 0 -235 73t-103 213z" />
    <glyph glyph-name="uni0438" unicode="&#x438;" horiz-adv-x="1056" 
d="M160 0v1032h53v-946l631 946h53v-1032h-53v946l-631 -946h-53z" />
    <glyph glyph-name="uni0439" unicode="&#x439;" horiz-adv-x="1056" 
d="M160 0v1032h53v-946l631 946h53v-1032h-53v946l-631 -946h-53zM305 1434h53q0 -100 43.5 -155.5t126.5 -55.5t126.5 55.5t43.5 155.5h54q0 -119 -58.5 -189.5t-165.5 -70.5t-165 70.5t-58 189.5z" />
    <glyph glyph-name="uni043A" unicode="&#x43a;" horiz-adv-x="806" 
d="M160 0v1032h53v-465l461 465h76l-474 -473l506 -559h-73l-496 551v-551h-53z" />
    <glyph glyph-name="uni043B" unicode="&#x43b;" horiz-adv-x="1081" 
d="M59 2v49q30 -10 66 -10q66 0 91.5 57.5t37.5 229.5l47 704h621v-1032h-54v983h-524l-41 -655q-12 -195 -48 -265.5t-130 -70.5q-39 0 -66 10z" />
    <glyph glyph-name="uni043C" unicode="&#x43c;" horiz-adv-x="1208" 
d="M160 0v1032h57l387 -876l387 876h58v-1032h-54v905l-366 -811h-49l-367 811v-905h-53z" />
    <glyph glyph-name="uni043D" unicode="&#x43d;" horiz-adv-x="1040" 
d="M160 0v1032h53v-459h614v459h54v-1032h-54v524h-614v-524h-53z" />
    <glyph glyph-name="uni043E" unicode="&#x43e;" horiz-adv-x="1138" 
d="M98 516q0 141 55.5 261.5t165 196t250.5 75.5t250.5 -75.5t165 -196t55.5 -261.5t-55.5 -261t-164.5 -195.5t-251 -75.5t-251 75.5t-164.5 195.5t-55.5 261zM987 516q0 94 -29 181t-82 154t-132.5 107.5t-174.5 40.5q-125 0 -222 -69t-146 -178t-49 -236t49 -236
t146 -178t222 -69q95 0 174.5 40.5t132.5 107.5t82 154t29 181z" />
    <glyph glyph-name="uni043F" unicode="&#x43f;" horiz-adv-x="1019" 
d="M160 0v1032h700v-1032h-53v983h-594v-983h-53z" />
    <glyph glyph-name="uni0440" unicode="&#x440;" horiz-adv-x="1142" 
d="M160 -418v1450h53v-155l-4 -132q38 140 146.5 222t252.5 82q195 0 315.5 -150.5t120.5 -382.5q0 -152 -53.5 -272.5t-153 -190t-229.5 -69.5q-282 0 -399 282q4 -86 4 -121v-563h-53zM991 516q0 209 -107.5 346t-283.5 137t-283.5 -137t-107.5 -346q0 -206 108.5 -344.5
t282.5 -138.5t282.5 138.5t108.5 344.5z" />
    <glyph glyph-name="uni0441" unicode="&#x441;" horiz-adv-x="1011" 
d="M98 516q0 145 50.5 265t151.5 194t235 74q293 0 387 -283l-48 -16q-47 132 -128 190.5t-211 58.5q-117 0 -205.5 -67.5t-133 -176t-44.5 -239.5t44.5 -239.5t133 -176t205.5 -67.5q135 0 214.5 59.5t129.5 192.5l47 -17q-54 -146 -148.5 -215t-242.5 -69
q-101 0 -184.5 42.5t-138 115.5t-84.5 169.5t-30 204.5z" />
    <glyph glyph-name="uni0442" unicode="&#x442;" horiz-adv-x="888" 
d="M418 0v983h-357v49h766v-49h-356v-983h-53z" />
    <glyph glyph-name="uni0443" unicode="&#x443;" horiz-adv-x="798" 
d="M721 1032h57l-534 -1450h-56l179 484l-347 966h58l315 -895z" />
    <glyph glyph-name="uni0444" unicode="&#x444;" horiz-adv-x="1261" 
d="M602 -418v402q-232 0 -368 146.5t-136 385.5t136 386t368 147v401h53v-401q232 0 370 -147.5t138 -385.5q0 -237 -138 -384.5t-370 -147.5v-402h-53zM602 33v966q-209 0 -329.5 -130.5t-120.5 -352.5t120.5 -352.5t329.5 -130.5zM1110 516q0 221 -123 352t-332 131v-966
q209 0 332 131t123 352z" />
    <glyph glyph-name="uni0445" unicode="&#x445;" horiz-adv-x="786" 
d="M20 0l345 565l-283 467h57l254 -418l254 418h58l-283 -467l344 -565h-61l-312 516l-311 -516h-62z" />
    <glyph glyph-name="uni0446" unicode="&#x446;" horiz-adv-x="1069" 
d="M954 -254v254h-794v1032h53v-983h594v983h53v-983h148v-303h-54z" />
    <glyph glyph-name="uni0447" unicode="&#x447;" horiz-adv-x="954" 
d="M741 0v459q-145 -56 -272 -56q-160 0 -243 80t-83 238v311h54v-309q0 -143 67 -206.5t205 -63.5q148 0 272 59v520h54v-1032h-54z" />
    <glyph glyph-name="uni0448" unicode="&#x448;" horiz-adv-x="1507" 
d="M160 0v1032h53v-983h514v983h53v-983h514v983h54v-1032h-1188z" />
    <glyph glyph-name="uni0449" unicode="&#x449;" horiz-adv-x="1556" 
d="M1442 -254v254h-1282v1032h53v-983h514v983h53v-983h514v983h54v-983h147v-303h-53z" />
    <glyph glyph-name="uni044A" unicode="&#x44a;" horiz-adv-x="1017" 
d="M315 0v983h-266v49h320v-442h227q157 0 240.5 -78t83.5 -217t-83.5 -217t-240.5 -78h-281zM369 49h227q131 0 200.5 61.5t69.5 184.5q0 121 -70.5 183.5t-199.5 62.5h-227v-492z" />
    <glyph glyph-name="uni044B" unicode="&#x44b;" horiz-adv-x="1208" 
d="M160 0v1032h53v-442h227q157 0 240.5 -78t83.5 -217t-83.5 -217t-240.5 -78h-280zM213 49h227q131 0 201 61.5t70 184.5q0 121 -70.5 183.5t-200.5 62.5h-227v-492zM995 0v1032h54v-1032h-54z" />
    <glyph glyph-name="uni044C" unicode="&#x44c;" horiz-adv-x="862" 
d="M160 0v1032h53v-442h227q157 0 240.5 -78t83.5 -217t-83.5 -217t-240.5 -78h-280zM213 49h227q131 0 201 61.5t70 184.5q0 121 -70.5 183.5t-200.5 62.5h-227v-492z" />
    <glyph glyph-name="uni044D" unicode="&#x44d;" horiz-adv-x="1011" 
d="M86 268l47 17q89 -252 350 -252q179 0 273 131q98 131 104 328h-498v49h498q-6 196 -104 327q-94 131 -271 131q-123 0 -208 -60t-140 -189l-47 16q55 140 156 211.5t239 71.5q102 0 184.5 -42.5t135 -116t80.5 -169t28 -205.5q0 -148 -47.5 -266.5t-146.5 -192
t-236 -73.5q-143 0 -246.5 74t-150.5 210z" />
    <glyph glyph-name="uni044E" unicode="&#x44e;" horiz-adv-x="1437" 
d="M1339 516q0 -141 -53 -261t-156.5 -195.5t-236.5 -75.5q-101 0 -186 44t-141.5 117.5t-88 169.5t-31.5 201v8h-233v-524h-53v1032h53v-459h236q10 130 65.5 237t154.5 173t224 66q133 0 236.5 -75.5t156.5 -196t53 -261.5zM1286 516q0 127 -46.5 236t-137.5 178t-209 69
t-209 -69t-137.5 -178t-46.5 -236t46.5 -236t137.5 -178t209 -69t209 69t137.5 178t46.5 236z" />
    <glyph glyph-name="uni044F" unicode="&#x44f;" horiz-adv-x="880" 
d="M424 1032h297v-1032h-53v475h-244q-27 0 -35 2l-276 -477h-58l281 483q-105 23 -164 94.5t-59 176.5q0 128 84.5 203t226.5 75zM668 528v451h-250q-117 0 -184.5 -61t-67.5 -164t68 -164.5t184 -61.5h250z" />
    <glyph glyph-name="uni0450" unicode="&#x450;" horiz-adv-x="1067" 
d="M969 528h-817v-12q0 -129 48.5 -239t138.5 -177t200 -67q129 0 209 55t143 186l45 -20q-69 -142 -163 -206t-234 -64q-194 0 -317.5 152t-123.5 380q0 117 36 217.5t97.5 169t142.5 107.5t171 39q189 0 306.5 -129.5t117.5 -335.5v-56zM154 578h761q-5 196 -103 308.5
t-267 112.5q-147 0 -260 -119t-131 -302zM522 1147l-153 262h82l120 -262h-49z" />
    <glyph glyph-name="uni0451" unicode="&#x451;" horiz-adv-x="1067" 
d="M969 528h-817v-12q0 -129 48.5 -239t138.5 -177t200 -67q129 0 209 55t143 186l45 -20q-69 -142 -163 -206t-234 -64q-194 0 -317.5 152t-123.5 380q0 117 36 217.5t97.5 169t142.5 107.5t171 39q189 0 306.5 -129.5t117.5 -335.5v-56zM154 578h761q-5 196 -103 308.5
t-267 112.5q-147 0 -260 -119t-131 -302zM344 1309q0 25 17 42t42 17t42.5 -17t17.5 -42t-17.5 -42.5t-42.5 -17.5t-42 17.5t-17 42.5zM627 1309q0 25 17 42t42 17t42 -17t17 -42t-17 -42.5t-42 -17.5t-42 17.5t-17 42.5z" />
    <glyph glyph-name="uni0452" unicode="&#x452;" horiz-adv-x="1087" 
d="M750 -434l-11 49q74 23 104.5 74t30.5 155v848q0 307 -292 307q-163 0 -266 -125.5t-103 -318.5v-555h-53v1217h-137v49h137v184h53v-184h281v-49h-281v-441q51 135 148 204t233 69q162 0 248 -91t86 -262v-835q0 -129 -40.5 -196.5t-137.5 -98.5z" />
    <glyph glyph-name="uni0453" unicode="&#x453;" horiz-adv-x="786" 
d="M160 0v1032h573v-49h-520v-983h-53zM418 1147l121 262h82l-154 -262h-49z" />
    <glyph glyph-name="uni0454" unicode="&#x454;" horiz-adv-x="1011" 
d="M98 516q0 145 50.5 265t151.5 194t235 74q293 0 387 -283l-48 -16q-47 132 -128 190.5t-211 58.5q-114 0 -201 -63t-132.5 -165.5t-49.5 -229.5h497v-49h-497q4 -127 49.5 -230t132.5 -166t201 -63q135 0 214.5 59.5t129.5 192.5l47 -17q-54 -146 -148.5 -215t-242.5 -69
q-101 0 -184.5 42.5t-138 115.5t-84.5 169.5t-30 204.5z" />
    <glyph glyph-name="uni0455" unicode="&#x455;" horiz-adv-x="827" 
d="M94 248l45 20q33 -121 101 -178t192 -57q106 0 177 65.5t71 177.5q0 181 -236 242q-138 37 -213 109.5t-75 173.5q0 114 76 181t192 67q179 0 268 -160l-39 -31q-77 141 -235 141q-90 0 -151.5 -54.5t-61.5 -147.5q0 -84 65 -141.5t197 -96.5q134 -39 200 -106.5
t66 -173.5q0 -131 -88.5 -213t-212.5 -82q-268 0 -338 264z" />
    <glyph glyph-name="uni0456" unicode="&#x456;" horiz-adv-x="372" 
d="M160 0v1032h53v-1032h-53zM131 1329q0 25 15 40t40 15t40.5 -15t15.5 -40t-15.5 -40t-40.5 -15t-40 15t-15 40z" />
    <glyph glyph-name="uni0457" unicode="&#x457;" horiz-adv-x="372" 
d="M160 0v1032h53v-1032h-53zM10 1329q0 25 15.5 40t40.5 15t40 -15t15 -40t-15 -40t-40 -15t-40.5 15t-15.5 40zM252 1329q0 25 15 40t40 15t40 -15t15 -40t-15 -40t-40 -15t-40 15t-15 40z" />
    <glyph glyph-name="uni0458" unicode="&#x458;" horiz-adv-x="372" 
d="M35 -434l-10 49q74 23 104.5 74t30.5 155v1188h53v-1171q0 -129 -40.5 -196.5t-137.5 -98.5zM131 1329q0 25 15 40t40 15t40.5 -15t15.5 -40t-15.5 -40t-40.5 -15t-40 15t-15 40z" />
    <glyph glyph-name="uni0459" unicode="&#x459;" horiz-adv-x="1529" 
d="M59 2v49q30 -10 66 -10q66 0 91.5 57.5t37.5 229.5l47 704h580v-442h227q157 0 240.5 -78t83.5 -217t-83.5 -217t-240.5 -78h-281v983h-483l-41 -655q-12 -195 -48 -265.5t-130 -70.5q-39 0 -66 10zM881 49h227q131 0 200.5 61.5t69.5 184.5q0 122 -70 184t-200 62h-227
v-492z" />
    <glyph glyph-name="uni045A" unicode="&#x45a;" horiz-adv-x="1509" 
d="M160 0v1032h53v-459h594v459h53v-459h227q158 0 241 -75.5t83 -210.5t-83 -211t-241 -76h-280v524h-594v-524h-53zM860 49h227q131 0 201 59.5t70 178.5q0 117 -71 177t-200 60h-227v-475z" />
    <glyph glyph-name="uni045B" unicode="&#x45b;" horiz-adv-x="1087" 
d="M928 696v-696h-54v692q0 307 -292 307q-163 0 -266 -125.5t-103 -318.5v-555h-53v1217h-137v49h137v184h53v-184h281v-49h-281v-441q51 135 148 204t233 69q162 0 248 -91t86 -262z" />
    <glyph glyph-name="uni045C" unicode="&#x45c;" horiz-adv-x="806" 
d="M160 0v1032h53v-465l461 465h76l-474 -473l506 -559h-73l-496 551v-551h-53zM375 1147l121 262h82l-154 -262h-49z" />
    <glyph glyph-name="uni045D" unicode="&#x45d;" horiz-adv-x="1056" 
d="M160 0v1032h53v-946l631 946h53v-1032h-53v946l-631 -946h-53zM506 1147l-154 262h82l121 -262h-49z" />
    <glyph glyph-name="uni045E" unicode="&#x45e;" horiz-adv-x="798" 
d="M721 1032h57l-534 -1450h-56l179 484l-347 966h58l315 -895zM168 1434h53q0 -100 43.5 -155.5t126.5 -55.5t126.5 55.5t43.5 155.5h53q0 -119 -58 -189.5t-165 -70.5t-165 70.5t-58 189.5z" />
    <glyph glyph-name="uni045F" unicode="&#x45f;" horiz-adv-x="1019" 
d="M483 -254v254h-323v1032h53v-983h594v983h53v-1032h-323v-254h-54z" />
    <glyph glyph-name="uni0462" unicode="&#x462;" horiz-adv-x="1290" 
d="M1200 381q0 -178 -113.5 -279.5t-310.5 -101.5h-442v1081h-334v49h334v304h53v-304h549v-49h-549v-319h389q197 0 310.5 -101.5t113.5 -279.5zM1147 381q0 160 -95 246t-274 86h-391v-664h391q179 0 274 86t95 246z" />
    <glyph glyph-name="uni0463" unicode="&#x463;" horiz-adv-x="1013" 
d="M915 287q0 -136 -83 -211.5t-240 -75.5h-281v983h-266v49h266v418h54v-418h354v-49h-354v-410h227q158 0 240.5 -75.5t82.5 -210.5zM862 287q0 117 -70.5 177t-199.5 60h-227v-475h227q131 0 200.5 59t69.5 179z" />
    <glyph glyph-name="uni0472" unicode="&#x472;" horiz-adv-x="1437" 
d="M1331 717q0 -163 -48.5 -301.5t-131.5 -232.5t-195 -146.5t-237 -52.5t-237 52.5t-195.5 146.5t-132 232.5t-48.5 301.5t48.5 301.5t132 232.5t195.5 146.5t237 52.5t237 -52.5t195 -146.5t131.5 -232.5t48.5 -301.5zM160 741h1118q-3 150 -49 275.5t-122.5 209
t-176.5 129.5t-211 46t-211 -46t-176.5 -129.5t-122.5 -209t-49 -275.5zM1278 692h-1118q3 -150 49 -275.5t122.5 -208.5t176.5 -129t211 -46t211 46t176.5 129t122.5 208.5t49 275.5z" />
    <glyph glyph-name="uni0473" unicode="&#x473;" horiz-adv-x="1138" 
d="M1040 516q0 -141 -55.5 -261t-164.5 -195.5t-251 -75.5t-251 75.5t-164.5 195.5t-55.5 261t55.5 261.5t165 196t250.5 75.5t250.5 -75.5t165 -196t55.5 -261.5zM152 541h835q-6 122 -56 225t-145 168t-217 65q-92 0 -170 -37.5t-130 -101.5t-82 -146t-35 -173zM987 492
h-835q5 -91 35 -173t82 -146t130 -102t170 -38q122 0 217 65.5t145 168.5t56 225z" />
    <glyph glyph-name="uni0474" unicode="&#x474;" horiz-adv-x="1296" 
d="M547 0l-522 1434h61l487 -1360l408 1181q35 105 83 150t112 45q41 0 79 -23l-26 -47q-31 17 -60 17q-41 0 -73 -38t-66 -136l-430 -1223h-53z" />
    <glyph glyph-name="uni0475" unicode="&#x475;" horiz-adv-x="1062" 
d="M414 0l-381 1032h55l350 -969l297 822q59 164 180 164q68 0 115 -35l-22 -45q-40 30 -93 30q-46 0 -77.5 -32.5t-55.5 -98.5l-319 -868h-49z" />
    <glyph glyph-name="uni0490" unicode="&#x490;" horiz-adv-x="1013" 
d="M184 0v1434h715v274h53v-324h-714v-1384h-54z" />
    <glyph glyph-name="uni0491" unicode="&#x491;" horiz-adv-x="786" 
d="M160 0v1032h520v254h53v-303h-520v-983h-53z" />
    <glyph glyph-name="uni0E3F" unicode="&#xe3f;" horiz-adv-x="1179" 
d="M1061 395q0 -189 -107 -292t-297 -103h-145v-184h-45v184h-283v1434h283v184h45v-184h113q179 0 276.5 -90.5t97.5 -256.5q0 -116 -54.5 -195t-147.5 -116q120 -30 192 -128t72 -253zM238 1384v-593h387q154 0 237.5 77.5t83.5 218.5t-85.5 219t-235.5 78h-387zM1008 395
q0 172 -94 259t-273 87h-403v-692h403q179 0 273 87t94 259z" />
    <glyph glyph-name="Wgrave" unicode="&#x1e80;" horiz-adv-x="1667" 
d="M408 0l-383 1434h57l356 -1362l365 1210h61l365 -1210l356 1362h57l-382 -1434h-64l-362 1204l-363 -1204h-63zM809 1548l-154 262h82l121 -262h-49z" />
    <glyph glyph-name="wgrave" unicode="&#x1e81;" horiz-adv-x="1302" 
d="M334 0l-305 1032h51l287 -969l258 969h53l258 -969l287 969h51l-305 -1032h-70l-248 942l-248 -942h-69zM629 1147l-154 262h82l121 -262h-49z" />
    <glyph glyph-name="Wacute" unicode="&#x1e82;" horiz-adv-x="1667" 
d="M408 0l-383 1434h57l356 -1362l365 1210h61l365 -1210l356 1362h57l-382 -1434h-64l-362 1204l-363 -1204h-63zM809 1548l121 262h82l-154 -262h-49z" />
    <glyph glyph-name="wacute" unicode="&#x1e83;" horiz-adv-x="1302" 
d="M334 0l-305 1032h51l287 -969l258 969h53l258 -969l287 969h51l-305 -1032h-70l-248 942l-248 -942h-69zM623 1147l120 262h82l-153 -262h-49z" />
    <glyph glyph-name="Wdieresis" unicode="&#x1e84;" horiz-adv-x="1667" 
d="M408 0l-383 1434h57l356 -1362l365 1210h61l365 -1210l356 1362h57l-382 -1434h-64l-362 1204l-363 -1204h-63zM633 1710q0 25 17 42t42 17t42.5 -17t17.5 -42t-17.5 -42t-42.5 -17t-42 17t-17 42zM915 1710q0 25 17.5 42t42.5 17t42 -17t17 -42t-17 -42t-42 -17
t-42.5 17t-17.5 42z" />
    <glyph glyph-name="wdieresis" unicode="&#x1e85;" horiz-adv-x="1302" 
d="M334 0l-305 1032h51l287 -969l258 969h53l258 -969l287 969h51l-305 -1032h-70l-248 942l-248 -942h-69zM451 1309q0 25 17 42t42 17t42 -17t17 -42t-17 -42.5t-42 -17.5t-42 17.5t-17 42.5zM733 1309q0 25 17.5 42t42.5 17t42 -17t17 -42t-17 -42.5t-42 -17.5
t-42.5 17.5t-17.5 42.5z" />
    <glyph glyph-name="uni1E9E" unicode="&#x1e9e;" horiz-adv-x="1159" 
d="M401 23v57q92 -47 224 -47q167 0 264.5 93.5t97.5 264.5q0 173 -107.5 263.5t-285.5 90.5h-45v21l352 618h-344q-152 0 -235.5 -86t-83.5 -256v-1042h-54v1044q0 188 99 289t274 101h418v-21l-357 -618q177 0 299.5 -108.5t122.5 -295.5q0 -190 -111.5 -298.5
t-299.5 -108.5q-124 0 -228 39z" />
    <glyph glyph-name="Ygrave" unicode="&#x1ef2;" horiz-adv-x="1007" 
d="M477 0v643l-444 791h59l412 -738l411 738h60l-445 -791v-643h-53zM479 1548l-153 262h82l120 -262h-49z" />
    <glyph glyph-name="ygrave" unicode="&#x1ef3;" horiz-adv-x="798" 
d="M721 1032h57l-534 -1450h-56l179 484l-347 966h58l315 -895zM369 1147l-154 262h82l121 -262h-49z" />
    <glyph glyph-name="endash" unicode="&#x2013;" horiz-adv-x="1042" 
d="M143 625v49h756v-49h-756z" />
    <glyph glyph-name="emdash" unicode="&#x2014;" horiz-adv-x="1462" 
d="M143 625v49h1176v-49h-1176z" />
    <glyph glyph-name="quoteleft" unicode="&#x2018;" horiz-adv-x="403" 
d="M102 1110l174 340h50l-150 -340h-74z" />
    <glyph glyph-name="quoteright" unicode="&#x2019;" horiz-adv-x="403" 
d="M78 1110l149 340h74l-174 -340h-49z" />
    <glyph glyph-name="quotesinglbase" unicode="&#x201a;" horiz-adv-x="403" 
d="M78 -180l149 340h74l-174 -340h-49z" />
    <glyph glyph-name="quotedblleft" unicode="&#x201c;" horiz-adv-x="696" 
d="M102 1110l174 340h50l-150 -340h-74zM395 1110l174 340h49l-149 -340h-74z" />
    <glyph glyph-name="quotedblright" unicode="&#x201d;" horiz-adv-x="696" 
d="M78 1110l149 340h74l-174 -340h-49zM371 1110l149 340h74l-174 -340h-49z" />
    <glyph glyph-name="quotedblbase" unicode="&#x201e;" horiz-adv-x="696" 
d="M78 -180l149 340h74l-174 -340h-49zM371 -180l149 340h74l-174 -340h-49z" />
    <glyph glyph-name="dagger" unicode="&#x2020;" horiz-adv-x="737" 
d="M342 -102v1085h-270v49h270v504h53v-504h271v-49h-271v-1085h-53z" />
    <glyph glyph-name="daggerdbl" unicode="&#x2021;" horiz-adv-x="737" 
d="M342 -102v503h-270v50h270v532h-270v49h270v504h53v-504h271v-49h-271v-532h271v-50h-271v-503h-53z" />
    <glyph glyph-name="bullet" unicode="&#x2022;" horiz-adv-x="573" 
d="M184 676q0 43 30 72.5t73 29.5t72.5 -29.5t29.5 -72.5t-29.5 -73t-72.5 -30t-73 30t-30 73z" />
    <glyph glyph-name="ellipsis" unicode="&#x2026;" horiz-adv-x="1097" 
d="M123 53q0 25 16 41.5t41 16.5t41.5 -16.5t16.5 -41.5t-16.5 -41t-41.5 -16t-41 16t-16 41zM492 53q0 25 16 41.5t41 16.5t41 -16.5t16 -41.5t-16 -41t-41 -16t-41 16t-16 41zM860 53q0 25 16.5 41.5t41.5 16.5t41 -16.5t16 -41.5t-16 -41t-41 -16t-41.5 16t-16.5 41z" />
    <glyph glyph-name="perthousand" unicode="&#x2030;" horiz-adv-x="2482" 
d="M317 -29l-43 35l1110 1464l43 -34zM127 1122q0 137 88.5 232.5t220.5 95.5t220.5 -95.5t88.5 -232.5q0 -136 -88.5 -231.5t-220.5 -95.5t-220.5 95.5t-88.5 231.5zM692 1122q0 119 -72 199t-184 80t-184 -80t-72 -199t72 -198.5t184 -79.5t184 79.5t72 198.5zM958 311
q0 136 89 232t221 96t220.5 -95.5t88.5 -232.5q0 -136 -88.5 -231.5t-220.5 -95.5t-221 95.5t-89 231.5zM1737 311q0 137 88.5 232.5t220.5 95.5t220.5 -95.5t88.5 -232.5q0 -136 -88.5 -231.5t-220.5 -95.5t-220.5 95.5t-88.5 231.5zM1524 311q0 119 -72 199t-184 80
t-184 -80t-72 -199t72 -198.5t184 -79.5t184 79.5t72 198.5zM2302 311q0 119 -72 199t-184 80t-184 -80t-72 -199t72 -198.5t184 -79.5t184 79.5t72 198.5z" />
    <glyph glyph-name="guilsinglleft" unicode="&#x2039;" horiz-adv-x="681" 
d="M559 262l-457 352v41l457 353v-54l-416 -319l416 -320v-53z" />
    <glyph glyph-name="guilsinglright" unicode="&#x203a;" horiz-adv-x="681" 
d="M123 262v53l416 320l-416 319v54l457 -353v-41z" />
    <glyph glyph-name="fraction" unicode="&#x2044;" horiz-adv-x="546" 
d="M-260 -29l-43 35l1110 1464l43 -34z" />
    <glyph glyph-name="uni2048" unicode="&#x2048;" horiz-adv-x="1228" 
d="M176 625q0 91 57.5 161.5t176.5 135.5q149 81 197 137.5t48 138.5q0 90 -66 146.5t-179 56.5q-99 0 -165.5 -60.5t-90.5 -179.5l-52 10q24 133 110 206t212 73q124 0 204.5 -71.5t80.5 -178.5q0 -96 -52.5 -159t-207.5 -152q-124 -70 -172 -127.5t-48 -140.5
q0 -85 50 -135t129 -50q77 0 119.5 42t62.5 143l49 -13q-50 -221 -231 -221q-102 0 -167 63t-65 175zM356 53q0 25 16.5 41.5t41.5 16.5t41 -16.5t16 -41.5t-16 -41t-41 -16t-41.5 16t-16.5 41zM967 311l-13 1123h66l-12 -1123h-41zM930 53q0 25 16 41.5t41 16.5t41 -16.5
t16 -41.5t-16 -41t-41 -16t-41 16t-16 41z" />
    <glyph glyph-name="uni2049" unicode="&#x2049;" horiz-adv-x="1228" 
d="M221 311l-12 1123h65l-12 -1123h-41zM184 53q0 25 16.5 41.5t41.5 16.5t41 -16.5t16 -41.5t-16 -41t-41 -16t-41.5 16t-16.5 41zM594 625q0 91 57 161.5t176 135.5q149 81 197.5 137.5t48.5 138.5q0 90 -66.5 146.5t-179.5 56.5q-99 0 -165.5 -60.5t-90.5 -179.5l-51 10
q24 133 110 206t212 73q123 0 203.5 -71.5t80.5 -178.5q0 -96 -52.5 -159t-207.5 -152q-124 -70 -171.5 -127.5t-47.5 -140.5q0 -85 49.5 -135t128.5 -50q77 0 120 42t63 143l49 -13q-50 -221 -232 -221q-102 0 -166.5 63t-64.5 175zM774 53q0 25 16 41.5t41 16.5
t41.5 -16.5t16.5 -41.5t-16.5 -41t-41.5 -16t-41 16t-16 41z" />
    <glyph glyph-name="uni2070" unicode="&#x2070;" horiz-adv-x="741" 
d="M90 1024q0 190 76 304t205 114q128 0 204 -114t76 -304t-76 -304t-204 -114q-129 0 -205 114t-76 304zM598 1024q0 176 -60.5 272.5t-166.5 96.5t-167 -96.5t-61 -272.5t61 -272.5t167 -96.5t166.5 96.5t60.5 272.5z" />
    <glyph glyph-name="uni2074" unicode="&#x2074;" horiz-adv-x="612" 
d="M395 614v195h-332v20l324 605h62v-576h108v-49h-108v-195h-54zM133 858h262v485z" />
    <glyph glyph-name="uni2075" unicode="&#x2075;" horiz-adv-x="624" 
d="M78 827l49 9q27 -181 190 -181q86 0 137.5 61t51.5 165t-51.5 165.5t-137.5 61.5q-61 0 -108 -37t-68 -94l-51 10l49 447h375v-50h-332l-39 -331q26 45 75 74.5t108 29.5q105 0 169 -76t64 -200q0 -121 -68 -198t-174 -77q-100 0 -163.5 59t-75.5 162z" />
    <glyph glyph-name="uni2076" unicode="&#x2076;" horiz-adv-x="698" 
d="M90 877q0 87 53 182l219 383h58l-195 -340q55 43 137 43q112 0 179 -73t67 -195q0 -118 -71.5 -194.5t-186.5 -76.5q-116 0 -188 76.5t-72 194.5zM555 877q0 99 -56 159t-149 60q-92 0 -149.5 -60.5t-57.5 -158.5q0 -95 58.5 -158.5t148.5 -63.5q91 0 148 63.5t57 158.5z
" />
    <glyph glyph-name="uni2077" unicode="&#x2077;" horiz-adv-x="538" 
d="M119 614l309 770h-362v50h428v-21l-322 -799h-53z" />
    <glyph glyph-name="uni2078" unicode="&#x2078;" horiz-adv-x="659" 
d="M90 842q0 77 41 133t107 80q-121 55 -121 180q0 88 60.5 147.5t152.5 59.5t152.5 -59.5t60.5 -147.5q0 -125 -121 -180q66 -24 106.5 -80t40.5 -133q0 -103 -67 -169.5t-172 -66.5t-172.5 66.5t-67.5 169.5zM489 1235q0 70 -44 114t-115 44q-72 0 -116 -44.5t-44 -113.5
t44 -113.5t116 -44.5q71 0 115 44t44 114zM516 842q0 87 -49.5 136.5t-136.5 49.5t-137 -49.5t-50 -136.5q0 -85 50.5 -136t136.5 -51t136 51t50 136z" />
    <glyph glyph-name="uni2079" unicode="&#x2079;" horiz-adv-x="698" 
d="M279 606l194 340q-55 -43 -137 -43q-112 0 -179 73t-67 195q0 118 71.5 194.5t186.5 76.5q116 0 188 -76.5t72 -194.5q0 -87 -53 -182l-219 -383h-57zM555 1171q0 95 -58.5 158.5t-148.5 63.5q-91 0 -148 -63.5t-57 -158.5q0 -99 56 -159t149 -60q92 0 149.5 60.5
t57.5 158.5z" />
    <glyph glyph-name="uni2080" unicode="&#x2080;" horiz-adv-x="741" 
d="M90 -8q0 190 76 304t205 114q128 0 204 -114t76 -304t-76 -304t-204 -114q-129 0 -205 114t-76 304zM598 -8q0 176 -60.5 272t-166.5 96t-167 -96t-61 -272t61 -272.5t167 -96.5t166.5 96.5t60.5 272.5z" />
    <glyph glyph-name="uni2081" unicode="&#x2081;" horiz-adv-x="391" 
d="M219 -418v744l-162 -84v55l195 104h20v-819h-53z" />
    <glyph glyph-name="uni2082" unicode="&#x2082;" horiz-adv-x="614" 
d="M70 -418v21l299 368q56 67 77 116.5t21 105.5q0 77 -45 122t-121 45q-69 0 -114.5 -44t-57.5 -130l-49 13q12 99 70.5 155t150.5 56q98 0 158.5 -60t60.5 -157q0 -114 -112 -250l-254 -312h391v-49h-475z" />
    <glyph glyph-name="uni2083" unicode="&#x2083;" horiz-adv-x="620" 
d="M74 -205l53 6q12 -86 61.5 -132t124.5 -46q87 0 139 57.5t52 151.5t-47.5 151.5t-132.5 57.5q-43 0 -72 -18l-31 36l209 293h-317v49h395v-20l-209 -291q6 2 31 2q96 0 161.5 -71t65.5 -189q0 -112 -66.5 -185t-177.5 -73q-97 0 -161.5 59t-77.5 162z" />
    <glyph glyph-name="uni2084" unicode="&#x2084;" horiz-adv-x="612" 
d="M395 -418v195h-332v20l324 604h62v-575h108v-49h-108v-195h-54zM133 -174h262v485z" />
    <glyph glyph-name="uni2085" unicode="&#x2085;" horiz-adv-x="624" 
d="M78 -205l49 8q27 -180 190 -180q87 0 138 60.5t51 164.5t-51.5 166t-137.5 62q-61 0 -108 -37t-68 -94l-51 10l49 446h375v-49h-332l-39 -332q26 45 75 75t108 30q105 0 169 -76.5t64 -200.5q0 -121 -68 -197.5t-174 -76.5q-100 0 -163.5 59t-75.5 162z" />
    <glyph glyph-name="uni2086" unicode="&#x2086;" horiz-adv-x="698" 
d="M90 -156q0 88 53 183l219 383h58l-195 -340q55 43 137 43q112 0 179 -73.5t67 -195.5q0 -118 -71.5 -194t-186.5 -76q-116 0 -188 76t-72 194zM555 -156q0 99 -56 159t-149 60q-92 0 -149.5 -60.5t-57.5 -158.5q0 -94 58.5 -157.5t148.5 -63.5q91 0 148 63t57 158z" />
    <glyph glyph-name="uni2087" unicode="&#x2087;" horiz-adv-x="538" 
d="M119 -418l309 770h-362v49h428v-20l-322 -799h-53z" />
    <glyph glyph-name="uni2088" unicode="&#x2088;" horiz-adv-x="659" 
d="M90 -190q0 77 41 133t107 80q-121 55 -121 180q0 88 60.5 147.5t152.5 59.5t152.5 -59.5t60.5 -147.5q0 -125 -121 -180q66 -24 106.5 -80t40.5 -133q0 -103 -67 -169.5t-172 -66.5t-172.5 66.5t-67.5 169.5zM489 203q0 69 -43.5 113t-115.5 44t-116 -44t-44 -113
t44 -113.5t116 -44.5q71 0 115 44t44 114zM516 -190q0 87 -49.5 136.5t-136.5 49.5t-137 -49.5t-50 -136.5q0 -85 50.5 -136t136.5 -51t136 51t50 136z" />
    <glyph glyph-name="uni2089" unicode="&#x2089;" horiz-adv-x="698" 
d="M279 -426l194 340q-55 -43 -137 -43q-112 0 -179 73t-67 195q0 118 71.5 194.5t186.5 76.5q116 0 188 -76.5t72 -194.5q0 -87 -53 -182l-219 -383h-57zM555 139q0 94 -58.5 157.5t-148.5 63.5q-91 0 -148 -63t-57 -158q0 -99 56 -159t149 -60q92 0 149.5 60.5t57.5 158.5
z" />
    <glyph glyph-name="franc" unicode="&#x20a3;" horiz-adv-x="1032" 
d="M958 1384h-714v-612h592v-49h-592v-373h311v-49h-311v-301h-54v301h-112v49h112v1084h768v-50z" />
    <glyph glyph-name="uni20A8" unicode="&#x20a8;" horiz-adv-x="1916" 
d="M184 0v1434h453q167 0 264.5 -93t97.5 -249q0 -152 -92 -244t-252 -98l469 -750h-61l-471 750h-354v-750h-54zM238 799h387q155 0 238 76.5t83 216.5t-83 216t-238 76h-387v-585zM1184 248l45 20q33 -121 101 -178t192 -57q106 0 176.5 65.5t70.5 177.5q0 181 -235 242
q-139 37 -214 109.5t-75 173.5q0 114 76 181t192 67q180 0 269 -160l-39 -31q-77 141 -236 141q-90 0 -151.5 -54.5t-61.5 -147.5q0 -84 65 -141.5t197 -96.5q134 -39 200.5 -106.5t66.5 -173.5q0 -131 -88.5 -213t-212.5 -82q-268 0 -338 264z" />
    <glyph glyph-name="uni20A9" unicode="&#x20a9;" horiz-adv-x="1232" 
d="M1208 1434l-121 -721h121v-49h-129l-110 -664h-64l-160 664h-258l-159 -664h-64l-110 664h-129v49h120l-120 721h57l113 -721h254l137 569h61l137 -569h254l113 721h57zM498 713h237l-119 491zM295 72l141 592h-233zM938 72l92 592h-233z" />
    <glyph glyph-name="uni20AA" unicode="&#x20aa;" horiz-adv-x="1368" 
d="M868 1180v-926h-53v926q0 204 -205 204h-372v-1384h-54v1434h426q258 0 258 -254zM500 254v926h53v-926q0 -205 205 -205h372v1385h54v-1434h-426q-258 0 -258 254z" />
    <glyph glyph-name="dong" unicode="&#x20ab;" horiz-adv-x="925" 
d="M98 754q0 170 86 282q88 111 232 111q91 0 170.5 -54.5t113.5 -152.5l-4 111v206h-239v50h239v143h54v-143h98v-50h-98v-884h-54v84l4 110q-34 -100 -113 -153.5t-175 -53.5q-138 0 -226 112t-88 282zM700 754q0 148 -80 246t-200 98q-118 0 -193 -97t-75 -247t75 -247
t193 -97q120 0 200 98t80 246zM98 176v49h750v-49h-750z" />
    <glyph glyph-name="Euro" unicode="&#x20ac;" horiz-adv-x="1175" 
d="M225 543h-153l24 49h125q-6 61 -6 125t6 125h-149l24 49h131q37 255 173 407t327 152q121 0 212 -59t142 -168l-47 -27q-37 96 -121 150.5t-186 54.5q-176 0 -295 -137t-151 -373h522l-25 -49h-504q-6 -61 -6 -125q0 -63 6 -125h529l-25 -49h-499q32 -239 149.5 -374.5
t296.5 -135.5q212 0 311 217l49 -25q-119 -241 -360 -241q-201 0 -332 149q-133 152 -168 410z" />
    <glyph glyph-name="uni20AD" unicode="&#x20ad;" horiz-adv-x="964" 
d="M866 0l-626 762h-13v-762h-53v762h-129v49h129v623h53v-623h13l575 623h68l-576 -623h580v-49h-582l627 -762h-66z" />
    <glyph glyph-name="uni20B1" unicode="&#x20b1;" horiz-adv-x="1257" 
d="M1184 1180v-50h-131q6 -38 6 -77q0 -41 -6 -78h131v-49h-144q-35 -121 -141 -187.5t-264 -66.5h-389v-672h-53v926h-119v49h119v155h-119v50h119v254h442q158 0 264 -66.5t141 -187.5h144zM246 1384v-204h741q-66 204 -350 204h-391zM999 1130h-753v-155h753q7 44 7 78
q0 33 -7 77zM987 926h-741v-205h391q140 0 229 52.5t121 152.5z" />
    <glyph glyph-name="uni20B4" unicode="&#x20b4;" horiz-adv-x="1060" 
d="M770 889h188v-49h-872v49h612q136 100 136 262q0 114 -76.5 182t-196.5 68q-188 0 -270 -193l-45 27q92 215 315 215q141 0 232 -82q94 -79 94 -217q0 -154 -117 -262zM86 545v49h872v-49h-694q-37 -67 -37 -170q0 -159 92.5 -252.5t241.5 -93.5q122 0 214.5 77.5
t129.5 208.5l43 -24q-45 -145 -144 -226t-243 -81q-168 0 -277.5 107.5t-109.5 283.5q0 97 33 170h-121z" />
    <glyph glyph-name="uni20B8" unicode="&#x20b8;" horiz-adv-x="983" 
d="M61 1384v50h861v-50h-861zM465 0v1083h-404v50h861v-50h-404v-1083h-53z" />
    <glyph glyph-name="uni20B9" unicode="&#x20b9;" horiz-adv-x="1032" 
d="M958 1434v-50h-280q154 -83 160 -288h120v-49h-122q-11 -149 -108.5 -231.5t-266.5 -82.5h-289l647 -733h-71l-674 762v20h379q154 0 238 67.5t91 197.5h-708v49h710q-9 288 -331 288h-379v50h884z" />
    <glyph glyph-name="uni20BA" unicode="&#x20ba;" horiz-adv-x="1011" 
d="M860 504h53v-133q0 -174 -93.5 -272.5t-258.5 -98.5h-338v465l-178 -111v58l178 110v189l-178 -111v57l178 111v666h53v-631l361 225v-57l-361 -226v-188l361 225v-57l-361 -225v-451h287q149 0 223 85.5t74 236.5v133z" />
    <glyph glyph-name="uni20BD" unicode="&#x20bd;" horiz-adv-x="1204" 
d="M690 672h-389v-250h612v-49h-612v-373h-53v373h-174v49h174v250h-174v49h174v713h442q197 0 310.5 -101.5t113.5 -279.5t-113.5 -279.5t-310.5 -101.5zM301 1384v-663h391q179 0 274 86t95 246t-94.5 245.5t-274.5 85.5h-391z" />
    <glyph glyph-name="uni20BF" unicode="&#x20bf;" horiz-adv-x="1179" 
d="M672 0v-143h-54v143h-165v-143h-54v143h-215v1434h215v143h54v-143h165v143h54v-145q156 -11 241.5 -100.5t85.5 -244.5q0 -116 -54.5 -195t-147.5 -116q120 -30 192 -128t72 -253q0 -187 -102 -288.5t-287 -106.5zM238 1384v-593h387q154 0 237.5 77.5t83.5 218.5
t-85.5 219t-235.5 78h-387zM1008 395q0 172 -94 259t-273 87h-403v-692h403q179 0 273 87t94 259z" />
    <glyph glyph-name="uni2113" unicode="&#x2113;" horiz-adv-x="712" 
d="M608 227l49 -14q-29 -118 -90 -173.5t-161 -55.5q-96 0 -156 65t-60 184v472q-54 -36 -129 -78l-28 43q104 58 157 96v453q0 108 41 169.5t125 61.5q83 0 126.5 -61.5t43.5 -163.5q0 -129 -48.5 -228.5t-153.5 -191.5q-49 -43 -80 -64v-508q0 -96 46 -148t122 -52
q77 0 125 45.5t71 148.5zM244 1212v-407q7 4 24 18.5t27 22.5q178 158 178 379q0 176 -117 176q-112 0 -112 -189z" />
    <glyph glyph-name="uni2116" unicode="&#x2116;" horiz-adv-x="2095" 
d="M1382 1122q0 87 35.5 161t107 120.5t165.5 46.5q140 0 223.5 -96t83.5 -232q0 -87 -35.5 -160.5t-106.5 -120t-165 -46.5q-141 0 -224.5 96t-83.5 231zM184 0v1434h62l839 -1348v1348h54v-1434h-62l-839 1352v-1352h-54zM1944 1122q0 113 -69.5 196t-184.5 83t-184.5 -83
t-69.5 -196t69.5 -195.5t184.5 -82.5t184.5 82.5t69.5 195.5zM1423 532v50h533v-50h-533z" />
    <glyph glyph-name="uni2117" unicode="&#x2117;" horiz-adv-x="1785" 
d="M123 717q-3 164 56 313t162 256.5t247 169.5t305 60q161 2 305 -60t247 -169.5t162 -256.5t56 -313q3 -166 -56 -315t-162 -256t-247 -169t-305 -59q-161 -3 -305 59t-247 169t-162 256t-56 315zM1610 717q2 153 -52 292t-149 240.5t-230 160t-286 56.5
q-151 2 -286 -56.5t-230 -160t-149 -240.5t-52 -292q-2 -153 52 -292.5t149 -240.5t230 -160t286 -57q151 -2 286 57t230 160t149 240.5t52 292.5zM659 281v872h283q114 0 181 -64.5t67 -170.5t-67 -171t-181 -65h-229v-401h-54zM713 731h231q92 0 142.5 50.5t50.5 136.5
t-50.5 136t-142.5 50h-231v-373z" />
    <glyph glyph-name="uni2120" unicode="&#x2120;" horiz-adv-x="1607" 
d="M82 819l49 21q39 -193 203 -193q80 0 134 50.5t54 133.5q0 76 -42 119t-148 82q-209 79 -209 228q0 84 58 137t147 53q144 0 194 -135l-41 -23q-47 109 -153 109q-67 0 -109.5 -38.5t-42.5 -100.5q0 -66 48.5 -109.5t148.5 -81.5t151 -94.5t51 -140.5q0 -102 -71.5 -170
t-171.5 -68q-98 0 -164.5 60.5t-85.5 160.5zM772 614v820h57l271 -648l270 648h57v-820h-53v676l-258 -600h-33l-258 600v-676h-53z" />
    <glyph glyph-name="trademark" unicode="&#x2122;" horiz-adv-x="1515" 
d="M279 614v770h-218v50h488v-50h-217v-770h-53zM680 614v820h57l271 -648l270 648h57v-820h-53v676l-258 -600h-33l-258 600v-676h-53z" />
    <glyph glyph-name="uni2126" unicode="&#x2126;" horiz-adv-x="1323" 
d="M86 0v49h377q-197 171 -295 353.5t-98 406.5q-3 179 73 327t213 232.5t306 81.5q169 3 306 -81.5t212.5 -232.5t72.5 -327q0 -224 -98 -406.5t-295 -353.5h377v-49h-442v49q218 199 309 363q96 175 96 397q0 261 -152.5 426.5t-385.5 165.5t-386 -165.5t-153 -426.5
q0 -222 96 -397q91 -164 309 -363v-49h-442z" />
    <glyph glyph-name="estimated" unicode="&#x212e;" horiz-adv-x="1560" 
d="M281 717v-432q64 -112 208 -183q143 -67 291 -67q195 0 352.5 94t239.5 258h53q-87 -179 -264 -291q-174 -110 -381 -110q-125 -2 -238.5 35t-201 105.5t-151.5 159.5t-97 202t-31 229q-2 120 31 231.5t97 203t151.5 159.5t201 104.5t238.5 34.5q203 3 369 -91.5
t259.5 -263.5t90.5 -378h-1218zM281 1159v-393h1009v393q-63 95 -211.5 168.5t-298.5 73.5q-144 0 -286 -68q-142 -65 -213 -174z" />
    <glyph glyph-name="uni2153" unicode="&#x2153;" horiz-adv-x="1558" 
d="M219 614v744l-162 -84v55l195 105h20v-820h-53zM131 -29l-43 35l1110 1464l43 -34zM1012 213l53 6q12 -86 61.5 -132t124.5 -46q87 0 139 57.5t52 151.5t-47.5 151.5t-132.5 57.5q-42 0 -72 -19l-31 37l209 293h-317v49h395v-20l-209 -291q6 2 31 2q96 0 161.5 -71
t65.5 -189q0 -112 -66.5 -185t-177.5 -73q-97 0 -161.5 59t-77.5 162z" />
    <glyph glyph-name="uni2154" unicode="&#x2154;" horiz-adv-x="1781" 
d="M70 614v21l299 369q56 67 77 116t21 105q0 77 -45.5 122.5t-120.5 45.5q-69 0 -114.5 -44t-57.5 -130l-49 12q12 99 70.5 155t150.5 56q98 0 158.5 -60t60.5 -157q0 -114 -112 -250l-254 -311h391v-50h-475zM354 -29l-43 35l1110 1464l43 -34zM1235 213l53 6
q12 -86 62 -132t125 -46q87 0 138.5 57.5t51.5 151.5t-47.5 151.5t-132.5 57.5q-42 0 -72 -19l-31 37l209 293h-317v49h395v-20l-209 -291q6 2 31 2q96 0 161.5 -71t65.5 -189q0 -112 -66.5 -185t-176.5 -73q-97 0 -162 59.5t-78 161.5z" />
    <glyph glyph-name="oneeighth" unicode="&#x215b;" horiz-adv-x="1576" 
d="M219 614v744l-162 -84v55l195 105h20v-820h-53zM131 -29l-43 35l1110 1464l43 -34zM1008 227q0 77 40.5 133t106.5 80q-121 55 -121 181q0 88 60.5 147t152.5 59t152.5 -59t60.5 -147q0 -126 -121 -181q66 -24 107 -80t41 -133q0 -103 -67 -169t-173 -66q-105 0 -172 66
t-67 169zM1407 621q0 69 -44 113t-116 44t-116 -44t-44 -113t44.5 -113.5t115.5 -44.5t115.5 44.5t44.5 113.5zM1434 227q0 87 -50 137t-137 50t-136.5 -50t-49.5 -137q0 -85 50 -135.5t136 -50.5t136.5 50.5t50.5 135.5z" />
    <glyph glyph-name="threeeighths" unicode="&#x215c;" horiz-adv-x="1785" 
d="M74 827l53 7q12 -86 61.5 -132.5t124.5 -46.5q87 0 139 57.5t52 151.5t-47.5 151.5t-132.5 57.5q-43 0 -72 -18l-31 37l209 292h-317v50h395v-21l-209 -291q6 2 31 2q96 0 161.5 -71t65.5 -189q0 -112 -66.5 -185t-177.5 -73q-97 0 -161.5 59t-77.5 162zM340 -29l-43 35
l1110 1464l43 -34zM1217 227q0 77 40.5 133t106.5 80q-121 55 -121 181q0 88 60.5 147t152.5 59t152.5 -59t60.5 -147q0 -126 -121 -181q66 -24 107 -80t41 -133q0 -103 -67 -169t-173 -66q-105 0 -172 66t-67 169zM1616 621q0 69 -44 113t-116 44t-116 -44t-44 -113
t44 -113.5t116 -44.5t116 44.5t44 113.5zM1642 227q0 87 -50 137t-136 50t-136 -50t-50 -137q0 -85 50 -135.5t136 -50.5t136 50.5t50 135.5z" />
    <glyph glyph-name="fiveeighths" unicode="&#x215d;" horiz-adv-x="1789" 
d="M78 827l49 9q27 -181 190 -181q86 0 137.5 61t51.5 165t-51.5 165.5t-137.5 61.5q-61 0 -108 -37t-68 -94l-51 10l49 447h375v-50h-332l-39 -331q26 45 75 74.5t108 29.5q105 0 169 -76t64 -200q0 -121 -68 -198t-174 -77q-100 0 -163.5 59t-75.5 162zM344 -29l-43 35
l1110 1464l43 -34zM1221 227q0 77 40.5 133t106.5 80q-121 55 -121 181q0 88 60.5 147t152.5 59t152.5 -59t60.5 -147q0 -126 -121 -181q66 -24 107 -80t41 -133q0 -103 -67 -169t-173 -66q-105 0 -172 66t-67 169zM1620 621q0 69 -44 113t-116 44t-116 -44t-44 -113
t44 -113.5t116 -44.5t116 44.5t44 113.5zM1647 227q0 87 -50 137t-137 50q-86 0 -136 -50t-50 -137q0 -85 50 -135.5t136 -50.5t136.5 50.5t50.5 135.5z" />
    <glyph glyph-name="seveneighths" unicode="&#x215e;" horiz-adv-x="1601" 
d="M119 614l309 770h-362v50h428v-21l-322 -799h-53zM156 -29l-43 35l1110 1464l43 -34zM1032 227q0 77 41 133t107 80q-121 55 -121 181q0 88 60.5 147t152.5 59t152.5 -59t60.5 -147q0 -126 -121 -181q66 -24 106.5 -80t40.5 -133q0 -103 -67 -169t-172 -66
q-106 0 -173 66t-67 169zM1432 621q0 69 -44 113t-116 44t-116 -44t-44 -113t44 -113.5t116 -44.5t116 44.5t44 113.5zM1458 227q0 87 -50 137t-136 50q-87 0 -137 -50t-50 -137q0 -85 50.5 -135.5t136.5 -50.5t136 50.5t50 135.5z" />
    <glyph glyph-name="arrowleft" unicode="&#x2190;" horiz-adv-x="1228" 
d="M498 326l-387 391l387 391l39 -39l-322 -326h903v-53h-903l322 -325z" />
    <glyph glyph-name="arrowup" unicode="&#x2191;" horiz-adv-x="1150" 
d="M549 197v903l-326 -322l-39 39l391 387l392 -387l-39 -39l-326 322v-903h-53z" />
    <glyph glyph-name="arrowright" unicode="&#x2192;" horiz-adv-x="1228" 
d="M731 326l-39 39l322 325h-903v53h903l-322 326l39 39l387 -391z" />
    <glyph glyph-name="arrowdown" unicode="&#x2193;" horiz-adv-x="1150" 
d="M575 197l-391 387l39 39l326 -322v903h53v-903l326 322l39 -39z" />
    <glyph glyph-name="arrowboth" unicode="&#x2194;" horiz-adv-x="1445" 
d="M948 1108l387 -391l-387 -391l-39 39l322 325h-1016l322 -325l-39 -39l-387 391l387 391l39 -39l-322 -326h1016l-322 326z" />
    <glyph glyph-name="arrowupdn" unicode="&#x2195;" horiz-adv-x="1150" 
d="M602 182l326 322l39 -39l-392 -387l-391 387l39 39l326 -322v1037l-326 -322l-39 39l391 387l392 -387l-39 -39l-326 322v-1037z" />
    <glyph glyph-name="uni2196" unicode="&#x2196;" horiz-adv-x="1212" 
d="M936 350l-641 641v-459h-53v551h551v-53h-459l639 -643z" />
    <glyph glyph-name="uni2197" unicode="&#x2197;" horiz-adv-x="1212" 
d="M279 350l-37 37l639 643h-459v53h551v-551h-53v459z" />
    <glyph glyph-name="uni2198" unicode="&#x2198;" horiz-adv-x="1212" 
d="M422 350v53h459l-639 644l37 36l641 -641v459h53v-551h-551z" />
    <glyph glyph-name="uni2199" unicode="&#x2199;" horiz-adv-x="1212" 
d="M240 350v551h53v-459l641 641l37 -36l-639 -644h459v-53h-551z" />
    <glyph glyph-name="partialdiff" unicode="&#x2202;" horiz-adv-x="1089" 
d="M98 422q-2 164 62 308.5t184.5 233.5t269.5 85q106 0 192.5 -54t133.5 -166q-31 305 -111 438.5t-243 133.5q-103 0 -185.5 -60t-124.5 -161l-45 12q48 120 144.5 189t224.5 69q198 0 294.5 -190.5t96.5 -593.5q0 -191 -63 -346t-180.5 -245.5t-266.5 -90.5
q-177 0 -280 118q-103 121 -103 320zM932 604q0 186 -89 290.5t-247 104.5q-79 2 -150 -29.5t-124.5 -87t-92.5 -128.5t-58.5 -157.5t-18.5 -170.5q0 -179 88.5 -286t240.5 -107q76 -2 147 27.5t125.5 84.5t96 127t62.5 158t20 174z" />
    <glyph glyph-name="uni2206" unicode="&#x2206;" horiz-adv-x="1142" 
d="M25 0v20l516 1414h61l516 -1414v-20h-1093zM92 49h959l-480 1321z" />
    <glyph glyph-name="product" unicode="&#x220f;" horiz-adv-x="1042" 
d="M184 0v1434h674v-1434h-53v1384h-567v-1384h-54z" />
    <glyph glyph-name="summation" unicode="&#x2211;" horiz-adv-x="1021" 
d="M117 0v20l446 697l-446 696v21h774v-50h-690l413 -655v-24l-413 -656h706v-49h-790z" />
    <glyph glyph-name="minus" unicode="&#x2212;" horiz-adv-x="1044" 
d="M143 623v49h758v-49h-758z" />
    <glyph glyph-name="uni2215" unicode="&#x2215;" horiz-adv-x="978" 
d="M16 -102l893 1638h54l-893 -1638h-54z" />
    <glyph glyph-name="uni2219" unicode="&#x2219;" horiz-adv-x="634" 
d="M184 621q0 55 39 94t94 39q56 0 95 -39t39 -94t-39.5 -94.5t-94.5 -39.5t-94 39t-39 95z" />
    <glyph glyph-name="radical" unicode="&#x221a;" horiz-adv-x="1003" 
d="M492 0l-222 748h-192v49h231l211 -729l414 1382h53l-442 -1450h-53z" />
    <glyph glyph-name="infinity" unicode="&#x221e;" horiz-adv-x="1724" 
d="M117 735q0 174 93.5 282.5t246.5 108.5q126 0 233.5 -86.5t171.5 -232.5q64 146 172 232.5t234 86.5q153 0 246.5 -108.5t93.5 -282.5t-93.5 -282.5t-246.5 -108.5q-126 0 -234 87t-172 233q-65 -146 -172 -233t-233 -87q-153 0 -246.5 108.5t-93.5 282.5zM840 735
q-136 342 -377 342q-139 0 -216 -92t-77 -250t77 -250t216 -92q241 0 377 342zM1554 735q0 158 -76.5 250t-215.5 92q-241 0 -377 -342q136 -342 377 -342q139 0 215.5 92t76.5 250z" />
    <glyph glyph-name="integral" unicode="&#x222b;" horiz-adv-x="716" 
d="M-170 -408l23 48q45 -25 106 -25q80 0 134.5 59.5t78.5 178.5l258 1318q29 138 107.5 208.5t191.5 70.5q67 0 113 -27l-23 -47q-45 25 -100 25q-89 0 -150.5 -59t-85.5 -179l-258 -1319q-26 -137 -98.5 -207.5t-177.5 -70.5q-74 0 -119 26z" />
    <glyph glyph-name="approxequal" unicode="&#x2248;" horiz-adv-x="995" 
d="M481 461q-55 29 -91.5 42t-74.5 13q-55 0 -95 -24t-83 -78l-35 37q91 114 207 114q52 0 95 -14.5t110 -48.5q56 -30 92 -43t74 -13q54 0 94 24.5t84 78.5l35 -37q-92 -115 -207 -115q-51 0 -94 14.5t-111 49.5zM481 870q-56 30 -92 43t-74 13q-54 0 -94 -24.5t-84 -78.5
l-35 37q92 115 207 115q51 0 94 -14.5t111 -49.5q55 -29 91.5 -42t74.5 -13q55 0 95 24t83 78l35 -36q-92 -115 -207 -115q-52 0 -95 14.5t-110 48.5z" />
    <glyph glyph-name="notequal" unicode="&#x2260;" horiz-adv-x="1044" 
d="M299 211l-43 25l129 223h-242v49h271l159 278h-430v50h459l143 247l43 -24l-129 -223h242v-50h-270l-160 -278h430v-49h-459z" />
    <glyph glyph-name="lessequal" unicode="&#x2264;" horiz-adv-x="1044" 
d="M840 430l-635 365v57l635 365v-54l-590 -340l590 -340v-53zM143 0v49h758v-49h-758z" />
    <glyph glyph-name="greaterequal" unicode="&#x2265;" horiz-adv-x="1044" 
d="M205 430v53l590 340l-590 340v54l635 -365v-57zM143 0v49h758v-49h-758z" />
    <glyph glyph-name="lozenge" unicode="&#x25ca;" horiz-adv-x="1064" 
d="M506 0l-365 717l365 717h53l365 -717l-365 -717h-53zM532 49l338 668l-338 667l-337 -667z" />
    <glyph glyph-name="uniF8FF" unicode="&#xf8ff;" horiz-adv-x="1622" 
d="M205 45v1219q0 14 10 27.5t23 17.5l553 159l20 5l20 -5l553 -159q13 -4 23 -17.5t10 -27.5v-1219q0 -19 -13 -32t-32 -13l-14 2l-547 158l-547 -158l-14 -2q-19 0 -32 13t-13 32zM766 750v620l-471 -137q12 -191 146.5 -329.5t324.5 -153.5zM1327 1233l-471 137v-620
q190 15 324.5 153.5t146.5 329.5zM293 104l473 138v417q-149 12 -274 89t-199 200v-844zM1329 104v844q-75 -124 -200 -200.5t-273 -88.5v-417z" />
    <glyph glyph-name="fi" unicode="&#xfb01;" horiz-adv-x="978" 
d="M193 0v983h-168v49h168v64q0 165 99 259.5t247 94.5q133 0 247 -66l-10 -51q-109 68 -237 68t-210.5 -79t-82.5 -220v-70h573v-1032h-53v983h-520v-983h-53z" />
    <glyph glyph-name="fl" unicode="&#xfb02;" horiz-adv-x="978" 
d="M193 0v983h-168v49h168v125q0 144 65 218.5t178 74.5h383v-1450h-53v1401h-330q-89 0 -139.5 -59.5t-50.5 -178.5v-131h229v-49h-229v-983h-53z" />
    <glyph glyph-name="uni0122.ss02" horiz-adv-x="1366" 
d="M106 717q-2 172 46 313.5t132.5 232.5t196 140t236.5 47q196 0 326 -103t180 -290l-52 -19q-48 174 -165 268.5t-289 94.5q-116 0 -216.5 -45t-177 -129.5t-120 -216t-43.5 -293.5q0 -163 43 -293.5t118.5 -215.5t176.5 -130t219 -45q208 0 337 156.5t132 435.5h-352v49
h405v-674h-41l-12 225v133q-42 -173 -167 -273.5t-302 -100.5q-133 0 -244.5 48t-193.5 138.5t-127.5 230.5t-45.5 316zM643 -422l-14 27q112 57 112 155q-40 0 -64 21t-24 53q0 31 20 50.5t52 19.5q35 0 55.5 -22.5t20.5 -59.5q0 -84 -38.5 -142.5t-119.5 -101.5z" />
    <glyph glyph-name="uni0136.ss02" horiz-adv-x="974" 
d="M184 0v1434h54v-637l587 637h68l-598 -648l647 -786h-65l-639 776v-776h-54zM457 -422l-15 27q113 58 113 155q-40 0 -64 21t-24 53q0 31 20 50.5t52 19.5q35 0 55 -22.5t20 -59.5q0 -84 -38 -142.5t-119 -101.5z" />
    <glyph glyph-name="Lcaron.ss02" horiz-adv-x="991" 
d="M184 0v1434h54v-1385h671v-49h-725zM729 1149l-14 27q112 57 112 155q-40 0 -64 21t-24 53q0 31 20 50.5t52 19.5q35 0 55.5 -22.5t20.5 -59.5q0 -84 -38.5 -142.5t-119.5 -101.5z" />
    <glyph glyph-name="uni013B.ss02" horiz-adv-x="991" 
d="M184 0v1434h54v-1385h671v-49h-725zM475 -422l-14 27q112 57 112 155q-40 0 -64 21t-24 53q0 31 20 50.5t52 19.5q35 0 55.5 -22.5t20.5 -59.5q0 -84 -38.5 -142.5t-119.5 -101.5z" />
    <glyph glyph-name="uni0145.ss02" horiz-adv-x="1323" 
d="M184 0v1434h62l839 -1348v1348h54v-1434h-62l-839 1352v-1352h-54zM590 -422l-15 27q113 58 113 155q-40 0 -64 21t-24 53q0 31 20 50.5t52 19.5q35 0 55.5 -22.5t20.5 -59.5q0 -84 -38.5 -142.5t-119.5 -101.5z" />
    <glyph glyph-name="uni0156.ss02" horiz-adv-x="1193" 
d="M184 0v1434h453q167 0 264.5 -93t97.5 -249q0 -152 -92 -244t-252 -98l469 -750h-61l-471 750h-354v-750h-54zM238 799h387q155 0 238 76.5t83 216.5t-83 216t-238 76h-387v-585zM526 -422l-14 27q113 58 113 155q-40 0 -64 21t-24 53q0 31 19.5 50.5t51.5 19.5
q35 0 55.5 -22.5t20.5 -59.5q0 -84 -38.5 -142.5t-119.5 -101.5z" />
    <glyph glyph-name="uni0218.ss02" horiz-adv-x="983" 
d="M86 362l47 23q25 -160 125.5 -258t241.5 -98q144 0 235.5 94t91.5 252q0 144 -73.5 225.5t-249.5 151.5q-346 138 -346 370q0 144 93.5 236t231.5 92q224 0 316 -215l-45 -27q-82 193 -271 193q-117 0 -194.5 -76.5t-77.5 -194.5q0 -115 76.5 -191.5t244.5 -145.5
q185 -75 267 -167t82 -245q0 -180 -108 -288.5t-273 -108.5q-163 0 -269.5 101t-144.5 277zM424 -422l-14 27q112 57 112 155q-40 0 -64 21t-24 53q0 31 20 50.5t52 19.5q35 0 55.5 -22.5t20.5 -59.5q0 -84 -38.5 -142.5t-119.5 -101.5z" />
    <glyph glyph-name="uni021A.ss02" horiz-adv-x="1032" 
d="M489 0v1384h-428v50h910v-50h-428v-1384h-54zM444 -422l-14 27q113 58 113 155q-40 0 -64 21t-24 53q0 31 19.5 50.5t51.5 19.5q35 0 55.5 -22.5t20.5 -59.5q0 -84 -38.5 -142.5t-119.5 -101.5z" />
    <glyph glyph-name="i.loclTRK" horiz-adv-x="372" 
d="M160 0v1032h53v-1032h-53zM131 1329q0 25 15 40t40 15t40.5 -15t15.5 -40t-15.5 -40t-40.5 -15t-40 15t-15 40z" />
    <glyph glyph-name="a.ss01" horiz-adv-x="1142" 
d="M98 516q0 232 122 382.5t319 150.5q278 0 395 -283q-4 86 -4 121v145h53v-1032h-53v156l4 131q-38 -140 -146.5 -221.5t-252.5 -81.5q-130 0 -230 69.5t-153.5 190t-53.5 272.5zM934 516q0 206 -108.5 344.5t-282.5 138.5t-282.5 -138.5t-108.5 -344.5q0 -209 107.5 -346
t283.5 -137t283.5 137t107.5 346z" />
    <glyph glyph-name="aacute.ss01" horiz-adv-x="1142" 
d="M98 516q0 232 122 382.5t319 150.5q278 0 395 -283q-4 86 -4 121v145h53v-1032h-53v156l4 131q-38 -140 -146.5 -221.5t-252.5 -81.5q-130 0 -230 69.5t-153.5 190t-53.5 272.5zM934 516q0 206 -108.5 344.5t-282.5 138.5t-282.5 -138.5t-108.5 -344.5q0 -209 107.5 -346
t283.5 -137t283.5 137t107.5 346zM543 1147l121 262h81l-153 -262h-49z" />
    <glyph glyph-name="abreve.ss01" horiz-adv-x="1142" 
d="M98 516q0 232 122 382.5t319 150.5q278 0 395 -283q-4 86 -4 121v145h53v-1032h-53v156l4 131q-38 -140 -146.5 -221.5t-252.5 -81.5q-130 0 -230 69.5t-153.5 190t-53.5 272.5zM934 516q0 206 -108.5 344.5t-282.5 138.5t-282.5 -138.5t-108.5 -344.5q0 -209 107.5 -346
t283.5 -137t283.5 137t107.5 346zM373 1434h53q0 -82 36 -128t109 -46t109.5 46t36.5 128h53q0 -102 -51.5 -163t-147.5 -61t-147 60.5t-51 163.5z" />
    <glyph glyph-name="acircumflex.ss01" horiz-adv-x="1142" 
d="M98 516q0 232 122 382.5t319 150.5q278 0 395 -283q-4 86 -4 121v145h53v-1032h-53v156l4 131q-38 -140 -146.5 -221.5t-252.5 -81.5q-130 0 -230 69.5t-153.5 190t-53.5 272.5zM934 516q0 206 -108.5 344.5t-282.5 138.5t-282.5 -138.5t-108.5 -344.5q0 -209 107.5 -346
t283.5 -137t283.5 137t107.5 346zM332 1147l223 262h33l223 -262h-66l-174 207l-174 -207h-65z" />
    <glyph glyph-name="adieresis.ss01" horiz-adv-x="1142" 
d="M98 516q0 232 122 382.5t319 150.5q278 0 395 -283q-4 86 -4 121v145h53v-1032h-53v156l4 131q-38 -140 -146.5 -221.5t-252.5 -81.5q-130 0 -230 69.5t-153.5 190t-53.5 272.5zM934 516q0 206 -108.5 344.5t-282.5 138.5t-282.5 -138.5t-108.5 -344.5q0 -209 107.5 -346
t283.5 -137t283.5 137t107.5 346zM371 1309q0 25 17 42t42 17t42 -17t17 -42t-17 -42.5t-42 -17.5t-42 17.5t-17 42.5zM653 1309q0 25 17.5 42t42.5 17t42 -17t17 -42t-17 -42.5t-42 -17.5t-42.5 17.5t-17.5 42.5z" />
    <glyph glyph-name="agrave.ss01" horiz-adv-x="1142" 
d="M98 516q0 232 122 382.5t319 150.5q278 0 395 -283q-4 86 -4 121v145h53v-1032h-53v156l4 131q-38 -140 -146.5 -221.5t-252.5 -81.5q-130 0 -230 69.5t-153.5 190t-53.5 272.5zM934 516q0 206 -108.5 344.5t-282.5 138.5t-282.5 -138.5t-108.5 -344.5q0 -209 107.5 -346
t283.5 -137t283.5 137t107.5 346zM549 1147l-154 262h82l121 -262h-49z" />
    <glyph glyph-name="amacron.ss01" horiz-adv-x="1142" 
d="M98 516q0 232 122 382.5t319 150.5q278 0 395 -283q-4 86 -4 121v145h53v-1032h-53v156l4 131q-38 -140 -146.5 -221.5t-252.5 -81.5q-130 0 -230 69.5t-153.5 190t-53.5 272.5zM934 516q0 206 -108.5 344.5t-282.5 138.5t-282.5 -138.5t-108.5 -344.5q0 -209 107.5 -346
t283.5 -137t283.5 137t107.5 346zM358 1270v49h426v-49h-426z" />
    <glyph glyph-name="aogonek.ss01" horiz-adv-x="1142" 
d="M1018 -281l16 -45q-33 -20 -82 -20q-62 0 -99.5 39.5t-37.5 105.5q0 61 30 113t85 88v156l4 131q-38 -140 -146.5 -221.5t-252.5 -81.5q-130 0 -230 69.5t-153.5 190t-53.5 272.5q0 232 122 382.5t319 150.5q278 0 395 -283q-4 86 -4 121v145h53v-1032q-60 -50 -87.5 -95
t-27.5 -104q0 -43 24.5 -70.5t65.5 -27.5q31 0 60 16zM934 516q0 206 -108.5 344.5t-282.5 138.5t-282.5 -138.5t-108.5 -344.5q0 -209 107.5 -346t283.5 -137t283.5 137t107.5 346z" />
    <glyph glyph-name="aring.ss01" horiz-adv-x="1142" 
d="M98 516q0 232 122 382.5t319 150.5q278 0 395 -283q-4 86 -4 121v145h53v-1032h-53v156l4 131q-38 -140 -146.5 -221.5t-252.5 -81.5q-130 0 -230 69.5t-153.5 190t-53.5 272.5zM934 516q0 206 -108.5 344.5t-282.5 138.5t-282.5 -138.5t-108.5 -344.5q0 -209 107.5 -346
t283.5 -137t283.5 137t107.5 346zM383 1341q0 78 54.5 132.5t133.5 54.5t134 -54.5t55 -132.5t-55 -132t-134 -54t-133.5 54t-54.5 132zM707 1341q0 60 -39.5 100t-96.5 40t-96 -40t-39 -100t39 -99.5t96 -39.5t96.5 39.5t39.5 99.5z" />
    <glyph glyph-name="aringacute.ss01" horiz-adv-x="1142" 
d="M98 516q0 232 122 382.5t319 150.5q278 0 395 -283q-4 86 -4 121v145h53v-1032h-53v156l4 131q-38 -140 -146.5 -221.5t-252.5 -81.5q-130 0 -230 69.5t-153.5 190t-53.5 272.5zM934 516q0 206 -108.5 344.5t-282.5 138.5t-282.5 -138.5t-108.5 -344.5q0 -209 107.5 -346
t283.5 -137t283.5 137t107.5 346zM383 1341q0 78 54.5 132.5t133.5 54.5t134 -54.5t55 -132.5t-55 -132t-134 -54t-133.5 54t-54.5 132zM707 1341q0 60 -39.5 100t-96.5 40t-96 -40t-39 -100t39 -99.5t96 -39.5t96.5 39.5t39.5 99.5zM543 1626l121 262h81l-153 -262h-49z
" />
    <glyph glyph-name="atilde.ss01" horiz-adv-x="1142" 
d="M98 516q0 232 122 382.5t319 150.5q278 0 395 -283q-4 86 -4 121v145h53v-1032h-53v156l4 131q-38 -140 -146.5 -221.5t-252.5 -81.5q-130 0 -230 69.5t-153.5 190t-53.5 272.5zM934 516q0 206 -108.5 344.5t-282.5 138.5t-282.5 -138.5t-108.5 -344.5q0 -209 107.5 -346
t283.5 -137t283.5 137t107.5 346zM324 1239l-35 27q55 108 162 108q34 0 61 -11t72 -42q40 -27 61.5 -37t46.5 -10q42 0 68.5 18.5t58.5 67.5l35 -27q-56 -108 -162 -108q-32 0 -57.5 11t-75.5 42q-40 27 -61.5 37t-46.5 10q-42 0 -68.5 -18.5t-58.5 -67.5z" />
    <glyph glyph-name="ae.ss01" horiz-adv-x="1898" 
d="M98 516q0 232 122 382.5t319 150.5q143 0 243.5 -75t147.5 -198v256h53v-262q55 130 161.5 204.5t231.5 74.5q189 0 306.5 -129.5t117.5 -335.5v-56h-817q0 -212 110.5 -353.5t276.5 -141.5q129 0 209 55t143 186l47 -22q-72 -141 -166 -204.5t-233 -63.5
q-132 0 -232 71.5t-155 200.5v-256h-53v256q-44 -129 -148.5 -200.5t-246.5 -71.5q-130 0 -230 69.5t-153.5 190t-53.5 272.5zM934 516q0 206 -108.5 344.5t-282.5 138.5t-282.5 -138.5t-108.5 -344.5q0 -209 107.5 -346t283.5 -137t283.5 137t107.5 346zM985 578h762
q-5 196 -103 308.5t-268 112.5q-147 0 -260 -119t-131 -302z" />
    <glyph glyph-name="aeacute.ss01" horiz-adv-x="1898" 
d="M98 516q0 232 122 382.5t319 150.5q143 0 243.5 -75t147.5 -198v256h53v-262q55 130 161.5 204.5t231.5 74.5q189 0 306.5 -129.5t117.5 -335.5v-56h-817q0 -212 110.5 -353.5t276.5 -141.5q129 0 209 55t143 186l47 -22q-72 -141 -166 -204.5t-233 -63.5
q-132 0 -232 71.5t-155 200.5v-256h-53v256q-44 -129 -148.5 -200.5t-246.5 -71.5q-130 0 -230 69.5t-153.5 190t-53.5 272.5zM934 516q0 206 -108.5 344.5t-282.5 138.5t-282.5 -138.5t-108.5 -344.5q0 -209 107.5 -346t283.5 -137t283.5 137t107.5 346zM985 578h762
q-5 196 -103 308.5t-268 112.5q-147 0 -260 -119t-131 -302zM922 1147l120 262h82l-153 -262h-49z" />
    <glyph glyph-name="dcaron.ss02" horiz-adv-x="1273" 
d="M98 516q0 232 122 382.5t319 150.5q278 0 395 -283q-4 86 -4 121v563h53v-1450h-53v156l4 131q-38 -140 -146.5 -221.5t-252.5 -81.5q-130 0 -230 69.5t-153.5 190t-53.5 272.5zM934 516q0 206 -108.5 344.5t-282.5 138.5t-282.5 -138.5t-108.5 -344.5q0 -209 107.5 -346
t283.5 -137t283.5 137t107.5 346zM1116 1165l-14 27q112 57 112 156q-40 0 -64 20.5t-24 52.5q0 31 20 50.5t52 19.5q35 0 55.5 -22.5t20.5 -59.5q0 -84 -38.5 -142.5t-119.5 -101.5z" />
    <glyph glyph-name="uni0123.ss02" horiz-adv-x="948" 
d="M82 -111q0 71 38 136t95 104q-51 20 -80 62.5t-29 93.5q0 119 127 172q-88 94 -88 245q0 157 92.5 252t241.5 95q124 0 217 -72l174 98l25 -45l-162 -90q80 -92 80 -238q0 -157 -92.5 -251.5t-241.5 -94.5q-125 0 -213 70q-55 -20 -80.5 -54t-25.5 -87q0 -56 41 -90.5
t110 -34.5h285q126 0 205.5 -75t79.5 -198q0 -142 -111 -231q-113 -90 -289 -90q-187 0 -293 87t-106 236zM760 702q0 135 -78.5 216t-202.5 81t-202 -81t-78 -216t78 -215.5t202 -80.5q125 0 203 80.5t78 215.5zM831 -115q0 108 -66 167t-183 59h-273q-9 0 -41 4
q-60 -37 -98.5 -100.5t-38.5 -129.5q0 -126 92 -198t258 -72q160 0 255 73.5t95 196.5zM399 1239q0 78 42.5 142.5t115.5 103.5l12 -25q-44 -25 -75 -73t-31 -91q38 0 61 -20.5t23 -52.5q0 -31 -20 -51.5t-52 -20.5q-33 0 -54.5 24t-21.5 64z" />
    <glyph glyph-name="uni0137.ss02" horiz-adv-x="806" 
d="M160 0v1450h53v-883l461 465h76l-474 -473l506 -559h-73l-496 551v-551h-53zM377 -422l-15 27q113 58 113 155q-40 0 -64 21t-24 53q0 31 20 50.5t52 19.5q35 0 55.5 -22.5t20.5 -59.5q0 -84 -38.5 -142.5t-119.5 -101.5z" />
    <glyph glyph-name="lcaron.ss02" horiz-adv-x="503" 
d="M160 0v1450h53v-1450h-53zM346 1165l-14 27q112 57 112 156q-40 0 -64 20.5t-24 52.5q0 31 20 50.5t52 19.5q35 0 55.5 -22.5t20.5 -59.5q0 -84 -38.5 -142.5t-119.5 -101.5z" />
    <glyph glyph-name="uni013C.ss02" horiz-adv-x="372" 
d="M160 0v1450h53v-1450h-53zM115 -422l-15 27q113 58 113 155q-40 0 -64 21t-24 53q0 31 20 50.5t52 19.5q35 0 55 -22.5t20 -59.5q0 -84 -38 -142.5t-119 -101.5z" />
    <glyph glyph-name="uni0146.ss02" horiz-adv-x="1060" 
d="M160 0v1032h53v-246q49 129 144 196t225 67q155 0 237 -90.5t82 -262.5v-696h-53v692q0 152 -71 229.5t-208 77.5q-157 0 -256.5 -125.5t-99.5 -318.5v-555h-53zM461 -422l-15 27q113 58 113 155q-40 0 -64 21t-24 53q0 31 20 50.5t52 19.5q35 0 55 -22.5t20 -59.5
q0 -84 -38 -142.5t-119 -101.5z" />
    <glyph glyph-name="uni0157.ss02" horiz-adv-x="643" 
d="M160 0v1032h53v-180q41 96 111 146.5t163 50.5q59 0 123 -23l-16 -51q-47 24 -119 24q-107 0 -184.5 -100.5t-77.5 -249.5v-649h-53zM115 -422l-15 27q113 58 113 155q-40 0 -64 21t-24 53q0 31 20 50.5t52 19.5q35 0 55 -22.5t20 -59.5q0 -84 -38 -142.5t-119 -101.5z
" />
    <glyph glyph-name="uni0219.ss02" horiz-adv-x="827" 
d="M94 248l45 20q33 -121 101 -178t192 -57q106 0 177 65.5t71 177.5q0 181 -236 242q-138 37 -213 109.5t-75 173.5q0 114 76 181t192 67q179 0 268 -160l-39 -31q-77 141 -235 141q-90 0 -151.5 -54.5t-61.5 -147.5q0 -84 65 -141.5t197 -96.5q134 -39 200 -106.5
t66 -173.5q0 -131 -88.5 -213t-212.5 -82q-268 0 -338 264zM360 -422l-14 27q113 58 113 155q-40 0 -64 21t-24 53q0 31 19.5 50.5t51.5 19.5q35 0 55.5 -22.5t20.5 -59.5q0 -84 -38.5 -142.5t-119.5 -101.5z" />
    <glyph glyph-name="tcaron.ss02" horiz-adv-x="624" 
d="M211 252v731h-186v49h186v379l53 39v-418h283v-49h-283v-752q0 -102 40 -150t120 -48q71 0 127 35l16 -45q-67 -39 -147 -39q-209 0 -209 268zM524 1149l-14 27q113 58 113 155q-40 0 -64 21t-24 53q0 31 19.5 50.5t51.5 19.5q35 0 55.5 -22.5t20.5 -59.5
q0 -84 -38.5 -142.5t-119.5 -101.5z" />
    <glyph glyph-name="uni021B.ss02" horiz-adv-x="624" 
d="M211 252v731h-186v49h186v379l53 39v-418h283v-49h-283v-752q0 -102 40 -150t120 -48q71 0 127 35l16 -45q-67 -39 -147 -39q-209 0 -209 268zM340 -422l-14 27q112 57 112 155q-40 0 -64 21t-24 53q0 31 20 50.5t52 19.5q35 0 55.5 -22.5t20.5 -59.5q0 -84 -38.5 -142.5
t-119.5 -101.5z" />
    <glyph glyph-name="f_b" horiz-adv-x="1748" 
d="M815 287l4 -131v-156h-53v1401h-330q-89 0 -139.5 -59.5t-50.5 -178.5v-131h229v-49h-229v-983h-53v983h-168v49h168v125q0 144 65 218.5t178 74.5h383v-563q0 -35 -4 -121q120 283 395 283q197 0 319 -150.5t122 -382.5q0 -152 -53.5 -272.5t-153.5 -190t-230 -69.5
q-146 0 -252 80.5t-147 222.5zM1597 516q0 206 -108.5 344.5t-282.5 138.5q-113 0 -203 -65t-139 -175t-49 -243q0 -209 107.5 -346t283.5 -137t283.5 137t107.5 346z" />
    <glyph glyph-name="f_f_b" horiz-adv-x="2322" 
d="M1389 287l4 -131v-156h-54v1401h-329q-89 0 -140 -59.5t-51 -178.5v-131h230v-49h-230v-983h-53v983h-520v-983h-53v983h-168v49h168v125q0 144 65 218.5t178 74.5q66 0 119 -27l-14 -47q-48 25 -105 25q-89 0 -139.5 -59.5t-50.5 -178.5v-131h520v125q0 144 65.5 218.5
t178.5 74.5h383v-563q0 -35 -4 -121q120 283 395 283q197 0 318.5 -150.5t121.5 -382.5q0 -152 -53.5 -272.5t-153 -190t-229.5 -69.5q-146 0 -252 80.5t-147 222.5zM2171 516q0 206 -108.5 344.5t-282.5 138.5q-113 0 -203 -65t-139 -175t-49 -243q0 -209 107.5 -346
t283.5 -137t283.5 137t107.5 346z" />
    <glyph glyph-name="f_f_h" horiz-adv-x="2267" 
d="M193 0v983h-168v49h168v125q0 144 65 218.5t178 74.5q66 0 119 -27l-14 -47q-48 25 -105 25q-89 0 -139.5 -59.5t-50.5 -178.5v-131h520v125q0 144 65.5 218.5t178.5 74.5h383v-674q51 135 148 204t233 69q161 0 247 -90.5t86 -262.5v-696h-53v692q0 307 -293 307
q-163 0 -265.5 -125.5t-102.5 -318.5v-555h-54v1401h-329q-89 0 -140 -59.5t-51 -178.5v-131h230v-49h-230v-983h-53v983h-520v-983h-53z" />
    <glyph glyph-name="f_f_j" horiz-adv-x="1523" 
d="M1214 -434l-10 49q74 23 104.5 74t30.5 155v1139h-520v-983h-53v983h-520v-983h-53v983h-168v49h168v125q0 144 65 218.5t178 74.5q66 0 119 -27l-14 -47q-48 25 -105 25q-89 0 -139.5 -59.5t-50.5 -178.5v-131h520v64q0 165 99 259.5t247 94.5q134 0 248 -66l-10 -51
q-109 68 -238 68q-128 0 -210.5 -79t-82.5 -220v-70h574v-1171q0 -129 -41 -196.5t-138 -98.5z" />
    <glyph glyph-name="f_f_k" horiz-adv-x="1986" 
d="M193 0v983h-168v49h168v125q0 144 65 218.5t178 74.5q66 0 119 -27l-14 -47q-48 25 -105 25q-89 0 -139.5 -59.5t-50.5 -178.5v-131h520v125q0 144 65.5 218.5t178.5 74.5h383v-883l460 465h76l-473 -473l506 -559h-74l-495 551v-551h-54v1401h-329q-89 0 -140 -59.5
t-51 -178.5v-131h230v-49h-230v-983h-53v983h-520v-983h-53z" />
    <glyph glyph-name="f_h" horiz-adv-x="1693" 
d="M193 0v983h-168v49h168v125q0 144 65 218.5t178 74.5h383v-674q51 135 148 204t233 69q162 0 248 -91t86 -262v-696h-53v692q0 307 -293 307q-163 0 -266 -125.5t-103 -318.5v-555h-53v1401h-330q-89 0 -139.5 -59.5t-50.5 -178.5v-131h229v-49h-229v-983h-53z" />
    <glyph glyph-name="f_j" horiz-adv-x="950" 
d="M641 -434l-10 49q74 23 104.5 74t30.5 155v1139h-520v-983h-53v983h-168v49h168v64q0 165 99 259.5t247 94.5q133 0 247 -66l-10 -51q-109 68 -237 68t-210.5 -79t-82.5 -220v-70h573v-1171q0 -129 -40.5 -196.5t-137.5 -98.5z" />
    <glyph glyph-name="f_k" horiz-adv-x="1413" 
d="M193 0v983h-168v49h168v125q0 144 65 218.5t178 74.5h383v-883l461 465h76l-473 -473l506 -559h-74l-496 551v-551h-53v1401h-330q-89 0 -139.5 -59.5t-50.5 -178.5v-131h229v-49h-229v-983h-53z" />
    <glyph glyph-name="uni0414.loclBGR" horiz-adv-x="1427" 
d="M1223 49h123v-323h-54v274h-1157v-274h-53v323h125l477 1385h61zM260 49h909l-454 1321z" />
    <glyph glyph-name="uni041B.loclBGR" horiz-adv-x="1146" 
d="M25 0l522 1434h53l522 -1434h-61l-488 1360l-487 -1360h-61z" />
    <glyph glyph-name="uni0432.loclBGR" horiz-adv-x="999" 
d="M160 434v619q0 192 99.5 294.5t252.5 102.5q141 0 234.5 -97t93.5 -237q0 -130 -67 -222t-161 -120q124 -31 199.5 -132t75.5 -239q0 -205 -105 -313q-103 -106 -262 -106q-162 0 -261 113t-99 337zM213 795h266q141 0 224 89t83 232q0 124 -77.5 204.5t-196.5 80.5
q-132 0 -215.5 -91.5t-83.5 -256.5v-258zM834 403q0 153 -93.5 247.5t-246.5 94.5h-281v-309q0 -200 83.5 -301.5t223.5 -101.5q143 0 228.5 94t85.5 276z" />
    <glyph glyph-name="uni0433.loclBGR" horiz-adv-x="827" 
d="M94 268q0 109 66.5 178.5t199.5 112.5t198 99.5t65 138.5q0 93 -61.5 147.5t-151.5 54.5q-160 0 -236 -141l-39 31q89 160 268 160q116 0 192.5 -67t76.5 -181q0 -102 -74 -174t-215 -109q-236 -64 -236 -252q0 -107 71 -170t177 -63q124 0 192 57t101 178l45 -20
q-71 -264 -338 -264q-125 0 -213 78t-88 206z" />
    <glyph glyph-name="uni0434.loclBGR" horiz-adv-x="1142" 
d="M150 -123l51 8q32 -135 115 -202.5t241 -67.5q168 0 270.5 112t102.5 306v112q0 35 4 121q-117 -282 -399 -282q-130 0 -230 69.5t-153.5 190t-53.5 272.5t53.5 273t153.5 190.5t230 69.5q147 0 254 -78t145 -217l-4 123v155h53v-999q0 -215 -119.5 -341t-306.5 -126
q-177 0 -278.5 82t-128.5 229zM934 516q0 209 -107.5 346t-283.5 137t-283.5 -137t-107.5 -346q0 -206 108.5 -344.5t282.5 -138.5t282.5 138.5t108.5 344.5z" />
    <glyph glyph-name="uni0436.loclBGR" horiz-adv-x="1241" 
d="M25 0l505 559l-473 473h76l461 -465v883h53v-883l461 465h76l-473 -473l506 -559h-74l-496 551v-551h-53v551l-496 -551h-73z" />
    <glyph glyph-name="uni0437.loclBGR" horiz-adv-x="929" 
d="M82 -74l49 6q17 -146 105 -231.5t217 -85.5q150 0 239.5 96.5t89.5 261.5q0 170 -91.5 268.5t-229.5 98.5h-80v49h80q126 0 203 91.5t77 213.5q0 138 -75 221.5t-207 83.5q-111 0 -189 -70.5t-98 -191.5l-47 13q23 135 114 217t220 82q152 0 244 -98t92 -255
q0 -116 -68 -211q-64 -94 -154 -118q263 -95 263 -392q0 -182 -108 -295.5t-275 -113.5q-148 0 -252 98q-104 93 -119 262z" />
    <glyph glyph-name="uni0438.loclBGR" horiz-adv-x="1060" 
d="M160 336v696h53v-692q0 -152 71 -229.5t208 -77.5q156 0 256 125.5t100 318.5v555h53v-1032h-53v246q-49 -127 -146 -194.5t-223 -67.5q-155 0 -237 90t-82 262z" />
    <glyph glyph-name="uni0439.loclBGR" horiz-adv-x="1060" 
d="M160 336v696h53v-692q0 -152 71 -229.5t208 -77.5q156 0 256 125.5t100 318.5v555h53v-1032h-53v246q-49 -127 -146 -194.5t-223 -67.5q-155 0 -237 90t-82 262zM307 1434h53q0 -100 43.5 -155.5t126.5 -55.5t126.5 55.5t43.5 155.5h54q0 -119 -58.5 -189.5t-165.5 -70.5
t-165 70.5t-58 189.5z" />
    <glyph glyph-name="uni043A.loclBGR" horiz-adv-x="806" 
d="M160 0v1450h53v-883l461 465h76l-474 -473l506 -559h-73l-496 551v-551h-53z" />
    <glyph glyph-name="uni043B.loclBGR" horiz-adv-x="876" 
d="M33 0l381 1032h49l381 -1032h-56l-350 969l-350 -969h-55z" />
    <glyph glyph-name="uni043F.loclBGR" horiz-adv-x="1060" 
d="M160 0v1032h53v-246q49 129 144 196t225 67q155 0 237 -90.5t82 -262.5v-696h-53v692q0 152 -71 229.5t-208 77.5q-157 0 -256.5 -125.5t-99.5 -318.5v-555h-53z" />
    <glyph glyph-name="uni0442.loclBGR" horiz-adv-x="1576" 
d="M160 0v1032h53v-215q40 106 126 169t206 63q107 0 179 -63t85 -171q102 234 338 234q130 0 200 -84t70 -244v-721h-53v717q0 135 -59.5 208.5t-169.5 73.5q-122 0 -221 -111.5t-99 -271.5v-616h-53v717q0 136 -60.5 209t-169.5 73q-123 0 -221 -113t-98 -270v-616h-53z
" />
    <glyph glyph-name="uni0446.loclBGR" horiz-adv-x="1110" 
d="M995 -254v254h-147v246q-49 -127 -146 -194.5t-223 -67.5q-155 0 -237 90t-82 262v696h53v-692q0 -152 71 -229.5t208 -77.5q156 0 256 125.5t100 318.5v555h53v-983h148v-303h-54z" />
    <glyph glyph-name="uni0448.loclBGR" horiz-adv-x="1576" 
d="M160 311v721h53v-717q0 -135 59.5 -208.5t169.5 -73.5q122 0 221 111.5t99 271.5v616h53v-717q0 -136 60 -209t169 -73q123 0 221.5 113t98.5 270v616h53v-1032h-53v215q-39 -106 -125.5 -168.5t-206.5 -62.5q-107 0 -179 62.5t-85 170.5q-51 -118 -134 -175.5
t-204 -57.5q-130 0 -200 83.5t-70 243.5z" />
    <glyph glyph-name="uni0449.loclBGR" horiz-adv-x="1626" 
d="M1511 -254v254h-147v215q-39 -106 -125.5 -168.5t-206.5 -62.5q-107 0 -179 62.5t-85 170.5q-51 -118 -134 -175.5t-204 -57.5q-130 0 -200 83.5t-70 243.5v721h53v-717q0 -135 59.5 -208.5t169.5 -73.5q122 0 221 111.5t99 271.5v616h53v-717q0 -136 60 -209t169 -73
q123 0 221.5 113t98.5 270v616h53v-983h148v-303h-54z" />
    <glyph glyph-name="uni044C.loclBGR" horiz-adv-x="954" 
d="M160 324v708h53v-440q54 18 130 30.5t128 12.5q180 0 275.5 -81t95.5 -243q0 -140 -99 -233.5t-254 -93.5q-132 0 -233 84q-96 87 -96 256zM788 311q0 143 -81.5 209t-239.5 66q-123 0 -254 -43v-219q0 -141 77.5 -216t198.5 -75q133 0 216 77.5t83 200.5z" />
    <glyph glyph-name="uni044A.loclBGR" horiz-adv-x="1095" 
d="M315 324v659h-266v49h320v-436q54 18 130 30.5t128 12.5q179 0 274.5 -82t95.5 -244q0 -140 -98.5 -234.5t-253.5 -94.5q-132 0 -233 84q-97 88 -97 256zM944 313q0 144 -81.5 210.5t-239.5 66.5q-123 0 -254 -43v-223q0 -141 77.5 -216t198.5 -75q133 0 216 77.5
t83 202.5z" />
    </font>
</defs>
</svg>
