<?xml version="1.0" standalone="no"?>
<!DOCTYPE svg PUBLIC "-//W3C//DTD SVG 1.1//EN" "http://www.w3.org/Graphics/SVG/1.1/DTD/svg11.dtd" >
<svg xmlns="http://www.w3.org/2000/svg" xmlns:xlink="http://www.w3.org/1999/xlink" version="1.1">
<metadata>
Created by FontForge 20170731 at Sun Feb 14 19:15:02 2021
 By Aleksey,,,
Copyright (c) 2018 by Colophon Foundry. All rights reserved.
</metadata>
<defs>
<font id="ApercuPro-Medium" horiz-adv-x="1269" >
  <font-face 
    font-family="Apercu Pro Medium"
    font-weight="500"
    font-stretch="normal"
    units-per-em="2048"
    panose-1="2 11 6 3 5 6 1 4 1 3"
    ascent="1614"
    descent="-434"
    x-height="1032"
    cap-height="1434"
    bbox="-1343 -575 2376 2304"
    underline-thickness="126"
    underline-position="-454"
    unicode-range="U+000D-FB02"
  />
<missing-glyph horiz-adv-x="1271" 
d="M170 0v1434h932v-1434h-932zM381 188h510v1057h-510v-1057z" />
    <glyph glyph-name="f_f" unicode="ff" horiz-adv-x="1280" 
d="M162 0v844h-142v188h142v58q0 177 90 268.5t254 91.5q108 0 172 -37l-47 -178q-59 27 -117 27q-137 0 -137 -154v-76h379v58q0 177 91 268.5t255 91.5q105 0 172 -37l-47 -178q-64 27 -119 27q-135 0 -135 -154v-76h225v-188h-225v-844h-217v844h-379v-844h-215z" />
    <glyph glyph-name="f_f_i" unicode="ffi" horiz-adv-x="1677" 
d="M162 0v844h-142v188h142v58q0 177 90 268.5t254 91.5q108 0 172 -37l-47 -178q-59 27 -117 27q-137 0 -137 -154v-76h379v19q0 192 122.5 295.5t333.5 103.5q81 0 159 -16t128 -43l-61 -181q-101 52 -219 52q-114 0 -180 -55t-66 -152v-23h594v-1032h-215v844h-379v-844
h-217v844h-379v-844h-215z" />
    <glyph glyph-name="f_f_l" unicode="ffl" horiz-adv-x="1714" 
d="M162 0v844h-142v188h142v58q0 177 90 268.5t254 91.5q108 0 172 -37l-47 -178q-59 27 -117 27q-137 0 -137 -154v-76h379v58q0 177 91 268.5t255 91.5h465v-1450h-215v1262h-244q-135 0 -135 -154v-76h225v-188h-225v-844h-217v844h-379v-844h-215z" />
    <glyph glyph-name="f_i" unicode="fi" horiz-adv-x="1120" 
d="M162 0v844h-142v188h142v19q0 191 123 295t331 104q81 0 159 -16t128 -43l-59 -181q-101 52 -219 52q-116 0 -182 -54.5t-66 -152.5v-23h596v-1032h-217v844h-379v-844h-215z" />
    <glyph glyph-name="f_l" unicode="fl" horiz-adv-x="1120" 
d="M162 0v844h-142v188h142v58q0 177 90 268.5t254 91.5h467v-1450h-217v1262h-242q-137 0 -137 -154v-76h227v-188h-227v-844h-215z" />
    <glyph glyph-name=".notdef" horiz-adv-x="1271" 
d="M170 0v1434h932v-1434h-932zM381 188h510v1057h-510v-1057z" />
    <glyph glyph-name=".null" horiz-adv-x="0" 
 />
    <glyph glyph-name="nonmarkingreturn" horiz-adv-x="682" 
 />
    <glyph glyph-name="CR" unicode="&#xd;" horiz-adv-x="509" 
 />
    <glyph glyph-name="space" unicode=" " horiz-adv-x="509" 
 />
    <glyph glyph-name="exclam" unicode="!" horiz-adv-x="645" 
d="M233 461l-53 973h287l-55 -973h-179zM170 141q0 65 45 109.5t109 44.5q63 0 107 -45.5t44 -108.5t-44 -107t-107 -44q-66 0 -110 44t-44 107z" />
    <glyph glyph-name="quotedbl" unicode="&#x22;" horiz-adv-x="806" 
d="M152 952l-58 498h256l-57 -498h-141zM514 952l-57 498h256l-58 -498h-141z" />
    <glyph glyph-name="numbersign" unicode="#" horiz-adv-x="1357" 
d="M225 0l82 408h-235v174h272l53 270h-243v174h280l84 408h178l-84 -408h260l84 408h179l-84 -408h235v-174h-270l-55 -270h243v-174h-280l-82 -408h-178l84 408h-263l-82 -408h-178zM520 582h262l56 270h-263z" />
    <glyph glyph-name="dollar" unicode="$" horiz-adv-x="1073" 
d="M659 -6v-178h-210v178q-145 30 -246 136t-131 251l186 115q79 -301 299 -301q95 0 151 52.5t56 149.5q0 63 -37 109q-34 44 -85 75.5t-165 88.5l-37 18q-140 71 -212 162.5t-72 230.5q0 134 81 233t212 128v176h210v-180q187 -46 267 -236l-183 -117q-59 154 -204 154
q-69 0 -116.5 -43.5t-47.5 -105.5q0 -64 39 -109q36 -44 90.5 -76.5t161.5 -79.5q167 -77 247 -171t80 -246q0 -160 -90.5 -271.5t-243.5 -142.5z" />
    <glyph glyph-name="percent" unicode="%" horiz-adv-x="1728" 
d="M377 -70l-129 105l1104 1468l129 -102zM117 1122q0 139 95 233.5t237 94.5t236.5 -94.5t94.5 -233.5t-94.5 -233t-236.5 -94t-237 94t-95 233zM600 1122q0 70 -41.5 114t-109.5 44t-110 -44t-42 -114t42 -113.5t110 -43.5t109.5 43.5t41.5 113.5zM948 311q0 139 95 233.5
t237 94.5t237 -94.5t95 -233.5t-95 -233t-237 -94t-237 94t-95 233zM1432 311q0 70 -42 114t-110 44t-110 -44t-42 -114t42 -113.5t110 -43.5t110 43.5t42 113.5z" />
    <glyph glyph-name="ampersand" unicode="&#x26;" horiz-adv-x="1273" 
d="M78 414q0 147 76 261t200 181q-110 155 -110 289q0 133 92 219t235 86q148 0 237 -83t89 -204q0 -116 -68.5 -208t-185.5 -156l264 -344q56 103 107 258l129 -152q-42 -156 -109 -270l223 -291h-256l-98 127q-158 -143 -383 -143q-194 0 -318 116.5t-124 313.5zM698 1141
q0 56 -34 90.5t-93 34.5t-95 -36t-36 -93q0 -85 82 -191q176 82 176 195zM780 289l-313 413q-180 -103 -180 -286q0 -100 65.5 -166t169.5 -66q81 0 142 25t116 80z" />
    <glyph glyph-name="quotesingle" unicode="'" horiz-adv-x="444" 
d="M152 952l-58 498h256l-57 -498h-141z" />
    <glyph glyph-name="parenleft" unicode="(" horiz-adv-x="550" 
d="M98 717q0 269 58 452q59 189 159 367h195q-101 -177 -149 -372.5t-48 -446.5q0 -262 47 -455q51 -194 150 -364h-195q-100 178 -159 364q-58 186 -58 455z" />
    <glyph glyph-name="parenright" unicode=")" horiz-adv-x="550" 
d="M238 717q0 251 -48 446.5t-149 372.5h195q99 -175 159 -369q58 -183 58 -450t-58 -453q-60 -191 -159 -366h-195q99 170 147 364q50 192 50 455z" />
    <glyph glyph-name="asterisk" unicode="*" horiz-adv-x="993" 
d="M350 709l-151 110l149 203l-242 82l60 174l242 -80v252h180v-252l241 80l58 -174l-242 -82l150 -203l-150 -110l-147 204z" />
    <glyph glyph-name="plus" unicode="+" horiz-adv-x="1206" 
d="M508 182v373h-371v188h371v373h190v-373h373v-188h-373v-373h-190z" />
    <glyph glyph-name="comma" unicode="," horiz-adv-x="532" 
d="M51 -242l127 492h297l-260 -492h-164z" />
    <glyph glyph-name="hyphen" unicode="-" horiz-adv-x="1009" 
d="M137 555v188h735v-188h-735z" />
    <glyph glyph-name="period" unicode="." horiz-adv-x="534" 
d="M117 141q0 66 41.5 109t107.5 43t110 -43t44 -109t-44 -108.5t-110 -42.5q-64 0 -106.5 43t-42.5 108z" />
    <glyph glyph-name="slash" unicode="/" horiz-adv-x="1118" 
d="M6 -102l893 1638h213l-893 -1638h-213z" />
    <glyph glyph-name="zero" unicode="0" horiz-adv-x="1247" 
d="M106 717q0 347 135 540t384 193t383.5 -193t134.5 -540t-134.5 -540t-383.5 -193t-384 193t-135 540zM926 717q0 255 -77 393.5t-224 138.5q-148 0 -224.5 -138t-76.5 -394t76.5 -394.5t224.5 -138.5q147 0 224 138.5t77 394.5z" />
    <glyph glyph-name="one" unicode="1" horiz-adv-x="749" 
d="M360 0v1120l-262 -159v237l394 236h88v-1434h-220z" />
    <glyph glyph-name="two" unicode="2" horiz-adv-x="1036" 
d="M57 0v86l514 666q73 92 100 153t27 133q0 99 -52 155t-148 56q-86 0 -143 -58t-70 -161l-203 39q12 165 130 273t290 108q190 0 303 -110.5t113 -295.5q0 -170 -140 -354l-375 -489h547v-201h-893z" />
    <glyph glyph-name="three" unicode="3" horiz-adv-x="1122" 
d="M90 395l211 29q24 -115 88 -177.5t168 -62.5q118 0 187 73t69 198q0 132 -68 205t-186 73q-69 0 -125 -33l-90 125l299 408h-485v201h800v-74l-352 -473q46 4 56 4q164 0 267 -119.5t103 -314.5q0 -212 -132 -342.5t-343 -130.5q-191 0 -319.5 113.5t-147.5 297.5z" />
    <glyph glyph-name="four" unicode="4" horiz-adv-x="1150" 
d="M707 0v285h-621v102l604 1047h236v-949h170v-200h-170v-285h-219zM358 485h349v627z" />
    <glyph glyph-name="five" unicode="5" horiz-adv-x="1064" 
d="M88 375l207 39q40 -230 242 -230q116 0 177.5 75.5t61.5 213.5q0 137 -63.5 211t-180.5 74q-79 0 -149 -40t-123 -110l-141 29l78 797h716v-201h-534l-37 -350q94 67 225 67q205 0 317.5 -127.5t112.5 -349.5q0 -216 -127 -352.5t-333 -136.5q-185 0 -307 105t-142 286z
" />
    <glyph glyph-name="six" unicode="6" horiz-adv-x="1118" 
d="M90 451q0 138 76 268l416 731h239l-313 -543q33 11 63 11q196 0 326.5 -132t130.5 -335q0 -199 -133.5 -333t-335.5 -134q-199 0 -334 134.5t-135 332.5zM809 451q0 121 -70 193.5t-180 72.5t-180 -72.5t-70 -193.5q0 -117 71.5 -192t178.5 -75q109 0 179.5 74.5
t70.5 192.5z" />
    <glyph glyph-name="seven" unicode="7" horiz-adv-x="972" 
d="M145 0l508 1233h-587v201h845v-86l-549 -1348h-217z" />
    <glyph glyph-name="eight" unicode="8" horiz-adv-x="1099" 
d="M94 420q0 122 54 214.5t147 137.5q-70 50 -109 126t-39 167q0 163 114.5 274t287.5 111q175 0 289 -111t114 -274q0 -91 -39.5 -167t-109.5 -126q95 -45 149 -137.5t54 -214.5q0 -196 -133 -316t-324 -120q-125 0 -227.5 52t-165 152.5t-62.5 231.5zM745 1061
q0 93 -53 148t-143 55q-88 0 -142.5 -55.5t-54.5 -147.5t54.5 -148.5t142.5 -56.5t142 56.5t54 148.5zM786 420q0 109 -65.5 172t-171.5 63t-171 -63t-65 -172t65 -172.5t171 -63.5t171.5 63.5t65.5 172.5z" />
    <glyph glyph-name="nine" unicode="9" horiz-adv-x="1118" 
d="M297 -16l313 542q-30 -10 -63 -10q-196 0 -326.5 132t-130.5 335q0 199 133.5 333t335.5 134q199 0 334 -134.5t135 -332.5q0 -133 -72 -256l-419 -743h-240zM809 983q0 117 -71.5 191.5t-178.5 74.5t-178.5 -74.5t-71.5 -191.5q0 -121 70 -193.5t180 -72.5t180 72.5
t70 193.5z" />
    <glyph glyph-name="colon" unicode=":" horiz-adv-x="532" 
d="M115 868q0 66 42.5 109t108.5 43t109 -43t43 -109q0 -64 -43.5 -107.5t-108.5 -43.5q-66 0 -108.5 42.5t-42.5 108.5zM115 141q0 66 42.5 109t108.5 43t109 -43t43 -109q0 -64 -43.5 -107.5t-108.5 -43.5q-66 0 -108.5 42.5t-42.5 108.5z" />
    <glyph glyph-name="semicolon" unicode=";" horiz-adv-x="532" 
d="M174 868q0 66 42 109t108 43t109.5 -43t43.5 -109t-43.5 -108.5t-109.5 -42.5q-64 0 -107 43t-43 108zM51 -242l127 492h297l-260 -492h-164z" />
    <glyph glyph-name="less" unicode="&#x3c;" horiz-adv-x="985" 
d="M868 127l-766 403v209l766 404v-228l-534 -280l534 -281v-227z" />
    <glyph glyph-name="equal" unicode="=" horiz-adv-x="1136" 
d="M137 725v188h864v-188h-864zM137 365v188h864v-188h-864z" />
    <glyph glyph-name="greater" unicode="&#x3e;" horiz-adv-x="985" 
d="M117 127v227l534 281l-534 280v228l766 -404v-209z" />
    <glyph glyph-name="question" unicode="?" horiz-adv-x="927" 
d="M197 684q0 95 55 158.5t170 115.5q123 54 166 91.5t43 91.5q0 60 -41.5 92.5t-112.5 32.5q-142 0 -190 -160l-197 33q27 142 128.5 226.5t258.5 84.5q164 0 262.5 -85.5t98.5 -227.5q0 -103 -61.5 -167.5t-211.5 -129.5q-110 -47 -147 -79.5t-37 -82.5q0 -38 25 -62
t63 -24q94 0 131 106l156 -59q-32 -103 -106.5 -158t-178.5 -55q-120 0 -197 70.5t-77 187.5zM319 141q0 65 44.5 109.5t107.5 44.5q66 0 110 -44t44 -110q0 -63 -44 -107t-110 -44q-63 0 -107.5 44t-44.5 107z" />
    <glyph glyph-name="at" unicode="@" horiz-adv-x="1855" 
d="M123 616q-2 154 39.5 290t118 239t181 177.5t233 112t268.5 35.5q359 0 564.5 -203t205.5 -546q0 -231 -105 -365.5t-272 -134.5q-77 0 -138 42t-85 106q-112 -148 -275 -148q-166 0 -263 106t-97 279q0 190 122 320.5t316 130.5q137 0 217 -92l25 77h151l-43 -477
l-4 -55q0 -109 90 -109q74 0 112 86.5t38 241.5q0 268 -152 414.5t-418 146.5q-119 2 -230 -44t-198 -130t-138.5 -214.5t-49.5 -285.5q-2 -116 31 -218.5t92 -176.5t138 -128t169 -80t184 -25q131 0 242 25.5t250 95.5l69 -170q-165 -78 -274 -101q-130 -31 -287 -31
q-235 -3 -425.5 101t-297.5 290.5t-104 417.5zM1106 678q0 94 -47.5 146.5t-134.5 52.5q-95 0 -157 -78.5t-62 -202.5q0 -95 42.5 -145t126.5 -50q99 0 165.5 80t66.5 197z" />
    <glyph glyph-name="A" unicode="A" horiz-adv-x="1255" 
d="M23 0l493 1434h223l496 -1434h-244l-114 358h-496l-117 -358h-241zM446 569h363l-180 564z" />
    <glyph glyph-name="B" unicode="B" horiz-adv-x="1257" 
d="M170 0v1434h506q191 0 298 -99t107 -282q0 -93 -40.5 -164t-110.5 -107q108 -42 166.5 -132t58.5 -224q0 -201 -123 -313.5t-340 -112.5h-522zM397 862h269q98 0 146 43.5t48 136.5q0 95 -48.5 138t-149.5 43h-265v-361zM397 211h271q133 0 196.5 54t63.5 165
q0 113 -63.5 167t-196.5 54h-271v-440z" />
    <glyph glyph-name="C" unicode="C" horiz-adv-x="1431" 
d="M98 717q-2 137 32.5 256t97 206t146.5 149t183 92.5t205 29.5q225 0 375.5 -112t201.5 -314l-206 -55q-91 270 -371 270q-191 0 -311.5 -136.5t-120.5 -385.5t120.5 -385.5t311.5 -136.5q280 0 371 270l206 -55q-51 -202 -201.5 -314t-375.5 -112q-106 -1 -205 29.5
t-183 92.5t-146.5 149t-97 206t-32.5 256z" />
    <glyph glyph-name="D" unicode="D" horiz-adv-x="1357" 
d="M170 0v1434h428q106 1 204 -27.5t182 -88.5t146 -144.5t97 -202t33 -254.5q2 -137 -33 -254.5t-97 -202t-146 -144.5t-182 -88.5t-204 -27.5h-428zM397 211h142q208 0 348 119q141 120 141 387q0 270 -141 387q-137 119 -348 119h-142v-1012z" />
    <glyph glyph-name="E" unicode="E" horiz-adv-x="1159" 
d="M170 0v1434h864v-211h-637v-355h514v-209h-514v-448h658v-211h-885z" />
    <glyph glyph-name="F" unicode="F" horiz-adv-x="1118" 
d="M170 0v1434h883v-211h-656v-377h531v-211h-531v-635h-227z" />
    <glyph glyph-name="G" unicode="G" horiz-adv-x="1470" 
d="M98 717q0 172 54 313t146.5 231.5t212 139.5t253.5 49q222 0 374 -118t210 -324l-211 -56q-52 139 -146 213t-227 74q-197 0 -315.5 -137t-118.5 -385q0 -252 117 -387t313 -135q160 0 250.5 90.5t101.5 244.5h-285v193h506v-723h-190l-23 174q-53 -88 -148 -139
t-222 -51q-132 -2 -250 47t-208.5 140t-143 232.5t-50.5 313.5z" />
    <glyph glyph-name="H" unicode="H" horiz-adv-x="1413" 
d="M170 0v1434h227v-564h621v564h225v-1434h-225v659h-621v-659h-227z" />
    <glyph glyph-name="I" unicode="I" horiz-adv-x="567" 
d="M170 0v1434h227v-1434h-227z" />
    <glyph glyph-name="J" unicode="J" horiz-adv-x="1075" 
d="M53 352l226 49q38 -206 204 -206q215 0 215 260v979h228v-955q0 -252 -114 -373.5t-329 -121.5q-180 0 -293 99t-137 269z" />
    <glyph glyph-name="K" unicode="K" horiz-adv-x="1257" 
d="M170 0v1434h227v-557l510 557h281l-584 -641l629 -793h-287l-549 707v-707h-227z" />
    <glyph glyph-name="L" unicode="L" horiz-adv-x="1097" 
d="M170 0v1434h227v-1223h627v-211h-854z" />
    <glyph glyph-name="M" unicode="M" horiz-adv-x="1587" 
d="M170 0v1434h260l365 -951l364 951h258v-1434h-225v971l-318 -840h-159l-318 840v-971h-227z" />
    <glyph glyph-name="N" unicode="N" horiz-adv-x="1392" 
d="M170 0v1434h244l581 -1028v1028h228v-1434h-244l-582 1026v-1026h-227z" />
    <glyph glyph-name="O" unicode="O" horiz-adv-x="1519" 
d="M98 717q-2 171 50.5 312t143.5 232.5t211.5 141t256.5 47.5q136 2 256.5 -47.5t211.5 -141t143 -232.5t50 -312q2 -171 -50 -312t-143 -232.5t-211.5 -141t-256.5 -47.5q-136 -2 -256.5 47.5t-211.5 141t-143.5 232.5t-50.5 312zM1190 717q0 251 -120.5 386.5
t-309.5 135.5t-309.5 -135.5t-120.5 -386.5t120.5 -386.5t309.5 -135.5t309.5 135.5t120.5 386.5z" />
    <glyph glyph-name="P" unicode="P" horiz-adv-x="1208" 
d="M170 0v1434h524q208 0 323.5 -114.5t115.5 -309.5t-115.5 -309.5t-323.5 -114.5h-297v-586h-227zM397 797h291q104 0 158.5 54.5t54.5 158.5t-54.5 158.5t-158.5 54.5h-291v-426z" />
    <glyph glyph-name="Q" unicode="Q" horiz-adv-x="1519" 
d="M98 717q-2 171 50.5 312t143.5 232.5t211.5 141t256.5 47.5q136 2 256.5 -47.5t211.5 -141t143 -232.5t50 -312q0 -264 -116 -441l137 -135l-158 -157l-127 127q-168 -127 -397 -127q-136 -2 -256.5 47.5t-211.5 141t-143.5 232.5t-50.5 312zM999 266l-176 178l158 156
l154 -156q55 113 55 273q0 251 -120.5 386.5t-309.5 135.5t-309.5 -135.5t-120.5 -386.5t120.5 -386.5t309.5 -135.5q136 0 239 71z" />
    <glyph glyph-name="R" unicode="R" horiz-adv-x="1284" 
d="M170 0v1434h504q203 0 315.5 -105t112.5 -289q0 -148 -73 -246t-208 -130l412 -664h-254l-404 645h-178v-645h-227zM397 856h277q96 0 148 46t52 138q0 183 -200 183h-277v-367z" />
    <glyph glyph-name="S" unicode="S" horiz-adv-x="1073" 
d="M72 381l186 115q79 -301 299 -301q95 0 151 52.5t56 149.5q0 63 -37 109q-34 44 -85 75.5t-165 88.5l-37 18q-140 71 -212 162.5t-72 230.5q0 157 109 263t274 106q279 0 387 -248l-183 -117q-59 154 -204 154q-69 0 -116.5 -43.5t-47.5 -105.5q0 -64 39 -109
q36 -44 90.5 -76.5t161.5 -79.5q167 -77 247 -171t80 -246q0 -190 -123.5 -307t-318.5 -117q-181 0 -312.5 113t-166.5 284z" />
    <glyph glyph-name="T" unicode="T" horiz-adv-x="1148" 
d="M461 0v1223h-408v211h1043v-211h-408v-1223h-227z" />
    <glyph glyph-name="U" unicode="U" horiz-adv-x="1345" 
d="M152 518v916h227v-922q0 -153 75 -235t220 -82t219 81.5t74 235.5v922h227v-916q0 -257 -140.5 -395.5t-379.5 -138.5q-240 0 -381 138.5t-141 395.5z" />
    <glyph glyph-name="V" unicode="V" horiz-adv-x="1251" 
d="M510 0l-487 1434h247l355 -1115l356 1115h248l-488 -1434h-231z" />
    <glyph glyph-name="W" unicode="W" horiz-adv-x="1824" 
d="M401 0l-378 1434h239l264 -1106l287 954h199l286 -954l265 1106h239l-379 -1434h-231l-281 913l-278 -913h-232z" />
    <glyph glyph-name="X" unicode="X" horiz-adv-x="1208" 
d="M29 0l450 778l-377 656h248l254 -441l252 441h250l-379 -656l453 -778h-252l-324 561l-323 -561h-252z" />
    <glyph glyph-name="Y" unicode="Y" horiz-adv-x="1105" 
d="M440 0v614l-420 820h248l285 -594l285 594h247l-419 -820v-614h-226z" />
    <glyph glyph-name="Z" unicode="Z" horiz-adv-x="1140" 
d="M78 0v106l651 1117h-618v211h927v-107l-645 -1116h670v-211h-985z" />
    <glyph glyph-name="bracketleft" unicode="[" horiz-adv-x="653" 
d="M170 -102v1638h440v-188h-231v-1262h231v-188h-440z" />
    <glyph glyph-name="backslash" unicode="\" horiz-adv-x="1118" 
d="M899 -102l-893 1638h213l893 -1638h-213z" />
    <glyph glyph-name="bracketright" unicode="]" horiz-adv-x="653" 
d="M45 -102v188h229v1262h-229v188h438v-1638h-438z" />
    <glyph glyph-name="asciicircum" unicode="^" horiz-adv-x="1091" 
d="M61 842l394 592h182l393 -592h-215l-268 401l-271 -401h-215z" />
    <glyph glyph-name="underscore" unicode="_" horiz-adv-x="1015" 
d="M55 -188v188h906v-188h-906z" />
    <glyph glyph-name="grave" unicode="`" horiz-adv-x="501" 
d="M309 1135l-278 311h299l139 -311h-160z" />
    <glyph glyph-name="a" unicode="a" horiz-adv-x="1058" 
d="M94 297q0 158 119 248t324 90h180v45q0 89 -53 134.5t-144 45.5q-151 0 -198 -139l-189 43q25 128 131.5 206.5t255.5 78.5q194 0 303 -106.5t109 -305.5v-637h-174l-29 139q-113 -155 -319 -155q-141 0 -228.5 82.5t-87.5 230.5zM717 432v27h-172q-226 0 -226 -160
q0 -57 39.5 -92t102.5 -35q101 0 178.5 70.5t77.5 189.5z" />
    <glyph glyph-name="b" unicode="b" horiz-adv-x="1193" 
d="M365 115v-62v-53h-218v1450h218v-465v-61q42 55 117 90t155 35q222 0 344.5 -144t122.5 -389t-122.5 -388.5t-344.5 -143.5q-88 0 -164.5 39t-107.5 92zM879 516q0 158 -73.5 251t-195.5 93q-119 0 -192.5 -93.5t-73.5 -250.5t73.5 -250.5t192.5 -93.5q122 0 195.5 93
t73.5 251z" />
    <glyph glyph-name="c" unicode="c" horiz-adv-x="1110" 
d="M90 516q0 149 55 268t167.5 192t267.5 73q165 0 280 -74t172 -217l-192 -80q-83 182 -260 182q-126 0 -195.5 -93.5t-69.5 -250.5t69.5 -250.5t195.5 -93.5q91 0 154 45t106 137l192 -78q-57 -143 -172 -217.5t-280 -74.5q-155 0 -267.5 72.5t-167.5 191.5t-55 268z" />
    <glyph glyph-name="d" unicode="d" horiz-adv-x="1193" 
d="M90 516q0 242 119 385q121 148 334 148q90 0 166 -34t120 -91v61v465h218v-1450h-218v57v62q-32 -57 -111 -96t-175 -39q-213 0 -334 145q-119 146 -119 387zM850 516q0 158 -72 251t-194 93q-120 0 -194.5 -93.5t-74.5 -250.5t74.5 -250.5t194.5 -93.5q122 0 194 93
t72 251z" />
    <glyph glyph-name="e" unicode="e" horiz-adv-x="1136" 
d="M1047 549v-90h-736q14 -135 86 -211t187 -76q93 0 155.5 42t114.5 136l178 -69q-68 -151 -179.5 -224t-279.5 -73q-115 0 -208.5 44.5t-152.5 119t-90.5 169.5t-31.5 199t31.5 199t90.5 170t152.5 119.5t208.5 44.5q112 0 204 -42t149.5 -113t89 -159.5t31.5 -185.5z
M322 635h503q-20 104 -83.5 164.5t-168.5 60.5q-93 0 -160 -58.5t-91 -166.5z" />
    <glyph glyph-name="f" unicode="f" horiz-adv-x="684" 
d="M162 0v844h-142v188h142v58q0 177 90 268.5t254 91.5q108 0 172 -37l-47 -178q-59 27 -117 27q-137 0 -137 -154v-76h227v-188h-227v-844h-215z" />
    <glyph glyph-name="g" unicode="g" horiz-adv-x="1026" 
d="M70 -94q0 132 90 209q-62 59 -62 161q0 67 33.5 121t93.5 86q-73 94 -73 217q0 156 106 252.5t264 96.5q104 0 187 -45l190 102l88 -150l-145 -75q51 -77 51 -181q0 -155 -106 -249.5t-265 -94.5q-88 0 -164 31q-59 -30 -59 -88q0 -41 28.5 -62.5t78.5 -21.5h227
q162 0 254 -76t92 -217q0 -178 -131 -266q-134 -90 -324 -90q-207 0 -330.5 90.5t-123.5 249.5zM688 700q0 77 -46.5 124.5t-119.5 47.5t-119.5 -47.5t-46.5 -124.5q0 -74 47 -121t119 -47t119 47t47 121zM764 -94q0 67 -44 97t-132 30h-160q-71 0 -115 8q-43 -43 -43 -123
q0 -79 67.5 -123.5t186.5 -44.5q112 0 176 41t64 115z" />
    <glyph glyph-name="h" unicode="h" horiz-adv-x="1173" 
d="M147 0v1450h218v-602q51 94 141.5 147.5t198.5 53.5q153 0 237 -83t84 -237v-729h-217v662q0 198 -172 198q-113 0 -192.5 -113.5t-79.5 -308.5v-438h-218z" />
    <glyph glyph-name="i" unicode="i" horiz-adv-x="512" 
d="M147 0v1032h218v-1032h-218zM111 1329q0 62 41 104t104 42t105 -42t42 -104t-42 -103.5t-105 -41.5t-104 41.5t-41 103.5z" />
    <glyph glyph-name="j" unicode="j" horiz-adv-x="512" 
d="M-14 -434l-54 192q114 30 164.5 90.5t50.5 180.5v1003h218v-989q0 -207 -92 -320.5t-287 -156.5zM111 1329q0 62 41 104t104 42t105 -42t42 -104t-42 -103.5t-105 -41.5t-104 41.5t-41 103.5z" />
    <glyph glyph-name="k" unicode="k" horiz-adv-x="1042" 
d="M147 0v1450h218v-838l364 420h266l-422 -475l453 -557h-266l-395 504v-504h-218z" />
    <glyph glyph-name="l" unicode="l" horiz-adv-x="512" 
d="M147 0v1450h218v-1450h-218z" />
    <glyph glyph-name="m" unicode="m" horiz-adv-x="1728" 
d="M147 0v1032h218v-180q117 197 305 197q107 0 181.5 -55.5t104.5 -162.5q56 101 141 159.5t181 58.5q147 0 225 -84t78 -240v-725h-215v690q0 87 -35.5 128.5t-109.5 41.5q-108 0 -178 -117.5t-70 -324.5v-418h-215v690q0 87 -36 128.5t-110 41.5q-111 0 -179 -121.5
t-68 -337.5v-401h-218z" />
    <glyph glyph-name="n" unicode="n" horiz-adv-x="1159" 
d="M147 0v1032h218v-180q58 92 144 144.5t185 52.5q145 0 231.5 -84.5t86.5 -235.5v-729h-215v672q0 93 -43.5 140.5t-124.5 47.5q-111 0 -187.5 -119t-76.5 -317v-424h-218z" />
    <glyph glyph-name="o" unicode="o" horiz-adv-x="1204" 
d="M90 516q0 148 61 268.5t179 192.5t272 72q153 0 271 -72t179.5 -192.5t61.5 -268.5t-61.5 -268.5t-179 -192t-271.5 -71.5t-272 71.5t-179 192t-61 268.5zM887 516q0 143 -76 244q-75 100 -209 100q-136 0 -211 -100q-76 -101 -76 -244t76 -244q75 -100 211 -100
q134 0 209 100q76 101 76 244z" />
    <glyph glyph-name="p" unicode="p" horiz-adv-x="1193" 
d="M147 -418v1450h218v-57v-62q32 57 107.5 96.5t164.5 39.5q222 0 344.5 -144t122.5 -389t-122.5 -388.5t-344.5 -143.5q-80 0 -157 36t-115 91v-62v-467h-218zM879 516q0 158 -73.5 251t-195.5 93q-119 0 -192.5 -93.5t-73.5 -250.5t73.5 -250.5t192.5 -93.5
q122 0 195.5 93t73.5 251z" />
    <glyph glyph-name="q" unicode="q" horiz-adv-x="1193" 
d="M829 -418v467v62q-42 -57 -115.5 -92t-156.5 -35q-222 0 -344.5 143.5t-122.5 388.5t122.5 389t344.5 144q89 0 165 -38.5t107 -92.5v61v53h218v-1450h-218zM850 516q0 158 -72 251t-194 93q-120 0 -194.5 -93.5t-74.5 -250.5t74.5 -250.5t194.5 -93.5q122 0 194 93
t72 251z" />
    <glyph glyph-name="r" unicode="r" horiz-adv-x="831" 
d="M147 0v1032h218v-172q50 91 130 140t175 49q56 0 133 -25l-41 -201q-54 31 -119 31q-126 0 -202 -121.5t-76 -355.5v-377h-218z" />
    <glyph glyph-name="s" unicode="s" horiz-adv-x="897" 
d="M78 264l174 92q64 -184 223 -184q61 0 99 33t38 92q0 51 -51 88t-166 82q-126 46 -188 116.5t-62 182.5q0 120 90.5 201.5t225.5 81.5q215 0 311 -166l-133 -121q-64 98 -176 98q-50 0 -82.5 -27t-32.5 -71q0 -45 47 -80t170 -82q252 -88 252 -291q0 -149 -93.5 -237
t-248.5 -88q-154 0 -258.5 78.5t-138.5 201.5z" />
    <glyph glyph-name="t" unicode="t" horiz-adv-x="741" 
d="M186 344v500h-166v188h166v281l217 137v-418h275v-188h-275v-504q0 -89 34.5 -128.5t103.5 -39.5q61 0 108 27l51 -179q-71 -36 -170 -36q-164 0 -254 91.5t-90 268.5z" />
    <glyph glyph-name="u" unicode="u" horiz-adv-x="1159" 
d="M147 303v729h218v-670q0 -190 165 -190q114 0 190.5 119t76.5 317v424h215v-1032h-215v180q-61 -92 -147.5 -144t-184.5 -52q-145 0 -231.5 84t-86.5 235z" />
    <glyph glyph-name="v" unicode="v" horiz-adv-x="958" 
d="M379 0l-350 1032h219l231 -762l232 762h219l-350 -1032h-201z" />
    <glyph glyph-name="w" unicode="w" horiz-adv-x="1468" 
d="M348 0l-323 1032h219l200 -751l189 751h203l188 -751l201 751h219l-324 -1032h-196l-189 721l-190 -721h-197z" />
    <glyph glyph-name="x" unicode="x" horiz-adv-x="950" 
d="M16 0l344 555l-297 477h230l182 -295l184 295h228l-295 -477l344 -555h-227l-234 371l-233 -371h-226z" />
    <glyph glyph-name="y" unicode="y" horiz-adv-x="980" 
d="M743 1032h218l-527 -1450h-209l168 469l-373 981h220l256 -692z" />
    <glyph glyph-name="z" unicode="z" horiz-adv-x="913" 
d="M66 0v88l471 756h-441v188h711v-90l-465 -754h492v-188h-768z" />
    <glyph glyph-name="braceleft" unicode="{" horiz-adv-x="624" 
d="M225 104v351q0 94 -36 131t-128 37v188q92 0 128 37t36 131v350q0 94 55 150.5t146 56.5h154v-188h-58q-49 0 -68.5 -21.5t-19.5 -75.5v-333q0 -100 -34.5 -143.5t-110.5 -57.5q76 -14 110.5 -57.5t34.5 -143.5v-334q0 -54 19.5 -75t68.5 -21h58v-188h-154q-91 0 -146 56
t-55 150z" />
    <glyph glyph-name="bar" unicode="|" horiz-adv-x="550" 
d="M170 -102v1638h211v-1638h-211z" />
    <glyph glyph-name="braceright" unicode="}" horiz-adv-x="624" 
d="M45 -102v188h57q50 0 69 21t19 75v334q0 100 35 143.5t111 57.5q-76 14 -111 57.5t-35 143.5v333q0 54 -19.5 75.5t-68.5 21.5h-57v188h154q91 0 145.5 -56.5t54.5 -150.5v-350q0 -94 36 -131t128 -37v-188q-92 0 -128 -37t-36 -131v-351q0 -94 -54.5 -150t-145.5 -56
h-154z" />
    <glyph glyph-name="asciitilde" unicode="~" horiz-adv-x="1175" 
d="M575 575q-59 31 -97 43.5t-83 12.5q-106 0 -186 -101l-117 123q44 90 123.5 148.5t167.5 58.5q56 0 100 -13.5t117 -49.5q59 -31 97 -43.5t83 -12.5q111 0 187 101l116 -123q-44 -90 -123 -148.5t-167 -58.5q-56 0 -101 14t-117 49z" />
    <glyph glyph-name="uni00A0" unicode="&#xa0;" horiz-adv-x="509" 
 />
    <glyph glyph-name="exclamdown" unicode="&#xa1;" horiz-adv-x="645" 
d="M170 874q0 64 44 108t110 44q63 0 107 -44.5t44 -107.5t-44 -108t-107 -45t-108.5 45t-45.5 108zM180 -418l53 973h179l55 -973h-287z" />
    <glyph glyph-name="cent" unicode="&#xa2;" horiz-adv-x="1110" 
d="M475 -102v297q-185 34 -287 178q-98 143 -98 344t98 344q104 146 287 180v295h211v-295q252 -44 346 -283l-192 -79q-43 92 -106 137t-154 45q-126 0 -195.5 -93.5t-69.5 -250.5t69.5 -250.5t195.5 -93.5q91 0 154 45t106 137l192 -78q-94 -241 -346 -282v-297h-211z" />
    <glyph glyph-name="sterling" unicode="&#xa3;" horiz-adv-x="1116" 
d="M205 -16l-129 143q116 110 169.5 197t53.5 186q0 61 -25 141h-168v189h111q-41 112 -41 188q0 187 115 304.5t303 117.5q150 0 256 -74.5t156 -210.5l-183 -86q-38 86 -94 127t-135 41q-89 0 -145 -60t-56 -169q0 -87 27 -178h348v-189h-289q10 -65 10 -108
q0 -204 -163 -348q96 59 192 59q58 0 131 -39q62 -33 109 -33q52 0 87.5 27t78.5 104l151 -94q-68 -124 -144.5 -179.5t-180.5 -55.5q-47 0 -82 9.5t-90 33.5q-74 39 -140 39q-63 0 -112 -18t-121 -64z" />
    <glyph glyph-name="currency" unicode="&#xa4;" horiz-adv-x="1159" 
d="M223 98l-174 174l182 140q-59 95 -59 217t59 217l-182 139l174 174l139 -180q92 63 218 63q125 0 217 -63l139 180l174 -174l-182 -139q59 -95 59 -217t-59 -217l182 -140l-174 -174l-139 181q-94 -64 -217 -64q-124 0 -218 64zM780 629q0 99 -54 159t-146 60t-147.5 -60
t-55.5 -159t55.5 -159t147.5 -60t146 60t54 159z" />
    <glyph glyph-name="yen" unicode="&#xa5;" horiz-adv-x="1079" 
d="M426 0v268h-303v189h303v157h-303v189h211l-314 631h248l273 -592l270 592h250l-316 -631h213v-189h-305v-157h305v-189h-305v-268h-227z" />
    <glyph glyph-name="brokenbar" unicode="&#xa6;" horiz-adv-x="550" 
d="M170 821v715h211v-715h-211zM170 -102v714h211v-714h-211z" />
    <glyph glyph-name="section" unicode="&#xa7;" horiz-adv-x="1013" 
d="M106 -129l191 63q58 -165 207 -165q69 0 110 44.5t41 127.5q0 61 -34 104q-33 45 -93 80q-62 36 -178 96l-53 27q-113 57 -169 134t-56 185q0 170 139 279q-72 104 -72 219q0 172 106 278.5t259 106.5q156 0 257.5 -77t139.5 -228l-192 -64q-55 166 -205 166
q-69 0 -110.5 -45t-41.5 -123q0 -68 37 -114q39 -44 105 -86q56 -31 211 -107q118 -58 174.5 -135t56.5 -188q0 -171 -135 -279q65 -95 65 -213q0 -175 -105 -283t-257 -108q-157 0 -258.5 77t-139.5 228zM743 436q0 54 -43 94q-40 43 -100 74q-81 42 -178 84l-72 35
q-86 -53 -86 -143q0 -54 39 -93q37 -37 96 -69l172 -84l86 -41q86 56 86 143z" />
    <glyph glyph-name="dieresis" unicode="&#xa8;" horiz-adv-x="724" 
d="M35 1319q0 57 38 95t95 38t94 -38t37 -95q0 -56 -37 -93.5t-94 -37.5t-95 37.5t-38 93.5zM426 1319q0 57 37 95t94 38t95 -38t38 -95q0 -56 -38 -93.5t-95 -37.5t-94 37.5t-37 93.5z" />
    <glyph glyph-name="copyright" unicode="&#xa9;" horiz-adv-x="1812" 
d="M123 717q-3 163 58 312.5t166 257t251.5 170t306.5 59.5q160 3 307 -59.5t252.5 -170t167 -257t58.5 -312.5q3 -163 -58.5 -312.5t-167 -257t-252.5 -170t-307 -59.5q-160 -3 -306.5 59.5t-251.5 170t-166 257t-58 312.5zM1493 717q0 173 -74.5 312t-209.5 217.5
t-304 78.5q-168 0 -302.5 -78.5t-209 -217.5t-74.5 -312t74.5 -312t209 -217.5t302.5 -78.5q169 0 304 78.5t209.5 217.5t74.5 312zM498 717q0 106 34 191.5t91.5 139.5t129.5 82.5t152 28.5q142 0 243.5 -75.5t125.5 -206.5l-172 -37q-46 149 -197 149q-95 0 -154 -74.5
t-59 -197.5t59 -198t154 -75q151 0 197 150l172 -37q-24 -131 -125.5 -207t-243.5 -76q-80 0 -152 29t-129.5 83t-91.5 139.5t-34 191.5z" />
    <glyph glyph-name="ordfeminine" unicode="&#xaa;" horiz-adv-x="907" 
d="M125 852q0 122 96.5 194t255.5 72h135v35q0 71 -40.5 106t-112.5 35q-122 0 -156 -110l-147 35q19 102 101.5 162.5t201.5 60.5q323 0 323 -324v-504h-139l-18 113q-92 -121 -254 -121q-107 0 -176.5 66.5t-69.5 179.5zM612 958v25h-133q-84 0 -130 -34.5t-46 -96.5
q0 -44 27.5 -70t77.5 -26q84 0 144 54.5t60 147.5z" />
    <glyph glyph-name="guillemotleft" unicode="&#xab;" horiz-adv-x="1378" 
d="M698 131l-604 432v144l604 432v-226l-387 -278l387 -279v-225zM1270 131l-604 432v144l604 432v-226l-387 -278l387 -279v-225z" />
    <glyph glyph-name="logicalnot" unicode="&#xac;" horiz-adv-x="1200" 
d="M848 291v330h-711v196h928v-526h-217z" />
    <glyph glyph-name="uni00AD" unicode="&#xad;" horiz-adv-x="1009" 
d="M137 555v188h735v-188h-735z" />
    <glyph glyph-name="registered" unicode="&#xae;" horiz-adv-x="1812" 
d="M123 717q-3 163 58 312.5t166 257t251.5 170t306.5 59.5q160 3 307 -59.5t252.5 -170t167 -257t58.5 -312.5q3 -163 -58.5 -312.5t-167 -257t-252.5 -170t-307 -59.5q-160 -3 -306.5 59.5t-251.5 170t-166 257t-58 312.5zM1493 717q0 173 -74.5 312t-209.5 217.5
t-304 78.5q-168 0 -302.5 -78.5t-209 -217.5t-74.5 -312t74.5 -312t209 -217.5t302.5 -78.5q169 0 304 78.5t209.5 217.5t74.5 312zM598 295v858h332q136 0 209 -65.5t73 -184.5q0 -97 -49 -159.5t-135 -79.5l238 -369h-201l-225 358h-54v-358h-188zM786 805h129
q115 0 115 98t-115 98h-129v-196z" />
    <glyph glyph-name="overscore" unicode="&#xaf;" horiz-adv-x="577" 
d="M23 1223v174h532v-174h-532z" />
    <glyph glyph-name="degree" unicode="&#xb0;" horiz-adv-x="729" 
d="M123 1214q0 104 69 173t173 69q105 0 173 -68.5t68 -173.5q0 -104 -68.5 -172.5t-172.5 -68.5t-173 69t-69 172zM459 1214q0 43 -26 70t-68 27q-41 0 -67 -27t-26 -70t26 -69.5t67 -26.5q43 0 68.5 26.5t25.5 69.5z" />
    <glyph glyph-name="plusminus" unicode="&#xb1;" horiz-adv-x="1206" 
d="M508 350v373h-371v188h371v373h190v-373h373v-188h-373v-373h-190zM137 0v188h934v-188h-934z" />
    <glyph glyph-name="uni00B2" unicode="&#xb2;" horiz-adv-x="673" 
d="M66 614v62l299 366q61 74 61 154q0 44 -24.5 70t-67.5 26q-44 0 -73.5 -31.5t-39.5 -91.5l-147 41q12 103 84 167.5t176 64.5q117 0 188.5 -67t71.5 -177q0 -106 -82 -207l-186 -227h282v-150h-542z" />
    <glyph glyph-name="uni00B3" unicode="&#xb3;" horiz-adv-x="681" 
d="M70 858l147 21q10 -59 44.5 -91t84.5 -32q56 0 85.5 35.5t29.5 99.5q0 61 -29.5 93t-83.5 32q-40 0 -74 -21l-73 95l149 196h-241v148h471v-62l-189 -246q100 5 168 -63t68 -176q0 -128 -72.5 -204.5t-204.5 -76.5q-118 0 -195 70.5t-85 181.5z" />
    <glyph glyph-name="acute" unicode="&#xb4;" horiz-adv-x="501" 
d="M33 1135l139 311h297l-276 -311h-160z" />
    <glyph glyph-name="uni00B5" unicode="&#xb5;" horiz-adv-x="1159" 
d="M147 -418v1450h218v-670q0 -190 165 -190q114 0 190.5 119t76.5 317v424h215v-1032h-215v180q-61 -92 -147.5 -144t-184.5 -52q-61 0 -100 20v-422h-218z" />
    <glyph glyph-name="paragraph" unicode="&#xb6;" horiz-adv-x="1466" 
d="M547 -418v987q-177 0 -304.5 127.5t-127.5 304.5t127.5 305t304.5 128h792v-193h-125v-1659h-213v1659h-241v-1659h-213z" />
    <glyph glyph-name="middot" unicode="&#xb7;" horiz-adv-x="643" 
d="M172 717q0 66 42 108.5t108 42.5t109.5 -42.5t43.5 -108.5t-43.5 -109t-109.5 -43q-64 0 -107 43.5t-43 108.5z" />
    <glyph glyph-name="cedilla" unicode="&#xb8;" horiz-adv-x="452" 
d="M270 -512l-256 113l262 276h162z" />
    <glyph glyph-name="uni00B9" unicode="&#xb9;" horiz-adv-x="487" 
d="M227 614v598l-174 -77v170l271 129h61v-820h-158z" />
    <glyph glyph-name="ordmasculine" unicode="&#xba;" horiz-adv-x="1062" 
d="M129 1024q0 177 110.5 297.5t292.5 120.5q181 0 291.5 -120.5t110.5 -297.5t-110.5 -297.5t-291.5 -120.5q-182 0 -292.5 120.5t-110.5 297.5zM754 1024q0 116 -61 193t-161 77q-102 0 -162.5 -77t-60.5 -193t60.5 -192t162.5 -76q101 0 161.5 76.5t60.5 191.5z" />
    <glyph glyph-name="guillemotright" unicode="&#xbb;" horiz-adv-x="1378" 
d="M109 131v225l387 279l-387 278v226l604 -432v-144zM680 131v225l387 279l-387 278v226l604 -432v-144z" />
    <glyph glyph-name="onequarter" unicode="&#xbc;" horiz-adv-x="1714" 
d="M227 614v598l-174 -77v170l271 129h61v-820h-158zM313 -70l-129 105l1104 1468l129 -102zM1415 0v143h-344v76l330 600h172v-526h94v-150h-94v-143h-158zM1262 293h153v295z" />
    <glyph glyph-name="onehalf" unicode="&#xbd;" horiz-adv-x="1787" 
d="M227 614v598l-174 -77v170l271 129h61v-820h-158zM313 -70l-129 105l1104 1468l129 -102zM1180 0v61l299 367q61 74 61 154q0 44 -24.5 70t-67.5 26q-44 0 -73.5 -31.5t-39.5 -91.5l-147 41q12 103 84 167t176 64q117 0 188.5 -66.5t71.5 -176.5q0 -106 -82 -207
l-186 -227h282v-150h-542z" />
    <glyph glyph-name="threequarters" unicode="&#xbe;" horiz-adv-x="1888" 
d="M70 858l147 21q10 -59 44.5 -91t84.5 -32q56 0 85.5 35.5t29.5 99.5q0 61 -29.5 93t-83.5 32q-40 0 -74 -21l-73 95l149 196h-241v148h471v-62l-189 -246q100 5 168 -63t68 -176q0 -128 -72.5 -204.5t-204.5 -76.5q-118 0 -195 70.5t-85 181.5zM487 -70l-129 105
l1104 1468l129 -102zM1589 0v143h-344v76l330 600h172v-526h94v-150h-94v-143h-158zM1436 293h153v295z" />
    <glyph glyph-name="questiondown" unicode="&#xbf;" horiz-adv-x="927" 
d="M610 874q0 -64 -44 -108.5t-109 -44.5q-63 0 -107.5 45t-44.5 108t44.5 107.5t107.5 44.5q65 0 109 -44t44 -108zM733 332q0 -94 -55.5 -159t-169.5 -116q-125 -54 -167 -90.5t-42 -91.5q0 -60 41 -92.5t111 -32.5q148 0 192 160l195 -33q-25 -142 -127 -226.5
t-260 -84.5q-162 0 -261.5 86t-99.5 227q0 109 64 170q61 61 211 127q110 47 147 79.5t37 82.5q0 38 -25.5 62t-64.5 24q-95 0 -129 -107l-158 60q35 103 109 158t178 55q120 0 197 -70.5t77 -187.5z" />
    <glyph glyph-name="Agrave" unicode="&#xc0;" horiz-adv-x="1255" 
d="M23 0l493 1434h223l496 -1434h-244l-114 358h-496l-117 -358h-241zM446 569h363l-180 564zM555 1536l-279 311h299l140 -311h-160z" />
    <glyph glyph-name="Aacute" unicode="&#xc1;" horiz-adv-x="1255" 
d="M23 0l493 1434h223l496 -1434h-244l-114 358h-496l-117 -358h-241zM446 569h363l-180 564zM541 1536l139 311h297l-277 -311h-159z" />
    <glyph glyph-name="Acircumflex" unicode="&#xc2;" horiz-adv-x="1255" 
d="M23 0l493 1434h223l496 -1434h-244l-114 358h-496l-117 -358h-241zM446 569h363l-180 564zM285 1548l313 336h64l311 -336h-207l-137 148l-135 -148h-209z" />
    <glyph glyph-name="Atilde" unicode="&#xc3;" horiz-adv-x="1255" 
d="M23 0l493 1434h223l496 -1434h-244l-114 358h-496l-117 -358h-241zM446 569h363l-180 564zM371 1575l-121 100q37 76 100.5 122t134.5 46q47 0 81 -11t79 -36q30 -15 43.5 -21t31.5 -11t38 -5q67 0 129 86l121 -100q-37 -75 -102 -121.5t-136 -46.5q-46 0 -78 10.5
t-80 36.5q-31 16 -43.5 21.5t-30.5 10.5t-38 5q-67 0 -129 -86z" />
    <glyph glyph-name="Adieresis" unicode="&#xc4;" horiz-adv-x="1255" 
d="M23 0l493 1434h223l496 -1434h-244l-114 358h-496l-117 -358h-241zM446 569h363l-180 564zM299 1720q0 57 38 95t95 38t94 -38t37 -95q0 -56 -37 -93.5t-94 -37.5t-95 37.5t-38 93.5zM690 1720q0 57 37 95t94 38t95 -38t38 -95q0 -56 -38 -93.5t-95 -37.5t-94 37.5
t-37 93.5z" />
    <glyph glyph-name="Aring" unicode="&#xc5;" horiz-adv-x="1255" 
d="M23 0l493 1434h223l496 -1434h-244l-114 358h-496l-117 -358h-241zM446 569h363l-180 564zM416 1741q0 88 60.5 147.5t150.5 59.5q91 0 152 -59.5t61 -147.5q0 -87 -61 -145t-152 -58t-151 57.5t-60 145.5zM705 1743q0 35 -21.5 56.5t-56.5 21.5q-32 0 -54 -23t-22 -55
q0 -35 21.5 -56.5t54.5 -21.5q35 0 56.5 21.5t21.5 56.5z" />
    <glyph glyph-name="AE" unicode="&#xc6;" horiz-adv-x="1748" 
d="M23 0l626 1434h975v-211h-637v-355h514v-209h-514v-448h658v-211h-885v358h-346l-150 -358h-241zM500 569h260v564h-25z" />
    <glyph glyph-name="Ccedilla" unicode="&#xc7;" horiz-adv-x="1431" 
d="M98 717q-2 137 32.5 256t97 206t146.5 149t183 92.5t205 29.5q225 0 375.5 -112t201.5 -314l-206 -55q-91 270 -371 270q-191 0 -311.5 -136.5t-120.5 -385.5t120.5 -385.5t311.5 -136.5q280 0 371 270l206 -55q-51 -202 -201.5 -314t-375.5 -112q-106 -1 -205 29.5
t-183 92.5t-146.5 149t-97 206t-32.5 256zM696 -512l-256 113l262 276h162z" />
    <glyph glyph-name="Egrave" unicode="&#xc8;" horiz-adv-x="1159" 
d="M170 0v1434h864v-211h-637v-355h514v-209h-514v-448h658v-211h-885zM535 1536l-279 311h299l139 -311h-159z" />
    <glyph glyph-name="Eacute" unicode="&#xc9;" horiz-adv-x="1159" 
d="M170 0v1434h864v-211h-637v-355h514v-209h-514v-448h658v-211h-885zM522 1536l140 311h296l-276 -311h-160z" />
    <glyph glyph-name="Ecircumflex" unicode="&#xca;" horiz-adv-x="1159" 
d="M170 0v1434h864v-211h-637v-355h514v-209h-514v-448h658v-211h-885zM264 1548l314 336h63l311 -336h-207l-137 148l-135 -148h-209z" />
    <glyph glyph-name="Edieresis" unicode="&#xcb;" horiz-adv-x="1159" 
d="M170 0v1434h864v-211h-637v-355h514v-209h-514v-448h658v-211h-885zM281 1720q0 57 38 95t95 38t94 -38t37 -95q0 -56 -37 -93.5t-94 -37.5t-95 37.5t-38 93.5zM672 1720q0 57 37 95t94 38t95 -38t38 -95q0 -56 -38 -93.5t-95 -37.5t-94 37.5t-37 93.5z" />
    <glyph glyph-name="Igrave" unicode="&#xcc;" horiz-adv-x="567" 
d="M170 0v1434h227v-1434h-227zM209 1536l-279 311h299l140 -311h-160z" />
    <glyph glyph-name="Iacute" unicode="&#xcd;" horiz-adv-x="567" 
d="M170 0v1434h227v-1434h-227zM197 1536l139 311h297l-277 -311h-159z" />
    <glyph glyph-name="Icircumflex" unicode="&#xce;" horiz-adv-x="567" 
d="M170 0v1434h227v-1434h-227zM-61 1548l313 336h63l312 -336h-207l-137 148l-136 -148h-208z" />
    <glyph glyph-name="Idieresis" unicode="&#xcf;" horiz-adv-x="567" 
d="M170 0v1434h227v-1434h-227zM-45 1720q0 57 38 95t95 38t94 -38t37 -95q0 -56 -37 -93.5t-94 -37.5t-95 37.5t-38 93.5zM346 1720q0 57 37 95t94 38t95 -38t38 -95q0 -56 -38 -93.5t-95 -37.5t-94 37.5t-37 93.5z" />
    <glyph glyph-name="Eth" unicode="&#xd0;" horiz-adv-x="1357" 
d="M1260 717q2 -137 -33 -254.5t-97 -202t-146 -144.5t-182 -88.5t-204 -27.5h-428v621h-147v192h147v621h428q106 1 204 -27.5t182 -88.5t146 -144.5t97 -202t33 -254.5zM1028 717q0 270 -141 387q-137 119 -348 119h-142v-410h221v-192h-221v-410h142q208 0 348 119
q141 120 141 387z" />
    <glyph glyph-name="Ntilde" unicode="&#xd1;" horiz-adv-x="1392" 
d="M170 0v1434h244l581 -1028v1028h228v-1434h-244l-582 1026v-1026h-227zM438 1575l-121 100q37 76 101 122t135 46q47 0 81 -11t79 -36q31 -16 43.5 -21.5t30.5 -10.5t38 -5q67 0 129 86l121 -100q-37 -75 -101.5 -121.5t-135.5 -46.5q-46 0 -78 10.5t-80 36.5
q-30 15 -43.5 21t-31.5 11t-38 5q-67 0 -129 -86z" />
    <glyph glyph-name="Ograve" unicode="&#xd2;" horiz-adv-x="1519" 
d="M98 717q-2 171 50.5 312t143.5 232.5t211.5 141t256.5 47.5q136 2 256.5 -47.5t211.5 -141t143 -232.5t50 -312q2 -171 -50 -312t-143 -232.5t-211.5 -141t-256.5 -47.5q-136 -2 -256.5 47.5t-211.5 141t-143.5 232.5t-50.5 312zM1190 717q0 251 -120.5 386.5
t-309.5 135.5t-309.5 -135.5t-120.5 -386.5t120.5 -386.5t309.5 -135.5t309.5 135.5t120.5 386.5zM686 1536l-278 311h299l139 -311h-160z" />
    <glyph glyph-name="Oacute" unicode="&#xd3;" horiz-adv-x="1519" 
d="M98 717q-2 171 50.5 312t143.5 232.5t211.5 141t256.5 47.5q136 2 256.5 -47.5t211.5 -141t143 -232.5t50 -312q2 -171 -50 -312t-143 -232.5t-211.5 -141t-256.5 -47.5q-136 -2 -256.5 47.5t-211.5 141t-143.5 232.5t-50.5 312zM1190 717q0 251 -120.5 386.5
t-309.5 135.5t-309.5 -135.5t-120.5 -386.5t120.5 -386.5t309.5 -135.5t309.5 135.5t120.5 386.5zM672 1536l139 311h297l-277 -311h-159z" />
    <glyph glyph-name="Ocircumflex" unicode="&#xd4;" horiz-adv-x="1519" 
d="M98 717q-2 171 50.5 312t143.5 232.5t211.5 141t256.5 47.5q136 2 256.5 -47.5t211.5 -141t143 -232.5t50 -312q2 -171 -50 -312t-143 -232.5t-211.5 -141t-256.5 -47.5q-136 -2 -256.5 47.5t-211.5 141t-143.5 232.5t-50.5 312zM1190 717q0 251 -120.5 386.5
t-309.5 135.5t-309.5 -135.5t-120.5 -386.5t120.5 -386.5t309.5 -135.5t309.5 135.5t120.5 386.5zM416 1548l313 336h64l311 -336h-207l-137 148l-135 -148h-209z" />
    <glyph glyph-name="Otilde" unicode="&#xd5;" horiz-adv-x="1519" 
d="M98 717q-2 171 50.5 312t143.5 232.5t211.5 141t256.5 47.5q136 2 256.5 -47.5t211.5 -141t143 -232.5t50 -312q2 -171 -50 -312t-143 -232.5t-211.5 -141t-256.5 -47.5q-136 -2 -256.5 47.5t-211.5 141t-143.5 232.5t-50.5 312zM1190 717q0 251 -120.5 386.5
t-309.5 135.5t-309.5 -135.5t-120.5 -386.5t120.5 -386.5t309.5 -135.5t309.5 135.5t120.5 386.5zM502 1575l-121 100q37 76 100.5 122t134.5 46q47 0 81 -11t79 -36q30 -15 43.5 -21t31.5 -11t38 -5q67 0 129 86l121 -100q-37 -75 -102 -121.5t-136 -46.5q-46 0 -78 10.5
t-80 36.5q-31 16 -43.5 21.5t-30.5 10.5t-38 5q-67 0 -129 -86z" />
    <glyph glyph-name="Odieresis" unicode="&#xd6;" horiz-adv-x="1519" 
d="M98 717q-2 171 50.5 312t143.5 232.5t211.5 141t256.5 47.5q136 2 256.5 -47.5t211.5 -141t143 -232.5t50 -312q2 -171 -50 -312t-143 -232.5t-211.5 -141t-256.5 -47.5q-136 -2 -256.5 47.5t-211.5 141t-143.5 232.5t-50.5 312zM1190 717q0 251 -120.5 386.5
t-309.5 135.5t-309.5 -135.5t-120.5 -386.5t120.5 -386.5t309.5 -135.5t309.5 135.5t120.5 386.5zM432 1720q0 57 38 95t95 38t94 -38t37 -95q0 -56 -37 -93.5t-94 -37.5t-95 37.5t-38 93.5zM823 1720q0 57 37 95t94 38t95 -38t38 -95q0 -56 -38 -93.5t-95 -37.5t-94 37.5
t-37 93.5z" />
    <glyph glyph-name="multiply" unicode="&#xd7;" horiz-adv-x="1173" 
d="M266 193l-135 133l322 321l-322 322l135 133l322 -322l319 322l135 -135l-323 -320l323 -321l-135 -133l-319 321z" />
    <glyph glyph-name="Oslash" unicode="&#xd8;" horiz-adv-x="1519" 
d="M1421 717q2 -171 -50 -312t-143 -232.5t-211.5 -141t-256.5 -47.5q-210 0 -367 104l-123 -158l-151 113l135 174q-156 193 -156 500q-2 171 50.5 312t143.5 232.5t211.5 141t256.5 47.5q209 0 366 -104l123 157l152 -112l-135 -174q155 -192 155 -500zM399 406l594 765
q-103 68 -233 68q-189 0 -309.5 -135.5t-120.5 -386.5q0 -191 69 -311zM1190 717q0 189 -70 311l-594 -766q101 -67 234 -67q189 0 309.5 135.5t120.5 386.5z" />
    <glyph glyph-name="Ugrave" unicode="&#xd9;" horiz-adv-x="1345" 
d="M152 518v916h227v-922q0 -153 75 -235t220 -82t219 81.5t74 235.5v922h227v-916q0 -257 -140.5 -395.5t-379.5 -138.5q-240 0 -381 138.5t-141 395.5zM600 1536l-278 311h299l139 -311h-160z" />
    <glyph glyph-name="Uacute" unicode="&#xda;" horiz-adv-x="1345" 
d="M152 518v916h227v-922q0 -153 75 -235t220 -82t219 81.5t74 235.5v922h227v-916q0 -257 -140.5 -395.5t-379.5 -138.5q-240 0 -381 138.5t-141 395.5zM586 1536l139 311h297l-277 -311h-159z" />
    <glyph glyph-name="Ucircumflex" unicode="&#xdb;" horiz-adv-x="1345" 
d="M152 518v916h227v-922q0 -153 75 -235t220 -82t219 81.5t74 235.5v922h227v-916q0 -257 -140.5 -395.5t-379.5 -138.5q-240 0 -381 138.5t-141 395.5zM328 1548l313 336h64l311 -336h-207l-137 148l-135 -148h-209z" />
    <glyph glyph-name="Udieresis" unicode="&#xdc;" horiz-adv-x="1345" 
d="M152 518v916h227v-922q0 -153 75 -235t220 -82t219 81.5t74 235.5v922h227v-916q0 -257 -140.5 -395.5t-379.5 -138.5q-240 0 -381 138.5t-141 395.5zM344 1720q0 57 38 95t95 38t94 -38t37 -95q0 -56 -37 -93.5t-94 -37.5t-95 37.5t-38 93.5zM735 1720q0 57 37 95t94 38
t95 -38t38 -95q0 -56 -38 -93.5t-95 -37.5t-94 37.5t-37 93.5z" />
    <glyph glyph-name="Yacute" unicode="&#xdd;" horiz-adv-x="1105" 
d="M440 0v614l-420 820h248l285 -594l285 594h247l-419 -820v-614h-226zM467 1536l139 311h297l-276 -311h-160z" />
    <glyph glyph-name="Thorn" unicode="&#xde;" horiz-adv-x="1208" 
d="M170 0v1434h227v-293h297q208 0 323.5 -114.5t115.5 -309.5t-115.5 -309.5t-323.5 -114.5h-297v-293h-227zM397 504h291q104 0 158.5 54.5t54.5 158.5t-54.5 158.5t-158.5 54.5h-291v-426z" />
    <glyph glyph-name="germandbls" unicode="&#xdf;" horiz-adv-x="1175" 
d="M483 0v193q78 -19 135 -19q122 0 183 65t61 185q0 260 -278 260h-68v197h53q93 0 145 49t52 139q0 92 -48.5 142.5t-133.5 50.5q-92 0 -143.5 -62.5t-51.5 -179.5v-1020h-211v684h-108v197h108v135q0 206 110 320t298 114q176 0 277.5 -97t101.5 -257q0 -106 -47.5 -182
t-124.5 -101q137 -43 208.5 -137t71.5 -254q0 -206 -116.5 -322t-321.5 -116q-86 0 -152 16z" />
    <glyph glyph-name="agrave" unicode="&#xe0;" horiz-adv-x="1058" 
d="M94 297q0 158 119 248t324 90h180v45q0 89 -53 134.5t-144 45.5q-151 0 -198 -139l-189 43q25 128 131.5 206.5t255.5 78.5q194 0 303 -106.5t109 -305.5v-637h-174l-29 139q-113 -155 -319 -155q-141 0 -228.5 82.5t-87.5 230.5zM717 432v27h-172q-226 0 -226 -160
q0 -57 39.5 -92t102.5 -35q101 0 178.5 70.5t77.5 189.5zM449 1135l-279 311h299l139 -311h-159z" />
    <glyph glyph-name="aacute" unicode="&#xe1;" horiz-adv-x="1058" 
d="M94 297q0 158 119 248t324 90h180v45q0 89 -53 134.5t-144 45.5q-151 0 -198 -139l-189 43q25 128 131.5 206.5t255.5 78.5q194 0 303 -106.5t109 -305.5v-637h-174l-29 139q-113 -155 -319 -155q-141 0 -228.5 82.5t-87.5 230.5zM717 432v27h-172q-226 0 -226 -160
q0 -57 39.5 -92t102.5 -35q101 0 178.5 70.5t77.5 189.5zM434 1135l139 311h297l-276 -311h-160z" />
    <glyph glyph-name="acircumflex" unicode="&#xe2;" horiz-adv-x="1058" 
d="M94 297q0 158 119 248t324 90h180v45q0 89 -53 134.5t-144 45.5q-151 0 -198 -139l-189 43q25 128 131.5 206.5t255.5 78.5q194 0 303 -106.5t109 -305.5v-637h-174l-29 139q-113 -155 -319 -155q-141 0 -228.5 82.5t-87.5 230.5zM717 432v27h-172q-226 0 -226 -160
q0 -57 39.5 -92t102.5 -35q101 0 178.5 70.5t77.5 189.5zM178 1147l314 336h63l311 -336h-207l-137 147l-135 -147h-209z" />
    <glyph glyph-name="atilde" unicode="&#xe3;" horiz-adv-x="1058" 
d="M94 297q0 158 119 248t324 90h180v45q0 89 -53 134.5t-144 45.5q-151 0 -198 -139l-189 43q25 128 131.5 206.5t255.5 78.5q194 0 303 -106.5t109 -305.5v-637h-174l-29 139q-113 -155 -319 -155q-141 0 -228.5 82.5t-87.5 230.5zM717 432v27h-172q-226 0 -226 -160
q0 -57 39.5 -92t102.5 -35q101 0 178.5 70.5t77.5 189.5zM264 1174l-121 100q37 76 101 122t135 46q47 0 81 -11t79 -36q31 -16 43.5 -21.5t30.5 -10.5t38 -5q67 0 129 86l121 -101q-37 -75 -101.5 -121t-135.5 -46q-46 0 -78 10.5t-80 36.5q-30 15 -43.5 21t-31.5 11t-38 5
q-67 0 -129 -86z" />
    <glyph glyph-name="adieresis" unicode="&#xe4;" horiz-adv-x="1058" 
d="M94 297q0 158 119 248t324 90h180v45q0 89 -53 134.5t-144 45.5q-151 0 -198 -139l-189 43q25 128 131.5 206.5t255.5 78.5q194 0 303 -106.5t109 -305.5v-637h-174l-29 139q-113 -155 -319 -155q-141 0 -228.5 82.5t-87.5 230.5zM717 432v27h-172q-226 0 -226 -160
q0 -57 39.5 -92t102.5 -35q101 0 178.5 70.5t77.5 189.5zM195 1319q0 57 38 95t95 38t94 -38t37 -95q0 -56 -37 -93.5t-94 -37.5t-95 37.5t-38 93.5zM586 1319q0 57 37 95t94 38t95 -38t38 -95q0 -56 -38 -93.5t-95 -37.5t-94 37.5t-37 93.5z" />
    <glyph glyph-name="aring" unicode="&#xe5;" horiz-adv-x="1058" 
d="M94 297q0 158 119 248t324 90h180v45q0 89 -53 134.5t-144 45.5q-151 0 -198 -139l-189 43q25 128 131.5 206.5t255.5 78.5q194 0 303 -106.5t109 -305.5v-637h-174l-29 139q-113 -155 -319 -155q-141 0 -228.5 82.5t-87.5 230.5zM717 432v27h-172q-226 0 -226 -160
q0 -57 39.5 -92t102.5 -35q101 0 178.5 70.5t77.5 189.5zM309 1339q0 88 60.5 147.5t150.5 59.5q91 0 152 -59.5t61 -147.5q0 -87 -61 -144.5t-152 -57.5t-151 57t-60 145zM598 1341q0 35 -21.5 56.5t-56.5 21.5q-32 0 -54 -23t-22 -55q0 -35 21.5 -56t54.5 -21
q35 0 56.5 21t21.5 56z" />
    <glyph glyph-name="ae" unicode="&#xe6;" horiz-adv-x="1763" 
d="M94 297q0 157 121.5 247.5t327.5 90.5h174v45q0 91 -52.5 135.5t-144.5 44.5q-154 0 -198 -139l-189 43q25 129 130 207t257 78q229 0 338 -148q133 148 344 148q90 0 167 -27.5t132 -75.5t94.5 -111.5t58.5 -136t19 -149.5v-90h-731q5 -126 76.5 -206.5t191.5 -80.5
q93 0 157 41.5t114 132.5l178 -65q-68 -151 -178.5 -224t-278.5 -73q-138 0 -243.5 61t-163.5 168q-128 -229 -385 -229q-141 0 -228.5 82.5t-87.5 230.5zM948 635h504q-19 103 -83 164t-167 61q-100 0 -167.5 -62.5t-86.5 -162.5zM717 432v27h-172q-109 0 -167.5 -41
t-58.5 -119q0 -56 37 -91.5t99 -35.5q104 0 183 70.5t79 189.5z" />
    <glyph glyph-name="ccedilla" unicode="&#xe7;" horiz-adv-x="1110" 
d="M90 516q0 149 55 268t167.5 192t267.5 73q165 0 280 -74t172 -217l-192 -80q-83 182 -260 182q-126 0 -195.5 -93.5t-69.5 -250.5t69.5 -250.5t195.5 -93.5q91 0 154 45t106 137l192 -78q-57 -143 -172 -217.5t-280 -74.5q-155 0 -267.5 72.5t-167.5 191.5t-55 268z
M510 -512l-256 113l262 276h162z" />
    <glyph glyph-name="egrave" unicode="&#xe8;" horiz-adv-x="1136" 
d="M1047 549v-90h-736q14 -135 86 -211t187 -76q93 0 155.5 42t114.5 136l178 -69q-68 -151 -179.5 -224t-279.5 -73q-115 0 -208.5 44.5t-152.5 119t-90.5 169.5t-31.5 199t31.5 199t90.5 170t152.5 119.5t208.5 44.5q112 0 204 -42t149.5 -113t89 -159.5t31.5 -185.5z
M322 635h503q-20 104 -83.5 164.5t-168.5 60.5q-93 0 -160 -58.5t-91 -166.5zM502 1135l-279 311h299l140 -311h-160z" />
    <glyph glyph-name="eacute" unicode="&#xe9;" horiz-adv-x="1136" 
d="M1047 549v-90h-736q14 -135 86 -211t187 -76q93 0 155.5 42t114.5 136l178 -69q-68 -151 -179.5 -224t-279.5 -73q-115 0 -208.5 44.5t-152.5 119t-90.5 169.5t-31.5 199t31.5 199t90.5 170t152.5 119.5t208.5 44.5q112 0 204 -42t149.5 -113t89 -159.5t31.5 -185.5z
M322 635h503q-20 104 -83.5 164.5t-168.5 60.5q-93 0 -160 -58.5t-91 -166.5zM489 1135l140 311h297l-277 -311h-160z" />
    <glyph glyph-name="ecircumflex" unicode="&#xea;" horiz-adv-x="1136" 
d="M1047 549v-90h-736q14 -135 86 -211t187 -76q93 0 155.5 42t114.5 136l178 -69q-68 -151 -179.5 -224t-279.5 -73q-115 0 -208.5 44.5t-152.5 119t-90.5 169.5t-31.5 199t31.5 199t90.5 170t152.5 119.5t208.5 44.5q112 0 204 -42t149.5 -113t89 -159.5t31.5 -185.5z
M322 635h503q-20 104 -83.5 164.5t-168.5 60.5q-93 0 -160 -58.5t-91 -166.5zM231 1147l314 336h63l312 -336h-207l-138 147l-135 -147h-209z" />
    <glyph glyph-name="edieresis" unicode="&#xeb;" horiz-adv-x="1136" 
d="M1047 549v-90h-736q14 -135 86 -211t187 -76q93 0 155.5 42t114.5 136l178 -69q-68 -151 -179.5 -224t-279.5 -73q-115 0 -208.5 44.5t-152.5 119t-90.5 169.5t-31.5 199t31.5 199t90.5 170t152.5 119.5t208.5 44.5q112 0 204 -42t149.5 -113t89 -159.5t31.5 -185.5z
M322 635h503q-20 104 -83.5 164.5t-168.5 60.5q-93 0 -160 -58.5t-91 -166.5zM248 1319q0 57 38 95t95 38t94 -38t37 -95q0 -56 -37 -93.5t-94 -37.5t-95 37.5t-38 93.5zM639 1319q0 57 37 95t94 38t95 -38t38 -95q0 -56 -38 -93.5t-95 -37.5t-94 37.5t-37 93.5z" />
    <glyph glyph-name="igrave" unicode="&#xec;" horiz-adv-x="512" 
d="M147 0v1032h218v-1032h-218zM182 1135l-278 311h299l139 -311h-160z" />
    <glyph glyph-name="iacute" unicode="&#xed;" horiz-adv-x="512" 
d="M147 0v1032h218v-1032h-218zM170 1135l139 311h297l-276 -311h-160z" />
    <glyph glyph-name="icircumflex" unicode="&#xee;" horiz-adv-x="512" 
d="M147 0v1032h218v-1032h-218zM-88 1147l313 336h64l311 -336h-207l-137 147l-135 -147h-209z" />
    <glyph glyph-name="idieresis" unicode="&#xef;" horiz-adv-x="512" 
d="M147 0v1032h218v-1032h-218zM-72 1319q0 57 38 95t95 38t94.5 -38t37.5 -95q0 -56 -37.5 -93.5t-94.5 -37.5t-95 37.5t-38 93.5zM319 1319q0 57 37.5 95t94.5 38t95 -38t38 -95q0 -56 -38 -93.5t-95 -37.5t-94.5 37.5t-37.5 93.5z" />
    <glyph glyph-name="eth" unicode="&#xf0;" horiz-adv-x="1177" 
d="M90 516q0 150 58.5 270t173 191.5t266.5 71.5q116 0 200 -64q-55 118 -200 227l-72 -108l-133 94l68 100q-90 49 -172 82l106 156q95 -43 170 -84l72 102l133 -92l-68 -100q202 -143 298.5 -340t96.5 -471q0 -250 -134 -408.5t-365 -158.5q-152 0 -266.5 71.5t-173 191
t-58.5 269.5zM862 516q0 144 -71 244q-69 100 -203 100q-132 0 -201 -100q-72 -101 -72 -244q0 -142 72 -246q70 -98 201 -98q133 0 203 98q71 103 71 246z" />
    <glyph glyph-name="ntilde" unicode="&#xf1;" horiz-adv-x="1159" 
d="M147 0v1032h218v-180q58 92 144 144.5t185 52.5q145 0 231.5 -84.5t86.5 -235.5v-729h-215v672q0 93 -43.5 140.5t-124.5 47.5q-111 0 -187.5 -119t-76.5 -317v-424h-218zM344 1174l-121 100q37 76 101 122t135 46q46 0 80 -11t79 -36q30 -15 43.5 -21t31.5 -11t38 -5
q67 0 129 86l121 -101q-37 -75 -102 -121t-136 -46q-46 0 -77.5 10.5t-79.5 36.5q-30 15 -43.5 21t-31.5 11t-38 5q-67 0 -129 -86z" />
    <glyph glyph-name="ograve" unicode="&#xf2;" horiz-adv-x="1204" 
d="M90 516q0 148 61 268.5t179 192.5t272 72q153 0 271 -72t179.5 -192.5t61.5 -268.5t-61.5 -268.5t-179 -192t-271.5 -71.5t-272 71.5t-179 192t-61 268.5zM887 516q0 143 -76 244q-75 100 -209 100q-136 0 -211 -100q-76 -101 -76 -244t76 -244q75 -100 211 -100
q134 0 209 100q76 101 76 244zM528 1135l-278 311h299l139 -311h-160z" />
    <glyph glyph-name="oacute" unicode="&#xf3;" horiz-adv-x="1204" 
d="M90 516q0 148 61 268.5t179 192.5t272 72q153 0 271 -72t179.5 -192.5t61.5 -268.5t-61.5 -268.5t-179 -192t-271.5 -71.5t-272 71.5t-179 192t-61 268.5zM887 516q0 143 -76 244q-75 100 -209 100q-136 0 -211 -100q-76 -101 -76 -244t76 -244q75 -100 211 -100
q134 0 209 100q76 101 76 244zM514 1135l139 311h297l-276 -311h-160z" />
    <glyph glyph-name="ocircumflex" unicode="&#xf4;" horiz-adv-x="1204" 
d="M90 516q0 148 61 268.5t179 192.5t272 72q153 0 271 -72t179.5 -192.5t61.5 -268.5t-61.5 -268.5t-179 -192t-271.5 -71.5t-272 71.5t-179 192t-61 268.5zM887 516q0 143 -76 244q-75 100 -209 100q-136 0 -211 -100q-76 -101 -76 -244t76 -244q75 -100 211 -100
q134 0 209 100q76 101 76 244zM258 1147l313 336h64l311 -336h-207l-137 147l-135 -147h-209z" />
    <glyph glyph-name="otilde" unicode="&#xf5;" horiz-adv-x="1204" 
d="M90 516q0 148 61 268.5t179 192.5t272 72q153 0 271 -72t179.5 -192.5t61.5 -268.5t-61.5 -268.5t-179 -192t-271.5 -71.5t-272 71.5t-179 192t-61 268.5zM887 516q0 143 -76 244q-75 100 -209 100q-136 0 -211 -100q-76 -101 -76 -244t76 -244q75 -100 211 -100
q134 0 209 100q76 101 76 244zM344 1174l-121 100q37 76 101 122t135 46q46 0 80 -11t79 -36q30 -15 43.5 -21t31.5 -11t38 -5q67 0 129 86l121 -101q-37 -75 -102 -121t-136 -46q-46 0 -77.5 10.5t-79.5 36.5q-30 15 -43.5 21t-31.5 11t-38 5q-67 0 -129 -86z" />
    <glyph glyph-name="odieresis" unicode="&#xf6;" horiz-adv-x="1204" 
d="M90 516q0 148 61 268.5t179 192.5t272 72q153 0 271 -72t179.5 -192.5t61.5 -268.5t-61.5 -268.5t-179 -192t-271.5 -71.5t-272 71.5t-179 192t-61 268.5zM887 516q0 143 -76 244q-75 100 -209 100q-136 0 -211 -100q-76 -101 -76 -244t76 -244q75 -100 211 -100
q134 0 209 100q76 101 76 244zM274 1319q0 57 38.5 95t95.5 38t94 -38t37 -95q0 -56 -37 -93.5t-94 -37.5t-95.5 37.5t-38.5 93.5zM666 1319q0 57 37 95t94 38t95 -38t38 -95q0 -56 -38 -93.5t-95 -37.5t-94 37.5t-37 93.5z" />
    <glyph glyph-name="divide" unicode="&#xf7;" horiz-adv-x="1206" 
d="M451 1032q0 65 43.5 108.5t107.5 43.5q66 0 109 -43t43 -109t-43 -108.5t-109 -42.5t-108.5 42.5t-42.5 108.5zM137 551v190h934v-190h-934zM451 260q0 65 43.5 108.5t107.5 43.5q66 0 109 -43t43 -109t-43 -108.5t-109 -42.5t-108.5 42.5t-42.5 108.5z" />
    <glyph glyph-name="oslash" unicode="&#xf8;" horiz-adv-x="1204" 
d="M1124 1028l-125 -160q115 -149 115 -352q0 -148 -61.5 -268.5t-179 -192t-271.5 -71.5q-143 0 -252 59l-119 -152l-151 113l125 160q-115 149 -115 352q0 148 61 268.5t179 192.5t272 72q135 0 252 -60l119 152zM348 346l381 483q-57 31 -127 31q-136 0 -211 -100
q-76 -101 -76 -244q0 -91 33 -170zM854 684l-379 -481q57 -31 127 -31q134 0 209 100q76 101 76 244q0 98 -33 168z" />
    <glyph glyph-name="ugrave" unicode="&#xf9;" horiz-adv-x="1159" 
d="M147 303v729h218v-670q0 -190 165 -190q114 0 190.5 119t76.5 317v424h215v-1032h-215v180q-61 -92 -147.5 -144t-184.5 -52q-145 0 -231.5 84t-86.5 235zM506 1135l-279 311h299l140 -311h-160z" />
    <glyph glyph-name="uacute" unicode="&#xfa;" horiz-adv-x="1159" 
d="M147 303v729h218v-670q0 -190 165 -190q114 0 190.5 119t76.5 317v424h215v-1032h-215v180q-61 -92 -147.5 -144t-184.5 -52q-145 0 -231.5 84t-86.5 235zM492 1135l139 311h297l-277 -311h-159z" />
    <glyph glyph-name="ucircumflex" unicode="&#xfb;" horiz-adv-x="1159" 
d="M147 303v729h218v-670q0 -190 165 -190q114 0 190.5 119t76.5 317v424h215v-1032h-215v180q-61 -92 -147.5 -144t-184.5 -52q-145 0 -231.5 84t-86.5 235zM236 1147l313 336h63l312 -336h-207l-137 147l-136 -147h-208z" />
    <glyph glyph-name="udieresis" unicode="&#xfc;" horiz-adv-x="1159" 
d="M147 303v729h218v-670q0 -190 165 -190q114 0 190.5 119t76.5 317v424h215v-1032h-215v180q-61 -92 -147.5 -144t-184.5 -52q-145 0 -231.5 84t-86.5 235zM250 1319q0 57 38 95t95 38t94 -38t37 -95q0 -56 -37 -93.5t-94 -37.5t-95 37.5t-38 93.5zM641 1319q0 57 37 95
t94 38t95 -38t38 -95q0 -56 -38 -93.5t-95 -37.5t-94 37.5t-37 93.5z" />
    <glyph glyph-name="yacute" unicode="&#xfd;" horiz-adv-x="980" 
d="M743 1032h218l-527 -1450h-209l168 469l-373 981h220l256 -692zM403 1135l140 311h297l-277 -311h-160z" />
    <glyph glyph-name="thorn" unicode="&#xfe;" horiz-adv-x="1193" 
d="M147 -418v1868h218v-473v-62q33 54 108.5 94t163.5 40q222 0 344.5 -144t122.5 -389t-122.5 -388.5t-344.5 -143.5q-80 0 -157 36t-115 91v-62v-467h-218zM879 516q0 158 -73.5 251t-195.5 93q-119 0 -192.5 -93.5t-73.5 -250.5t73.5 -250.5t192.5 -93.5q122 0 195.5 93
t73.5 251z" />
    <glyph glyph-name="ydieresis" unicode="&#xff;" horiz-adv-x="980" 
d="M743 1032h218l-527 -1450h-209l168 469l-373 981h220l256 -692zM162 1319q0 57 38 95t95 38t94 -38t37 -95q0 -56 -37 -93.5t-94 -37.5t-95 37.5t-38 93.5zM553 1319q0 57 37 95t94 38t95 -38t38 -95q0 -56 -38 -93.5t-95 -37.5t-94 37.5t-37 93.5z" />
    <glyph glyph-name="Amacron" unicode="&#x100;" horiz-adv-x="1255" 
d="M23 0l493 1434h223l496 -1434h-244l-114 358h-496l-117 -358h-241zM446 569h363l-180 564zM362 1624v174h533v-174h-533z" />
    <glyph glyph-name="amacron" unicode="&#x101;" horiz-adv-x="1058" 
d="M94 297q0 158 119 248t324 90h180v45q0 89 -53 134.5t-144 45.5q-151 0 -198 -139l-189 43q25 128 131.5 206.5t255.5 78.5q194 0 303 -106.5t109 -305.5v-637h-174l-29 139q-113 -155 -319 -155q-141 0 -228.5 82.5t-87.5 230.5zM717 432v27h-172q-226 0 -226 -160
q0 -57 39.5 -92t102.5 -35q101 0 178.5 70.5t77.5 189.5zM256 1223v174h532v-174h-532z" />
    <glyph glyph-name="Abreve" unicode="&#x102;" horiz-adv-x="1255" 
d="M23 0l493 1434h223l496 -1434h-244l-114 358h-496l-117 -358h-241zM446 569h363l-180 564zM395 1835h162q0 -36 18.5 -56t53.5 -20t53 20t18 56h162q0 -99 -64 -161t-169 -62t-169.5 62t-64.5 161z" />
    <glyph glyph-name="abreve" unicode="&#x103;" horiz-adv-x="1058" 
d="M94 297q0 158 119 248t324 90h180v45q0 89 -53 134.5t-144 45.5q-151 0 -198 -139l-189 43q25 128 131.5 206.5t255.5 78.5q194 0 303 -106.5t109 -305.5v-637h-174l-29 139q-113 -155 -319 -155q-141 0 -228.5 82.5t-87.5 230.5zM717 432v27h-172q-226 0 -226 -160
q0 -57 39.5 -92t102.5 -35q101 0 178.5 70.5t77.5 189.5zM289 1434h162q0 -36 18 -56t53 -20t53.5 20t18.5 56h162q0 -99 -64.5 -161.5t-169.5 -62.5t-169 62.5t-64 161.5z" />
    <glyph glyph-name="Aogonek" unicode="&#x104;" horiz-adv-x="1255" 
d="M23 0l493 1434h223l496 -1434h-244l-114 358h-496l-117 -358h-241zM446 569h363l-180 564zM961 -193q0 56 30.5 108.5t81.5 84.5h162q-117 -99 -117 -162q0 -26 16 -41.5t42 -15.5q30 0 59 20l39 -141q-56 -29 -125 -29q-87 0 -137.5 47t-50.5 129z" />
    <glyph glyph-name="aogonek" unicode="&#x105;" horiz-adv-x="1058" 
d="M934 -199l39 -141q-52 -29 -127 -29q-85 0 -136 47.5t-51 128.5q0 55 32.5 106t88.5 87h-22l-29 139q-113 -155 -319 -155q-141 0 -228.5 82.5t-87.5 230.5q0 158 119 248t324 90h180v45q0 89 -53 134.5t-144 45.5q-151 0 -198 -139l-189 43q25 128 131.5 206.5
t255.5 78.5q194 0 303 -106.5t109 -305.5v-637q-117 -99 -117 -162q0 -26 15.5 -41.5t41.5 -15.5q29 0 62 20zM717 432v27h-172q-226 0 -226 -160q0 -57 39.5 -92t102.5 -35q101 0 178.5 70.5t77.5 189.5z" />
    <glyph glyph-name="Cacute" unicode="&#x106;" horiz-adv-x="1431" 
d="M98 717q-2 137 32.5 256t97 206t146.5 149t183 92.5t205 29.5q225 0 375.5 -112t201.5 -314l-206 -55q-91 270 -371 270q-191 0 -311.5 -136.5t-120.5 -385.5t120.5 -385.5t311.5 -136.5q280 0 371 270l206 -55q-51 -202 -201.5 -314t-375.5 -112q-106 -1 -205 29.5
t-183 92.5t-146.5 149t-97 206t-32.5 256zM676 1536l139 311h297l-276 -311h-160z" />
    <glyph glyph-name="cacute" unicode="&#x107;" horiz-adv-x="1110" 
d="M90 516q0 149 55 268t167.5 192t267.5 73q165 0 280 -74t172 -217l-192 -80q-83 182 -260 182q-126 0 -195.5 -93.5t-69.5 -250.5t69.5 -250.5t195.5 -93.5q91 0 154 45t106 137l192 -78q-57 -143 -172 -217.5t-280 -74.5q-155 0 -267.5 72.5t-167.5 191.5t-55 268z
M494 1135l139 311h297l-277 -311h-159z" />
    <glyph glyph-name="Ccircumflex" unicode="&#x108;" horiz-adv-x="1431" 
d="M98 717q-2 137 32.5 256t97 206t146.5 149t183 92.5t205 29.5q225 0 375.5 -112t201.5 -314l-206 -55q-91 270 -371 270q-191 0 -311.5 -136.5t-120.5 -385.5t120.5 -385.5t311.5 -136.5q280 0 371 270l206 -55q-51 -202 -201.5 -314t-375.5 -112q-106 -1 -205 29.5
t-183 92.5t-146.5 149t-97 206t-32.5 256zM418 1548l313 336h64l311 -336h-207l-137 148l-135 -148h-209z" />
    <glyph glyph-name="ccircumflex" unicode="&#x109;" horiz-adv-x="1110" 
d="M90 516q0 149 55 268t167.5 192t267.5 73q165 0 280 -74t172 -217l-192 -80q-83 182 -260 182q-126 0 -195.5 -93.5t-69.5 -250.5t69.5 -250.5t195.5 -93.5q91 0 154 45t106 137l192 -78q-57 -143 -172 -217.5t-280 -74.5q-155 0 -267.5 72.5t-167.5 191.5t-55 268z
M238 1147l313 336h63l312 -336h-207l-137 147l-136 -147h-208z" />
    <glyph glyph-name="Cdotaccent" unicode="&#x10a;" horiz-adv-x="1431" 
d="M98 717q-2 137 32.5 256t97 206t146.5 149t183 92.5t205 29.5q225 0 375.5 -112t201.5 -314l-206 -55q-91 270 -371 270q-191 0 -311.5 -136.5t-120.5 -385.5t120.5 -385.5t311.5 -136.5q280 0 371 270l206 -55q-51 -202 -201.5 -314t-375.5 -112q-106 -1 -205 29.5
t-183 92.5t-146.5 149t-97 206t-32.5 256zM616 1731q0 62 41.5 103.5t104.5 41.5t105 -41.5t42 -103.5t-42 -104t-105 -42t-104.5 42t-41.5 104z" />
    <glyph glyph-name="cdotaccent" unicode="&#x10b;" horiz-adv-x="1110" 
d="M90 516q0 149 55 268t167.5 192t267.5 73q165 0 280 -74t172 -217l-192 -80q-83 182 -260 182q-126 0 -195.5 -93.5t-69.5 -250.5t69.5 -250.5t195.5 -93.5q91 0 154 45t106 137l192 -78q-57 -143 -172 -217.5t-280 -74.5q-155 0 -267.5 72.5t-167.5 191.5t-55 268z
M436 1329q0 62 41.5 104t104.5 42t105 -42t42 -104t-42 -103.5t-105 -41.5t-104.5 41.5t-41.5 103.5z" />
    <glyph glyph-name="Ccaron" unicode="&#x10c;" horiz-adv-x="1431" 
d="M98 717q-2 137 32.5 256t97 206t146.5 149t183 92.5t205 29.5q225 0 375.5 -112t201.5 -314l-206 -55q-91 270 -371 270q-191 0 -311.5 -136.5t-120.5 -385.5t120.5 -385.5t311.5 -136.5q280 0 371 270l206 -55q-51 -202 -201.5 -314t-375.5 -112q-106 -1 -205 29.5
t-183 92.5t-146.5 149t-97 206t-32.5 256zM731 1548l-313 336h209l135 -147l137 147h207l-311 -336h-64z" />
    <glyph glyph-name="ccaron" unicode="&#x10d;" horiz-adv-x="1110" 
d="M90 516q0 149 55 268t167.5 192t267.5 73q165 0 280 -74t172 -217l-192 -80q-83 182 -260 182q-126 0 -195.5 -93.5t-69.5 -250.5t69.5 -250.5t195.5 -93.5q91 0 154 45t106 137l192 -78q-57 -143 -172 -217.5t-280 -74.5q-155 0 -267.5 72.5t-167.5 191.5t-55 268z
M551 1147l-313 336h208l136 -148l137 148h207l-312 -336h-63z" />
    <glyph glyph-name="Dcaron" unicode="&#x10e;" horiz-adv-x="1357" 
d="M170 0v1434h428q106 1 204 -27.5t182 -88.5t146 -144.5t97 -202t33 -254.5q2 -137 -33 -254.5t-97 -202t-146 -144.5t-182 -88.5t-204 -27.5h-428zM397 211h142q208 0 348 119q141 120 141 387q0 270 -141 387q-137 119 -348 119h-142v-1012zM506 1548l-313 336h208
l136 -147l137 147h207l-312 -336h-63z" />
    <glyph glyph-name="dcaron" unicode="&#x10f;" horiz-adv-x="1482" 
d="M90 516q0 242 119 385q121 148 334 148q90 0 166 -34t120 -91v61v465h218v-1450h-218v57v62q-32 -57 -111 -96t-175 -39q-213 0 -334 145q-119 146 -119 387zM850 516q0 158 -72 251t-194 93q-120 0 -194.5 -93.5t-74.5 -250.5t74.5 -250.5t194.5 -93.5q122 0 194 93
t72 251zM1184 1110l55 367h242l-158 -367h-139z" />
    <glyph glyph-name="Dcroat" unicode="&#x110;" horiz-adv-x="1357" 
d="M1260 717q2 -137 -33 -254.5t-97 -202t-146 -144.5t-182 -88.5t-204 -27.5h-428v621h-147v192h147v621h428q106 1 204 -27.5t182 -88.5t146 -144.5t97 -202t33 -254.5zM1028 717q0 270 -141 387q-137 119 -348 119h-142v-410h221v-192h-221v-410h142q208 0 348 119
q141 120 141 387z" />
    <glyph glyph-name="dslash" unicode="&#x111;" horiz-adv-x="1193" 
d="M1171 1325v-168h-124v-1157h-218v57v62q-32 -57 -111 -96t-175 -39q-213 0 -334 145q-119 146 -119 387q0 242 119 385q121 148 334 148q90 0 166 -34t120 -91v61v172h-264v168h264v125h218v-125h124zM850 516q0 158 -72 251t-194 93q-120 0 -194.5 -93.5t-74.5 -250.5
t74.5 -250.5t194.5 -93.5q122 0 194 93t72 251z" />
    <glyph glyph-name="Emacron" unicode="&#x112;" horiz-adv-x="1159" 
d="M170 0v1434h864v-211h-637v-355h514v-209h-514v-448h658v-211h-885zM344 1624v174h533v-174h-533z" />
    <glyph glyph-name="emacron" unicode="&#x113;" horiz-adv-x="1136" 
d="M1047 549v-90h-736q14 -135 86 -211t187 -76q93 0 155.5 42t114.5 136l178 -69q-68 -151 -179.5 -224t-279.5 -73q-115 0 -208.5 44.5t-152.5 119t-90.5 169.5t-31.5 199t31.5 199t90.5 170t152.5 119.5t208.5 44.5q112 0 204 -42t149.5 -113t89 -159.5t31.5 -185.5z
M322 635h503q-20 104 -83.5 164.5t-168.5 60.5q-93 0 -160 -58.5t-91 -166.5zM309 1223v174h533v-174h-533z" />
    <glyph glyph-name="Ebreve" unicode="&#x114;" horiz-adv-x="1159" 
d="M170 0v1434h864v-211h-637v-355h514v-209h-514v-448h658v-211h-885zM375 1835h162q0 -36 18 -56t53 -20t53.5 20t18.5 56h162q0 -99 -64.5 -161t-169.5 -62t-169 62t-64 161z" />
    <glyph glyph-name="ebreve" unicode="&#x115;" horiz-adv-x="1136" 
d="M1047 549v-90h-736q14 -135 86 -211t187 -76q93 0 155.5 42t114.5 136l178 -69q-68 -151 -179.5 -224t-279.5 -73q-115 0 -208.5 44.5t-152.5 119t-90.5 169.5t-31.5 199t31.5 199t90.5 170t152.5 119.5t208.5 44.5q112 0 204 -42t149.5 -113t89 -159.5t31.5 -185.5z
M322 635h503q-20 104 -83.5 164.5t-168.5 60.5q-93 0 -160 -58.5t-91 -166.5zM342 1434h162q0 -36 18 -56t53 -20t53.5 20t18.5 56h162q0 -99 -64.5 -161.5t-169.5 -62.5t-169 62.5t-64 161.5z" />
    <glyph glyph-name="Edotaccent" unicode="&#x116;" horiz-adv-x="1159" 
d="M170 0v1434h864v-211h-637v-355h514v-209h-514v-448h658v-211h-885zM463 1731q0 62 41 103.5t104 41.5t105.5 -41.5t42.5 -103.5t-42.5 -104t-105.5 -42t-104 42t-41 104z" />
    <glyph glyph-name="edotaccent" unicode="&#x117;" horiz-adv-x="1136" 
d="M1047 549v-90h-736q14 -135 86 -211t187 -76q93 0 155.5 42t114.5 136l178 -69q-68 -151 -179.5 -224t-279.5 -73q-115 0 -208.5 44.5t-152.5 119t-90.5 169.5t-31.5 199t31.5 199t90.5 170t152.5 119.5t208.5 44.5q112 0 204 -42t149.5 -113t89 -159.5t31.5 -185.5z
M322 635h503q-20 104 -83.5 164.5t-168.5 60.5q-93 0 -160 -58.5t-91 -166.5zM430 1329q0 62 41 104t104 42t105.5 -42t42.5 -104t-42.5 -103.5t-105.5 -41.5t-104 41.5t-41 103.5z" />
    <glyph glyph-name="Eogonek" unicode="&#x118;" horiz-adv-x="1159" 
d="M170 0v1434h864v-211h-637v-355h514v-209h-514v-448h658v-211h-885zM780 -193q0 55 31 108t82 85h162q-117 -99 -117 -162q0 -26 15.5 -41.5t41.5 -15.5q31 0 60 20l39 -141q-56 -29 -125 -29q-87 0 -138 47.5t-51 128.5z" />
    <glyph glyph-name="eogonek" unicode="&#x119;" horiz-adv-x="1136" 
d="M1047 549v-90h-736q14 -135 86 -211t187 -76q93 0 155.5 42t114.5 136l178 -69q-103 -233 -313 -281q-119 -98 -119 -162q0 -26 15.5 -41.5t41.5 -15.5q33 0 62 20l39 -141q-49 -29 -125 -29q-87 0 -138 47.5t-51 128.5q0 102 93 179q-106 6 -192.5 53t-141.5 121
t-84 165.5t-29 190.5q0 104 31.5 199t90.5 170t152.5 119.5t208.5 44.5q112 0 204 -42t149.5 -113t89 -159.5t31.5 -185.5zM322 635h503q-20 104 -83.5 164.5t-168.5 60.5q-93 0 -160 -58.5t-91 -166.5z" />
    <glyph glyph-name="Ecaron" unicode="&#x11a;" horiz-adv-x="1159" 
d="M170 0v1434h864v-211h-637v-355h514v-209h-514v-448h658v-211h-885zM578 1548l-314 336h209l135 -147l137 147h207l-311 -336h-63z" />
    <glyph glyph-name="ecaron" unicode="&#x11b;" horiz-adv-x="1136" 
d="M1047 549v-90h-736q14 -135 86 -211t187 -76q93 0 155.5 42t114.5 136l178 -69q-68 -151 -179.5 -224t-279.5 -73q-115 0 -208.5 44.5t-152.5 119t-90.5 169.5t-31.5 199t31.5 199t90.5 170t152.5 119.5t208.5 44.5q112 0 204 -42t149.5 -113t89 -159.5t31.5 -185.5z
M322 635h503q-20 104 -83.5 164.5t-168.5 60.5q-93 0 -160 -58.5t-91 -166.5zM545 1147l-314 336h209l135 -148l138 148h207l-312 -336h-63z" />
    <glyph glyph-name="Gcircumflex" unicode="&#x11c;" horiz-adv-x="1470" 
d="M98 717q0 172 54 313t146.5 231.5t212 139.5t253.5 49q222 0 374 -118t210 -324l-211 -56q-52 139 -146 213t-227 74q-197 0 -315.5 -137t-118.5 -385q0 -252 117 -387t313 -135q160 0 250.5 90.5t101.5 244.5h-285v193h506v-723h-190l-23 174q-53 -88 -148 -139
t-222 -51q-132 -2 -250 47t-208.5 140t-143 232.5t-50.5 313.5zM420 1548l313 336h64l311 -336h-207l-137 148l-135 -148h-209z" />
    <glyph glyph-name="gcircumflex" unicode="&#x11d;" horiz-adv-x="1026" 
d="M70 -94q0 132 90 209q-62 59 -62 161q0 67 33.5 121t93.5 86q-73 94 -73 217q0 156 106 252.5t264 96.5q104 0 187 -45l190 102l88 -150l-145 -75q51 -77 51 -181q0 -155 -106 -249.5t-265 -94.5q-88 0 -164 31q-59 -30 -59 -88q0 -41 28.5 -62.5t78.5 -21.5h227
q162 0 254 -76t92 -217q0 -178 -131 -266q-134 -90 -324 -90q-207 0 -330.5 90.5t-123.5 249.5zM688 700q0 77 -46.5 124.5t-119.5 47.5t-119.5 -47.5t-46.5 -124.5q0 -74 47 -121t119 -47t119 47t47 121zM764 -94q0 67 -44 97t-132 30h-160q-71 0 -115 8q-43 -43 -43 -123
q0 -79 67.5 -123.5t186.5 -44.5q112 0 176 41t64 115zM180 1147l314 336h63l311 -336h-206l-138 147l-135 -147h-209z" />
    <glyph glyph-name="Gbreve" unicode="&#x11e;" horiz-adv-x="1470" 
d="M98 717q0 172 54 313t146.5 231.5t212 139.5t253.5 49q222 0 374 -118t210 -324l-211 -56q-52 139 -146 213t-227 74q-197 0 -315.5 -137t-118.5 -385q0 -252 117 -387t313 -135q160 0 250.5 90.5t101.5 244.5h-285v193h506v-723h-190l-23 174q-53 -88 -148 -139
t-222 -51q-132 -2 -250 47t-208.5 140t-143 232.5t-50.5 313.5zM530 1835h162q0 -36 18.5 -56t53.5 -20t53.5 20t18.5 56h161q0 -99 -64 -161t-169 -62t-169.5 62t-64.5 161z" />
    <glyph glyph-name="gbreve" unicode="&#x11f;" horiz-adv-x="1026" 
d="M70 -94q0 132 90 209q-62 59 -62 161q0 67 33.5 121t93.5 86q-73 94 -73 217q0 156 106 252.5t264 96.5q104 0 187 -45l190 102l88 -150l-145 -75q51 -77 51 -181q0 -155 -106 -249.5t-265 -94.5q-88 0 -164 31q-59 -30 -59 -88q0 -41 28.5 -62.5t78.5 -21.5h227
q162 0 254 -76t92 -217q0 -178 -131 -266q-134 -90 -324 -90q-207 0 -330.5 90.5t-123.5 249.5zM688 700q0 77 -46.5 124.5t-119.5 47.5t-119.5 -47.5t-46.5 -124.5q0 -74 47 -121t119 -47t119 47t47 121zM764 -94q0 67 -44 97t-132 30h-160q-71 0 -115 8q-43 -43 -43 -123
q0 -79 67.5 -123.5t186.5 -44.5q112 0 176 41t64 115zM291 1434h162q0 -36 18 -56t53 -20t53.5 20t18.5 56h162q0 -99 -64.5 -161.5t-169.5 -62.5t-169 62.5t-64 161.5z" />
    <glyph glyph-name="Gdotaccent" unicode="&#x120;" horiz-adv-x="1470" 
d="M98 717q0 172 54 313t146.5 231.5t212 139.5t253.5 49q222 0 374 -118t210 -324l-211 -56q-52 139 -146 213t-227 74q-197 0 -315.5 -137t-118.5 -385q0 -252 117 -387t313 -135q160 0 250.5 90.5t101.5 244.5h-285v193h506v-723h-190l-23 174q-53 -88 -148 -139
t-222 -51q-132 -2 -250 47t-208.5 140t-143 232.5t-50.5 313.5zM618 1731q0 62 41.5 103.5t104.5 41.5t105 -41.5t42 -103.5t-42 -104t-105 -42t-104.5 42t-41.5 104z" />
    <glyph glyph-name="gdotaccent" unicode="&#x121;" horiz-adv-x="1026" 
d="M70 -94q0 132 90 209q-62 59 -62 161q0 67 33.5 121t93.5 86q-73 94 -73 217q0 156 106 252.5t264 96.5q104 0 187 -45l190 102l88 -150l-145 -75q51 -77 51 -181q0 -155 -106 -249.5t-265 -94.5q-88 0 -164 31q-59 -30 -59 -88q0 -41 28.5 -62.5t78.5 -21.5h227
q162 0 254 -76t92 -217q0 -178 -131 -266q-134 -90 -324 -90q-207 0 -330.5 90.5t-123.5 249.5zM688 700q0 77 -46.5 124.5t-119.5 47.5t-119.5 -47.5t-46.5 -124.5q0 -74 47 -121t119 -47t119 47t47 121zM764 -94q0 67 -44 97t-132 30h-160q-71 0 -115 8q-43 -43 -43 -123
q0 -79 67.5 -123.5t186.5 -44.5q112 0 176 41t64 115zM377 1329q0 62 41 104t104 42t105.5 -42t42.5 -104t-42.5 -103.5t-105.5 -41.5t-104 41.5t-41 103.5z" />
    <glyph glyph-name="uni0122" unicode="&#x122;" horiz-adv-x="1470" 
d="M98 717q0 172 54 313t146.5 231.5t212 139.5t253.5 49q222 0 374 -118t210 -324l-211 -56q-52 139 -146 213t-227 74q-197 0 -315.5 -137t-118.5 -385q0 -252 117 -387t313 -135q160 0 250.5 90.5t101.5 244.5h-285v193h506v-723h-190l-23 174q-53 -88 -148 -139
t-222 -51q-132 -2 -250 47t-208.5 140t-143 232.5t-50.5 313.5zM543 -473l88 367h272l-241 -367h-119z" />
    <glyph glyph-name="uni0123" unicode="&#x123;" horiz-adv-x="1026" 
d="M70 -94q0 132 90 209q-62 59 -62 161q0 67 33.5 121t93.5 86q-73 94 -73 217q0 156 106 252.5t264 96.5q104 0 187 -45l190 102l88 -150l-145 -75q51 -77 51 -181q0 -155 -106 -249.5t-265 -94.5q-88 0 -164 31q-59 -30 -59 -88q0 -41 28.5 -62.5t78.5 -21.5h227
q162 0 254 -76t92 -217q0 -178 -131 -266q-134 -90 -324 -90q-207 0 -330.5 90.5t-123.5 249.5zM688 700q0 77 -46.5 124.5t-119.5 47.5t-119.5 -47.5t-46.5 -124.5q0 -74 47 -121t119 -47t119 47t47 121zM764 -94q0 67 -44 97t-132 30h-160q-71 0 -115 8q-43 -43 -43 -123
q0 -79 67.5 -123.5t186.5 -44.5q112 0 176 41t64 115zM399 1200l193 330h141l-86 -330h-248z" />
    <glyph glyph-name="Hcircumflex" unicode="&#x124;" horiz-adv-x="1413" 
d="M170 0v1434h227v-564h621v564h225v-1434h-225v659h-621v-659h-227zM362 1548l314 336h63l312 -336h-207l-137 148l-136 -148h-209z" />
    <glyph glyph-name="hcircumflex" unicode="&#x125;" horiz-adv-x="1173" 
d="M147 0v1450h218v-602q51 94 141.5 147.5t198.5 53.5q153 0 237 -83t84 -237v-729h-217v662q0 198 -172 198q-113 0 -192.5 -113.5t-79.5 -308.5v-438h-218zM143 1548l314 336h63l311 -336h-206l-138 148l-135 -148h-209z" />
    <glyph glyph-name="Hbar" unicode="&#x126;" horiz-adv-x="1413" 
d="M1378 1249v-190h-135v-1059h-225v659h-621v-659h-227v1059h-135v190h135v185h227v-185h621v185h225v-185h135zM1018 870v189h-621v-189h621z" />
    <glyph glyph-name="hbar" unicode="&#x127;" horiz-adv-x="1173" 
d="M1026 729v-729h-217v662q0 198 -172 198q-113 0 -192.5 -113.5t-79.5 -308.5v-438h-218v1157h-124v168h124v125h218v-125h264v-168h-264v-309q51 94 141.5 147.5t198.5 53.5q153 0 237 -83t84 -237z" />
    <glyph glyph-name="Itilde" unicode="&#x128;" horiz-adv-x="567" 
d="M170 0v1434h227v-1434h-227zM27 1575l-121 100q37 76 100.5 122t134.5 46q47 0 81 -11t79 -36q30 -15 43.5 -21t31.5 -11t38 -5q67 0 129 86l121 -100q-37 -75 -102 -121.5t-136 -46.5q-46 0 -78 10.5t-80 36.5q-31 16 -43.5 21.5t-30.5 10.5t-38 5q-67 0 -129 -86z" />
    <glyph glyph-name="itilde" unicode="&#x129;" horiz-adv-x="512" 
d="M147 0v1032h218v-1032h-218zM-2 1174l-121 100q37 76 101 122t135 46q46 0 80 -11t79 -36q30 -15 43.5 -21t31.5 -11t38 -5q67 0 129 86l121 -101q-37 -75 -102 -121t-136 -46q-46 0 -77.5 10.5t-79.5 36.5q-30 15 -43.5 21t-31.5 11t-38 5q-67 0 -129 -86z" />
    <glyph glyph-name="Imacron" unicode="&#x12a;" horiz-adv-x="567" 
d="M170 0v1434h227v-1434h-227zM18 1624v174h533v-174h-533z" />
    <glyph glyph-name="imacron" unicode="&#x12b;" horiz-adv-x="512" 
d="M147 0v1032h218v-1032h-218zM-10 1223v174h532v-174h-532z" />
    <glyph glyph-name="Ibreve" unicode="&#x12c;" horiz-adv-x="567" 
d="M170 0v1434h227v-1434h-227zM49 1835h162q0 -36 18.5 -56t53.5 -20t53 20t18 56h162q0 -99 -64 -161t-169 -62t-169.5 62t-64.5 161z" />
    <glyph glyph-name="ibreve" unicode="&#x12d;" horiz-adv-x="512" 
d="M147 0v1032h218v-1032h-218zM23 1434h161q0 -36 18.5 -56t53.5 -20t53.5 20t18.5 56h161q0 -99 -64 -161.5t-169 -62.5t-169 62.5t-64 161.5z" />
    <glyph glyph-name="Iogonek" unicode="&#x12e;" horiz-adv-x="567" 
d="M170 0v1434h227v-1434h-227zM123 -193q0 55 31 108t82 85h161q-116 -98 -116 -162q0 -26 15.5 -41.5t41.5 -15.5q30 0 59 20l39 -141q-56 -29 -125 -29q-87 0 -137.5 47t-50.5 129z" />
    <glyph glyph-name="iogonek" unicode="&#x12f;" horiz-adv-x="512" 
d="M147 0v1032h218v-1032h-218zM111 1329q0 62 41 104t104 42t105 -42t42 -104t-42 -103.5t-105 -41.5t-104 41.5t-41 103.5zM90 -193q0 55 31 108t82 85h162q-117 -99 -117 -162q0 -26 15.5 -41.5t41.5 -15.5q31 0 60 20l38 -141q-56 -29 -124 -29q-87 0 -138 47.5
t-51 128.5z" />
    <glyph glyph-name="Idot" unicode="&#x130;" horiz-adv-x="567" 
d="M170 0v1434h227v-1434h-227zM137 1731q0 62 41.5 103.5t104.5 41.5t105 -41.5t42 -103.5t-42 -104t-105 -42t-104.5 42t-41.5 104z" />
    <glyph glyph-name="dotlessi" unicode="&#x131;" horiz-adv-x="512" 
d="M147 0v1032h218v-1032h-218z" />
    <glyph glyph-name="IJ" unicode="&#x132;" horiz-adv-x="1634" 
d="M170 0v1434h227v-1434h-227zM612 352l226 49q38 -206 204 -206q215 0 215 260v979h228v-955q0 -252 -114 -373.5t-329 -121.5q-180 0 -293 99t-137 269z" />
    <glyph glyph-name="ij" unicode="&#x133;" horiz-adv-x="1024" 
d="M147 0v1032h218v-1032h-218zM111 1329q0 62 41 104t104 42t105 -42t42 -104t-42 -103.5t-105 -41.5t-104 41.5t-41 103.5zM498 -434l-54 192q114 30 164.5 90.5t50.5 180.5v1003h218v-989q0 -207 -92 -320.5t-287 -156.5zM623 1329q0 62 41 104t104 42t105 -42t42 -104
t-42 -103.5t-105 -41.5t-104 41.5t-41 103.5z" />
    <glyph glyph-name="Jcircumflex" unicode="&#x134;" horiz-adv-x="1075" 
d="M53 352l226 49q38 -206 204 -206q215 0 215 260v979h228v-955q0 -252 -114 -373.5t-329 -121.5q-180 0 -293 99t-137 269zM467 1548l313 336h64l311 -336h-207l-137 148l-135 -148h-209z" />
    <glyph glyph-name="jcircumflex" unicode="&#x135;" horiz-adv-x="512" 
d="M-14 -434l-54 192q114 30 164.5 90.5t50.5 180.5v1003h218v-989q0 -207 -92 -320.5t-287 -156.5zM-88 1147l313 336h64l311 -336h-207l-137 147l-135 -147h-209z" />
    <glyph glyph-name="uni0136" unicode="&#x136;" horiz-adv-x="1257" 
d="M170 0v1434h227v-557l510 557h281l-584 -641l629 -793h-287l-549 707v-707h-227zM440 -473l88 367h273l-242 -367h-119z" />
    <glyph glyph-name="uni0137" unicode="&#x137;" horiz-adv-x="1042" 
d="M147 0v1450h218v-838l364 420h266l-422 -475l453 -557h-266l-395 504v-504h-218zM332 -473l88 367h272l-241 -367h-119z" />
    <glyph glyph-name="kgreenlandic" unicode="&#x138;" horiz-adv-x="1042" 
d="M147 0v1032h218v-420l364 420h266l-422 -475l453 -557h-266l-395 504v-504h-218z" />
    <glyph glyph-name="Lacute" unicode="&#x139;" horiz-adv-x="1097" 
d="M170 0v1434h227v-1223h627v-211h-854zM197 1536l139 311h297l-277 -311h-159z" />
    <glyph glyph-name="lacute" unicode="&#x13a;" horiz-adv-x="512" 
d="M147 0v1450h218v-1450h-218zM170 1536l139 311h297l-276 -311h-160z" />
    <glyph glyph-name="uni013B" unicode="&#x13b;" horiz-adv-x="1097" 
d="M170 0v1434h227v-1223h627v-211h-854zM377 -473l88 367h272l-241 -367h-119z" />
    <glyph glyph-name="uni013C" unicode="&#x13c;" horiz-adv-x="512" 
d="M147 0v1450h218v-1450h-218zM33 -473l88 367h272l-241 -367h-119z" />
    <glyph glyph-name="Lcaron" unicode="&#x13d;" horiz-adv-x="1097" 
d="M170 0v1434h227v-1223h627v-211h-854zM743 1110l56 367h241l-157 -367h-140z" />
    <glyph glyph-name="lcaron" unicode="&#x13e;" horiz-adv-x="786" 
d="M147 0v1450h218v-1450h-218zM489 1110l56 367h241l-157 -367h-140z" />
    <glyph glyph-name="Ldot" unicode="&#x13f;" horiz-adv-x="1097" 
d="M170 0v1434h227v-1223h627v-211h-854zM625 743q0 66 41.5 109t107.5 43t110 -43t44 -109t-44 -108.5t-110 -42.5q-64 0 -106.5 43t-42.5 108z" />
    <glyph glyph-name="ldot" unicode="&#x140;" horiz-adv-x="954" 
d="M147 0v1450h218v-1450h-218zM592 743q0 66 41.5 109t107.5 43t110 -43t44 -109t-44 -108.5t-110 -42.5q-63 0 -106 43t-43 108z" />
    <glyph glyph-name="Lslash" unicode="&#x141;" horiz-adv-x="1097" 
d="M397 211h627v-211h-854v451l-152 -84l-90 165l242 136v766h227v-639l195 108l92 -166l-287 -159v-367z" />
    <glyph glyph-name="lslash" unicode="&#x142;" horiz-adv-x="512" 
d="M575 782l-210 -114v-668h-218v549l-116 -64l-92 166l208 115v684h218v-565l116 63z" />
    <glyph glyph-name="Nacute" unicode="&#x143;" horiz-adv-x="1392" 
d="M170 0v1434h244l581 -1028v1028h228v-1434h-244l-582 1026v-1026h-227zM610 1536l140 311h297l-277 -311h-160z" />
    <glyph glyph-name="nacute" unicode="&#x144;" horiz-adv-x="1159" 
d="M147 0v1032h218v-180q58 92 144 144.5t185 52.5q145 0 231.5 -84.5t86.5 -235.5v-729h-215v672q0 93 -43.5 140.5t-124.5 47.5q-111 0 -187.5 -119t-76.5 -317v-424h-218zM514 1135l139 311h297l-276 -311h-160z" />
    <glyph glyph-name="uni0145" unicode="&#x145;" horiz-adv-x="1392" 
d="M170 0v1434h244l581 -1028v1028h228v-1434h-244l-582 1026v-1026h-227zM473 -473l88 367h273l-242 -367h-119z" />
    <glyph glyph-name="uni0146" unicode="&#x146;" horiz-adv-x="1159" 
d="M147 0v1032h218v-180q58 92 144 144.5t185 52.5q145 0 231.5 -84.5t86.5 -235.5v-729h-215v672q0 93 -43.5 140.5t-124.5 47.5q-111 0 -187.5 -119t-76.5 -317v-424h-218zM354 -473l88 367h273l-242 -367h-119z" />
    <glyph glyph-name="Ncaron" unicode="&#x147;" horiz-adv-x="1392" 
d="M170 0v1434h244l581 -1028v1028h228v-1434h-244l-582 1026v-1026h-227zM666 1548l-314 336h209l135 -147l138 147h206l-311 -336h-63z" />
    <glyph glyph-name="ncaron" unicode="&#x148;" horiz-adv-x="1159" 
d="M147 0v1032h218v-180q58 92 144 144.5t185 52.5q145 0 231.5 -84.5t86.5 -235.5v-729h-215v672q0 93 -43.5 140.5t-124.5 47.5q-111 0 -187.5 -119t-76.5 -317v-424h-218zM571 1147l-313 336h209l135 -148l137 148h207l-311 -336h-64z" />
    <glyph glyph-name="Eng" unicode="&#x14a;" horiz-adv-x="1392" 
d="M788 -434v211q101 0 153.5 51t53.5 168v4l-598 1026v-1026h-227v1434h244l581 -1016v1016h228v-1434q0 -217 -113.5 -325.5t-321.5 -108.5z" />
    <glyph glyph-name="eng" unicode="&#x14b;" horiz-adv-x="1159" 
d="M633 -434l-51 192q114 30 164.5 90.5t50.5 180.5v643q0 93 -43.5 140.5t-124.5 47.5q-111 0 -187.5 -119t-76.5 -317v-424h-218v1032h218v-180q58 92 144 144.5t185 52.5q145 0 231.5 -84.5t86.5 -235.5v-686q0 -207 -92 -320.5t-287 -156.5z" />
    <glyph glyph-name="Omacron" unicode="&#x14c;" horiz-adv-x="1519" 
d="M98 717q-2 171 50.5 312t143.5 232.5t211.5 141t256.5 47.5q136 2 256.5 -47.5t211.5 -141t143 -232.5t50 -312q2 -171 -50 -312t-143 -232.5t-211.5 -141t-256.5 -47.5q-136 -2 -256.5 47.5t-211.5 141t-143.5 232.5t-50.5 312zM1190 717q0 251 -120.5 386.5
t-309.5 135.5t-309.5 -135.5t-120.5 -386.5t120.5 -386.5t309.5 -135.5t309.5 135.5t120.5 386.5zM494 1624v174h532v-174h-532z" />
    <glyph glyph-name="omacron" unicode="&#x14d;" horiz-adv-x="1204" 
d="M90 516q0 148 61 268.5t179 192.5t272 72q153 0 271 -72t179.5 -192.5t61.5 -268.5t-61.5 -268.5t-179 -192t-271.5 -71.5t-272 71.5t-179 192t-61 268.5zM887 516q0 143 -76 244q-75 100 -209 100q-136 0 -211 -100q-76 -101 -76 -244t76 -244q75 -100 211 -100
q134 0 209 100q76 101 76 244zM336 1223v174h532v-174h-532z" />
    <glyph glyph-name="Obreve" unicode="&#x14e;" horiz-adv-x="1519" 
d="M98 717q-2 171 50.5 312t143.5 232.5t211.5 141t256.5 47.5q136 2 256.5 -47.5t211.5 -141t143 -232.5t50 -312q2 -171 -50 -312t-143 -232.5t-211.5 -141t-256.5 -47.5q-136 -2 -256.5 47.5t-211.5 141t-143.5 232.5t-50.5 312zM1190 717q0 251 -120.5 386.5
t-309.5 135.5t-309.5 -135.5t-120.5 -386.5t120.5 -386.5t309.5 -135.5t309.5 135.5t120.5 386.5zM526 1835h162q0 -36 18.5 -56t53.5 -20t53 20t18 56h162q0 -99 -64 -161t-169 -62t-169.5 62t-64.5 161z" />
    <glyph glyph-name="obreve" unicode="&#x14f;" horiz-adv-x="1204" 
d="M90 516q0 148 61 268.5t179 192.5t272 72q153 0 271 -72t179.5 -192.5t61.5 -268.5t-61.5 -268.5t-179 -192t-271.5 -71.5t-272 71.5t-179 192t-61 268.5zM887 516q0 143 -76 244q-75 100 -209 100q-136 0 -211 -100q-76 -101 -76 -244t76 -244q75 -100 211 -100
q134 0 209 100q76 101 76 244zM369 1434h161q0 -36 18.5 -56t53.5 -20t53.5 20t18.5 56h162q0 -99 -64.5 -161.5t-169.5 -62.5t-169 62.5t-64 161.5z" />
    <glyph glyph-name="Ohungarumlaut" unicode="&#x150;" horiz-adv-x="1519" 
d="M98 717q-2 171 50.5 312t143.5 232.5t211.5 141t256.5 47.5q136 2 256.5 -47.5t211.5 -141t143 -232.5t50 -312q2 -171 -50 -312t-143 -232.5t-211.5 -141t-256.5 -47.5q-136 -2 -256.5 47.5t-211.5 141t-143.5 232.5t-50.5 312zM1190 717q0 251 -120.5 386.5
t-309.5 135.5t-309.5 -135.5t-120.5 -386.5t120.5 -386.5t309.5 -135.5t309.5 135.5t120.5 386.5zM477 1548l135 299h297l-268 -299h-164zM862 1548l133 299h299l-268 -299h-164z" />
    <glyph glyph-name="ohungarumlaut" unicode="&#x151;" horiz-adv-x="1204" 
d="M90 516q0 148 61 268.5t179 192.5t272 72q153 0 271 -72t179.5 -192.5t61.5 -268.5t-61.5 -268.5t-179 -192t-271.5 -71.5t-272 71.5t-179 192t-61 268.5zM887 516q0 143 -76 244q-75 100 -209 100q-136 0 -211 -100q-76 -101 -76 -244t76 -244q75 -100 211 -100
q134 0 209 100q76 101 76 244zM279 1147l135 299h297l-269 -299h-163zM664 1147l133 299h299l-269 -299h-163z" />
    <glyph glyph-name="OE" unicode="&#x152;" horiz-adv-x="2183" 
d="M98 717q-2 171 50.5 312t143.5 232.5t211.5 141t256.5 47.5q256 0 434 -166v150h862v-211h-637v-355h514v-209h-514v-448h658v-211h-883v147q-180 -163 -434 -163q-136 -2 -256.5 47.5t-211.5 141t-143.5 232.5t-50.5 312zM1192 717q0 127 -33.5 228t-92.5 164.5
t-137 96.5t-169 33q-189 0 -309.5 -135.5t-120.5 -386.5t120.5 -386.5t309.5 -135.5q91 0 169 33t137 96.5t92.5 164.5t33.5 228z" />
    <glyph glyph-name="oe" unicode="&#x153;" horiz-adv-x="1935" 
d="M90 516q0 148 61 268.5t179 192.5t272 72q123 0 224.5 -48.5t170.5 -136.5q135 185 375 185q112 0 203.5 -42t149.5 -113t89 -159.5t31 -185.5v-90h-731q5 -130 76 -208.5t192 -78.5q94 0 158 41.5t111 132.5l178 -65q-68 -151 -178.5 -224t-278.5 -73q-121 0 -217.5 48
t-159.5 136q-69 -88 -169.5 -136t-223.5 -48q-154 0 -272 71.5t-179 192t-61 268.5zM887 516q0 143 -78.5 243.5t-206.5 100.5q-136 0 -211 -100q-76 -101 -76 -244t76 -244q75 -100 211 -100q134 0 209 100q76 101 76 244zM1120 635h504q-21 104 -85.5 164.5t-166.5 60.5
q-97 0 -164 -62.5t-88 -162.5z" />
    <glyph glyph-name="Racute" unicode="&#x154;" horiz-adv-x="1284" 
d="M170 0v1434h504q203 0 315.5 -105t112.5 -289q0 -148 -73 -246t-208 -130l412 -664h-254l-404 645h-178v-645h-227zM397 856h277q96 0 148 46t52 138q0 183 -200 183h-277v-367zM436 1536l139 311h297l-276 -311h-160z" />
    <glyph glyph-name="racute" unicode="&#x155;" horiz-adv-x="831" 
d="M147 0v1032h218v-172q50 91 130 140t175 49q56 0 133 -25l-41 -201q-54 31 -119 31q-126 0 -202 -121.5t-76 -355.5v-377h-218zM360 1135l140 311h297l-277 -311h-160z" />
    <glyph glyph-name="uni0156" unicode="&#x156;" horiz-adv-x="1284" 
d="M170 0v1434h504q203 0 315.5 -105t112.5 -289q0 -148 -73 -246t-208 -130l412 -664h-254l-404 645h-178v-645h-227zM397 856h277q96 0 148 46t52 138q0 183 -200 183h-277v-367zM451 -473l88 367h272l-242 -367h-118z" />
    <glyph glyph-name="uni0157" unicode="&#x157;" horiz-adv-x="831" 
d="M147 0v1032h218v-172q50 91 130 140t175 49q56 0 133 -25l-41 -201q-54 31 -119 31q-126 0 -202 -121.5t-76 -355.5v-377h-218zM33 -473l88 367h272l-241 -367h-119z" />
    <glyph glyph-name="Rcaron" unicode="&#x158;" horiz-adv-x="1284" 
d="M170 0v1434h504q203 0 315.5 -105t112.5 -289q0 -148 -73 -246t-208 -130l412 -664h-254l-404 645h-178v-645h-227zM397 856h277q96 0 148 46t52 138q0 183 -200 183h-277v-367zM494 1548l-314 336h209l135 -147l138 147h206l-311 -336h-63z" />
    <glyph glyph-name="rcaron" unicode="&#x159;" horiz-adv-x="831" 
d="M147 0v1032h218v-172q50 91 130 140t175 49q56 0 133 -25l-41 -201q-54 31 -119 31q-126 0 -202 -121.5t-76 -355.5v-377h-218zM416 1147l-314 336h209l135 -148l138 148h207l-312 -336h-63z" />
    <glyph glyph-name="Sacute" unicode="&#x15a;" horiz-adv-x="1073" 
d="M72 381l186 115q79 -301 299 -301q95 0 151 52.5t56 149.5q0 63 -37 109q-34 44 -85 75.5t-165 88.5l-37 18q-140 71 -212 162.5t-72 230.5q0 157 109 263t274 106q279 0 387 -248l-183 -117q-59 154 -204 154q-69 0 -116.5 -43.5t-47.5 -105.5q0 -64 39 -109
q36 -44 90.5 -76.5t161.5 -79.5q167 -77 247 -171t80 -246q0 -190 -123.5 -307t-318.5 -117q-181 0 -312.5 113t-166.5 284zM453 1536l139 311h297l-277 -311h-159z" />
    <glyph glyph-name="sacute" unicode="&#x15b;" horiz-adv-x="897" 
d="M78 264l174 92q64 -184 223 -184q61 0 99 33t38 92q0 51 -51 88t-166 82q-126 46 -188 116.5t-62 182.5q0 120 90.5 201.5t225.5 81.5q215 0 311 -166l-133 -121q-64 98 -176 98q-50 0 -82.5 -27t-32.5 -71q0 -45 47 -80t170 -82q252 -88 252 -291q0 -149 -93.5 -237
t-248.5 -88q-154 0 -258.5 78.5t-138.5 201.5zM373 1135l139 311h297l-277 -311h-159z" />
    <glyph glyph-name="Scircumflex" unicode="&#x15c;" horiz-adv-x="1073" 
d="M72 381l186 115q79 -301 299 -301q95 0 151 52.5t56 149.5q0 63 -37 109q-34 44 -85 75.5t-165 88.5l-37 18q-140 71 -212 162.5t-72 230.5q0 157 109 263t274 106q279 0 387 -248l-183 -117q-59 154 -204 154q-69 0 -116.5 -43.5t-47.5 -105.5q0 -64 39 -109
q36 -44 90.5 -76.5t161.5 -79.5q167 -77 247 -171t80 -246q0 -190 -123.5 -307t-318.5 -117q-181 0 -312.5 113t-166.5 284zM195 1548l313 336h63l312 -336h-207l-137 148l-136 -148h-208z" />
    <glyph glyph-name="scircumflex" unicode="&#x15d;" horiz-adv-x="897" 
d="M78 264l174 92q64 -184 223 -184q61 0 99 33t38 92q0 51 -51 88t-166 82q-126 46 -188 116.5t-62 182.5q0 120 90.5 201.5t225.5 81.5q215 0 311 -166l-133 -121q-64 98 -176 98q-50 0 -82.5 -27t-32.5 -71q0 -45 47 -80t170 -82q252 -88 252 -291q0 -149 -93.5 -237
t-248.5 -88q-154 0 -258.5 78.5t-138.5 201.5zM117 1147l313 336h64l311 -336h-207l-137 147l-135 -147h-209z" />
    <glyph glyph-name="Scedilla" unicode="&#x15e;" horiz-adv-x="1073" 
d="M72 381l186 115q79 -301 299 -301q95 0 151 52.5t56 149.5q0 63 -37 109q-34 44 -85 75.5t-165 88.5l-37 18q-140 71 -212 162.5t-72 230.5q0 157 109 263t274 106q279 0 387 -248l-183 -117q-59 154 -204 154q-69 0 -116.5 -43.5t-47.5 -105.5q0 -64 39 -109
q36 -44 90.5 -76.5t161.5 -79.5q167 -77 247 -171t80 -246q0 -190 -123.5 -307t-318.5 -117q-181 0 -312.5 113t-166.5 284zM465 -512l-256 113l262 276h162z" />
    <glyph glyph-name="scedilla" unicode="&#x15f;" horiz-adv-x="897" 
d="M78 264l174 92q64 -184 223 -184q61 0 99 33t38 92q0 51 -51 88t-166 82q-126 46 -188 116.5t-62 182.5q0 120 90.5 201.5t225.5 81.5q215 0 311 -166l-133 -121q-64 98 -176 98q-50 0 -82.5 -27t-32.5 -71q0 -45 47 -80t170 -82q252 -88 252 -291q0 -149 -93.5 -237
t-248.5 -88q-154 0 -258.5 78.5t-138.5 201.5zM395 -512l-256 113l262 276h162z" />
    <glyph glyph-name="Scaron" unicode="&#x160;" horiz-adv-x="1073" 
d="M72 381l186 115q79 -301 299 -301q95 0 151 52.5t56 149.5q0 63 -37 109q-34 44 -85 75.5t-165 88.5l-37 18q-140 71 -212 162.5t-72 230.5q0 157 109 263t274 106q279 0 387 -248l-183 -117q-59 154 -204 154q-69 0 -116.5 -43.5t-47.5 -105.5q0 -64 39 -109
q36 -44 90.5 -76.5t161.5 -79.5q167 -77 247 -171t80 -246q0 -190 -123.5 -307t-318.5 -117q-181 0 -312.5 113t-166.5 284zM508 1548l-313 336h208l136 -147l137 147h207l-312 -336h-63z" />
    <glyph glyph-name="scaron" unicode="&#x161;" horiz-adv-x="897" 
d="M78 264l174 92q64 -184 223 -184q61 0 99 33t38 92q0 51 -51 88t-166 82q-126 46 -188 116.5t-62 182.5q0 120 90.5 201.5t225.5 81.5q215 0 311 -166l-133 -121q-64 98 -176 98q-50 0 -82.5 -27t-32.5 -71q0 -45 47 -80t170 -82q252 -88 252 -291q0 -149 -93.5 -237
t-248.5 -88q-154 0 -258.5 78.5t-138.5 201.5zM430 1147l-313 336h209l135 -148l137 148h207l-311 -336h-64z" />
    <glyph glyph-name="uni0162" unicode="&#x162;" horiz-adv-x="1148" 
d="M461 0v1223h-408v211h1043v-211h-408v-1223h-227zM489 -512l-256 113l263 276h161z" />
    <glyph glyph-name="uni0163" unicode="&#x163;" horiz-adv-x="741" 
d="M186 344v500h-166v188h166v281l217 137v-418h275v-188h-275v-504q0 -89 34.5 -128.5t103.5 -39.5q61 0 108 27l51 -179q-71 -36 -170 -36q-164 0 -254 91.5t-90 268.5zM391 -512l-256 113l262 276h162z" />
    <glyph glyph-name="Tcaron" unicode="&#x164;" horiz-adv-x="1148" 
d="M461 0v1223h-408v211h1043v-211h-408v-1223h-227zM543 1548l-314 336h209l135 -147l138 147h207l-312 -336h-63z" />
    <glyph glyph-name="tcaron" unicode="&#x165;" horiz-adv-x="741" 
d="M186 344v500h-166v188h166v281l217 137v-418h275v-188h-275v-504q0 -89 34.5 -128.5t103.5 -39.5q61 0 108 27l51 -179q-71 -36 -170 -36q-164 0 -254 91.5t-90 268.5zM541 1110l55 367h242l-158 -367h-139z" />
    <glyph glyph-name="Tbar" unicode="&#x166;" horiz-adv-x="1148" 
d="M1096 1223h-408v-410h184v-192h-184v-621h-227v621h-185v192h185v410h-408v211h1043v-211z" />
    <glyph glyph-name="tbar" unicode="&#x167;" horiz-adv-x="741" 
d="M649 199l51 -179q-71 -36 -170 -36q-164 0 -254 91.5t-90 268.5v135h-147v168h147v197h-166v188h166v281l217 137v-418h275v-188h-275v-197h242v-168h-242v-139q0 -89 34.5 -128.5t103.5 -39.5q61 0 108 27z" />
    <glyph glyph-name="Utilde" unicode="&#x168;" horiz-adv-x="1345" 
d="M152 518v916h227v-922q0 -153 75 -235t220 -82t219 81.5t74 235.5v922h227v-916q0 -257 -140.5 -395.5t-379.5 -138.5q-240 0 -381 138.5t-141 395.5zM416 1575l-121 100q37 76 100.5 122t134.5 46q47 0 81 -11t79 -36q30 -15 43.5 -21t31.5 -11t38 -5q67 0 129 86
l121 -100q-37 -75 -102 -121.5t-136 -46.5q-46 0 -78 10.5t-80 36.5q-31 16 -43.5 21.5t-30.5 10.5t-38 5q-67 0 -129 -86z" />
    <glyph glyph-name="utilde" unicode="&#x169;" horiz-adv-x="1159" 
d="M147 303v729h218v-670q0 -190 165 -190q114 0 190.5 119t76.5 317v424h215v-1032h-215v180q-61 -92 -147.5 -144t-184.5 -52q-145 0 -231.5 84t-86.5 235zM322 1174l-121 100q37 76 100.5 122t134.5 46q47 0 81 -11t79 -36q30 -15 43.5 -21t31.5 -11t38 -5q67 0 129 86
l120 -101q-37 -75 -101.5 -121t-135.5 -46q-46 0 -78 10.5t-80 36.5q-31 16 -43.5 21.5t-30.5 10.5t-38 5q-67 0 -129 -86z" />
    <glyph glyph-name="Umacron" unicode="&#x16a;" horiz-adv-x="1345" 
d="M152 518v916h227v-922q0 -153 75 -235t220 -82t219 81.5t74 235.5v922h227v-916q0 -257 -140.5 -395.5t-379.5 -138.5q-240 0 -381 138.5t-141 395.5zM408 1624v174h532v-174h-532z" />
    <glyph glyph-name="umacron" unicode="&#x16b;" horiz-adv-x="1159" 
d="M147 303v729h218v-670q0 -190 165 -190q114 0 190.5 119t76.5 317v424h215v-1032h-215v180q-61 -92 -147.5 -144t-184.5 -52q-145 0 -231.5 84t-86.5 235zM313 1223v174h533v-174h-533z" />
    <glyph glyph-name="Ubreve" unicode="&#x16c;" horiz-adv-x="1345" 
d="M152 518v916h227v-922q0 -153 75 -235t220 -82t219 81.5t74 235.5v922h227v-916q0 -257 -140.5 -395.5t-379.5 -138.5q-240 0 -381 138.5t-141 395.5zM438 1835h162q0 -36 18.5 -56t53.5 -20t53 20t18 56h162q0 -99 -64 -161t-169 -62t-169.5 62t-64.5 161z" />
    <glyph glyph-name="ubreve" unicode="&#x16d;" horiz-adv-x="1159" 
d="M147 303v729h218v-670q0 -190 165 -190q114 0 190.5 119t76.5 317v424h215v-1032h-215v180q-61 -92 -147.5 -144t-184.5 -52q-145 0 -231.5 84t-86.5 235zM346 1434h162q0 -36 18.5 -56t53.5 -20t53 20t18 56h162q0 -99 -64 -161.5t-169 -62.5t-169.5 62.5t-64.5 161.5z
" />
    <glyph glyph-name="Uring" unicode="&#x16e;" horiz-adv-x="1345" 
d="M152 518v916h227v-922q0 -153 75 -235t220 -82t219 81.5t74 235.5v922h227v-916q0 -257 -140.5 -395.5t-379.5 -138.5q-240 0 -381 138.5t-141 395.5zM461 1741q0 88 60.5 147.5t150.5 59.5q91 0 152 -59.5t61 -147.5q0 -87 -61 -145t-152 -58t-151 57.5t-60 145.5z
M750 1743q0 35 -21.5 56.5t-56.5 21.5q-32 0 -54 -23t-22 -55q0 -35 21.5 -56.5t54.5 -21.5q35 0 56.5 21.5t21.5 56.5z" />
    <glyph glyph-name="uring" unicode="&#x16f;" horiz-adv-x="1159" 
d="M147 303v729h218v-670q0 -190 165 -190q114 0 190.5 119t76.5 317v424h215v-1032h-215v180q-61 -92 -147.5 -144t-184.5 -52q-145 0 -231.5 84t-86.5 235zM367 1339q0 88 60.5 147.5t150.5 59.5q91 0 152 -59.5t61 -147.5q0 -87 -61 -144.5t-152 -57.5t-151 57t-60 145z
M655 1341q0 35 -21 56.5t-56 21.5q-32 0 -54 -23t-22 -55q0 -35 21.5 -56t54.5 -21q35 0 56 21t21 56z" />
    <glyph glyph-name="Uhungarumlaut" unicode="&#x170;" horiz-adv-x="1345" 
d="M152 518v916h227v-922q0 -153 75 -235t220 -82t219 81.5t74 235.5v922h227v-916q0 -257 -140.5 -395.5t-379.5 -138.5q-240 0 -381 138.5t-141 395.5zM389 1548l135 299h297l-268 -299h-164zM774 1548l133 299h299l-268 -299h-164z" />
    <glyph glyph-name="uhungarumlaut" unicode="&#x171;" horiz-adv-x="1159" 
d="M147 303v729h218v-670q0 -190 165 -190q114 0 190.5 119t76.5 317v424h215v-1032h-215v180q-61 -92 -147.5 -144t-184.5 -52q-145 0 -231.5 84t-86.5 235zM256 1147l135 299h297l-268 -299h-164zM641 1147l133 299h299l-268 -299h-164z" />
    <glyph glyph-name="Uogonek" unicode="&#x172;" horiz-adv-x="1345" 
d="M967 1434h227v-916q0 -213 -98 -346t-273 -172q-118 -97 -118 -162q0 -26 15.5 -41.5t41.5 -15.5q32 0 61 20l39 -141q-49 -29 -125 -29q-87 0 -137.5 47t-50.5 129q0 50 24.5 97.5t67.5 79.5q-226 11 -357.5 149t-131.5 385v916h227v-922q0 -153 75 -235t220 -82
t219 81.5t74 235.5v922z" />
    <glyph glyph-name="uogonek" unicode="&#x173;" horiz-adv-x="1159" 
d="M1012 -199l39 -141q-49 -29 -125 -29q-87 0 -138 47.5t-51 128.5q0 55 31 108t82 85h-53v180q-61 -92 -147.5 -144t-184.5 -52q-145 0 -231.5 84t-86.5 235v729h218v-670q0 -190 165 -190q114 0 190.5 119t76.5 317v424h215v-1032q-119 -98 -119 -162q0 -26 15.5 -41.5
t41.5 -15.5q33 0 62 20z" />
    <glyph glyph-name="Wcircumflex" unicode="&#x174;" horiz-adv-x="1824" 
d="M401 0l-378 1434h239l264 -1106l287 954h199l286 -954l265 1106h239l-379 -1434h-231l-281 913l-278 -913h-232zM567 1548l314 336h63l311 -336h-206l-138 148l-135 -148h-209z" />
    <glyph glyph-name="wcircumflex" unicode="&#x175;" horiz-adv-x="1468" 
d="M348 0l-323 1032h219l200 -751l189 751h203l188 -751l201 751h219l-324 -1032h-196l-189 721l-190 -721h-197zM389 1147l313 336h64l311 -336h-207l-137 147l-135 -147h-209z" />
    <glyph glyph-name="Ycircumflex" unicode="&#x176;" horiz-adv-x="1105" 
d="M440 0v614l-420 820h248l285 -594l285 594h247l-419 -820v-614h-226zM209 1548l313 336h64l311 -336h-207l-137 148l-135 -148h-209z" />
    <glyph glyph-name="ycircumflex" unicode="&#x177;" horiz-adv-x="980" 
d="M743 1032h218l-527 -1450h-209l168 469l-373 981h220l256 -692zM147 1147l314 336h63l312 -336h-207l-137 147l-136 -147h-209z" />
    <glyph glyph-name="Ydieresis" unicode="&#x178;" horiz-adv-x="1105" 
d="M440 0v614l-420 820h248l285 -594l285 594h247l-419 -820v-614h-226zM225 1720q0 57 38 95t95 38t94 -38t37 -95q0 -56 -37 -93.5t-94 -37.5t-95 37.5t-38 93.5zM616 1720q0 57 37.5 95t94.5 38t95 -38t38 -95q0 -56 -38 -93.5t-95 -37.5t-94.5 37.5t-37.5 93.5z" />
    <glyph glyph-name="Zacute" unicode="&#x179;" horiz-adv-x="1140" 
d="M78 0v106l651 1117h-618v211h927v-107l-645 -1116h670v-211h-985zM487 1536l140 311h297l-277 -311h-160z" />
    <glyph glyph-name="zacute" unicode="&#x17a;" horiz-adv-x="913" 
d="M66 0v88l471 756h-441v188h711v-90l-465 -754h492v-188h-768zM365 1135l139 311h297l-277 -311h-159z" />
    <glyph glyph-name="Zdotaccent" unicode="&#x17b;" horiz-adv-x="1140" 
d="M78 0v106l651 1117h-618v211h927v-107l-645 -1116h670v-211h-985zM428 1731q0 62 41 103.5t104 41.5t105.5 -41.5t42.5 -103.5t-42.5 -104t-105.5 -42t-104 42t-41 104z" />
    <glyph glyph-name="zdotaccent" unicode="&#x17c;" horiz-adv-x="913" 
d="M66 0v88l471 756h-441v188h711v-90l-465 -754h492v-188h-768zM305 1329q0 62 41.5 104t104.5 42t105 -42t42 -104t-42 -103.5t-105 -41.5t-104.5 41.5t-41.5 103.5z" />
    <glyph glyph-name="Zcaron" unicode="&#x17d;" horiz-adv-x="1140" 
d="M78 0v106l651 1117h-618v211h927v-107l-645 -1116h670v-211h-985zM543 1548l-314 336h209l135 -147l138 147h207l-312 -336h-63z" />
    <glyph glyph-name="zcaron" unicode="&#x17e;" horiz-adv-x="913" 
d="M66 0v88l471 756h-441v188h711v-90l-465 -754h492v-188h-768zM420 1147l-314 336h209l136 -148l137 148h207l-312 -336h-63z" />
    <glyph glyph-name="florin" unicode="&#x192;" horiz-adv-x="985" 
d="M-164 -397l82 178q58 -27 113 -27q139 0 166 154l182 936h-170l39 188h170l10 58q69 360 412 360q110 0 168 -37l-82 -178q-53 27 -113 27q-139 0 -166 -154l-14 -76h229l-37 -188h-229l-180 -918q-70 -360 -410 -360q-114 0 -170 37z" />
    <glyph glyph-name="uni01B5" unicode="&#x1b5;" horiz-adv-x="1140" 
d="M78 0v106l301 517h-201v190h311l240 410h-618v211h927v-107l-297 -514h222v-190h-330l-240 -412h670v-211h-985z" />
    <glyph glyph-name="uni01B6" unicode="&#x1b6;" horiz-adv-x="913" 
d="M66 0v88l229 369h-174v168h276l140 219h-441v188h711v-90l-197 -317h154v-168h-254l-168 -269h492v-188h-768z" />
    <glyph glyph-name="Aringacute" unicode="&#x1fa;" horiz-adv-x="1255" 
d="M23 0l493 1434h223l496 -1434h-244l-114 358h-496l-117 -358h-241zM446 569h363l-180 564zM416 1741q0 88 60.5 147.5t150.5 59.5q91 0 152 -59.5t61 -147.5q0 -87 -61 -145t-152 -58t-151 57.5t-60 145.5zM705 1743q0 35 -21.5 56.5t-56.5 21.5q-32 0 -54 -23t-22 -55
q0 -35 21.5 -56.5t54.5 -21.5q35 0 56.5 21.5t21.5 56.5zM541 1993l139 311h297l-277 -311h-159z" />
    <glyph glyph-name="aringacute" unicode="&#x1fb;" horiz-adv-x="1058" 
d="M94 297q0 158 119 248t324 90h180v45q0 89 -53 134.5t-144 45.5q-151 0 -198 -139l-189 43q25 128 131.5 206.5t255.5 78.5q194 0 303 -106.5t109 -305.5v-637h-174l-29 139q-113 -155 -319 -155q-141 0 -228.5 82.5t-87.5 230.5zM717 432v27h-172q-226 0 -226 -160
q0 -57 39.5 -92t102.5 -35q101 0 178.5 70.5t77.5 189.5zM309 1339q0 88 60.5 147.5t150.5 59.5q91 0 152 -59.5t61 -147.5q0 -87 -61 -144.5t-152 -57.5t-151 57t-60 145zM598 1341q0 35 -21.5 56.5t-56.5 21.5q-32 0 -54 -23t-22 -55q0 -35 21.5 -56t54.5 -21
q35 0 56.5 21t21.5 56zM434 1618l139 311h297l-276 -311h-160z" />
    <glyph glyph-name="AEacute" unicode="&#x1fc;" horiz-adv-x="1748" 
d="M23 0l626 1434h975v-211h-637v-355h514v-209h-514v-448h658v-211h-885v358h-346l-150 -358h-241zM500 569h260v564h-25zM1098 1536l139 311h297l-277 -311h-159z" />
    <glyph glyph-name="aeacute" unicode="&#x1fd;" horiz-adv-x="1763" 
d="M94 297q0 157 121.5 247.5t327.5 90.5h174v45q0 91 -52.5 135.5t-144.5 44.5q-154 0 -198 -139l-189 43q25 129 130 207t257 78q229 0 338 -148q133 148 344 148q90 0 167 -27.5t132 -75.5t94.5 -111.5t58.5 -136t19 -149.5v-90h-731q5 -126 76.5 -206.5t191.5 -80.5
q93 0 157 41.5t114 132.5l178 -65q-68 -151 -178.5 -224t-278.5 -73q-138 0 -243.5 61t-163.5 168q-128 -229 -385 -229q-141 0 -228.5 82.5t-87.5 230.5zM948 635h504q-19 103 -83 164t-167 61q-100 0 -167.5 -62.5t-86.5 -162.5zM717 432v27h-172q-109 0 -167.5 -41
t-58.5 -119q0 -56 37 -91.5t99 -35.5q104 0 183 70.5t79 189.5zM782 1135l140 311h297l-277 -311h-160z" />
    <glyph glyph-name="uni0218" unicode="&#x218;" horiz-adv-x="1073" 
d="M72 381l186 115q79 -301 299 -301q95 0 151 52.5t56 149.5q0 63 -37 109q-34 44 -85 75.5t-165 88.5l-37 18q-140 71 -212 162.5t-72 230.5q0 157 109 263t274 106q279 0 387 -248l-183 -117q-59 154 -204 154q-69 0 -116.5 -43.5t-47.5 -105.5q0 -64 39 -109
q36 -44 90.5 -76.5t161.5 -79.5q167 -77 247 -171t80 -246q0 -190 -123.5 -307t-318.5 -117q-181 0 -312.5 113t-166.5 284zM326 -473l88 367h272l-242 -367h-118z" />
    <glyph glyph-name="uni0219" unicode="&#x219;" horiz-adv-x="897" 
d="M78 264l174 92q64 -184 223 -184q61 0 99 33t38 92q0 51 -51 88t-166 82q-126 46 -188 116.5t-62 182.5q0 120 90.5 201.5t225.5 81.5q215 0 311 -166l-133 -121q-64 98 -176 98q-50 0 -82.5 -27t-32.5 -71q0 -45 47 -80t170 -82q252 -88 252 -291q0 -149 -93.5 -237
t-248.5 -88q-154 0 -258.5 78.5t-138.5 201.5zM256 -473l88 367h272l-241 -367h-119z" />
    <glyph glyph-name="uni021A" unicode="&#x21a;" horiz-adv-x="1148" 
d="M461 0v1223h-408v211h1043v-211h-408v-1223h-227zM350 -473l88 367h273l-242 -367h-119z" />
    <glyph glyph-name="uni021B" unicode="&#x21b;" horiz-adv-x="741" 
d="M186 344v500h-166v188h166v281l217 137v-418h275v-188h-275v-504q0 -89 34.5 -128.5t103.5 -39.5q61 0 108 27l51 -179q-71 -36 -170 -36q-164 0 -254 91.5t-90 268.5zM252 -473l88 367h272l-241 -367h-119z" />
    <glyph glyph-name="uni0237" unicode="&#x237;" horiz-adv-x="512" 
d="M-14 -434l-54 192q114 30 164.5 90.5t50.5 180.5v1003h218v-989q0 -207 -92 -320.5t-287 -156.5z" />
    <glyph glyph-name="uni02BC" unicode="&#x2bc;" horiz-adv-x="602" 
d="M68 987l149 463h293l-283 -463h-159z" />
    <glyph glyph-name="circumflex" unicode="&#x2c6;" horiz-adv-x="841" 
d="M76 1147l313 336h64l311 -336h-207l-137 147l-135 -147h-209z" />
    <glyph glyph-name="caron" unicode="&#x2c7;" horiz-adv-x="841" 
d="M389 1147l-313 336h209l135 -148l137 148h207l-311 -336h-64z" />
    <glyph glyph-name="uni02C9" unicode="&#x2c9;" horiz-adv-x="534" 
d="M2 1223v174h533v-174h-533z" />
    <glyph glyph-name="breve" unicode="&#x2d8;" horiz-adv-x="546" 
d="M47 1434h162q0 -36 18.5 -56t53.5 -20t53 20t18 56h162q0 -99 -64 -161.5t-169 -62.5t-169.5 62.5t-64.5 161.5z" />
    <glyph glyph-name="dotaccent" unicode="&#x2d9;" horiz-adv-x="567" 
d="M137 1329q0 62 41.5 104t104.5 42t105 -42t42 -104t-42 -103.5t-105 -41.5t-104.5 41.5t-41.5 103.5z" />
    <glyph glyph-name="ring" unicode="&#x2da;" horiz-adv-x="477" 
d="M27 1339q0 88 60.5 147.5t150.5 59.5q91 0 152 -59.5t61 -147.5q0 -87 -61 -144.5t-152 -57.5t-151 57t-60 145zM315 1341q0 35 -21 56.5t-56 21.5q-32 0 -54 -23t-22 -55q0 -35 21.5 -56t54.5 -21q35 0 56 21t21 56z" />
    <glyph glyph-name="ogonek" unicode="&#x2db;" horiz-adv-x="456" 
d="M59 -193q0 55 31 108t82 85h162q-117 -99 -117 -162q0 -26 15.5 -41.5t41.5 -15.5q31 0 60 20l39 -141q-56 -29 -125 -29q-87 0 -138 47.5t-51 128.5z" />
    <glyph glyph-name="tilde" unicode="&#x2dc;" horiz-adv-x="827" 
d="M156 1174l-121 100q37 76 100.5 122t134.5 46q47 0 81 -11t79 -36q30 -15 43.5 -21t31.5 -11t38 -5q67 0 129 86l121 -101q-37 -75 -102 -121t-136 -46q-46 0 -78 10.5t-80 36.5q-31 16 -43.5 21.5t-30.5 10.5t-38 5q-67 0 -129 -86z" />
    <glyph glyph-name="hungarumlaut" unicode="&#x2dd;" horiz-adv-x="880" 
d="M33 1147l135 299h297l-268 -299h-164zM418 1147l133 299h299l-268 -299h-164z" />
    <glyph glyph-name="gravecomb" unicode="&#x300;" horiz-adv-x="0" 
d="M-160 1135l-278 311h299l139 -311h-160z" />
    <glyph glyph-name="acutecomb" unicode="&#x301;" horiz-adv-x="0" 
d="M-436 1135l139 311h297l-276 -311h-160z" />
    <glyph glyph-name="uni0302" unicode="&#x302;" horiz-adv-x="0" 
d="M-688 1147l313 336h64l311 -336h-207l-137 147l-135 -147h-209z" />
    <glyph glyph-name="tildecomb" unicode="&#x303;" horiz-adv-x="0" 
d="M-637 1174l-121 100q37 76 101 122t135 46q47 0 81 -11t79 -36q31 -16 43.5 -21.5t30.5 -10.5t38 -5q67 0 129 86l121 -101q-37 -75 -102 -121t-136 -46q-46 0 -77.5 10.5t-79.5 36.5q-30 15 -43.5 21t-31.5 11t-38 5q-67 0 -129 -86z" />
    <glyph glyph-name="uni0304" unicode="&#x304;" horiz-adv-x="0" 
d="M-532 1223v174h532v-174h-532z" />
    <glyph glyph-name="uni0306" unicode="&#x306;" horiz-adv-x="0" 
d="M-467 1434h162q0 -36 18.5 -56t53.5 -20t53 20t18 56h162q0 -99 -64 -161.5t-169 -62.5t-169.5 62.5t-64.5 161.5z" />
    <glyph glyph-name="uni0307" unicode="&#x307;" horiz-adv-x="0" 
d="M-293 1329q0 62 41.5 104t104.5 42t105 -42t42 -104t-42 -103.5t-105 -41.5t-104.5 41.5t-41.5 103.5z" />
    <glyph glyph-name="uni0308" unicode="&#x308;" horiz-adv-x="0" 
d="M-655 1319q0 57 38 95t95 38t94 -38t37 -95q0 -56 -37 -93.5t-94 -37.5t-95 37.5t-38 93.5zM-264 1319q0 57 37 95t94 38t95 -38t38 -95q0 -56 -38 -93.5t-95 -37.5t-94 37.5t-37 93.5z" />
    <glyph glyph-name="uni030A" unicode="&#x30a;" horiz-adv-x="0" 
d="M-424 1339q0 88 60.5 147.5t150.5 59.5q91 0 152 -59.5t61 -147.5q0 -87 -61 -144.5t-152 -57.5t-151 57t-60 145zM-135 1341q0 35 -21.5 56.5t-56.5 21.5q-32 0 -54 -23t-22 -55q0 -35 21.5 -56t54.5 -21q35 0 56.5 21t21.5 56z" />
    <glyph glyph-name="uni030B" unicode="&#x30b;" horiz-adv-x="0" 
d="M-817 1147l135 299h297l-268 -299h-164zM-432 1147l133 299h299l-268 -299h-164z" />
    <glyph glyph-name="uni030C" unicode="&#x30c;" horiz-adv-x="0" 
d="M-375 1147l-313 336h209l135 -148l137 148h207l-311 -336h-64z" />
    <glyph glyph-name="uni0312" unicode="&#x312;" horiz-adv-x="0" 
d="M-334 1200l193 330h141l-86 -330h-248z" />
    <glyph glyph-name="uni0326" unicode="&#x326;" horiz-adv-x="0" 
d="M-360 -473l88 367h272l-242 -367h-118z" />
    <glyph glyph-name="uni0327" unicode="&#x327;" horiz-adv-x="0" 
d="M-168 -512l-256 113l262 276h162z" />
    <glyph glyph-name="uni0328" unicode="&#x328;" horiz-adv-x="0" 
d="M-313 -193q0 56 30.5 108.5t81.5 84.5h162q-117 -99 -117 -162q0 -26 16 -41.5t42 -15.5q30 0 59 20l39 -141q-56 -29 -125 -29q-87 0 -137.5 47t-50.5 129z" />
    <glyph glyph-name="uni0335" unicode="&#x335;" horiz-adv-x="0" 
d="M-606 633v168h606v-168h-606z" />
    <glyph glyph-name="uni0336" unicode="&#x336;" horiz-adv-x="0" 
d="M-1343 623v190h1343v-190h-1343z" />
    <glyph glyph-name="uni0337" unicode="&#x337;" horiz-adv-x="0" 
d="M-545 514l-92 166l543 297l94 -166z" />
    <glyph glyph-name="uni0338" unicode="&#x338;" horiz-adv-x="0" 
d="M-893 -109l-151 113l892 1137l152 -113z" />
    <glyph glyph-name="uni037E" unicode="&#x37e;" horiz-adv-x="532" 
d="M174 868q0 66 42 109t108 43t109.5 -43t43.5 -109t-43.5 -108.5t-109.5 -42.5q-64 0 -107 43t-43 108zM51 -242l127 492h297l-260 -492h-164z" />
    <glyph glyph-name="tonos" unicode="&#x384;" horiz-adv-x="626" 
d="M123 1147l88 299h293l-215 -299h-166z" />
    <glyph glyph-name="dieresistonos" unicode="&#x385;" horiz-adv-x="831" 
d="M266 1147l90 299h236l-195 -299h-131zM35 1290q0 44 29.5 75.5t72.5 31.5q47 0 78 -31t31 -76q0 -43 -31 -72.5t-78 -29.5q-43 0 -72.5 29.5t-29.5 72.5zM586 1290q0 44 30.5 75.5t73.5 31.5q44 0 75.5 -31.5t31.5 -75.5q0 -43 -31.5 -72.5t-75.5 -29.5q-43 0 -73.5 29.5
t-30.5 72.5z" />
    <glyph glyph-name="Alphatonos" unicode="&#x386;" horiz-adv-x="1255" 
d="M23 0l493 1434h223l496 -1434h-244l-114 358h-496l-117 -358h-241zM446 569h363l-180 564zM-14 1135l88 299h293l-215 -299h-166z" />
    <glyph glyph-name="anoteleia" unicode="&#x387;" horiz-adv-x="532" 
d="M117 717q0 66 41.5 108.5t107.5 42.5t110 -42.5t44 -108.5t-44 -109t-110 -43q-63 0 -106 43t-43 109z" />
    <glyph glyph-name="Epsilontonos" unicode="&#x388;" horiz-adv-x="1159" 
d="M170 0v1434h864v-211h-637v-355h514v-209h-514v-448h658v-211h-885zM-313 1135l88 299h293l-215 -299h-166z" />
    <glyph glyph-name="Etatonos" unicode="&#x389;" horiz-adv-x="1413" 
d="M170 0v1434h227v-564h621v564h225v-1434h-225v659h-621v-659h-227zM-313 1135l88 299h293l-215 -299h-166z" />
    <glyph glyph-name="Iotatonos" unicode="&#x38a;" horiz-adv-x="567" 
d="M170 0v1434h227v-1434h-227zM-313 1135l88 299h293l-215 -299h-166z" />
    <glyph glyph-name="Omicrontonos" unicode="&#x38c;" horiz-adv-x="1519" 
d="M98 717q-2 171 50.5 312t143.5 232.5t211.5 141t256.5 47.5q136 2 256.5 -47.5t211.5 -141t143 -232.5t50 -312q2 -171 -50 -312t-143 -232.5t-211.5 -141t-256.5 -47.5q-136 -2 -256.5 47.5t-211.5 141t-143.5 232.5t-50.5 312zM1190 717q0 251 -120.5 386.5
t-309.5 135.5t-309.5 -135.5t-120.5 -386.5t120.5 -386.5t309.5 -135.5t309.5 135.5t120.5 386.5zM-201 1135l88 299h293l-215 -299h-166z" />
    <glyph glyph-name="Upsilontonos" unicode="&#x38e;" horiz-adv-x="1105" 
d="M440 0v614l-420 820h248l285 -594l285 594h247l-419 -820v-614h-226zM-401 1135l88 299h293l-216 -299h-165z" />
    <glyph glyph-name="Omegatonos" unicode="&#x38f;" horiz-adv-x="1411" 
d="M68 0v197h303q-150 142 -230 290t-80 334q0 135 46 251t129 199.5t204.5 131t266.5 47.5t266.5 -47.5t204 -131t128.5 -199.5t46 -251q0 -186 -80 -334t-230 -290h304v-197h-547v197q321 254 321 606q0 200 -114.5 318t-298.5 118q-185 0 -299.5 -118t-114.5 -318
q0 -351 319 -606v-197h-544zM-256 1135l88 299h293l-215 -299h-166z" />
    <glyph glyph-name="iotadieresistonos" unicode="&#x390;" horiz-adv-x="512" 
d="M147 0v1032h218v-1032h-218zM106 1147l91 299h235l-194 -299h-132zM-125 1290q0 44 29.5 75.5t72.5 31.5q47 0 78 -31t31 -76q0 -43 -31 -72.5t-78 -29.5q-43 0 -72.5 29.5t-29.5 72.5zM426 1290q0 44 30.5 75.5t73.5 31.5q44 0 75.5 -31.5t31.5 -75.5q0 -43 -31.5 -72.5
t-75.5 -29.5q-43 0 -73.5 29.5t-30.5 72.5z" />
    <glyph glyph-name="Alpha" unicode="&#x391;" horiz-adv-x="1255" 
d="M23 0l493 1434h223l496 -1434h-244l-114 358h-496l-117 -358h-241zM446 569h363l-180 564z" />
    <glyph glyph-name="Beta" unicode="&#x392;" horiz-adv-x="1257" 
d="M170 0v1434h506q191 0 298 -99t107 -282q0 -93 -40.5 -164t-110.5 -107q108 -42 166.5 -132t58.5 -224q0 -201 -123 -313.5t-340 -112.5h-522zM397 862h269q98 0 146 43.5t48 136.5q0 95 -48.5 138t-149.5 43h-265v-361zM397 211h271q133 0 196.5 54t63.5 165
q0 113 -63.5 167t-196.5 54h-271v-440z" />
    <glyph glyph-name="Gamma" unicode="&#x393;" horiz-adv-x="1087" 
d="M170 0v1434h864v-211h-637v-1223h-227z" />
    <glyph glyph-name="uni0394" unicode="&#x394;" horiz-adv-x="1255" 
d="M739 1434l496 -1434h-1212l493 1434h223zM332 211h592l-295 922z" />
    <glyph glyph-name="Epsilon" unicode="&#x395;" horiz-adv-x="1159" 
d="M170 0v1434h864v-211h-637v-355h514v-209h-514v-448h658v-211h-885z" />
    <glyph glyph-name="Zeta" unicode="&#x396;" horiz-adv-x="1140" 
d="M78 0v106l651 1117h-618v211h927v-107l-645 -1116h670v-211h-985z" />
    <glyph glyph-name="Eta" unicode="&#x397;" horiz-adv-x="1413" 
d="M170 0v1434h227v-564h621v564h225v-1434h-225v659h-621v-659h-227z" />
    <glyph glyph-name="Theta" unicode="&#x398;" horiz-adv-x="1519" 
d="M98 717q-2 171 50.5 312t143.5 232.5t211.5 141t256.5 47.5q136 2 256.5 -47.5t211.5 -141t143 -232.5t50 -312q2 -171 -50 -312t-143 -232.5t-211.5 -141t-256.5 -47.5q-136 -2 -256.5 47.5t-211.5 141t-143.5 232.5t-50.5 312zM1190 717q0 251 -120.5 386.5
t-309.5 135.5t-309.5 -135.5t-120.5 -386.5t120.5 -386.5t309.5 -135.5t309.5 135.5t120.5 386.5zM494 629v176h534v-176h-534z" />
    <glyph glyph-name="Iota" unicode="&#x399;" horiz-adv-x="567" 
d="M170 0v1434h227v-1434h-227z" />
    <glyph glyph-name="Kappa" unicode="&#x39a;" horiz-adv-x="1257" 
d="M170 0v1434h227v-557l510 557h281l-584 -641l629 -793h-287l-549 707v-707h-227z" />
    <glyph glyph-name="Lambda" unicode="&#x39b;" horiz-adv-x="1255" 
d="M23 0l493 1434h223l496 -1434h-244l-362 1133l-365 -1133h-241z" />
    <glyph glyph-name="Mu" unicode="&#x39c;" horiz-adv-x="1587" 
d="M170 0v1434h260l365 -951l364 951h258v-1434h-225v971l-318 -840h-159l-318 840v-971h-227z" />
    <glyph glyph-name="Nu" unicode="&#x39d;" horiz-adv-x="1392" 
d="M170 0v1434h244l581 -1028v1028h228v-1434h-244l-582 1026v-1026h-227z" />
    <glyph glyph-name="Xi" unicode="&#x39e;" horiz-adv-x="1140" 
d="M123 1223v211h895v-211h-895zM231 659v209h678v-209h-678zM106 0v211h930v-211h-930z" />
    <glyph glyph-name="Omicron" unicode="&#x39f;" horiz-adv-x="1519" 
d="M98 717q-2 171 50.5 312t143.5 232.5t211.5 141t256.5 47.5q136 2 256.5 -47.5t211.5 -141t143 -232.5t50 -312q2 -171 -50 -312t-143 -232.5t-211.5 -141t-256.5 -47.5q-136 -2 -256.5 47.5t-211.5 141t-143.5 232.5t-50.5 312zM1190 717q0 251 -120.5 386.5
t-309.5 135.5t-309.5 -135.5t-120.5 -386.5t120.5 -386.5t309.5 -135.5t309.5 135.5t120.5 386.5z" />
    <glyph glyph-name="Pi" unicode="&#x3a0;" horiz-adv-x="1406" 
d="M170 0v1434h1067v-1434h-225v1223h-615v-1223h-227z" />
    <glyph glyph-name="Rho" unicode="&#x3a1;" horiz-adv-x="1208" 
d="M170 0v1434h524q208 0 323.5 -114.5t115.5 -309.5t-115.5 -309.5t-323.5 -114.5h-297v-586h-227zM397 797h291q104 0 158.5 54.5t54.5 158.5t-54.5 158.5t-158.5 54.5h-291v-426z" />
    <glyph glyph-name="Sigma" unicode="&#x3a3;" horiz-adv-x="1128" 
d="M111 0v106l397 611l-397 610v107h895v-211h-574l307 -480v-53l-307 -479h590v-211h-911z" />
    <glyph glyph-name="Tau" unicode="&#x3a4;" horiz-adv-x="1148" 
d="M461 0v1223h-408v211h1043v-211h-408v-1223h-227z" />
    <glyph glyph-name="Upsilon" unicode="&#x3a5;" horiz-adv-x="1105" 
d="M440 0v614l-420 820h248l285 -594l285 594h247l-419 -820v-614h-226z" />
    <glyph glyph-name="Phi" unicode="&#x3a6;" horiz-adv-x="1566" 
d="M670 0v150q-111 -1 -215.5 40t-184.5 114t-127.5 181t-44.5 232q-3 124 44.5 232t127.5 181t184.5 114t215.5 40v150h227v-150q111 1 215.5 -40t184.5 -114t127 -181t44 -232q3 -124 -44 -232t-127 -181t-184.5 -114t-215.5 -40v-150h-227zM670 360v713q-141 0 -242 -90
q-98 -88 -98 -266t98 -266q102 -91 242 -91zM1237 717q0 178 -98 266q-101 90 -242 90v-713q140 0 242 91q98 88 98 266z" />
    <glyph glyph-name="Chi" unicode="&#x3a7;" horiz-adv-x="1208" 
d="M29 0l450 778l-377 656h248l254 -441l252 441h250l-379 -656l453 -778h-252l-324 561l-323 -561h-252z" />
    <glyph glyph-name="Psi" unicode="&#x3a8;" horiz-adv-x="1542" 
d="M657 0v377q-247 1 -376 140.5t-129 387.5v529h227v-529q0 -147 73 -230.5t203 -88.5h2v848h228v-848h2q130 5 203 88.5t73 230.5v529h228v-529q0 -248 -129.5 -387.5t-376.5 -140.5v-377h-228z" />
    <glyph glyph-name="uni03A9" unicode="&#x3a9;" horiz-adv-x="1411" 
d="M68 0v197h303q-150 142 -230 290t-80 334q0 135 46 251t129 199.5t204.5 131t266.5 47.5t266.5 -47.5t204 -131t128.5 -199.5t46 -251q0 -186 -80 -334t-230 -290h304v-197h-547v197q321 254 321 606q0 200 -114.5 318t-298.5 118q-185 0 -299.5 -118t-114.5 -318
q0 -351 319 -606v-197h-544z" />
    <glyph glyph-name="Iotadieresis" unicode="&#x3aa;" horiz-adv-x="567" 
d="M170 0v1434h227v-1434h-227zM-45 1720q0 57 38 95t95 38t94 -38t37 -95q0 -56 -37 -93.5t-94 -37.5t-95 37.5t-38 93.5zM346 1720q0 57 37 95t94 38t95 -38t38 -95q0 -56 -38 -93.5t-95 -37.5t-94 37.5t-37 93.5z" />
    <glyph glyph-name="Upsilondieresis" unicode="&#x3ab;" horiz-adv-x="1105" 
d="M440 0v614l-420 820h248l285 -594l285 594h247l-419 -820v-614h-226zM225 1720q0 57 38 95t95 38t94 -38t37 -95q0 -56 -37 -93.5t-94 -37.5t-95 37.5t-38 93.5zM616 1720q0 57 37.5 95t94.5 38t95 -38t38 -95q0 -56 -38 -93.5t-95 -37.5t-94.5 37.5t-37.5 93.5z" />
    <glyph glyph-name="alphatonos" unicode="&#x3ac;" horiz-adv-x="1193" 
d="M90 516q0 242 119 385q121 148 334 148q90 0 166 -34t120 -91v61v47h218v-1032h-218v57v62q-32 -57 -111 -96t-175 -39q-213 0 -334 145q-119 146 -119 387zM850 516q0 158 -72 251t-194 93q-120 0 -194.5 -93.5t-74.5 -250.5t74.5 -250.5t194.5 -93.5q122 0 194 93
t72 251zM479 1147l88 299h293l-215 -299h-166z" />
    <glyph glyph-name="epsilontonos" unicode="&#x3ad;" horiz-adv-x="899" 
d="M86 301q0 90 46 154t126 96q-129 70 -129 225q0 119 89.5 196t240.5 77q137 0 222.5 -64.5t109.5 -177.5l-183 -43q-26 110 -147 110q-63 0 -102.5 -33.5t-39.5 -88.5q0 -62 45 -98t123 -36h54v-153h-58q-87 0 -137.5 -40.5t-50.5 -111.5q0 -63 45 -104t117 -41
q70 0 116 39t58 110l194 -28q-17 -137 -116.5 -221t-251.5 -84q-161 0 -266 89t-105 228zM362 1147l89 299h292l-215 -299h-166z" />
    <glyph glyph-name="etatonos" unicode="&#x3ae;" horiz-adv-x="1159" 
d="M797 -418v1090q0 93 -43.5 140.5t-124.5 47.5q-111 0 -187.5 -119t-76.5 -317v-424h-218v1032h218v-180q58 92 144 144.5t185 52.5q145 0 231.5 -84.5t86.5 -235.5v-1147h-215zM510 1147l88 299h293l-215 -299h-166z" />
    <glyph glyph-name="iotatonos" unicode="&#x3af;" horiz-adv-x="512" 
d="M147 0v1032h218v-1032h-218zM164 1147l88 299h293l-215 -299h-166z" />
    <glyph glyph-name="upsilondieresistonos" unicode="&#x3b0;" horiz-adv-x="1161" 
d="M147 442v590h218v-606q0 -126 58.5 -190t158.5 -64q98 0 156.5 64.5t58.5 189.5v606h217v-590q0 -221 -111.5 -339.5t-320.5 -118.5q-210 0 -322.5 118t-112.5 340zM430 1147l90 299h236l-195 -299h-131zM199 1290q0 44 29.5 75.5t72.5 31.5q47 0 78 -31t31 -76
q0 -43 -31 -72.5t-78 -29.5q-43 0 -72.5 29.5t-29.5 72.5zM750 1290q0 44 30.5 75.5t73.5 31.5q44 0 75.5 -31.5t31.5 -75.5q0 -43 -31.5 -72.5t-75.5 -29.5q-43 0 -73.5 29.5t-30.5 72.5z" />
    <glyph glyph-name="alpha" unicode="&#x3b1;" horiz-adv-x="1193" 
d="M90 516q0 242 119 385q121 148 334 148q90 0 166 -34t120 -91v61v47h218v-1032h-218v57v62q-32 -57 -111 -96t-175 -39q-213 0 -334 145q-119 146 -119 387zM850 516q0 158 -72 251t-194 93q-120 0 -194.5 -93.5t-74.5 -250.5t74.5 -250.5t194.5 -93.5q122 0 194 93
t72 251z" />
    <glyph glyph-name="beta" unicode="&#x3b2;" horiz-adv-x="1132" 
d="M147 -418v1430q0 207 114.5 322.5t293.5 115.5t282 -97.5t103 -262.5q0 -98 -51.5 -175.5t-126.5 -101.5q126 -33 204 -134.5t78 -250.5q0 -208 -114 -326t-305 -118q-85 0 -158.5 33t-106.5 85v-520h-213zM831 426q0 123 -74.5 190.5t-203.5 67.5h-66v197h52
q93 0 146.5 50.5t53.5 141.5q0 88 -49.5 138.5t-134.5 50.5q-93 0 -144 -56t-51 -166v-606q0 -122 62.5 -191t171.5 -69q115 0 176 67t61 185z" />
    <glyph glyph-name="gamma" unicode="&#x3b3;" horiz-adv-x="966" 
d="M373 -418v447l-344 1003h219l235 -753l236 753h219l-350 -1003v-447h-215z" />
    <glyph glyph-name="delta" unicode="&#x3b4;" horiz-adv-x="1204" 
d="M90 516q0 208 126.5 358t303.5 162l-299 226v172h772v-191h-448l336 -266q233 -187 233 -461q0 -148 -61.5 -268.5t-179 -192t-271.5 -71.5t-272 71.5t-179 192t-61 268.5zM887 516q0 143 -76 244q-75 100 -209 100q-136 0 -211 -100q-76 -101 -76 -244t76 -244
q75 -100 211 -100q134 0 209 100q76 101 76 244z" />
    <glyph glyph-name="epsilon" unicode="&#x3b5;" horiz-adv-x="899" 
d="M86 301q0 90 46 154t126 96q-129 70 -129 225q0 119 89.5 196t240.5 77q137 0 222.5 -64.5t109.5 -177.5l-183 -43q-26 110 -147 110q-63 0 -102.5 -33.5t-39.5 -88.5q0 -62 45 -98t123 -36h54v-153h-58q-87 0 -137.5 -40.5t-50.5 -111.5q0 -63 45 -104t117 -41
q70 0 116 39t58 110l194 -28q-17 -137 -116.5 -221t-251.5 -84q-161 0 -266 89t-105 228z" />
    <glyph glyph-name="zeta" unicode="&#x3b6;" horiz-adv-x="991" 
d="M274 -328l115 170q77 -92 205 -92q71 0 114.5 35.5t43.5 101.5q0 67 -48 103.5t-141 36.5h-88q-184 0 -292.5 105t-108.5 288q0 120 53.5 221.5t171.5 224.5l365 379h-535v189h811v-172l-479 -508q-94 -100 -132 -170.5t-38 -153.5q0 -103 62.5 -161t168.5 -58h80
q172 0 270.5 -86t98.5 -238q0 -144 -102.5 -232.5t-274.5 -88.5q-202 0 -320 106z" />
    <glyph glyph-name="eta" unicode="&#x3b7;" horiz-adv-x="1159" 
d="M797 -418v1090q0 93 -43.5 140.5t-124.5 47.5q-111 0 -187.5 -119t-76.5 -317v-424h-218v1032h218v-180q58 92 144 144.5t185 52.5q145 0 231.5 -84.5t86.5 -235.5v-1147h-215z" />
    <glyph glyph-name="theta" unicode="&#x3b8;" horiz-adv-x="1286" 
d="M90 717q0 338 146.5 535.5t406.5 197.5q262 0 407.5 -196.5t145.5 -536.5t-145.5 -536.5t-407.5 -196.5q-260 0 -406.5 197.5t-146.5 535.5zM319 811h648q-13 220 -98 335.5t-226 115.5t-226 -115.5t-98 -335.5zM967 623h-648q13 -220 98 -335.5t226 -115.5t226 115.5
t98 335.5z" />
    <glyph glyph-name="iota" unicode="&#x3b9;" horiz-adv-x="512" 
d="M147 0v1032h218v-1032h-218z" />
    <glyph glyph-name="kappa" unicode="&#x3ba;" horiz-adv-x="1042" 
d="M147 0v1032h218v-420l364 420h266l-422 -475l453 -557h-266l-395 504v-504h-218z" />
    <glyph glyph-name="lambda" unicode="&#x3bb;" horiz-adv-x="980" 
d="M20 0l375 987l-57 152q-26 68 -54.5 95.5t-80.5 27.5q-34 0 -60 -11l-49 176q71 23 129 23q213 -3 293 -227l445 -1223h-218l-243 705l-260 -705h-220z" />
    <glyph glyph-name="uni03BC" unicode="&#x3bc;" horiz-adv-x="1159" 
d="M147 -418v1450h218v-670q0 -190 165 -190q114 0 190.5 119t76.5 317v424h215v-1032h-215v180q-102 -196 -279 -196q-101 0 -153 59v-461h-218z" />
    <glyph glyph-name="nu" unicode="&#x3bd;" horiz-adv-x="958" 
d="M379 0l-350 1032h219l231 -762l232 762h219l-350 -1032h-201z" />
    <glyph glyph-name="xi" unicode="&#x3be;" horiz-adv-x="993" 
d="M227 -266l119 135q59 -66 113 -92.5t119 -26.5q71 0 114 35.5t43 101.5q0 67 -47.5 103.5t-140.5 36.5h-37q-184 0 -302 108.5t-118 298.5q0 125 61.5 214t165.5 134q-87 43 -134.5 122t-47.5 186q0 147 119 253.5t303 106.5q168 0 280 -84t136 -240l-199 -53
q-17 92 -73.5 140.5t-143.5 48.5q-92 0 -149.5 -53t-57.5 -140t63 -141t165 -54h149v-180h-158q-113 0 -187.5 -67t-74.5 -181q0 -111 68 -173t182 -62h45q168 0 260 -81t92 -239q0 -141 -106 -233t-270 -92q-214 0 -351 168z" />
    <glyph glyph-name="omicron" unicode="&#x3bf;" horiz-adv-x="1204" 
d="M90 516q0 148 61 268.5t179 192.5t272 72q153 0 271 -72t179.5 -192.5t61.5 -268.5t-61.5 -268.5t-179 -192t-271.5 -71.5t-272 71.5t-179 192t-61 268.5zM887 516q0 143 -76 244q-75 100 -209 100q-136 0 -211 -100q-76 -101 -76 -244t76 -244q75 -100 211 -100
q134 0 209 100q76 101 76 244z" />
    <glyph glyph-name="pi" unicode="&#x3c0;" horiz-adv-x="1196" 
d="M219 0v844h-174v188h1106v-188h-174v-844h-215v844h-328v-844h-215z" />
    <glyph glyph-name="rho" unicode="&#x3c1;" horiz-adv-x="1193" 
d="M147 -418v944q0 236 132 379.5t358 143.5q222 0 344.5 -144t122.5 -389t-122.5 -388.5t-344.5 -143.5q-80 0 -157 36t-115 91v-62v-467h-218zM879 516q0 160 -68.5 252t-189.5 92q-119 0 -187.5 -92t-68.5 -252t68.5 -252t187.5 -92q121 0 189.5 92t68.5 252z" />
    <glyph glyph-name="uni03C2" unicode="&#x3c2;" horiz-adv-x="1110" 
d="M301 -338l111 168q83 -80 194 -80q71 0 115.5 32.5t44.5 92.5q0 63 -40.5 98t-113.5 35h-30q-221 0 -356.5 142.5t-135.5 365.5q0 149 55 268t167.5 192t267.5 73q165 0 280 -74t172 -217l-192 -80q-43 92 -106 137t-154 45q-121 0 -193 -90t-72 -238q0 -159 90 -248
t230 -89h43q140 0 224.5 -81.5t84.5 -230.5q0 -145 -108 -231q-109 -86 -273 -86q-189 0 -305 96z" />
    <glyph glyph-name="sigma" unicode="&#x3c3;" horiz-adv-x="1206" 
d="M90 516q0 148 61 268.5t179 192.5t272 72q59 0 139 -17h435v-188h-170q108 -129 108 -334q0 -145 -61.5 -264t-179.5 -190.5t-271 -71.5q-154 0 -272 71.5t-179 192t-61 268.5zM887 516q0 143 -76 244q-75 100 -209 100q-136 0 -211 -100q-76 -101 -76 -244t76 -244
q75 -100 211 -100q134 0 209 100q76 101 76 244z" />
    <glyph glyph-name="tau" unicode="&#x3c4;" horiz-adv-x="817" 
d="M301 0v844h-281v188h779v-188h-283v-844h-215z" />
    <glyph glyph-name="upsilon" unicode="&#x3c5;" horiz-adv-x="1161" 
d="M147 442v590h218v-606q0 -126 58.5 -190t158.5 -64q98 0 156.5 64.5t58.5 189.5v606h217v-590q0 -221 -111.5 -339.5t-320.5 -118.5q-210 0 -322.5 118t-112.5 340z" />
    <glyph glyph-name="phi" unicode="&#x3c6;" horiz-adv-x="1443" 
d="M614 -418v402q-232 3 -378 154t-146 378q0 224 141.5 371.5t382.5 159.5v225h215v-225q241 -12 383 -159.5t142 -371.5q0 -227 -146.5 -378t-378.5 -154v-402h-215zM610 172h4v688h-4q-132 -1 -213.5 -97.5t-81.5 -246.5t81.5 -246.5t213.5 -97.5zM829 172h5
q132 1 213 97t81 247t-81 247t-213 97h-5v-688z" />
    <glyph glyph-name="chi" unicode="&#x3c7;" horiz-adv-x="950" 
d="M16 0l344 555l-297 477h230l182 -295l184 295h228l-295 -477l344 -555h-227l-234 371l-233 -371h-226z" />
    <glyph glyph-name="psi" unicode="&#x3c8;" horiz-adv-x="1478" 
d="M631 -418v402q-227 0 -355.5 130.5t-128.5 356.5v561h218v-571q0 -130 73.5 -209.5t192.5 -79.5v1100h217v-1100q119 0 192.5 79.5t73.5 209.5v571h217v-561q0 -227 -128.5 -357t-354.5 -130v-402h-217z" />
    <glyph glyph-name="omega" unicode="&#x3c9;" horiz-adv-x="1533" 
d="M78 432q0 161 55.5 309.5t167.5 307.5l178 -125q-92 -131 -134 -248t-42 -252q0 -123 51.5 -187.5t134.5 -64.5q79 0 124.5 60t45.5 163v371h215v-371q0 -103 45.5 -163t124.5 -60q83 0 134 64.5t51 187.5q0 132 -42 250t-132 250l178 125q112 -159 167.5 -307.5
t55.5 -309.5q0 -114 -31.5 -202t-86 -140.5t-121.5 -79t-144 -26.5q-118 0 -196 56.5t-111 156.5q-33 -100 -111 -156.5t-194 -56.5q-77 0 -144 26.5t-121.5 79t-86 140.5t-31.5 202z" />
    <glyph glyph-name="iotadieresis" unicode="&#x3ca;" horiz-adv-x="512" 
d="M147 0v1032h218v-1032h-218zM-72 1319q0 57 38 95t95 38t94.5 -38t37.5 -95q0 -56 -37.5 -93.5t-94.5 -37.5t-95 37.5t-38 93.5zM319 1319q0 57 37.5 95t94.5 38t95 -38t38 -95q0 -56 -38 -93.5t-95 -37.5t-94.5 37.5t-37.5 93.5z" />
    <glyph glyph-name="upsilondieresis" unicode="&#x3cb;" horiz-adv-x="1161" 
d="M147 442v590h218v-606q0 -126 58.5 -190t158.5 -64q98 0 156.5 64.5t58.5 189.5v606h217v-590q0 -221 -111.5 -339.5t-320.5 -118.5q-210 0 -322.5 118t-112.5 340zM252 1319q0 57 38 95t95 38t94 -38t37 -95q0 -56 -37 -93.5t-94 -37.5t-95 37.5t-38 93.5zM643 1319
q0 57 37 95t94 38t95 -38t38 -95q0 -56 -38 -93.5t-95 -37.5t-94 37.5t-37 93.5z" />
    <glyph glyph-name="omicrontonos" unicode="&#x3cc;" horiz-adv-x="1204" 
d="M90 516q0 148 61 268.5t179 192.5t272 72q153 0 271 -72t179.5 -192.5t61.5 -268.5t-61.5 -268.5t-179 -192t-271.5 -71.5t-272 71.5t-179 192t-61 268.5zM887 516q0 143 -76 244q-75 100 -209 100q-136 0 -211 -100q-76 -101 -76 -244t76 -244q75 -100 211 -100
q134 0 209 100q76 101 76 244zM510 1147l88 299h293l-215 -299h-166z" />
    <glyph glyph-name="upsilontonos" unicode="&#x3cd;" horiz-adv-x="1161" 
d="M147 442v590h218v-606q0 -126 58.5 -190t158.5 -64q98 0 156.5 64.5t58.5 189.5v606h217v-590q0 -221 -111.5 -339.5t-320.5 -118.5q-210 0 -322.5 118t-112.5 340zM489 1147l89 299h292l-215 -299h-166z" />
    <glyph glyph-name="omegatonos" unicode="&#x3ce;" horiz-adv-x="1533" 
d="M78 432q0 161 55.5 309.5t167.5 307.5l178 -125q-92 -131 -134 -248t-42 -252q0 -123 51.5 -187.5t134.5 -64.5q79 0 124.5 60t45.5 163v371h215v-371q0 -103 45.5 -163t124.5 -60q83 0 134 64.5t51 187.5q0 132 -42 250t-132 250l178 125q112 -159 167.5 -307.5
t55.5 -309.5q0 -114 -31.5 -202t-86 -140.5t-121.5 -79t-144 -26.5q-118 0 -196 56.5t-111 156.5q-33 -100 -111 -156.5t-194 -56.5q-77 0 -144 26.5t-121.5 79t-86 140.5t-31.5 202zM676 1147l88 299h293l-215 -299h-166z" />
    <glyph glyph-name="uni0400" unicode="&#x400;" horiz-adv-x="1159" 
d="M170 0v1434h864v-211h-637v-355h514v-209h-514v-448h658v-211h-885zM535 1536l-279 311h299l139 -311h-159z" />
    <glyph glyph-name="uni0401" unicode="&#x401;" horiz-adv-x="1159" 
d="M170 0v1434h864v-211h-637v-355h514v-209h-514v-448h658v-211h-885zM281 1720q0 57 38 95t95 38t94 -38t37 -95q0 -56 -37 -93.5t-94 -37.5t-95 37.5t-38 93.5zM672 1720q0 57 37 95t94 38t95 -38t38 -95q0 -56 -38 -93.5t-95 -37.5t-94 37.5t-37 93.5z" />
    <glyph glyph-name="uni0402" unicode="&#x402;" horiz-adv-x="1538" 
d="M844 2v213q53 -20 121 -20q116 0 187 63t71 178q0 116 -75.5 178t-203.5 62q-172 0 -297 -78v-598h-227v1223h-367v211h1032v-211h-438v-406q130 70 314 70q228 0 358.5 -120.5t130.5 -330.5t-126 -331t-345 -121q-65 0 -135 18z" />
    <glyph glyph-name="uni0403" unicode="&#x403;" horiz-adv-x="1087" 
d="M170 0v1434h864v-211h-637v-1223h-227zM518 1536l139 311h297l-276 -311h-160z" />
    <glyph glyph-name="uni0404" unicode="&#x404;" horiz-adv-x="1431" 
d="M1133 465l206 -55q-51 -202 -201.5 -314t-375.5 -112q-106 -1 -205 29.5t-183 92.5t-146.5 149t-97 206t-32.5 256q-2 137 32.5 256t97 206t146.5 149t183 92.5t205 29.5q225 0 375.5 -112t201.5 -314l-206 -55q-91 270 -371 270q-172 0 -286 -105t-140 -307h545v-209
h-547q23 -206 137.5 -314.5t290.5 -108.5q280 0 371 270z" />
    <glyph glyph-name="uni0405" unicode="&#x405;" horiz-adv-x="1073" 
d="M72 381l186 115q79 -301 299 -301q95 0 151 52.5t56 149.5q0 63 -37 109q-34 44 -85 75.5t-165 88.5l-37 18q-140 71 -212 162.5t-72 230.5q0 157 109 263t274 106q279 0 387 -248l-183 -117q-59 154 -204 154q-69 0 -116.5 -43.5t-47.5 -105.5q0 -64 39 -109
q36 -44 90.5 -76.5t161.5 -79.5q167 -77 247 -171t80 -246q0 -190 -123.5 -307t-318.5 -117q-181 0 -312.5 113t-166.5 284z" />
    <glyph glyph-name="uni0406" unicode="&#x406;" horiz-adv-x="567" 
d="M170 0v1434h227v-1434h-227z" />
    <glyph glyph-name="uni0407" unicode="&#x407;" horiz-adv-x="567" 
d="M170 0v1434h227v-1434h-227zM-45 1720q0 57 38 95t95 38t94 -38t37 -95q0 -56 -37 -93.5t-94 -37.5t-95 37.5t-38 93.5zM346 1720q0 57 37 95t94 38t95 -38t38 -95q0 -56 -38 -93.5t-95 -37.5t-94 37.5t-37 93.5z" />
    <glyph glyph-name="uni0408" unicode="&#x408;" horiz-adv-x="1075" 
d="M53 352l226 49q38 -206 204 -206q215 0 215 260v979h228v-955q0 -252 -114 -373.5t-329 -121.5q-180 0 -293 99t-137 269z" />
    <glyph glyph-name="uni0409" unicode="&#x409;" horiz-adv-x="2019" 
d="M68 2v219q40 -16 82 -16q70 0 104 61t41 211l57 957h856v-533h275q220 0 340.5 -120t120.5 -330q0 -206 -121.5 -328.5t-339.5 -122.5h-502v1223h-426l-47 -766q-14 -246 -92.5 -358.5t-243.5 -112.5q-67 0 -104 16zM1208 211h269q115 0 175 62t60 178t-60 177.5
t-175 61.5h-269v-479z" />
    <glyph glyph-name="uni040A" unicode="&#x40a;" horiz-adv-x="2056" 
d="M1980 436q0 -200 -116 -318t-326 -118h-520v659h-621v-659h-227v1434h227v-564h621v564h225v-564h295q210 0 326 -117.5t116 -316.5zM1749 436q0 106 -56 164.5t-161 58.5h-289v-448h289q105 0 161 59t56 166z" />
    <glyph glyph-name="uni040B" unicode="&#x40b;" horiz-adv-x="1583" 
d="M420 0v1223h-367v211h1032v-211h-438v-408q167 72 346 72q441 0 441 -443v-444h-226v418q0 133 -66 195.5t-196 62.5q-175 0 -299 -82v-594h-227z" />
    <glyph glyph-name="uni040C" unicode="&#x40c;" horiz-adv-x="1257" 
d="M170 0v1434h227v-557l510 557h281l-584 -641l629 -793h-287l-549 707v-707h-227zM528 1536l140 311h297l-277 -311h-160z" />
    <glyph glyph-name="uni040D" unicode="&#x40d;" horiz-adv-x="1431" 
d="M170 0v1434h227v-1047l643 1047h222v-1434h-228v1044l-643 -1044h-221zM643 1536l-278 311h299l139 -311h-160z" />
    <glyph glyph-name="uni040E" unicode="&#x40e;" horiz-adv-x="1130" 
d="M881 1434h229l-618 -1434h-226l183 424l-429 1010h238l309 -734zM283 1847h163q0 -69 31 -107t90 -38t89 38t30 107h164q0 -136 -73 -214.5t-210 -78.5q-138 0 -211 78.5t-73 214.5z" />
    <glyph glyph-name="uni040F" unicode="&#x40f;" horiz-adv-x="1392" 
d="M586 -274v274h-416v1434h227v-1223h600v1223h226v-1434h-416v-274h-221z" />
    <glyph glyph-name="uni0410" unicode="&#x410;" horiz-adv-x="1255" 
d="M23 0l493 1434h223l496 -1434h-244l-114 358h-496l-117 -358h-241zM446 569h363l-180 564z" />
    <glyph glyph-name="uni0411" unicode="&#x411;" horiz-adv-x="1208" 
d="M170 0v1434h883v-211h-656v-375h297q209 0 324 -113.5t115 -310.5q0 -194 -115.5 -309t-323.5 -115h-524zM397 211h291q103 0 158 56t55 157q0 103 -54.5 159t-158.5 56h-291v-428z" />
    <glyph glyph-name="uni0412" unicode="&#x412;" horiz-adv-x="1257" 
d="M170 0v1434h506q191 0 298 -99t107 -282q0 -93 -40.5 -164t-110.5 -107q108 -42 166.5 -132t58.5 -224q0 -201 -123 -313.5t-340 -112.5h-522zM397 862h269q98 0 146 43.5t48 136.5q0 95 -48.5 138t-149.5 43h-265v-361zM397 211h271q133 0 196.5 54t63.5 165
q0 113 -63.5 167t-196.5 54h-271v-440z" />
    <glyph glyph-name="uni0413" unicode="&#x413;" horiz-adv-x="1087" 
d="M170 0v1434h864v-211h-637v-1223h-227z" />
    <glyph glyph-name="uni0414" unicode="&#x414;" horiz-adv-x="1503" 
d="M61 -274v485h115q57 69 80 168q27 102 45 344l55 711h930v-1223h158v-485h-219v274h-944v-274h-220zM418 211h641v1012h-506l-39 -508q-14 -225 -37 -338q-22 -107 -59 -166z" />
    <glyph glyph-name="uni0415" unicode="&#x415;" horiz-adv-x="1159" 
d="M170 0v1434h864v-211h-637v-355h514v-209h-514v-448h658v-211h-885z" />
    <glyph glyph-name="uni0416" unicode="&#x416;" horiz-adv-x="1945" 
d="M25 0l626 793l-583 641h280l512 -557v557h227v-557l510 557h283l-586 -641l627 -793h-285l-549 707v-707h-227v707l-549 -707h-286z" />
    <glyph glyph-name="uni0417" unicode="&#x417;" horiz-adv-x="1198" 
d="M90 383l215 70q20 -121 105.5 -195t201.5 -74q126 0 199.5 69t73.5 183q0 120 -90 176q-89 56 -211 56h-97v190h88q123 0 192 54t69 153q0 86 -65 139t-169 53q-97 0 -164 -57t-90 -158l-192 39q22 162 147 265.5t299 103.5q208 0 325 -98.5t117 -266.5
q0 -106 -51.5 -185t-144.5 -124q119 -39 189.5 -131t70.5 -217q0 -195 -134.5 -319.5t-357.5 -124.5q-206 0 -345 106.5t-181 292.5z" />
    <glyph glyph-name="uni0418" unicode="&#x418;" horiz-adv-x="1431" 
d="M170 0v1434h227v-1047l643 1047h222v-1434h-228v1044l-643 -1044h-221z" />
    <glyph glyph-name="uni0419" unicode="&#x419;" horiz-adv-x="1431" 
d="M170 0v1434h227v-1047l643 1047h222v-1434h-228v1044l-643 -1044h-221zM432 1847h164q0 -69 31 -107t90 -38t89 38t30 107h163q0 -136 -72.5 -214.5t-209.5 -78.5q-138 0 -211.5 78.5t-73.5 214.5z" />
    <glyph glyph-name="uni041A" unicode="&#x41a;" horiz-adv-x="1257" 
d="M170 0v1434h227v-557l510 557h281l-584 -641l629 -793h-287l-549 707v-707h-227z" />
    <glyph glyph-name="uni041B" unicode="&#x41b;" horiz-adv-x="1419" 
d="M68 2v219q40 -16 82 -16q70 0 104 61t41 211l57 957h897v-1434h-227v1223h-467l-47 -766q-14 -246 -92.5 -358.5t-243.5 -112.5q-67 0 -104 16z" />
    <glyph glyph-name="uni041C" unicode="&#x41c;" horiz-adv-x="1587" 
d="M170 0v1434h260l365 -951l364 951h258v-1434h-225v971l-318 -840h-159l-318 840v-971h-227z" />
    <glyph glyph-name="uni041D" unicode="&#x41d;" horiz-adv-x="1413" 
d="M170 0v1434h227v-564h621v564h225v-1434h-225v659h-621v-659h-227z" />
    <glyph glyph-name="uni041E" unicode="&#x41e;" horiz-adv-x="1519" 
d="M98 717q-2 171 50.5 312t143.5 232.5t211.5 141t256.5 47.5q136 2 256.5 -47.5t211.5 -141t143 -232.5t50 -312q2 -171 -50 -312t-143 -232.5t-211.5 -141t-256.5 -47.5q-136 -2 -256.5 47.5t-211.5 141t-143.5 232.5t-50.5 312zM1190 717q0 251 -120.5 386.5
t-309.5 135.5t-309.5 -135.5t-120.5 -386.5t120.5 -386.5t309.5 -135.5t309.5 135.5t120.5 386.5z" />
    <glyph glyph-name="uni041F" unicode="&#x41f;" horiz-adv-x="1406" 
d="M170 0v1434h1067v-1434h-225v1223h-615v-1223h-227z" />
    <glyph glyph-name="uni0420" unicode="&#x420;" horiz-adv-x="1208" 
d="M170 0v1434h524q208 0 323.5 -114.5t115.5 -309.5t-115.5 -309.5t-323.5 -114.5h-297v-586h-227zM397 797h291q104 0 158.5 54.5t54.5 158.5t-54.5 158.5t-158.5 54.5h-291v-426z" />
    <glyph glyph-name="uni0421" unicode="&#x421;" horiz-adv-x="1431" 
d="M98 717q-2 137 32.5 256t97 206t146.5 149t183 92.5t205 29.5q225 0 375.5 -112t201.5 -314l-206 -55q-91 270 -371 270q-191 0 -311.5 -136.5t-120.5 -385.5t120.5 -385.5t311.5 -136.5q280 0 371 270l206 -55q-51 -202 -201.5 -314t-375.5 -112q-106 -1 -205 29.5
t-183 92.5t-146.5 149t-97 206t-32.5 256z" />
    <glyph glyph-name="uni0422" unicode="&#x422;" horiz-adv-x="1148" 
d="M461 0v1223h-408v211h1043v-211h-408v-1223h-227z" />
    <glyph glyph-name="uni0423" unicode="&#x423;" horiz-adv-x="1130" 
d="M881 1434h229l-618 -1434h-226l183 424l-429 1010h238l309 -734z" />
    <glyph glyph-name="uni0424" unicode="&#x424;" horiz-adv-x="1658" 
d="M721 -20v165h-4q-283 9 -451 167.5t-168 404.5q0 247 168 405.5t451 167.5h4v164h217v-164h4q283 -9 451 -167.5t168 -405.5q0 -246 -168 -404.5t-451 -167.5h-4v-165h-217zM715 332h6v770h-6q-176 -11 -283.5 -114t-107.5 -271t107.5 -271t283.5 -114zM938 332h6
q176 11 283.5 114t107.5 271t-107.5 271t-283.5 114h-6v-770z" />
    <glyph glyph-name="uni0425" unicode="&#x425;" horiz-adv-x="1208" 
d="M29 0l450 778l-377 656h248l254 -441l252 441h250l-379 -656l453 -778h-252l-324 561l-323 -561h-252z" />
    <glyph glyph-name="uni0426" unicode="&#x426;" horiz-adv-x="1441" 
d="M1163 -274v274h-993v1434h227v-1223h600v1223h226v-1223h159v-485h-219z" />
    <glyph glyph-name="uni0427" unicode="&#x427;" horiz-adv-x="1368" 
d="M973 0v592q-145 -57 -346 -57q-226 0 -350.5 129.5t-124.5 386.5v383h227v-385q0 -151 73.5 -227.5t209.5 -76.5q99 0 169 13t142 45v631h225v-1434h-225z" />
    <glyph glyph-name="uni0428" unicode="&#x428;" horiz-adv-x="1974" 
d="M170 0v1434h227v-1223h477v1223h228v-1223h475v1223h227v-1434h-1634z" />
    <glyph glyph-name="uni0429" unicode="&#x429;" horiz-adv-x="2023" 
d="M1743 -274v274h-1573v1434h227v-1223h477v1223h228v-1223h475v1223h227v-1223h160v-485h-221z" />
    <glyph glyph-name="uni042A" unicode="&#x42a;" horiz-adv-x="1382" 
d="M344 0v1233h-303v201h528v-533h275q220 0 341.5 -120.5t121.5 -329.5q0 -206 -122 -328.5t-341 -122.5h-500zM569 211h269q116 0 176.5 62t60.5 178q0 113 -61 176t-176 63h-269v-479z" />
    <glyph glyph-name="uni042B" unicode="&#x42b;" horiz-adv-x="1699" 
d="M170 0v1434h227v-533h275q220 0 340.5 -120t120.5 -330q0 -206 -121.5 -328.5t-339.5 -122.5h-502zM397 211h269q115 0 175 62t60 178t-60 177.5t-175 61.5h-269v-479zM1303 0v1434h227v-1434h-227z" />
    <glyph glyph-name="uni042C" unicode="&#x42c;" horiz-adv-x="1208" 
d="M170 0v1434h227v-533h275q220 0 340.5 -120t120.5 -330q0 -206 -121.5 -328.5t-339.5 -122.5h-502zM397 211h269q115 0 175 62t60 178t-60 177.5t-175 61.5h-269v-479z" />
    <glyph glyph-name="uni042D" unicode="&#x42d;" horiz-adv-x="1431" 
d="M1333 717q2 -137 -32.5 -256t-97 -206t-146.5 -149t-182.5 -92.5t-204.5 -29.5q-224 0 -375 112t-205 314l209 55q91 -270 371 -270q176 0 290.5 108.5t137.5 314.5h-547v209h545q-26 202 -140 307t-286 105q-280 0 -371 -270l-209 55q54 202 205 314t375 112
q106 1 204.5 -29.5t182.5 -92.5t146.5 -149t97 -206t32.5 -256z" />
    <glyph glyph-name="uni042E" unicode="&#x42e;" horiz-adv-x="1994" 
d="M1898 717q2 -171 -49 -312t-140 -232.5t-206 -141t-248 -47.5q-126 0 -238 44.5t-199 128t-141 213t-61 289.5h-219v-659h-227v1434h227v-564h228q42 274 215.5 427t414.5 153q131 2 248 -47.5t206 -141t140 -232.5t49 -312zM1667 717q0 127 -32.5 228t-89 164.5
t-130.5 96.5t-160 33q-85 0 -159 -33t-130 -96.5t-88 -164.5t-32 -228t32 -228t88 -164.5t130 -96.5t159 -33q86 0 160 33t130.5 96.5t89 164.5t32.5 228z" />
    <glyph glyph-name="uni042F" unicode="&#x42f;" horiz-adv-x="1284" 
d="M625 1434h489v-1434h-225v614h-170l-414 -614h-252l420 631q-141 35 -216 135t-75 254q0 193 116 303.5t327 110.5zM889 815v408h-256q-105 0 -164 -51t-59 -152q0 -103 58.5 -154t164.5 -51h256z" />
    <glyph glyph-name="uni0430" unicode="&#x430;" horiz-adv-x="1058" 
d="M94 297q0 158 119 248t324 90h180v45q0 89 -53 134.5t-144 45.5q-151 0 -198 -139l-189 43q25 128 131.5 206.5t255.5 78.5q194 0 303 -106.5t109 -305.5v-637h-174l-29 139q-113 -155 -319 -155q-141 0 -228.5 82.5t-87.5 230.5zM717 432v27h-172q-226 0 -226 -160
q0 -57 39.5 -92t102.5 -35q101 0 178.5 70.5t77.5 189.5z" />
    <glyph glyph-name="uni0431" unicode="&#x431;" horiz-adv-x="1212" 
d="M90 631q0 143 20 258t59 196t90 140t118 94.5t137 54t154 25.5q133 11 210.5 27t135.5 47l59 -175q-71 -44 -151 -59q-105 -21 -240 -33q-91 -8 -156 -30t-118 -67t-83.5 -121t-41.5 -185q57 99 151.5 152t210.5 53q219 0 348 -144t129 -368q0 -222 -142.5 -367
t-371.5 -145q-248 0 -383 165t-135 482zM897 496q0 143 -78 233t-211 90t-209.5 -89.5t-76.5 -233.5t76.5 -234t209.5 -90t211 90t78 234z" />
    <glyph glyph-name="uni0432" unicode="&#x432;" horiz-adv-x="1028" 
d="M147 0v1032h396q156 0 243.5 -70.5t87.5 -203.5q0 -59 -29 -111.5t-77 -83.5q74 -36 118 -103t44 -153q0 -147 -91 -227t-253 -80h-439zM365 633h167q130 0 130 106q0 105 -130 105h-167v-211zM365 188h184q164 0 164 129q0 134 -164 134h-184v-263z" />
    <glyph glyph-name="uni0433" unicode="&#x433;" horiz-adv-x="872" 
d="M147 0v1032h680v-188h-462v-844h-218z" />
    <glyph glyph-name="uni0434" unicode="&#x434;" horiz-adv-x="1224" 
d="M53 -254v442h103q43 44 62.5 106t27.5 173l43 565h745v-844h140v-442h-203v254h-717v-254h-201zM385 188h434v656h-346l-29 -400q-12 -174 -59 -256z" />
    <glyph glyph-name="uni0435" unicode="&#x435;" horiz-adv-x="1136" 
d="M1047 549v-90h-736q14 -135 86 -211t187 -76q93 0 155.5 42t114.5 136l178 -69q-68 -151 -179.5 -224t-279.5 -73q-115 0 -208.5 44.5t-152.5 119t-90.5 169.5t-31.5 199t31.5 199t90.5 170t152.5 119.5t208.5 44.5q112 0 204 -42t149.5 -113t89 -159.5t31.5 -185.5z
M322 635h503q-20 104 -83.5 164.5t-168.5 60.5q-93 0 -160 -58.5t-91 -166.5z" />
    <glyph glyph-name="uni0436" unicode="&#x436;" horiz-adv-x="1570" 
d="M16 0l453 557l-424 475h268l365 -420v420h215v-420l364 420h269l-424 -475l452 -557h-266l-395 504v-504h-215v504l-395 -504h-267z" />
    <glyph glyph-name="uni0437" unicode="&#x437;" horiz-adv-x="925" 
d="M74 311l200 23q11 -74 60.5 -118t126.5 -44q74 0 122 39t48 102q0 68 -51.5 107t-143.5 39h-59v166h55q76 0 122 34t46 93q0 56 -38 87t-105 31q-61 0 -103 -33t-59 -94l-182 48q25 121 114 189.5t232 68.5q154 0 245 -73.5t91 -193.5q0 -166 -129 -229q81 -25 127.5 -89
t46.5 -155q0 -149 -103.5 -237t-275.5 -88q-168 0 -270.5 88.5t-116.5 238.5z" />
    <glyph glyph-name="uni0438" unicode="&#x438;" horiz-adv-x="1157" 
d="M147 0v1032h218v-696l426 696h219v-1032h-215v696l-426 -696h-222z" />
    <glyph glyph-name="uni0439" unicode="&#x439;" horiz-adv-x="1157" 
d="M147 0v1032h218v-696l426 696h219v-1032h-215v696l-426 -696h-222zM295 1434h164q0 -69 31 -107.5t90 -38.5q56 0 87 39t31 107h164q0 -136 -73.5 -214.5t-208.5 -78.5q-137 0 -211 78.5t-74 214.5z" />
    <glyph glyph-name="uni043A" unicode="&#x43a;" horiz-adv-x="1042" 
d="M147 0v1032h218v-420l364 420h266l-422 -475l453 -557h-266l-395 504v-504h-218z" />
    <glyph glyph-name="uni043B" unicode="&#x43b;" horiz-adv-x="1169" 
d="M53 0v188q38 -14 70 -14q46 0 66 35t26 121l53 702h752v-1032h-215v844h-350l-41 -543q-12 -163 -77.5 -239t-189.5 -76q-56 0 -94 14z" />
    <glyph glyph-name="uni043C" unicode="&#x43c;" horiz-adv-x="1341" 
d="M147 0v1032h240l285 -655l284 655h238v-1032h-215v610l-234 -516h-149l-231 516v-610h-218z" />
    <glyph glyph-name="uni043D" unicode="&#x43d;" horiz-adv-x="1144" 
d="M147 0v1032h218v-389h415v389h215v-1032h-215v457h-415v-457h-218z" />
    <glyph glyph-name="uni043E" unicode="&#x43e;" horiz-adv-x="1204" 
d="M90 516q0 148 61 268.5t179 192.5t272 72q153 0 271 -72t179.5 -192.5t61.5 -268.5t-61.5 -268.5t-179 -192t-271.5 -71.5t-272 71.5t-179 192t-61 268.5zM887 516q0 143 -76 244q-75 100 -209 100q-136 0 -211 -100q-76 -101 -76 -244t76 -244q75 -100 211 -100
q134 0 209 100q76 101 76 244z" />
    <glyph glyph-name="uni043F" unicode="&#x43f;" horiz-adv-x="1128" 
d="M147 0v1032h832v-1032h-215v844h-399v-844h-218z" />
    <glyph glyph-name="uni0440" unicode="&#x440;" horiz-adv-x="1193" 
d="M147 -418v1450h218v-57v-62q32 57 107.5 96.5t164.5 39.5q222 0 344.5 -144t122.5 -389t-122.5 -388.5t-344.5 -143.5q-80 0 -157 36t-115 91v-62v-467h-218zM879 516q0 158 -73.5 251t-195.5 93q-119 0 -192.5 -93.5t-73.5 -250.5t73.5 -250.5t192.5 -93.5
q122 0 195.5 93t73.5 251z" />
    <glyph glyph-name="uni0441" unicode="&#x441;" horiz-adv-x="1110" 
d="M90 516q0 149 55 268t167.5 192t267.5 73q165 0 280 -74t172 -217l-192 -80q-83 182 -260 182q-126 0 -195.5 -93.5t-69.5 -250.5t69.5 -250.5t195.5 -93.5q91 0 154 45t106 137l192 -78q-57 -143 -172 -217.5t-280 -74.5q-155 0 -267.5 72.5t-167.5 191.5t-55 268z" />
    <glyph glyph-name="uni0442" unicode="&#x442;" horiz-adv-x="911" 
d="M348 0v844h-293v188h801v-188h-293v-844h-215z" />
    <glyph glyph-name="uni0443" unicode="&#x443;" horiz-adv-x="980" 
d="M743 1032h218l-527 -1450h-209l168 469l-373 981h220l256 -692z" />
    <glyph glyph-name="uni0444" unicode="&#x444;" horiz-adv-x="1452" 
d="M618 -418v402q-156 0 -277.5 72t-186 192.5t-64.5 267.5q0 109 38 206.5t106 170t167.5 114.5t216.5 42v401h216v-401q155 0 276.5 -72t186.5 -193.5t65 -267.5t-65 -267t-186.5 -193t-276.5 -72v-402h-216zM606 172h12v688h-12q-134 0 -213 -98q-78 -101 -78 -246
t78 -246q79 -98 213 -98zM834 172h12q133 0 209 98q80 100 80 246t-80 246q-76 98 -209 98h-12v-688z" />
    <glyph glyph-name="uni0445" unicode="&#x445;" horiz-adv-x="950" 
d="M16 0l344 555l-297 477h230l182 -295l184 295h228l-295 -477l344 -555h-227l-234 371l-233 -371h-226z" />
    <glyph glyph-name="uni0446" unicode="&#x446;" horiz-adv-x="1171" 
d="M918 -254v254h-771v1032h218v-844h399v844h215v-844h139v-442h-200z" />
    <glyph glyph-name="uni0447" unicode="&#x447;" horiz-adv-x="1107" 
d="M743 0v410q-112 -45 -251 -45q-172 0 -266.5 88t-94.5 256v323h217v-284q0 -99 44 -144t138 -45q123 0 213 41v432h218v-1032h-218z" />
    <glyph glyph-name="uni0448" unicode="&#x448;" horiz-adv-x="1644" 
d="M147 0v1032h218v-844h350v844h215v-844h352v844h215v-1032h-1350z" />
    <glyph glyph-name="uni0449" unicode="&#x449;" horiz-adv-x="1687" 
d="M1434 -254v254h-1287v1032h218v-844h350v844h215v-844h352v844h215v-844h139v-442h-202z" />
    <glyph glyph-name="uni044A" unicode="&#x44a;" horiz-adv-x="1138" 
d="M285 0v844h-244v188h459v-373h192q171 0 268 -89t97 -240t-97 -240.5t-268 -89.5h-407zM500 188h174q160 0 160 142q0 141 -160 141h-174v-283z" />
    <glyph glyph-name="uni044B" unicode="&#x44b;" horiz-adv-x="1466" 
d="M147 0v1032h218v-373h192q171 0 268 -89t97 -240t-97 -240.5t-268 -89.5h-410zM365 188h174q159 0 159 142q0 141 -159 141h-174v-283zM1102 0v1032h217v-1032h-217z" />
    <glyph glyph-name="uni044C" unicode="&#x44c;" horiz-adv-x="1003" 
d="M147 0v1032h218v-373h192q171 0 268 -89t97 -240t-97 -240.5t-268 -89.5h-410zM365 188h174q159 0 159 142q0 141 -159 141h-174v-283z" />
    <glyph glyph-name="uni044D" unicode="&#x44d;" horiz-adv-x="1105" 
d="M78 272l194 82q83 -182 260 -182q106 0 168.5 65.5t81.5 186.5h-399v184h399q-19 121 -81.5 186.5t-168.5 65.5q-177 0 -260 -182l-194 82q57 142 172.5 215.5t281.5 73.5q115 0 208.5 -41.5t153.5 -114.5t92 -169.5t32 -207.5t-32 -207.5t-92.5 -169t-153.5 -114
t-208 -41.5q-166 0 -281.5 73t-172.5 215z" />
    <glyph glyph-name="uni044E" unicode="&#x44e;" horiz-adv-x="1597" 
d="M1507 516q0 -150 -59.5 -270t-174 -191t-265.5 -71q-209 0 -344 132t-154 339h-145v-455h-218v1032h218v-389h155q34 178 164 293q128 113 324 113q151 0 265.5 -71t174 -191.5t59.5 -270.5zM1282 516q0 152 -73.5 248t-200.5 96q-125 0 -199 -96t-74 -248t74 -248
t199 -96q127 0 200.5 96t73.5 248z" />
    <glyph glyph-name="uni044F" unicode="&#x44f;" horiz-adv-x="1015" 
d="M451 1032h417v-1032h-215v385h-161l-213 -385h-232l242 418q-89 39 -139 114.5t-50 176.5q0 144 100.5 233.5t250.5 89.5zM653 573v271h-188q-68 0 -109 -36.5t-41 -98.5q0 -63 41 -99.5t109 -36.5h188z" />
    <glyph glyph-name="uni0450" unicode="&#x450;" horiz-adv-x="1136" 
d="M1047 549v-90h-736q14 -135 86 -211t187 -76q93 0 155.5 42t114.5 136l178 -69q-68 -151 -179.5 -224t-279.5 -73q-115 0 -208.5 44.5t-152.5 119t-90.5 169.5t-31.5 199t31.5 199t90.5 170t152.5 119.5t208.5 44.5q112 0 204 -42t149.5 -113t89 -159.5t31.5 -185.5z
M322 635h503q-20 104 -83.5 164.5t-168.5 60.5q-93 0 -160 -58.5t-91 -166.5zM502 1135l-279 311h299l140 -311h-160z" />
    <glyph glyph-name="uni0451" unicode="&#x451;" horiz-adv-x="1136" 
d="M1047 549v-90h-736q14 -135 86 -211t187 -76q93 0 155.5 42t114.5 136l178 -69q-68 -151 -179.5 -224t-279.5 -73q-115 0 -208.5 44.5t-152.5 119t-90.5 169.5t-31.5 199t31.5 199t90.5 170t152.5 119.5t208.5 44.5q112 0 204 -42t149.5 -113t89 -159.5t31.5 -185.5z
M322 635h503q-20 104 -83.5 164.5t-168.5 60.5q-93 0 -160 -58.5t-91 -166.5zM248 1319q0 57 38 95t95 38t94 -38t37 -95q0 -56 -37 -93.5t-94 -37.5t-95 37.5t-38 93.5zM639 1319q0 57 37 95t94 38t95 -38t38 -95q0 -56 -38 -93.5t-95 -37.5t-94 37.5t-37 93.5z" />
    <glyph glyph-name="uni0452" unicode="&#x452;" horiz-adv-x="1173" 
d="M647 -434l-53 192q114 30 164.5 90.5t50.5 180.5v633q0 198 -172 198q-113 0 -192.5 -113.5t-79.5 -308.5v-438h-218v1157h-124v168h124v125h218v-125h264v-168h-264v-309q51 94 141.5 147.5t198.5 53.5q153 0 237 -83t84 -237v-686q0 -207 -92 -320.5t-287 -156.5z" />
    <glyph glyph-name="uni0453" unicode="&#x453;" horiz-adv-x="872" 
d="M147 0v1032h680v-188h-462v-844h-218zM375 1135l139 311h297l-276 -311h-160z" />
    <glyph glyph-name="uni0454" unicode="&#x454;" horiz-adv-x="1110" 
d="M90 516q0 149 55 268t167.5 192t267.5 73q165 0 280 -74t172 -217l-192 -80q-83 182 -260 182q-107 0 -172 -66t-84 -186h399v-184h-399q19 -120 84 -186t172 -66q91 0 154 45t106 137l192 -78q-57 -143 -172 -217.5t-280 -74.5q-155 0 -267.5 72.5t-167.5 191.5t-55 268
z" />
    <glyph glyph-name="uni0455" unicode="&#x455;" horiz-adv-x="897" 
d="M78 264l174 92q64 -184 223 -184q61 0 99 33t38 92q0 51 -51 88t-166 82q-126 46 -188 116.5t-62 182.5q0 120 90.5 201.5t225.5 81.5q215 0 311 -166l-133 -121q-64 98 -176 98q-50 0 -82.5 -27t-32.5 -71q0 -45 47 -80t170 -82q252 -88 252 -291q0 -149 -93.5 -237
t-248.5 -88q-154 0 -258.5 78.5t-138.5 201.5z" />
    <glyph glyph-name="uni0456" unicode="&#x456;" horiz-adv-x="512" 
d="M147 0v1032h218v-1032h-218zM111 1329q0 62 41 104t104 42t105 -42t42 -104t-42 -103.5t-105 -41.5t-104 41.5t-41 103.5z" />
    <glyph glyph-name="uni0457" unicode="&#x457;" horiz-adv-x="512" 
d="M147 0v1032h218v-1032h-218zM-76 1329q0 62 41.5 104t104.5 42t105 -42t42 -104t-42 -103.5t-105 -41.5t-104.5 41.5t-41.5 103.5zM293 1329q0 62 42 104t103 42q63 0 105.5 -42t42.5 -104t-42.5 -103.5t-105.5 -41.5q-62 0 -103.5 42t-41.5 103z" />
    <glyph glyph-name="uni0458" unicode="&#x458;" horiz-adv-x="512" 
d="M-14 -434l-54 192q114 30 164.5 90.5t50.5 180.5v1003h218v-989q0 -207 -92 -320.5t-287 -156.5zM111 1329q0 62 41 104t104 42t105 -42t42 -104t-42 -103.5t-105 -41.5t-104 41.5t-41 103.5z" />
    <glyph glyph-name="uni0459" unicode="&#x459;" horiz-adv-x="1630" 
d="M53 0v188q38 -14 70 -14q46 0 66 35t26 121l53 702h723v-373h193q171 0 267.5 -89t96.5 -240t-96.5 -240.5t-267.5 -89.5h-408v844h-321l-41 -543q-12 -163 -77.5 -239t-189.5 -76q-56 0 -94 14zM991 188h174q160 0 160 142q0 141 -160 141h-174v-283z" />
    <glyph glyph-name="uni045A" unicode="&#x45a;" horiz-adv-x="1648" 
d="M147 0v1032h218v-389h434v389h215v-389h194q165 0 261 -86.5t96 -234.5t-96 -235t-261 -87h-409v457h-434v-457h-218zM1014 188h176q153 0 153 134q0 66 -39 100.5t-114 34.5h-176v-269z" />
    <glyph glyph-name="uni045B" unicode="&#x45b;" horiz-adv-x="1173" 
d="M1026 729v-729h-217v662q0 198 -172 198q-113 0 -192.5 -113.5t-79.5 -308.5v-438h-218v1157h-124v168h124v125h218v-125h264v-168h-264v-309q51 94 141.5 147.5t198.5 53.5q153 0 237 -83t84 -237z" />
    <glyph glyph-name="uni045C" unicode="&#x45c;" horiz-adv-x="1042" 
d="M147 0v1032h218v-420l364 420h266l-422 -475l453 -557h-266l-395 504v-504h-218zM449 1135l139 311h297l-277 -311h-159z" />
    <glyph glyph-name="uni045D" unicode="&#x45d;" horiz-adv-x="1157" 
d="M147 0v1032h218v-696l426 696h219v-1032h-215v696l-426 -696h-222zM506 1135l-279 311h299l140 -311h-160z" />
    <glyph glyph-name="uni045E" unicode="&#x45e;" horiz-adv-x="980" 
d="M743 1032h218l-527 -1450h-209l168 469l-373 981h220l256 -692zM207 1434h164q0 -69 31 -107.5t90 -38.5q56 0 87 39t31 107h164q0 -136 -73.5 -214.5t-208.5 -78.5q-137 0 -211 78.5t-74 214.5z" />
    <glyph glyph-name="uni045F" unicode="&#x45f;" horiz-adv-x="1157" 
d="M477 -254v254h-330v1032h218v-844h428v844h215v-1032h-328v-254h-203z" />
    <glyph glyph-name="uni0462" unicode="&#x462;" horiz-adv-x="1353" 
d="M1278 412q0 -183 -117 -297q-115 -115 -323 -115h-523v1016h-315v194h315v224h228v-224h485v-194h-485v-191h295q208 0 324 -111t116 -302zM1047 412q0 97 -57 149.5t-167 52.5h-280v-403h280q110 0 167 52t57 149z" />
    <glyph glyph-name="uni0463" unicode="&#x463;" horiz-adv-x="1134" 
d="M1051 313q0 -144 -95.5 -228.5t-261.5 -84.5h-409v854h-256v178h256v418h215v-418h327v-178h-327v-227h194q168 0 262.5 -85t94.5 -229zM834 313q0 127 -154 127h-180v-252h180q154 0 154 125z" />
    <glyph glyph-name="uni0472" unicode="&#x472;" horiz-adv-x="1519" 
d="M1421 717q2 -171 -50 -312t-143 -232.5t-211.5 -141t-256.5 -47.5q-136 -2 -256.5 47.5t-211.5 141t-143.5 232.5t-50.5 312q-2 171 50.5 312t143.5 232.5t211.5 141t256.5 47.5q136 2 256.5 -47.5t211.5 -141t143 -232.5t50 -312zM326 811h868q-23 206 -141 320
t-293 114t-293 -114t-141 -320zM1194 623h-868q23 -206 141 -319.5t293 -113.5t293 113.5t141 319.5z" />
    <glyph glyph-name="uni0473" unicode="&#x473;" horiz-adv-x="1204" 
d="M1114 516q0 -148 -61.5 -268.5t-179 -192t-271.5 -71.5t-272 71.5t-179 192t-61 268.5t61 268.5t179 192.5t272 72q153 0 271 -72t179.5 -192.5t61.5 -268.5zM319 608h566q-24 117 -99 187.5t-184 70.5t-184 -70.5t-99 -187.5zM885 424h-566q24 -117 99 -187.5t184 -70.5
t184 70.5t99 187.5z" />
    <glyph glyph-name="uni0474" unicode="&#x474;" horiz-adv-x="1439" 
d="M510 0l-487 1434h247l355 -1115l278 863q42 133 115 200.5t186 67.5q117 0 203 -51l-72 -209q-44 33 -100 33q-79 0 -109 -99l-385 -1124h-231z" />
    <glyph glyph-name="uni0475" unicode="&#x475;" horiz-adv-x="1148" 
d="M379 0l-350 1032h219l231 -762l170 561q30 107 99 162.5t163 55.5q66 0 114 -16t95 -54l-94 -158q-45 39 -94 39q-57 0 -88 -84l-264 -776h-201z" />
    <glyph glyph-name="uni0490" unicode="&#x490;" horiz-adv-x="1087" 
d="M170 0v1434h645v274h219v-485h-637v-1223h-227z" />
    <glyph glyph-name="uni0491" unicode="&#x491;" horiz-adv-x="872" 
d="M147 0v1032h478v254h202v-442h-462v-844h-218z" />
    <glyph glyph-name="uni0E3F" unicode="&#xe3f;" horiz-adv-x="1257" 
d="M1155 426q0 -201 -123 -313.5t-340 -112.5h-33v-184h-210v184h-279v1434h279v184h210v-184h17q191 0 298 -99t107 -282q0 -93 -40.5 -164t-110.5 -107q108 -42 166.5 -132t58.5 -224zM397 1223v-361h269q98 0 146 43.5t48 136.5q0 95 -48.5 138t-149.5 43h-265zM928 430
q0 113 -63.5 167t-196.5 54h-271v-440h271q133 0 196.5 54t63.5 165z" />
    <glyph glyph-name="Wgrave" unicode="&#x1e80;" horiz-adv-x="1824" 
d="M401 0l-378 1434h239l264 -1106l287 954h199l286 -954l265 1106h239l-379 -1434h-231l-281 913l-278 -913h-232zM840 1536l-279 311h299l139 -311h-159z" />
    <glyph glyph-name="wgrave" unicode="&#x1e81;" horiz-adv-x="1468" 
d="M348 0l-323 1032h219l200 -751l189 751h203l188 -751l201 751h219l-324 -1032h-196l-189 721l-190 -721h-197zM662 1135l-279 311h299l139 -311h-159z" />
    <glyph glyph-name="Wacute" unicode="&#x1e82;" horiz-adv-x="1824" 
d="M401 0l-378 1434h239l264 -1106l287 954h199l286 -954l265 1106h239l-379 -1434h-231l-281 913l-278 -913h-232zM825 1536l140 311h297l-277 -311h-160z" />
    <glyph glyph-name="wacute" unicode="&#x1e83;" horiz-adv-x="1468" 
d="M348 0l-323 1032h219l200 -751l189 751h203l188 -751l201 751h219l-324 -1032h-196l-189 721l-190 -721h-197zM647 1135l139 311h297l-276 -311h-160z" />
    <glyph glyph-name="Wdieresis" unicode="&#x1e84;" horiz-adv-x="1824" 
d="M401 0l-378 1434h239l264 -1106l287 954h199l286 -954l265 1106h239l-379 -1434h-231l-281 913l-278 -913h-232zM584 1720q0 57 38 95t95 38t94 -38t37 -95q0 -56 -37 -93.5t-94 -37.5t-95 37.5t-38 93.5zM975 1720q0 57 37 95t94 38t95 -38t38 -95q0 -56 -38 -93.5
t-95 -37.5t-94 37.5t-37 93.5z" />
    <glyph glyph-name="wdieresis" unicode="&#x1e85;" horiz-adv-x="1468" 
d="M348 0l-323 1032h219l200 -751l189 751h203l188 -751l201 751h219l-324 -1032h-196l-189 721l-190 -721h-197zM406 1319q0 57 38 95t95 38t94 -38t37 -95q0 -56 -37 -93.5t-94 -37.5t-95 37.5t-38 93.5zM797 1319q0 57 37 95t94 38t95 -38t38 -95q0 -56 -38 -93.5
t-95 -37.5t-94 37.5t-37 93.5z" />
    <glyph glyph-name="uni1E9E" unicode="&#x1e9e;" horiz-adv-x="1341" 
d="M547 20v209q118 -39 205 -39q125 0 190.5 66t65.5 193q0 133 -83 201.5t-243 68.5h-43v69l217 435h-264q-92 0 -143.5 -61.5t-51.5 -178.5v-983h-227v999q0 204 117.5 319.5t304.5 115.5h538v-105l-237 -485q155 -17 251.5 -122t96.5 -263q0 -217 -127.5 -346
t-339.5 -129q-103 0 -227 36z" />
    <glyph glyph-name="Ygrave" unicode="&#x1ef2;" horiz-adv-x="1105" 
d="M440 0v614l-420 820h248l285 -594l285 594h247l-419 -820v-614h-226zM479 1536l-278 311h299l139 -311h-160z" />
    <glyph glyph-name="ygrave" unicode="&#x1ef3;" horiz-adv-x="980" 
d="M743 1032h218l-527 -1450h-209l168 469l-373 981h220l256 -692zM418 1135l-279 311h299l140 -311h-160z" />
    <glyph glyph-name="endash" unicode="&#x2013;" horiz-adv-x="1175" 
d="M137 555v188h903v-188h-903z" />
    <glyph glyph-name="emdash" unicode="&#x2014;" horiz-adv-x="1568" 
d="M137 555v188h1295v-188h-1295z" />
    <glyph glyph-name="quoteleft" unicode="&#x2018;" horiz-adv-x="602" 
d="M94 987l281 463h160l-150 -463h-291z" />
    <glyph glyph-name="quoteright" unicode="&#x2019;" horiz-adv-x="602" 
d="M68 987l149 463h293l-283 -463h-159z" />
    <glyph glyph-name="quotesinglbase" unicode="&#x201a;" horiz-adv-x="602" 
d="M68 -213l149 463h293l-283 -463h-159z" />
    <glyph glyph-name="quotedblleft" unicode="&#x201c;" horiz-adv-x="1005" 
d="M94 987l281 463h160l-150 -463h-291zM498 987l280 463h160l-150 -463h-290z" />
    <glyph glyph-name="quotedblright" unicode="&#x201d;" horiz-adv-x="1005" 
d="M68 987l149 463h293l-283 -463h-159zM471 987l150 463h292l-282 -463h-160z" />
    <glyph glyph-name="quotedblbase" unicode="&#x201e;" horiz-adv-x="1005" 
d="M68 -213l149 463h293l-283 -463h-159zM471 -213l150 463h292l-282 -463h-160z" />
    <glyph glyph-name="dagger" unicode="&#x2020;" horiz-adv-x="940" 
d="M365 -102v946h-297v188h297v504h210v-504h297v-188h-297v-946h-210z" />
    <glyph glyph-name="daggerdbl" unicode="&#x2021;" horiz-adv-x="940" 
d="M365 -102v503h-297v189h297v254h-297v188h297v504h210v-504h297v-188h-297v-254h297v-189h-297v-503h-210z" />
    <glyph glyph-name="bullet" unicode="&#x2022;" horiz-adv-x="757" 
d="M170 676q0 86 61.5 147.5t147.5 61.5t147.5 -61.5t61.5 -147.5t-61.5 -147.5t-147.5 -61.5t-147.5 61.5t-61.5 147.5z" />
    <glyph glyph-name="ellipsis" unicode="&#x2026;" horiz-adv-x="1677" 
d="M115 141q0 66 42.5 109t108.5 43t109 -43t43 -109q0 -64 -43.5 -107.5t-108.5 -43.5q-66 0 -108.5 42.5t-42.5 108.5zM686 141q0 66 43 109t109 43t109.5 -43t43.5 -109t-43.5 -108.5t-109.5 -42.5q-63 0 -107.5 44t-44.5 107zM1260 141q0 66 42.5 109t108.5 43t109 -43
t43 -109q0 -64 -43.5 -107.5t-108.5 -43.5q-66 0 -108.5 42.5t-42.5 108.5z" />
    <glyph glyph-name="perthousand" unicode="&#x2030;" horiz-adv-x="2492" 
d="M377 -70l-129 105l1104 1468l129 -102zM117 1122q0 139 95 233.5t237 94.5t236.5 -94.5t94.5 -233.5t-94.5 -233t-236.5 -94t-237 94t-95 233zM600 1122q0 70 -41.5 114t-109.5 44t-110 -44t-42 -114t42 -113.5t110 -43.5t109.5 43.5t41.5 113.5zM948 311q0 139 95 233.5
t237 94.5t237 -94.5t95 -233.5t-95 -233t-237 -94t-237 94t-95 233zM1712 311q0 139 95 233.5t237 94.5t237 -94.5t95 -233.5t-95 -233t-237 -94t-237 94t-95 233zM1432 311q0 70 -42 114t-110 44t-110 -44t-42 -114t42 -113.5t110 -43.5t110 43.5t42 113.5zM2198 311
q0 70 -41.5 114t-112.5 44q-68 0 -110 -44t-42 -114t42 -113.5t110 -43.5q71 0 112.5 43.5t41.5 113.5z" />
    <glyph glyph-name="guilsinglleft" unicode="&#x2039;" horiz-adv-x="806" 
d="M698 131l-604 432v144l604 432v-226l-387 -278l387 -279v-225z" />
    <glyph glyph-name="guilsinglright" unicode="&#x203a;" horiz-adv-x="806" 
d="M109 131v225l387 279l-387 278v226l604 -432v-144z" />
    <glyph glyph-name="fraction" unicode="&#x2044;" horiz-adv-x="626" 
d="M-174 -70l-129 105l1104 1468l129 -102z" />
    <glyph glyph-name="uni2048" unicode="&#x2048;" horiz-adv-x="1435" 
d="M197 684q0 95 55 158.5t170 115.5q123 54 166 91.5t43 91.5q0 60 -41.5 92.5t-112.5 32.5q-142 0 -190 -160l-197 33q27 142 128.5 226.5t258.5 84.5q164 0 262.5 -85.5t98.5 -227.5q0 -103 -61.5 -167.5t-211.5 -129.5q-110 -47 -147 -79.5t-37 -82.5q0 -38 25 -62
t63 -24q94 0 131 106l156 -59q-32 -103 -106.5 -158t-178.5 -55q-120 0 -197 70.5t-77 187.5zM319 141q0 65 44.5 109.5t107.5 44.5q66 0 110 -44t44 -110q0 -63 -44 -107t-110 -44q-63 0 -107.5 44t-44.5 107zM1024 461l-53 973h286l-55 -973h-178zM961 141
q0 65 44.5 109.5t108.5 44.5q63 0 107.5 -45.5t44.5 -108.5t-44.5 -107t-107.5 -44q-66 0 -109.5 44t-43.5 107z" />
    <glyph glyph-name="uni2049" unicode="&#x2049;" horiz-adv-x="1435" 
d="M233 461l-53 973h287l-55 -973h-179zM170 141q0 65 45 109.5t109 44.5q63 0 107 -45.5t44 -108.5t-44 -107t-107 -44q-66 0 -110 44t-44 107zM702 684q0 95 55.5 158.5t170.5 115.5q123 54 166 91.5t43 91.5q0 60 -41.5 92.5t-112.5 32.5q-142 0 -190 -160l-197 33
q27 142 128.5 226.5t258.5 84.5q164 0 262 -85t98 -228q0 -103 -61 -167.5t-211 -129.5q-110 -47 -147 -79.5t-37 -82.5q0 -38 25 -62t63 -24q94 0 131 106l156 -59q-32 -103 -106.5 -158t-178.5 -55q-120 0 -197.5 70.5t-77.5 187.5zM825 141q0 65 44.5 109.5t107.5 44.5
q66 0 109.5 -44t43.5 -110q0 -63 -44 -107t-109 -44q-63 0 -107.5 44t-44.5 107z" />
    <glyph glyph-name="uni2070" unicode="&#x2070;" horiz-adv-x="825" 
d="M86 1024q0 196 87 307t241 111q152 0 238.5 -111t86.5 -307t-86.5 -307t-238.5 -111q-154 0 -241 111t-87 307zM575 1024q0 132 -43.5 201t-117.5 69t-118 -69.5t-44 -200.5q0 -130 44 -199t118 -69t117.5 69t43.5 199z" />
    <glyph glyph-name="uni2074" unicode="&#x2074;" horiz-adv-x="702" 
d="M403 614v144h-344v76l330 600h172v-527h94v-149h-94v-144h-158zM250 907h153v295z" />
    <glyph glyph-name="uni2075" unicode="&#x2075;" horiz-adv-x="698" 
d="M74 844l155 18q11 -50 41 -78t76 -28q61 0 93 35.5t32 101.5q0 133 -125 133q-73 0 -131 -61l-123 26l43 443h453v-148h-320l-22 -168q56 39 135 39q121 0 188.5 -71.5t67.5 -192.5q0 -133 -78.5 -210t-212.5 -77q-106 0 -183 66.5t-89 171.5z" />
    <glyph glyph-name="uni2076" unicode="&#x2076;" horiz-adv-x="735" 
d="M86 877q0 88 41 159l229 406h176l-184 -307q23 10 51 10q112 0 181 -71t69 -197q0 -119 -79 -195t-203 -76t-202.5 76t-78.5 195zM481 877q0 56 -30 88t-84 32q-50 0 -82.5 -32.5t-32.5 -87.5q0 -54 32.5 -87.5t82.5 -33.5q51 0 82.5 33.5t31.5 87.5z" />
    <glyph glyph-name="uni2077" unicode="&#x2077;" horiz-adv-x="616" 
d="M96 614l279 672h-314v148h514v-64l-309 -756h-170z" />
    <glyph glyph-name="uni2078" unicode="&#x2078;" horiz-adv-x="720" 
d="M86 868q0 68 33 116t88 73q-43 23 -67.5 67t-24.5 99q0 94 68 156.5t177 62.5t178.5 -63.5t69.5 -155.5q0 -55 -25.5 -98.5t-68.5 -67.5q55 -25 88 -73t33 -116q0 -120 -75.5 -191t-199.5 -71t-199 70.5t-75 191.5zM457 1219q0 47 -26 73.5t-71 26.5t-70.5 -26.5
t-25.5 -73.5t26 -75t70 -28t70.5 28t26.5 75zM469 868q0 50 -30 80.5t-79 30.5t-78.5 -30.5t-29.5 -80.5t29.5 -81t78.5 -31t79 31t30 81z" />
    <glyph glyph-name="uni2079" unicode="&#x2079;" horiz-adv-x="735" 
d="M203 606l184 307q-23 -10 -51 -10q-112 0 -181 71t-69 197q0 119 79.5 195t203.5 76q125 0 202.5 -75t77.5 -196q0 -88 -41 -159l-229 -406h-176zM483 1171q0 54 -32 88.5t-82 34.5q-51 0 -83 -34t-32 -89t30.5 -86.5t84.5 -31.5q51 0 82.5 32t31.5 86z" />
    <glyph glyph-name="uni2080" unicode="&#x2080;" horiz-adv-x="825" 
d="M86 -8q0 196 87 307t241 111q152 0 238.5 -111t86.5 -307t-86.5 -307t-238.5 -111q-154 0 -241 111t-87 307zM575 -8q0 132 -43.5 201t-117.5 69t-118 -69.5t-44 -200.5q0 -130 44 -199t118 -69t117.5 69t43.5 199z" />
    <glyph glyph-name="uni2081" unicode="&#x2081;" horiz-adv-x="487" 
d="M227 -418v598l-174 -78v170l271 129h61v-819h-158z" />
    <glyph glyph-name="uni2082" unicode="&#x2082;" horiz-adv-x="673" 
d="M66 -418v62l299 366q61 74 61 154q0 44 -24.5 70t-67.5 26q-44 0 -73.5 -31.5t-39.5 -91.5l-147 41q12 103 84 167.5t176 64.5q117 0 188.5 -67t71.5 -177q0 -106 -82 -207l-186 -227h282v-150h-542z" />
    <glyph glyph-name="uni2083" unicode="&#x2083;" horiz-adv-x="681" 
d="M70 -174l147 20q10 -59 44.5 -90.5t84.5 -31.5q56 0 85.5 35.5t29.5 99.5q0 61 -29.5 93t-83.5 32q-40 0 -74 -21l-73 94l149 197h-241v147h471v-61l-189 -246q100 5 168 -63t68 -176q0 -128 -72.5 -204.5t-204.5 -76.5q-118 0 -195 70.5t-85 181.5z" />
    <glyph glyph-name="uni2084" unicode="&#x2084;" horiz-adv-x="702" 
d="M403 -418v144h-344v75l330 600h172v-526h94v-149h-94v-144h-158zM250 -125h153v295z" />
    <glyph glyph-name="uni2085" unicode="&#x2085;" horiz-adv-x="698" 
d="M74 -188l155 18q11 -50 41 -78t76 -28q61 0 93 35.5t32 101.5q0 133 -125 133q-72 0 -131 -62l-123 27l43 442h453v-147h-320l-22 -168q56 39 135 39q121 0 188.5 -71.5t67.5 -192.5q0 -133 -78.5 -210t-212.5 -77q-106 0 -183 66.5t-89 171.5z" />
    <glyph glyph-name="uni2086" unicode="&#x2086;" horiz-adv-x="735" 
d="M86 -156q0 89 41 160l229 406h176l-184 -308q26 11 51 11q111 0 180.5 -71.5t69.5 -197.5q0 -119 -79 -194.5t-203 -75.5t-202.5 75.5t-78.5 194.5zM481 -156q0 56 -30 88.5t-84 32.5q-50 0 -82.5 -33t-32.5 -88q0 -53 32.5 -86.5t82.5 -33.5q51 0 82.5 33t31.5 87z" />
    <glyph glyph-name="uni2087" unicode="&#x2087;" horiz-adv-x="616" 
d="M96 -418l279 672h-314v147h514v-63l-309 -756h-170z" />
    <glyph glyph-name="uni2088" unicode="&#x2088;" horiz-adv-x="720" 
d="M86 -164q0 68 33 116t88 73q-43 23 -67.5 66.5t-24.5 98.5q0 94 68 157t177 63q108 0 178 -64t70 -156q0 -55 -25 -98t-69 -67q55 -25 88 -73t33 -116q0 -120 -75.5 -191t-199.5 -71t-199 70.5t-75 191.5zM457 186q0 47 -26 74t-71 27q-44 0 -70 -27t-26 -74t26 -74.5
t70 -27.5t70.5 27.5t26.5 74.5zM469 -164q0 50 -30 80.5t-79 30.5t-78.5 -30.5t-29.5 -80.5t29.5 -81t78.5 -31t79 31t30 81z" />
    <glyph glyph-name="uni2089" unicode="&#x2089;" horiz-adv-x="735" 
d="M203 -426l184 307q-23 -10 -51 -10q-112 0 -181 71t-69 197q0 119 79.5 195t203.5 76q125 0 202.5 -75t77.5 -196q0 -88 -41 -159l-229 -406h-176zM483 139q0 54 -32 88.5t-82 34.5q-51 0 -83 -34t-32 -89q0 -56 30.5 -87.5t84.5 -31.5q51 0 82.5 32.5t31.5 86.5z" />
    <glyph glyph-name="franc" unicode="&#x20a3;" horiz-adv-x="1118" 
d="M1055 1223h-656v-377h531v-211h-531v-217h277v-211h-277v-207h-227v207h-102v211h102v1016h883v-211z" />
    <glyph glyph-name="uni20A8" unicode="&#x20a8;" horiz-adv-x="2074" 
d="M170 0v1434h504q203 0 315.5 -105t112.5 -289q0 -148 -73 -246t-208 -130l412 -664h-254l-404 645h-178v-645h-227zM397 856h277q96 0 148 46t52 138q0 183 -200 183h-277v-367zM1253 264l174 92q64 -184 224 -184q61 0 99 33t38 92q0 51 -51 88t-166 82
q-126 46 -188 116.5t-62 182.5q0 120 90 201.5t225 81.5q216 0 312 -166l-133 -121q-64 98 -177 98q-50 0 -82 -27t-32 -71q0 -45 47 -80t170 -82q252 -88 252 -291q0 -149 -93.5 -237t-248.5 -88q-154 0 -259 78.5t-139 201.5z" />
    <glyph glyph-name="uni20A9" unicode="&#x20a9;" horiz-adv-x="1402" 
d="M1378 733v-190h-166l-77 -543h-250l-105 543h-155l-107 -543h-250l-78 543h-165v190h139l-101 701h209l88 -701h127l105 549h221l105 -549h126l86 701h211l-100 -701h137zM662 733h81l-41 209zM410 330l41 213h-68zM995 330l27 213h-68z" />
    <glyph glyph-name="uni20AA" unicode="&#x20aa;" horiz-adv-x="1746" 
d="M1182 1098v-752h-219v754q0 133 -134 133h-440v-1233h-219v1434h659q185 0 269 -77.5t84 -258.5zM567 336v751h217v-753q0 -133 134 -133h440v1233h219v-1434h-659q-101 0 -165 14.5t-107.5 53t-61 102.5t-17.5 166z" />
    <glyph glyph-name="dong" unicode="&#x20ab;" horiz-adv-x="987" 
d="M98 754q0 179 91.5 286t246.5 107q124 0 195 -86v61v90h-182v140h182v82h209v-82h80v-140h-80v-839h-209v26v47q-32 -39 -82.5 -62.5t-110.5 -23.5q-158 0 -249 106.5t-91 287.5zM643 754q0 99 -46 157t-122 58q-79 0 -124.5 -56.5t-45.5 -158.5t45.5 -158.5t124.5 -56.5
t123.5 56.5t44.5 158.5zM90 127v139h830v-139h-830z" />
    <glyph glyph-name="Euro" unicode="&#x20ac;" horiz-adv-x="1304" 
d="M256 463h-195l91 188h86v66v65h-177l91 189h104q44 227 188 353t355 126q294 0 426 -240l-189 -108q-35 69 -97 108t-140 39q-252 0 -322 -278h461l-90 -189h-393v-65v-66h483l-90 -188h-371q35 -139 116.5 -209t205.5 -70q78 0 140 39t97 111l189 -111
q-131 -239 -426 -239q-211 0 -355 126t-188 353z" />
    <glyph glyph-name="uni20AD" unicode="&#x20ad;" horiz-adv-x="1251" 
d="M942 0l-543 698h-6v-698h-227v698h-129v187h129v549h227v-549h8l502 549h281l-500 -549h485v-187h-495l553 -698h-285z" />
    <glyph glyph-name="uni20B1" unicode="&#x20b1;" horiz-adv-x="1368" 
d="M1303 1155v-106h-142q2 -8 2 -39t-2 -39h142v-107h-158q-39 -132 -146 -205t-272 -73h-299v-586h-227v864h-135v107h135v78h-135v106h135v279h526q165 0 272 -73t146 -206h158zM428 1223v-68h461q-53 68 -170 68h-291zM930 1049h-502v-78h502q2 8 2 39t-2 39zM889 864
h-461v-67h291q118 0 170 67z" />
    <glyph glyph-name="uni20B4" unicode="&#x20b4;" horiz-adv-x="1114" 
d="M924 958h110v-190h-962v190h624q47 53 47 132q0 63 -48.5 106t-121.5 43q-174 0 -233 -154l-184 117q108 248 417 248q170 0 279 -92.5t109 -233.5q0 -99 -37 -166zM72 477v189h962v-189h-622q-41 -47 -41 -110q0 -81 52.5 -126.5t139.5 -45.5q197 0 258 172l187 -119
q-56 -126 -170.5 -195t-274.5 -69q-189 0 -303.5 95.5t-114.5 254.5q0 74 29 143h-102z" />
    <glyph glyph-name="uni20B8" unicode="&#x20b8;" horiz-adv-x="1062" 
d="M53 1237v197h959v-197h-959zM418 0v893h-365v209h959v-209h-367v-893h-227z" />
    <glyph glyph-name="uni20B9" unicode="&#x20b9;" horiz-adv-x="1150" 
d="M1085 1286h-188q58 -79 72 -180h116v-133h-116q-20 -154 -131.5 -241t-292.5 -87h-166l586 -645h-295l-604 664v186h477q165 0 200 123h-677v133h677q-30 123 -200 123h-477v205h1019v-148z" />
    <glyph glyph-name="uni20BA" unicode="&#x20ba;" horiz-adv-x="1196" 
d="M874 535h228v-111q0 -195 -113.5 -309.5t-320.5 -114.5h-488v289l-143 -88v205l143 88v112l-143 -88v205l143 88v623h228v-486l350 213v-205l-350 -213v-112l350 213v-205l-350 -213v-215h254q104 0 158 54.5t54 158.5v111z" />
    <glyph glyph-name="uni20BD" unicode="&#x20bd;" horiz-adv-x="1273" 
d="M762 586h-299v-137h508v-195h-508v-254h-227v254h-170v195h170v137h-170v196h170v652h526q208 0 322 -114.5t114 -309.5t-114 -309.5t-322 -114.5zM463 1223v-426h291q104 0 158.5 54.5t54.5 158.5t-54.5 158.5t-158.5 54.5h-291z" />
    <glyph glyph-name="uni20BF" unicode="&#x20bf;" horiz-adv-x="1257" 
d="M788 6v-149h-163v143h-101v-143h-164v143h-190v1434h190v143h164v-143h101v143h163v-154q141 -26 217 -121t76 -249q0 -93 -40.5 -164t-110.5 -107q108 -42 166.5 -132t58.5 -224q0 -177 -96.5 -286t-270.5 -134zM662 1223h-265v-361h269q98 0 146 43.5t48 136.5
q0 95 -48.5 138t-149.5 43zM928 430q0 113 -63.5 167t-196.5 54h-271v-440h271q133 0 196.5 54t63.5 165z" />
    <glyph glyph-name="uni2113" unicode="&#x2113;" horiz-adv-x="976" 
d="M745 348l185 -67q-42 -149 -130 -223t-229 -74q-175 0 -259.5 89.5t-84.5 268.5v199l-106 -64l-103 170q102 59 209 129v352q0 150 77.5 236t223.5 86q135 0 205 -74.5t70 -187.5q0 -123 -83.5 -244.5t-230.5 -228.5l-36 -27v-375q0 -68 34.5 -104.5t96.5 -36.5
q61 0 98.5 41t62.5 135zM453 1169v-223q125 119 125 238q0 78 -60 78q-65 0 -65 -93z" />
    <glyph glyph-name="uni2116" unicode="&#x2116;" horiz-adv-x="2318" 
d="M1421 1047q0 172 110.5 287.5t293.5 115.5q184 0 293.5 -115t109.5 -288q0 -111 -47.5 -202.5t-140.5 -146.5t-215 -55t-215 55t-141 146.5t-48 202.5zM170 0v1434h244l581 -1028v1028h228v-1434h-244l-582 1026v-1026h-227zM2003 1047q0 94 -47.5 154.5t-130.5 60.5
q-80 0 -128 -61t-48 -154t48 -154.5t128 -61.5q82 0 130 61t48 155zM1477 317v189h698v-189h-698z" />
    <glyph glyph-name="uni2117" unicode="&#x2117;" horiz-adv-x="1812" 
d="M123 717q-3 163 58 312.5t166 257t251.5 170t306.5 59.5q160 3 307 -59.5t252.5 -170t167 -257t58.5 -312.5q3 -163 -58.5 -312.5t-167 -257t-252.5 -170t-307 -59.5q-160 -3 -306.5 59.5t-251.5 170t-166 257t-58 312.5zM1493 717q0 173 -74.5 312t-209.5 217.5
t-304 78.5q-168 0 -302.5 -78.5t-209 -217.5t-74.5 -312t74.5 -312t209 -217.5t302.5 -78.5q169 0 304 78.5t209.5 217.5t74.5 312zM623 281v872h329q136 0 209.5 -65.5t73.5 -184.5q0 -130 -68 -190t-215 -60h-143v-372h-186zM809 805h129q115 0 115 98t-115 98h-129v-196z
" />
    <glyph glyph-name="uni2120" unicode="&#x2120;" horiz-adv-x="1681" 
d="M61 825l127 72q36 -149 158 -149q50 0 79.5 26.5t29.5 75.5q0 50 -36.5 82.5t-129.5 68.5q-178 70 -178 230q0 95 66 157t171 62q89 0 142.5 -36t91.5 -114l-125 -73q-32 80 -105 80q-37 0 -60.5 -21t-23.5 -53q0 -41 33.5 -66.5t138.5 -70.5q183 -80 183 -238
q0 -117 -80 -188.5t-203 -71.5q-105 0 -182.5 64t-96.5 163zM752 614v820h172l211 -508l213 508h170v-820h-170v459l-158 -383h-109l-159 383v-459h-170z" />
    <glyph glyph-name="trademark" unicode="&#x2122;" horiz-adv-x="1720" 
d="M270 614v664h-219v156h608v-156h-219v-664h-170zM793 614v820h170l211 -508l212 508h170v-820h-167v459l-160 -383h-109l-159 383v-459h-168z" />
    <glyph glyph-name="uni2126" unicode="&#x2126;" horiz-adv-x="1411" 
d="M68 0v197h303q-150 142 -230 290t-80 334q0 135 46 251t129 199.5t204.5 131t266.5 47.5t266.5 -47.5t204 -131t128.5 -199.5t46 -251q0 -186 -80 -334t-230 -290h304v-197h-547v197q321 254 321 606q0 200 -114.5 318t-298.5 118q-185 0 -299.5 -118t-114.5 -318
q0 -351 319 -606v-197h-544z" />
    <glyph glyph-name="estimated" unicode="&#x212e;" horiz-adv-x="1560" 
d="M322 717v-412q67 -103 191 -163t267 -60q178 0 321.5 81.5t209.5 223.5h114q-87 -179 -264 -291q-174 -110 -381 -110q-125 -2 -238.5 35t-201 105.5t-151.5 159.5t-97 202t-31 229q-2 120 31 231.5t97 203t151.5 159.5t201 104.5t238.5 34.5q203 3 369 -91.5
t259.5 -263.5t90.5 -378h-1177zM322 1147v-334h927v328q-65 95 -192 156t-277 61q-141 0 -262.5 -56.5t-195.5 -154.5z" />
    <glyph glyph-name="uni2153" unicode="&#x2153;" horiz-adv-x="1796" 
d="M227 614v598l-174 -77v170l271 129h61v-820h-158zM313 -70l-129 105l1104 1468l129 -102zM1184 244l147 20q10 -59 44.5 -91t84.5 -32q56 0 85.5 35.5t29.5 99.5q0 61 -29.5 93t-83.5 32q-40 0 -73 -20l-74 94l149 197h-241v147h471v-61l-189 -246q100 5 168 -63.5
t68 -176.5q0 -127 -72.5 -203.5t-204.5 -76.5q-118 0 -195 70.5t-85 181.5z" />
    <glyph glyph-name="uni2154" unicode="&#x2154;" horiz-adv-x="1982" 
d="M66 614v62l299 366q61 74 61 154q0 44 -24.5 70t-67.5 26q-44 0 -73.5 -31.5t-39.5 -91.5l-147 41q12 103 84 167.5t176 64.5q117 0 188.5 -67t71.5 -177q0 -106 -82 -207l-186 -227h282v-150h-542zM500 -70l-129 105l1104 1468l129 -102zM1370 244l148 20
q10 -59 44.5 -91t84.5 -32q56 0 85 35.5t29 99.5q0 61 -29 93t-83 32q-41 0 -74 -20l-74 94l150 197h-242v147h471v-61l-188 -246q100 5 167.5 -63.5t67.5 -176.5q0 -128 -72 -204t-204 -76q-118 0 -195.5 70.5t-85.5 181.5z" />
    <glyph glyph-name="oneeighth" unicode="&#x215b;" horiz-adv-x="1814" 
d="M227 614v598l-174 -77v170l271 129h61v-820h-158zM313 -70l-129 105l1104 1468l129 -102zM1180 254q0 133 120 188q-43 23 -67.5 67t-24.5 99q0 94 68.5 156.5t177.5 62.5t178.5 -63.5t69.5 -155.5q0 -55 -25.5 -98.5t-68.5 -67.5q55 -25 88 -72.5t33 -115.5
q0 -120 -75.5 -191t-199.5 -71t-199 70.5t-75 191.5zM1550 604q0 47 -26 74t-70 27t-70 -27t-26 -74t26 -74.5t70 -27.5t70 27.5t26 74.5zM1563 254q0 50 -30 80.5t-79 30.5t-78.5 -30.5t-29.5 -80.5t29.5 -81.5t78.5 -31.5t79 31.5t30 81.5z" />
    <glyph glyph-name="threeeighths" unicode="&#x215c;" horiz-adv-x="1988" 
d="M70 858l147 21q10 -59 44.5 -91t84.5 -32q56 0 85.5 35.5t29.5 99.5q0 61 -29.5 93t-83.5 32q-40 0 -74 -21l-73 95l149 196h-241v148h471v-62l-189 -246q100 5 168 -63t68 -176q0 -128 -72.5 -204.5t-204.5 -76.5q-118 0 -195 70.5t-85 181.5zM487 -70l-129 105
l1104 1468l129 -102zM1354 254q0 68 33 115.5t88 72.5q-43 24 -68 67.5t-25 98.5q0 94 68.5 156.5t177.5 62.5t178.5 -63.5t69.5 -155.5q0 -55 -25.5 -98.5t-68.5 -67.5q55 -25 88 -72.5t33 -115.5q0 -120 -75.5 -191t-199.5 -71t-199 70.5t-75 191.5zM1724 604q0 47 -26 74
t-70 27t-70 -27t-26 -74t26 -74.5t70 -27.5t70 27.5t26 74.5zM1737 254q0 50 -30 80.5t-79 30.5t-78.5 -30.5t-29.5 -80.5t29.5 -81.5t78.5 -31.5t79 31.5t30 81.5z" />
    <glyph glyph-name="fiveeighths" unicode="&#x215d;" horiz-adv-x="2004" 
d="M74 844l155 18q11 -50 41 -78t76 -28q61 0 93 35.5t32 101.5q0 133 -125 133q-73 0 -131 -61l-123 26l43 443h453v-148h-320l-22 -168q56 39 135 39q121 0 188.5 -71.5t67.5 -192.5q0 -133 -78.5 -210t-212.5 -77q-106 0 -183 66.5t-89 171.5zM504 -70l-129 105
l1104 1468l129 -102zM1370 254q0 68 33 115.5t88 72.5q-43 23 -67.5 67t-24.5 99q0 94 68.5 156.5t177.5 62.5q108 0 177.5 -63.5t69.5 -155.5q0 -55 -25.5 -98.5t-68.5 -67.5q55 -25 88 -72.5t33 -115.5q0 -121 -75 -191.5t-199 -70.5t-199.5 71t-75.5 191zM1741 604
q0 47 -26 74t-70 27q-45 0 -71 -27t-26 -74t26.5 -74.5t70.5 -27.5t70 27.5t26 74.5zM1753 254q0 50 -29.5 80.5t-78.5 30.5t-79 -30.5t-30 -80.5t30 -81.5t79 -31.5t78.5 31.5t29.5 81.5z" />
    <glyph glyph-name="seveneighths" unicode="&#x215e;" horiz-adv-x="1841" 
d="M96 614l279 672h-314v148h514v-64l-309 -756h-170zM340 -70l-129 105l1104 1468l129 -102zM1206 254q0 68 33 115.5t88 72.5q-43 23 -67.5 67t-24.5 99q0 94 68.5 156.5t177.5 62.5t178.5 -63.5t69.5 -155.5q0 -55 -25.5 -98.5t-69.5 -67.5q55 -25 88 -72.5t33 -115.5
q0 -121 -75 -191.5t-199 -70.5t-199.5 71t-75.5 191zM1577 604q0 47 -26 74t-70 27q-45 0 -71 -27t-26 -74t26.5 -74.5t70.5 -27.5t70 27.5t26 74.5zM1589 254q0 50 -29.5 80.5t-78.5 30.5t-79 -30.5t-30 -80.5t30 -81.5t79 -31.5t78.5 31.5t29.5 81.5z" />
    <glyph glyph-name="arrowleft" unicode="&#x2190;" horiz-adv-x="1343" 
d="M590 213l-506 504l506 504l127 -131l-275 -279h801v-188h-801l275 -279z" />
    <glyph glyph-name="arrowup" unicode="&#x2191;" horiz-adv-x="1318" 
d="M565 137v803l-278 -274l-131 127l503 503l504 -503l-131 -127l-278 274v-803h-189z" />
    <glyph glyph-name="arrowright" unicode="&#x2192;" horiz-adv-x="1343" 
d="M739 213l-127 131l275 279h-803v188h803l-275 279l127 131l504 -504z" />
    <glyph glyph-name="arrowdown" unicode="&#x2193;" horiz-adv-x="1318" 
d="M659 137l-503 504l131 127l278 -274v802h189v-802l278 274l131 -127z" />
    <glyph glyph-name="arrowboth" unicode="&#x2194;" horiz-adv-x="1693" 
d="M1092 1221l503 -504l-503 -504l-127 131l274 279h-797l275 -279l-127 -131l-506 504l506 504l127 -131l-275 -279h797l-274 279z" />
    <glyph glyph-name="arrowupdn" unicode="&#x2195;" horiz-adv-x="1318" 
d="M754 317l278 275l131 -127l-504 -504l-503 504l131 127l278 -275v803l-278 -274l-131 127l503 506l504 -506l-131 -127l-278 274v-803z" />
    <glyph glyph-name="uni2196" unicode="&#x2196;" horiz-adv-x="1320" 
d="M967 272l-564 568v-394h-190v715h713v-190h-391l565 -563z" />
    <glyph glyph-name="uni2197" unicode="&#x2197;" horiz-adv-x="1320" 
d="M354 272l-133 136l565 563h-391v190h713v-715h-190v394z" />
    <glyph glyph-name="uni2198" unicode="&#x2198;" horiz-adv-x="1320" 
d="M395 272v191h391l-565 563l133 135l564 -567v393h190v-715h-713z" />
    <glyph glyph-name="uni2199" unicode="&#x2199;" horiz-adv-x="1320" 
d="M213 272v715h188v-393l566 567l133 -135l-565 -563h391v-191h-713z" />
    <glyph glyph-name="partialdiff" unicode="&#x2202;" horiz-adv-x="1230" 
d="M90 426q-3 171 76 315t222 227.5t317 80.5q58 0 115 -18t93 -48q-19 136 -85 207.5t-175 71.5q-166 0 -243 -160l-201 59q43 125 162 207t270 82q256 0 379 -176t123 -529q0 -331 -152 -548q-151 -213 -467 -213q-190 0 -312 122.5t-122 319.5zM899 592q0 268 -217 268
q-100 3 -184 -60t-128 -160.5t-42 -201.5q0 -119 59 -192.5t166 -73.5q103 0 183 59t121.5 154t41.5 207z" />
    <glyph glyph-name="uni2206" unicode="&#x2206;" horiz-adv-x="1230" 
d="M23 0v55l499 1379h187l501 -1379v-55h-1187zM281 190h669l-334 969z" />
    <glyph glyph-name="product" unicode="&#x220f;" horiz-adv-x="1142" 
d="M170 0v1434h803v-1434h-215v1245h-373v-1245h-215z" />
    <glyph glyph-name="summation" unicode="&#x2211;" horiz-adv-x="1103" 
d="M111 0v88l397 629l-397 629v88h886v-189h-587l315 -504v-49l-315 -504h587v-188h-886z" />
    <glyph glyph-name="minus" unicode="&#x2212;" horiz-adv-x="1206" 
d="M137 555v188h934v-188h-934z" />
    <glyph glyph-name="uni2215" unicode="&#x2215;" horiz-adv-x="1118" 
d="M6 -102l893 1638h213l-893 -1638h-213z" />
    <glyph glyph-name="uni2219" unicode="&#x2219;" horiz-adv-x="739" 
d="M170 621q0 84 59 142t142 58q82 0 140 -58t58 -142t-58 -142.5t-140 -58.5t-141.5 59.5t-59.5 141.5z" />
    <glyph glyph-name="radical" unicode="&#x221a;" horiz-adv-x="1124" 
d="M496 0l-199 602h-223v195h346l158 -496l333 1149h207l-446 -1450h-176z" />
    <glyph glyph-name="infinity" unicode="&#x221e;" horiz-adv-x="1798" 
d="M106 735q0 179 103.5 285t284.5 106q120 0 226.5 -55.5t178.5 -161.5q72 106 179 161.5t227 55.5q181 0 284 -106t103 -285t-103 -285t-284 -106q-120 0 -227 55.5t-179 161.5q-72 -106 -178.5 -161.5t-226.5 -55.5q-181 0 -284.5 106t-103.5 285zM791 735
q-52 101 -122.5 154t-142.5 53q-95 0 -152 -54.5t-57 -152.5q0 -97 57 -152t152 -55q72 0 142.5 53t122.5 154zM1483 735q0 99 -56.5 153t-154.5 54q-71 0 -140 -53t-122 -154q53 -101 122 -154t140 -53q98 0 154.5 55t56.5 152z" />
    <glyph glyph-name="integral" unicode="&#x222b;" horiz-adv-x="985" 
d="M-164 -397l82 178q58 -27 113 -27q139 0 166 154l231 1182q36 186 138 273t270 87q116 0 172 -37l-82 -178q-53 27 -113 27q-139 0 -166 -154l-231 -1182q-36 -187 -135.5 -273.5t-264.5 -86.5q-124 0 -180 37z" />
    <glyph glyph-name="approxequal" unicode="&#x2248;" horiz-adv-x="1175" 
d="M575 362q-59 31 -97 43.5t-83 12.5q-106 0 -186 -101l-117 123q44 90 123.5 148.5t167.5 58.5q56 0 100 -13.5t117 -49.5q59 -31 97 -43.5t83 -12.5q111 0 187 101l116 -123q-44 -90 -123 -148.5t-167 -58.5q-56 0 -101 14t-117 49zM575 782q-59 31 -97 43.5t-83 12.5
q-106 0 -186 -101l-117 123q44 90 123.5 148.5t167.5 58.5q56 0 100 -13.5t117 -49.5q59 -31 97 -43.5t83 -12.5q111 0 187 101l116 -123q-44 -90 -123 -148.5t-167 -58.5q-56 0 -101 14t-117 49z" />
    <glyph glyph-name="notequal" unicode="&#x2260;" horiz-adv-x="1136" 
d="M397 150l-164 90l70 125h-166v188h275l96 172h-371v188h479l123 217l164 -92l-69 -125h167v-188h-276l-96 -172h372v-188h-481z" />
    <glyph glyph-name="lessequal" unicode="&#x2264;" horiz-adv-x="1206" 
d="M985 315l-766 404v209l766 403v-227l-534 -281l534 -280v-228zM137 0v188h934v-188h-934z" />
    <glyph glyph-name="greaterequal" unicode="&#x2265;" horiz-adv-x="1206" 
d="M221 315v228l535 280l-535 281v227l766 -403v-209zM137 0v188h934v-188h-934z" />
    <glyph glyph-name="lozenge" unicode="&#x25ca;" horiz-adv-x="1212" 
d="M502 0l-373 717l373 717h209l372 -717l-372 -717h-209zM606 190l260 527l-260 526l-260 -526z" />
    <glyph glyph-name="uniF8FF" unicode="&#xf8ff;" horiz-adv-x="1622" 
d="M205 45v1219q0 14 10 27.5t23 17.5l553 159l20 5l20 -5l553 -159q13 -4 23 -17.5t10 -27.5v-1219q0 -19 -13 -32t-32 -13l-14 2l-547 158l-547 -158l-14 -2q-19 0 -32 13t-13 32zM766 750v620l-471 -137q12 -191 146.5 -329.5t324.5 -153.5zM1327 1233l-471 137v-620
q190 15 324.5 153.5t146.5 329.5zM293 104l473 138v417q-149 12 -274 89t-199 200v-844zM1329 104v844q-75 -124 -200 -200.5t-273 -88.5v-417z" />
    <glyph glyph-name="fi" unicode="&#xfb01;" horiz-adv-x="1120" 
d="M162 0v844h-142v188h142v19q0 191 123 295t331 104q81 0 159 -16t128 -43l-59 -181q-101 52 -219 52q-116 0 -182 -54.5t-66 -152.5v-23h596v-1032h-217v844h-379v-844h-215z" />
    <glyph glyph-name="fl" unicode="&#xfb02;" horiz-adv-x="1120" 
d="M162 0v844h-142v188h142v58q0 177 90 268.5t254 91.5h467v-1450h-217v1262h-242q-137 0 -137 -154v-76h227v-188h-227v-844h-215z" />
    <glyph glyph-name="uni0122.ss02" horiz-adv-x="1470" 
d="M98 717q0 172 54 313t146.5 231.5t212 139.5t253.5 49q222 0 374 -118t210 -324l-211 -56q-52 139 -146 213t-227 74q-197 0 -315.5 -137t-118.5 -385q0 -252 117 -387t313 -135q160 0 250.5 90.5t101.5 244.5h-285v193h506v-723h-190l-23 174q-53 -88 -148 -139
t-222 -51q-132 -2 -250 47t-208.5 140t-143 232.5t-50.5 313.5zM662 -575l-35 45q102 67 118 184q-102 38 -102 125q0 52 37.5 89.5t93.5 37.5q59 0 96 -39t37 -100q0 -98 -63 -181t-182 -161z" />
    <glyph glyph-name="uni0136.ss02" horiz-adv-x="1257" 
d="M170 0v1434h227v-557l510 557h281l-584 -641l629 -793h-287l-549 707v-707h-227zM559 -575l-35 45q103 67 119 184q-102 38 -102 125q0 52 37.5 89.5t93.5 37.5q59 0 96 -39t37 -100q0 -98 -63 -181t-183 -161z" />
    <glyph glyph-name="Lcaron.ss02" horiz-adv-x="1097" 
d="M170 0v1434h227v-1223h627v-211h-854zM778 1094l-35 45q103 67 119 184q-102 37 -102 125q0 52 37.5 89.5t93.5 37.5q59 0 96 -39t37 -100q0 -98 -63 -181t-183 -161z" />
    <glyph glyph-name="uni013B.ss02" horiz-adv-x="1097" 
d="M170 0v1434h227v-1223h627v-211h-854zM494 -575l-35 45q103 67 119 184q-103 38 -103 125q0 52 37.5 89.5t93.5 37.5q59 0 96 -39t37 -100q0 -98 -63 -181t-182 -161z" />
    <glyph glyph-name="uni0145.ss02" horiz-adv-x="1392" 
d="M170 0v1434h244l581 -1028v1028h228v-1434h-244l-582 1026v-1026h-227zM590 -575l-35 45q103 67 119 184q-103 38 -103 125q0 52 37.5 89.5t93.5 37.5q59 0 96.5 -39t37.5 -100q0 -98 -63 -181t-183 -161z" />
    <glyph glyph-name="uni0156.ss02" horiz-adv-x="1284" 
d="M170 0v1434h504q203 0 315.5 -105t112.5 -289q0 -148 -73 -246t-208 -130l412 -664h-254l-404 645h-178v-645h-227zM397 856h277q96 0 148 46t52 138q0 183 -200 183h-277v-367zM567 -575l-35 45q103 67 119 184q-102 38 -102 125q0 52 37.5 89.5t93.5 37.5q59 0 96 -39
t37 -100q0 -98 -63 -181t-183 -161z" />
    <glyph glyph-name="uni0218.ss02" horiz-adv-x="1073" 
d="M72 381l186 115q79 -301 299 -301q95 0 151 52.5t56 149.5q0 63 -37 109q-34 44 -85 75.5t-165 88.5l-37 18q-140 71 -212 162.5t-72 230.5q0 157 109 263t274 106q279 0 387 -248l-183 -117q-59 154 -204 154q-69 0 -116.5 -43.5t-47.5 -105.5q0 -64 39 -109
q36 -44 90.5 -76.5t161.5 -79.5q167 -77 247 -171t80 -246q0 -190 -123.5 -307t-318.5 -117q-181 0 -312.5 113t-166.5 284zM444 -575l-34 45q102 67 118 184q-102 38 -102 125q0 52 37.5 89.5t93.5 37.5q59 0 96 -39t37 -100q0 -98 -63 -181t-183 -161z" />
    <glyph glyph-name="uni021A.ss02" horiz-adv-x="1148" 
d="M461 0v1223h-408v211h1043v-211h-408v-1223h-227zM467 -575l-35 45q103 67 119 184q-102 38 -102 125q0 52 37.5 89.5t93.5 37.5q59 0 96 -39t37 -100q0 -98 -63 -181t-183 -161z" />
    <glyph glyph-name="i.loclTRK" horiz-adv-x="512" 
d="M147 0v1032h218v-1032h-218zM111 1329q0 62 41 104t104 42t105 -42t42 -104t-42 -103.5t-105 -41.5t-104 41.5t-41 103.5z" />
    <glyph glyph-name="a.ss01" horiz-adv-x="1193" 
d="M90 516q0 242 119 385q121 148 334 148q90 0 166 -34t120 -91v61v47h218v-1032h-218v57v62q-32 -57 -111 -96t-175 -39q-213 0 -334 145q-119 146 -119 387zM850 516q0 158 -72 251t-194 93q-120 0 -194.5 -93.5t-74.5 -250.5t74.5 -250.5t194.5 -93.5q122 0 194 93
t72 251z" />
    <glyph glyph-name="aacute.ss01" horiz-adv-x="1193" 
d="M90 516q0 242 119 385q121 148 334 148q90 0 166 -34t120 -91v61v47h218v-1032h-218v57v62q-32 -57 -111 -96t-175 -39q-213 0 -334 145q-119 146 -119 387zM850 516q0 158 -72 251t-194 93q-120 0 -194.5 -93.5t-74.5 -250.5t74.5 -250.5t194.5 -93.5q122 0 194 93
t72 251zM483 1135l140 311h297l-277 -311h-160z" />
    <glyph glyph-name="abreve.ss01" horiz-adv-x="1193" 
d="M90 516q0 242 119 385q121 148 334 148q90 0 166 -34t120 -91v61v47h218v-1032h-218v57v62q-32 -57 -111 -96t-175 -39q-213 0 -334 145q-119 146 -119 387zM850 516q0 158 -72 251t-194 93q-120 0 -194.5 -93.5t-74.5 -250.5t74.5 -250.5t194.5 -93.5q122 0 194 93
t72 251zM338 1434h162q0 -36 18 -56t53 -20t53.5 20t18.5 56h162q0 -99 -64.5 -161.5t-169.5 -62.5t-169 62.5t-64 161.5z" />
    <glyph glyph-name="acircumflex.ss01" horiz-adv-x="1193" 
d="M90 516q0 242 119 385q121 148 334 148q90 0 166 -34t120 -91v61v47h218v-1032h-218v57v62q-32 -57 -111 -96t-175 -39q-213 0 -334 145q-119 146 -119 387zM850 516q0 158 -72 251t-194 93q-120 0 -194.5 -93.5t-74.5 -250.5t74.5 -250.5t194.5 -93.5q122 0 194 93
t72 251zM227 1147l314 336h63l311 -336h-206l-138 147l-135 -147h-209z" />
    <glyph glyph-name="adieresis.ss01" horiz-adv-x="1193" 
d="M90 516q0 242 119 385q121 148 334 148q90 0 166 -34t120 -91v61v47h218v-1032h-218v57v62q-32 -57 -111 -96t-175 -39q-213 0 -334 145q-119 146 -119 387zM850 516q0 158 -72 251t-194 93q-120 0 -194.5 -93.5t-74.5 -250.5t74.5 -250.5t194.5 -93.5q122 0 194 93
t72 251zM242 1319q0 57 38 95t95 38t94 -38t37 -95q0 -56 -37 -93.5t-94 -37.5t-95 37.5t-38 93.5zM633 1319q0 57 37 95t94 38t95 -38t38 -95q0 -56 -38 -93.5t-95 -37.5t-94 37.5t-37 93.5z" />
    <glyph glyph-name="agrave.ss01" horiz-adv-x="1193" 
d="M90 516q0 242 119 385q121 148 334 148q90 0 166 -34t120 -91v61v47h218v-1032h-218v57v62q-32 -57 -111 -96t-175 -39q-213 0 -334 145q-119 146 -119 387zM850 516q0 158 -72 251t-194 93q-120 0 -194.5 -93.5t-74.5 -250.5t74.5 -250.5t194.5 -93.5q122 0 194 93
t72 251zM498 1135l-279 311h299l139 -311h-159z" />
    <glyph glyph-name="amacron.ss01" horiz-adv-x="1193" 
d="M90 516q0 242 119 385q121 148 334 148q90 0 166 -34t120 -91v61v47h218v-1032h-218v57v62q-32 -57 -111 -96t-175 -39q-213 0 -334 145q-119 146 -119 387zM850 516q0 158 -72 251t-194 93q-120 0 -194.5 -93.5t-74.5 -250.5t74.5 -250.5t194.5 -93.5q122 0 194 93
t72 251zM305 1223v174h533v-174h-533z" />
    <glyph glyph-name="aogonek.ss01" horiz-adv-x="1193" 
d="M1047 -199l38 -141q-49 -29 -124 -29q-87 0 -138 47.5t-51 128.5q0 55 31 108t82 85h-56v57v62q-32 -57 -111 -96t-175 -39q-213 0 -334 145q-119 146 -119 387q0 242 119 385q121 148 334 148q90 0 166 -34t120 -91v61v47h218v-1032q-119 -98 -119 -162
q0 -26 15.5 -41.5t41.5 -15.5q33 0 62 20zM850 516q0 158 -72 251t-194 93q-120 0 -194.5 -93.5t-74.5 -250.5t74.5 -250.5t194.5 -93.5q122 0 194 93t72 251z" />
    <glyph glyph-name="aring.ss01" horiz-adv-x="1193" 
d="M90 516q0 242 119 385q121 148 334 148q90 0 166 -34t120 -91v61v47h218v-1032h-218v57v62q-32 -57 -111 -96t-175 -39q-213 0 -334 145q-119 146 -119 387zM850 516q0 158 -72 251t-194 93q-120 0 -194.5 -93.5t-74.5 -250.5t74.5 -250.5t194.5 -93.5q122 0 194 93
t72 251zM358 1339q0 88 60.5 147.5t150.5 59.5q91 0 152 -59.5t61 -147.5q0 -87 -61 -144.5t-152 -57.5t-151 57t-60 145zM647 1341q0 35 -21.5 56.5t-56.5 21.5q-32 0 -53.5 -22.5t-21.5 -55.5q0 -35 21 -56t54 -21q35 0 56.5 21t21.5 56z" />
    <glyph glyph-name="aringacute.ss01" horiz-adv-x="1193" 
d="M90 516q0 242 119 385q121 148 334 148q90 0 166 -34t120 -91v61v47h218v-1032h-218v57v62q-32 -57 -111 -96t-175 -39q-213 0 -334 145q-119 146 -119 387zM850 516q0 158 -72 251t-194 93q-120 0 -194.5 -93.5t-74.5 -250.5t74.5 -250.5t194.5 -93.5q122 0 194 93
t72 251zM358 1339q0 88 60.5 147.5t150.5 59.5q91 0 152 -59.5t61 -147.5q0 -87 -61 -144.5t-152 -57.5t-151 57t-60 145zM647 1341q0 35 -21.5 56.5t-56.5 21.5q-32 0 -53.5 -22.5t-21.5 -55.5q0 -35 21 -56t54 -21q35 0 56.5 21t21.5 56zM483 1618l140 311h297l-277 -311
h-160z" />
    <glyph glyph-name="atilde.ss01" horiz-adv-x="1193" 
d="M90 516q0 242 119 385q121 148 334 148q90 0 166 -34t120 -91v61v47h218v-1032h-218v57v62q-32 -57 -111 -96t-175 -39q-213 0 -334 145q-119 146 -119 387zM850 516q0 158 -72 251t-194 93q-120 0 -194.5 -93.5t-74.5 -250.5t74.5 -250.5t194.5 -93.5q122 0 194 93
t72 251zM313 1174l-120 100q37 76 100.5 122t134.5 46q47 0 81 -11t79 -36q31 -16 43.5 -21.5t30.5 -10.5t38 -5q67 0 129 86l121 -101q-37 -75 -101.5 -121t-135.5 -46q-46 0 -78 10.5t-80 36.5q-30 15 -43.5 21t-31.5 11t-38 5q-67 0 -129 -86z" />
    <glyph glyph-name="ae.ss01" horiz-adv-x="1863" 
d="M90 516q0 242 119 385q121 148 334 148q90 0 166 -34t120 -91v108h218v-102q42 57 117.5 88t166.5 31q136 0 239 -73t153.5 -185t50.5 -242v-90h-727q0 -135 70.5 -211t193.5 -76q93 0 155.5 42t114.5 136l178 -69q-134 -297 -428 -297q-195 0 -284 118v-102h-218v119
q-32 -57 -111 -96t-175 -39q-213 0 -334 145q-119 146 -119 387zM850 516q0 158 -72 251t-194 93q-120 0 -194.5 -93.5t-74.5 -250.5t74.5 -250.5t194.5 -93.5q122 0 194 93t72 251zM1051 635h501q-19 104 -83 164.5t-166 60.5q-100 0 -166.5 -62.5t-85.5 -162.5z" />
    <glyph glyph-name="aeacute.ss01" horiz-adv-x="1863" 
d="M90 516q0 242 119 385q121 148 334 148q90 0 166 -34t120 -91v108h218v-102q42 57 117.5 88t166.5 31q136 0 239 -73t153.5 -185t50.5 -242v-90h-727q0 -135 70.5 -211t193.5 -76q93 0 155.5 42t114.5 136l178 -69q-134 -297 -428 -297q-195 0 -284 118v-102h-218v119
q-32 -57 -111 -96t-175 -39q-213 0 -334 145q-119 146 -119 387zM850 516q0 158 -72 251t-194 93q-120 0 -194.5 -93.5t-74.5 -250.5t74.5 -250.5t194.5 -93.5q122 0 194 93t72 251zM1051 635h501q-19 104 -83 164.5t-166 60.5q-100 0 -166.5 -62.5t-85.5 -162.5zM852 1135
l139 311h297l-276 -311h-160z" />
    <glyph glyph-name="dcaron.ss02" horiz-adv-x="1464" 
d="M90 516q0 242 119 385q121 148 334 148q90 0 166 -34t120 -91v61v465h218v-1450h-218v57v62q-32 -57 -111 -96t-175 -39q-213 0 -334 145q-119 146 -119 387zM850 516q0 158 -72 251t-194 93q-120 0 -194.5 -93.5t-74.5 -250.5t74.5 -250.5t194.5 -93.5q122 0 194 93
t72 251zM1219 1094l-35 45q103 67 119 184q-103 38 -103 125q0 52 37.5 89.5t93.5 37.5q59 0 96 -39t37 -100q0 -98 -63 -181t-182 -161z" />
    <glyph glyph-name="uni0123.ss02" horiz-adv-x="1026" 
d="M70 -94q0 132 90 209q-62 59 -62 161q0 67 33.5 121t93.5 86q-73 94 -73 217q0 156 106 252.5t264 96.5q104 0 187 -45l190 102l88 -150l-145 -75q51 -77 51 -181q0 -155 -106 -249.5t-265 -94.5q-88 0 -164 31q-59 -30 -59 -88q0 -41 28.5 -62.5t78.5 -21.5h227
q162 0 254 -76t92 -217q0 -178 -131 -266q-134 -90 -324 -90q-207 0 -330.5 90.5t-123.5 249.5zM688 700q0 77 -46.5 124.5t-119.5 47.5t-119.5 -47.5t-46.5 -124.5q0 -74 47 -121t119 -47t119 47t47 121zM764 -94q0 67 -44 97t-132 30h-160q-71 0 -115 8q-43 -43 -43 -123
q0 -79 67.5 -123.5t186.5 -44.5q112 0 176 41t64 115zM391 1290q0 187 248 342l33 -45q-49 -32 -80 -80.5t-39 -103.5q102 -38 102 -125q0 -52 -37.5 -89.5t-93.5 -37.5q-57 0 -95 39.5t-38 99.5z" />
    <glyph glyph-name="uni0137.ss02" horiz-adv-x="1042" 
d="M147 0v1450h218v-838l364 420h266l-422 -475l453 -557h-266l-395 504v-504h-218zM449 -575l-35 45q102 67 118 184q-102 38 -102 125q0 52 37.5 89.5t93.5 37.5q59 0 96 -39t37 -100q0 -98 -63 -181t-182 -161z" />
    <glyph glyph-name="lcaron.ss02" horiz-adv-x="757" 
d="M147 0v1450h218v-1450h-218zM512 1094l-35 45q103 67 119 184q-102 37 -102 125q0 52 37.5 89.5t93.5 37.5q59 0 96 -39t37 -100q0 -98 -63 -181t-183 -161z" />
    <glyph glyph-name="uni013C.ss02" horiz-adv-x="512" 
d="M147 0v1450h218v-1450h-218zM150 -575l-35 45q102 67 118 184q-102 38 -102 125q0 52 37.5 89.5t93.5 37.5q59 0 96 -39t37 -100q0 -98 -63 -181t-182 -161z" />
    <glyph glyph-name="uni0146.ss02" horiz-adv-x="1159" 
d="M147 0v1032h218v-180q58 92 144 144.5t185 52.5q145 0 231.5 -84.5t86.5 -235.5v-729h-215v672q0 93 -43.5 140.5t-124.5 47.5q-111 0 -187.5 -119t-76.5 -317v-424h-218zM473 -575l-35 45q103 67 119 184q-102 38 -102 125q0 52 37.5 89.5t93.5 37.5q59 0 96 -39
t37 -100q0 -98 -63 -181t-183 -161z" />
    <glyph glyph-name="uni0157.ss02" horiz-adv-x="831" 
d="M147 0v1032h218v-172q50 91 130 140t175 49q56 0 133 -25l-41 -201q-54 31 -119 31q-126 0 -202 -121.5t-76 -355.5v-377h-218zM150 -575l-35 45q102 67 118 184q-102 38 -102 125q0 52 37.5 89.5t93.5 37.5q59 0 96 -39t37 -100q0 -98 -63 -181t-182 -161z" />
    <glyph glyph-name="uni0219.ss02" horiz-adv-x="897" 
d="M78 264l174 92q64 -184 223 -184q61 0 99 33t38 92q0 51 -51 88t-166 82q-126 46 -188 116.5t-62 182.5q0 120 90.5 201.5t225.5 81.5q215 0 311 -166l-133 -121q-64 98 -176 98q-50 0 -82.5 -27t-32.5 -71q0 -45 47 -80t170 -82q252 -88 252 -291q0 -149 -93.5 -237
t-248.5 -88q-154 0 -258.5 78.5t-138.5 201.5zM373 -575l-35 45q103 67 119 184q-103 38 -103 125q0 52 37.5 89.5t93.5 37.5q59 0 96 -39t37 -100q0 -98 -63 -181t-182 -161z" />
    <glyph glyph-name="tcaron.ss02" horiz-adv-x="741" 
d="M186 344v500h-166v188h166v281l217 137v-418h275v-188h-275v-504q0 -89 34.5 -128.5t103.5 -39.5q61 0 108 27l51 -179q-71 -36 -170 -36q-164 0 -254 91.5t-90 268.5zM575 1094l-34 45q102 67 118 184q-102 37 -102 125q0 52 37.5 89.5t93.5 37.5q59 0 96 -39t37 -100
q0 -98 -63 -181t-183 -161z" />
    <glyph glyph-name="uni021B.ss02" horiz-adv-x="741" 
d="M186 344v500h-166v188h166v281l217 137v-418h275v-188h-275v-504q0 -89 34.5 -128.5t103.5 -39.5q61 0 108 27l51 -179q-71 -36 -170 -36q-164 0 -254 91.5t-90 268.5zM369 -575l-35 45q103 67 119 184q-103 38 -103 125q0 52 37.5 89.5t93.5 37.5q59 0 96 -39t37 -100
q0 -98 -63 -181t-182 -161z" />
    <glyph glyph-name="f_b" horiz-adv-x="1802" 
d="M973 115v-62v-53h-217v1262h-242q-137 0 -137 -154v-76h227v-188h-227v-844h-215v844h-142v188h142v58q0 177 90 268.5t254 91.5h467v-465v-61q42 55 117 90t155 35q222 0 344.5 -144t122.5 -389t-122.5 -388.5t-344.5 -143.5q-89 0 -165 38.5t-107 92.5zM1487 516
q0 157 -74 250.5t-194 93.5q-122 0 -194.5 -93t-72.5 -251t72.5 -251t194.5 -93q120 0 194 93.5t74 250.5z" />
    <glyph glyph-name="f_f_b" horiz-adv-x="2396" 
d="M1567 115v-62v-53h-215v1262h-244q-135 0 -135 -154v-76h225v-188h-225v-844h-217v844h-379v-844h-215v844h-142v188h142v58q0 177 90 268.5t254 91.5q108 0 172 -37l-47 -178q-59 27 -117 27q-137 0 -137 -154v-76h379v58q0 177 91 268.5t255 91.5h465v-465v-61
q42 55 117 90t155 35q224 0 346 -146q123 -144 123 -387t-123 -387q-121 -145 -346 -145q-87 0 -163.5 38.5t-108.5 92.5zM2081 516q0 158 -73.5 251t-195.5 93q-119 0 -192.5 -93.5t-73.5 -250.5t73.5 -250.5t192.5 -93.5q122 0 195.5 93t73.5 251z" />
    <glyph glyph-name="f_f_h" horiz-adv-x="2375" 
d="M162 0v844h-142v188h142v58q0 177 90 268.5t254 91.5q108 0 172 -37l-47 -178q-59 27 -117 27q-137 0 -137 -154v-76h379v58q0 177 91 268.5t255 91.5h465v-602q51 94 141.5 147.5t198.5 53.5q153 0 237 -83t84 -237v-729h-215v662q0 198 -172 198q-115 0 -194.5 -112
t-79.5 -310v-438h-215v1262h-244q-135 0 -135 -154v-76h225v-188h-225v-844h-217v844h-379v-844h-215z" />
    <glyph glyph-name="f_f_j" horiz-adv-x="1677" 
d="M1188 -434l-51 192q114 30 164.5 90.5t50.5 180.5v815h-379v-844h-217v844h-379v-844h-215v844h-142v188h142v58q0 177 90 268.5t254 91.5q108 0 172 -37l-47 -178q-59 27 -117 27q-137 0 -137 -154v-76h379v19q0 192 122.5 295.5t333.5 103.5q81 0 159 -16t128 -43
l-61 -181q-101 52 -219 52q-114 0 -180 -55t-66 -152v-23h594v-989q0 -207 -92 -320.5t-287 -156.5z" />
    <glyph glyph-name="f_f_k" horiz-adv-x="2244" 
d="M162 0v844h-142v188h142v58q0 177 90 268.5t254 91.5q108 0 172 -37l-47 -178q-59 27 -117 27q-137 0 -137 -154v-76h379v58q0 177 91 268.5t255 91.5h465v-838l364 420h269l-424 -475l452 -557h-266l-395 504v-504h-215v1262h-244q-135 0 -135 -154v-76h225v-188h-225
v-844h-217v844h-379v-844h-215z" />
    <glyph glyph-name="f_h" horiz-adv-x="1781" 
d="M162 0v844h-142v188h142v58q0 177 90 268.5t254 91.5h467v-602q50 93 140.5 147t199.5 54q153 0 237 -83t84 -237v-729h-217v662q0 198 -172 198q-113 0 -192.5 -113.5t-79.5 -308.5v-438h-217v1262h-242q-137 0 -137 -154v-76h227v-188h-227v-844h-215z" />
    <glyph glyph-name="f_j" horiz-adv-x="1081" 
d="M592 -434l-51 192q114 30 164.5 90.5t50.5 180.5v815h-379v-844h-215v844h-142v188h142v19q0 191 123 295t331 104q81 0 159 -16t128 -43l-59 -181q-101 52 -219 52q-116 0 -182 -54.5t-66 -152.5v-23h596v-989q0 -207 -92 -320.5t-289 -156.5z" />
    <glyph glyph-name="f_k" horiz-adv-x="1648" 
d="M162 0v844h-142v188h142v58q0 177 90 268.5t254 91.5h467v-838l364 420h267l-424 -475l454 -557h-266l-395 504v-504h-217v1262h-242q-137 0 -137 -154v-76h227v-188h-227v-844h-215z" />
    <glyph glyph-name="uni0414.loclBGR" horiz-adv-x="1484" 
d="M1305 211h118v-485h-219v274h-923v-274h-220v485h117l453 1223h223zM741 1137l-327 -926h657z" />
    <glyph glyph-name="uni041B.loclBGR" horiz-adv-x="1251" 
d="M23 0l487 1434h231l488 -1434h-248l-356 1114l-355 -1114h-247z" />
    <glyph glyph-name="uni0432.loclBGR" horiz-adv-x="1105" 
d="M147 477v535q0 210 117 324t303 114q172 0 284 -98.5t112 -257.5q0 -106 -53 -189t-136 -121q103 -44 169.5 -140.5t66.5 -215.5q0 -211 -120 -327.5t-310 -116.5q-206 0 -319.5 125t-113.5 368zM365 858h143q115 0 180.5 60t65.5 159q0 92 -49.5 143.5t-137.5 51.5
q-95 0 -148.5 -61.5t-53.5 -190.5v-162zM791 420q0 117 -71.5 182.5t-201.5 65.5h-153v-219q0 -137 56.5 -205t158.5 -68q99 0 155 62.5t56 181.5z" />
    <glyph glyph-name="uni0433.loclBGR" horiz-adv-x="894" 
d="M80 295q0 216 250 305q131 50 175 82.5t44 81.5q0 43 -33 69.5t-84 26.5q-112 0 -176 -98l-135 121q47 80 128.5 123t184.5 43q136 0 225 -80q91 -82 91 -201q0 -221 -250 -301q-112 -37 -163.5 -77t-51.5 -99q0 -58 39 -88.5t104 -30.5q151 0 215 184l174 -92
q-37 -125 -137 -202.5t-252 -77.5q-156 0 -252 83.5t-96 227.5z" />
    <glyph glyph-name="uni0434.loclBGR" horiz-adv-x="1193" 
d="M117 -139l194 63q56 -170 267 -170q121 0 186 67.5t65 190.5v54v65q-42 -58 -115.5 -94.5t-156.5 -36.5q-224 0 -346 143q-121 145 -121 381q0 242 122.5 383.5t344.5 141.5q89 0 165 -38.5t107 -92.5v61v53h218v-1014q0 -213 -124.5 -332.5t-344.5 -119.5
q-177 0 -297.5 78.5t-163.5 216.5zM850 524q0 155 -72 245.5t-194 90.5t-195.5 -91t-73.5 -245q0 -151 75 -243.5t194 -92.5q122 0 194 91t72 245z" />
    <glyph glyph-name="uni0436.loclBGR" horiz-adv-x="1570" 
d="M16 0l453 557l-424 475h268l365 -420v838h215v-838l364 420h269l-424 -475l452 -557h-266l-395 504v-504h-215v504l-395 -504h-267z" />
    <glyph glyph-name="uni0437.loclBGR" horiz-adv-x="1005" 
d="M74 -57l200 24q11 -96 68.5 -153.5t149.5 -57.5q100 0 156.5 72t56.5 201q0 120 -71.5 186t-195.5 66h-65v170h69q106 0 167 55t61 162q0 95 -49.5 146.5t-133.5 51.5q-76 0 -128 -44t-70 -134l-178 37q21 146 121 235t255 89q178 0 276.5 -94t98.5 -259q0 -112 -48 -192
t-130 -125q101 -36 168.5 -132.5t67.5 -217.5q0 -215 -118 -339t-310 -124q-177 0 -290.5 103t-127.5 274z" />
    <glyph glyph-name="uni0438.loclBGR" horiz-adv-x="1159" 
d="M147 303v729h218v-670q0 -190 165 -190q114 0 190.5 119t76.5 317v424h215v-1032h-215v180q-61 -92 -147.5 -144t-184.5 -52q-145 0 -231.5 84t-86.5 235z" />
    <glyph glyph-name="uni0439.loclBGR" horiz-adv-x="1159" 
d="M147 303v729h218v-670q0 -190 165 -190q114 0 190.5 119t76.5 317v424h215v-1032h-215v180q-61 -92 -147.5 -144t-184.5 -52q-145 0 -231.5 84t-86.5 235zM297 1434h164q0 -69 31 -107.5t90 -38.5q56 0 87 39t31 107h164q0 -136 -73.5 -214.5t-208.5 -78.5
q-137 0 -211 78.5t-74 214.5z" />
    <glyph glyph-name="uni043A.loclBGR" horiz-adv-x="1042" 
d="M147 0v1450h218v-838l364 420h266l-422 -475l453 -557h-266l-395 504v-504h-218z" />
    <glyph glyph-name="uni043B.loclBGR" horiz-adv-x="958" 
d="M29 0l350 1032h201l350 -1032h-219l-232 762l-231 -762h-219z" />
    <glyph glyph-name="uni043F.loclBGR" horiz-adv-x="1159" 
d="M147 0v1032h218v-180q58 92 144 144.5t185 52.5q145 0 231.5 -84.5t86.5 -235.5v-729h-215v672q0 93 -43.5 140.5t-124.5 47.5q-111 0 -187.5 -119t-76.5 -317v-424h-218z" />
    <glyph glyph-name="uni0442.loclBGR" horiz-adv-x="1728" 
d="M147 0v1032h218v-180q117 197 305 197q107 0 181.5 -55.5t104.5 -162.5q56 101 141 159.5t181 58.5q147 0 225 -84t78 -240v-725h-215v690q0 87 -35.5 128.5t-109.5 41.5q-108 0 -178 -117.5t-70 -324.5v-418h-215v690q0 87 -36 128.5t-110 41.5q-111 0 -179 -121.5
t-68 -337.5v-401h-218z" />
    <glyph glyph-name="uni0446.loclBGR" horiz-adv-x="1202" 
d="M948 -254v254h-151v180q-61 -92 -147.5 -144t-184.5 -52q-145 0 -231.5 84t-86.5 235v729h218v-670q0 -190 165 -190q114 0 190.5 119t76.5 317v424h215v-844h139v-442h-203z" />
    <glyph glyph-name="uni0448.loclBGR" horiz-adv-x="1728" 
d="M147 307v725h218v-690q0 -88 34.5 -129t108.5 -41q109 0 179.5 118t70.5 326v416h215v-690q0 -88 34.5 -129t108.5 -41q111 0 180.5 122t69.5 337v401h215v-1032h-215v180q-61 -99 -135 -147.5t-172 -48.5q-105 0 -181 56t-106 161q-56 -101 -140.5 -159t-180.5 -58
q-146 0 -225 84t-79 239z" />
    <glyph glyph-name="uni0449.loclBGR" horiz-adv-x="1771" 
d="M1518 -254v254h-152v180q-61 -99 -135 -147.5t-172 -48.5q-105 0 -181 56t-106 161q-56 -101 -140.5 -159t-180.5 -58q-146 0 -225 84t-79 239v725h218v-690q0 -88 34.5 -129t108.5 -41q109 0 179.5 118t70.5 326v416h215v-690q0 -88 34.5 -129t108.5 -41
q111 0 180.5 122t69.5 337v401h215v-844h139v-442h-202z" />
    <glyph glyph-name="uni044C.loclBGR" horiz-adv-x="1050" 
d="M147 387v645h218v-360q90 22 192 22q193 0 296 -92t103 -258q0 -153 -118 -256.5t-289 -103.5q-190 0 -296 102t-106 301zM737 342q0 79 -52 121.5t-146 42.5q-93 0 -174 -23v-104q0 -98 48 -152.5t136 -54.5q85 0 136.5 47.5t51.5 122.5z" />
    <glyph glyph-name="uni044A.loclBGR" horiz-adv-x="1173" 
d="M285 387v457h-244v188h459v-360q93 22 192 22q193 0 296.5 -92t103.5 -258q0 -153 -118.5 -256.5t-289.5 -103.5q-188 0 -293.5 103t-105.5 300zM872 342q0 79 -52 121.5t-146 42.5t-174 -23v-104q0 -98 48 -152.5t136 -54.5q85 0 136.5 47.5t51.5 122.5z" />
    <glyph glyph-name="uni044E.loclBGR" horiz-adv-x="1597" 
d="M1507 516q0 -150 -59.5 -270t-174 -191t-265.5 -71q-209 0 -344 132t-154 339h-145v-455h-218v1450h218v-807h155q34 178 164 293q128 113 324 113q151 0 265.5 -71t174 -191.5t59.5 -270.5zM1282 516q0 152 -73.5 248t-200.5 96q-125 0 -199 -96t-74 -248t74 -248
t199 -96q127 0 200.5 96t73.5 248z" />
    <glyph glyph-name="uni04570457" horiz-adv-x="1024" 
d="M-72 1319q0 57 38 95t95 38t94.5 -38t37.5 -95q0 -56 -37.5 -93.5t-94.5 -37.5t-95 37.5t-38 93.5zM231 1319q0 57 37 95t94 38t94.5 -38t37.5 -95q0 -56 -37.5 -93.5t-94.5 -37.5t-94 37.5t-37 93.5zM532 1319q0 57 37.5 95t94.5 38t95 -38t38 -95q0 -56 -38 -93.5
t-95 -37.5t-94.5 37.5t-37.5 93.5zM834 1319q0 57 37 95t94 38t95 -38t38 -95q0 -56 -38 -93.5t-95 -37.5t-94 37.5t-37 93.5zM147 0v1032h218v-1032h-218zM662 0v1032h215v-1032h-215z" />
    <glyph glyph-name="lambda_lambda" horiz-adv-x="1703" 
d="M1239 1223l444 -1223h-217l-243 705l-260 -705h-220l-243 705l-260 -705h-220l375 987l-57 152q-25 69 -53.5 96t-81.5 27q-34 0 -60 -11l-49 176q71 23 129 23q213 -3 293 -227l338 -930l264 694l-57 152q-26 68 -54.5 95.5t-80.5 27.5q-34 0 -60 -11l-49 176
q67 23 129 23q212 0 293 -227z" />
    <glyph glyph-name="zero.osf" horiz-adv-x="1204" 
d="M90 516q0 148 61 268.5t179 192.5t272 72q153 0 271 -72t179.5 -192.5t61.5 -268.5t-61.5 -268.5t-179 -192t-271.5 -71.5t-272 71.5t-179 192t-61 268.5zM887 516q0 143 -76 244q-75 100 -209 100q-136 0 -211 -100q-76 -101 -76 -244t76 -244q75 -100 211 -100
q134 0 209 100q76 101 76 244z" />
    <glyph glyph-name="one.osf" horiz-adv-x="718" 
d="M350 0v715l-262 -160v242l393 235h88v-1032h-219z" />
    </font>
</defs>
</svg>
