<?xml version="1.0" standalone="no"?>
<!DOCTYPE svg PUBLIC "-//W3C//DTD SVG 1.1//EN" "http://www.w3.org/Graphics/SVG/1.1/DTD/svg11.dtd" >
<svg xmlns="http://www.w3.org/2000/svg" xmlns:xlink="http://www.w3.org/1999/xlink" version="1.1">
<metadata>
Created by FontForge 20170731 at Sun Feb 14 19:14:59 2021
 By Aleksey,,,
Copyright (c) 2018 by Colophon Foundry. All rights reserved.
</metadata>
<defs>
<font id="ApercuPro-BlackItalic" horiz-adv-x="1269" >
  <font-face 
    font-family="Apercu Pro Black"
    font-weight="900"
    font-style="italic"
    font-stretch="normal"
    units-per-em="2048"
    panose-1="2 11 10 3 5 6 1 11 1 3"
    ascent="1614"
    descent="-434"
    x-height="1032"
    cap-height="1434"
    bbox="-1448 -627 2533 2337"
    underline-thickness="126"
    underline-position="-454"
    slope="-11"
    unicode-range="U+000D-FB02"
  />
<missing-glyph horiz-adv-x="1239" 
d="M29 0l278 1434h981l-278 -1434h-981zM346 238h440l185 958h-441z" />
    <glyph glyph-name="f_f" unicode="ff" horiz-adv-x="1370" 
d="M23 0l149 774h-109l52 258h108l4 21q41 204 151.5 300.5t305.5 96.5q139 0 227 -49l-114 -250q-37 37 -97 37q-107 0 -129 -115l-8 -41h291l4 21q41 204 151.5 300.5t305.5 96.5q139 0 227 -49l-115 -250q-37 37 -96 37q-107 0 -129 -115l-8 -41h207l-51 -258h-207
l-150 -774h-340l150 774h-291l-150 -774h-339z" />
    <glyph glyph-name="f_f_i" unicode="ffi" horiz-adv-x="1853" 
d="M23 0l149 774h-109l52 258h108l4 21q41 204 151.5 300.5t305.5 96.5q139 0 227 -49l-114 -250q-37 37 -97 37q-107 0 -129 -115l-8 -41h291l4 19q88 399 592 399q233 0 389 -72l-143 -268q-100 66 -269 66q-94 0 -158.5 -39t-74.5 -105h629l-199 -1032h-340l150 774h-291
l-150 -774h-340l150 774h-291l-150 -774h-339z" />
    <glyph glyph-name="f_f_l" unicode="ffl" horiz-adv-x="1853" 
d="M23 0l149 774h-109l52 258h108l4 21q41 204 151.5 300.5t305.5 96.5q139 0 227 -49l-114 -250q-37 37 -97 37q-107 0 -129 -115l-8 -41h291l4 23q33 189 151.5 292t313.5 103h582l-281 -1450h-340l229 1188h-178q-60 0 -90.5 -28t-42.5 -87l-8 -41h199l-52 -258h-198
l-150 -774h-340l150 774h-291l-150 -774h-339z" />
    <glyph glyph-name="f_i" unicode="fi" horiz-adv-x="1222" 
d="M115 1032h108l4 19q89 399 592 399q233 0 389 -72l-143 -268q-100 66 -268 66q-94 0 -159 -39t-75 -105h629l-199 -1032h-340l150 774h-291l-150 -774h-339l149 774h-109z" />
    <glyph glyph-name="f_l" unicode="fl" horiz-adv-x="1222" 
d="M23 0l149 774h-109l52 258h108l4 23q33 189 151.5 292t313.5 103h582l-281 -1450h-340l230 1188h-178q-60 0 -91 -28t-43 -87l-8 -41h199l-51 -258h-199l-150 -774h-339z" />
    <glyph glyph-name=".notdef" horiz-adv-x="1239" 
d="M29 0l278 1434h981l-278 -1434h-981zM346 238h440l185 958h-441z" />
    <glyph glyph-name=".null" horiz-adv-x="0" 
 />
    <glyph glyph-name="nonmarkingreturn" horiz-adv-x="682" 
 />
    <glyph glyph-name="CR" unicode="&#xd;" horiz-adv-x="503" 
 />
    <glyph glyph-name="space" unicode=" " horiz-adv-x="503" 
 />
    <glyph glyph-name="exclam" unicode="!" horiz-adv-x="659" 
d="M195 512l112 922h402l-244 -922h-270zM80 166q0 78 52 130t130 52t130 -52t52 -130t-52 -130t-130 -52t-130 52t-52 130z" />
    <glyph glyph-name="quotedbl" unicode="&#x22;" horiz-adv-x="923" 
d="M231 920l33 530h346l-176 -530h-203zM645 920l33 530h346l-176 -530h-203z" />
    <glyph glyph-name="numbersign" unicode="#" horiz-adv-x="1384" 
d="M158 0l123 375h-228l29 241h276l68 201h-236l29 242h285l121 375h245l-120 -375h188l123 375h246l-123 -375h227l-29 -242h-276l-68 -201h236l-29 -241h-284l-121 -375h-246l121 375h-189l-123 -375h-245zM604 616h189l67 201h-188z" />
    <glyph glyph-name="dollar" unicode="$" horiz-adv-x="1122" 
d="M289 -184l37 194q-129 43 -207.5 146.5t-98.5 238.5l302 168q6 -120 61 -194t149 -74q65 0 106.5 37.5t41.5 101.5q0 69 -42.5 111t-178.5 112q-240 120 -240 365q0 163 107 276q111 117 278 144l35 176h283l-39 -199q157 -59 233 -237l-291 -166q-52 131 -145 131
q-47 0 -77 -27.5t-30 -70.5q0 -59 51 -105.5t167 -103.5q129 -63 195.5 -153t66.5 -222q0 -192 -120.5 -320.5t-328.5 -154.5l-33 -174h-282z" />
    <glyph glyph-name="percent" unicode="%" horiz-adv-x="1880" 
d="M358 -90l-151 143l1386 1473l154 -144zM612 1450q135 0 217 -77t82 -206q0 -151 -112.5 -261.5t-282.5 -110.5q-139 0 -222 75t-83 199q0 156 112 268.5t289 112.5zM453 1098q0 -38 25.5 -62t66.5 -24q51 0 88 37.5t37 91.5q0 43 -23.5 67.5t-64.5 24.5q-54 0 -91.5 -39
t-37.5 -96zM1448 639q135 0 217 -77t82 -206q0 -151 -112.5 -261.5t-282.5 -110.5q-139 0 -222 75t-83 199q0 156 112 268.5t289 112.5zM1288 287q0 -38 25.5 -62t66.5 -24q51 0 88 37.5t37 91.5q0 43 -23.5 67.5t-64.5 24.5q-54 0 -91.5 -39t-37.5 -96z" />
    <glyph glyph-name="ampersand" unicode="&#x26;" horiz-adv-x="1333" 
d="M31 383q0 328 364 491q-49 113 -49 207q0 153 113.5 261t290.5 108q152 0 237.5 -78t85.5 -215q0 -124 -73 -214.5t-218 -162.5l125 -221q81 137 131 262l162 -241q-58 -155 -145 -277l174 -303h-355l-45 80q-155 -96 -325 -96q-211 0 -342 113t-131 286zM782 1130
q0 66 -61 66q-37 0 -60.5 -29t-23.5 -73q0 -54 27 -103q118 54 118 139zM700 317l-188 338q-162 -76 -162 -219q0 -81 50 -127.5t135 -46.5q83 0 165 55z" />
    <glyph glyph-name="quotesingle" unicode="'" horiz-adv-x="509" 
d="M231 920l33 530h346l-176 -530h-203z" />
    <glyph glyph-name="parenleft" unicode="(" horiz-adv-x="610" 
d="M84 430q0 326 107 608.5t303 497.5h278q-187 -236 -290 -522.5t-103 -575.5q0 -296 76 -540h-279q-39 113 -65.5 258t-26.5 274z" />
    <glyph glyph-name="parenright" unicode=")" horiz-adv-x="610" 
d="M309 995q0 297 -76 541h279q39 -113 65.5 -258t26.5 -274q0 -326 -106.5 -608.5t-302.5 -497.5h-279q187 236 290 522t103 575z" />
    <glyph glyph-name="asterisk" unicode="*" horiz-adv-x="1013" 
d="M395 670l-162 145l170 184l-200 72l94 221l221 -75l45 233h230l-45 -233l223 71l57 -211l-248 -76l101 -186l-209 -139l-101 188z" />
    <glyph glyph-name="plus" unicode="+" horiz-adv-x="1257" 
d="M410 141l71 365h-362l55 287h363l71 364h291l-72 -364h363l-55 -287h-363l-72 -365h-290z" />
    <glyph glyph-name="comma" unicode="," horiz-adv-x="600" 
d="M-129 -319l266 618h395l-446 -618h-215z" />
    <glyph glyph-name="hyphen" unicode="-" horiz-adv-x="1030" 
d="M111 506l55 287h805l-56 -287h-804z" />
    <glyph glyph-name="period" unicode="." horiz-adv-x="600" 
d="M43 174q0 82 54 136.5t136 54.5t136.5 -54.5t54.5 -136.5t-54.5 -136t-136.5 -54t-136 54t-54 136z" />
    <glyph glyph-name="slash" unicode="/" horiz-adv-x="1208" 
d="M-125 -102l1194 1638h342l-1196 -1638h-340z" />
    <glyph glyph-name="zero" unicode="0" horiz-adv-x="1286" 
d="M102 522q-1 147 26.5 284t85.5 255t140.5 205t198.5 136.5t252 47.5q222 0 338.5 -139.5t116.5 -413.5q1 -143 -26 -276.5t-84.5 -250.5t-139 -203.5t-197.5 -135.5t-252 -47q-210 0 -334.5 145.5t-124.5 392.5zM936 885q0 125 -44.5 197.5t-125.5 72.5q-74 4 -140 -51.5
t-109 -143.5t-68 -193t-23 -202q0 -286 184 -286q86 -4 163 86t121 232t42 288z" />
    <glyph glyph-name="one" unicode="1" horiz-adv-x="835" 
d="M252 0l194 987l-290 -156l71 365l459 238h184l-280 -1434h-338z" />
    <glyph glyph-name="two" unicode="2" horiz-adv-x="1095" 
d="M-29 0l27 152l633 641q84 83 113.5 133t29.5 110q0 61 -32 94t-93 33q-63 0 -107 -48.5t-55 -127.5l-315 66q99 397 512 397q186 0 301 -101.5t115 -246.5q0 -148 -51 -244q-52 -99 -170 -223l-334 -348h440l-55 -287h-959z" />
    <glyph glyph-name="three" unicode="3" horiz-adv-x="1167" 
d="M51 412l320 45q5 -82 53 -134.5t127 -52.5q90 0 148.5 59.5t58.5 157.5q0 78 -47 127.5t-119 49.5q-63 0 -119 -29l-104 190l293 326h-400l53 283h854l-26 -136l-383 -407q150 -8 236.5 -107t86.5 -274q0 -233 -149.5 -379.5t-392.5 -146.5q-134 0 -246 54t-178 152.5
t-66 221.5z" />
    <glyph glyph-name="four" unicode="4" horiz-adv-x="1212" 
d="M582 0l47 233h-617l33 177l791 1024h338l-181 -918h166l-53 -283h-166l-47 -233h-311zM455 516h227l86 430z" />
    <glyph glyph-name="five" unicode="5" horiz-adv-x="1114" 
d="M47 356q0 31 2 39l311 43q0 -72 43.5 -113.5t112.5 -41.5q88 0 143.5 63.5t55.5 161.5q0 80 -41 123t-111 43q-62 0 -117.5 -29.5t-93.5 -83.5l-235 53l233 820h791l-54 -283h-524l-80 -242q87 41 187 41q181 0 282 -105t101 -296q0 -162 -70.5 -290.5t-199 -201.5
t-291.5 -73q-197 0 -321 104.5t-124 267.5z" />
    <glyph glyph-name="six" unicode="6" horiz-adv-x="1148" 
d="M57 395q0 178 148 373l520 682h365l-414 -532q166 -3 279.5 -109.5t113.5 -276.5q0 -245 -160 -396.5t-403 -151.5q-208 0 -328.5 110t-120.5 301zM750 483q0 69 -42 110.5t-114 41.5q-90 0 -149.5 -62.5t-59.5 -154.5q0 -71 44 -111.5t118 -40.5q89 0 146 63.5t57 153.5
z" />
    <glyph glyph-name="seven" unicode="7" horiz-adv-x="1050" 
d="M18 0l691 1151h-525l56 283h929l-28 -148l-768 -1286h-355z" />
    <glyph glyph-name="eight" unicode="8" horiz-adv-x="1134" 
d="M51 371q0 274 268 413q-39 39 -62.5 99.5t-23.5 128.5q0 85 36.5 165t99.5 140t156 96.5t198 36.5q167 0 274 -94t107 -242q0 -230 -199 -350q69 -46 103 -118t34 -189q0 -213 -147.5 -343t-378.5 -130q-212 0 -338.5 107.5t-126.5 279.5zM817 1067q0 59 -34.5 94
t-92.5 35q-77 0 -124.5 -49.5t-47.5 -124.5q0 -57 34.5 -93t88.5 -36q74 0 125 50t51 124zM733 453q0 75 -44 118t-122 43q-91 0 -146.5 -57t-55.5 -149q0 -67 48.5 -108.5t114.5 -41.5q90 0 147.5 56t57.5 139z" />
    <glyph glyph-name="nine" unicode="9" horiz-adv-x="1153" 
d="M141 -16l414 532q-167 3 -280 113t-113 293q-3 150 72.5 272.5t205.5 190t285 65.5q208 0 328.5 -110t120.5 -302q0 -177 -148 -372l-520 -682h-365zM846 1016q0 71 -44 111t-118 40q-89 0 -146 -63.5t-57 -153.5q0 -69 42 -110t114 -41q90 0 149.5 62.5t59.5 154.5z" />
    <glyph glyph-name="colon" unicode=":" horiz-adv-x="610" 
d="M186 858q0 82 54.5 136.5t136.5 54.5t136 -54.5t54 -136.5t-54 -136t-136 -54t-136.5 54t-54.5 136zM43 174q0 82 54 136.5t136 54.5t136.5 -54.5t54.5 -136.5t-54.5 -136t-136.5 -54t-136 54t-54 136z" />
    <glyph glyph-name="semicolon" unicode=";" horiz-adv-x="610" 
d="M-129 -319l266 618h395l-446 -618h-215zM225 858q0 82 54.5 136.5t136.5 54.5t136 -54.5t54 -136.5t-54 -136t-136 -54t-136.5 54t-54.5 136z" />
    <glyph glyph-name="less" unicode="&#x3c;" horiz-adv-x="1054" 
d="M858 61l-760 439l54 270l927 438l-65 -350l-527 -237l433 -240z" />
    <glyph glyph-name="equal" unicode="=" horiz-adv-x="1193" 
d="M156 692l55 287h952l-55 -287h-952zM78 291l55 287h952l-55 -287h-952z" />
    <glyph glyph-name="greater" unicode="&#x3e;" horiz-adv-x="1054" 
d="M20 61l66 351l526 237l-432 240l62 319l759 -438l-53 -270z" />
    <glyph glyph-name="question" unicode="?" horiz-adv-x="978" 
d="M221 676q0 118 67 190.5t236 128.5l19 6q98 31 136 59t38 70q0 70 -96 70q-53 0 -94 -38.5t-52 -94.5l-278 63q49 152 165.5 236t305.5 84q148 0 250 -79.5t102 -199.5q0 -148 -82.5 -226t-278.5 -134l-28 -8q-75 -23 -105 -41t-30 -51q0 -19 13.5 -31t33.5 -12
q47 0 82 65l215 -67q-55 -124 -130.5 -177t-203.5 -53q-70 0 -134 27.5t-107.5 84t-43.5 128.5zM236 166q0 78 52 130t130 52t130 -52t52 -130t-52 -130t-130 -52t-130 52t-52 130z" />
    <glyph glyph-name="at" unicode="@" horiz-adv-x="1867" 
d="M125 557q-2 195 68 365.5t195 292t302.5 190t382.5 65.5q141 0 261 -32.5t208.5 -92t150.5 -141.5t93 -182.5t31 -214.5q0 -282 -116.5 -434t-332.5 -152q-72 0 -139.5 35t-87.5 82q-117 -117 -287 -117q-161 0 -251.5 91.5t-90.5 250.5q0 215 139.5 354.5t360.5 139.5
q126 0 202 -70l29 55h195l-97 -448q-6 -34 -6 -55q0 -68 58 -68q70 0 111.5 81t41.5 232q0 214 -129 331.5t-354 117.5q-184 0 -331 -77t-233.5 -226.5t-86.5 -347.5q-1 -108 29 -198t80.5 -150.5t118.5 -102t140.5 -60.5t147.5 -18q115 0 224.5 24.5t266.5 82.5l58 -236
q-151 -71 -283 -92q-137 -25 -307 -25q-161 -2 -302.5 52t-244 151t-160.5 239t-55 308zM1100 676q0 63 -28.5 97t-82.5 34q-85 0 -138.5 -60.5t-53.5 -148.5q0 -62 33 -94.5t90 -32.5q74 0 127 59.5t53 145.5z" />
    <glyph glyph-name="A" unicode="A" horiz-adv-x="1351" 
d="M-84 0l764 1434h348l207 -1434h-365l-34 305h-381l-152 -305h-387zM608 616h197l-33 345z" />
    <glyph glyph-name="B" unicode="B" horiz-adv-x="1304" 
d="M43 0l281 1434h526q202 0 314 -82.5t112 -245.5q0 -117 -54 -194t-157 -130q79 -58 120.5 -133t41.5 -182q0 -203 -154.5 -335t-408.5 -132h-621zM575 905h187q80 0 128 36t48 103q0 54 -32 80.5t-101 26.5h-180zM461 311h209q107 0 163 41.5t56 122.5q0 66 -40 96.5
t-128 30.5h-203z" />
    <glyph glyph-name="C" unicode="C" horiz-adv-x="1466" 
d="M96 584q-3 170 56.5 329t165.5 278.5t261.5 190.5t333.5 68q247 0 398 -124t178 -333l-332 -84q-20 102 -89.5 166t-180.5 64q-92 2 -173 -43t-135 -119t-85 -167.5t-29 -188.5q0 -158 77 -242t214 -84q94 0 171.5 62.5t121.5 172.5l323 -108q-116 -251 -274 -342
q-162 -96 -408 -96q-256 0 -425 168t-169 432z" />
    <glyph glyph-name="D" unicode="D" horiz-adv-x="1419" 
d="M43 0l281 1434h436q182 0 327.5 -74.5t228.5 -209t83 -302.5q0 -256 -108 -448.5t-305 -296t-456 -103.5h-487zM465 311h82q223 0 352 141t129 361q0 159 -86.5 234t-236.5 75h-82z" />
    <glyph glyph-name="E" unicode="E" horiz-adv-x="1236" 
d="M43 0l281 1434h976l-61 -312h-608l-39 -202h477l-61 -312h-478l-57 -297h629l-62 -311h-997z" />
    <glyph glyph-name="F" unicode="F" horiz-adv-x="1181" 
d="M43 0l281 1434h987l-62 -312h-618l-45 -229h493l-59 -311h-494l-114 -582h-369z" />
    <glyph glyph-name="G" unicode="G" horiz-adv-x="1507" 
d="M98 584q-2 135 34 263t108 238t172 192.5t235 128.5t287 44q235 0 375.5 -121t177.5 -344l-338 -84q-25 112 -94.5 175t-173.5 63q-98 2 -182.5 -42.5t-139 -117.5t-85 -163.5t-28.5 -182.5q0 -160 79.5 -249t215.5 -89q193 0 291 182h-235l51 266h577l-145 -743h-279
v111q-127 -127 -358 -127q-110 0 -208.5 41.5t-173.5 117t-119 190t-44 251.5z" />
    <glyph glyph-name="H" unicode="H" horiz-adv-x="1497" 
d="M43 0l281 1434h368l-98 -500h471l98 500h369l-281 -1434h-368l116 598h-471l-116 -598h-369z" />
    <glyph glyph-name="I" unicode="I" horiz-adv-x="657" 
d="M43 0l281 1434h368l-280 -1434h-369z" />
    <glyph glyph-name="J" unicode="J" horiz-adv-x="1157" 
d="M41 406l338 63q0 -174 137 -174q75 0 116.5 53.5t65.5 167.5l179 918h348l-181 -930q-54 -277 -181.5 -398.5t-366.5 -121.5q-216 0 -335.5 120.5t-119.5 301.5z" />
    <glyph glyph-name="K" unicode="K" horiz-adv-x="1449" 
d="M43 0l281 1434h368l-94 -482l481 482h467l-686 -652l465 -782h-442l-351 621l-120 -621h-369z" />
    <glyph glyph-name="L" unicode="L" horiz-adv-x="1159" 
d="M43 0l281 1434h368l-219 -1123h588l-62 -311h-956z" />
    <glyph glyph-name="M" unicode="M" horiz-adv-x="1673" 
d="M43 0l281 1434h385l147 -799l459 799h393l-281 -1434h-331l145 750l-348 -619h-264l-109 619l-145 -750h-332z" />
    <glyph glyph-name="N" unicode="N" horiz-adv-x="1447" 
d="M43 0l281 1434h354l305 -856l168 856h332l-281 -1434h-354l-305 856l-168 -856h-332z" />
    <glyph glyph-name="O" unicode="O" horiz-adv-x="1568" 
d="M98 586q-2 172 57 330.5t164 277.5t260.5 189t335.5 67q184 0 325 -71.5t222.5 -213.5t81.5 -336q2 -176 -58 -333t-166 -270.5t-259 -178.5t-328 -63q-176 0 -320 73t-229.5 211.5t-85.5 317.5zM1174 815q0 153 -74.5 238.5t-198.5 85.5q-96 2 -179.5 -44t-138.5 -120.5
t-86 -167t-30 -184.5q0 -154 81.5 -241t209.5 -87q89 -2 169 44t133.5 121t84 168.5t29.5 186.5z" />
    <glyph glyph-name="P" unicode="P" horiz-adv-x="1271" 
d="M43 0l281 1434h530q217 0 338 -103.5t121 -292.5q0 -122 -44.5 -217.5t-123 -155t-181.5 -90t-225 -30.5h-221l-106 -545h-369zM578 844h196q85 0 134.5 46t49.5 124q0 121 -129 121h-196z" />
    <glyph glyph-name="Q" unicode="Q" horiz-adv-x="1568" 
d="M1190 -33l-82 101q-166 -84 -375 -84q-176 0 -320 73t-229.5 211.5t-85.5 317.5q-2 172 57 330.5t164 277.5t260.5 189t335.5 67q183 0 324.5 -71.5t223 -211.5t81.5 -329q0 -327 -180 -562l80 -98zM897 328l-121 151l252 211l94 -119q52 119 52 244q0 153 -74.5 238.5
t-198.5 85.5q-96 2 -179.5 -44t-138.5 -120.5t-86 -167t-30 -184.5q0 -154 81.5 -241t209.5 -87q66 0 139 33z" />
    <glyph glyph-name="R" unicode="R" horiz-adv-x="1357" 
d="M43 0l281 1434h528q207 0 316.5 -98t109.5 -269q0 -160 -89.5 -273.5t-242.5 -164.5l271 -629h-381l-252 590h-70l-117 -590h-354zM573 893h172q89 0 142 41.5t53 112.5q0 60 -35.5 86t-107.5 26h-172z" />
    <glyph glyph-name="S" unicode="S" horiz-adv-x="1122" 
d="M20 395l302 168q6 -120 61 -194t149 -74q65 0 106.5 37.5t41.5 101.5q0 69 -42.5 111t-178.5 112q-240 120 -240 365q0 186 139 307t347 121q301 0 411 -268l-291 -166q-52 131 -145 131q-47 0 -77 -27.5t-30 -70.5q0 -59 51 -105.5t167 -103.5q129 -63 195.5 -153
t66.5 -222q0 -145 -71 -255t-194.5 -168t-279.5 -58q-109 0 -198 33.5t-147.5 92t-94 130.5t-48.5 155z" />
    <glyph glyph-name="T" unicode="T" horiz-adv-x="1222" 
d="M326 0l219 1122h-387l61 312h1143l-62 -312h-387l-219 -1122h-368z" />
    <glyph glyph-name="U" unicode="U" horiz-adv-x="1351" 
d="M104 424q0 45 13 121l172 889h338l-168 -873q-8 -36 -8 -69q0 -91 51.5 -142t144.5 -51q101 0 171.5 67t94.5 195l168 873h338l-172 -889q-53 -278 -221.5 -419.5t-433.5 -141.5q-97 0 -184 28.5t-155 82t-108.5 138.5t-40.5 191z" />
    <glyph glyph-name="V" unicode="V" horiz-adv-x="1335" 
d="M389 0l-194 1434h360l104 -926l465 926h373l-764 -1434h-344z" />
    <glyph glyph-name="W" unicode="W" horiz-adv-x="1918" 
d="M303 0l-98 1434h354l35 -899l354 747h303l82 -747l377 899h361l-648 -1434h-352l-65 713l-349 -713h-354z" />
    <glyph glyph-name="X" unicode="X" horiz-adv-x="1290" 
d="M-84 0l592 776l-258 658h387l111 -349l264 349h387l-512 -666l287 -768h-379l-162 430l-311 -430h-406z" />
    <glyph glyph-name="Y" unicode="Y" horiz-adv-x="1232" 
d="M330 0l119 610l-254 824h362l131 -476l313 476h394l-578 -824l-119 -610h-368z" />
    <glyph glyph-name="Z" unicode="Z" horiz-adv-x="1181" 
d="M-39 0l37 184l756 942h-545l61 308h996l-37 -185l-752 -942h602l-61 -307h-1057z" />
    <glyph glyph-name="bracketleft" unicode="[" horiz-adv-x="702" 
d="M25 -102l317 1638h522l-53 -274h-219l-211 -1090h219l-53 -274h-522z" />
    <glyph glyph-name="backslash" unicode="\" horiz-adv-x="1202" 
d="M762 -102l-567 1638h323l567 -1638h-323z" />
    <glyph glyph-name="bracketright" unicode="]" horiz-adv-x="702" 
d="M438 -102h-520l53 274h217l211 1090h-219l53 274h523z" />
    <glyph glyph-name="asciicircum" unicode="^" horiz-adv-x="1187" 
d="M111 825l522 609h278l285 -609h-315l-160 324l-268 -324h-342z" />
    <glyph glyph-name="underscore" unicode="_" horiz-adv-x="1056" 
d="M-109 -258l52 258h972l-51 -258h-973z" />
    <glyph glyph-name="grave" unicode="`" horiz-adv-x="608" 
d="M698 1122h-243l-248 328h422z" />
    <glyph glyph-name="a" unicode="a" horiz-adv-x="1263" 
d="M68 434q-1 90 22.5 178.5t72 168t116 140t160.5 95.5t198 33q159 0 242 -99l16 82h340l-201 -1032h-340l19 88q-88 -104 -250 -104q-184 0 -289.5 122.5t-105.5 327.5zM821 565q0 100 -43 148.5t-119 48.5q-115 0 -183 -83.5t-68 -213.5q0 -90 50 -142.5t130 -52.5
q103 0 168 86q65 89 65 209z" />
    <glyph glyph-name="b" unicode="b" horiz-adv-x="1253" 
d="M387 88l-18 -88h-340l282 1450h340l-82 -418l-12 -65q29 37 96 59.5t146 22.5q174 0 280.5 -121.5t106.5 -306.5q0 -180 -67 -323.5t-196.5 -228.5t-299.5 -85q-73 0 -136 28t-100 76zM846 553q0 102 -45 155.5t-127 53.5q-97 0 -164.5 -86t-67.5 -209q0 -88 48 -142.5
t118 -54.5q100 0 169 85.5t69 197.5z" />
    <glyph glyph-name="c" unicode="c" horiz-adv-x="1171" 
d="M66 424q-3 168 77 311.5t229.5 230t334.5 83.5q179 0 286 -75.5t158 -228.5l-315 -120q-22 137 -166 137q-122 0 -193 -91t-71 -210q0 -89 44.5 -140t127.5 -51q130 0 213 138l274 -123q-100 -156 -227.5 -228.5t-305.5 -72.5q-142 0 -249.5 60.5t-162 159.5t-54.5 220z
" />
    <glyph glyph-name="d" unicode="d" horiz-adv-x="1249" 
d="M66 414q-1 120 37 234t107.5 204.5t179 144.5t241.5 52q83 0 137 -24.5t98 -74.5l97 500h340l-283 -1450h-340l18 88q-47 -56 -105 -80t-144 -24q-167 0 -275 122.5t-108 307.5zM807 578q0 184 -154 184q-109 0 -178 -94.5t-69 -208.5q0 -189 176 -189q94 0 159.5 90
t65.5 218z" />
    <glyph glyph-name="e" unicode="e" horiz-adv-x="1183" 
d="M70 442q-2 112 41 221t121 196t198.5 139.5t261.5 50.5q224 0 328 -119t104 -289q0 -71 -32 -227h-703q17 -77 64 -117.5t116 -40.5q72 0 125 28t107 95l246 -125q-93 -140 -212 -205t-288 -65q-216 0 -346.5 132t-130.5 326zM424 647h393q4 20 4 31q0 56 -42 91.5
t-115 35.5q-77 0 -139.5 -43t-100.5 -115z" />
    <glyph glyph-name="f" unicode="f" horiz-adv-x="739" 
d="M23 0l149 774h-109l52 258h108l4 21q41 204 151.5 300.5t305.5 96.5q139 0 227 -49l-114 -250q-37 37 -97 37q-107 0 -129 -115l-8 -41h207l-51 -258h-207l-150 -774h-339z" />
    <glyph glyph-name="g" unicode="g" horiz-adv-x="1052" 
d="M-78 -131q0 147 131 252q-28 54 -28 115q0 164 188 266q-51 68 -51 157q0 160 124 275t312 115q115 0 199 -41l229 114l90 -188l-172 -80q21 -53 21 -119q0 -187 -116 -283t-317 -96q-85 0 -155 25q-37 -18 -51.5 -36t-14.5 -44q0 -25 21 -40t57 -15h193
q146 0 234.5 -71.5t88.5 -201.5q0 -200 -136.5 -303.5t-397.5 -103.5q-195 0 -322 84.5t-127 218.5zM666 719q0 39 -24.5 63.5t-66.5 24.5q-51 0 -84.5 -36.5t-33.5 -90.5q0 -36 26 -59t64 -23q54 0 86.5 33.5t32.5 87.5zM596 -80q0 40 -30 56t-93 16h-143q-41 0 -99 10
q-22 -28 -22 -70q0 -59 53 -89.5t148 -30.5q84 0 135 27.5t51 80.5z" />
    <glyph glyph-name="h" unicode="h" horiz-adv-x="1253" 
d="M31 0l280 1450h340l-106 -537q52 62 138.5 99t186.5 37q140 0 217.5 -74t77.5 -203q0 -41 -8 -82l-133 -690h-340l113 586q6 34 6 51q0 54 -28.5 83.5t-82.5 29.5q-87 0 -147 -76t-86 -221l-88 -453h-340z" />
    <glyph glyph-name="i" unicode="i" horiz-adv-x="600" 
d="M31 0l198 1032h340l-198 -1032h-340zM260 1354q0 85 57.5 142.5t143.5 57.5t143.5 -57.5t57.5 -142.5t-57.5 -143t-143.5 -58t-143.5 58t-57.5 143z" />
    <glyph glyph-name="j" unicode="j" horiz-adv-x="600" 
d="M-186 -434l-29 278q118 24 180 78t84 166l182 944h340l-178 -921q-99 -508 -579 -545zM264 1354q0 85 57.5 142.5t143.5 57.5t143.5 -57.5t57.5 -142.5t-57.5 -143t-143.5 -58t-143.5 58t-57.5 143z" />
    <glyph glyph-name="k" unicode="k" horiz-adv-x="1155" 
d="M31 0l280 1450h340l-135 -709l281 291h417l-491 -481l328 -551h-385l-222 389l-73 -389h-340z" />
    <glyph glyph-name="l" unicode="l" horiz-adv-x="600" 
d="M31 0l280 1450h340l-280 -1450h-340z" />
    <glyph glyph-name="m" unicode="m" horiz-adv-x="1777" 
d="M29 0l200 1032h312l-25 -123q115 140 293 140q198 0 258 -175q53 78 143 126.5t197 48.5q138 0 210.5 -70.5t72.5 -196.5q0 -44 -9 -88l-133 -694h-311l121 627q6 27 6 53q0 42 -23 66t-67 24q-87 0 -149.5 -79.5t-94.5 -241.5l-86 -449h-311l121 627q4 36 4 45
q0 98 -92 98q-86 0 -148 -81t-92 -243l-86 -446h-311z" />
    <glyph glyph-name="n" unicode="n" horiz-adv-x="1234" 
d="M29 0l200 1032h340l-24 -119q109 136 301 136q139 0 218 -80t79 -217q0 -52 -8 -88l-129 -664h-340l118 610q4 28 4 37q0 103 -100 103q-81 0 -143 -78.5t-88 -218.5l-88 -453h-340z" />
    <glyph glyph-name="o" unicode="o" horiz-adv-x="1245" 
d="M70 436q-1 121 41.5 233t120 197t193 135t249.5 48q226 0 364 -126.5t138 -332.5q0 -170 -76.5 -308t-217.5 -218t-321 -80q-216 0 -353.5 127.5t-137.5 324.5zM836 559q0 92 -50.5 147.5t-130.5 55.5q-105 0 -175 -89t-70 -204q0 -95 51 -147t135 -52q105 0 172.5 82
t67.5 207z" />
    <glyph glyph-name="p" unicode="p" horiz-adv-x="1249" 
d="M-53 -418l282 1450h340l-18 -88q108 105 266 105q166 0 266.5 -117.5t100.5 -313.5q2 -169 -67.5 -314t-203 -234t-301.5 -86q-138 0 -233 77l-12 -61l-80 -418h-340zM844 571q0 87 -41.5 139t-110.5 52q-111 0 -179.5 -90.5t-68.5 -216.5q0 -89 46.5 -137t127.5 -48
q99 0 162.5 90t63.5 211z" />
    <glyph glyph-name="q" unicode="q" horiz-adv-x="1255" 
d="M604 -418l80 418l16 82q-57 -51 -115.5 -74.5t-131.5 -23.5q-179 0 -281 120t-102 324q0 273 158 447t403 174q81 0 142.5 -29t94.5 -76l19 88h340l-283 -1450h-340zM811 580q0 92 -40 137t-114 45q-108 0 -178 -88q-69 -87 -69 -215q0 -91 45.5 -140t119.5 -49
q100 0 168 88t68 222z" />
    <glyph glyph-name="r" unicode="r" horiz-adv-x="909" 
d="M29 0l200 1032h340l-22 -112q116 129 309 129q68 0 131 -29l-133 -305q-46 30 -100 30q-114 0 -195.5 -93t-118.5 -285l-71 -367h-340z" />
    <glyph glyph-name="s" unicode="s" horiz-adv-x="925" 
d="M-8 285l274 112q12 -71 57 -115t101 -44q50 0 78 20t28 53t-23 51.5t-89 47.5q-29 9 -86 39q-178 99 -178 276q0 139 101 231.5t284 92.5q116 0 207.5 -46.5t136.5 -125.5l-215 -168q-62 90 -144 90q-35 0 -56.5 -17.5t-21.5 -46.5t24 -49t81 -41q140 -51 208 -121.5
t68 -179.5q0 -90 -34.5 -160.5t-92.5 -113t-129 -64.5t-149 -22q-348 0 -430 301z" />
    <glyph glyph-name="t" unicode="t" horiz-adv-x="823" 
d="M131 311q0 49 8 90l72 373h-145l49 258h145l43 213l371 205l-82 -418h258l-49 -258h-256l-68 -346q-6 -35 -6 -59q0 -42 25.5 -66t72.5 -24q55 0 107 24l20 -270q-92 -49 -225 -49q-154 0 -247 89t-93 238z" />
    <glyph glyph-name="u" unicode="u" horiz-adv-x="1236" 
d="M92 281q0 52 8 88l129 663h340l-118 -610q-5 -35 -5 -37q0 -47 28 -74.5t73 -27.5q90 0 146.5 73.5t86.5 223.5l88 452h340l-200 -1032h-340l24 119q-108 -135 -297 -135q-137 0 -220 81t-83 216z" />
    <glyph glyph-name="v" unicode="v" horiz-adv-x="1056" 
d="M283 0l-160 1032h332l57 -571l279 571h344l-557 -1032h-295z" />
    <glyph glyph-name="w" unicode="w" horiz-adv-x="1564" 
d="M252 0l-135 1032h334l32 -559l248 559h303l29 -559l244 559h342l-529 -1032h-280l-41 567l-258 -567h-289z" />
    <glyph glyph-name="x" unicode="x" horiz-adv-x="1071" 
d="M-88 0l442 565l-200 467h364l76 -196l149 196h375l-389 -481l229 -551h-364l-102 258l-201 -258h-379z" />
    <glyph glyph-name="y" unicode="y" horiz-adv-x="1073" 
d="M25 -418l274 510l-182 940h350l86 -502l254 502h350l-797 -1450h-335z" />
    <glyph glyph-name="z" unicode="z" horiz-adv-x="980" 
d="M-37 0l29 160l500 594h-379l53 278h813l-31 -160l-497 -593h411l-53 -279h-846z" />
    <glyph glyph-name="braceleft" unicode="{" horiz-adv-x="671" 
d="M117 63q0 25 6 52l63 327q7 35 7 56q0 50 -29 73t-92 23l47 246q80 0 121.5 35t54.5 116l65 340q19 90 88.5 147.5t157.5 57.5h228l-54 -274h-49q-45 0 -69 -21.5t-31 -71.5l-47 -251q-18 -96 -65.5 -143t-127.5 -58q57 -8 89 -44.5t32 -97.5q0 -29 -6 -59l-49 -252
l-2 -28q0 -64 65 -64h49l-53 -274h-227q-80 0 -126 43.5t-46 121.5z" />
    <glyph glyph-name="bar" unicode="|" horiz-adv-x="618" 
d="M23 -102l319 1638h332l-320 -1638h-331z" />
    <glyph glyph-name="braceright" unicode="}" horiz-adv-x="671" 
d="M557 936q0 -50 29 -73t92 -23l-47 -246q-80 0 -121.5 -35.5t-54.5 -116.5l-66 -340q-19 -90 -88.5 -147t-157.5 -57h-227l53 274h49q45 0 69.5 21t31.5 71l47 252q18 96 65 143t127 58q-57 8 -88.5 44t-31.5 97q0 30 6 60l49 251l2 29q0 64 -66 64h-49l53 274h228
q80 0 126 -44t46 -122q0 -24 -6 -51l-64 -328q-6 -30 -6 -55z" />
    <glyph glyph-name="asciitilde" unicode="~" horiz-adv-x="1304" 
d="M629 532q-55 31 -89.5 43.5t-76.5 12.5q-52 0 -96.5 -26.5t-108.5 -90.5l-145 188q62 107 176 173.5t243 66.5q57 0 98.5 -14t110.5 -49q55 -31 89.5 -43.5t76.5 -12.5q52 0 96.5 26.5t108.5 90.5l145 -188q-62 -107 -176 -173.5t-243 -66.5q-57 0 -98.5 14t-110.5 49z
" />
    <glyph glyph-name="uni00A0" unicode="&#xa0;" horiz-adv-x="503" 
 />
    <glyph glyph-name="exclamdown" unicode="&#xa1;" horiz-adv-x="659" 
d="M211 850q0 78 52 130t130 52t130 -52t52 -130t-52 -130t-130 -52t-130 52t-52 130zM-53 -418l243 922h271l-113 -922h-401z" />
    <glyph glyph-name="cent" unicode="&#xa2;" horiz-adv-x="1173" 
d="M365 -102l59 309q-148 41 -233 156t-85 266q0 150 63.5 280t182.5 219t273 115l57 293h283l-60 -301q211 -56 287 -285l-315 -121q-22 138 -166 138q-122 0 -193.5 -91t-71.5 -210q0 -89 44.5 -140t127.5 -51q131 0 213 137l275 -123q-156 -245 -399 -290l-60 -301h-282z
" />
    <glyph glyph-name="sterling" unicode="&#xa3;" horiz-adv-x="1187" 
d="M186 868h86q-4 82 -4 97q0 210 137.5 347.5t374.5 137.5q166 0 274.5 -81t147.5 -222l-291 -115q-21 70 -55 102.5t-94 32.5q-98 0 -148.5 -77.5t-50.5 -202.5v-19h338l-47 -245h-285q-5 -111 -54 -207t-138 -156q77 47 164 47q20 0 40 -4.5t29 -7.5t43 -16
q55 -25 90 -25q42 0 77.5 28t86.5 97l185 -164q-92 -128 -181 -179.5t-209 -51.5q-54 0 -89 6t-101 26l-24.5 7t-23.5 6.5t-19 5t-19.5 5t-17 3t-20 2t-19.5 0.5q-103 0 -244 -61l-121 172q100 75 160 135t98.5 136.5t38.5 162.5l-2 33h-160z" />
    <glyph glyph-name="currency" unicode="&#xa4;" horiz-adv-x="1212" 
d="M262 66l-239 239l194 137q-43 87 -43 187q0 99 43 186l-194 137l239 240l135 -193q85 43 189 43q101 0 188 -43l135 193l240 -240l-195 -137q43 -87 43 -186q0 -100 -43 -187l195 -137l-240 -239l-135 192q-87 -43 -188 -43q-104 0 -189 43zM719 629q0 66 -36 105.5
t-97 39.5t-97 -39.5t-36 -105.5t36 -106t97 -40t97 40t36 106z" />
    <glyph glyph-name="yen" unicode="&#xa5;" horiz-adv-x="1232" 
d="M330 0l45 229h-271l48 246h270l24 123h-270l47 246h154l-182 590h362l131 -476l313 476h394l-414 -590h127l-47 -246h-246l-24 -123h245l-47 -246h-246l-45 -229h-368z" />
    <glyph glyph-name="brokenbar" unicode="&#xa6;" horiz-adv-x="618" 
d="M203 821l139 715h332l-139 -715h-332zM23 -102l139 714h332l-140 -714h-331z" />
    <glyph glyph-name="section" unicode="&#xa7;" horiz-adv-x="1079" 
d="M-23 -111l312 95q6 -67 39 -105.5t84 -38.5q53 0 84.5 32.5t31.5 82.5q0 65 -52 116t-175 117q-134 72 -190 155t-56 202q0 97 56 183t141 130q-37 75 -37 180q0 80 30 153t86.5 131t147 93t201.5 35q164 0 285 -86q119 -85 131 -238l-312 -94q-6 67 -38.5 105.5
t-83.5 38.5q-53 0 -85 -32.5t-32 -82.5q0 -65 52 -116.5t175 -117.5q142 -77 193 -151q53 -74 53 -191q0 -103 -55.5 -186.5t-143.5 -136.5q39 -79 39 -185q0 -80 -30 -153t-86.5 -131t-147 -92.5t-201.5 -34.5q-163 0 -284 86q-120 85 -132 237zM698 451q-6 53 -44 84.5
t-185 107.5l-35 19q-59 -39 -59 -97q6 -53 44 -84.5t185 -107.5l33 -19q61 40 61 97z" />
    <glyph glyph-name="dieresis" unicode="&#xa8;" horiz-adv-x="815" 
d="M190 1333q0 73 47 120.5t121 47.5t121 -47.5t47 -120.5t-47 -120.5t-121 -47.5t-121 47.5t-47 120.5zM606 1333q0 73 47 120.5t121 47.5t121 -47.5t47 -120.5t-47 -120.5t-121 -47.5t-121 47.5t-47 120.5z" />
    <glyph glyph-name="copyright" unicode="&#xa9;" horiz-adv-x="1830" 
d="M166 717q-3 164 58.5 313t167 256.5t253 170t309.5 59.5q162 3 309.5 -59.5t253.5 -170t167.5 -257t58.5 -312.5q3 -163 -58.5 -312.5t-167.5 -257t-253.5 -170t-309.5 -59.5q-162 -3 -309.5 59.5t-253 170t-167 256.5t-58.5 313zM1497 717q0 243 -154 402t-389 159
t-388.5 -159t-153.5 -402t153.5 -402t388.5 -159t389 159t154 402zM535 717q0 104 34.5 189t92.5 139.5t133 84t159 29.5q145 0 260 -80t136 -217l-240 -41q-23 65 -60.5 93t-95.5 28q-75 0 -122.5 -62.5t-47.5 -162.5t47.5 -162.5t122.5 -62.5q58 0 96 27.5t60 92.5
l240 -41q-21 -137 -136 -217t-260 -80q-84 0 -159 29.5t-133 84.5t-92.5 140t-34.5 189z" />
    <glyph glyph-name="ordfeminine" unicode="&#xaa;" horiz-adv-x="929" 
d="M174 840q0 134 100 206t279 72h147l5 27l2 20q0 84 -99 84q-46 0 -84 -23.5t-51 -64.5l-192 49q33 111 124.5 171.5t235.5 60.5q146 0 225.5 -67.5t79.5 -192.5q0 -39 -8 -80l-94 -488h-203v91q-55 -55 -105.5 -77t-123.5 -22q-106 0 -172 64.5t-66 169.5zM664 928l2 10
h-138q-100 0 -100 -76q0 -29 21 -44t57 -15q59 0 103 35.5t55 89.5z" />
    <glyph glyph-name="guillemotleft" unicode="&#xab;" horiz-adv-x="1470" 
d="M662 78l-574 469l41 192l750 461l-70 -354l-371 -223l285 -230zM1296 78l-573 469l41 192l749 461l-69 -354l-371 -223l285 -230z" />
    <glyph glyph-name="logicalnot" unicode="&#xac;" horiz-adv-x="1267" 
d="M762 246l63 325h-694l59 299h1027l-123 -624h-332z" />
    <glyph glyph-name="uni00AD" unicode="&#xad;" horiz-adv-x="1030" 
d="M111 506l55 287h805l-56 -287h-804z" />
    <glyph glyph-name="registered" unicode="&#xae;" horiz-adv-x="1830" 
d="M166 717q-3 164 58.5 313t167 256.5t253 170t309.5 59.5q162 3 309.5 -59.5t253.5 -170t167.5 -257t58.5 -312.5q3 -163 -58.5 -312.5t-167.5 -257t-253.5 -170t-309.5 -59.5q-162 -3 -309.5 59.5t-253 170t-167 256.5t-58.5 313zM1309 281h-215l-224 372h-12v-372h-227
v872h350q145 0 221 -65t76 -185q0 -98 -49 -159.5t-135 -79.5l233 -367q82 75 126 184t44 236q0 243 -154 402t-389 159t-388.5 -159t-153.5 -402t153.5 -402t388.5 -159q215 0 355 125zM858 831h103q52 0 71 16t19 56t-19 56t-71 16h-103v-144z" />
    <glyph glyph-name="overscore" unicode="&#xaf;" horiz-adv-x="606" 
d="M152 1200l49 250h567l-47 -250h-569z" />
    <glyph glyph-name="degree" unicode="&#xb0;" horiz-adv-x="843" 
d="M549 1462q125 0 209 -84t84 -207q0 -124 -84 -208q-82 -82 -209 -82t-209 82q-84 84 -84 208q0 123 84 207t209 84zM549 1075q43 0 68.5 26.5t25.5 69.5t-26 70t-68 27t-68 -27t-26 -70t25.5 -69.5t68.5 -26.5z" />
    <glyph glyph-name="plusminus" unicode="&#xb1;" horiz-adv-x="1257" 
d="M457 383l71 365h-362l55 286h363l71 365h291l-72 -365h363l-55 -286h-363l-71 -365h-291zM20 0l56 287h1016l-56 -287h-1016z" />
    <glyph glyph-name="uni00B2" unicode="&#xb2;" horiz-adv-x="686" 
d="M78 614l14 80l373 365q67 67 67 121q0 61 -61 61q-69 0 -94 -88l-195 51q33 110 115 174t203 64t192.5 -61.5t71.5 -161.5q0 -133 -133 -263l-160 -157h221l-37 -185h-577z" />
    <glyph glyph-name="uni00B3" unicode="&#xb3;" horiz-adv-x="712" 
d="M123 874l205 23v-8q0 -37 26 -61.5t64 -24.5q42 0 68 28.5t26 71.5q0 40 -24 63t-60 23q-30 0 -63 -20l-74 116l153 164h-219l35 185h518l-18 -95l-211 -211q90 -7 138 -65.5t48 -153.5q0 -132 -90 -219q-90 -84 -233 -84q-133 0 -211 74.5t-78 193.5z" />
    <glyph glyph-name="acute" unicode="&#xb4;" horiz-adv-x="610" 
d="M147 1122l191 328h430l-375 -328h-246z" />
    <glyph glyph-name="uni00B5" unicode="&#xb5;" horiz-adv-x="1236" 
d="M-51 -418l280 1450h340l-118 -612q-1 -6 -2 -14t-2 -13t-1 -8q0 -46 27 -74t80 -28q172 0 227 297l88 452h340l-200 -1032h-340l24 119q-108 -135 -297 -135h-28l-78 -402h-340z" />
    <glyph glyph-name="paragraph" unicode="&#xb6;" horiz-adv-x="1572" 
d="M414 -418l166 856q-106 0 -199.5 51.5t-153 150t-59.5 222.5q-2 157 75.5 289t217.5 209t311 74h866l-49 -254h-127l-309 -1598h-287l310 1598h-166l-310 -1598h-286z" />
    <glyph glyph-name="middot" unicode="&#xb7;" horiz-adv-x="684" 
d="M190 717q0 82 54.5 136t136.5 54t136 -54t54 -136t-54 -136.5t-136 -54.5t-136.5 54.5t-54.5 136.5z" />
    <glyph glyph-name="cedilla" unicode="&#xb8;" horiz-adv-x="542" 
d="M150 -571l-320 161l356 287h222z" />
    <glyph glyph-name="uni00B9" unicode="&#xb9;" horiz-adv-x="512" 
d="M231 614l105 537l-182 -78l45 227l307 134h117l-158 -820h-234z" />
    <glyph glyph-name="ordmasculine" unicode="&#xba;" horiz-adv-x="1077" 
d="M1073 1085q0 -210 -136 -344.5t-355 -134.5q-165 0 -273 100t-108 257q0 210 135 344.5t358 134.5q176 0 277.5 -97.5t101.5 -259.5zM612 831q81 0 133 65t52 163q0 74 -35 116t-98 42q-83 0 -135 -66.5t-52 -161.5q0 -74 36.5 -116t98.5 -42z" />
    <glyph glyph-name="guillemotright" unicode="&#xbb;" horiz-adv-x="1470" 
d="M4 78l70 354l370 223l-284 230l61 315l574 -469l-41 -192zM639 78l70 354l370 223l-284 230l61 315l574 -469l-41 -192z" />
    <glyph glyph-name="onequarter" unicode="&#xbc;" horiz-adv-x="1751" 
d="M231 614l105 537l-182 -78l45 227l307 134h117l-158 -820h-234zM270 -90l-151 143l1386 1473l154 -144zM1309 0l22 125h-356l20 100l453 594h238l-97 -504h84l-37 -190h-86l-22 -125h-219zM1270 315h100l37 193z" />
    <glyph glyph-name="onehalf" unicode="&#xbd;" horiz-adv-x="1873" 
d="M231 614l105 537l-182 -78l45 227l307 134h117l-158 -820h-234zM270 -90l-151 143l1386 1473l154 -144zM1147 0l14 80l373 364q68 68 68 121q0 62 -62 62q-69 0 -94 -88l-195 51q33 109 115 173t203 64t192.5 -61.5t71.5 -161.5q0 -132 -133 -262l-160 -158h221l-37 -184
h-577z" />
    <glyph glyph-name="threequarters" unicode="&#xbe;" horiz-adv-x="1931" 
d="M123 874l205 23v-8q0 -37 26 -61.5t64 -24.5q42 0 68 28.5t26 71.5q0 40 -24 63t-60 23q-30 0 -63 -20l-74 116l153 164h-219l35 185h518l-18 -95l-211 -211q90 -7 138 -65.5t48 -153.5q0 -132 -90 -219q-90 -84 -233 -84q-133 0 -211 74.5t-78 193.5zM451 -90l-152 143
l1387 1473l153 -144zM1489 0l22 125h-356l21 100l452 594h238l-97 -504h84l-36 -190h-86l-23 -125h-219zM1450 315h100l37 193z" />
    <glyph glyph-name="questiondown" unicode="&#xbf;" horiz-adv-x="978" 
d="M739 850q0 -78 -52 -130t-130 -52t-130 52t-52 130t52 130t130 52t130 -52t52 -130zM754 340q0 -118 -67 -191t-236 -129l-19 -6q-98 -31 -136 -59t-38 -70q0 -69 96 -69q53 0 94 38.5t52 94.5l278 -64q-103 -319 -471 -319q-148 0 -250 79t-102 199q0 148 82.5 226.5
t277.5 134.5l29 8q75 23 105 41t30 51q0 19 -13.5 31t-33.5 12q-47 0 -82 -65l-215 67q55 124 130.5 177t203.5 53q70 0 134 -27.5t107.5 -84t43.5 -128.5z" />
    <glyph glyph-name="Agrave" unicode="&#xc0;" horiz-adv-x="1351" 
d="M-84 0l764 1434h348l207 -1434h-365l-34 305h-381l-152 -305h-387zM608 616h197l-33 345zM993 1524h-243l-248 327h422z" />
    <glyph glyph-name="Aacute" unicode="&#xc1;" horiz-adv-x="1351" 
d="M-84 0l764 1434h348l207 -1434h-365l-34 305h-381l-152 -305h-387zM608 616h197l-33 345zM735 1524l191 327h430l-375 -327h-246z" />
    <glyph glyph-name="Acircumflex" unicode="&#xc2;" horiz-adv-x="1351" 
d="M-84 0l764 1434h348l207 -1434h-365l-34 305h-381l-152 -305h-387zM608 616h197l-33 345zM440 1524l434 393h91l284 -393h-280l-86 114l-125 -114h-318z" />
    <glyph glyph-name="Atilde" unicode="&#xc3;" horiz-adv-x="1351" 
d="M-84 0l764 1434h348l207 -1434h-365l-34 305h-381l-152 -305h-387zM608 616h197l-33 345zM627 1546l-150 133q57 90 137.5 142.5t171.5 52.5q45 0 77.5 -9.5t82.5 -33.5q56 -33 103 -33q36 0 65.5 19.5t65.5 64.5l149 -133q-120 -195 -291 -195q-76 0 -168 45
q-58 31 -104 31q-73 0 -139 -84z" />
    <glyph glyph-name="Adieresis" unicode="&#xc4;" horiz-adv-x="1351" 
d="M-84 0l764 1434h348l207 -1434h-365l-34 305h-381l-152 -305h-387zM608 616h197l-33 345zM530 1735q0 73 47 120.5t121 47.5t121 -47.5t47 -120.5t-47 -120.5t-121 -47.5t-121 47.5t-47 120.5zM946 1735q0 73 47 120.5t121 47.5t121 -47.5t47 -120.5t-47 -120.5
t-121 -47.5t-121 47.5t-47 120.5z" />
    <glyph glyph-name="Aring" unicode="&#xc5;" horiz-adv-x="1351" 
d="M-84 0l764 1434h348l207 -1434h-365l-34 305h-381l-152 -305h-387zM608 616h197l-33 345zM686 1743q0 94 62.5 156.5t158.5 62.5t158.5 -62.5t62.5 -156.5t-62.5 -156.5t-158.5 -62.5t-158.5 62.5t-62.5 156.5zM969 1743q0 30 -16.5 47.5t-45.5 17.5t-45 -17.5t-16 -47.5
t16 -48t45 -18t45.5 18t16.5 48z" />
    <glyph glyph-name="AE" unicode="&#xc6;" horiz-adv-x="1929" 
d="M-84 0l899 1434h1178l-62 -312h-608l-39 -202h477l-61 -312h-477l-58 -297h629l-61 -311h-998l60 305h-306l-182 -305h-391zM676 616h180l72 365h-33z" />
    <glyph glyph-name="Ccedilla" unicode="&#xc7;" horiz-adv-x="1466" 
d="M96 584q-3 170 56.5 329t165.5 278.5t261.5 190.5t333.5 68q247 0 398 -124t178 -333l-332 -84q-20 102 -89.5 166t-180.5 64q-92 2 -173 -43t-135 -119t-85 -167.5t-29 -188.5q0 -158 77 -242t214 -84q94 0 171.5 62.5t121.5 172.5l323 -108q-116 -251 -274 -342
q-162 -96 -408 -96q-256 0 -425 168t-169 432zM500 -571l-320 161l357 287h221z" />
    <glyph glyph-name="Egrave" unicode="&#xc8;" horiz-adv-x="1236" 
d="M43 0l281 1434h976l-61 -312h-608l-39 -202h477l-61 -312h-478l-57 -297h629l-62 -311h-997zM956 1524h-243l-248 327h422z" />
    <glyph glyph-name="Eacute" unicode="&#xc9;" horiz-adv-x="1236" 
d="M43 0l281 1434h976l-61 -312h-608l-39 -202h477l-61 -312h-478l-57 -297h629l-62 -311h-997zM698 1524l191 327h430l-375 -327h-246z" />
    <glyph glyph-name="Ecircumflex" unicode="&#xca;" horiz-adv-x="1236" 
d="M43 0l281 1434h976l-61 -312h-608l-39 -202h477l-61 -312h-478l-57 -297h629l-62 -311h-997zM403 1524l435 393h90l284 -393h-280l-86 114l-125 -114h-318z" />
    <glyph glyph-name="Edieresis" unicode="&#xcb;" horiz-adv-x="1236" 
d="M43 0l281 1434h976l-61 -312h-608l-39 -202h477l-61 -312h-478l-57 -297h629l-62 -311h-997zM494 1735q0 73 47 120.5t121 47.5q73 0 120 -47t47 -121t-47 -121t-120 -47q-74 0 -121 47.5t-47 120.5zM909 1735q0 73 47.5 120.5t120.5 47.5t120.5 -47.5t47.5 -120.5
t-47.5 -120.5t-120.5 -47.5t-120.5 47.5t-47.5 120.5z" />
    <glyph glyph-name="Igrave" unicode="&#xcc;" horiz-adv-x="657" 
d="M43 0l281 1434h368l-280 -1434h-369zM651 1524h-243l-248 327h422z" />
    <glyph glyph-name="Iacute" unicode="&#xcd;" horiz-adv-x="657" 
d="M43 0l281 1434h368l-280 -1434h-369zM393 1524l191 327h430l-375 -327h-246z" />
    <glyph glyph-name="Icircumflex" unicode="&#xce;" horiz-adv-x="657" 
d="M43 0l281 1434h368l-280 -1434h-369zM98 1524l434 393h91l284 -393h-280l-86 114l-125 -114h-318z" />
    <glyph glyph-name="Idieresis" unicode="&#xcf;" horiz-adv-x="657" 
d="M43 0l281 1434h368l-280 -1434h-369zM188 1735q0 73 47 120.5t121 47.5t121 -47.5t47 -120.5t-47 -120.5t-121 -47.5t-121 47.5t-47 120.5zM604 1735q0 73 47 120.5t121 47.5t121 -47.5t47 -120.5t-47 -120.5t-121 -47.5t-121 47.5t-47 120.5z" />
    <glyph glyph-name="Eth" unicode="&#xd0;" horiz-adv-x="1419" 
d="M1399 848q0 -256 -108 -448.5t-305 -296t-456 -103.5h-487l115 582h-135l53 270h133l115 582h436q182 0 327.5 -74.5t228.5 -209t83 -302.5zM1028 813q0 159 -86.5 234t-236.5 75h-82l-54 -270h224l-54 -270h-221l-53 -271h82q223 0 352 141t129 361z" />
    <glyph glyph-name="Ntilde" unicode="&#xd1;" horiz-adv-x="1447" 
d="M43 0l281 1434h354l305 -856l168 856h332l-281 -1434h-354l-305 856l-168 -856h-332zM682 1546l-150 133q57 90 138 142.5t172 52.5q45 0 77 -9.5t82 -33.5q56 -33 103 -33q36 0 65.5 19.5t65.5 64.5l149 -133q-120 -195 -290 -195q-76 0 -168 45q-58 31 -105 31
q-73 0 -139 -84z" />
    <glyph glyph-name="Ograve" unicode="&#xd2;" horiz-adv-x="1568" 
d="M98 586q-2 172 57 330.5t164 277.5t260.5 189t335.5 67q184 0 325 -71.5t222.5 -213.5t81.5 -336q2 -176 -58 -333t-166 -270.5t-259 -178.5t-328 -63q-176 0 -320 73t-229.5 211.5t-85.5 317.5zM1174 815q0 153 -74.5 238.5t-198.5 85.5q-96 2 -179.5 -44t-138.5 -120.5
t-86 -167t-30 -184.5q0 -154 81.5 -241t209.5 -87q89 -2 169 44t133.5 121t84 168.5t29.5 186.5zM1104 1524h-244l-248 327h422z" />
    <glyph glyph-name="Oacute" unicode="&#xd3;" horiz-adv-x="1568" 
d="M98 586q-2 172 57 330.5t164 277.5t260.5 189t335.5 67q184 0 325 -71.5t222.5 -213.5t81.5 -336q2 -176 -58 -333t-166 -270.5t-259 -178.5t-328 -63q-176 0 -320 73t-229.5 211.5t-85.5 317.5zM1174 815q0 153 -74.5 238.5t-198.5 85.5q-96 2 -179.5 -44t-138.5 -120.5
t-86 -167t-30 -184.5q0 -154 81.5 -241t209.5 -87q89 -2 169 44t133.5 121t84 168.5t29.5 186.5zM846 1524l190 327h430l-374 -327h-246z" />
    <glyph glyph-name="Ocircumflex" unicode="&#xd4;" horiz-adv-x="1568" 
d="M98 586q-2 172 57 330.5t164 277.5t260.5 189t335.5 67q184 0 325 -71.5t222.5 -213.5t81.5 -336q2 -176 -58 -333t-166 -270.5t-259 -178.5t-328 -63q-176 0 -320 73t-229.5 211.5t-85.5 317.5zM1174 815q0 153 -74.5 238.5t-198.5 85.5q-96 2 -179.5 -44t-138.5 -120.5
t-86 -167t-30 -184.5q0 -154 81.5 -241t209.5 -87q89 -2 169 44t133.5 121t84 168.5t29.5 186.5zM551 1524l434 393h90l285 -393h-281l-86 114l-125 -114h-317z" />
    <glyph glyph-name="Otilde" unicode="&#xd5;" horiz-adv-x="1568" 
d="M98 586q-2 172 57 330.5t164 277.5t260.5 189t335.5 67q184 0 325 -71.5t222.5 -213.5t81.5 -336q2 -176 -58 -333t-166 -270.5t-259 -178.5t-328 -63q-176 0 -320 73t-229.5 211.5t-85.5 317.5zM1174 815q0 153 -74.5 238.5t-198.5 85.5q-96 2 -179.5 -44t-138.5 -120.5
t-86 -167t-30 -184.5q0 -154 81.5 -241t209.5 -87q89 -2 169 44t133.5 121t84 168.5t29.5 186.5zM737 1546l-149 133q57 90 137.5 142.5t171.5 52.5q45 0 77.5 -9.5t82.5 -33.5q56 -33 102 -33q36 0 65.5 19.5t65.5 64.5l150 -133q-120 -195 -291 -195q-76 0 -168 45
q-58 31 -104 31q-74 0 -140 -84z" />
    <glyph glyph-name="Odieresis" unicode="&#xd6;" horiz-adv-x="1568" 
d="M98 586q-2 172 57 330.5t164 277.5t260.5 189t335.5 67q184 0 325 -71.5t222.5 -213.5t81.5 -336q2 -176 -58 -333t-166 -270.5t-259 -178.5t-328 -63q-176 0 -320 73t-229.5 211.5t-85.5 317.5zM1174 815q0 153 -74.5 238.5t-198.5 85.5q-96 2 -179.5 -44t-138.5 -120.5
t-86 -167t-30 -184.5q0 -154 81.5 -241t209.5 -87q89 -2 169 44t133.5 121t84 168.5t29.5 186.5zM641 1735q0 73 47.5 120.5t120.5 47.5t120.5 -47.5t47.5 -120.5t-47.5 -120.5t-120.5 -47.5t-120.5 47.5t-47.5 120.5zM1057 1735q0 73 47.5 120.5t120.5 47.5t120.5 -47.5
t47.5 -120.5t-47.5 -120.5t-120.5 -47.5t-120.5 47.5t-47.5 120.5z" />
    <glyph glyph-name="multiply" unicode="&#xd7;" horiz-adv-x="1261" 
d="M240 129l-164 203l379 317l-256 318l227 192l256 -319l393 329l164 -202l-391 -330l254 -318l-228 -190l-256 317z" />
    <glyph glyph-name="Oslash" unicode="&#xd8;" horiz-adv-x="1568" 
d="M1628 1372l-178 -184q94 -149 94 -359q2 -176 -58 -333t-166 -270.5t-259 -178.5t-328 -63q-202 0 -360 96l-172 -178l-187 159l181 187q-97 148 -97 338q-2 172 57 330.5t164 277.5t260.5 189t335.5 67q206 0 359 -90l168 172zM475 537l555 571q-57 31 -129 31
q-96 2 -179.5 -44t-138.5 -120.5t-86 -167t-30 -184.5q0 -55 8 -86zM1167 897l-551 -567q65 -35 142 -35q89 -2 169 44t133.5 121t84 168.5t29.5 186.5q0 38 -7 82z" />
    <glyph glyph-name="Ugrave" unicode="&#xd9;" horiz-adv-x="1351" 
d="M104 424q0 45 13 121l172 889h338l-168 -873q-8 -36 -8 -69q0 -91 51.5 -142t144.5 -51q101 0 171.5 67t94.5 195l168 873h338l-172 -889q-53 -278 -221.5 -419.5t-433.5 -141.5q-97 0 -184 28.5t-155 82t-108.5 138.5t-40.5 191zM999 1524h-243l-248 327h422z" />
    <glyph glyph-name="Uacute" unicode="&#xda;" horiz-adv-x="1351" 
d="M104 424q0 45 13 121l172 889h338l-168 -873q-8 -36 -8 -69q0 -91 51.5 -142t144.5 -51q101 0 171.5 67t94.5 195l168 873h338l-172 -889q-53 -278 -221.5 -419.5t-433.5 -141.5q-97 0 -184 28.5t-155 82t-108.5 138.5t-40.5 191zM741 1524l191 327h430l-375 -327h-246z
" />
    <glyph glyph-name="Ucircumflex" unicode="&#xdb;" horiz-adv-x="1351" 
d="M104 424q0 45 13 121l172 889h338l-168 -873q-8 -36 -8 -69q0 -91 51.5 -142t144.5 -51q101 0 171.5 67t94.5 195l168 873h338l-172 -889q-53 -278 -221.5 -419.5t-433.5 -141.5q-97 0 -184 28.5t-155 82t-108.5 138.5t-40.5 191zM446 1524l435 393h90l284 -393h-280
l-86 114l-125 -114h-318z" />
    <glyph glyph-name="Udieresis" unicode="&#xdc;" horiz-adv-x="1351" 
d="M104 424q0 45 13 121l172 889h338l-168 -873q-8 -36 -8 -69q0 -91 51.5 -142t144.5 -51q101 0 171.5 67t94.5 195l168 873h338l-172 -889q-53 -278 -221.5 -419.5t-433.5 -141.5q-97 0 -184 28.5t-155 82t-108.5 138.5t-40.5 191zM537 1735q0 73 47.5 120.5t120.5 47.5
t120 -47t47 -121t-47 -121t-120 -47t-120.5 47.5t-47.5 120.5zM952 1735q0 73 47 120.5t121 47.5t121 -47.5t47 -120.5t-47 -120.5t-121 -47.5t-121 47.5t-47 120.5z" />
    <glyph glyph-name="Yacute" unicode="&#xdd;" horiz-adv-x="1232" 
d="M330 0l119 610l-254 824h362l131 -476l313 476h394l-578 -824l-119 -610h-368zM670 1524l190 327h430l-375 -327h-245z" />
    <glyph glyph-name="Thorn" unicode="&#xde;" horiz-adv-x="1271" 
d="M43 0l281 1434h368l-53 -273h162q216 0 337.5 -103.5t121.5 -291.5q0 -122 -44.5 -217.5t-123 -155t-182 -90.5t-224.5 -31h-221l-53 -272h-369zM522 571h199q85 0 134.5 46t49.5 124q0 121 -129 121h-196z" />
    <glyph glyph-name="germandbls" unicode="&#xdf;" horiz-adv-x="1210" 
d="M446 -8l56 268q44 -12 100 -12q94 0 152.5 56t58.5 159q0 86 -53 133t-150 47h-49l53 279h41q86 0 138.5 42t52.5 115q0 52 -28 82.5t-81 30.5q-64 0 -108.5 -42.5t-57.5 -119.5l-200 -1030h-328l127 643h-86l53 279h86l21 102q38 204 175.5 315t342.5 111
q188 0 290.5 -86t102.5 -229q0 -100 -56.5 -187.5t-154.5 -134.5q86 -44 137.5 -132.5t51.5 -191.5q0 -248 -139 -376.5t-394 -128.5q-89 0 -154 8z" />
    <glyph glyph-name="agrave" unicode="&#xe0;" horiz-adv-x="1263" 
d="M68 434q-1 90 22.5 178.5t72 168t116 140t160.5 95.5t198 33q159 0 242 -99l16 82h340l-201 -1032h-340l19 88q-88 -104 -250 -104q-184 0 -289.5 122.5t-105.5 327.5zM821 565q0 100 -43 148.5t-119 48.5q-115 0 -183 -83.5t-68 -213.5q0 -90 50 -142.5t130 -52.5
q103 0 168 86q65 89 65 209zM836 1147h-244l-248 328h422z" />
    <glyph glyph-name="aacute" unicode="&#xe1;" horiz-adv-x="1263" 
d="M68 434q-1 90 22.5 178.5t72 168t116 140t160.5 95.5t198 33q159 0 242 -99l16 82h340l-201 -1032h-340l19 88q-88 -104 -250 -104q-184 0 -289.5 122.5t-105.5 327.5zM821 565q0 100 -43 148.5t-119 48.5q-115 0 -183 -83.5t-68 -213.5q0 -90 50 -142.5t130 -52.5
q103 0 168 86q65 89 65 209zM584 1147l190 328h430l-375 -328h-245z" />
    <glyph glyph-name="acircumflex" unicode="&#xe2;" horiz-adv-x="1263" 
d="M68 434q-1 90 22.5 178.5t72 168t116 140t160.5 95.5t198 33q159 0 242 -99l16 82h340l-201 -1032h-340l19 88q-88 -104 -250 -104q-184 0 -289.5 122.5t-105.5 327.5zM821 565q0 100 -43 148.5t-119 48.5q-115 0 -183 -83.5t-68 -213.5q0 -90 50 -142.5t130 -52.5
q103 0 168 86q65 89 65 209zM285 1147l434 393h90l285 -393h-281l-86 115l-125 -115h-317z" />
    <glyph glyph-name="atilde" unicode="&#xe3;" horiz-adv-x="1263" 
d="M68 434q-1 90 22.5 178.5t72 168t116 140t160.5 95.5t198 33q159 0 242 -99l16 82h340l-201 -1032h-340l19 88q-88 -104 -250 -104q-184 0 -289.5 122.5t-105.5 327.5zM821 565q0 100 -43 148.5t-119 48.5q-115 0 -183 -83.5t-68 -213.5q0 -90 50 -142.5t130 -52.5
q103 0 168 86q65 89 65 209zM467 1145l-150 133q57 90 138 142.5t172 52.5q45 0 77 -9.5t82 -33.5q56 -33 103 -33q36 0 65.5 19.5t65.5 64.5l149 -133q-120 -195 -290 -195q-76 0 -168 45q-58 31 -105 31q-73 0 -139 -84z" />
    <glyph glyph-name="adieresis" unicode="&#xe4;" horiz-adv-x="1263" 
d="M68 434q-1 90 22.5 178.5t72 168t116 140t160.5 95.5t198 33q159 0 242 -99l16 82h340l-201 -1032h-340l19 88q-88 -104 -250 -104q-184 0 -289.5 122.5t-105.5 327.5zM821 565q0 100 -43 148.5t-119 48.5q-115 0 -183 -83.5t-68 -213.5q0 -90 50 -142.5t130 -52.5
q103 0 168 86q65 89 65 209zM371 1333q0 73 47.5 120.5t120.5 47.5t120.5 -47.5t47.5 -120.5t-47.5 -120.5t-120.5 -47.5t-120.5 47.5t-47.5 120.5zM786 1333q0 73 47 120.5t121 47.5t121 -47.5t47 -120.5t-47 -120.5t-121 -47.5t-121 47.5t-47 120.5z" />
    <glyph glyph-name="aring" unicode="&#xe5;" horiz-adv-x="1263" 
d="M68 434q-1 90 22.5 178.5t72 168t116 140t160.5 95.5t198 33q159 0 242 -99l16 82h340l-201 -1032h-340l19 88q-88 -104 -250 -104q-184 0 -289.5 122.5t-105.5 327.5zM821 565q0 100 -43 148.5t-119 48.5q-115 0 -183 -83.5t-68 -213.5q0 -90 50 -142.5t130 -52.5
q103 0 168 86q65 89 65 209zM530 1341q0 94 63 157t159 63t158.5 -63t62.5 -157t-62.5 -156.5t-158.5 -62.5t-159 62.5t-63 156.5zM813 1341q0 30 -16 48t-45 18t-45.5 -18t-16.5 -48t16.5 -47.5t45.5 -17.5t45 17.5t16 47.5z" />
    <glyph glyph-name="ae" unicode="&#xe6;" horiz-adv-x="1912" 
d="M68 434q-1 90 22.5 178.5t72 168t116 140t160.5 95.5t198 33q159 0 242 -99l16 82h340l-18 -88q36 49 98.5 77t130.5 28q103 0 183 -33.5t128 -91.5t72 -129.5t24 -153.5q0 -42 -10 -104l-22 -123h-697q10 -74 57.5 -116t116.5 -42q72 0 125 28t107 95l246 -125
q-93 -140 -212 -205t-288 -65q-84 0 -138 20t-91 68l-13 -72h-340l19 88q-88 -104 -250 -104q-184 0 -289.5 122.5t-105.5 327.5zM1159 635h389q0 72 -40.5 121t-116.5 49q-161 0 -232 -170zM821 565q0 100 -43 148.5t-119 48.5q-115 0 -183 -83.5t-68 -213.5
q0 -90 50 -142.5t130 -52.5q103 0 168 86q65 89 65 209z" />
    <glyph glyph-name="ccedilla" unicode="&#xe7;" horiz-adv-x="1171" 
d="M66 424q-3 168 77 311.5t229.5 230t334.5 83.5q179 0 286 -75.5t158 -228.5l-315 -120q-22 137 -166 137q-122 0 -193 -91t-71 -210q0 -89 44.5 -140t127.5 -51q130 0 213 138l274 -123q-100 -156 -227.5 -228.5t-305.5 -72.5q-142 0 -249.5 60.5t-162 159.5t-54.5 220z
M379 -571l-320 161l357 287h221z" />
    <glyph glyph-name="egrave" unicode="&#xe8;" horiz-adv-x="1183" 
d="M70 442q-2 112 41 221t121 196t198.5 139.5t261.5 50.5q224 0 328 -119t104 -289q0 -71 -32 -227h-703q17 -77 64 -117.5t116 -40.5q72 0 125 28t107 95l246 -125q-93 -140 -212 -205t-288 -65q-216 0 -346.5 132t-130.5 326zM424 647h393q4 20 4 31q0 56 -42 91.5
t-115 35.5q-77 0 -139.5 -43t-100.5 -115zM842 1147h-244l-248 328h422z" />
    <glyph glyph-name="eacute" unicode="&#xe9;" horiz-adv-x="1183" 
d="M70 442q-2 112 41 221t121 196t198.5 139.5t261.5 50.5q224 0 328 -119t104 -289q0 -71 -32 -227h-703q17 -77 64 -117.5t116 -40.5q72 0 125 28t107 95l246 -125q-93 -140 -212 -205t-288 -65q-216 0 -346.5 132t-130.5 326zM424 647h393q4 20 4 31q0 56 -42 91.5
t-115 35.5q-77 0 -139.5 -43t-100.5 -115zM590 1147l190 328h430l-374 -328h-246z" />
    <glyph glyph-name="ecircumflex" unicode="&#xea;" horiz-adv-x="1183" 
d="M70 442q-2 112 41 221t121 196t198.5 139.5t261.5 50.5q224 0 328 -119t104 -289q0 -71 -32 -227h-703q17 -77 64 -117.5t116 -40.5q72 0 125 28t107 95l246 -125q-93 -140 -212 -205t-288 -65q-216 0 -346.5 132t-130.5 326zM424 647h393q4 20 4 31q0 56 -42 91.5
t-115 35.5q-77 0 -139.5 -43t-100.5 -115zM291 1147l434 393h90l285 -393h-281l-86 115l-125 -115h-317z" />
    <glyph glyph-name="edieresis" unicode="&#xeb;" horiz-adv-x="1183" 
d="M70 442q-2 112 41 221t121 196t198.5 139.5t261.5 50.5q224 0 328 -119t104 -289q0 -71 -32 -227h-703q17 -77 64 -117.5t116 -40.5q72 0 125 28t107 95l246 -125q-93 -140 -212 -205t-288 -65q-216 0 -346.5 132t-130.5 326zM424 647h393q4 20 4 31q0 56 -42 91.5
t-115 35.5q-77 0 -139.5 -43t-100.5 -115zM377 1333q0 73 47.5 120.5t120.5 47.5t120.5 -47.5t47.5 -120.5t-47.5 -120.5t-120.5 -47.5t-120.5 47.5t-47.5 120.5zM793 1333q0 73 47.5 120.5t120.5 47.5t120 -47t47 -121t-47 -121t-120 -47t-120.5 47.5t-47.5 120.5z" />
    <glyph glyph-name="igrave" unicode="&#xec;" horiz-adv-x="600" 
d="M31 0l198 1032h340l-198 -1032h-340zM547 1147h-244l-248 328h422z" />
    <glyph glyph-name="iacute" unicode="&#xed;" horiz-adv-x="600" 
d="M31 0l198 1032h340l-198 -1032h-340zM295 1147l190 328h430l-374 -328h-246z" />
    <glyph glyph-name="icircumflex" unicode="&#xee;" horiz-adv-x="600" 
d="M31 0l198 1032h340l-198 -1032h-340zM-4 1147l434 393h90l285 -393h-281l-86 115l-125 -115h-317z" />
    <glyph glyph-name="idieresis" unicode="&#xef;" horiz-adv-x="600" 
d="M31 0l198 1032h340l-198 -1032h-340zM82 1333q0 73 47 120.5t121 47.5t121 -47.5t47 -120.5t-47 -120.5t-121 -47.5t-121 47.5t-47 120.5zM498 1333q0 73 47 120.5t121 47.5t121 -47.5t47 -120.5t-47 -120.5t-121 -47.5t-121 47.5t-47 120.5z" />
    <glyph glyph-name="eth" unicode="&#xf0;" horiz-adv-x="1239" 
d="M72 459q-2 84 25 169.5t81 162t127.5 135t172.5 92t208 31.5q99 0 172 -41q-56 86 -133 151l-70 -80l-147 119l59 68q-59 33 -151 69l190 236q88 -37 162 -80l100 113l144 -123l-90 -103q268 -238 268 -630q0 -125 -22.5 -236.5t-71.5 -208.5t-120.5 -167.5t-176.5 -111
t-234 -40.5q-214 0 -353.5 134t-139.5 341zM825 557q0 97 -44 151t-132 54q-92 0 -160.5 -90t-68.5 -211q0 -82 51.5 -136.5t132.5 -54.5q96 0 158.5 82.5t62.5 204.5z" />
    <glyph glyph-name="ntilde" unicode="&#xf1;" horiz-adv-x="1234" 
d="M29 0l200 1032h340l-24 -119q109 136 301 136q139 0 218 -80t79 -217q0 -52 -8 -88l-129 -664h-340l118 610q4 28 4 37q0 103 -100 103q-81 0 -143 -78.5t-88 -218.5l-88 -453h-340zM500 1145l-150 133q57 90 137.5 142.5t171.5 52.5q45 0 77.5 -9.5t82.5 -33.5
q56 -33 103 -33q36 0 65.5 19.5t65.5 64.5l149 -133q-120 -195 -291 -195q-76 0 -168 45q-58 31 -104 31q-73 0 -139 -84z" />
    <glyph glyph-name="ograve" unicode="&#xf2;" horiz-adv-x="1245" 
d="M70 436q-1 121 41.5 233t120 197t193 135t249.5 48q226 0 364 -126.5t138 -332.5q0 -170 -76.5 -308t-217.5 -218t-321 -80q-216 0 -353.5 127.5t-137.5 324.5zM836 559q0 92 -50.5 147.5t-130.5 55.5q-105 0 -175 -89t-70 -204q0 -95 51 -147t135 -52q105 0 172.5 82
t67.5 207zM840 1147h-244l-248 328h422z" />
    <glyph glyph-name="oacute" unicode="&#xf3;" horiz-adv-x="1245" 
d="M70 436q-1 121 41.5 233t120 197t193 135t249.5 48q226 0 364 -126.5t138 -332.5q0 -170 -76.5 -308t-217.5 -218t-321 -80q-216 0 -353.5 127.5t-137.5 324.5zM836 559q0 92 -50.5 147.5t-130.5 55.5q-105 0 -175 -89t-70 -204q0 -95 51 -147t135 -52q105 0 172.5 82
t67.5 207zM588 1147l190 328h430l-374 -328h-246z" />
    <glyph glyph-name="ocircumflex" unicode="&#xf4;" horiz-adv-x="1245" 
d="M70 436q-1 121 41.5 233t120 197t193 135t249.5 48q226 0 364 -126.5t138 -332.5q0 -170 -76.5 -308t-217.5 -218t-321 -80q-216 0 -353.5 127.5t-137.5 324.5zM836 559q0 92 -50.5 147.5t-130.5 55.5q-105 0 -175 -89t-70 -204q0 -95 51 -147t135 -52q105 0 172.5 82
t67.5 207zM289 1147l434 393h90l285 -393h-281l-86 115l-125 -115h-317z" />
    <glyph glyph-name="otilde" unicode="&#xf5;" horiz-adv-x="1245" 
d="M70 436q-1 121 41.5 233t120 197t193 135t249.5 48q226 0 364 -126.5t138 -332.5q0 -170 -76.5 -308t-217.5 -218t-321 -80q-216 0 -353.5 127.5t-137.5 324.5zM836 559q0 92 -50.5 147.5t-130.5 55.5q-105 0 -175 -89t-70 -204q0 -95 51 -147t135 -52q105 0 172.5 82
t67.5 207zM471 1145l-149 133q57 90 137.5 142.5t171.5 52.5q45 0 77.5 -9.5t82.5 -33.5q56 -33 102 -33q36 0 65.5 19.5t65.5 64.5l150 -133q-120 -195 -291 -195q-76 0 -168 45q-58 31 -105 31q-73 0 -139 -84z" />
    <glyph glyph-name="odieresis" unicode="&#xf6;" horiz-adv-x="1245" 
d="M70 436q-1 121 41.5 233t120 197t193 135t249.5 48q226 0 364 -126.5t138 -332.5q0 -170 -76.5 -308t-217.5 -218t-321 -80q-216 0 -353.5 127.5t-137.5 324.5zM836 559q0 92 -50.5 147.5t-130.5 55.5q-105 0 -175 -89t-70 -204q0 -95 51 -147t135 -52q105 0 172.5 82
t67.5 207zM375 1333q0 73 47.5 120.5t120.5 47.5t120.5 -47.5t47.5 -120.5t-47.5 -120.5t-120.5 -47.5t-120.5 47.5t-47.5 120.5zM791 1333q0 74 47 121t120 47q74 0 121 -47.5t47 -120.5t-47 -120.5t-121 -47.5q-73 0 -120 47t-47 121z" />
    <glyph glyph-name="divide" unicode="&#xf7;" horiz-adv-x="1251" 
d="M537 1036q0 82 54 136.5t136 54.5t136.5 -54.5t54.5 -136.5t-54.5 -136t-136.5 -54t-136 54t-54 136zM123 522l49 246h1008l-50 -246h-1007zM385 254q0 82 54 136t136 54t136.5 -54t54.5 -136t-54.5 -136.5t-136.5 -54.5t-136 54.5t-54 136.5z" />
    <glyph glyph-name="oslash" unicode="&#xf8;" horiz-adv-x="1245" 
d="M1278 1010l-168 -172q66 -111 66 -248q0 -170 -76.5 -308t-217.5 -218t-321 -80q-129 0 -239 49l-168 -172l-187 162l170 172q-67 107 -67 241q-1 121 41.5 233t120 197t193 135t249.5 48q136 0 248 -50l170 172zM410 475l278 285q-6 2 -33 2q-105 0 -173.5 -86.5
t-71.5 -200.5zM836 557l-279 -283q32 -4 39 -4q105 0 172.5 81.5t67.5 205.5z" />
    <glyph glyph-name="ugrave" unicode="&#xf9;" horiz-adv-x="1236" 
d="M92 281q0 52 8 88l129 663h340l-118 -610q-5 -35 -5 -37q0 -47 28 -74.5t73 -27.5q90 0 146.5 73.5t86.5 223.5l88 452h340l-200 -1032h-340l24 119q-108 -135 -297 -135q-137 0 -220 81t-83 216zM866 1147h-243l-248 328h422z" />
    <glyph glyph-name="uacute" unicode="&#xfa;" horiz-adv-x="1236" 
d="M92 281q0 52 8 88l129 663h340l-118 -610q-5 -35 -5 -37q0 -47 28 -74.5t73 -27.5q90 0 146.5 73.5t86.5 223.5l88 452h340l-200 -1032h-340l24 119q-108 -135 -297 -135q-137 0 -220 81t-83 216zM614 1147l191 328h430l-375 -328h-246z" />
    <glyph glyph-name="ucircumflex" unicode="&#xfb;" horiz-adv-x="1236" 
d="M92 281q0 52 8 88l129 663h340l-118 -610q-5 -35 -5 -37q0 -47 28 -74.5t73 -27.5q90 0 146.5 73.5t86.5 223.5l88 452h340l-200 -1032h-340l24 119q-108 -135 -297 -135q-137 0 -220 81t-83 216zM315 1147l435 393h90l284 -393h-280l-86 115l-125 -115h-318z" />
    <glyph glyph-name="udieresis" unicode="&#xfc;" horiz-adv-x="1236" 
d="M92 281q0 52 8 88l129 663h340l-118 -610q-5 -35 -5 -37q0 -47 28 -74.5t73 -27.5q90 0 146.5 73.5t86.5 223.5l88 452h340l-200 -1032h-340l24 119q-108 -135 -297 -135q-137 0 -220 81t-83 216zM401 1333q0 73 47.5 120.5t120.5 47.5t120.5 -47.5t47.5 -120.5
t-47.5 -120.5t-120.5 -47.5t-120.5 47.5t-47.5 120.5zM817 1333q0 73 47.5 120.5t120.5 47.5t120.5 -47.5t47.5 -120.5t-47.5 -120.5t-120.5 -47.5t-120.5 47.5t-47.5 120.5z" />
    <glyph glyph-name="yacute" unicode="&#xfd;" horiz-adv-x="1073" 
d="M25 -418l274 510l-182 940h350l86 -502l254 502h350l-797 -1450h-335zM530 1147l191 328h430l-375 -328h-246z" />
    <glyph glyph-name="thorn" unicode="&#xfe;" horiz-adv-x="1249" 
d="M-53 -418l364 1868h340l-82 -418l-18 -88q108 105 266 105q166 0 266.5 -117.5t100.5 -313.5q2 -169 -67.5 -314t-203 -234t-301.5 -86q-138 0 -233 77l-12 -61l-80 -418h-340zM844 571q0 87 -41.5 139t-110.5 52q-111 0 -179.5 -90.5t-68.5 -216.5q0 -89 46.5 -137
t127.5 -48q99 0 162.5 90t63.5 211z" />
    <glyph glyph-name="ydieresis" unicode="&#xff;" horiz-adv-x="1073" 
d="M25 -418l274 510l-182 940h350l86 -502l254 502h350l-797 -1450h-335zM317 1333q0 73 47.5 120.5t120.5 47.5t120.5 -47.5t47.5 -120.5t-47.5 -120.5t-120.5 -47.5t-120.5 47.5t-47.5 120.5zM733 1333q0 73 47.5 120.5t120.5 47.5t120.5 -47.5t47.5 -120.5t-47.5 -120.5
t-120.5 -47.5t-120.5 47.5t-47.5 120.5z" />
    <glyph glyph-name="Amacron" unicode="&#x100;" horiz-adv-x="1351" 
d="M-84 0l764 1434h348l207 -1434h-365l-34 305h-381l-152 -305h-387zM608 616h197l-33 345zM600 1602l49 249h568l-48 -249h-569z" />
    <glyph glyph-name="amacron" unicode="&#x101;" horiz-adv-x="1263" 
d="M68 434q-1 90 22.5 178.5t72 168t116 140t160.5 95.5t198 33q159 0 242 -99l16 82h340l-201 -1032h-340l19 88q-88 -104 -250 -104q-184 0 -289.5 122.5t-105.5 327.5zM821 565q0 100 -43 148.5t-119 48.5q-115 0 -183 -83.5t-68 -213.5q0 -90 50 -142.5t130 -52.5
q103 0 168 86q65 89 65 209zM436 1200l49 250h568l-47 -250h-570z" />
    <glyph glyph-name="Abreve" unicode="&#x102;" horiz-adv-x="1351" 
d="M-84 0l764 1434h348l207 -1434h-365l-34 305h-381l-152 -305h-387zM608 616h197l-33 345zM647 1792q0 15 4 43h211l-2 -12q0 -45 47 -45q25 0 43 16t23 41h211q-24 -115 -100.5 -180.5t-198.5 -65.5q-109 0 -173.5 57t-64.5 146z" />
    <glyph glyph-name="abreve" unicode="&#x103;" horiz-adv-x="1263" 
d="M68 434q-1 90 22.5 178.5t72 168t116 140t160.5 95.5t198 33q159 0 242 -99l16 82h340l-201 -1032h-340l19 88q-88 -104 -250 -104q-184 0 -289.5 122.5t-105.5 327.5zM821 565q0 100 -43 148.5t-119 48.5q-115 0 -183 -83.5t-68 -213.5q0 -90 50 -142.5t130 -52.5
q103 0 168 86q65 89 65 209zM500 1391q0 15 4 43h211l-2 -13q0 -45 47 -45q24 0 42 16.5t23 41.5h211q-24 -115 -100.5 -180.5t-198.5 -65.5q-108 0 -172.5 57t-64.5 146z" />
    <glyph glyph-name="Aogonek" unicode="&#x104;" horiz-adv-x="1351" 
d="M-84 0l764 1434h348l207 -1434h-365l-34 305h-381l-152 -305h-387zM608 616h197l-33 345zM874 -227q0 77 43.5 135.5t122.5 91.5h195l-47 -35q-88 -67 -88 -110q0 -37 37 -37q23 0 49 16l35 -201q-59 -26 -152 -26q-94 0 -144.5 45.5t-50.5 120.5z" />
    <glyph glyph-name="aogonek" unicode="&#x105;" horiz-adv-x="1263" 
d="M899 -145q0 -37 37 -37q23 0 49 16l35 -201q-59 -26 -152 -26q-94 0 -144 45.5t-50 120.5q0 77 43.5 135.5t122.5 91.5h-146l19 88q-88 -104 -250 -104q-184 0 -289.5 122.5t-105.5 327.5q-1 90 22.5 178.5t72 168t116 140t160.5 95.5t198 33q159 0 242 -99l16 82h340
l-201 -1032l-47 -35q-88 -67 -88 -110zM821 565q0 100 -43 148.5t-119 48.5q-115 0 -183 -83.5t-68 -213.5q0 -90 50 -142.5t130 -52.5q103 0 168 86q65 89 65 209z" />
    <glyph glyph-name="Cacute" unicode="&#x106;" horiz-adv-x="1466" 
d="M96 584q-3 170 56.5 329t165.5 278.5t261.5 190.5t333.5 68q247 0 398 -124t178 -333l-332 -84q-20 102 -89.5 166t-180.5 64q-92 2 -173 -43t-135 -119t-85 -167.5t-29 -188.5q0 -158 77 -242t214 -84q94 0 171.5 62.5t121.5 172.5l323 -108q-116 -251 -274 -342
q-162 -96 -408 -96q-256 0 -425 168t-169 432zM840 1524l190 327h430l-375 -327h-245z" />
    <glyph glyph-name="cacute" unicode="&#x107;" horiz-adv-x="1171" 
d="M66 424q-3 168 77 311.5t229.5 230t334.5 83.5q179 0 286 -75.5t158 -228.5l-315 -120q-22 137 -166 137q-122 0 -193 -91t-71 -210q0 -89 44.5 -140t127.5 -51q130 0 213 138l274 -123q-100 -156 -227.5 -228.5t-305.5 -72.5q-142 0 -249.5 60.5t-162 159.5t-54.5 220z
M598 1147l190 328h431l-375 -328h-246z" />
    <glyph glyph-name="Ccircumflex" unicode="&#x108;" horiz-adv-x="1466" 
d="M96 584q-3 170 56.5 329t165.5 278.5t261.5 190.5t333.5 68q247 0 398 -124t178 -333l-332 -84q-20 102 -89.5 166t-180.5 64q-92 2 -173 -43t-135 -119t-85 -167.5t-29 -188.5q0 -158 77 -242t214 -84q94 0 171.5 62.5t121.5 172.5l323 -108q-116 -251 -274 -342
q-162 -96 -408 -96q-256 0 -425 168t-169 432zM545 1524l434 393h90l285 -393h-281l-86 114l-125 -114h-317z" />
    <glyph glyph-name="ccircumflex" unicode="&#x109;" horiz-adv-x="1171" 
d="M66 424q-3 168 77 311.5t229.5 230t334.5 83.5q179 0 286 -75.5t158 -228.5l-315 -120q-22 137 -166 137q-122 0 -193 -91t-71 -210q0 -89 44.5 -140t127.5 -51q130 0 213 138l274 -123q-100 -156 -227.5 -228.5t-305.5 -72.5q-142 0 -249.5 60.5t-162 159.5t-54.5 220z
M299 1147l434 393h90l285 -393h-281l-86 115l-125 -115h-317z" />
    <glyph glyph-name="Cdotaccent" unicode="&#x10a;" horiz-adv-x="1466" 
d="M96 584q-3 170 56.5 329t165.5 278.5t261.5 190.5t333.5 68q247 0 398 -124t178 -333l-332 -84q-20 102 -89.5 166t-180.5 64q-92 2 -173 -43t-135 -119t-85 -167.5t-29 -188.5q0 -158 77 -242t214 -84q94 0 171.5 62.5t121.5 172.5l323 -108q-116 -251 -274 -342
q-162 -96 -408 -96q-256 0 -425 168t-169 432zM815 1755q0 85 57.5 143t143.5 58t143.5 -58t57.5 -143t-57.5 -143t-143.5 -58t-143.5 58t-57.5 143z" />
    <glyph glyph-name="cdotaccent" unicode="&#x10b;" horiz-adv-x="1171" 
d="M66 424q-3 168 77 311.5t229.5 230t334.5 83.5q179 0 286 -75.5t158 -228.5l-315 -120q-22 137 -166 137q-122 0 -193 -91t-71 -210q0 -89 44.5 -140t127.5 -51q130 0 213 138l274 -123q-100 -156 -227.5 -228.5t-305.5 -72.5q-142 0 -249.5 60.5t-162 159.5t-54.5 220z
M563 1354q0 85 57.5 142.5t143.5 57.5t143.5 -57.5t57.5 -142.5t-57.5 -143t-143.5 -58t-143.5 58t-57.5 143z" />
    <glyph glyph-name="Ccaron" unicode="&#x10c;" horiz-adv-x="1466" 
d="M96 584q-3 170 56.5 329t165.5 278.5t261.5 190.5t333.5 68q247 0 398 -124t178 -333l-332 -84q-20 102 -89.5 166t-180.5 64q-92 2 -173 -43t-135 -119t-85 -167.5t-29 -188.5q0 -158 77 -242t214 -84q94 0 171.5 62.5t121.5 172.5l323 -108q-116 -251 -274 -342
q-162 -96 -408 -96q-256 0 -425 168t-169 432zM928 1524l-285 393h281l86 -115l125 115h317l-434 -393h-90z" />
    <glyph glyph-name="ccaron" unicode="&#x10d;" horiz-adv-x="1171" 
d="M66 424q-3 168 77 311.5t229.5 230t334.5 83.5q179 0 286 -75.5t158 -228.5l-315 -120q-22 137 -166 137q-122 0 -193 -91t-71 -210q0 -89 44.5 -140t127.5 -51q130 0 213 138l274 -123q-100 -156 -227.5 -228.5t-305.5 -72.5q-142 0 -249.5 60.5t-162 159.5t-54.5 220z
M680 1147l-285 393h281l86 -115l125 115h317l-434 -393h-90z" />
    <glyph glyph-name="Dcaron" unicode="&#x10e;" horiz-adv-x="1419" 
d="M43 0l281 1434h436q182 0 327.5 -74.5t228.5 -209t83 -302.5q0 -256 -108 -448.5t-305 -296t-456 -103.5h-487zM465 311h82q223 0 352 141t129 361q0 159 -86.5 234t-236.5 75h-82zM721 1524l-285 393h281l86 -115l125 115h317l-434 -393h-90z" />
    <glyph glyph-name="dcaron" unicode="&#x10f;" horiz-adv-x="1615" 
d="M66 414q-1 120 37 234t107.5 204.5t179 144.5t241.5 52q83 0 137 -24.5t98 -74.5l97 500h340l-283 -1450h-340l18 88q-47 -56 -105 -80t-144 -24q-167 0 -275 122.5t-108 307.5zM807 578q0 184 -154 184q-109 0 -178 -94.5t-69 -208.5q0 -189 176 -189q94 0 159.5 90
t65.5 218zM1364 1110l137 403h309l-258 -403h-188z" />
    <glyph glyph-name="Dcroat" unicode="&#x110;" horiz-adv-x="1419" 
d="M1399 848q0 -256 -108 -448.5t-305 -296t-456 -103.5h-487l115 582h-135l53 270h133l115 582h436q182 0 327.5 -74.5t228.5 -209t83 -302.5zM1028 813q0 159 -86.5 234t-236.5 75h-82l-54 -270h224l-54 -270h-221l-53 -271h82q223 0 352 141t129 361z" />
    <glyph glyph-name="dslash" unicode="&#x111;" horiz-adv-x="1249" 
d="M1393 1356l-45 -230h-109l-219 -1126h-340l18 88q-47 -56 -105 -80t-144 -24q-167 0 -275 122.5t-108 307.5q-1 120 37 234t107.5 204.5t179 144.5t241.5 52q83 0 137 -24.5t98 -74.5l35 176h-223l45 230h221l19 94h340l-19 -94h109zM807 578q0 184 -154 184
q-109 0 -178 -94.5t-69 -208.5q0 -189 176 -189q94 0 159.5 90t65.5 218z" />
    <glyph glyph-name="Emacron" unicode="&#x112;" horiz-adv-x="1236" 
d="M43 0l281 1434h976l-61 -312h-608l-39 -202h477l-61 -312h-478l-57 -297h629l-62 -311h-997zM563 1602l49 249h568l-47 -249h-570z" />
    <glyph glyph-name="emacron" unicode="&#x113;" horiz-adv-x="1183" 
d="M70 442q-2 112 41 221t121 196t198.5 139.5t261.5 50.5q224 0 328 -119t104 -289q0 -71 -32 -227h-703q17 -77 64 -117.5t116 -40.5q72 0 125 28t107 95l246 -125q-93 -140 -212 -205t-288 -65q-216 0 -346.5 132t-130.5 326zM424 647h393q4 20 4 31q0 56 -42 91.5
t-115 35.5q-77 0 -139.5 -43t-100.5 -115zM442 1200l50 250h567l-47 -250h-570z" />
    <glyph glyph-name="Ebreve" unicode="&#x114;" horiz-adv-x="1236" 
d="M43 0l281 1434h976l-61 -312h-608l-39 -202h477l-61 -312h-478l-57 -297h629l-62 -311h-997zM610 1792q0 15 4 43h211l-2 -12q0 -45 47 -45q25 0 43 16t23 41h211q-24 -115 -100.5 -180.5t-198.5 -65.5q-109 0 -173.5 57t-64.5 146z" />
    <glyph glyph-name="ebreve" unicode="&#x115;" horiz-adv-x="1183" 
d="M70 442q-2 112 41 221t121 196t198.5 139.5t261.5 50.5q224 0 328 -119t104 -289q0 -71 -32 -227h-703q17 -77 64 -117.5t116 -40.5q72 0 125 28t107 95l246 -125q-93 -140 -212 -205t-288 -65q-216 0 -346.5 132t-130.5 326zM424 647h393q4 20 4 31q0 56 -42 91.5
t-115 35.5q-77 0 -139.5 -43t-100.5 -115zM506 1391q0 15 4 43h211l-2 -13q0 -45 47 -45q24 0 42 16.5t23 41.5h211q-24 -115 -100.5 -180.5t-198.5 -65.5q-108 0 -172.5 57t-64.5 146z" />
    <glyph glyph-name="Edotaccent" unicode="&#x116;" horiz-adv-x="1236" 
d="M43 0l281 1434h976l-61 -312h-608l-39 -202h477l-61 -312h-478l-57 -297h629l-62 -311h-997zM674 1755q0 85 57 143t143 58t143.5 -58t57.5 -143t-57.5 -143t-143.5 -58t-143 58t-57 143z" />
    <glyph glyph-name="edotaccent" unicode="&#x117;" horiz-adv-x="1183" 
d="M70 442q-2 112 41 221t121 196t198.5 139.5t261.5 50.5q224 0 328 -119t104 -289q0 -71 -32 -227h-703q17 -77 64 -117.5t116 -40.5q72 0 125 28t107 95l246 -125q-93 -140 -212 -205t-288 -65q-216 0 -346.5 132t-130.5 326zM424 647h393q4 20 4 31q0 56 -42 91.5
t-115 35.5q-77 0 -139.5 -43t-100.5 -115zM555 1354q0 85 57.5 142.5t143.5 57.5t143 -57.5t57 -142.5t-57 -143t-143 -58t-143.5 58t-57.5 143z" />
    <glyph glyph-name="Eogonek" unicode="&#x118;" horiz-adv-x="1236" 
d="M43 0l281 1434h976l-61 -312h-608l-39 -202h477l-61 -312h-478l-57 -297h629l-62 -311h-997zM680 -227q0 77 43.5 135.5t122.5 91.5h194l-47 -35q-88 -67 -88 -110q0 -37 37 -37q23 0 49 16l35 -201q-59 -26 -152 -26q-94 0 -144 45.5t-50 120.5z" />
    <glyph glyph-name="eogonek" unicode="&#x119;" horiz-adv-x="1183" 
d="M1092 414h-703q17 -77 64 -117.5t116 -40.5q72 0 125 28t107 95l246 -125q-136 -205 -345 -254q-77 -55 -106 -84t-29 -61q0 -37 37 -37q23 0 49 16l35 -201q-59 -26 -151 -26q-94 0 -144.5 45.5t-50.5 120.5q0 141 139 215q-188 21 -299.5 149.5t-111.5 304.5
q-2 112 41 221t121 196t198.5 139.5t261.5 50.5q224 0 328 -119t104 -289q0 -71 -32 -227zM821 678q0 56 -42 91.5t-115 35.5q-77 0 -139.5 -43t-100.5 -115h393q4 20 4 31z" />
    <glyph glyph-name="Ecaron" unicode="&#x11a;" horiz-adv-x="1236" 
d="M43 0l281 1434h976l-61 -312h-608l-39 -202h477l-61 -312h-478l-57 -297h629l-62 -311h-997zM786 1524l-284 393h280l86 -115l125 115h318l-434 -393h-91z" />
    <glyph glyph-name="ecaron" unicode="&#x11b;" horiz-adv-x="1183" 
d="M70 442q-2 112 41 221t121 196t198.5 139.5t261.5 50.5q224 0 328 -119t104 -289q0 -71 -32 -227h-703q17 -77 64 -117.5t116 -40.5q72 0 125 28t107 95l246 -125q-93 -140 -212 -205t-288 -65q-216 0 -346.5 132t-130.5 326zM424 647h393q4 20 4 31q0 56 -42 91.5
t-115 35.5q-77 0 -139.5 -43t-100.5 -115zM672 1147l-285 393h281l86 -115l125 115h317l-434 -393h-90z" />
    <glyph glyph-name="Gcircumflex" unicode="&#x11c;" horiz-adv-x="1507" 
d="M98 584q-2 135 34 263t108 238t172 192.5t235 128.5t287 44q235 0 375.5 -121t177.5 -344l-338 -84q-25 112 -94.5 175t-173.5 63q-98 2 -182.5 -42.5t-139 -117.5t-85 -163.5t-28.5 -182.5q0 -160 79.5 -249t215.5 -89q193 0 291 182h-235l51 266h577l-145 -743h-279
v111q-127 -127 -358 -127q-110 0 -208.5 41.5t-173.5 117t-119 190t-44 251.5zM487 1524l435 393h90l284 -393h-280l-86 114l-125 -114h-318z" />
    <glyph glyph-name="gcircumflex" unicode="&#x11d;" horiz-adv-x="1052" 
d="M-78 -131q0 147 131 252q-28 54 -28 115q0 164 188 266q-51 68 -51 157q0 160 124 275t312 115q115 0 199 -41l229 114l90 -188l-172 -80q21 -53 21 -119q0 -187 -116 -283t-317 -96q-85 0 -155 25q-37 -18 -51.5 -36t-14.5 -44q0 -25 21 -40t57 -15h193
q146 0 234.5 -71.5t88.5 -201.5q0 -200 -136.5 -303.5t-397.5 -103.5q-195 0 -322 84.5t-127 218.5zM666 719q0 39 -24.5 63.5t-66.5 24.5q-51 0 -84.5 -36.5t-33.5 -90.5q0 -36 26 -59t64 -23q54 0 86.5 33.5t32.5 87.5zM596 -80q0 40 -30 56t-93 16h-143q-41 0 -99 10
q-22 -28 -22 -70q0 -59 53 -89.5t148 -30.5q84 0 135 27.5t51 80.5zM195 1147l434 393h90l285 -393h-281l-86 115l-125 -115h-317z" />
    <glyph glyph-name="Gbreve" unicode="&#x11e;" horiz-adv-x="1507" 
d="M98 584q-2 135 34 263t108 238t172 192.5t235 128.5t287 44q235 0 375.5 -121t177.5 -344l-338 -84q-25 112 -94.5 175t-173.5 63q-98 2 -182.5 -42.5t-139 -117.5t-85 -163.5t-28.5 -182.5q0 -160 79.5 -249t215.5 -89q193 0 291 182h-235l51 266h577l-145 -743h-279
v111q-127 -127 -358 -127q-110 0 -208.5 41.5t-173.5 117t-119 190t-44 251.5zM694 1792q0 15 4 43h211l-2 -12q0 -45 47 -45q25 0 43 16t23 41h211q-24 -115 -100.5 -180.5t-198.5 -65.5q-109 0 -173.5 57t-64.5 146z" />
    <glyph glyph-name="gbreve" unicode="&#x11f;" horiz-adv-x="1052" 
d="M-78 -131q0 147 131 252q-28 54 -28 115q0 164 188 266q-51 68 -51 157q0 160 124 275t312 115q115 0 199 -41l229 114l90 -188l-172 -80q21 -53 21 -119q0 -187 -116 -283t-317 -96q-85 0 -155 25q-37 -18 -51.5 -36t-14.5 -44q0 -25 21 -40t57 -15h193
q146 0 234.5 -71.5t88.5 -201.5q0 -200 -136.5 -303.5t-397.5 -103.5q-195 0 -322 84.5t-127 218.5zM666 719q0 39 -24.5 63.5t-66.5 24.5q-51 0 -84.5 -36.5t-33.5 -90.5q0 -36 26 -59t64 -23q54 0 86.5 33.5t32.5 87.5zM596 -80q0 40 -30 56t-93 16h-143q-41 0 -99 10
q-22 -28 -22 -70q0 -59 53 -89.5t148 -30.5q84 0 135 27.5t51 80.5zM410 1391q0 15 4 43h211l-2 -13q0 -45 47 -45q24 0 42 16.5t23 41.5h211q-24 -115 -100.5 -180.5t-198.5 -65.5q-108 0 -172.5 57t-64.5 146z" />
    <glyph glyph-name="Gdotaccent" unicode="&#x120;" horiz-adv-x="1507" 
d="M98 584q-2 135 34 263t108 238t172 192.5t235 128.5t287 44q235 0 375.5 -121t177.5 -344l-338 -84q-25 112 -94.5 175t-173.5 63q-98 2 -182.5 -42.5t-139 -117.5t-85 -163.5t-28.5 -182.5q0 -160 79.5 -249t215.5 -89q193 0 291 182h-235l51 266h577l-145 -743h-279
v111q-127 -127 -358 -127q-110 0 -208.5 41.5t-173.5 117t-119 190t-44 251.5zM758 1755q0 85 57 143t143 58t143.5 -58t57.5 -143t-57.5 -143t-143.5 -58t-143 58t-57 143z" />
    <glyph glyph-name="gdotaccent" unicode="&#x121;" horiz-adv-x="1052" 
d="M-78 -131q0 147 131 252q-28 54 -28 115q0 164 188 266q-51 68 -51 157q0 160 124 275t312 115q115 0 199 -41l229 114l90 -188l-172 -80q21 -53 21 -119q0 -187 -116 -283t-317 -96q-85 0 -155 25q-37 -18 -51.5 -36t-14.5 -44q0 -25 21 -40t57 -15h193
q146 0 234.5 -71.5t88.5 -201.5q0 -200 -136.5 -303.5t-397.5 -103.5q-195 0 -322 84.5t-127 218.5zM666 719q0 39 -24.5 63.5t-66.5 24.5q-51 0 -84.5 -36.5t-33.5 -90.5q0 -36 26 -59t64 -23q54 0 86.5 33.5t32.5 87.5zM596 -80q0 40 -30 56t-93 16h-143q-41 0 -99 10
q-22 -28 -22 -70q0 -59 53 -89.5t148 -30.5q84 0 135 27.5t51 80.5zM459 1354q0 85 57 142.5t143 57.5t143.5 -57.5t57.5 -142.5t-57.5 -143t-143.5 -58t-143 58t-57 143z" />
    <glyph glyph-name="uni0122" unicode="&#x122;" horiz-adv-x="1507" 
d="M98 584q-2 135 34 263t108 238t172 192.5t235 128.5t287 44q235 0 375.5 -121t177.5 -344l-338 -84q-25 112 -94.5 175t-173.5 63q-98 2 -182.5 -42.5t-139 -117.5t-85 -163.5t-28.5 -182.5q0 -160 79.5 -249t215.5 -89q193 0 291 182h-235l51 266h577l-145 -743h-279
v111q-127 -127 -358 -127q-110 0 -208.5 41.5t-173.5 117t-119 190t-44 251.5zM262 -520l193 414h372l-381 -414h-184z" />
    <glyph glyph-name="uni0123" unicode="&#x123;" horiz-adv-x="1052" 
d="M-78 -131q0 147 131 252q-28 54 -28 115q0 164 188 266q-51 68 -51 157q0 160 124 275t312 115q115 0 199 -41l229 114l90 -188l-172 -80q21 -53 21 -119q0 -187 -116 -283t-317 -96q-85 0 -155 25q-37 -18 -51.5 -36t-14.5 -44q0 -25 21 -40t57 -15h193
q146 0 234.5 -71.5t88.5 -201.5q0 -200 -136.5 -303.5t-397.5 -103.5q-195 0 -322 84.5t-127 218.5zM666 719q0 39 -24.5 63.5t-66.5 24.5q-51 0 -84.5 -36.5t-33.5 -90.5q0 -36 26 -59t64 -23q54 0 86.5 33.5t32.5 87.5zM596 -80q0 40 -30 56t-93 16h-143q-41 0 -99 10
q-22 -28 -22 -70q0 -59 53 -89.5t148 -30.5q84 0 135 27.5t51 80.5zM457 1200l297 373h215l-164 -373h-348z" />
    <glyph glyph-name="Hcircumflex" unicode="&#x124;" horiz-adv-x="1497" 
d="M43 0l281 1434h368l-98 -500h471l98 500h369l-281 -1434h-368l116 598h-471l-116 -598h-369zM518 1524l434 393h90l285 -393h-280l-86 114l-125 -114h-318z" />
    <glyph glyph-name="hcircumflex" unicode="&#x125;" horiz-adv-x="1253" 
d="M31 0l280 1450h340l-106 -537q52 62 138.5 99t186.5 37q140 0 217.5 -74t77.5 -203q0 -41 -8 -82l-133 -690h-340l113 586q6 34 6 51q0 54 -28.5 83.5t-82.5 29.5q-87 0 -147 -76t-86 -221l-88 -453h-340zM332 1548l434 394h90l285 -394h-281l-86 115l-125 -115h-317z
" />
    <glyph glyph-name="Hbar" unicode="&#x126;" horiz-adv-x="1497" 
d="M1618 1315l-49 -262h-111l-207 -1053h-368l116 598h-471l-116 -598h-369l207 1053h-111l49 262h113l23 119h368l-22 -119h471l22 119h369l-23 -119h109zM1065 934l22 119h-471l-22 -119h471z" />
    <glyph glyph-name="hbar" unicode="&#x127;" horiz-adv-x="1253" 
d="M1165 772q0 -41 -8 -82l-133 -690h-340l113 586q6 34 6 51q0 54 -28.5 83.5t-82.5 29.5q-87 0 -147 -76t-86 -221l-88 -453h-340l217 1126h-105l45 230h105l18 94h340l-18 -94h225l-45 -230h-225l-43 -213q52 62 138.5 99t186.5 37q140 0 217.5 -74t77.5 -203z" />
    <glyph glyph-name="Itilde" unicode="&#x128;" horiz-adv-x="657" 
d="M43 0l281 1434h368l-280 -1434h-369zM285 1546l-150 133q57 90 137.5 142.5t171.5 52.5q45 0 77.5 -9.5t82.5 -33.5q56 -33 103 -33q36 0 65.5 19.5t65.5 64.5l149 -133q-120 -195 -291 -195q-76 0 -168 45q-58 31 -104 31q-73 0 -139 -84z" />
    <glyph glyph-name="itilde" unicode="&#x129;" horiz-adv-x="600" 
d="M31 0l198 1032h340l-198 -1032h-340zM178 1145l-149 133q57 90 137.5 142.5t171.5 52.5q45 0 77.5 -9.5t82.5 -33.5q56 -33 102 -33q36 0 65.5 19.5t65.5 64.5l150 -133q-120 -195 -291 -195q-76 0 -168 45q-58 31 -105 31q-73 0 -139 -84z" />
    <glyph glyph-name="Imacron" unicode="&#x12a;" horiz-adv-x="657" 
d="M43 0l281 1434h368l-280 -1434h-369zM258 1602l49 249h567l-47 -249h-569z" />
    <glyph glyph-name="imacron" unicode="&#x12b;" horiz-adv-x="600" 
d="M31 0l198 1032h340l-198 -1032h-340zM147 1200l50 250h567l-47 -250h-570z" />
    <glyph glyph-name="Ibreve" unicode="&#x12c;" horiz-adv-x="657" 
d="M43 0l281 1434h368l-280 -1434h-369zM305 1792q0 15 4 43h211l-2 -12q0 -45 47 -45q25 0 43 16t23 41h211q-24 -115 -100.5 -180.5t-198.5 -65.5q-109 0 -173.5 57t-64.5 146z" />
    <glyph glyph-name="ibreve" unicode="&#x12d;" horiz-adv-x="600" 
d="M31 0l198 1032h340l-198 -1032h-340zM211 1391q0 15 4 43h211l-2 -13q0 -45 47 -45q24 0 42.5 16.5t23.5 41.5h211q-24 -115 -100.5 -180.5t-198.5 -65.5q-109 0 -173.5 57t-64.5 146z" />
    <glyph glyph-name="Iogonek" unicode="&#x12e;" horiz-adv-x="657" 
d="M43 0l281 1434h368l-280 -1434h-369zM53 -227q0 77 43.5 135.5t122.5 91.5h195l-47 -35q-88 -67 -88 -110q0 -37 36 -37q24 0 50 16l34 -201q-59 -26 -151 -26q-94 0 -144.5 45.5t-50.5 120.5z" />
    <glyph glyph-name="iogonek" unicode="&#x12f;" horiz-adv-x="600" 
d="M31 0l198 1032h340l-198 -1032h-340zM260 1354q0 85 57.5 142.5t143.5 57.5t143.5 -57.5t57.5 -142.5t-57.5 -143t-143.5 -58t-143.5 58t-57.5 143zM10 -227q0 77 43.5 135.5t122.5 91.5h195l-47 -35q-88 -67 -88 -110q0 -37 36 -37q24 0 50 16l34 -201q-59 -26 -151 -26
q-94 0 -144.5 45.5t-50.5 120.5z" />
    <glyph glyph-name="Idot" unicode="&#x130;" horiz-adv-x="657" 
d="M43 0l281 1434h368l-280 -1434h-369zM369 1755q0 85 57 143t143 58t143.5 -58t57.5 -143t-57.5 -143t-143.5 -58t-143 58t-57 143z" />
    <glyph glyph-name="dotlessi" unicode="&#x131;" horiz-adv-x="600" 
d="M31 0l198 1032h340l-198 -1032h-340z" />
    <glyph glyph-name="IJ" unicode="&#x132;" horiz-adv-x="1814" 
d="M43 0l281 1434h368l-280 -1434h-369zM698 406l338 63q0 -174 138 -174q75 0 116.5 53.5t65.5 167.5l178 918h348l-180 -930q-54 -277 -182 -398.5t-367 -121.5q-216 0 -335.5 120.5t-119.5 301.5z" />
    <glyph glyph-name="ij" unicode="&#x133;" horiz-adv-x="1200" 
d="M31 0l198 1032h340l-198 -1032h-340zM260 1354q0 85 57.5 142.5t143.5 57.5t143.5 -57.5t57.5 -142.5t-57.5 -143t-143.5 -58t-143.5 58t-57.5 143zM414 -434l-29 278q118 24 180 78t84 166l182 944h340l-178 -921q-99 -508 -579 -545zM864 1354q0 85 57.5 142.5
t143.5 57.5t143.5 -57.5t57.5 -142.5t-57.5 -143t-143.5 -58t-143.5 58t-57.5 143z" />
    <glyph glyph-name="Jcircumflex" unicode="&#x134;" horiz-adv-x="1157" 
d="M41 406l338 63q0 -174 137 -174q75 0 116.5 53.5t65.5 167.5l179 918h348l-181 -930q-54 -277 -181.5 -398.5t-366.5 -121.5q-216 0 -335.5 120.5t-119.5 301.5zM641 1524l434 393h90l285 -393h-281l-86 114l-125 -114h-317z" />
    <glyph glyph-name="jcircumflex" unicode="&#x135;" horiz-adv-x="600" 
d="M-186 -434l-29 278q118 24 180 78t84 166l182 944h340l-178 -921q-99 -508 -579 -545zM0 1147l434 393h90l285 -393h-281l-86 115l-125 -115h-317z" />
    <glyph glyph-name="uni0136" unicode="&#x136;" horiz-adv-x="1449" 
d="M43 0l281 1434h368l-94 -482l481 482h467l-686 -652l465 -782h-442l-351 621l-120 -621h-369zM240 -520l192 414h373l-381 -414h-184z" />
    <glyph glyph-name="uni0137" unicode="&#x137;" horiz-adv-x="1155" 
d="M31 0l280 1450h340l-135 -709l281 291h417l-491 -481l328 -551h-385l-222 389l-73 -389h-340zM123 -520l192 414h373l-381 -414h-184z" />
    <glyph glyph-name="kgreenlandic" unicode="&#x138;" horiz-adv-x="1153" 
d="M29 0l200 1032h340l-55 -291l281 291h417l-491 -481l328 -551h-385l-222 389l-73 -389h-340z" />
    <glyph glyph-name="Lacute" unicode="&#x139;" horiz-adv-x="1159" 
d="M43 0l281 1434h368l-219 -1123h588l-62 -311h-956zM393 1524l191 327h430l-375 -327h-246z" />
    <glyph glyph-name="lacute" unicode="&#x13a;" horiz-adv-x="600" 
d="M31 0l280 1450h340l-280 -1450h-340zM375 1548l190 328h430l-374 -328h-246z" />
    <glyph glyph-name="uni013B" unicode="&#x13b;" horiz-adv-x="1159" 
d="M43 0l281 1434h368l-219 -1123h588l-62 -311h-956zM145 -520l193 414h373l-381 -414h-185z" />
    <glyph glyph-name="uni013C" unicode="&#x13c;" horiz-adv-x="600" 
d="M31 0l280 1450h340l-280 -1450h-340zM-199 -520l193 414h373l-381 -414h-185z" />
    <glyph glyph-name="Lcaron" unicode="&#x13d;" horiz-adv-x="1159" 
d="M43 0l281 1434h368l-219 -1123h588l-62 -311h-956zM893 1110l137 403h309l-258 -403h-188z" />
    <glyph glyph-name="lcaron" unicode="&#x13e;" horiz-adv-x="956" 
d="M31 0l280 1450h340l-280 -1450h-340zM705 1110l137 403h309l-258 -403h-188z" />
    <glyph glyph-name="Ldot" unicode="&#x13f;" horiz-adv-x="1159" 
d="M43 0l281 1434h368l-219 -1123h588l-62 -311h-956zM750 770q0 82 54 136.5t136 54.5t136 -54.5t54 -136.5t-54 -136t-136 -54t-136 54t-54 136z" />
    <glyph glyph-name="ldot" unicode="&#x140;" horiz-adv-x="1064" 
d="M31 0l280 1450h340l-280 -1450h-340zM651 770q0 82 54.5 136.5t136.5 54.5t136 -54.5t54 -136.5t-54 -136t-136 -54t-136.5 54t-54.5 136z" />
    <glyph glyph-name="Lslash" unicode="&#x141;" horiz-adv-x="1159" 
d="M473 311h588l-62 -311h-956l72 371l-115 -58l-115 224l291 145l148 752h368l-106 -547l149 76l115 -224l-326 -164z" />
    <glyph glyph-name="lslash" unicode="&#x142;" horiz-adv-x="600" 
d="M803 809l-305 -154l-127 -655h-340l90 465l-137 -70l-99 226l295 149l131 680h340l-94 -492l148 76z" />
    <glyph glyph-name="Nacute" unicode="&#x143;" horiz-adv-x="1447" 
d="M43 0l281 1434h354l305 -856l168 856h332l-281 -1434h-354l-305 856l-168 -856h-332zM791 1524l190 327h430l-375 -327h-245z" />
    <glyph glyph-name="nacute" unicode="&#x144;" horiz-adv-x="1234" 
d="M29 0l200 1032h340l-24 -119q109 136 301 136q139 0 218 -80t79 -217q0 -52 -8 -88l-129 -664h-340l118 610q4 28 4 37q0 103 -100 103q-81 0 -143 -78.5t-88 -218.5l-88 -453h-340zM616 1147l191 328h430l-375 -328h-246z" />
    <glyph glyph-name="uni0145" unicode="&#x145;" horiz-adv-x="1447" 
d="M43 0l281 1434h354l305 -856l168 856h332l-281 -1434h-354l-305 856l-168 -856h-332zM225 -520l193 414h373l-381 -414h-185z" />
    <glyph glyph-name="uni0146" unicode="&#x146;" horiz-adv-x="1234" 
d="M29 0l200 1032h340l-24 -119q109 136 301 136q139 0 218 -80t79 -217q0 -52 -8 -88l-129 -664h-340l118 610q4 28 4 37q0 103 -100 103q-81 0 -143 -78.5t-88 -218.5l-88 -453h-340zM117 -520l192 414h373l-381 -414h-184z" />
    <glyph glyph-name="Ncaron" unicode="&#x147;" horiz-adv-x="1447" 
d="M43 0l281 1434h354l305 -856l168 856h332l-281 -1434h-354l-305 856l-168 -856h-332zM879 1524l-285 393h280l87 -115l124 115h318l-434 -393h-90z" />
    <glyph glyph-name="ncaron" unicode="&#x148;" horiz-adv-x="1234" 
d="M29 0l200 1032h340l-24 -119q109 136 301 136q139 0 218 -80t79 -217q0 -52 -8 -88l-129 -664h-340l118 610q4 28 4 37q0 103 -100 103q-81 0 -143 -78.5t-88 -218.5l-88 -453h-340zM698 1147l-284 393h280l86 -115l125 115h318l-435 -393h-90z" />
    <glyph glyph-name="Eng" unicode="&#x14a;" horiz-adv-x="1447" 
d="M1483 1434l-281 -1434q-49 -249 -178.5 -341.5t-417.5 -92.5l56 287q152 0 190 147l-309 856l-168 -856h-332l281 1434h354l305 -856l168 856h332z" />
    <glyph glyph-name="eng" unicode="&#x14b;" horiz-adv-x="1234" 
d="M444 -434l-28 278q119 25 181.5 78.5t84.5 165.5l102 522q4 28 4 37q0 103 -100 103q-81 0 -143 -78.5t-88 -218.5l-88 -453h-340l200 1032h340l-24 -119q109 136 301 136q139 0 218 -80t79 -217q0 -52 -8 -88l-109 -553q-102 -508 -582 -545z" />
    <glyph glyph-name="Omacron" unicode="&#x14c;" horiz-adv-x="1568" 
d="M98 586q-2 172 57 330.5t164 277.5t260.5 189t335.5 67q184 0 325 -71.5t222.5 -213.5t81.5 -336q2 -176 -58 -333t-166 -270.5t-259 -178.5t-328 -63q-176 0 -320 73t-229.5 211.5t-85.5 317.5zM1174 815q0 153 -74.5 238.5t-198.5 85.5q-96 2 -179.5 -44t-138.5 -120.5
t-86 -167t-30 -184.5q0 -154 81.5 -241t209.5 -87q89 -2 169 44t133.5 121t84 168.5t29.5 186.5zM711 1602l49 249h567l-47 -249h-569z" />
    <glyph glyph-name="omacron" unicode="&#x14d;" horiz-adv-x="1245" 
d="M70 436q-1 121 41.5 233t120 197t193 135t249.5 48q226 0 364 -126.5t138 -332.5q0 -170 -76.5 -308t-217.5 -218t-321 -80q-216 0 -353.5 127.5t-137.5 324.5zM836 559q0 92 -50.5 147.5t-130.5 55.5q-105 0 -175 -89t-70 -204q0 -95 51 -147t135 -52q105 0 172.5 82
t67.5 207zM440 1200l49 250h568l-47 -250h-570z" />
    <glyph glyph-name="Obreve" unicode="&#x14e;" horiz-adv-x="1568" 
d="M98 586q-2 172 57 330.5t164 277.5t260.5 189t335.5 67q184 0 325 -71.5t222.5 -213.5t81.5 -336q2 -176 -58 -333t-166 -270.5t-259 -178.5t-328 -63q-176 0 -320 73t-229.5 211.5t-85.5 317.5zM1174 815q0 153 -74.5 238.5t-198.5 85.5q-96 2 -179.5 -44t-138.5 -120.5
t-86 -167t-30 -184.5q0 -154 81.5 -241t209.5 -87q89 -2 169 44t133.5 121t84 168.5t29.5 186.5zM758 1792q0 15 4 43h211l-2 -12q0 -45 47 -45q25 0 42.5 16t22.5 41h211q-24 -115 -100.5 -180.5t-198.5 -65.5q-108 0 -172.5 57t-64.5 146z" />
    <glyph glyph-name="obreve" unicode="&#x14f;" horiz-adv-x="1245" 
d="M70 436q-1 121 41.5 233t120 197t193 135t249.5 48q226 0 364 -126.5t138 -332.5q0 -170 -76.5 -308t-217.5 -218t-321 -80q-216 0 -353.5 127.5t-137.5 324.5zM836 559q0 92 -50.5 147.5t-130.5 55.5q-105 0 -175 -89t-70 -204q0 -95 51 -147t135 -52q105 0 172.5 82
t67.5 207zM504 1391q0 15 4 43h211l-2 -13q0 -45 47 -45q24 0 42 16.5t23 41.5h211q-24 -115 -100.5 -180.5t-198.5 -65.5q-108 0 -172.5 57t-64.5 146z" />
    <glyph glyph-name="Ohungarumlaut" unicode="&#x150;" horiz-adv-x="1568" 
d="M98 586q-2 172 57 330.5t164 277.5t260.5 189t335.5 67q184 0 325 -71.5t222.5 -213.5t81.5 -336q2 -176 -58 -333t-166 -270.5t-259 -178.5t-328 -63q-176 0 -320 73t-229.5 211.5t-85.5 317.5zM1174 815q0 153 -74.5 238.5t-198.5 85.5q-96 2 -179.5 -44t-138.5 -120.5
t-86 -167t-30 -184.5q0 -154 81.5 -241t209.5 -87q89 -2 169 44t133.5 121t84 168.5t29.5 186.5zM612 1524l183 327h409l-348 -327h-244zM1069 1524l182 327h410l-348 -327h-244z" />
    <glyph glyph-name="ohungarumlaut" unicode="&#x151;" horiz-adv-x="1245" 
d="M70 436q-1 121 41.5 233t120 197t193 135t249.5 48q226 0 364 -126.5t138 -332.5q0 -170 -76.5 -308t-217.5 -218t-321 -80q-216 0 -353.5 127.5t-137.5 324.5zM836 559q0 92 -50.5 147.5t-130.5 55.5q-105 0 -175 -89t-70 -204q0 -95 51 -147t135 -52q105 0 172.5 82
t67.5 207zM356 1147l183 328h409l-348 -328h-244zM813 1147l182 328h410l-348 -328h-244z" />
    <glyph glyph-name="OE" unicode="&#x152;" horiz-adv-x="2220" 
d="M98 586q-2 172 57 330.5t164 277.5t260.5 189t335.5 67q225 0 369 -123l23 107h977l-62 -312h-608l-39 -202h477l-61 -312h-478l-57 -297h629l-62 -311h-997l14 72q-131 -88 -307 -88t-320 73t-229.5 211.5t-85.5 317.5zM1174 815q0 153 -74.5 238.5t-198.5 85.5
q-96 2 -179.5 -44t-138.5 -120.5t-86 -167t-30 -184.5q0 -154 81.5 -241t209.5 -87q89 -2 169 44t133.5 121t84 168.5t29.5 186.5z" />
    <glyph glyph-name="oe" unicode="&#x153;" horiz-adv-x="1947" 
d="M70 436q-1 121 41.5 233t120 197t193 135t249.5 48q252 0 377 -168q146 168 405 168q224 0 328 -119t104 -289q0 -51 -12 -115l-21 -112h-702q17 -77 64 -117.5t116 -40.5q72 0 125 28t107 95l245 -125q-93 -141 -211.5 -205.5t-287.5 -64.5q-227 0 -348 157
q-151 -157 -402 -157q-216 0 -353.5 127.5t-137.5 324.5zM1188 647h393q4 20 4 31q0 56 -42.5 91.5t-115.5 35.5q-77 0 -139 -43t-100 -115zM836 559q0 92 -50.5 147.5t-130.5 55.5q-105 0 -175 -89t-70 -204q0 -95 51 -147t135 -52q105 0 172.5 82t67.5 207z" />
    <glyph glyph-name="Racute" unicode="&#x154;" horiz-adv-x="1357" 
d="M43 0l281 1434h528q207 0 316.5 -98t109.5 -269q0 -160 -89.5 -273.5t-242.5 -164.5l271 -629h-381l-252 590h-70l-117 -590h-354zM573 893h172q89 0 142 41.5t53 112.5q0 60 -35.5 86t-107.5 26h-172zM653 1524l191 327h430l-375 -327h-246z" />
    <glyph glyph-name="racute" unicode="&#x155;" horiz-adv-x="909" 
d="M29 0l200 1032h340l-22 -112q116 129 309 129q68 0 131 -29l-133 -305q-46 30 -100 30q-114 0 -195.5 -93t-118.5 -285l-71 -367h-340zM481 1147l191 328h430l-375 -328h-246z" />
    <glyph glyph-name="uni0156" unicode="&#x156;" horiz-adv-x="1357" 
d="M43 0l281 1434h528q207 0 316.5 -98t109.5 -269q0 -160 -89.5 -273.5t-242.5 -164.5l271 -629h-381l-252 590h-70l-117 -590h-354zM573 893h172q89 0 142 41.5t53 112.5q0 60 -35.5 86t-107.5 26h-172zM193 -520l192 414h373l-381 -414h-184z" />
    <glyph glyph-name="uni0157" unicode="&#x157;" horiz-adv-x="909" 
d="M29 0l200 1032h340l-22 -112q116 129 309 129q68 0 131 -29l-133 -305q-46 30 -100 30q-114 0 -195.5 -93t-118.5 -285l-71 -367h-340zM-203 -520l193 414h372l-380 -414h-185z" />
    <glyph glyph-name="Rcaron" unicode="&#x158;" horiz-adv-x="1357" 
d="M43 0l281 1434h528q207 0 316.5 -98t109.5 -269q0 -160 -89.5 -273.5t-242.5 -164.5l271 -629h-381l-252 590h-70l-117 -590h-354zM573 893h172q89 0 142 41.5t53 112.5q0 60 -35.5 86t-107.5 26h-172zM741 1524l-284 393h280l86 -115l125 115h318l-435 -393h-90z" />
    <glyph glyph-name="rcaron" unicode="&#x159;" horiz-adv-x="909" 
d="M29 0l200 1032h340l-22 -112q116 129 309 129q68 0 131 -29l-133 -305q-46 30 -100 30q-114 0 -195.5 -93t-118.5 -285l-71 -367h-340zM563 1147l-284 393h280l86 -115l125 115h317l-434 -393h-90z" />
    <glyph glyph-name="Sacute" unicode="&#x15a;" horiz-adv-x="1122" 
d="M20 395l302 168q6 -120 61 -194t149 -74q65 0 106.5 37.5t41.5 101.5q0 69 -42.5 111t-178.5 112q-240 120 -240 365q0 186 139 307t347 121q301 0 411 -268l-291 -166q-52 131 -145 131q-47 0 -77 -27.5t-30 -70.5q0 -59 51 -105.5t167 -103.5q129 -63 195.5 -153
t66.5 -222q0 -145 -71 -255t-194.5 -168t-279.5 -58q-109 0 -198 33.5t-147.5 92t-94 130.5t-48.5 155zM588 1524l190 327h430l-374 -327h-246z" />
    <glyph glyph-name="sacute" unicode="&#x15b;" horiz-adv-x="925" 
d="M-8 285l274 112q12 -71 57 -115t101 -44q50 0 78 20t28 53t-23 51.5t-89 47.5q-29 9 -86 39q-178 99 -178 276q0 139 101 231.5t284 92.5q116 0 207.5 -46.5t136.5 -125.5l-215 -168q-62 90 -144 90q-35 0 -56.5 -17.5t-21.5 -46.5t24 -49t81 -41q140 -51 208 -121.5
t68 -179.5q0 -90 -34.5 -160.5t-92.5 -113t-129 -64.5t-149 -22q-348 0 -430 301zM438 1147l191 328h430l-375 -328h-246z" />
    <glyph glyph-name="Scircumflex" unicode="&#x15c;" horiz-adv-x="1122" 
d="M20 395l302 168q6 -120 61 -194t149 -74q65 0 106.5 37.5t41.5 101.5q0 69 -42.5 111t-178.5 112q-240 120 -240 365q0 186 139 307t347 121q301 0 411 -268l-291 -166q-52 131 -145 131q-47 0 -77 -27.5t-30 -70.5q0 -59 51 -105.5t167 -103.5q129 -63 195.5 -153
t66.5 -222q0 -145 -71 -255t-194.5 -168t-279.5 -58q-109 0 -198 33.5t-147.5 92t-94 130.5t-48.5 155zM293 1524l434 393h90l285 -393h-281l-86 114l-125 -114h-317z" />
    <glyph glyph-name="scircumflex" unicode="&#x15d;" horiz-adv-x="925" 
d="M-8 285l274 112q12 -71 57 -115t101 -44q50 0 78 20t28 53t-23 51.5t-89 47.5q-29 9 -86 39q-178 99 -178 276q0 139 101 231.5t284 92.5q116 0 207.5 -46.5t136.5 -125.5l-215 -168q-62 90 -144 90q-35 0 -56.5 -17.5t-21.5 -46.5t24 -49t81 -41q140 -51 208 -121.5
t68 -179.5q0 -90 -34.5 -160.5t-92.5 -113t-129 -64.5t-149 -22q-348 0 -430 301zM139 1147l434 393h91l284 -393h-280l-86 115l-125 -115h-318z" />
    <glyph glyph-name="Scedilla" unicode="&#x15e;" horiz-adv-x="1122" 
d="M20 395l302 168q6 -120 61 -194t149 -74q65 0 106.5 37.5t41.5 101.5q0 69 -42.5 111t-178.5 112q-240 120 -240 365q0 186 139 307t347 121q301 0 411 -268l-291 -166q-52 131 -145 131q-47 0 -77 -27.5t-30 -70.5q0 -59 51 -105.5t167 -103.5q129 -63 195.5 -153
t66.5 -222q0 -145 -71 -255t-194.5 -168t-279.5 -58q-109 0 -198 33.5t-147.5 92t-94 130.5t-48.5 155zM350 -571l-319 161l356 287h221z" />
    <glyph glyph-name="scedilla" unicode="&#x15f;" horiz-adv-x="925" 
d="M-8 285l274 112q12 -71 57 -115t101 -44q50 0 78 20t28 53t-23 51.5t-89 47.5q-29 9 -86 39q-178 99 -178 276q0 139 101 231.5t284 92.5q116 0 207.5 -46.5t136.5 -125.5l-215 -168q-62 90 -144 90q-35 0 -56.5 -17.5t-21.5 -46.5t24 -49t81 -41q140 -51 208 -121.5
t68 -179.5q0 -90 -34.5 -160.5t-92.5 -113t-129 -64.5t-149 -22q-348 0 -430 301zM233 -571l-319 161l356 287h222z" />
    <glyph glyph-name="Scaron" unicode="&#x160;" horiz-adv-x="1122" 
d="M20 395l302 168q6 -120 61 -194t149 -74q65 0 106.5 37.5t41.5 101.5q0 69 -42.5 111t-178.5 112q-240 120 -240 365q0 186 139 307t347 121q301 0 411 -268l-291 -166q-52 131 -145 131q-47 0 -77 -27.5t-30 -70.5q0 -59 51 -105.5t167 -103.5q129 -63 195.5 -153
t66.5 -222q0 -145 -71 -255t-194.5 -168t-279.5 -58q-109 0 -198 33.5t-147.5 92t-94 130.5t-48.5 155zM676 1524l-285 393h281l86 -115l125 115h317l-434 -393h-90z" />
    <glyph glyph-name="scaron" unicode="&#x161;" horiz-adv-x="925" 
d="M-8 285l274 112q12 -71 57 -115t101 -44q50 0 78 20t28 53t-23 51.5t-89 47.5q-29 9 -86 39q-178 99 -178 276q0 139 101 231.5t284 92.5q116 0 207.5 -46.5t136.5 -125.5l-215 -168q-62 90 -144 90q-35 0 -56.5 -17.5t-21.5 -46.5t24 -49t81 -41q140 -51 208 -121.5
t68 -179.5q0 -90 -34.5 -160.5t-92.5 -113t-129 -64.5t-149 -22q-348 0 -430 301zM520 1147l-284 393h280l86 -115l125 115h317l-434 -393h-90z" />
    <glyph glyph-name="uni0162" unicode="&#x162;" horiz-adv-x="1222" 
d="M326 0l219 1122h-387l61 312h1143l-62 -312h-387l-219 -1122h-368zM336 -571l-320 161l357 287h221z" />
    <glyph glyph-name="uni0163" unicode="&#x163;" horiz-adv-x="823" 
d="M131 311q0 49 8 90l72 373h-145l49 258h145l43 213l371 205l-82 -418h258l-49 -258h-256l-68 -346q-6 -35 -6 -59q0 -42 25.5 -66t72.5 -24q55 0 107 24l20 -270q-92 -49 -225 -49q-154 0 -247 89t-93 238zM272 -571l-319 161l356 287h221z" />
    <glyph glyph-name="Tcaron" unicode="&#x164;" horiz-adv-x="1222" 
d="M326 0l219 1122h-387l61 312h1143l-62 -312h-387l-219 -1122h-368zM766 1524l-285 393h281l86 -115l125 115h317l-434 -393h-90z" />
    <glyph glyph-name="tcaron" unicode="&#x165;" horiz-adv-x="823" 
d="M131 311q0 49 8 90l72 373h-145l49 258h145l43 213l371 205l-82 -418h258l-49 -258h-256l-68 -346q-6 -35 -6 -59q0 -42 25.5 -66t72.5 -24q55 0 107 24l20 -270q-92 -49 -225 -49q-154 0 -247 89t-93 238zM676 1110l137 403h309l-258 -403h-188z" />
    <glyph glyph-name="Tbar" unicode="&#x166;" horiz-adv-x="1222" 
d="M1300 1122h-387l-53 -270h176l-53 -270h-176l-113 -582h-368l112 582h-172l53 270h173l53 270h-387l61 312h1143z" />
    <glyph glyph-name="tbar" unicode="&#x167;" horiz-adv-x="823" 
d="M801 774h-256l-21 -102h213l-45 -230h-213l-2 -14q-6 -35 -6 -59q0 -42 25.5 -66t72.5 -24q55 0 107 24l20 -270q-92 -49 -225 -49q-154 0 -247 89t-93 238q0 49 8 90l8 41h-124l45 230h122l21 102h-145l49 258h145l43 213l371 205l-82 -418h258z" />
    <glyph glyph-name="Utilde" unicode="&#x168;" horiz-adv-x="1351" 
d="M104 424q0 45 13 121l172 889h338l-168 -873q-8 -36 -8 -69q0 -91 51.5 -142t144.5 -51q101 0 171.5 67t94.5 195l168 873h338l-172 -889q-53 -278 -221.5 -419.5t-433.5 -141.5q-97 0 -184 28.5t-155 82t-108.5 138.5t-40.5 191zM633 1546l-150 133q57 90 138 142.5
t172 52.5q45 0 77 -9.5t82 -33.5q56 -33 103 -33q36 0 65.5 19.5t65.5 64.5l149 -133q-120 -195 -291 -195q-75 0 -167 45q-58 31 -105 31q-73 0 -139 -84z" />
    <glyph glyph-name="utilde" unicode="&#x169;" horiz-adv-x="1236" 
d="M92 281q0 52 8 88l129 663h340l-118 -610q-5 -35 -5 -37q0 -47 28 -74.5t73 -27.5q90 0 146.5 73.5t86.5 223.5l88 452h340l-200 -1032h-340l24 119q-108 -135 -297 -135q-137 0 -220 81t-83 216zM498 1145l-150 133q57 90 137.5 142.5t171.5 52.5q45 0 77.5 -9.5
t82.5 -33.5q56 -33 103 -33q36 0 65.5 19.5t65.5 64.5l149 -133q-120 -195 -291 -195q-76 0 -168 45q-58 31 -104 31q-73 0 -139 -84z" />
    <glyph glyph-name="Umacron" unicode="&#x16a;" horiz-adv-x="1351" 
d="M104 424q0 45 13 121l172 889h338l-168 -873q-8 -36 -8 -69q0 -91 51.5 -142t144.5 -51q101 0 171.5 67t94.5 195l168 873h338l-172 -889q-53 -278 -221.5 -419.5t-433.5 -141.5q-97 0 -184 28.5t-155 82t-108.5 138.5t-40.5 191zM606 1602l49 249h568l-47 -249h-570z
" />
    <glyph glyph-name="umacron" unicode="&#x16b;" horiz-adv-x="1236" 
d="M92 281q0 52 8 88l129 663h340l-118 -610q-5 -35 -5 -37q0 -47 28 -74.5t73 -27.5q90 0 146.5 73.5t86.5 223.5l88 452h340l-200 -1032h-340l24 119q-108 -135 -297 -135q-137 0 -220 81t-83 216zM467 1200l49 250h567l-47 -250h-569z" />
    <glyph glyph-name="Ubreve" unicode="&#x16c;" horiz-adv-x="1351" 
d="M104 424q0 45 13 121l172 889h338l-168 -873q-8 -36 -8 -69q0 -91 51.5 -142t144.5 -51q101 0 171.5 67t94.5 195l168 873h338l-172 -889q-53 -278 -221.5 -419.5t-433.5 -141.5q-97 0 -184 28.5t-155 82t-108.5 138.5t-40.5 191zM653 1792q0 15 4 43h211l-2 -12
q0 -45 47 -45q25 0 43 16t23 41h211q-24 -115 -100.5 -180.5t-198.5 -65.5q-109 0 -173.5 57t-64.5 146z" />
    <glyph glyph-name="ubreve" unicode="&#x16d;" horiz-adv-x="1236" 
d="M92 281q0 52 8 88l129 663h340l-118 -610q-5 -35 -5 -37q0 -47 28 -74.5t73 -27.5q90 0 146.5 73.5t86.5 223.5l88 452h340l-200 -1032h-340l24 119q-108 -135 -297 -135q-137 0 -220 81t-83 216zM530 1391q0 8 5 43h210l-2 -13q0 -21 12.5 -33t35.5 -12q24 0 42 16.5
t23 41.5h211q-24 -115 -100.5 -180.5t-198.5 -65.5q-109 0 -173.5 57t-64.5 146z" />
    <glyph glyph-name="Uring" unicode="&#x16e;" horiz-adv-x="1351" 
d="M104 424q0 45 13 121l172 889h338l-168 -873q-8 -36 -8 -69q0 -91 51.5 -142t144.5 -51q101 0 171.5 67t94.5 195l168 873h338l-172 -889q-53 -278 -221.5 -419.5t-433.5 -141.5q-97 0 -184 28.5t-155 82t-108.5 138.5t-40.5 191zM692 1743q0 94 62.5 156.5t158.5 62.5
t159 -62.5t63 -156.5t-63 -156.5t-159 -62.5t-158.5 62.5t-62.5 156.5zM975 1743q0 30 -16.5 47.5t-45.5 17.5t-45 -17.5t-16 -47.5t16 -48t45 -18t45.5 18t16.5 48z" />
    <glyph glyph-name="uring" unicode="&#x16f;" horiz-adv-x="1236" 
d="M92 281q0 52 8 88l129 663h340l-118 -610q-5 -35 -5 -37q0 -47 28 -74.5t73 -27.5q90 0 146.5 73.5t86.5 223.5l88 452h340l-200 -1032h-340l24 119q-108 -135 -297 -135q-137 0 -220 81t-83 216zM561 1341q0 94 62.5 157t158.5 63t159 -63t63 -157t-63 -156.5
t-159 -62.5t-158.5 62.5t-62.5 156.5zM844 1341q0 30 -16.5 48t-45.5 18t-45 -18t-16 -48t16 -47.5t45 -17.5t45.5 17.5t16.5 47.5z" />
    <glyph glyph-name="Uhungarumlaut" unicode="&#x170;" horiz-adv-x="1351" 
d="M104 424q0 45 13 121l172 889h338l-168 -873q-8 -36 -8 -69q0 -91 51.5 -142t144.5 -51q101 0 171.5 67t94.5 195l168 873h338l-172 -889q-53 -278 -221.5 -419.5t-433.5 -141.5q-97 0 -184 28.5t-155 82t-108.5 138.5t-40.5 191zM508 1524l182 327h410l-348 -327h-244z
M965 1524l182 327h409l-348 -327h-243z" />
    <glyph glyph-name="uhungarumlaut" unicode="&#x171;" horiz-adv-x="1236" 
d="M92 281q0 52 8 88l129 663h340l-118 -610q-5 -35 -5 -37q0 -47 28 -74.5t73 -27.5q90 0 146.5 73.5t86.5 223.5l88 452h340l-200 -1032h-340l24 119q-108 -135 -297 -135q-137 0 -220 81t-83 216zM383 1147l182 328h410l-348 -328h-244zM840 1147l182 328h410l-349 -328
h-243z" />
    <glyph glyph-name="Uogonek" unicode="&#x172;" horiz-adv-x="1351" 
d="M1081 1434h338l-172 -889q-44 -231 -168.5 -368.5t-318.5 -176.5l-47 -35q-88 -67 -88 -110q0 -37 37 -37q23 0 49 16l34 -201q-59 -26 -151 -26q-94 0 -144.5 45.5t-50.5 120.5q0 137 138 213q-89 8 -166.5 40t-137.5 85.5t-94.5 134t-34.5 178.5q0 45 13 121l172 889
h338l-168 -873q-8 -36 -8 -69q0 -91 51.5 -142t144.5 -51q101 0 171.5 67t94.5 195z" />
    <glyph glyph-name="uogonek" unicode="&#x173;" horiz-adv-x="1236" 
d="M872 -145q0 -37 37 -37q23 0 49 16l35 -201q-59 -26 -151 -26q-94 0 -144.5 45.5t-50.5 120.5q0 77 43.5 135.5t122.5 91.5h-145l24 119q-108 -135 -297 -135q-137 0 -220 81t-83 216q0 52 8 88l129 663h340l-118 -610q-5 -35 -5 -37q0 -47 28 -74.5t73 -27.5
q90 0 146.5 73.5t86.5 223.5l88 452h340l-200 -1032l-47 -35q-89 -68 -89 -110z" />
    <glyph glyph-name="Wcircumflex" unicode="&#x174;" horiz-adv-x="1918" 
d="M303 0l-98 1434h354l35 -899l354 747h303l82 -747l377 899h361l-648 -1434h-352l-65 713l-349 -713h-354zM715 1524l434 393h90l285 -393h-281l-86 114l-125 -114h-317z" />
    <glyph glyph-name="wcircumflex" unicode="&#x175;" horiz-adv-x="1564" 
d="M252 0l-135 1032h334l32 -559l248 559h303l29 -559l244 559h342l-529 -1032h-280l-41 567l-258 -567h-289zM487 1147l435 393h90l284 -393h-280l-86 115l-125 -115h-318z" />
    <glyph glyph-name="Ycircumflex" unicode="&#x176;" horiz-adv-x="1232" 
d="M330 0l119 610l-254 824h362l131 -476l313 476h394l-578 -824l-119 -610h-368zM375 1524l434 393h90l285 -393h-281l-86 114l-125 -114h-317z" />
    <glyph glyph-name="ycircumflex" unicode="&#x177;" horiz-adv-x="1073" 
d="M25 -418l274 510l-182 940h350l86 -502l254 502h350l-797 -1450h-335zM231 1147l435 393h90l284 -393h-280l-86 115l-125 -115h-318z" />
    <glyph glyph-name="Ydieresis" unicode="&#x178;" horiz-adv-x="1232" 
d="M330 0l119 610l-254 824h362l131 -476l313 476h394l-578 -824l-119 -610h-368zM465 1735q0 73 47.5 120.5t120.5 47.5t120.5 -47.5t47.5 -120.5t-47.5 -120.5t-120.5 -47.5t-120.5 47.5t-47.5 120.5zM881 1735q0 73 47.5 120.5t120.5 47.5t120.5 -47.5t47.5 -120.5
t-47.5 -120.5t-120.5 -47.5t-120.5 47.5t-47.5 120.5z" />
    <glyph glyph-name="Zacute" unicode="&#x179;" horiz-adv-x="1181" 
d="M-39 0l37 184l756 942h-545l61 308h996l-37 -185l-752 -942h602l-61 -307h-1057zM635 1524l190 327h430l-374 -327h-246z" />
    <glyph glyph-name="zacute" unicode="&#x17a;" horiz-adv-x="980" 
d="M-37 0l29 160l500 594h-379l53 278h813l-31 -160l-497 -593h411l-53 -279h-846zM465 1147l190 328h430l-374 -328h-246z" />
    <glyph glyph-name="Zdotaccent" unicode="&#x17b;" horiz-adv-x="1181" 
d="M-39 0l37 184l756 942h-545l61 308h996l-37 -185l-752 -942h602l-61 -307h-1057zM610 1755q0 85 57.5 143t143.5 58t143.5 -58t57.5 -143t-57.5 -143t-143.5 -58t-143.5 58t-57.5 143z" />
    <glyph glyph-name="zdotaccent" unicode="&#x17c;" horiz-adv-x="980" 
d="M-37 0l29 160l500 594h-379l53 278h813l-31 -160l-497 -593h411l-53 -279h-846zM430 1354q0 85 57.5 142.5t143.5 57.5t143 -57.5t57 -142.5t-57 -143t-143 -58t-143.5 58t-57.5 143z" />
    <glyph glyph-name="Zcaron" unicode="&#x17d;" horiz-adv-x="1181" 
d="M-39 0l37 184l756 942h-545l61 308h996l-37 -185l-752 -942h602l-61 -307h-1057zM723 1524l-285 393h281l86 -115l125 115h317l-434 -393h-90z" />
    <glyph glyph-name="zcaron" unicode="&#x17e;" horiz-adv-x="980" 
d="M-37 0l29 160l500 594h-379l53 278h813l-31 -160l-497 -593h411l-53 -279h-846zM547 1147l-285 393h281l86 -115l125 115h317l-434 -393h-90z" />
    <glyph glyph-name="florin" unicode="&#x192;" horiz-adv-x="862" 
d="M-184 -391l108 280q53 -36 113 -36q49 0 76 32t41 105l153 784h-151l51 258h153l11 53q36 182 155 273.5t312 91.5q121 0 209 -49l-111 -254q-30 24 -54.5 32.5t-60.5 8.5q-98 0 -119 -123l-6 -33h181l-52 -258h-178l-168 -844q-35 -181 -156 -272.5t-311 -91.5
q-125 0 -196 43z" />
    <glyph glyph-name="uni01B5" unicode="&#x1b5;" horiz-adv-x="1181" 
d="M-39 0l37 184l321 402h-161l51 262h321l224 278h-545l61 308h996l-37 -185l-322 -401h209l-51 -262h-367l-221 -279h602l-61 -307h-1057z" />
    <glyph glyph-name="uni01B6" unicode="&#x1b6;" horiz-adv-x="980" 
d="M979 1032l-31 -160l-188 -225h67l-45 -229h-215l-116 -139h411l-53 -279h-846l29 160l217 258h-96l45 229h243l91 107h-379l53 278h813z" />
    <glyph glyph-name="Aringacute" unicode="&#x1fa;" horiz-adv-x="1351" 
d="M-84 0l764 1434h348l207 -1434h-365l-34 305h-381l-152 -305h-387zM608 616h197l-33 345zM686 1743q0 94 62.5 156.5t158.5 62.5t158.5 -62.5t62.5 -156.5t-62.5 -156.5t-158.5 -62.5t-158.5 62.5t-62.5 156.5zM969 1743q0 30 -16.5 47.5t-45.5 17.5t-45 -17.5t-16 -47.5
t16 -48t45 -18t45.5 18t16.5 48zM827 2009l191 328h430l-375 -328h-246z" />
    <glyph glyph-name="aringacute" unicode="&#x1fb;" horiz-adv-x="1263" 
d="M68 434q-1 90 22.5 178.5t72 168t116 140t160.5 95.5t198 33q159 0 242 -99l16 82h340l-201 -1032h-340l19 88q-88 -104 -250 -104q-184 0 -289.5 122.5t-105.5 327.5zM821 565q0 100 -43 148.5t-119 48.5q-115 0 -183 -83.5t-68 -213.5q0 -90 50 -142.5t130 -52.5
q103 0 168 86q65 89 65 209zM530 1341q0 94 63 157t159 63t158.5 -63t62.5 -157t-62.5 -156.5t-158.5 -62.5t-159 62.5t-63 156.5zM813 1341q0 30 -16 48t-45 18t-45.5 -18t-16.5 -48t16.5 -47.5t45.5 -17.5t45 17.5t16 47.5zM680 1632l190 328h430l-374 -328h-246z" />
    <glyph glyph-name="AEacute" unicode="&#x1fc;" horiz-adv-x="1929" 
d="M-84 0l899 1434h1178l-62 -312h-608l-39 -202h477l-61 -312h-477l-58 -297h629l-61 -311h-998l60 305h-306l-182 -305h-391zM676 616h180l72 365h-33zM1298 1524l191 327h430l-375 -327h-246z" />
    <glyph glyph-name="aeacute" unicode="&#x1fd;" horiz-adv-x="1912" 
d="M68 434q-1 90 22.5 178.5t72 168t116 140t160.5 95.5t198 33q159 0 242 -99l16 82h340l-18 -88q36 49 98.5 77t130.5 28q103 0 183 -33.5t128 -91.5t72 -129.5t24 -153.5q0 -42 -10 -104l-22 -123h-697q10 -74 57.5 -116t116.5 -42q72 0 125 28t107 95l246 -125
q-93 -140 -212 -205t-288 -65q-84 0 -138 20t-91 68l-13 -72h-340l19 88q-88 -104 -250 -104q-184 0 -289.5 122.5t-105.5 327.5zM1159 635h389q0 72 -40.5 121t-116.5 49q-161 0 -232 -170zM821 565q0 100 -43 148.5t-119 48.5q-115 0 -183 -83.5t-68 -213.5
q0 -90 50 -142.5t130 -52.5q103 0 168 86q65 89 65 209zM965 1147l190 328h430l-375 -328h-245z" />
    <glyph glyph-name="uni0218" unicode="&#x218;" horiz-adv-x="1122" 
d="M20 395l302 168q6 -120 61 -194t149 -74q65 0 106.5 37.5t41.5 101.5q0 69 -42.5 111t-178.5 112q-240 120 -240 365q0 186 139 307t347 121q301 0 411 -268l-291 -166q-52 131 -145 131q-47 0 -77 -27.5t-30 -70.5q0 -59 51 -105.5t167 -103.5q129 -63 195.5 -153
t66.5 -222q0 -145 -71 -255t-194.5 -168t-279.5 -58q-109 0 -198 33.5t-147.5 92t-94 130.5t-48.5 155zM125 -520l192 414h373l-381 -414h-184z" />
    <glyph glyph-name="uni0219" unicode="&#x219;" horiz-adv-x="925" 
d="M-8 285l274 112q12 -71 57 -115t101 -44q50 0 78 20t28 53t-23 51.5t-89 47.5q-29 9 -86 39q-178 99 -178 276q0 139 101 231.5t284 92.5q116 0 207.5 -46.5t136.5 -125.5l-215 -168q-62 90 -144 90q-35 0 -56.5 -17.5t-21.5 -46.5t24 -49t81 -41q140 -51 208 -121.5
t68 -179.5q0 -90 -34.5 -160.5t-92.5 -113t-129 -64.5t-149 -22q-348 0 -430 301zM-14 -520l192 414h373l-381 -414h-184z" />
    <glyph glyph-name="uni021A" unicode="&#x21a;" horiz-adv-x="1222" 
d="M326 0l219 1122h-387l61 312h1143l-62 -312h-387l-219 -1122h-368zM111 -520l192 414h373l-381 -414h-184z" />
    <glyph glyph-name="uni021B" unicode="&#x21b;" horiz-adv-x="823" 
d="M131 311q0 49 8 90l72 373h-145l49 258h145l43 213l371 205l-82 -418h258l-49 -258h-256l-68 -346q-6 -35 -6 -59q0 -42 25.5 -66t72.5 -24q55 0 107 24l20 -270q-92 -49 -225 -49q-154 0 -247 89t-93 238zM25 -520l192 414h373l-381 -414h-184z" />
    <glyph glyph-name="uni0237" unicode="&#x237;" horiz-adv-x="600" 
d="M-186 -434l-29 278q118 24 180 78t84 166l182 944h340l-178 -921q-99 -508 -579 -545z" />
    <glyph glyph-name="uni02BC" unicode="&#x2bc;" horiz-adv-x="692" 
d="M129 934l254 516h395l-416 -516h-233z" />
    <glyph glyph-name="circumflex" unicode="&#x2c6;" horiz-adv-x="845" 
d="M137 1122l434 394h91l284 -394h-280l-86 115l-125 -115h-318z" />
    <glyph glyph-name="caron" unicode="&#x2c7;" horiz-adv-x="845" 
d="M498 1122l-285 394h281l86 -115l125 115h317l-434 -394h-90z" />
    <glyph glyph-name="uni02C9" unicode="&#x2c9;" horiz-adv-x="569" 
d="M133 1200l49 250h568l-48 -250h-569z" />
    <glyph glyph-name="breve" unicode="&#x2d8;" horiz-adv-x="589" 
d="M203 1391q0 15 4 43h211l-2 -13q0 -45 47 -45q24 0 42 16.5t23 41.5h211q-24 -115 -100.5 -180.5t-198.5 -65.5q-108 0 -172.5 57t-64.5 146z" />
    <glyph glyph-name="dotaccent" unicode="&#x2d9;" horiz-adv-x="645" 
d="M285 1354q0 85 57 142.5t143 57.5t143.5 -57.5t57.5 -142.5t-57.5 -143t-143.5 -58t-143 58t-57 143z" />
    <glyph glyph-name="ring" unicode="&#x2da;" horiz-adv-x="493" 
d="M186 1341q0 94 63 157t159 63t158.5 -63t62.5 -157t-62.5 -156.5t-158.5 -62.5t-159 62.5t-63 156.5zM469 1341q0 30 -16 48t-45 18t-45.5 -18t-16.5 -48t16.5 -47.5t45.5 -17.5t45 17.5t16 47.5z" />
    <glyph glyph-name="ogonek" unicode="&#x2db;" horiz-adv-x="475" 
d="M-78 -227q0 77 43.5 135.5t122.5 91.5h195l-47 -35q-89 -68 -89 -110q0 -37 37 -37q23 0 49 16l35 -201q-59 -26 -151 -26q-94 0 -144.5 45.5t-50.5 120.5z" />
    <glyph glyph-name="tilde" unicode="&#x2dc;" horiz-adv-x="894" 
d="M326 1145l-150 133q57 90 137.5 142.5t171.5 52.5q45 0 77.5 -9.5t82.5 -33.5q56 -33 103 -33q36 0 65.5 19.5t65.5 64.5l149 -133q-120 -195 -291 -195q-76 0 -168 45q-58 31 -104 31q-73 0 -139 -84z" />
    <glyph glyph-name="hungarumlaut" unicode="&#x2dd;" horiz-adv-x="1038" 
d="M147 1122l183 328h409l-348 -328h-244zM604 1122l182 328h410l-348 -328h-244z" />
    <glyph glyph-name="gravecomb" unicode="&#x300;" horiz-adv-x="0" 
d="M123 1147h-244l-248 328h422z" />
    <glyph glyph-name="acutecomb" unicode="&#x301;" horiz-adv-x="0" 
d="M-434 1147l190 328h430l-374 -328h-246z" />
    <glyph glyph-name="uni0302" unicode="&#x302;" horiz-adv-x="0" 
d="M-686 1147l434 393h90l285 -393h-281l-86 115l-125 -115h-317z" />
    <glyph glyph-name="tildecomb" unicode="&#x303;" horiz-adv-x="0" 
d="M-541 1145l-149 133q57 90 137.5 142.5t171.5 52.5q45 0 77.5 -9.5t82.5 -33.5q56 -33 102 -33q36 0 65.5 19.5t65.5 64.5l150 -133q-120 -195 -291 -195q-76 0 -168 45q-58 31 -104 31q-74 0 -140 -84z" />
    <glyph glyph-name="uni0304" unicode="&#x304;" horiz-adv-x="0" 
d="M-436 1200l49 250h567l-47 -250h-569z" />
    <glyph glyph-name="uni0306" unicode="&#x306;" horiz-adv-x="0" 
d="M-358 1391q0 15 4 43h211l-2 -13q0 -45 47 -45q24 0 42 16.5t23 41.5h211q-24 -115 -100.5 -180.5t-198.5 -65.5q-108 0 -172.5 57t-64.5 146z" />
    <glyph glyph-name="uni0307" unicode="&#x307;" horiz-adv-x="0" 
d="M-242 1354q0 85 57.5 142.5t143.5 57.5t143.5 -57.5t57.5 -142.5t-57.5 -143t-143.5 -58t-143.5 58t-57.5 143z" />
    <glyph glyph-name="uni0308" unicode="&#x308;" horiz-adv-x="0" 
d="M-596 1333q0 73 47 120.5t121 47.5t121 -47.5t47 -120.5t-47 -120.5t-121 -47.5t-121 47.5t-47 120.5zM-180 1333q0 73 47 120.5t121 47.5t121 -47.5t47 -120.5t-47 -120.5t-121 -47.5t-121 47.5t-47 120.5z" />
    <glyph glyph-name="uni030A" unicode="&#x30a;" horiz-adv-x="0" 
d="M-287 1341q0 94 62.5 157t158.5 63t159 -63t63 -157t-63 -156.5t-159 -62.5t-158.5 62.5t-62.5 156.5zM-4 1341q0 30 -16.5 48t-45.5 18t-45 -18t-16 -48t16 -47.5t45 -17.5t45.5 17.5t16.5 47.5z" />
    <glyph glyph-name="uni030B" unicode="&#x30b;" horiz-adv-x="0" 
d="M-862 1147l182 328h410l-348 -328h-244zM-406 1147l183 328h409l-348 -328h-244z" />
    <glyph glyph-name="uni030C" unicode="&#x30c;" horiz-adv-x="0" 
d="M-326 1147l-284 393h280l86 -115l125 115h318l-435 -393h-90z" />
    <glyph glyph-name="uni0312" unicode="&#x312;" horiz-adv-x="0" 
d="M-307 1200l297 373h215l-164 -373h-348z" />
    <glyph glyph-name="uni0326" unicode="&#x326;" horiz-adv-x="0" 
d="M-686 -520l192 414h373l-381 -414h-184z" />
    <glyph glyph-name="uni0327" unicode="&#x327;" horiz-adv-x="0" 
d="M-383 -571l-319 161l356 287h221z" />
    <glyph glyph-name="uni0328" unicode="&#x328;" horiz-adv-x="0" 
d="M-518 -227q0 77 43.5 135.5t122.5 91.5h194l-47 -35q-88 -67 -88 -110q0 -37 37 -37q23 0 49 16l35 -201q-59 -26 -152 -26q-94 0 -144 45.5t-50 120.5z" />
    <glyph glyph-name="uni0335" unicode="&#x335;" horiz-adv-x="0" 
d="M-653 602l45 229h669l-45 -229h-669z" />
    <glyph glyph-name="uni0336" unicode="&#x336;" horiz-adv-x="0" 
d="M-1415 586l49 262h1429l-49 -262h-1429z" />
    <glyph glyph-name="uni0337" unicode="&#x337;" horiz-adv-x="0" 
d="M-756 434l-98 225l819 414l98 -225z" />
    <glyph glyph-name="uni0338" unicode="&#x338;" horiz-adv-x="0" 
d="M-1028 -139l-186 162l1124 1148l186 -161z" />
    <glyph glyph-name="uni037E" unicode="&#x37e;" horiz-adv-x="610" 
d="M-129 -319l266 618h395l-446 -618h-215zM225 858q0 82 54.5 136.5t136.5 54.5t136 -54.5t54 -136.5t-54 -136t-136 -54t-136.5 54t-54.5 136z" />
    <glyph glyph-name="tonos" unicode="&#x384;" horiz-adv-x="528" 
d="M119 1122l166 328h426l-351 -328h-241z" />
    <glyph glyph-name="dieresistonos" unicode="&#x385;" horiz-adv-x="956" 
d="M379 1122l166 328h364l-329 -328h-201zM154 1292q0 56 36 92.5t91 36.5q57 0 93 -36.5t36 -92.5t-36 -92.5t-93 -36.5q-55 0 -91 36.5t-36 92.5zM848 1292q0 56 36 92.5t93 36.5q55 0 91 -36.5t36 -92.5t-36 -92.5t-91 -36.5q-57 0 -93 36.5t-36 92.5z" />
    <glyph glyph-name="Alphatonos" unicode="&#x386;" horiz-adv-x="1351" 
d="M-84 0l764 1434h348l207 -1434h-365l-34 305h-381l-152 -305h-387zM608 616h197l-33 345zM-59 1106l165 328h426l-350 -328h-241z" />
    <glyph glyph-name="anoteleia" unicode="&#x387;" horiz-adv-x="684" 
d="M190 717q0 82 54.5 136t136.5 54t136 -54t54 -136t-54 -136.5t-136 -54.5t-136.5 54.5t-54.5 136.5z" />
    <glyph glyph-name="Epsilontonos" unicode="&#x388;" horiz-adv-x="1744" 
d="M551 0l280 1434h977l-61 -312h-608l-39 -202h477l-61 -312h-478l-57 -297h629l-62 -311h-997zM115 1106l166 328h426l-351 -328h-241z" />
    <glyph glyph-name="Etatonos" unicode="&#x389;" horiz-adv-x="2004" 
d="M551 0l280 1434h369l-98 -500h471l98 500h369l-281 -1434h-368l116 598h-471l-116 -598h-369zM115 1106l166 328h426l-351 -328h-241z" />
    <glyph glyph-name="Iotatonos" unicode="&#x38a;" horiz-adv-x="657" 
d="M43 0l281 1434h368l-280 -1434h-369zM-393 1106l166 328h426l-351 -328h-241z" />
    <glyph glyph-name="Omicrontonos" unicode="&#x38c;" horiz-adv-x="1568" 
d="M98 586q-2 172 57 330.5t164 277.5t260.5 189t335.5 67q184 0 325 -71.5t222.5 -213.5t81.5 -336q2 -176 -58 -333t-166 -270.5t-259 -178.5t-328 -63q-176 0 -320 73t-229.5 211.5t-85.5 317.5zM1174 815q0 153 -74.5 238.5t-198.5 85.5q-96 2 -179.5 -44t-138.5 -120.5
t-86 -167t-30 -184.5q0 -154 81.5 -241t209.5 -87q89 -2 169 44t133.5 121t84 168.5t29.5 186.5zM-270 1106l166 328h426l-351 -328h-241z" />
    <glyph glyph-name="Upsilontonos" unicode="&#x38e;" horiz-adv-x="1802" 
d="M899 0l119 610l-254 824h362l131 -476l314 476h393l-578 -824l-118 -610h-369zM115 1106l166 328h426l-351 -328h-241z" />
    <glyph glyph-name="Omegatonos" unicode="&#x38f;" horiz-adv-x="1863" 
d="M1487 287h254l-55 -287h-578l55 287q172 142 258 277.5t86 285.5q0 133 -72.5 210t-211.5 77q-124 0 -221 -63t-149 -169t-52 -235q0 -107 34 -191.5t115 -191.5l-55 -287h-578l56 287h254q-85 82 -133 202t-48 248q-3 157 60 291.5t173 226.5t261.5 143t323.5 50
q140 0 257 -41.5t196 -113t123 -168.5t44 -207q0 -351 -397 -631zM115 1106l166 328h426l-351 -328h-241z" />
    <glyph glyph-name="iotadieresistonos" unicode="&#x390;" horiz-adv-x="600" 
d="M31 0l198 1032h340l-198 -1032h-340zM215 1122l166 328h364l-329 -328h-201zM-10 1292q0 56 36 92.5t91 36.5q57 0 93 -36.5t36 -92.5t-36 -92.5t-93 -36.5q-55 0 -91 36.5t-36 92.5zM684 1292q0 56 36 92.5t93 36.5q55 0 91 -36.5t36 -92.5t-36 -92.5t-91 -36.5
q-57 0 -93 36.5t-36 92.5z" />
    <glyph glyph-name="Alpha" unicode="&#x391;" horiz-adv-x="1351" 
d="M-84 0l764 1434h348l207 -1434h-365l-34 305h-381l-152 -305h-387zM608 616h197l-33 345z" />
    <glyph glyph-name="Beta" unicode="&#x392;" horiz-adv-x="1304" 
d="M43 0l281 1434h526q202 0 314 -82.5t112 -245.5q0 -117 -54 -194t-157 -130q79 -58 120.5 -133t41.5 -182q0 -203 -154.5 -335t-408.5 -132h-621zM575 905h187q80 0 128 36t48 103q0 54 -32 80.5t-101 26.5h-180zM461 311h209q107 0 163 41.5t56 122.5q0 66 -40 96.5
t-128 30.5h-203z" />
    <glyph glyph-name="Gamma" unicode="&#x393;" horiz-adv-x="1159" 
d="M43 0l279 1434h976l-61 -312h-612l-217 -1122h-365z" />
    <glyph glyph-name="uni0394" unicode="&#x394;" horiz-adv-x="1351" 
d="M1028 1434l207 -1434h-1319l764 1434h348zM455 311h383l-66 650z" />
    <glyph glyph-name="Epsilon" unicode="&#x395;" horiz-adv-x="1236" 
d="M43 0l281 1434h976l-61 -312h-608l-39 -202h477l-61 -312h-478l-57 -297h629l-62 -311h-997z" />
    <glyph glyph-name="Zeta" unicode="&#x396;" horiz-adv-x="1181" 
d="M-39 0l37 184l756 942h-545l61 308h996l-37 -185l-752 -942h602l-61 -307h-1057z" />
    <glyph glyph-name="Eta" unicode="&#x397;" horiz-adv-x="1497" 
d="M43 0l281 1434h368l-98 -500h471l98 500h369l-281 -1434h-368l116 598h-471l-116 -598h-369z" />
    <glyph glyph-name="Theta" unicode="&#x398;" horiz-adv-x="1568" 
d="M98 586q-2 172 57 330.5t164 277.5t260.5 189t335.5 67q184 0 325 -71.5t222.5 -213.5t81.5 -336q2 -176 -58 -333t-166 -270.5t-259 -178.5t-328 -63q-176 0 -320 73t-229.5 211.5t-85.5 317.5zM1174 815q0 153 -74.5 238.5t-198.5 85.5q-96 2 -179.5 -44t-138.5 -120.5
t-86 -167t-30 -184.5q0 -154 81.5 -241t209.5 -87q89 -2 169 44t133.5 121t84 168.5t29.5 186.5zM555 592l49 250h486l-50 -250h-485z" />
    <glyph glyph-name="Iota" unicode="&#x399;" horiz-adv-x="657" 
d="M43 0l281 1434h368l-280 -1434h-369z" />
    <glyph glyph-name="Kappa" unicode="&#x39a;" horiz-adv-x="1449" 
d="M43 0l281 1434h368l-94 -482l481 482h467l-686 -652l465 -782h-442l-351 621l-120 -621h-369z" />
    <glyph glyph-name="Lambda" unicode="&#x39b;" horiz-adv-x="1351" 
d="M-84 0l764 1434h348l207 -1434h-365l-98 961l-469 -961h-387z" />
    <glyph glyph-name="Mu" unicode="&#x39c;" horiz-adv-x="1673" 
d="M43 0l281 1434h385l147 -799l459 799h393l-281 -1434h-331l145 750l-348 -619h-264l-109 619l-145 -750h-332z" />
    <glyph glyph-name="Nu" unicode="&#x39d;" horiz-adv-x="1447" 
d="M43 0l281 1434h354l305 -856l168 856h332l-281 -1434h-354l-305 856l-168 -856h-332z" />
    <glyph glyph-name="Xi" unicode="&#x39e;" horiz-adv-x="1187" 
d="M223 1122l62 312h975l-62 -312h-975zM190 608l60 312h844l-60 -312h-844zM-4 0l61 311h996l-62 -311h-995z" />
    <glyph glyph-name="Omicron" unicode="&#x39f;" horiz-adv-x="1568" 
d="M98 586q-2 172 57 330.5t164 277.5t260.5 189t335.5 67q184 0 325 -71.5t222.5 -213.5t81.5 -336q2 -176 -58 -333t-166 -270.5t-259 -178.5t-328 -63q-176 0 -320 73t-229.5 211.5t-85.5 317.5zM1174 815q0 153 -74.5 238.5t-198.5 85.5q-96 2 -179.5 -44t-138.5 -120.5
t-86 -167t-30 -184.5q0 -154 81.5 -241t209.5 -87q89 -2 169 44t133.5 121t84 168.5t29.5 186.5z" />
    <glyph glyph-name="Pi" unicode="&#x3a0;" horiz-adv-x="1490" 
d="M43 0l279 1434h1204l-279 -1434h-364l217 1122h-475l-217 -1122h-365z" />
    <glyph glyph-name="Rho" unicode="&#x3a1;" horiz-adv-x="1271" 
d="M43 0l281 1434h530q217 0 338 -103.5t121 -292.5q0 -122 -44.5 -217.5t-123 -155t-181.5 -90t-225 -30.5h-221l-106 -545h-369zM578 844h196q85 0 134.5 46t49.5 124q0 121 -129 121h-196z" />
    <glyph glyph-name="Sigma" unicode="&#x3a3;" horiz-adv-x="1167" 
d="M-10 0l35 184l475 545l-267 520l35 185h965l-59 -308h-506l166 -372l-21 -99l-287 -348h504l-59 -307h-981z" />
    <glyph glyph-name="Tau" unicode="&#x3a4;" horiz-adv-x="1222" 
d="M326 0l219 1122h-387l61 312h1143l-62 -312h-387l-219 -1122h-368z" />
    <glyph glyph-name="Upsilon" unicode="&#x3a5;" horiz-adv-x="1232" 
d="M330 0l119 610l-254 824h362l131 -476l313 476h394l-578 -824l-119 -610h-368z" />
    <glyph glyph-name="Phi" unicode="&#x3a6;" horiz-adv-x="1589" 
d="M520 0l29 147q-208 9 -329.5 138t-121.5 325q-2 137 49.5 260.5t141.5 213.5t215.5 144t265.5 58l29 148h352l-29 -148q206 -9 327.5 -136t121.5 -319q3 -181 -85 -336.5t-243.5 -249t-341.5 -98.5l-29 -147h-352zM600 412l119 610q-125 -15 -206 -131t-81 -264
q0 -89 45.5 -148.5t122.5 -66.5zM1239 807q0 89 -45.5 148.5t-122.5 66.5l-119 -610q125 15 206 131t81 264z" />
    <glyph glyph-name="Chi" unicode="&#x3a7;" horiz-adv-x="1290" 
d="M-84 0l592 776l-258 658h387l111 -349l264 349h387l-512 -666l287 -768h-379l-162 430l-311 -430h-406z" />
    <glyph glyph-name="Psi" unicode="&#x3a8;" horiz-adv-x="1718" 
d="M584 0l71 373q-207 11 -326 129.5t-120 316.5q0 80 14 146l92 469h328l-96 -492q-10 -65 -10 -86q0 -154 178 -176l147 754h352l-147 -754q223 18 270 262l97 492h327l-96 -492q-55 -278 -217.5 -418t-439.5 -151l-72 -373h-352z" />
    <glyph glyph-name="uni03A9" unicode="&#x3a9;" horiz-adv-x="1519" 
d="M1143 287h254l-56 -287h-577l55 287q172 142 258 277.5t86 285.5q0 133 -72.5 210t-211.5 77q-124 0 -221 -63t-149 -169t-52 -235q0 -107 34 -191.5t115 -191.5l-55 -287h-578l56 287h254q-85 82 -133 202t-48 248q-3 157 60 291.5t173 226.5t261.5 143t323.5 50
q140 0 257 -41.5t196 -113t123 -168.5t44 -207q0 -351 -397 -631z" />
    <glyph glyph-name="Iotadieresis" unicode="&#x3aa;" horiz-adv-x="657" 
d="M43 0l281 1434h368l-280 -1434h-369zM188 1735q0 73 47 120.5t121 47.5t121 -47.5t47 -120.5t-47 -120.5t-121 -47.5t-121 47.5t-47 120.5zM604 1735q0 73 47 120.5t121 47.5t121 -47.5t47 -120.5t-47 -120.5t-121 -47.5t-121 47.5t-47 120.5z" />
    <glyph glyph-name="Upsilondieresis" unicode="&#x3ab;" horiz-adv-x="1232" 
d="M330 0l119 610l-254 824h362l131 -476l313 476h394l-578 -824l-119 -610h-368zM465 1735q0 73 47.5 120.5t120.5 47.5t120.5 -47.5t47.5 -120.5t-47.5 -120.5t-120.5 -47.5t-120.5 47.5t-47.5 120.5zM881 1735q0 73 47.5 120.5t120.5 47.5t120.5 -47.5t47.5 -120.5
t-47.5 -120.5t-120.5 -47.5t-120.5 47.5t-47.5 120.5z" />
    <glyph glyph-name="alphatonos" unicode="&#x3ac;" horiz-adv-x="1263" 
d="M68 434q-1 90 22.5 178.5t72 168t116 140t160.5 95.5t198 33q159 0 242 -99l16 82h340l-201 -1032h-340l19 88q-88 -104 -250 -104q-184 0 -289.5 122.5t-105.5 327.5zM821 565q0 100 -43 148.5t-119 48.5q-115 0 -183 -83.5t-68 -213.5q0 -90 50 -142.5t130 -52.5
q103 0 168 86q65 89 65 209zM535 1122l165 328h426l-350 -328h-241z" />
    <glyph glyph-name="epsilontonos" unicode="&#x3ad;" horiz-adv-x="944" 
d="M37 274q0 209 225 285q-90 77 -90 186q0 140 108.5 222t297.5 82q142 0 228 -71.5t105 -191.5l-272 -63q0 45 -24.5 72.5t-65.5 27.5q-53 0 -85 -27.5t-32 -66.5q0 -36 30.5 -61t78.5 -25h77l-43 -217h-92q-67 0 -107 -31t-40 -86q0 -38 24 -59t66 -21q56 0 98 35t56 90
l264 -39q-39 -168 -151 -249.5t-312 -81.5q-147 0 -245.5 83t-98.5 207zM461 1122l166 328h426l-351 -328h-241z" />
    <glyph glyph-name="etatonos" unicode="&#x3ae;" horiz-adv-x="1234" 
d="M584 -418l200 1028q4 28 4 37q0 103 -100 103q-81 0 -143 -78.5t-88 -218.5l-88 -453h-340l200 1032h340l-24 -119q109 136 301 136q139 0 218 -80t79 -217q0 -52 -8 -88l-211 -1082h-340zM616 1122l166 328h426l-350 -328h-242z" />
    <glyph glyph-name="iotatonos" unicode="&#x3af;" horiz-adv-x="600" 
d="M31 0l198 1032h340l-198 -1032h-340zM254 1122l166 328h426l-350 -328h-242z" />
    <glyph glyph-name="upsilondieresistonos" unicode="&#x3b0;" horiz-adv-x="1261" 
d="M113 358q0 79 14 148l102 526h336l-112 -579q-7 -32 -7 -62q0 -56 38.5 -88.5t101.5 -32.5q163 0 198 183l113 579h336l-111 -567q-49 -258 -182 -369.5t-385 -111.5q-201 0 -321 97t-121 277zM547 1122l166 328h364l-329 -328h-201zM322 1292q0 56 36 92.5t91 36.5
q57 0 93 -36.5t36 -92.5t-36 -92.5t-93 -36.5q-55 0 -91 36.5t-36 92.5zM1016 1292q0 56 36 92.5t93 36.5q55 0 91 -36.5t36 -92.5t-36 -92.5t-91 -36.5q-57 0 -93 36.5t-36 92.5z" />
    <glyph glyph-name="alpha" unicode="&#x3b1;" horiz-adv-x="1263" 
d="M68 434q-1 90 22.5 178.5t72 168t116 140t160.5 95.5t198 33q159 0 242 -99l16 82h340l-201 -1032h-340l19 88q-88 -104 -250 -104q-184 0 -289.5 122.5t-105.5 327.5zM821 565q0 100 -43 148.5t-119 48.5q-115 0 -183 -83.5t-68 -213.5q0 -90 50 -142.5t130 -52.5
q103 0 168 86q65 89 65 209z" />
    <glyph glyph-name="beta" unicode="&#x3b2;" horiz-adv-x="1200" 
d="M-53 -418l278 1422q46 237 179 341.5t352 104.5q180 0 280.5 -84.5t100.5 -237.5q0 -107 -65 -190.5t-169 -116.5q97 -34 154 -114t57 -203q0 -153 -66 -272.5t-180 -183.5t-256 -64q-89 0 -152.5 27.5t-90.5 72.5l-99 -502h-323zM793 469q0 74 -55 124t-146 50h-35
l53 279h21q86 0 141 47.5t55 124.5q0 45 -27 71.5t-79 26.5q-134 0 -174 -199l-109 -549q-6 -37 -6 -67q1 -59 42.5 -94t105.5 -35q101 0 157 60.5t56 160.5z" />
    <glyph glyph-name="gamma" unicode="&#x3b3;" horiz-adv-x="1085" 
d="M201 -418l98 500l-176 950h323l72 -583l301 583h344l-545 -950l-98 -500h-319z" />
    <glyph glyph-name="delta" unicode="&#x3b4;" horiz-adv-x="1253" 
d="M70 436q0 225 129 381q133 157 348 215l-215 180l43 222h846l-56 -287h-325l143 -139q107 -107 153 -205t46 -225q0 -172 -84.5 -308.5t-229 -211t-321.5 -74.5q-150 0 -260 62.5t-163.5 163.5t-53.5 226zM844 582q0 82 -45.5 131t-124.5 49q-121 0 -192.5 -87.5
t-71.5 -221.5q0 -85 44.5 -134t123.5 -49q122 0 194 90q72 93 72 222z" />
    <glyph glyph-name="epsilon" unicode="&#x3b5;" horiz-adv-x="944" 
d="M37 274q0 209 225 285q-90 77 -90 186q0 140 108.5 222t297.5 82q142 0 228 -71.5t105 -191.5l-272 -63q0 45 -24.5 72.5t-65.5 27.5q-53 0 -85 -27.5t-32 -66.5q0 -36 30.5 -61t78.5 -25h77l-43 -217h-92q-67 0 -107 -31t-40 -86q0 -38 24 -59t66 -21q56 0 98 35t56 90
l264 -39q-39 -168 -151 -249.5t-312 -81.5q-147 0 -245.5 83t-98.5 207z" />
    <glyph glyph-name="zeta" unicode="&#x3b6;" horiz-adv-x="1056" 
d="M92 -317l195 243q73 -73 172 -73q129 0 129 84q0 77 -144 77h-45q-162 0 -265 106.5t-103 262.5q0 133 65.5 246t202.5 225l356 293h-471l58 287h919l-47 -238l-526 -446q-123 -103 -168 -164t-45 -142q0 -67 41.5 -105t109.5 -38h72q142 0 239 -86t97 -235
q0 -200 -129 -307t-369 -107q-224 0 -344 117z" />
    <glyph glyph-name="eta" unicode="&#x3b7;" horiz-adv-x="1234" 
d="M584 -418l200 1028q4 28 4 37q0 103 -100 103q-81 0 -143 -78.5t-88 -218.5l-88 -453h-340l200 1032h340l-24 -119q109 136 301 136q139 0 218 -80t79 -217q0 -52 -8 -88l-211 -1082h-340z" />
    <glyph glyph-name="theta" unicode="&#x3b8;" horiz-adv-x="1462" 
d="M104 584q-3 237 96.5 437t278 316.5t393.5 112.5q262 0 413 -157.5t151 -442.5q3 -237 -96.5 -437t-278 -316.5t-393.5 -112.5q-262 0 -413 157.5t-151 442.5zM492 862h602q-6 147 -68.5 224t-169.5 77q-120 0 -216 -81.5t-148 -219.5zM1049 571h-603q6 -147 68.5 -224
t169.5 -77q121 0 217 81.5t148 219.5z" />
    <glyph glyph-name="iota" unicode="&#x3b9;" horiz-adv-x="600" 
d="M31 0l198 1032h340l-198 -1032h-340z" />
    <glyph glyph-name="kappa" unicode="&#x3ba;" horiz-adv-x="1153" 
d="M29 0l200 1032h340l-55 -291l281 291h417l-491 -481l328 -551h-385l-222 389l-73 -389h-340z" />
    <glyph glyph-name="lambda" unicode="&#x3bb;" horiz-adv-x="1073" 
d="M750 1188l206 -1188h-319l-88 502l-283 -502h-350l555 950l-20 125q-7 43 -26 60.5t-52 17.5q-20 0 -62 -10l-24 274q98 33 180 33q129 0 193 -59.5t90 -202.5z" />
    <glyph glyph-name="uni03BC" unicode="&#x3bc;" horiz-adv-x="1236" 
d="M-51 -418l280 1450h340l-118 -612q-1 -6 -2 -14t-2 -13t-1 -8q0 -46 27 -74t80 -28q172 0 227 297l88 452h340l-200 -1032h-340l24 119q-108 -135 -297 -135h-28l-78 -402h-340z" />
    <glyph glyph-name="nu" unicode="&#x3bd;" horiz-adv-x="1056" 
d="M283 0l-160 1032h332l57 -571l279 571h344l-557 -1032h-295z" />
    <glyph glyph-name="xi" unicode="&#x3be;" horiz-adv-x="1073" 
d="M94 -319l197 245q73 -73 176 -73q67 0 102 21t35 60q0 36 -27 58t-77 22h-82q-155 0 -260 103t-105 260q0 152 86 264.5t226 157.5q-54 34 -88.5 95.5t-34.5 137.5q0 187 142 302.5t366 115.5q190 0 297 -90t133 -250l-297 -86q-47 139 -170 139q-74 0 -119 -36.5
t-45 -98.5q0 -54 44.5 -87.5t113.5 -33.5h94l-53 -270h-93q-115 0 -184.5 -51.5t-69.5 -136.5q0 -148 181 -148h30q152 0 244 -89t92 -237q0 -192 -134.5 -300.5t-377.5 -108.5q-218 0 -342 115z" />
    <glyph glyph-name="omicron" unicode="&#x3bf;" horiz-adv-x="1245" 
d="M70 436q-1 121 41.5 233t120 197t193 135t249.5 48q226 0 364 -126.5t138 -332.5q0 -170 -76.5 -308t-217.5 -218t-321 -80q-216 0 -353.5 127.5t-137.5 324.5zM836 559q0 92 -50.5 147.5t-130.5 55.5q-105 0 -175 -89t-70 -204q0 -95 51 -147t135 -52q105 0 172.5 82
t67.5 207z" />
    <glyph glyph-name="pi" unicode="&#x3c0;" horiz-adv-x="1349" 
d="M111 0l145 745h-174l55 287h1276l-55 -287h-174l-146 -745h-323l145 745h-280l-146 -745h-323z" />
    <glyph glyph-name="rho" unicode="&#x3c1;" horiz-adv-x="1251" 
d="M-53 -418l178 907q111 560 616 560q196 0 319.5 -120t123.5 -319q1 -123 -39.5 -237t-113.5 -201t-182.5 -138.5t-236.5 -49.5q-138 0 -233 77l-92 -479h-340zM844 578q0 84 -41.5 134t-110.5 50q-72 0 -130 -46t-88 -115.5t-30 -145.5q0 -86 43 -135.5t113 -49.5
q108 0 176 92.5t68 215.5z" />
    <glyph glyph-name="uni03C2" unicode="&#x3c2;" horiz-adv-x="1183" 
d="M117 -319l194 245q73 -73 178 -73q62 0 99 22t37 64q0 61 -119 61h-17q-128 0 -224.5 60t-145.5 160.5t-49 225.5q-1 122 45 233t128 193t202.5 130t259.5 47q187 0 304 -78t148 -226l-321 -122q-24 139 -162 139q-107 0 -176.5 -80.5t-69.5 -198.5q0 -196 199 -196h30
q135 0 223.5 -83t88.5 -227q0 -190 -136 -300.5t-366 -110.5q-235 0 -350 115z" />
    <glyph glyph-name="sigma" unicode="&#x3c3;" horiz-adv-x="1245" 
d="M70 436q-1 121 41.5 233t120 197t193 135t249.5 48q62 0 149 -17h437l-52 -258h-88q56 -86 56 -209q2 -115 -43.5 -222.5t-126 -187t-197 -126.5t-248.5 -45q-216 0 -353.5 127.5t-137.5 324.5zM836 559q0 92 -50.5 147.5t-130.5 55.5q-105 0 -175 -89t-70 -204
q0 -95 51 -147t135 -52q105 0 172.5 82t67.5 207z" />
    <glyph glyph-name="tau" unicode="&#x3c4;" horiz-adv-x="884" 
d="M182 0l148 762h-269l54 270h856l-53 -270h-269l-147 -762h-320z" />
    <glyph glyph-name="upsilon" unicode="&#x3c5;" horiz-adv-x="1261" 
d="M113 358q0 79 14 148l102 526h336l-112 -579q-7 -32 -7 -62q0 -56 38.5 -88.5t101.5 -32.5q163 0 198 183l113 579h336l-111 -567q-49 -258 -182 -369.5t-385 -111.5q-201 0 -321 97t-121 277z" />
    <glyph glyph-name="phi" unicode="&#x3c6;" horiz-adv-x="1501" 
d="M403 -418l78 404q-186 9 -299.5 134t-113.5 314q0 252 163.5 413t452.5 193l49 256h336l-49 -258q197 -26 305.5 -144.5t108.5 -295.5q0 -163 -77 -299.5t-218.5 -220.5t-321.5 -92l-78 -404h-336zM532 250l103 532q-103 -15 -173.5 -112t-70.5 -209q0 -86 38.5 -142.5
t102.5 -68.5zM1112 565q0 89 -38.5 147t-102.5 70l-103 -532q71 10 128 59.5t86.5 118t29.5 137.5z" />
    <glyph glyph-name="chi" unicode="&#x3c7;" horiz-adv-x="1071" 
d="M-88 0l442 565l-200 467h364l76 -196l149 196h375l-389 -481l229 -551h-364l-102 258l-201 -258h-379z" />
    <glyph glyph-name="psi" unicode="&#x3c8;" horiz-adv-x="1648" 
d="M1288 1032h332l-100 -516q-48 -243 -211 -381.5t-420 -148.5l-78 -404h-336l78 404q-196 3 -313 120q-115 121 -115 312q0 80 12 139l92 475h336l-100 -516q-8 -36 -8 -86q0 -70 43 -112t108 -48l201 1028h336l-201 -1028q87 11 153 77t91 169z" />
    <glyph glyph-name="omega" unicode="&#x3c9;" horiz-adv-x="1642" 
d="M23 348q0 199 86 359q82 156 249 342l234 -183q-115 -142 -170 -244t-55 -196q0 -71 33.5 -107t91.5 -36q125 0 159 184l62 315h311l-61 -323q-7 -35 -7 -53q0 -59 30.5 -91t82.5 -32q91 0 136.5 70t45.5 190q0 85 -17.5 158t-59.5 165l307 183q60 -117 86 -218
q28 -106 28 -264q0 -266 -133 -426q-133 -157 -375 -157q-256 0 -329 225q-76 -120 -166 -172.5t-238 -52.5q-154 0 -242.5 96t-88.5 268z" />
    <glyph glyph-name="iotadieresis" unicode="&#x3ca;" horiz-adv-x="600" 
d="M31 0l198 1032h340l-198 -1032h-340zM82 1333q0 73 47 120.5t121 47.5t121 -47.5t47 -120.5t-47 -120.5t-121 -47.5t-121 47.5t-47 120.5zM498 1333q0 73 47 120.5t121 47.5t121 -47.5t47 -120.5t-47 -120.5t-121 -47.5t-121 47.5t-47 120.5z" />
    <glyph glyph-name="upsilondieresis" unicode="&#x3cb;" horiz-adv-x="1261" 
d="M113 358q0 79 14 148l102 526h336l-112 -579q-7 -32 -7 -62q0 -56 38.5 -88.5t101.5 -32.5q163 0 198 183l113 579h336l-111 -567q-49 -258 -182 -369.5t-385 -111.5q-201 0 -321 97t-121 277zM414 1333q0 73 47 120.5t121 47.5t121 -47.5t47 -120.5t-47 -120.5
t-121 -47.5t-121 47.5t-47 120.5zM829 1333q0 73 47.5 120.5t120.5 47.5t120.5 -47.5t47.5 -120.5t-47.5 -120.5t-120.5 -47.5t-120.5 47.5t-47.5 120.5z" />
    <glyph glyph-name="omicrontonos" unicode="&#x3cc;" horiz-adv-x="1245" 
d="M70 436q-1 121 41.5 233t120 197t193 135t249.5 48q226 0 364 -126.5t138 -332.5q0 -170 -76.5 -308t-217.5 -218t-321 -80q-216 0 -353.5 127.5t-137.5 324.5zM836 559q0 92 -50.5 147.5t-130.5 55.5q-105 0 -175 -89t-70 -204q0 -95 51 -147t135 -52q105 0 172.5 82
t67.5 207zM547 1122l166 328h426l-351 -328h-241z" />
    <glyph glyph-name="upsilontonos" unicode="&#x3cd;" horiz-adv-x="1261" 
d="M113 358q0 79 14 148l102 526h336l-112 -579q-7 -32 -7 -62q0 -56 38.5 -88.5t101.5 -32.5q163 0 198 183l113 579h336l-111 -567q-49 -258 -182 -369.5t-385 -111.5q-201 0 -321 97t-121 277zM586 1122l166 328h426l-351 -328h-241z" />
    <glyph glyph-name="omegatonos" unicode="&#x3ce;" horiz-adv-x="1642" 
d="M23 348q0 199 86 359q82 156 249 342l234 -183q-115 -142 -170 -244t-55 -196q0 -71 33.5 -107t91.5 -36q125 0 159 184l62 315h311l-61 -323q-7 -35 -7 -53q0 -59 30.5 -91t82.5 -32q91 0 136.5 70t45.5 190q0 85 -17.5 158t-59.5 165l307 183q60 -117 86 -218
q28 -106 28 -264q0 -266 -133 -426q-133 -157 -375 -157q-256 0 -329 225q-76 -120 -166 -172.5t-238 -52.5q-154 0 -242.5 96t-88.5 268zM795 1122l166 328h425l-350 -328h-241z" />
    <glyph glyph-name="uni0400" unicode="&#x400;" horiz-adv-x="1236" 
d="M43 0l281 1434h976l-61 -312h-608l-39 -202h477l-61 -312h-478l-57 -297h629l-62 -311h-997zM956 1524h-243l-248 327h422z" />
    <glyph glyph-name="uni0401" unicode="&#x401;" horiz-adv-x="1236" 
d="M43 0l281 1434h976l-61 -312h-608l-39 -202h477l-61 -312h-478l-57 -297h629l-62 -311h-997zM494 1735q0 73 47 120.5t121 47.5q73 0 120 -47t47 -121t-47 -121t-120 -47q-74 0 -121 47.5t-47 120.5zM909 1735q0 73 47.5 120.5t120.5 47.5t120.5 -47.5t47.5 -120.5
t-47.5 -120.5t-120.5 -47.5t-120.5 47.5t-47.5 120.5z" />
    <glyph glyph-name="uni0402" unicode="&#x402;" horiz-adv-x="1679" 
d="M799 4l59 309q38 -14 94 -14q95 0 150 38.5t55 106.5q0 66 -46 100t-124 34q-121 0 -237 -52l-101 -526h-364l217 1122h-344l61 312h1135l-62 -312h-426l-53 -276q124 47 289 47q185 0 306.5 -115.5t121.5 -306.5q0 -233 -142 -360t-395 -127q-121 0 -194 20z" />
    <glyph glyph-name="uni0403" unicode="&#x403;" horiz-adv-x="1159" 
d="M43 0l279 1434h976l-61 -312h-612l-217 -1122h-365zM696 1524l191 327h430l-375 -327h-246z" />
    <glyph glyph-name="uni0404" unicode="&#x404;" horiz-adv-x="1468" 
d="M1051 530l323 -108q-90 -228 -260.5 -333t-421.5 -105q-164 0 -299.5 75.5t-215 213.5t-79.5 311q-2 137 33.5 266.5t106.5 238.5t169 191t229.5 127t278.5 43q247 0 398 -124t178 -333l-332 -84q-20 102 -89.5 166t-180.5 64q-127 0 -224 -71.5t-149 -195.5h461
l-62 -311h-446q13 -129 87 -197.5t194 -68.5q96 0 174.5 62t126.5 173z" />
    <glyph glyph-name="uni0405" unicode="&#x405;" horiz-adv-x="1122" 
d="M20 395l302 168q6 -120 61 -194t149 -74q65 0 106.5 37.5t41.5 101.5q0 69 -42.5 111t-178.5 112q-240 120 -240 365q0 186 139 307t347 121q301 0 411 -268l-291 -166q-52 131 -145 131q-47 0 -77 -27.5t-30 -70.5q0 -59 51 -105.5t167 -103.5q129 -63 195.5 -153
t66.5 -222q0 -145 -71 -255t-194.5 -168t-279.5 -58q-109 0 -198 33.5t-147.5 92t-94 130.5t-48.5 155z" />
    <glyph glyph-name="uni0406" unicode="&#x406;" horiz-adv-x="657" 
d="M43 0l281 1434h368l-280 -1434h-369z" />
    <glyph glyph-name="uni0407" unicode="&#x407;" horiz-adv-x="657" 
d="M43 0l281 1434h368l-280 -1434h-369zM188 1735q0 73 47 120.5t121 47.5t121 -47.5t47 -120.5t-47 -120.5t-121 -47.5t-121 47.5t-47 120.5zM604 1735q0 73 47 120.5t121 47.5t121 -47.5t47 -120.5t-47 -120.5t-121 -47.5t-121 47.5t-47 120.5z" />
    <glyph glyph-name="uni0408" unicode="&#x408;" horiz-adv-x="1157" 
d="M41 406l338 63q0 -174 137 -174q75 0 116.5 53.5t65.5 167.5l179 918h348l-181 -930q-54 -277 -181.5 -398.5t-366.5 -121.5q-216 0 -335.5 120.5t-119.5 301.5z" />
    <glyph glyph-name="uni0409" unicode="&#x409;" horiz-adv-x="2152" 
d="M2089 512q0 -241 -149 -376.5t-427 -135.5h-589l217 1122h-373l-164 -616q-53 -200 -125 -313.5t-171 -161t-249 -47.5q-62 0 -118 16l63 330q31 -17 68 -17q74 0 119.5 54.5t80.5 185.5l236 881h1059l-97 -492h193q196 0 311 -115t115 -315zM1741 485q0 72 -41.5 115
t-110.5 43h-176l-67 -344h192q93 0 148 50.5t55 135.5z" />
    <glyph glyph-name="uni040A" unicode="&#x40a;" horiz-adv-x="2107" 
d="M43 0l279 1434h364l-96 -500h475l96 500h365l-96 -500h184q201 0 315.5 -115t114.5 -313q0 -242 -148 -374t-423 -132h-590l121 618h-476l-120 -618h-365zM1305 299h192q94 0 146.5 47.5t52.5 132.5q0 66 -39.5 105t-108.5 39h-180z" />
    <glyph glyph-name="uni040B" unicode="&#x40b;" horiz-adv-x="1656" 
d="M285 0l217 1122h-344l61 312h1135l-62 -312h-426l-53 -278q143 49 305 49q184 0 289.5 -103t105.5 -280q0 -60 -12 -127l-74 -383h-364l72 371q4 36 4 45q0 68 -46.5 104.5t-129.5 36.5q-112 0 -215 -47l-99 -510h-364z" />
    <glyph glyph-name="uni040C" unicode="&#x40c;" horiz-adv-x="1449" 
d="M43 0l281 1434h368l-94 -482l481 482h467l-686 -652l465 -782h-442l-351 621l-120 -621h-369zM797 1524l190 327h430l-375 -327h-245z" />
    <glyph glyph-name="uni040D" unicode="&#x40d;" horiz-adv-x="1531" 
d="M43 0l279 1434h364l-164 -846l695 846h350l-279 -1434h-364l163 844l-694 -844h-350zM1090 1524h-244l-248 327h422z" />
    <glyph glyph-name="uni040E" unicode="&#x40e;" horiz-adv-x="1243" 
d="M1040 1434h365l-889 -1434h-360l276 451l-237 983h348l139 -580zM539 1796q0 7 4 57h213q-4 -32 -4 -43q0 -46 26 -72t68 -26q55 0 91 36.5t48 104.5h213q-31 -165 -122.5 -247t-258.5 -82q-129 0 -203.5 74t-74.5 198z" />
    <glyph glyph-name="uni040F" unicode="&#x40f;" horiz-adv-x="1490" 
d="M434 -254l49 254h-440l279 1434h364l-217 -1123h475l217 1123h365l-279 -1434h-440l-49 -254h-324z" />
    <glyph glyph-name="uni0410" unicode="&#x410;" horiz-adv-x="1351" 
d="M-84 0l764 1434h348l207 -1434h-365l-34 305h-381l-152 -305h-387zM608 616h197l-33 345z" />
    <glyph glyph-name="uni0411" unicode="&#x411;" horiz-adv-x="1273" 
d="M43 0l279 1434h964l-61 -312h-600l-45 -233h184q209 0 326.5 -107.5t117.5 -294.5q0 -228 -153 -357.5t-422 -129.5h-590zM465 299h192q93 0 145 46t52 126q0 68 -32.5 99.5t-104.5 31.5h-193z" />
    <glyph glyph-name="uni0412" unicode="&#x412;" horiz-adv-x="1304" 
d="M43 0l281 1434h526q202 0 314 -82.5t112 -245.5q0 -117 -54 -194t-157 -130q79 -58 120.5 -133t41.5 -182q0 -203 -154.5 -335t-408.5 -132h-621zM575 905h187q80 0 128 36t48 103q0 54 -32 80.5t-101 26.5h-180zM461 311h209q107 0 163 41.5t56 122.5q0 66 -40 96.5
t-128 30.5h-203z" />
    <glyph glyph-name="uni0413" unicode="&#x413;" horiz-adv-x="1159" 
d="M43 0l279 1434h976l-61 -312h-612l-217 -1122h-365z" />
    <glyph glyph-name="uni0414" unicode="&#x414;" horiz-adv-x="1648" 
d="M-100 -274l114 585h144q50 76 92 178q37 90 92 287l176 658h1075l-217 -1123h164l-115 -585h-340l54 274h-846l-53 -274h-340zM510 311h502l157 811h-397l-100 -370q-53 -202 -90 -295q-36 -92 -72 -146z" />
    <glyph glyph-name="uni0415" unicode="&#x415;" horiz-adv-x="1236" 
d="M43 0l281 1434h976l-61 -312h-608l-39 -202h477l-61 -312h-478l-57 -297h629l-62 -311h-997z" />
    <glyph glyph-name="uni0416" unicode="&#x416;" horiz-adv-x="2252" 
d="M-76 0l760 809l-453 625h443l342 -482l94 482h365l-95 -482l486 482h501l-700 -654l461 -780h-461l-352 621l-121 -621h-365l121 621l-567 -621h-459z" />
    <glyph glyph-name="uni0417" unicode="&#x417;" horiz-adv-x="1241" 
d="M49 403l318 91q8 -100 61.5 -155.5t151.5 -55.5q95 0 158 49.5t63 128.5q0 145 -217 145h-107l55 285h111q103 0 157 36t54 103q0 56 -37.5 88.5t-103.5 32.5q-77 0 -130.5 -38t-72.5 -105l-301 59q43 178 183.5 280.5t371.5 102.5q212 0 325 -94t113 -258
q0 -114 -62 -199.5t-165 -124.5q77 -39 126.5 -119.5t49.5 -185.5q0 -216 -161 -350.5t-427 -134.5q-221 0 -363 118t-151 301z" />
    <glyph glyph-name="uni0418" unicode="&#x418;" horiz-adv-x="1531" 
d="M43 0l279 1434h364l-164 -846l695 846h350l-279 -1434h-364l163 844l-694 -844h-350z" />
    <glyph glyph-name="uni0419" unicode="&#x419;" horiz-adv-x="1531" 
d="M43 0l279 1434h364l-164 -846l695 846h350l-279 -1434h-364l163 844l-694 -844h-350zM690 1796q0 7 4 57h213q-4 -32 -4 -43q0 -46 26 -72t68 -26q55 0 91.5 36.5t48.5 104.5h213q-31 -165 -122.5 -247t-258.5 -82q-129 0 -204 74t-75 198z" />
    <glyph glyph-name="uni041A" unicode="&#x41a;" horiz-adv-x="1449" 
d="M43 0l281 1434h368l-94 -482l481 482h467l-686 -652l465 -782h-442l-351 621l-120 -621h-369z" />
    <glyph glyph-name="uni041B" unicode="&#x41b;" horiz-adv-x="1546" 
d="M-59 0l63 330q31 -17 68 -17q74 0 119.5 54.5t80.5 185.5l236 881h1073l-278 -1434h-365l217 1122h-387l-164 -616q-53 -200 -125 -313.5t-171 -161t-249 -47.5q-62 0 -118 16z" />
    <glyph glyph-name="uni041C" unicode="&#x41c;" horiz-adv-x="1673" 
d="M43 0l281 1434h385l147 -799l459 799h393l-281 -1434h-331l145 750l-348 -619h-264l-109 619l-145 -750h-332z" />
    <glyph glyph-name="uni041D" unicode="&#x41d;" horiz-adv-x="1497" 
d="M43 0l281 1434h368l-98 -500h471l98 500h369l-281 -1434h-368l116 598h-471l-116 -598h-369z" />
    <glyph glyph-name="uni041E" unicode="&#x41e;" horiz-adv-x="1568" 
d="M98 586q-2 172 57 330.5t164 277.5t260.5 189t335.5 67q184 0 325 -71.5t222.5 -213.5t81.5 -336q2 -176 -58 -333t-166 -270.5t-259 -178.5t-328 -63q-176 0 -320 73t-229.5 211.5t-85.5 317.5zM1174 815q0 153 -74.5 238.5t-198.5 85.5q-96 2 -179.5 -44t-138.5 -120.5
t-86 -167t-30 -184.5q0 -154 81.5 -241t209.5 -87q89 -2 169 44t133.5 121t84 168.5t29.5 186.5z" />
    <glyph glyph-name="uni041F" unicode="&#x41f;" horiz-adv-x="1490" 
d="M43 0l279 1434h1204l-279 -1434h-364l217 1122h-475l-217 -1122h-365z" />
    <glyph glyph-name="uni0420" unicode="&#x420;" horiz-adv-x="1271" 
d="M43 0l281 1434h530q217 0 338 -103.5t121 -292.5q0 -122 -44.5 -217.5t-123 -155t-181.5 -90t-225 -30.5h-221l-106 -545h-369zM578 844h196q85 0 134.5 46t49.5 124q0 121 -129 121h-196z" />
    <glyph glyph-name="uni0421" unicode="&#x421;" horiz-adv-x="1466" 
d="M96 584q-3 170 56.5 329t165.5 278.5t261.5 190.5t333.5 68q247 0 398 -124t178 -333l-332 -84q-20 102 -89.5 166t-180.5 64q-92 2 -173 -43t-135 -119t-85 -167.5t-29 -188.5q0 -158 77 -242t214 -84q94 0 171.5 62.5t121.5 172.5l323 -108q-116 -251 -274 -342
q-162 -96 -408 -96q-256 0 -425 168t-169 432z" />
    <glyph glyph-name="uni0422" unicode="&#x422;" horiz-adv-x="1222" 
d="M326 0l219 1122h-387l61 312h1143l-62 -312h-387l-219 -1122h-368z" />
    <glyph glyph-name="uni0423" unicode="&#x423;" horiz-adv-x="1243" 
d="M1040 1434h365l-889 -1434h-360l276 451l-237 983h348l139 -580z" />
    <glyph glyph-name="uni0424" unicode="&#x424;" horiz-adv-x="1712" 
d="M575 -20l29 161q-209 9 -354.5 156.5t-145.5 357.5q0 279 198.5 451t528.5 184l31 164h352l-30 -164q213 -9 357.5 -150.5t144.5 -351.5q0 -280 -200 -457.5t-530 -189.5l-28 -161h-353zM664 428l110 578q-154 -14 -247 -105t-93 -231q0 -103 61.5 -167t168.5 -75z
M1356 764q0 103 -61.5 167t-168.5 75l-110 -578q154 14 247 105t93 231z" />
    <glyph glyph-name="uni0425" unicode="&#x425;" horiz-adv-x="1290" 
d="M-84 0l592 776l-258 658h387l111 -349l264 349h387l-512 -666l287 -768h-379l-162 430l-311 -430h-406z" />
    <glyph glyph-name="uni0426" unicode="&#x426;" horiz-adv-x="1581" 
d="M1018 -274l53 274h-1028l279 1434h364l-217 -1123h475l217 1123h365l-217 -1123h164l-115 -585h-340z" />
    <glyph glyph-name="uni0427" unicode="&#x427;" horiz-adv-x="1406" 
d="M799 0l108 557q-66 -18 -133 -29q-49 -8 -137 -8q-190 0 -312 108t-122 298q0 64 14 135l72 373h364l-67 -349q-6 -35 -6 -61q0 -81 45.5 -124.5t126.5 -43.5q105 0 223 47l102 531h365l-279 -1434h-364z" />
    <glyph glyph-name="uni0428" unicode="&#x428;" horiz-adv-x="2027" 
d="M43 0l279 1434h364l-217 -1123h324l217 1123h364l-217 -1123h324l217 1123h364l-278 -1434h-1741z" />
    <glyph glyph-name="uni0429" unicode="&#x429;" horiz-adv-x="2117" 
d="M1554 -274l54 274h-1565l279 1434h364l-217 -1123h324l217 1123h364l-217 -1123h324l217 1123h364l-217 -1123h164l-115 -585h-340z" />
    <glyph glyph-name="uni042A" unicode="&#x42a;" horiz-adv-x="1476" 
d="M248 0l219 1130h-315l59 304h680l-96 -492h192q196 0 311 -115t115 -315q0 -241 -148.5 -376.5t-426.5 -135.5h-590zM670 299h192q93 0 148 50.5t55 135.5q0 72 -41.5 115t-110.5 43h-176z" />
    <glyph glyph-name="uni042B" unicode="&#x42b;" horiz-adv-x="1863" 
d="M43 0l279 1434h364l-96 -492h192q196 0 311 -115t115 -315q0 -241 -148.5 -376.5t-426.5 -135.5h-590zM465 299h192q93 0 148 50.5t55 135.5q0 72 -41 115t-110 43h-177zM1249 0l281 1434h368l-280 -1434h-369z" />
    <glyph glyph-name="uni042C" unicode="&#x42c;" horiz-adv-x="1271" 
d="M43 0l279 1434h364l-96 -492h192q196 0 311 -115t115 -315q0 -241 -148.5 -376.5t-426.5 -135.5h-590zM465 299h192q93 0 148 50.5t55 135.5q0 72 -41 115t-110 43h-177z" />
    <glyph glyph-name="uni042D" unicode="&#x42d;" horiz-adv-x="1456" 
d="M1432 842q1 -181 -51.5 -338.5t-149.5 -273.5t-243 -182t-322 -64q-245 0 -404 120q-158 122 -199 324l330 90q30 -107 101.5 -167t173.5 -60q123 0 218.5 72t147.5 198h-467l62 311h450q-12 135 -83.5 203t-196.5 68q-107 0 -194 -62t-136 -163l-301 104
q77 207 258 317.5t434 110.5q118 0 222 -42t182 -118.5t123 -192.5t45 -255z" />
    <glyph glyph-name="uni042E" unicode="&#x42e;" horiz-adv-x="2125" 
d="M2101 829q3 -241 -100.5 -435.5t-290.5 -303.5t-420 -106q-120 -2 -229.5 43.5t-190.5 126t-128 196.5t-46 248h-168l-116 -598h-369l279 1434h368l-96 -500h158q86 240 282 377q201 139 477 139q266 0 428 -164.5t162 -456.5zM1731 803q0 155 -71.5 245.5t-182.5 90.5
q-122 0 -217.5 -73.5t-145 -190.5t-49.5 -252q0 -154 72 -241t186 -87q113 0 207.5 71t147.5 187.5t53 249.5z" />
    <glyph glyph-name="uni042F" unicode="&#x42f;" horiz-adv-x="1370" 
d="M827 1434h578l-279 -1434h-356l111 569h-74l-465 -569h-401l522 629q-84 51 -131 140t-47 194q0 216 151.5 343.5t390.5 127.5zM936 856l59 303h-166q-97 0 -149.5 -45.5t-52.5 -126.5q0 -56 44.5 -93.5t108.5 -37.5h156z" />
    <glyph glyph-name="uni0430" unicode="&#x430;" horiz-adv-x="1263" 
d="M68 434q-1 90 22.5 178.5t72 168t116 140t160.5 95.5t198 33q159 0 242 -99l16 82h340l-201 -1032h-340l19 88q-88 -104 -250 -104q-184 0 -289.5 122.5t-105.5 327.5zM821 565q0 100 -43 148.5t-119 48.5q-115 0 -183 -83.5t-68 -213.5q0 -90 50 -142.5t130 -52.5
q103 0 168 86q65 89 65 209z" />
    <glyph glyph-name="uni0431" unicode="&#x431;" horiz-adv-x="1273" 
d="M111 590q0 374 192 590q193 217 629 252q221 18 330 59l47 -264q-125 -61 -410 -88q-95 -9 -160 -22t-131.5 -41t-110.5 -78.5t-67 -125.5q139 136 369 136q172 0 286.5 -120.5t114.5 -309.5q0 -272 -165.5 -433t-432.5 -161q-105 0 -193.5 38t-155.5 112t-104.5 191
t-37.5 265zM864 539q0 85 -48.5 133.5t-135.5 48.5q-111 0 -178.5 -72t-67.5 -184q0 -82 53 -138.5t131 -56.5q112 0 179 74.5t67 194.5z" />
    <glyph glyph-name="uni0432" unicode="&#x432;" horiz-adv-x="1110" 
d="M1018 799q0 -159 -148 -236q125 -73 125 -217q0 -147 -120.5 -246.5t-294.5 -99.5h-549l198 1032h465q152 0 238 -63t86 -170zM516 815l-31 -156h117q52 0 82.5 24.5t30.5 66.5q0 65 -82 65h-117zM440 426l-37 -188h138q68 0 106.5 26t38.5 76q0 86 -113 86h-133z" />
    <glyph glyph-name="uni0433" unicode="&#x433;" horiz-adv-x="933" 
d="M31 0l198 1032h772l-51 -270h-432l-147 -762h-340z" />
    <glyph glyph-name="uni0434" unicode="&#x434;" horiz-adv-x="1308" 
d="M-104 -233l98 503h117q64 77 114 238l152 524h848l-148 -762h144l-99 -503h-278l45 233h-670l-45 -233h-278zM403 270h347l94 492h-260l-84 -285q-41 -145 -97 -207z" />
    <glyph glyph-name="uni0435" unicode="&#x435;" horiz-adv-x="1183" 
d="M70 442q-2 112 41 221t121 196t198.5 139.5t261.5 50.5q224 0 328 -119t104 -289q0 -71 -32 -227h-703q17 -77 64 -117.5t116 -40.5q72 0 125 28t107 95l246 -125q-93 -140 -212 -205t-288 -65q-216 0 -346.5 132t-130.5 326zM424 647h393q4 20 4 31q0 56 -42 91.5
t-115 35.5q-77 0 -139.5 -43t-100.5 -115z" />
    <glyph glyph-name="uni0436" unicode="&#x436;" horiz-adv-x="1695" 
d="M-96 0l545 584l-322 448h401l191 -321l61 321h340l-63 -332l297 332h420l-502 -487l319 -545h-379l-213 397l-77 -397h-340l75 391l-346 -391h-407z" />
    <glyph glyph-name="uni0437" unicode="&#x437;" horiz-adv-x="974" 
d="M23 319l280 39v-10q2 -52 35 -83.5t92 -31.5q57 0 95 28.5t38 74.5q0 90 -135 90h-51l43 217h55q66 0 106 28t40 72q0 36 -25 56t-74 20q-48 0 -84 -25.5t-53 -74.5l-227 67q37 120 139 191.5t258 71.5q166 0 255 -70.5t89 -196.5q0 -85 -47.5 -146t-128.5 -93
q62 -25 97.5 -78t35.5 -125q0 -160 -121 -258t-313 -98q-189 0 -293 90t-106 245z" />
    <glyph glyph-name="uni0438" unicode="&#x438;" horiz-adv-x="1277" 
d="M29 0l200 1032h336l-102 -526l469 526h317l-200 -1032h-336l102 526l-469 -526h-317z" />
    <glyph glyph-name="uni0439" unicode="&#x439;" horiz-adv-x="1277" 
d="M29 0l200 1032h336l-102 -526l469 526h317l-200 -1032h-336l102 526l-469 -526h-317zM483 1378q0 29 6 56h213l-2 -21q0 -39 28 -66.5t71 -27.5q112 0 133 115h213q-61 -304 -385 -304q-121 0 -199 69.5t-78 178.5z" />
    <glyph glyph-name="uni043A" unicode="&#x43a;" horiz-adv-x="1153" 
d="M29 0l200 1032h340l-55 -291l281 291h417l-491 -481l328 -551h-385l-222 389l-73 -389h-340z" />
    <glyph glyph-name="uni043B" unicode="&#x43b;" horiz-adv-x="1218" 
d="M-70 -2l52 266q22 -14 71 -14q45 0 73.5 40t51.5 136l146 606h866l-201 -1032h-336l148 762h-256l-86 -367q-54 -221 -147.5 -316t-254.5 -95q-83 0 -127 14z" />
    <glyph glyph-name="uni043C" unicode="&#x43c;" horiz-adv-x="1404" 
d="M29 0l200 1032h310l143 -581l369 581h325l-200 -1032h-295l92 477l-244 -383h-209l-104 383l-92 -477h-295z" />
    <glyph glyph-name="uni043D" unicode="&#x43d;" horiz-adv-x="1257" 
d="M29 0l200 1032h336l-67 -350h327l68 350h336l-201 -1032h-336l80 412h-328l-79 -412h-336z" />
    <glyph glyph-name="uni043E" unicode="&#x43e;" horiz-adv-x="1245" 
d="M70 436q-1 121 41.5 233t120 197t193 135t249.5 48q226 0 364 -126.5t138 -332.5q0 -170 -76.5 -308t-217.5 -218t-321 -80q-216 0 -353.5 127.5t-137.5 324.5zM836 559q0 92 -50.5 147.5t-130.5 55.5q-105 0 -175 -89t-70 -204q0 -95 51 -147t135 -52q105 0 172.5 82
t67.5 207z" />
    <glyph glyph-name="uni043F" unicode="&#x43f;" horiz-adv-x="1236" 
d="M29 0l200 1032h979l-200 -1032h-336l147 762h-307l-147 -762h-336z" />
    <glyph glyph-name="uni0440" unicode="&#x440;" horiz-adv-x="1249" 
d="M-53 -418l282 1450h340l-18 -88q108 105 266 105q166 0 266.5 -117.5t100.5 -313.5q2 -169 -67.5 -314t-203 -234t-301.5 -86q-138 0 -233 77l-12 -61l-80 -418h-340zM844 571q0 87 -41.5 139t-110.5 52q-111 0 -179.5 -90.5t-68.5 -216.5q0 -89 46.5 -137t127.5 -48
q99 0 162.5 90t63.5 211z" />
    <glyph glyph-name="uni0441" unicode="&#x441;" horiz-adv-x="1171" 
d="M66 424q-3 168 77 311.5t229.5 230t334.5 83.5q179 0 286 -75.5t158 -228.5l-315 -120q-22 137 -166 137q-122 0 -193 -91t-71 -210q0 -89 44.5 -140t127.5 -51q130 0 213 138l274 -123q-100 -156 -227.5 -228.5t-305.5 -72.5q-142 0 -249.5 60.5t-162 159.5t-54.5 220z
" />
    <glyph glyph-name="uni0442" unicode="&#x442;" horiz-adv-x="1003" 
d="M233 0l148 762h-289l53 270h914l-53 -270h-289l-148 -762h-336z" />
    <glyph glyph-name="uni0443" unicode="&#x443;" horiz-adv-x="1073" 
d="M25 -418l274 510l-182 940h350l86 -502l254 502h350l-797 -1450h-335z" />
    <glyph glyph-name="uni0444" unicode="&#x444;" horiz-adv-x="1574" 
d="M436 -418l78 404q-205 26 -323.5 153.5t-118.5 313.5q0 253 170 411t479 183l78 403h340l-78 -403q189 -15 316.5 -140t127.5 -313q0 -270 -176.5 -433t-474.5 -175l-78 -404h-340zM565 250l105 532q-120 -18 -191 -106t-71 -207q0 -87 46 -146t111 -73zM1169 567
q0 89 -44 146t-115 69l-105 -532q119 19 191.5 104.5t72.5 212.5z" />
    <glyph glyph-name="uni0445" unicode="&#x445;" horiz-adv-x="1071" 
d="M-88 0l442 565l-200 467h364l76 -196l149 196h375l-389 -481l229 -551h-364l-102 258l-201 -258h-379z" />
    <glyph glyph-name="uni0446" unicode="&#x446;" horiz-adv-x="1292" 
d="M823 -254l49 254h-843l200 1032h336l-147 -762h307l147 762h336l-147 -762h143l-102 -524h-279z" />
    <glyph glyph-name="uni0447" unicode="&#x447;" horiz-adv-x="1198" 
d="M633 0l74 383q-91 -27 -230 -27q-152 0 -239.5 80.5t-87.5 220.5q0 31 10 93l55 282h336l-51 -258q-4 -32 -4 -39q0 -108 125 -108q70 0 137 20l76 385h335l-200 -1032h-336z" />
    <glyph glyph-name="uni0448" unicode="&#x448;" horiz-adv-x="1757" 
d="M29 0l200 1032h336l-147 -762h246l147 762h336l-148 -762h246l148 762h336l-201 -1032h-1499z" />
    <glyph glyph-name="uni0449" unicode="&#x449;" horiz-adv-x="1812" 
d="M1343 -254l50 254h-1364l200 1032h336l-147 -762h246l147 762h336l-148 -762h246l148 762h336l-148 -762h143l-102 -524h-279z" />
    <glyph glyph-name="uni044A" unicode="&#x44a;" horiz-adv-x="1251" 
d="M160 0l151 778h-227l49 254h563l-63 -327h166q161 0 253.5 -88t92.5 -242q0 -177 -122.5 -276t-338.5 -99h-524zM543 246h131q147 0 147 116q0 97 -104 97h-131z" />
    <glyph glyph-name="uni044B" unicode="&#x44b;" horiz-adv-x="1622" 
d="M29 0l200 1032h336l-63 -327h166q161 0 253.5 -88t92.5 -242q0 -177 -122.5 -276t-338.5 -99h-524zM412 246h131q147 0 147 116q0 97 -104 97h-131zM1053 0l198 1032h340l-198 -1032h-340z" />
    <glyph glyph-name="uni044C" unicode="&#x44c;" horiz-adv-x="1120" 
d="M29 0l200 1032h336l-63 -327h166q161 0 253.5 -88t92.5 -242q0 -177 -122.5 -276t-338.5 -99h-524zM412 246h131q147 0 147 116q0 97 -104 97h-131z" />
    <glyph glyph-name="uni044D" unicode="&#x44d;" horiz-adv-x="1159" 
d="M16 254l275 131q18 -63 65.5 -99t124.5 -36q169 0 244 153h-350l43 226h338q-13 78 -64 115.5t-127 37.5q-141 0 -235 -123l-217 125q151 265 491 265q236 0 361 -123t125 -340q2 -115 -43 -224.5t-125 -194t-200.5 -135t-260.5 -48.5q-172 0 -281.5 66t-163.5 204z" />
    <glyph glyph-name="uni044E" unicode="&#x44e;" horiz-adv-x="1710" 
d="M1638 578q1 -122 -43.5 -232.5t-123 -191t-192 -126.5t-243.5 -44q-200 0 -332.5 119t-144.5 309h-115l-79 -412h-336l200 1032h336l-67 -350h102q65 168 208.5 267.5t340.5 99.5q219 0 354 -129.5t135 -341.5zM1311 559q0 92 -50.5 147.5t-130.5 55.5q-108 0 -176.5 -80
t-68.5 -205q0 -95 51.5 -151t134.5 -56q104 0 172 80.5t68 208.5z" />
    <glyph glyph-name="uni044F" unicode="&#x44f;" horiz-adv-x="1126" 
d="M584 1032h514l-201 -1032h-303l70 356h-117l-268 -356h-345l328 420q-117 87 -117 242q0 171 117.5 270.5t321.5 99.5zM709 590l41 209h-154q-64 0 -102.5 -31.5t-38.5 -85.5q0 -42 27.5 -67t76.5 -25h150z" />
    <glyph glyph-name="uni0450" unicode="&#x450;" horiz-adv-x="1183" 
d="M70 442q-2 112 41 221t121 196t198.5 139.5t261.5 50.5q224 0 328 -119t104 -289q0 -71 -32 -227h-703q17 -77 64 -117.5t116 -40.5q72 0 125 28t107 95l246 -125q-93 -140 -212 -205t-288 -65q-216 0 -346.5 132t-130.5 326zM424 647h393q4 20 4 31q0 56 -42 91.5
t-115 35.5q-77 0 -139.5 -43t-100.5 -115zM842 1147h-244l-248 328h422z" />
    <glyph glyph-name="uni0451" unicode="&#x451;" horiz-adv-x="1183" 
d="M70 442q-2 112 41 221t121 196t198.5 139.5t261.5 50.5q224 0 328 -119t104 -289q0 -71 -32 -227h-703q17 -77 64 -117.5t116 -40.5q72 0 125 28t107 95l246 -125q-93 -140 -212 -205t-288 -65q-216 0 -346.5 132t-130.5 326zM424 647h393q4 20 4 31q0 56 -42 91.5
t-115 35.5q-77 0 -139.5 -43t-100.5 -115zM377 1333q0 73 47.5 120.5t120.5 47.5t120.5 -47.5t47.5 -120.5t-47.5 -120.5t-120.5 -47.5t-120.5 47.5t-47.5 120.5zM793 1333q0 73 47.5 120.5t120.5 47.5t120 -47t47 -121t-47 -121t-120 -47t-120.5 47.5t-47.5 120.5z" />
    <glyph glyph-name="uni0452" unicode="&#x452;" horiz-adv-x="1271" 
d="M479 -434l-30 276q123 24 185 78t85 168l96 498q6 34 6 51q0 54 -28 83.5t-82 29.5q-87 0 -147.5 -76t-86.5 -221l-88 -453h-340l217 1124h-123l45 230h123l19 96h340l-19 -96h207l-45 -230h-207l-43 -211q52 62 139 99t187 37q140 0 217.5 -74t77.5 -203q0 -41 -8 -82
l-129 -670q-41 -206 -191 -329q-149 -122 -377 -125z" />
    <glyph glyph-name="uni0453" unicode="&#x453;" horiz-adv-x="933" 
d="M31 0l198 1032h772l-51 -270h-432l-147 -762h-340zM506 1147l190 328h430l-374 -328h-246z" />
    <glyph glyph-name="uni0454" unicode="&#x454;" horiz-adv-x="1159" 
d="M70 446q-2 115 43 224.5t124.5 194.5t200 135.5t260.5 48.5q171 0 281 -66t164 -205l-275 -131q-18 63 -65.5 99t-124.5 36q-169 0 -244 -153h342l-43 -226h-330q13 -78 64 -115.5t127 -37.5q68 0 121 27.5t114 95.5l218 -125q-163 -264 -504 -264q-224 0 -348.5 125
t-124.5 337z" />
    <glyph glyph-name="uni0455" unicode="&#x455;" horiz-adv-x="925" 
d="M-8 285l274 112q12 -71 57 -115t101 -44q50 0 78 20t28 53t-23 51.5t-89 47.5q-29 9 -86 39q-178 99 -178 276q0 139 101 231.5t284 92.5q116 0 207.5 -46.5t136.5 -125.5l-215 -168q-62 90 -144 90q-35 0 -56.5 -17.5t-21.5 -46.5t24 -49t81 -41q140 -51 208 -121.5
t68 -179.5q0 -90 -34.5 -160.5t-92.5 -113t-129 -64.5t-149 -22q-348 0 -430 301z" />
    <glyph glyph-name="uni0456" unicode="&#x456;" horiz-adv-x="600" 
d="M31 0l198 1032h340l-198 -1032h-340zM260 1354q0 85 57.5 142.5t143.5 57.5t143.5 -57.5t57.5 -142.5t-57.5 -143t-143.5 -58t-143.5 58t-57.5 143z" />
    <glyph glyph-name="uni0457" unicode="&#x457;" horiz-adv-x="600" 
d="M31 0l198 1032h340l-198 -1032h-340zM68 1360q0 85 51 139.5t131 54.5t131 -54.5t51 -139.5t-51.5 -140t-130.5 -55t-130.5 55t-51.5 140zM494 1360q0 85 51 139.5t131 54.5t131 -54.5t51 -139.5t-51.5 -140t-130.5 -55t-130.5 55t-51.5 140z" />
    <glyph glyph-name="uni0458" unicode="&#x458;" horiz-adv-x="600" 
d="M-186 -434l-29 278q118 24 180 78t84 166l182 944h340l-178 -921q-99 -508 -579 -545zM264 1354q0 85 57.5 142.5t143.5 57.5t143.5 -57.5t57.5 -142.5t-57.5 -143t-143.5 -58t-143.5 58t-57.5 143z" />
    <glyph glyph-name="uni0459" unicode="&#x459;" horiz-adv-x="1724" 
d="M-70 -2l52 266q22 -14 71 -14q45 0 73.5 40t51.5 136l146 606h845l-63 -327h166q161 0 253.5 -88t92.5 -242q0 -177 -122.5 -276t-338.5 -99h-524l147 762h-235l-86 -367q-54 -221 -147.5 -316t-254.5 -95q-83 0 -127 14zM1016 246h131q147 0 147 116q0 97 -104 97h-131z
" />
    <glyph glyph-name="uni045A" unicode="&#x45a;" horiz-adv-x="1726" 
d="M29 0l200 1032h316l-68 -350h348l68 350h315l-67 -350h139q156 0 247 -82.5t91 -232.5q0 -177 -122 -272t-339 -95h-465l84 436h-348l-84 -436h-315zM1055 238h131q60 0 94.5 30t34.5 80q0 43 -24 65.5t-68 22.5h-131z" />
    <glyph glyph-name="uni045B" unicode="&#x45b;" horiz-adv-x="1253" 
d="M1165 772q0 -41 -8 -82l-133 -690h-340l113 586q6 34 6 51q0 54 -28.5 83.5t-82.5 29.5q-87 0 -147 -76t-86 -221l-88 -453h-340l217 1126h-105l45 230h105l18 94h340l-18 -94h225l-45 -230h-225l-43 -213q52 62 138.5 99t186.5 37q140 0 217.5 -74t77.5 -203z" />
    <glyph glyph-name="uni045C" unicode="&#x45c;" horiz-adv-x="1153" 
d="M29 0l200 1032h340l-55 -291l281 291h417l-491 -481l328 -551h-385l-222 389l-73 -389h-340zM573 1147l191 328h430l-375 -328h-246z" />
    <glyph glyph-name="uni045D" unicode="&#x45d;" horiz-adv-x="1277" 
d="M29 0l200 1032h336l-102 -526l469 526h317l-200 -1032h-336l102 526l-469 -526h-317zM885 1147h-244l-248 328h422z" />
    <glyph glyph-name="uni045E" unicode="&#x45e;" horiz-adv-x="1073" 
d="M25 -418l274 510l-182 940h350l86 -502l254 502h350l-797 -1450h-335zM381 1378q0 29 6 56h213l-2 -21q0 -39 27.5 -66.5t70.5 -27.5q112 0 133 115h213q-61 -304 -385 -304q-121 0 -198.5 69.5t-77.5 178.5z" />
    <glyph glyph-name="uni045F" unicode="&#x45f;" horiz-adv-x="1236" 
d="M317 -254l50 254h-338l200 1032h336l-147 -762h307l147 762h336l-200 -1032h-338l-49 -254h-304z" />
    <glyph glyph-name="uni0462" unicode="&#x462;" horiz-adv-x="1382" 
d="M1313 465q0 -222 -148 -343.5t-415 -121.5h-590l194 997h-260l51 263h258l35 174h365l-35 -174h446l-51 -263h-446l-27 -141h203q198 0 309 -103.5t111 -287.5zM965 436q0 60 -36 90.5t-104 30.5h-192l-51 -258h200q85 0 134 37t49 100z" />
    <glyph glyph-name="uni0463" unicode="&#x463;" horiz-adv-x="1173" 
d="M1061 342q0 -164 -113.5 -253t-324.5 -89h-480l152 778h-223l49 254h223l82 418h311l-82 -418h344l-49 -254h-344l-24 -127h143q159 0 247.5 -80.5t88.5 -228.5zM758 332q0 39 -24 60.5t-68 21.5h-131l-33 -176h135q59 0 90 24.5t31 69.5z" />
    <glyph glyph-name="uni0472" unicode="&#x472;" horiz-adv-x="1568" 
d="M1544 829q2 -176 -58 -333t-166 -270.5t-259 -178.5t-328 -63q-176 0 -320 73t-229.5 211.5t-85.5 317.5q-2 172 57 330.5t164 277.5t260.5 189t335.5 67q184 0 325 -71.5t222.5 -213.5t81.5 -336zM516 860h655q-10 131 -84 205t-186 74q-129 0 -228 -75.5t-157 -203.5z
M1124 573h-655q12 -132 91 -205t198 -73q120 0 217 76t149 202z" />
    <glyph glyph-name="uni0473" unicode="&#x473;" horiz-adv-x="1245" 
d="M1176 598q0 -277 -173.5 -445.5t-463.5 -168.5q-204 0 -336.5 125.5t-132.5 324.5q0 277 173.5 446t463.5 169q204 0 336.5 -125.5t132.5 -325.5zM422 635h434q-12 81 -58.5 124.5t-123.5 43.5q-84 0 -150 -45.5t-102 -122.5zM823 397h-434q12 -81 58.5 -124.5
t123.5 -43.5q84 0 150 45.5t102 122.5z" />
    <glyph glyph-name="uni0474" unicode="&#x474;" horiz-adv-x="1538" 
d="M389 0l-194 1434h360l104 -930l320 629q89 173 190 243q106 74 269 74q149 0 245 -78l-163 -295q-47 41 -105 41q-46 0 -79 -26t-64 -84l-539 -1008h-344z" />
    <glyph glyph-name="uni0475" unicode="&#x475;" horiz-adv-x="1226" 
d="M283 0l-160 1032h332l57 -571l154 315q69 142 153 207q87 66 238 66q157 0 233 -88l-176 -199q-18 29 -61 29q-49 0 -80 -60l-395 -731h-295z" />
    <glyph glyph-name="uni0490" unicode="&#x490;" horiz-adv-x="1157" 
d="M43 0l279 1434h636l70 364h340l-131 -676h-612l-217 -1122h-365z" />
    <glyph glyph-name="uni0491" unicode="&#x491;" horiz-adv-x="929" 
d="M29 0l200 1032h492l49 254h279l-103 -524h-434l-147 -762h-336z" />
    <glyph glyph-name="uni0E3F" unicode="&#xe3f;" horiz-adv-x="1304" 
d="M1227 467q0 -203 -154.5 -335t-408.5 -132h-37l-37 -184h-283l37 184h-301l281 1434h299l36 184h283l-37 -186q177 -11 274 -92.5t97 -233.5q0 -117 -54 -194t-157 -130q79 -58 120.5 -133t41.5 -182zM938 1044q0 54 -32 80.5t-101 26.5h-180l-50 -246h187q80 0 128 36
t48 103zM889 475q0 66 -40 96.5t-128 30.5h-203l-57 -291h209q107 0 163 41.5t56 122.5z" />
    <glyph glyph-name="Wgrave" unicode="&#x1e80;" horiz-adv-x="1918" 
d="M303 0l-98 1434h354l35 -899l354 747h303l82 -747l377 899h361l-648 -1434h-352l-65 713l-349 -713h-354zM1268 1524h-244l-248 327h422z" />
    <glyph glyph-name="wgrave" unicode="&#x1e81;" horiz-adv-x="1564" 
d="M252 0l-135 1032h334l32 -559l248 559h303l29 -559l244 559h342l-529 -1032h-280l-41 567l-258 -567h-289zM1038 1147h-243l-248 328h422z" />
    <glyph glyph-name="Wacute" unicode="&#x1e82;" horiz-adv-x="1918" 
d="M303 0l-98 1434h354l35 -899l354 747h303l82 -747l377 899h361l-648 -1434h-352l-65 713l-349 -713h-354zM1010 1524l190 327h430l-375 -327h-245z" />
    <glyph glyph-name="wacute" unicode="&#x1e83;" horiz-adv-x="1564" 
d="M252 0l-135 1032h334l32 -559l248 559h303l29 -559l244 559h342l-529 -1032h-280l-41 567l-258 -567h-289zM786 1147l191 328h430l-375 -328h-246z" />
    <glyph glyph-name="Wdieresis" unicode="&#x1e84;" horiz-adv-x="1918" 
d="M303 0l-98 1434h354l35 -899l354 747h303l82 -747l377 899h361l-648 -1434h-352l-65 713l-349 -713h-354zM805 1735q0 73 47.5 120.5t120.5 47.5t120.5 -47.5t47.5 -120.5t-47.5 -120.5t-120.5 -47.5t-120.5 47.5t-47.5 120.5zM1221 1735q0 73 47.5 120.5t120.5 47.5
t120 -47t47 -121t-47 -121t-120 -47t-120.5 47.5t-47.5 120.5z" />
    <glyph glyph-name="wdieresis" unicode="&#x1e85;" horiz-adv-x="1564" 
d="M252 0l-135 1032h334l32 -559l248 559h303l29 -559l244 559h342l-529 -1032h-280l-41 567l-258 -567h-289zM573 1333q0 73 47.5 120.5t120.5 47.5t120.5 -47.5t47.5 -120.5t-47.5 -120.5t-120.5 -47.5t-120.5 47.5t-47.5 120.5zM989 1333q0 73 47.5 120.5t120.5 47.5
t120.5 -47.5t47.5 -120.5t-47.5 -120.5t-120.5 -47.5t-120.5 47.5t-47.5 120.5z" />
    <glyph glyph-name="uni1E9E" unicode="&#x1e9e;" horiz-adv-x="1431" 
d="M696 754l258 368h-190q-62 0 -108.5 -43.5t-59.5 -117.5l-186 -961h-365l195 1008q40 210 192 319q149 107 352 107h641l-41 -213l-284 -355q128 -25 196 -113.5t68 -230.5q1 -108 -43.5 -208t-121.5 -173.5t-187 -116t-232 -40.5q-80 0 -150 16t-106 45l62 303
q65 -33 108.5 -46t96.5 -13q96 0 152 60.5t56 146.5q0 96 -56.5 142t-172.5 46h-86z" />
    <glyph glyph-name="Ygrave" unicode="&#x1ef2;" horiz-adv-x="1232" 
d="M330 0l119 610l-254 824h362l131 -476l313 476h394l-578 -824l-119 -610h-368zM928 1524h-244l-248 327h422z" />
    <glyph glyph-name="ygrave" unicode="&#x1ef3;" horiz-adv-x="1073" 
d="M25 -418l274 510l-182 940h350l86 -502l254 502h350l-797 -1450h-335zM782 1147h-243l-248 328h422z" />
    <glyph glyph-name="endash" unicode="&#x2013;" horiz-adv-x="1198" 
d="M111 506l55 287h973l-56 -287h-972z" />
    <glyph glyph-name="emdash" unicode="&#x2014;" horiz-adv-x="1579" 
d="M111 506l55 287h1354l-56 -287h-1353z" />
    <glyph glyph-name="quoteleft" unicode="&#x2018;" horiz-adv-x="692" 
d="M178 934l412 516h237l-254 -516h-395z" />
    <glyph glyph-name="quoteright" unicode="&#x2019;" horiz-adv-x="692" 
d="M129 934l254 516h395l-416 -516h-233z" />
    <glyph glyph-name="quotesinglbase" unicode="&#x201a;" horiz-adv-x="692" 
d="M-96 -217l254 516h395l-416 -516h-233z" />
    <glyph glyph-name="quotedblleft" unicode="&#x201c;" horiz-adv-x="1159" 
d="M178 934l412 516h237l-254 -516h-395zM645 934l412 516h237l-254 -516h-395z" />
    <glyph glyph-name="quotedblright" unicode="&#x201d;" horiz-adv-x="1146" 
d="M129 934l254 516h395l-416 -516h-233zM584 934l254 516h395l-416 -516h-233z" />
    <glyph glyph-name="quotedblbase" unicode="&#x201e;" horiz-adv-x="1146" 
d="M-98 -233l254 516h395l-416 -516h-233zM356 -233l254 516h396l-416 -516h-234z" />
    <glyph glyph-name="dagger" unicode="&#x2020;" horiz-adv-x="1048" 
d="M238 -102l165 856h-294l53 278h295l98 504h336l-98 -504h294l-53 -278h-295l-166 -856h-335z" />
    <glyph glyph-name="daggerdbl" unicode="&#x2021;" horiz-adv-x="1050" 
d="M238 -102l98 503h-295l53 279h295l14 74h-294l53 278h295l98 504h336l-98 -504h294l-53 -278h-295l-14 -74h295l-53 -279h-295l-99 -503h-335z" />
    <glyph glyph-name="bullet" unicode="&#x2022;" horiz-adv-x="854" 
d="M184 676q0 112 81 193t194 81t193.5 -81t80.5 -193q0 -113 -81 -194t-193 -81q-113 0 -194 81.5t-81 193.5z" />
    <glyph glyph-name="ellipsis" unicode="&#x2026;" horiz-adv-x="1918" 
d="M43 174q0 82 54 136.5t136 54.5t136.5 -54.5t54.5 -136.5t-54.5 -136t-136.5 -54t-136 54t-54 136zM702 174q0 82 54.5 136.5t136.5 54.5t136 -54.5t54 -136.5t-54 -136t-136 -54t-136.5 54t-54.5 136zM1362 174q0 82 54 136.5t136 54.5t136.5 -54.5t54.5 -136.5
t-54.5 -136t-136.5 -54t-136 54t-54 136z" />
    <glyph glyph-name="perthousand" unicode="&#x2030;" horiz-adv-x="2666" 
d="M358 -90l-151 143l1386 1473l154 -144zM612 1450q135 0 217 -77t82 -206q0 -151 -112.5 -261.5t-282.5 -110.5q-139 0 -222 75t-83 199q0 156 112 268.5t289 112.5zM453 1098q0 -38 25.5 -62t66.5 -24q51 0 88 37.5t37 91.5q0 43 -23.5 67.5t-64.5 24.5q-54 0 -91.5 -39
t-37.5 -96zM1448 639q135 0 217 -77t82 -206q0 -151 -112.5 -261.5t-282.5 -110.5q-139 0 -222 75t-83 199q0 156 112 268.5t289 112.5zM2234 639q135 0 217 -77t82 -206q0 -151 -112.5 -261.5t-282.5 -110.5q-139 0 -222 75t-83 199q0 156 112 268.5t289 112.5zM1288 287
q0 -38 25.5 -62t66.5 -24q51 0 88 37.5t37 91.5q0 43 -23.5 67.5t-64.5 24.5q-54 0 -91.5 -39t-37.5 -96zM2075 287q0 -38 25.5 -62t66.5 -24q51 0 88 37.5t37 91.5q0 43 -23.5 67.5t-64.5 24.5q-54 0 -91.5 -39t-37.5 -96z" />
    <glyph glyph-name="guilsinglleft" unicode="&#x2039;" horiz-adv-x="835" 
d="M662 78l-574 469l41 192l750 461l-70 -354l-371 -223l285 -230z" />
    <glyph glyph-name="guilsinglright" unicode="&#x203a;" horiz-adv-x="835" 
d="M4 78l70 354l370 223l-284 230l61 315l574 -469l-41 -192z" />
    <glyph glyph-name="fraction" unicode="&#x2044;" horiz-adv-x="675" 
d="M-242 -90l-151 143l1386 1473l154 -144z" />
    <glyph glyph-name="uni2048" unicode="&#x2048;" horiz-adv-x="1540" 
d="M221 676q0 118 67 190.5t236 128.5l19 6q98 31 136 59t38 70q0 70 -96 70q-53 0 -94 -38.5t-52 -94.5l-278 63q49 152 165.5 236t305.5 84q148 0 250 -79.5t102 -199.5q0 -148 -82.5 -226t-278.5 -134l-28 -8q-75 -23 -105 -41t-30 -51q0 -19 13.5 -31t33.5 -12
q47 0 82 65l215 -67q-55 -124 -130.5 -177t-203.5 -53q-70 0 -134 27.5t-107.5 84t-43.5 128.5zM236 166q0 78 52 130t130 52t130 -52t52 -130t-52 -130t-130 -52t-130 52t-52 130zM1075 512l113 922h401l-243 -922h-271zM961 166q0 78 52 130t130 52t130 -52t52 -130
t-52 -130t-130 -52t-130 52t-52 130z" />
    <glyph glyph-name="uni2049" unicode="&#x2049;" horiz-adv-x="1540" 
d="M195 512l112 922h402l-244 -922h-270zM80 166q0 78 52 130t130 52t130 -52t52 -130t-52 -130t-130 -52t-130 52t-52 130zM782 676q0 118 67 190.5t236 128.5l19 6q98 31 136 59t38 70q0 70 -96 70q-53 0 -94 -38.5t-52 -94.5l-278 63q49 152 165.5 236t305.5 84
q148 0 250 -79.5t102 -199.5q0 -148 -82 -226t-278 -134l-29 -8q-75 -23 -105 -41t-30 -51q0 -19 13.5 -31t33.5 -12q47 0 82 65l215 -67q-55 -124 -130.5 -177t-203.5 -53q-70 0 -134 27.5t-107.5 84t-43.5 128.5zM797 166q0 78 52 130t130 52t130 -52t52 -130t-52 -130
t-130 -52t-130 52t-52 130z" />
    <glyph glyph-name="uni2070" unicode="&#x2070;" horiz-adv-x="860" 
d="M162 946q0 136 54 248.5t157.5 180t236.5 67.5q132 0 209.5 -93.5t77.5 -244.5q0 -73 -16.5 -144t-51.5 -135t-85.5 -112.5t-122.5 -77.5t-158 -29q-145 0 -223 89.5t-78 250.5zM664 1102q0 66 -26 104.5t-65 38.5q-84 0 -131 -90q-45 -86 -45 -207q0 -68 25.5 -106.5
t69.5 -38.5q77 0 124 92q48 94 48 207z" />
    <glyph glyph-name="uni2074" unicode="&#x2074;" horiz-adv-x="747" 
d="M424 614l22 125h-356l21 101l452 594h238l-96 -504h83l-36 -191h-86l-23 -125h-219zM385 930h100l37 192z" />
    <glyph glyph-name="uni2075" unicode="&#x2075;" horiz-adv-x="727" 
d="M123 862l211 23q15 -90 94 -90q47 0 73.5 27.5t26.5 78.5q0 90 -88 90q-53 0 -104 -39l-168 35l131 447h492l-37 -185h-318l-43 -119q58 27 131 27q106 0 167 -59t61 -166q0 -138 -95 -232t-247 -94q-128 0 -204.5 70.5t-82.5 185.5z" />
    <glyph glyph-name="uni2076" unicode="&#x2076;" horiz-adv-x="741" 
d="M516 1145h12q99 0 158 -58t59 -165q0 -134 -89.5 -225t-229.5 -91q-126 0 -207.5 69.5t-81.5 180.5q0 108 96 227l287 359h230zM362 866q0 -31 20 -50t52 -19q37 0 60.5 23.5t23.5 60.5q0 33 -18.5 53t-48.5 20q-37 0 -63 -25.5t-26 -62.5z" />
    <glyph glyph-name="uni2077" unicode="&#x2077;" horiz-adv-x="655" 
d="M104 614l388 635h-295l34 185h564l-17 -86l-440 -734h-234z" />
    <glyph glyph-name="uni2078" unicode="&#x2078;" horiz-adv-x="747" 
d="M135 823q0 75 46.5 141t119.5 95q-65 49 -65 137q0 107 86 176.5t221 69.5q109 0 173 -56t64 -137q0 -63 -35 -115t-92 -77q39 -21 64.5 -64.5t25.5 -93.5q0 -132 -96 -213q-95 -80 -239 -80q-123 0 -198 60t-75 157zM584 1229q0 31 -16 49t-46 18q-38 0 -64 -27.5
t-26 -64.5q0 -32 18.5 -49.5t49.5 -17.5q35 0 59.5 27t24.5 65zM522 889q0 69 -65 69q-41 0 -68 -27.5t-27 -66.5q0 -31 20 -50t50 -19q39 0 64.5 25.5t25.5 68.5z" />
    <glyph glyph-name="uni2079" unicode="&#x2079;" horiz-adv-x="741" 
d="M424 903h-12q-92 0 -154.5 62.5t-62.5 169.5q0 129 89.5 218t231.5 89q126 0 206.5 -69t80.5 -181q0 -108 -96 -227l-287 -359h-230zM578 1182q0 31 -20 50t-52 19q-37 0 -60.5 -23.5t-23.5 -60.5q0 -33 18.5 -53t48.5 -20q38 0 63.5 25.5t25.5 62.5z" />
    <glyph glyph-name="uni2080" unicode="&#x2080;" horiz-adv-x="860" 
d="M-39 -86q0 136 54.5 248.5t158 180t236.5 67.5q132 0 209 -93.5t77 -244.5q0 -73 -16.5 -144t-51.5 -135t-85.5 -112.5t-122.5 -77.5t-158 -29q-145 0 -223 89.5t-78 250.5zM463 70q0 66 -25.5 104.5t-64.5 38.5q-84 0 -131 -90q-45 -86 -45 -207q0 -68 25 -106.5
t69 -38.5q78 0 125 92t47 207z" />
    <glyph glyph-name="uni2081" unicode="&#x2081;" horiz-adv-x="512" 
d="M31 -418l104 537l-182 -78l45 227l307 133h117l-158 -819h-233z" />
    <glyph glyph-name="uni2082" unicode="&#x2082;" horiz-adv-x="686" 
d="M-123 -418l14 80l373 365q68 68 68 120q0 62 -62 62q-69 0 -94 -88l-194 51q33 110 114.5 174t202.5 64t192.5 -61.5t71.5 -162.5q0 -132 -133 -262l-160 -157h222l-37 -185h-578z" />
    <glyph glyph-name="uni2083" unicode="&#x2083;" horiz-adv-x="712" 
d="M-78 -158l205 23v-8q0 -37 26 -61.5t64 -24.5q42 0 68 28.5t26 71.5q0 40 -24 63t-60 23q-30 0 -63 -20l-74 116l154 164h-219l34 184h519l-19 -94l-211 -211q90 -7 138.5 -65.5t48.5 -153.5q0 -132 -91 -217q-89 -86 -233 -86q-133 0 -211 74.5t-78 193.5z" />
    <glyph glyph-name="uni2084" unicode="&#x2084;" horiz-adv-x="747" 
d="M223 -418l23 125h-357l21 100l452 594h238l-96 -503h84l-37 -191h-86l-23 -125h-219zM184 -102h101l37 192z" />
    <glyph glyph-name="uni2085" unicode="&#x2085;" horiz-adv-x="727" 
d="M-78 -170l211 23q15 -91 94 -91q47 0 74 28t27 79q0 90 -88 90q-54 0 -105 -39l-168 35l131 446h492l-37 -184h-317l-43 -119q59 27 131 27q106 0 166.5 -59t60.5 -166q0 -138 -95 -232t-247 -94q-128 0 -204.5 70.5t-82.5 185.5z" />
    <glyph glyph-name="uni2086" unicode="&#x2086;" horiz-adv-x="741" 
d="M315 113h13q99 0 158 -58.5t59 -165.5q0 -134 -89.5 -224.5t-230.5 -90.5q-126 0 -207 69.5t-81 180.5q0 108 96 227l286 359h230zM162 -166q0 -31 19.5 -50.5t51.5 -19.5q37 0 60.5 23.5t23.5 60.5q0 33 -18.5 53.5t-48.5 20.5q-37 0 -62.5 -25.5t-25.5 -62.5z" />
    <glyph glyph-name="uni2087" unicode="&#x2087;" horiz-adv-x="655" 
d="M-96 -418l387 635h-295l35 184h563l-16 -86l-441 -733h-233z" />
    <glyph glyph-name="uni2088" unicode="&#x2088;" horiz-adv-x="747" 
d="M-66 -209q0 75 46.5 141t119.5 95q-65 49 -65 137q0 107 86 176.5t221 69.5q109 0 173.5 -56t64.5 -137q0 -63 -35 -115t-92 -77q39 -21 64.5 -64.5t25.5 -93.5q0 -131 -97 -213q-95 -80 -239 -80q-123 0 -198 60t-75 157zM383 197q0 67 -61 67q-38 0 -64.5 -27.5
t-26.5 -64.5q0 -32 18.5 -50t49.5 -18q35 0 59.5 27.5t24.5 65.5zM322 -143q0 33 -17 51t-49 18q-41 0 -67.5 -27.5t-26.5 -66.5q0 -32 19.5 -51t49.5 -19q39 0 65 26t26 69z" />
    <glyph glyph-name="uni2089" unicode="&#x2089;" horiz-adv-x="741" 
d="M223 -129h-12q-92 0 -154.5 62.5t-62.5 168.5q0 129 89.5 218.5t231.5 89.5q126 0 206.5 -69t80.5 -181q0 -109 -96 -228l-287 -358h-229zM377 150q0 31 -20 50t-52 19q-37 0 -60.5 -23.5t-23.5 -60.5q0 -33 19 -53.5t49 -20.5q38 0 63 26t25 63z" />
    <glyph glyph-name="franc" unicode="&#x20a3;" horiz-adv-x="1202" 
d="M1270 1122h-619l-45 -229h494l-60 -311h-493l-25 -127h256l-61 -312h-256l-29 -143h-369l29 143h-104l61 312h103l192 979h987z" />
    <glyph glyph-name="uni20A8" unicode="&#x20a8;" horiz-adv-x="2240" 
d="M43 0l281 1434h528q207 0 316.5 -98t109.5 -269q0 -160 -89.5 -273.5t-242.5 -164.5l271 -629h-381l-252 590h-70l-117 -590h-354zM573 893h172q89 0 142 41.5t53 112.5q0 60 -35.5 86t-107.5 26h-172zM1307 285l274 112q12 -71 57 -115t101 -44q50 0 78 20t28 53
t-23 51.5t-89 47.5q-29 9 -86 39q-179 99 -179 276q0 139 101 231.5t284 92.5q116 0 208 -46.5t137 -125.5l-216 -168q-62 90 -143 90q-35 0 -56.5 -17.5t-21.5 -46.5t24 -49t81 -41q140 -51 208 -121.5t68 -179.5q0 -90 -34.5 -160.5t-92.5 -113t-129 -64.5t-149 -22
q-348 0 -430 301z" />
    <glyph glyph-name="uni20A9" unicode="&#x20a9;" horiz-adv-x="1507" 
d="M1653 1434l-211 -650h90l-53 -278h-129l-164 -506h-402l31 506h-125l-162 -506h-378l22 506h-147l53 278h104l29 650h309l-67 -650h108l156 498h354l-27 -498h109l182 650h318zM778 784h53l13 201zM416 340l59 166h-51zM1014 299l61 207h-47z" />
    <glyph glyph-name="uni20AA" unicode="&#x20aa;" horiz-adv-x="1859" 
d="M43 0l279 1434h794q305 0 305 -246q0 -29 -10 -94l-139 -717h-320l135 696q3 9 3 23q0 59 -68 59h-434l-226 -1155h-319zM520 260q0 48 8 84l138 713h319l-133 -684l-2 -23q0 -33 21 -52t61 -19h418l225 1155h319l-278 -1434h-795q-143 0 -222 68t-79 192z" />
    <glyph glyph-name="dong" unicode="&#x20ab;" horiz-adv-x="987" 
d="M1028 1370h64l-35 -174h-64l-159 -823h-279l12 61q-82 -76 -178 -76q-132 0 -205 79t-73 229q0 91 32 178t87 154t135 108t170 41q102 0 161 -53l19 102h-170l35 174h170l12 64h278zM643 805q0 50 -27.5 77t-72.5 27q-73 0 -119 -67q-45 -62 -45 -140q0 -50 28.5 -78
t73.5 -28q72 0 117 66q45 65 45 143zM2 111l35 174h844l-35 -174h-844z" />
    <glyph glyph-name="Euro" unicode="&#x20ac;" horiz-adv-x="1351" 
d="M242 426h-211l166 254h57l14 74h-176l168 254h84q99 224 266 333t379 109q318 0 428 -248l-291 -153q-49 122 -178 122q-87 0 -154 -37t-120 -126h409l-168 -254h-327l-15 -74h447l-168 -254h-291q19 -75 76 -111t137 -36q143 0 240 135l223 -170q-187 -260 -502 -260
q-199 0 -330.5 110.5t-162.5 331.5z" />
    <glyph glyph-name="uni20AD" unicode="&#x20ad;" horiz-adv-x="1454" 
d="M1550 1434l-524 -498h412l-56 -287h-438l385 -649h-442l-350 621l-121 -621h-369l127 649h-125l55 287h125l99 498h368l-94 -482l481 482h467z" />
    <glyph glyph-name="uni20B1" unicode="&#x20b1;" horiz-adv-x="1468" 
d="M1513 1020h-157q0 -5 -4 -55h149l-14 -76h-150q-48 -166 -197 -255t-358 -89h-221l-106 -545h-369l174 889h-133l14 76h133l11 55h-131l14 76h133l66 338h530q198 0 318 -88.5t137 -249.5h176zM676 1135l-8 -39h309q-29 39 -105 39h-196zM1001 1014v6h-348l-10 -55h352
q6 21 6 49zM950 889h-321l-8 -45h196q85 0 133 45z" />
    <glyph glyph-name="uni20B4" unicode="&#x20b4;" horiz-adv-x="1187" 
d="M1098 956h127l-37 -184h-1096l37 184h594q84 53 84 123q0 32 -21.5 50t-58.5 18q-56 0 -100.5 -34t-85.5 -109l-236 178q69 136 184.5 202t286.5 66q164 0 273 -86q106 -84 106 -229q0 -104 -57 -179zM43 518l37 184h1096l-37 -184h-617q-36 -25 -51.5 -53t-15.5 -70
q0 -43 34 -71.5t82 -28.5q83 0 134 41t96 133l264 -174q-73 -161 -199.5 -236t-337.5 -75q-192 0 -316 102t-124 252q0 103 57 180h-102z" />
    <glyph glyph-name="uni20B8" unicode="&#x20b8;" horiz-adv-x="1138" 
d="M168 1180l49 254h1061l-49 -254h-1061zM287 0l151 778h-348l60 312h1060l-59 -312h-348l-152 -778h-364z" />
    <glyph glyph-name="uni20B9" unicode="&#x20b9;" horiz-adv-x="1216" 
d="M1307 1249h-232q50 -77 53 -172h144l-25 -131h-129q-35 -178 -172.5 -267t-363.5 -89h-86l469 -590h-414l-483 590l53 276h473q135 0 176 80h-633l25 131h620q-26 82 -139 82h-465l53 275h1110z" />
    <glyph glyph-name="uni20BA" unicode="&#x20ba;" horiz-adv-x="1431" 
d="M901 498h348l-10 -54q-32 -163 -92 -257t-173.5 -140.5t-297.5 -46.5h-590l41 211l-168 -86l64 307l163 84l19 98l-168 -86l63 308l164 84l101 514h364l-59 -308l311 160l-63 -307l-308 -158l-20 -98l313 160l-63 -308l-310 -157l-22 -119h201q155 0 182 145z" />
    <glyph glyph-name="uni20BD" unicode="&#x20bd;" horiz-adv-x="1368" 
d="M836 545h-222l-16 -82h506l-49 -256h-506l-41 -207h-369l41 207h-182l49 256h182l17 82h-183l50 256h184l123 633h530q217 0 338 -103.5t121 -292.5q0 -122 -44.5 -217.5t-123 -155t-181 -90t-224.5 -30.5zM729 1135l-55 -291h196q85 0 135 46t50 124q0 121 -129 121
h-197z" />
    <glyph glyph-name="uni20BF" unicode="&#x20bf;" horiz-adv-x="1304" 
d="M1227 467q0 -203 -154.5 -335t-408.5 -132h-11l-28 -143h-136l29 143h-100l-29 -143h-135l29 143h-240l281 1434h237l29 143h135l-29 -143h101l28 143h136l-29 -147q164 -14 254 -95.5t90 -228.5q0 -117 -54 -194t-157 -130q79 -58 120.5 -133t41.5 -182zM938 1044
q0 54 -32 80.5t-101 26.5h-180l-50 -246h187q80 0 128 36t48 103zM889 475q0 66 -40 96.5t-128 30.5h-203l-57 -291h209q107 0 163 41.5t56 122.5z" />
    <glyph glyph-name="uni2113" unicode="&#x2113;" horiz-adv-x="1071" 
d="M782 385l224 -98q-50 -158 -156 -230.5t-268 -72.5q-67 0 -128.5 19.5t-112 57t-80.5 99t-30 139.5q0 51 11 115l4 24l-117 -57l-72 237l84 39l162 78l62 312q77 403 434 403q143 0 234 -75.5t91 -198.5q0 -119 -67 -213q-62 -91 -168 -164q-124 -86 -268 -166l-50 -258
q-4 -36 -4 -43q0 -36 22 -56t56 -20q38 0 75 34.5t62 94.5zM717 1133l-35 -179q149 113 149 203q0 49 -43 49q-26 0 -45 -18.5t-26 -54.5z" />
    <glyph glyph-name="uni2116" unicode="&#x2116;" horiz-adv-x="2451" 
d="M1542 965q0 224 142 354.5t376 130.5q180 0 299 -108t119 -263q0 -222 -144 -353.5t-382 -131.5q-178 0 -294 108t-116 263zM43 0l281 1434h354l305 -856l168 856h332l-281 -1434h-354l-305 856l-168 -856h-332zM2154 1044q0 61 -31 97.5t-85 36.5q-76 0 -124 -53
t-48 -130q0 -56 34.5 -92.5t86.5 -36.5q74 0 120.5 51t46.5 127zM1425 246l50 258h866l-49 -258h-867z" />
    <glyph glyph-name="uni2117" unicode="&#x2117;" horiz-adv-x="1830" 
d="M166 717q-3 164 58.5 313t167 256.5t253 170t309.5 59.5q162 3 309.5 -59.5t253.5 -170t167.5 -257t58.5 -312.5q3 -163 -58.5 -312.5t-167.5 -257t-253.5 -170t-309.5 -59.5q-162 -3 -309.5 59.5t-253 170t-167 256.5t-58.5 313zM954 1278q-235 0 -388.5 -159
t-153.5 -402t153.5 -402t388.5 -159q154 0 278.5 72.5t194.5 201t70 287.5q0 243 -154 402t-389 159zM895 281h-227v872h350q145 0 221 -65t76 -185q0 -131 -71 -190.5t-226 -59.5h-123v-372zM895 975v-144h102q52 0 71 16t19 56t-19 56t-71 16h-102z" />
    <glyph glyph-name="uni2120" unicode="&#x2120;" horiz-adv-x="1779" 
d="M160 821l186 105q41 -121 123 -121q66 0 66 55q0 29 -34.5 53.5t-131.5 67.5q-158 71 -158 225q0 108 72.5 176t197.5 68q103 0 168.5 -42t100.5 -130l-189 -100q-12 30 -34 48.5t-48 18.5q-55 0 -55 -41q0 -22 31.5 -41t124.5 -57q186 -76 186 -250q0 -118 -84 -187
t-213 -69q-118 0 -202 60.5t-107 160.5zM909 614v820h232l182 -435l182 435h232v-820h-224v349l-116 -273h-148l-116 273v-349h-224z" />
    <glyph glyph-name="trademark" unicode="&#x2122;" horiz-adv-x="1859" 
d="M459 614v615h-213v205h649v-205h-213v-615h-223zM989 614v820h232l182 -435l182 435h232v-820h-224v349l-116 -273h-148l-117 273v-349h-223z" />
    <glyph glyph-name="uni2126" unicode="&#x2126;" horiz-adv-x="1519" 
d="M1143 287h254l-56 -287h-577l55 287q172 142 258 277.5t86 285.5q0 133 -72.5 210t-211.5 77q-124 0 -221 -63t-149 -169t-52 -235q0 -107 34 -191.5t115 -191.5l-55 -287h-578l56 287h254q-85 82 -133 202t-48 248q-3 157 60 291.5t173 226.5t261.5 143t323.5 50
q140 0 257 -41.5t196 -113t123 -168.5t44 -207q0 -351 -397 -631z" />
    <glyph glyph-name="estimated" unicode="&#x212e;" horiz-adv-x="1576" 
d="M377 717v-404q68 -104 193 -167.5t266 -63.5q178 0 321 81.5t209 223.5h115q-87 -179 -264 -291q-174 -110 -381 -110q-125 -2 -238.5 35t-201 105.5t-151.5 159.5t-97 202t-31 229q-2 120 31 231.5t97 203t151.5 159.5t201 104.5t238.5 34.5q152 2 286.5 -53t230 -152
t149.5 -234.5t52 -293.5h-1177zM377 1139v-326h928v320q-69 98 -195.5 161.5t-273.5 63.5q-138 0 -260.5 -59t-198.5 -160z" />
    <glyph glyph-name="uni2153" unicode="&#x2153;" horiz-adv-x="1900" 
d="M231 614l105 537l-182 -78l45 227l307 134h117l-158 -820h-234zM270 -90l-151 143l1386 1473l154 -144zM1192 260l205 23v-9q0 -37 26 -61.5t64 -24.5q42 0 68 28.5t26 72.5q0 40 -24 63t-60 23q-29 0 -63 -21l-74 117l153 164h-219l35 184h518l-18 -94l-211 -211
q90 -7 138 -65.5t48 -153.5q0 -132 -90 -219q-90 -84 -233 -84q-133 0 -211 74.5t-78 193.5z" />
    <glyph glyph-name="uni2154" unicode="&#x2154;" horiz-adv-x="2074" 
d="M78 614l14 80l373 365q67 67 67 121q0 61 -61 61q-69 0 -94 -88l-195 51q33 110 115 174t203 64t192.5 -61.5t71.5 -161.5q0 -133 -133 -263l-160 -157h221l-37 -185h-577zM444 -90l-151 143l1386 1473l154 -144zM1366 260l205 23v-9q0 -37 26 -61.5t64 -24.5
q42 0 68 28.5t26 72.5q0 40 -24 63t-60 23q-29 0 -63 -21l-74 117l154 164h-220l35 184h518l-18 -94l-211 -211q90 -7 138 -65.5t48 -153.5q0 -132 -90 -219q-90 -84 -233 -84q-133 0 -211 74.5t-78 193.5z" />
    <glyph glyph-name="oneeighth" unicode="&#x215b;" horiz-adv-x="1914" 
d="M231 614l105 537l-182 -78l45 227l307 134h117l-158 -820h-234zM270 -90l-151 143l1386 1473l154 -144zM1184 209q0 75 46 140.5t120 94.5q-66 50 -66 138q0 107 85.5 176t221.5 69q109 0 173.5 -55.5t64.5 -136.5q0 -63 -35 -115.5t-92 -77.5q39 -21 64.5 -64t25.5 -93
q0 -132 -96 -213q-95 -80 -240 -80q-123 0 -197.5 60t-74.5 157zM1632 614q0 32 -15.5 50t-45.5 18q-38 0 -64 -27.5t-26 -64.5q0 -32 18 -50t49 -18q35 0 59.5 27t24.5 65zM1571 274q0 33 -17 51.5t-49 18.5q-41 0 -67.5 -27.5t-26.5 -66.5q0 -32 20 -51t50 -19
q39 0 64.5 25.5t25.5 68.5z" />
    <glyph glyph-name="threeeighths" unicode="&#x215c;" horiz-adv-x="2095" 
d="M123 874l205 23v-8q0 -37 26 -61.5t64 -24.5q42 0 68 28.5t26 71.5q0 40 -24 63t-60 23q-30 0 -63 -20l-74 116l153 164h-219l35 185h518l-18 -95l-211 -211q90 -7 138 -65.5t48 -153.5q0 -132 -90 -219q-90 -84 -233 -84q-133 0 -211 74.5t-78 193.5zM451 -90l-152 143
l1387 1473l153 -144zM1364 209q0 75 46 140.5t120 94.5q-66 50 -66 138q0 106 86 175.5t222 69.5q109 0 173 -55.5t64 -136.5q0 -63 -35 -115.5t-92 -77.5q39 -21 64.5 -64t25.5 -93q0 -132 -96 -213q-95 -80 -240 -80q-123 0 -197.5 60t-74.5 157zM1812 614q0 32 -15.5 50
t-45.5 18q-38 0 -64 -27.5t-26 -64.5q0 -32 18.5 -50t49.5 -18q35 0 59 27t24 65zM1751 274q0 33 -16.5 51.5t-48.5 18.5q-41 0 -68 -27.5t-27 -66.5q0 -32 20 -51t50 -19q39 0 64.5 25.5t25.5 68.5z" />
    <glyph glyph-name="fiveeighths" unicode="&#x215d;" horiz-adv-x="2088" 
d="M123 862l211 23q15 -90 94 -90q47 0 73.5 27.5t26.5 78.5q0 90 -88 90q-53 0 -104 -39l-168 35l131 447h492l-37 -185h-318l-43 -119q58 27 131 27q106 0 167 -59t61 -166q0 -138 -95 -232t-247 -94q-128 0 -204.5 70.5t-82.5 185.5zM444 -90l-151 143l1386 1473
l154 -144zM1358 209q0 75 46 140.5t120 94.5q-66 50 -66 138q0 107 85.5 176t221.5 69q109 0 173.5 -55.5t64.5 -136.5q0 -63 -35 -115.5t-92 -77.5q39 -21 64.5 -64t25.5 -93q0 -132 -96 -213q-95 -80 -240 -80q-123 0 -197.5 60t-74.5 157zM1806 614q0 32 -15.5 50
t-45.5 18q-38 0 -64 -27.5t-26 -64.5q0 -32 18 -50t49 -18q35 0 59.5 27t24.5 65zM1745 274q0 33 -17 51.5t-49 18.5q-41 0 -67.5 -27.5t-26.5 -66.5q0 -32 20 -51t50 -19q39 0 64.5 25.5t25.5 68.5z" />
    <glyph glyph-name="seveneighths" unicode="&#x215e;" horiz-adv-x="1955" 
d="M104 614l388 635h-295l34 185h564l-17 -86l-440 -734h-234zM311 -90l-151 143l1386 1473l154 -144zM1225 209q0 75 46 140.5t120 94.5q-66 50 -66 138q0 107 85.5 176t221.5 69q109 0 173.5 -55.5t64.5 -136.5q0 -63 -35 -115.5t-92 -77.5q39 -21 64.5 -64t25.5 -93
q0 -132 -96 -213q-95 -80 -240 -80q-123 0 -197.5 60t-74.5 157zM1673 614q0 32 -15.5 50t-45.5 18q-38 0 -64 -27.5t-26 -64.5q0 -32 18 -50t49 -18q35 0 59.5 27t24.5 65zM1612 274q0 33 -17 51.5t-49 18.5q-41 0 -67.5 -27.5t-26.5 -66.5q0 -32 20 -51t50 -19
q39 0 64.5 25.5t25.5 68.5z" />
    <glyph glyph-name="arrowleft" unicode="&#x2190;" horiz-adv-x="1466" 
d="M684 172l-543 545l543 545l186 -193l-213 -219h719v-266h-719l213 -219z" />
    <glyph glyph-name="arrowup" unicode="&#x2191;" horiz-adv-x="1253" 
d="M547 100v717l-219 -211l-193 187l545 542l545 -542l-193 -187l-219 211v-717h-266z" />
    <glyph glyph-name="arrowright" unicode="&#x2192;" horiz-adv-x="1466" 
d="M674 365l211 219h-717v266h717l-211 219l186 193l543 -545l-543 -545z" />
    <glyph glyph-name="arrowdown" unicode="&#x2193;" horiz-adv-x="1253" 
d="M651 100l-545 543l193 186l219 -213v719h266v-719l220 213l192 -186z" />
    <glyph glyph-name="arrowboth" unicode="&#x2194;" horiz-adv-x="1982" 
d="M1376 1262l543 -545l-543 -545l-186 193l211 219h-744l213 -219l-186 -193l-543 545l543 545l186 -193l-213 -219h744l-211 219z" />
    <glyph glyph-name="arrowupdn" unicode="&#x2195;" horiz-adv-x="1384" 
d="M864 356l219 213l193 -186l-545 -543l-545 543l193 186l219 -213v719l-219 -211l-193 187l545 542l545 -542l-193 -187l-219 211v-719z" />
    <glyph glyph-name="uni2196" unicode="&#x2196;" horiz-adv-x="1327" 
d="M1016 227l-506 504v-305h-274v770h770v-274h-310l508 -506z" />
    <glyph glyph-name="uni2197" unicode="&#x2197;" horiz-adv-x="1171" 
d="M270 227l-188 189l508 506h-309v274h770v-770h-275v305z" />
    <glyph glyph-name="uni2198" unicode="&#x2198;" horiz-adv-x="1325" 
d="M399 244v274h310l-508 506l188 188l506 -503v305h274v-770h-770z" />
    <glyph glyph-name="uni2199" unicode="&#x2199;" horiz-adv-x="1171" 
d="M199 244v770h274v-305l506 503l188 -188l-508 -506h310v-274h-770z" />
    <glyph glyph-name="partialdiff" unicode="&#x2202;" horiz-adv-x="1243" 
d="M78 432q-4 171 82.5 314.5t233 224t315.5 78.5q94 0 163 -29q-14 79 -64 127.5t-122 48.5q-156 0 -215 -129l-276 82q51 136 175.5 218.5t282.5 82.5q285 0 412 -169.5t127 -526.5q0 -346 -154 -559q-153 -211 -471 -211q-224 0 -356.5 123.5t-132.5 324.5zM852 575
q0 96 -44 147.5t-126 51.5q-114 0 -189 -96t-75 -221q0 -89 44.5 -144t127.5 -55q119 0 190 92q72 97 72 225z" />
    <glyph glyph-name="uni2206" unicode="&#x2206;" horiz-adv-x="1298" 
d="M-84 0l21 106l753 1328h275l237 -1328l-20 -106h-1266zM354 274h496l-105 734z" />
    <glyph glyph-name="product" unicode="&#x220f;" horiz-adv-x="1220" 
d="M43 0l279 1434h933l-278 -1434h-344l221 1143h-246l-221 -1143h-344z" />
    <glyph glyph-name="summation" unicode="&#x2211;" horiz-adv-x="1132" 
d="M-12 0l26 141l473 576l-247 575l26 142h948l-53 -275h-499l163 -393l-20 -98l-318 -394h502l-53 -274h-948z" />
    <glyph glyph-name="minus" unicode="&#x2212;" horiz-adv-x="1257" 
d="M119 506l55 287h1016l-55 -287h-1016z" />
    <glyph glyph-name="uni2215" unicode="&#x2215;" horiz-adv-x="1208" 
d="M-125 -102l1194 1638h342l-1196 -1638h-340z" />
    <glyph glyph-name="uni2219" unicode="&#x2219;" horiz-adv-x="763" 
d="M172 621q0 98 66.5 165.5t164.5 67.5q97 0 163.5 -67.5t66.5 -165.5t-66.5 -166t-163.5 -68q-98 0 -164.5 67.5t-66.5 166.5z" />
    <glyph glyph-name="radical" unicode="&#x221a;" horiz-adv-x="1110" 
d="M127 823h446l117 -364l275 991h331l-450 -1450h-297l-174 514h-248v309z" />
    <glyph glyph-name="infinity" unicode="&#x221e;" horiz-adv-x="1832" 
d="M145 735q0 178 111 291t297 113q122 0 231 -49.5t174 -145.5q65 96 174.5 145.5t231.5 49.5q186 0 297 -113t111 -291t-111 -290.5t-297 -112.5q-122 0 -231.5 49t-174.5 145q-65 -96 -174 -145t-231 -49q-186 0 -297 112.5t-111 290.5zM788 735q-43 63 -95.5 98
t-106.5 35q-67 0 -105.5 -35t-38.5 -98t38.5 -98t105.5 -35q54 0 106.5 35t95.5 98zM1475 735q0 63 -38.5 98t-105.5 35q-54 0 -107 -35t-96 -98q43 -63 96 -98t107 -35q67 0 105.5 35t38.5 98z" />
    <glyph glyph-name="integral" unicode="&#x222b;" horiz-adv-x="862" 
d="M-184 -391l108 280q53 -36 113 -36q49 0 76 32t41 105l217 1095q36 182 155 273.5t312 91.5q121 0 209 -49l-111 -254q-30 24 -54.5 32.5t-60.5 8.5q-98 0 -119 -123l-223 -1135q-35 -181 -156 -272.5t-311 -91.5q-125 0 -196 43z" />
    <glyph glyph-name="approxequal" unicode="&#x2248;" horiz-adv-x="1302" 
d="M573 256q-54 31 -88.5 43t-76.5 12q-52 0 -96.5 -26t-108.5 -90l-146 188q62 107 176.5 173.5t243.5 66.5q56 0 97.5 -14t111.5 -50q54 -31 89 -43t77 -12q52 0 96.5 26.5t108.5 90.5l145 -189q-62 -107 -176.5 -173t-243.5 -66q-57 0 -98.5 14t-110.5 49zM664 721
q-54 31 -89 43t-77 12q-52 0 -96.5 -26.5t-108.5 -90.5l-146 189q62 107 176.5 173t243.5 66q57 0 98.5 -14t110.5 -49q54 -31 89 -43t77 -12q52 0 96.5 26t108.5 90l145 -188q-62 -107 -176.5 -173.5t-243.5 -66.5q-56 0 -96.5 14t-111.5 50z" />
    <glyph glyph-name="notequal" unicode="&#x2260;" horiz-adv-x="1196" 
d="M344 63l-221 142l63 86h-108l57 287h279l86 114h-344l57 287h512l174 227l221 -141l-63 -86h108l-57 -287h-279l-86 -114h344l-57 -287h-512z" />
    <glyph glyph-name="lessequal" unicode="&#x2264;" horiz-adv-x="1257" 
d="M260 1018l930 416l-68 -344l-487 -216l407 -208l-67 -336l-766 418zM20 0l56 287h1016l-56 -287h-1016z" />
    <glyph glyph-name="greaterequal" unicode="&#x2265;" horiz-adv-x="1257" 
d="M1139 745l-930 -415l67 344l488 215l-408 209l68 336l766 -418zM20 0l56 287h1016l-56 -287h-1016z" />
    <glyph glyph-name="lozenge" unicode="&#x25ca;" horiz-adv-x="1138" 
d="M463 0l-373 717l373 717h295l372 -717l-372 -717h-295zM610 283l209 434l-209 434l-209 -434z" />
    <glyph glyph-name="uniF8FF" unicode="&#xf8ff;" horiz-adv-x="1507" 
d="M1315 0l-15 2l-546 158l-547 -158l-14 -2q-19 0 -32.5 13t-13.5 32v1219q0 14 10 27.5t23 17.5l553 159l21 5l20 -5l553 -159q13 -4 23 -17.5t10 -27.5v-1219q0 -19 -13 -32t-32 -13zM709 1370l-471 -137q12 -191 146.5 -329.5t324.5 -153.5v620zM1270 1233l-471 137
v-620q190 15 324.5 153.5t146.5 329.5zM236 104l473 138v417q-149 12 -274 89t-199 200v-844zM799 659v-417l473 -138v844q-75 -124 -200 -200.5t-273 -88.5z" />
    <glyph glyph-name="fi" unicode="&#xfb01;" horiz-adv-x="1222" 
d="M115 1032h108l4 19q89 399 592 399q233 0 389 -72l-143 -268q-100 66 -268 66q-94 0 -159 -39t-75 -105h629l-199 -1032h-340l150 774h-291l-150 -774h-339l149 774h-109z" />
    <glyph glyph-name="fl" unicode="&#xfb02;" horiz-adv-x="1222" 
d="M23 0l149 774h-109l52 258h108l4 23q33 189 151.5 292t313.5 103h582l-281 -1450h-340l230 1188h-178q-60 0 -91 -28t-43 -87l-8 -41h199l-51 -258h-199l-150 -774h-339z" />
    <glyph glyph-name="uni0122.ss02" horiz-adv-x="1507" 
d="M98 584q-2 135 34 263t108 238t172 192.5t235 128.5t287 44q235 0 375.5 -121t177.5 -344l-338 -84q-25 112 -94.5 175t-173.5 63q-98 2 -182.5 -42.5t-139 -117.5t-85 -163.5t-28.5 -182.5q0 -160 79.5 -249t215.5 -89q193 0 291 182h-235l51 266h577l-145 -743h-279
v111q-127 -127 -358 -127q-110 0 -208.5 41.5t-173.5 117t-119 190t-44 251.5zM401 -627l-28 56q121 72 168 182q-36 11 -61 47t-25 80q0 76 47.5 123t124.5 47q61 0 104 -43t43 -105q0 -110 -115 -219q-117 -111 -258 -168z" />
    <glyph glyph-name="uni0136.ss02" horiz-adv-x="1449" 
d="M43 0l281 1434h368l-94 -482l481 482h467l-686 -652l465 -782h-442l-351 621l-120 -621h-369zM379 -627l-29 56q121 72 168 182q-36 11 -61 47t-25 80q0 76 47 123t125 47q62 0 105 -43t43 -105q0 -110 -115 -219q-117 -111 -258 -168z" />
    <glyph glyph-name="Lcaron.ss02" horiz-adv-x="1159" 
d="M43 0l281 1434h368l-219 -1123h588l-62 -311h-956zM930 1094l-29 55q121 72 168 182q-36 11 -61 47t-25 80q0 76 47.5 123t124.5 47q62 0 105 -43t43 -104q0 -112 -115 -221q-113 -107 -258 -166z" />
    <glyph glyph-name="uni013B.ss02" horiz-adv-x="1159" 
d="M43 0l281 1434h368l-219 -1123h588l-62 -311h-956zM285 -627l-29 56q121 72 168 182q-36 11 -61 47t-25 80q0 76 47 123t125 47q61 0 104 -43t43 -105q0 -111 -114 -219q-117 -111 -258 -168z" />
    <glyph glyph-name="uni0145.ss02" horiz-adv-x="1447" 
d="M43 0l281 1434h354l305 -856l168 856h332l-281 -1434h-354l-305 856l-168 -856h-332zM365 -627l-29 56q121 72 168 182q-36 11 -61 47t-25 80q0 76 47 123t125 47q61 0 104 -43t43 -105q0 -111 -114 -219q-117 -111 -258 -168z" />
    <glyph glyph-name="uni0156.ss02" horiz-adv-x="1357" 
d="M43 0l281 1434h528q207 0 316.5 -98t109.5 -269q0 -160 -89.5 -273.5t-242.5 -164.5l271 -629h-381l-252 590h-70l-117 -590h-354zM573 893h172q89 0 142 41.5t53 112.5q0 60 -35.5 86t-107.5 26h-172zM332 -627l-29 56q121 72 168 182q-36 11 -61 47t-25 80
q0 76 47.5 123t124.5 47q61 0 104.5 -43t43.5 -105q0 -110 -115 -219q-117 -111 -258 -168z" />
    <glyph glyph-name="uni0218.ss02" horiz-adv-x="1122" 
d="M20 395l302 168q6 -120 61 -194t149 -74q65 0 106.5 37.5t41.5 101.5q0 69 -42.5 111t-178.5 112q-240 120 -240 365q0 186 139 307t347 121q301 0 411 -268l-291 -166q-52 131 -145 131q-47 0 -77 -27.5t-30 -70.5q0 -59 51 -105.5t167 -103.5q129 -63 195.5 -153
t66.5 -222q0 -145 -71 -255t-194.5 -168t-279.5 -58q-109 0 -198 33.5t-147.5 92t-94 130.5t-48.5 155zM264 -627l-28 56q119 71 167 182q-36 11 -61 47t-25 80q0 76 47.5 123t124.5 47q61 0 104.5 -43t43.5 -105q0 -110 -115 -219q-117 -111 -258 -168z" />
    <glyph glyph-name="uni021A.ss02" horiz-adv-x="1222" 
d="M326 0l219 1122h-387l61 312h1143l-62 -312h-387l-219 -1122h-368zM250 -627l-29 56q121 72 168 182q-36 11 -61 47t-25 80q0 76 47.5 123t124.5 47q61 0 104.5 -43t43.5 -105q0 -110 -115 -219q-117 -111 -258 -168z" />
    <glyph glyph-name="i.loclTRK" horiz-adv-x="600" 
d="M31 0l198 1032h340l-198 -1032h-340zM260 1354q0 85 57.5 142.5t143.5 57.5t143.5 -57.5t57.5 -142.5t-57.5 -143t-143.5 -58t-143.5 58t-57.5 143z" />
    <glyph glyph-name="a.ss01" horiz-adv-x="1101" 
d="M20 279q0 177 128 266.5t360 89.5h182l8 35q4 32 4 35q-1 47 -36.5 72.5t-98.5 25.5q-127 0 -168 -111l-245 62q30 138 149.5 216.5t292.5 78.5q191 0 298 -82t107 -228q0 -79 -20 -176l-111 -563h-258v111q-100 -127 -282 -127q-133 0 -221 82q-89 83 -89 213zM645 397
l2 13h-137q-82 0 -124 -26.5t-42 -70.5q0 -36 27.5 -56.5t72.5 -20.5q76 0 132.5 44.5t68.5 116.5z" />
    <glyph glyph-name="aacute.ss01" horiz-adv-x="1101" 
d="M20 279q0 177 128 266.5t360 89.5h182l8 35q4 32 4 35q-1 47 -36.5 72.5t-98.5 25.5q-127 0 -168 -111l-245 62q30 138 149.5 216.5t292.5 78.5q191 0 298 -82t107 -228q0 -79 -20 -176l-111 -563h-258v111q-100 -127 -282 -127q-133 0 -221 82q-89 83 -89 213zM645 397
l2 13h-137q-82 0 -124 -26.5t-42 -70.5q0 -36 27.5 -56.5t72.5 -20.5q76 0 132.5 44.5t68.5 116.5zM500 1147l190 328h430l-375 -328h-245z" />
    <glyph glyph-name="abreve.ss01" horiz-adv-x="1101" 
d="M20 279q0 177 128 266.5t360 89.5h182l8 35q4 32 4 35q-1 47 -36.5 72.5t-98.5 25.5q-127 0 -168 -111l-245 62q30 138 149.5 216.5t292.5 78.5q191 0 298 -82t107 -228q0 -79 -20 -176l-111 -563h-258v111q-100 -127 -282 -127q-133 0 -221 82q-89 83 -89 213zM645 397
l2 13h-137q-82 0 -124 -26.5t-42 -70.5q0 -36 27.5 -56.5t72.5 -20.5q76 0 132.5 44.5t68.5 116.5zM416 1391q0 15 4 43h211l-2 -13q0 -45 47 -45q24 0 42 16.5t23 41.5h211q-24 -115 -100.5 -180.5t-198.5 -65.5q-108 0 -172.5 57t-64.5 146z" />
    <glyph glyph-name="acircumflex.ss01" horiz-adv-x="1101" 
d="M20 279q0 177 128 266.5t360 89.5h182l8 35q4 32 4 35q-1 47 -36.5 72.5t-98.5 25.5q-127 0 -168 -111l-245 62q30 138 149.5 216.5t292.5 78.5q191 0 298 -82t107 -228q0 -79 -20 -176l-111 -563h-258v111q-100 -127 -282 -127q-133 0 -221 82q-89 83 -89 213zM645 397
l2 13h-137q-82 0 -124 -26.5t-42 -70.5q0 -36 27.5 -56.5t72.5 -20.5q76 0 132.5 44.5t68.5 116.5zM201 1147l434 393h90l285 -393h-281l-86 115l-125 -115h-317z" />
    <glyph glyph-name="adieresis.ss01" horiz-adv-x="1101" 
d="M20 279q0 177 128 266.5t360 89.5h182l8 35q4 32 4 35q-1 47 -36.5 72.5t-98.5 25.5q-127 0 -168 -111l-245 62q30 138 149.5 216.5t292.5 78.5q191 0 298 -82t107 -228q0 -79 -20 -176l-111 -563h-258v111q-100 -127 -282 -127q-133 0 -221 82q-89 83 -89 213zM645 397
l2 13h-137q-82 0 -124 -26.5t-42 -70.5q0 -36 27.5 -56.5t72.5 -20.5q76 0 132.5 44.5t68.5 116.5zM287 1333q0 73 47.5 120.5t120.5 47.5t120.5 -47.5t47.5 -120.5t-47.5 -120.5t-120.5 -47.5t-120.5 47.5t-47.5 120.5zM702 1333q0 73 47 120.5t121 47.5t121 -47.5
t47 -120.5t-47 -120.5t-121 -47.5t-121 47.5t-47 120.5z" />
    <glyph glyph-name="agrave.ss01" horiz-adv-x="1101" 
d="M20 279q0 177 128 266.5t360 89.5h182l8 35q4 32 4 35q-1 47 -36.5 72.5t-98.5 25.5q-127 0 -168 -111l-245 62q30 138 149.5 216.5t292.5 78.5q191 0 298 -82t107 -228q0 -79 -20 -176l-111 -563h-258v111q-100 -127 -282 -127q-133 0 -221 82q-89 83 -89 213zM645 397
l2 13h-137q-82 0 -124 -26.5t-42 -70.5q0 -36 27.5 -56.5t72.5 -20.5q76 0 132.5 44.5t68.5 116.5zM752 1147h-244l-248 328h422z" />
    <glyph glyph-name="amacron.ss01" horiz-adv-x="1101" 
d="M20 279q0 177 128 266.5t360 89.5h182l8 35q4 32 4 35q-1 47 -36.5 72.5t-98.5 25.5q-127 0 -168 -111l-245 62q30 138 149.5 216.5t292.5 78.5q191 0 298 -82t107 -228q0 -79 -20 -176l-111 -563h-258v111q-100 -127 -282 -127q-133 0 -221 82q-89 83 -89 213zM645 397
l2 13h-137q-82 0 -124 -26.5t-42 -70.5q0 -36 27.5 -56.5t72.5 -20.5q76 0 132.5 44.5t68.5 116.5zM352 1200l49 250h568l-47 -250h-570z" />
    <glyph glyph-name="aogonek.ss01" horiz-adv-x="1101" 
d="M1001 739q0 -79 -20 -176l-111 -563l-47 -35q-88 -67 -88 -110q0 -37 37 -37q23 0 49 16l35 -201q-59 -26 -151 -26q-94 0 -144.5 45.5t-50.5 120.5q0 77 43.5 135.5t122.5 91.5h-64v111q-100 -127 -282 -127q-133 0 -221 82q-89 83 -89 213q0 177 128 266.5t360 89.5
h182l8 35q4 32 4 35q-1 47 -36.5 72.5t-98.5 25.5q-127 0 -168 -111l-245 62q30 138 149.5 216.5t292.5 78.5q191 0 298 -82t107 -228zM645 397l2 13h-137q-82 0 -124 -26.5t-42 -70.5q0 -36 27.5 -56.5t72.5 -20.5q76 0 132.5 44.5t68.5 116.5z" />
    <glyph glyph-name="aring.ss01" horiz-adv-x="1101" 
d="M20 279q0 177 128 266.5t360 89.5h182l8 35q4 32 4 35q-1 47 -36.5 72.5t-98.5 25.5q-127 0 -168 -111l-245 62q30 138 149.5 216.5t292.5 78.5q191 0 298 -82t107 -228q0 -79 -20 -176l-111 -563h-258v111q-100 -127 -282 -127q-133 0 -221 82q-89 83 -89 213zM645 397
l2 13h-137q-82 0 -124 -26.5t-42 -70.5q0 -36 27.5 -56.5t72.5 -20.5q76 0 132.5 44.5t68.5 116.5zM446 1341q0 94 63 157t159 63t158.5 -63t62.5 -157t-62.5 -156.5t-158.5 -62.5t-159 62.5t-63 156.5zM729 1341q0 30 -16 48t-45 18t-45.5 -18t-16.5 -48t16.5 -47.5
t45.5 -17.5t45 17.5t16 47.5z" />
    <glyph glyph-name="aringacute.ss01" horiz-adv-x="1101" 
d="M20 279q0 177 128 266.5t360 89.5h182l8 35q4 32 4 35q-1 47 -36.5 72.5t-98.5 25.5q-127 0 -168 -111l-245 62q30 138 149.5 216.5t292.5 78.5q191 0 298 -82t107 -228q0 -79 -20 -176l-111 -563h-258v111q-100 -127 -282 -127q-133 0 -221 82q-89 83 -89 213zM645 397
l2 13h-137q-82 0 -124 -26.5t-42 -70.5q0 -36 27.5 -56.5t72.5 -20.5q76 0 132.5 44.5t68.5 116.5zM446 1341q0 94 63 157t159 63t158.5 -63t62.5 -157t-62.5 -156.5t-158.5 -62.5t-159 62.5t-63 156.5zM729 1341q0 30 -16 48t-45 18t-45.5 -18t-16.5 -48t16.5 -47.5
t45.5 -17.5t45 17.5t16 47.5zM596 1632l190 328h431l-375 -328h-246z" />
    <glyph glyph-name="atilde.ss01" horiz-adv-x="1101" 
d="M20 279q0 177 128 266.5t360 89.5h182l8 35q4 32 4 35q-1 47 -36.5 72.5t-98.5 25.5q-127 0 -168 -111l-245 62q30 138 149.5 216.5t292.5 78.5q191 0 298 -82t107 -228q0 -79 -20 -176l-111 -563h-258v111q-100 -127 -282 -127q-133 0 -221 82q-89 83 -89 213zM645 397
l2 13h-137q-82 0 -124 -26.5t-42 -70.5q0 -36 27.5 -56.5t72.5 -20.5q76 0 132.5 44.5t68.5 116.5zM383 1145l-150 133q57 90 138 142.5t172 52.5q45 0 77 -9.5t82 -33.5q56 -33 103 -33q36 0 65.5 19.5t65.5 64.5l149 -133q-120 -195 -290 -195q-76 0 -168 45
q-58 31 -105 31q-73 0 -139 -84z" />
    <glyph glyph-name="ae.ss01" horiz-adv-x="1777" 
d="M20 279q0 177 128 266.5t360 89.5h182l8 35q4 32 4 35q-1 47 -36.5 72.5t-98.5 25.5q-127 0 -168 -111l-245 62q30 138 149.5 216.5t292.5 78.5q118 0 197.5 -35t128.5 -113q131 148 364 148q224 0 328 -119t104 -289q0 -51 -12 -115l-20 -112h-703q17 -77 64 -117.5
t116 -40.5q72 0 125 28t107 95l245 -125q-93 -141 -211.5 -205.5t-287.5 -64.5q-129 0 -230 48.5t-163 137.5q-143 -186 -375 -186q-161 0 -257 80.5t-96 214.5zM1018 647h393q4 20 4 31q0 56 -42.5 91.5t-115.5 35.5q-77 0 -139 -43t-100 -115zM645 397l2 13h-137
q-82 0 -124 -26.5t-42 -70.5q0 -36 27.5 -56.5t72.5 -20.5q76 0 132.5 44.5t68.5 116.5z" />
    <glyph glyph-name="aeacute.ss01" horiz-adv-x="1777" 
d="M20 279q0 177 128 266.5t360 89.5h182l8 35q4 32 4 35q-1 47 -36.5 72.5t-98.5 25.5q-127 0 -168 -111l-245 62q30 138 149.5 216.5t292.5 78.5q118 0 197.5 -35t128.5 -113q131 148 364 148q224 0 328 -119t104 -289q0 -51 -12 -115l-20 -112h-703q17 -77 64 -117.5
t116 -40.5q72 0 125 28t107 95l245 -125q-93 -141 -211.5 -205.5t-287.5 -64.5q-129 0 -230 48.5t-163 137.5q-143 -186 -375 -186q-161 0 -257 80.5t-96 214.5zM1018 647h393q4 20 4 31q0 56 -42.5 91.5t-115.5 35.5q-77 0 -139 -43t-100 -115zM645 397l2 13h-137
q-82 0 -124 -26.5t-42 -70.5q0 -36 27.5 -56.5t72.5 -20.5q76 0 132.5 44.5t68.5 116.5zM844 1147l190 328h430l-374 -328h-246z" />
    <glyph glyph-name="dcaron.ss02" horiz-adv-x="1589" 
d="M66 414q-1 120 37 234t107.5 204.5t179 144.5t241.5 52q83 0 137 -24.5t98 -74.5l97 500h340l-283 -1450h-340l18 88q-47 -56 -105 -80t-144 -24q-167 0 -275 122.5t-108 307.5zM807 578q0 184 -154 184q-109 0 -178 -94.5t-69 -208.5q0 -189 176 -189q94 0 159.5 90
t65.5 218zM1401 1094l-29 55q121 72 168 182q-36 11 -61 47t-25 80q0 76 47 123t125 47q62 0 105 -43t43 -104q0 -112 -115 -221q-113 -107 -258 -166z" />
    <glyph glyph-name="uni0123.ss02" horiz-adv-x="1052" 
d="M-78 -131q0 147 131 252q-28 54 -28 115q0 164 188 266q-51 68 -51 157q0 160 124 275t312 115q115 0 199 -41l229 114l90 -188l-172 -80q21 -53 21 -119q0 -187 -116 -283t-317 -96q-85 0 -155 25q-37 -18 -51.5 -36t-14.5 -44q0 -25 21 -40t57 -15h193
q146 0 234.5 -71.5t88.5 -201.5q0 -200 -136.5 -303.5t-397.5 -103.5q-195 0 -322 84.5t-127 218.5zM666 719q0 39 -24.5 63.5t-66.5 24.5q-51 0 -84.5 -36.5t-33.5 -90.5q0 -36 26 -59t64 -23q54 0 86.5 33.5t32.5 87.5zM596 -80q0 40 -30 56t-93 16h-143q-41 0 -99 10
q-22 -28 -22 -70q0 -59 53 -89.5t148 -30.5q84 0 135 27.5t51 80.5zM866 1690l29 -56q-121 -72 -168 -182q38 -11 62 -44t24 -77q0 -74 -52 -125t-130 -51q-61 0 -99 38.5t-38 100.5q0 73 57 153.5t140.5 142.5t174.5 100z" />
    <glyph glyph-name="uni0137.ss02" horiz-adv-x="1155" 
d="M31 0l280 1450h340l-135 -709l281 291h417l-491 -481l328 -551h-385l-222 389l-73 -389h-340zM262 -627l-29 56q121 72 168 182q-36 11 -61 47t-25 80q0 76 47.5 123t124.5 47q61 0 104.5 -43t43.5 -105q0 -110 -115 -219q-117 -111 -258 -168z" />
    <glyph glyph-name="lcaron.ss02" horiz-adv-x="929" 
d="M31 0l280 1450h340l-280 -1450h-340zM741 1094l-28 55q121 72 168 182q-36 11 -61 47t-25 80q0 76 47.5 123t124.5 47q61 0 104 -43t43 -104q0 -112 -115 -221q-113 -107 -258 -166z" />
    <glyph glyph-name="uni013C.ss02" horiz-adv-x="600" 
d="M31 0l280 1450h340l-280 -1450h-340zM-59 -627l-29 56q121 72 168 182q-36 11 -61 47t-25 80q0 76 47 123t125 47q61 0 104 -43t43 -105q0 -111 -114 -219q-117 -111 -258 -168z" />
    <glyph glyph-name="uni0146.ss02" horiz-adv-x="1234" 
d="M29 0l200 1032h340l-24 -119q109 136 301 136q139 0 218 -80t79 -217q0 -52 -8 -88l-129 -664h-340l118 610q4 28 4 37q0 103 -100 103q-81 0 -143 -78.5t-88 -218.5l-88 -453h-340zM256 -627l-29 56q121 72 168 182q-36 11 -61 47t-25 80q0 76 47.5 123t124.5 47
q61 0 104.5 -43t43.5 -105q0 -110 -115 -219q-117 -111 -258 -168z" />
    <glyph glyph-name="uni0157.ss02" horiz-adv-x="909" 
d="M29 0l200 1032h340l-22 -112q116 129 309 129q68 0 131 -29l-133 -305q-46 30 -100 30q-114 0 -195.5 -93t-118.5 -285l-71 -367h-340zM-63 -627l-29 56q121 72 168 182q-36 11 -61 47t-25 80q0 76 47 123t125 47q61 0 104 -43t43 -105q0 -111 -114 -219
q-117 -111 -258 -168z" />
    <glyph glyph-name="uni0219.ss02" horiz-adv-x="925" 
d="M-8 285l274 112q12 -71 57 -115t101 -44q50 0 78 20t28 53t-23 51.5t-89 47.5q-29 9 -86 39q-178 99 -178 276q0 139 101 231.5t284 92.5q116 0 207.5 -46.5t136.5 -125.5l-215 -168q-62 90 -144 90q-35 0 -56.5 -17.5t-21.5 -46.5t24 -49t81 -41q140 -51 208 -121.5
t68 -179.5q0 -90 -34.5 -160.5t-92.5 -113t-129 -64.5t-149 -22q-348 0 -430 301zM125 -627l-29 56q121 72 168 182q-36 11 -61 47t-25 80q0 76 47 123t125 47q62 0 105 -43t43 -105q0 -110 -115 -219q-117 -111 -258 -168z" />
    <glyph glyph-name="tcaron.ss02" horiz-adv-x="823" 
d="M131 311q0 49 8 90l72 373h-145l49 258h145l43 213l371 205l-82 -418h258l-49 -258h-256l-68 -346q-6 -35 -6 -59q0 -42 25.5 -66t72.5 -24q55 0 107 24l20 -270q-92 -49 -225 -49q-154 0 -247 89t-93 238zM713 1094l-29 55q121 72 168 182q-36 11 -61 47t-25 80
q0 76 47 123t125 47q62 0 104.5 -43t42.5 -104q0 -113 -114 -221q-113 -107 -258 -166z" />
    <glyph glyph-name="uni021B.ss02" horiz-adv-x="823" 
d="M131 311q0 49 8 90l72 373h-145l49 258h145l43 213l371 205l-82 -418h258l-49 -258h-256l-68 -346q-6 -35 -6 -59q0 -42 25.5 -66t72.5 -24q55 0 107 24l20 -270q-92 -49 -225 -49q-154 0 -247 89t-93 238zM164 -627l-29 56q121 72 168 182q-36 11 -61 47t-25 80
q0 76 47.5 123t124.5 47q61 0 104.5 -43t43.5 -105q0 -110 -115 -219q-117 -111 -258 -168z" />
    <glyph glyph-name="f_b" horiz-adv-x="1878" 
d="M1012 88l-19 -88h-340l232 1188h-180q-60 0 -91 -28t-43 -87l-8 -41h199l-51 -258h-199l-150 -774h-339l149 774h-109l52 258h108l4 23q33 189 151.5 292t313.5 103h584l-82 -418l-12 -65q29 37 95.5 59.5t145.5 22.5q174 0 280.5 -121.5t106.5 -306.5q0 -180 -67 -323.5
t-196.5 -228.5t-299.5 -85q-73 0 -135.5 28t-99.5 76zM1470 553q0 102 -45 155.5t-127 53.5q-97 0 -164 -86t-67 -209q0 -88 48 -142.5t118 -54.5q100 0 168.5 85.5t68.5 197.5z" />
    <glyph glyph-name="f_f_b" horiz-adv-x="2508" 
d="M1642 88l-18 -88h-340l232 1188h-181q-60 0 -90.5 -28t-42.5 -87l-8 -41h199l-52 -258h-198l-150 -774h-340l150 774h-291l-150 -774h-339l149 774h-109l52 258h108l4 21q41 204 151.5 300.5t305.5 96.5q139 0 227 -49l-114 -250q-37 37 -97 37q-107 0 -129 -115l-8 -41
h291l4 23q33 189 151.5 292t313.5 103h584l-82 -418l-13 -65q29 37 96 59.5t146 22.5q174 0 280.5 -121.5t106.5 -306.5q0 -180 -67 -323.5t-196.5 -228.5t-299.5 -85q-73 0 -136 28t-100 76zM2101 553q0 102 -45 155.5t-127 53.5q-97 0 -164 -86t-67 -209q0 -88 48 -142.5
t118 -54.5q100 0 168.5 85.5t68.5 197.5z" />
    </font>
</defs>
</svg>
