<?xml version="1.0" standalone="no"?>
<!DOCTYPE svg PUBLIC "-//W3C//DTD SVG 1.1//EN" "http://www.w3.org/Graphics/SVG/1.1/DTD/svg11.dtd" >
<svg xmlns="http://www.w3.org/2000/svg" xmlns:xlink="http://www.w3.org/1999/xlink" version="1.1">
<metadata>
Created by FontForge 20170731 at Sun Feb 14 19:14:55 2021
 By Aleksey,,,
Copyright (c) 2017 by Colophon Foundry. All rights reserved.
</metadata>
<defs>
<font id="ApercuMonoPro-Medium" horiz-adv-x="1269" >
  <font-face 
    font-family="Apercu Mono Pro Medium"
    font-weight="500"
    font-stretch="normal"
    units-per-em="2048"
    panose-1="2 1 6 9 4 0 0 4 0 3"
    ascent="1614"
    descent="-434"
    x-height="1032"
    cap-height="1434"
    bbox="-1262 -573 1356 2302"
    underline-thickness="126"
    underline-position="-454"
    unicode-range="U+000D-FB02"
  />
<missing-glyph 
d="M176 0v1434h916v-1434h-916zM348 156h572v1122h-572v-1122z" />
    <glyph glyph-name="fi" unicode="fi" 
d="M346 0v846h-201v186h201v60q0 172 105.5 265t277.5 93q115 0 200 -37.5t158 -118.5l-143 -135q-55 60 -101.5 83.5t-109.5 23.5q-80 0 -127 -43t-47 -123v-68h567v-1032h-213v846h-354v-846h-213z" />
    <glyph glyph-name="fl" unicode="fl" 
d="M242 0v846h-160v186h160v45q0 182 86.5 273.5t249.5 91.5h518v-1442h-213v1255h-299q-129 0 -129 -161v-62h215v-186h-215v-846h-213z" />
    <glyph glyph-name=".notdef" 
d="M176 0v1434h916v-1434h-916zM348 156h572v1122h-572v-1122z" />
    <glyph glyph-name=".null" horiz-adv-x="0" 
 />
    <glyph glyph-name="nonmarkingreturn" horiz-adv-x="682" 
 />
    <glyph glyph-name="CR" unicode="&#xd;" 
 />
    <glyph glyph-name="space" unicode=" " 
 />
    <glyph glyph-name="exclam" unicode="!" 
d="M547 453l-53 981h284l-53 -981h-178zM479 143q0 66 45 112t111 46t112 -46t46 -112t-46 -110.5t-112 -44.5t-111 44.5t-45 110.5z" />
    <glyph glyph-name="quotedbl" unicode="&#x22;" 
d="M367 944l-58 506h260l-57 -506h-145zM756 944l-58 506h263l-58 -506h-147z" />
    <glyph glyph-name="numbersign" unicode="#" 
d="M197 0l75 412h-196v176h229l47 260h-205v176h238l74 410h182l-74 -410h250l76 410h182l-76 -410h197v-176h-229l-47 -260h204v-176h-237l-74 -412h-182l74 412h-250l-76 -412h-182zM487 588h250l47 260h-249z" />
    <glyph glyph-name="dollar" unicode="$" 
d="M766 -8v-197h-207v197q-172 25 -286.5 132.5t-149.5 283.5l203 77q71 -292 340 -292q108 0 177.5 56.5t69.5 151.5t-66.5 143.5t-248.5 102.5q-189 54 -286 152t-97 262q0 148 92.5 251.5t251.5 129.5v196h207v-198q127 -24 215 -102.5t127 -194.5l-186 -94
q-76 192 -263 192q-100 0 -160.5 -49.5t-60.5 -138.5t66.5 -136t234.5 -90q100 -26 170 -58.5t123.5 -80t79 -114t25.5 -154.5q0 -179 -100 -290t-271 -138z" />
    <glyph glyph-name="percent" unicode="%" 
d="M27 1122q0 139 94.5 233.5t236.5 94.5t237 -94.5t95 -233.5q0 -136 -95.5 -231.5t-236.5 -95.5t-236 95.5t-95 231.5zM522 1122q0 75 -45 122.5t-119 47.5q-73 0 -117 -48t-44 -122t44 -122t117 -48q74 0 119 47.5t45 122.5zM162 285l-88 116l1026 740l88 -117zM580 311
q0 139 94.5 233.5t236.5 94.5t237 -94.5t95 -233.5q0 -136 -95.5 -231.5t-236.5 -95.5t-236 95.5t-95 231.5zM1075 311q0 75 -45 122.5t-119 47.5q-73 0 -117 -48t-44 -122t44 -122t117 -48q74 0 119 47.5t45 122.5z" />
    <glyph glyph-name="ampersand" unicode="&#x26;" 
d="M45 416q0 143 77 258.5t200 181.5q-113 149 -113 289q0 130 92.5 217.5t233.5 87.5q147 0 236 -84.5t89 -202.5q0 -115 -68 -206.5t-188 -155.5l268 -344q46 95 101 252l131 -150q-48 -157 -107 -264l230 -295h-254l-103 131q-153 -147 -381 -147q-197 0 -320.5 116.5
t-123.5 315.5zM666 1145q0 54 -37 88.5t-94 34.5t-94.5 -37.5t-37.5 -97.5q0 -81 84 -191q89 45 134 92t45 111zM750 289l-320 418q-83 -48 -129.5 -123.5t-46.5 -167.5q0 -105 67 -170.5t171 -65.5q81 0 142 26.5t116 82.5z" />
    <glyph glyph-name="quotesingle" unicode="'" 
d="M563 944l-57 506h260l-57 -506h-146z" />
    <glyph glyph-name="parenleft" unicode="(" 
d="M489 717q0 271 58 457q59 191 162 362h194q-104 -176 -153.5 -371t-49.5 -448q0 -256 48.5 -446.5t154.5 -372.5h-194q-103 171 -162 362q-58 186 -58 457z" />
    <glyph glyph-name="parenright" unicode=")" 
d="M569 717q0 255 -49 450t-153 369h196q105 -175 160 -362q57 -183 57 -457q0 -276 -57 -459q-54 -183 -160 -360h-196q102 176 151 364q51 185 51 455z" />
    <glyph glyph-name="asterisk" unicode="*" 
d="M485 713l-143 104l150 207l-244 82l55 168l246 -80v256h174v-256l246 80l55 -168l-246 -82l152 -207l-144 -104l-151 209z" />
    <glyph glyph-name="plus" unicode="+" 
d="M543 182v377h-377v186h377v375h186v-375h375v-186h-375v-377h-186z" />
    <glyph glyph-name="comma" unicode="," 
d="M406 -266l135 526h290l-276 -526h-149z" />
    <glyph glyph-name="hyphen" unicode="-" 
d="M279 557v186h714v-186h-714z" />
    <glyph glyph-name="period" unicode="." 
d="M481 143q0 67 44 111.5t110 44.5q67 0 111.5 -44.5t44.5 -111.5q0 -66 -44.5 -110.5t-111.5 -44.5q-66 0 -110 44.5t-44 110.5z" />
    <glyph glyph-name="slash" unicode="/" 
d="M117 -102l831 1638h211l-831 -1638h-211z" />
    <glyph glyph-name="zero" unicode="0" 
d="M109 717q0 344 137 536q138 197 389 197t389 -197q137 -192 137 -536t-137 -539q-138 -194 -389 -194t-389 194q-137 195 -137 539zM377 391l385 826q-49 32 -127 32q-151 0 -230 -138t-79 -394q0 -195 51 -326zM944 717q0 186 -47 313l-381 -815q54 -31 119 -31
q151 0 230 138.5t79 394.5z" />
    <glyph glyph-name="one" unicode="1" 
d="M240 0v197h348v927l-318 -188v233l443 265h90v-1237h346v-197h-909z" />
    <glyph glyph-name="two" unicode="2" 
d="M186 0v92l539 680q65 81 90 139.5t25 126.5q0 99 -52.5 155t-148.5 56q-90 0 -147.5 -59t-71.5 -164l-207 39q12 164 135.5 274.5t292.5 110.5q194 0 305 -109.5t111 -296.5q0 -171 -119 -325l-408 -518h555v-201h-899z" />
    <glyph glyph-name="three" unicode="3" 
d="M156 395l209 29q47 -240 258 -240q117 0 187.5 73.5t70.5 199.5q0 129 -69.5 202.5t-186.5 73.5q-69 0 -127 -28l-86 120l297 408h-486v201h799v-72l-350 -475q36 4 57 4q164 0 266.5 -120t102.5 -312q0 -211 -134 -343t-341 -132q-187 0 -317.5 114.5t-149.5 296.5z" />
    <glyph glyph-name="four" unicode="4" 
d="M741 0v287h-614v100l600 1047h231v-947h185v-200h-185v-287h-217zM401 487h340v621z" />
    <glyph glyph-name="five" unicode="5" 
d="M195 375l208 39q20 -114 84.5 -172t161.5 -58q117 0 184.5 77t67.5 210q0 135 -65 210t-185 75q-80 0 -155.5 -39.5t-130.5 -106.5l-138 29l80 795h719v-201h-539l-43 -356q43 32 108 52.5t128 20.5q211 0 324.5 -127.5t113.5 -351.5q0 -214 -130 -350.5t-339 -136.5
q-184 0 -309 104q-124 103 -145 287z" />
    <glyph glyph-name="six" unicode="6" 
d="M184 451q0 131 72 260l422 739h242l-312 -539q28 7 56 7q196 0 324 -132t128 -335q0 -199 -133 -333t-332 -134t-333 134.5t-134 332.5zM897 451q0 121 -69 193.5t-177 72.5q-110 0 -179 -72t-69 -194q0 -116 71 -191.5t177 -75.5t176 75.5t70 191.5z" />
    <glyph glyph-name="seven" unicode="7" 
d="M250 0l586 1233h-666v201h932v-91l-627 -1343h-225z" />
    <glyph glyph-name="eight" unicode="8" 
d="M180 420q0 123 53 213.5t148 138.5q-69 44 -109.5 122.5t-40.5 168.5q0 162 114.5 274.5t289.5 112.5t289 -112.5t114 -274.5q0 -91 -40 -169t-109 -122q95 -48 149 -139.5t54 -212.5q0 -196 -133 -316t-324 -120q-125 0 -227.5 52t-165 152.5t-62.5 231.5zM831 1061
q0 92 -53 147.5t-143 55.5q-88 0 -141.5 -56t-53.5 -147t54 -148t141 -57q90 0 143 56.5t53 148.5zM872 420q0 107 -65.5 171t-171.5 64q-104 0 -170 -64t-66 -171t66 -171.5t170 -64.5q105 0 171 64t66 172z" />
    <glyph glyph-name="nine" unicode="9" 
d="M367 -16l311 540q-19 -8 -55 -8q-196 0 -324.5 132t-128.5 335q0 199 133 333t332 134q200 0 333.5 -134t133.5 -333q0 -131 -72 -260l-422 -739h-241zM883 983q0 116 -70.5 191t-177.5 75q-106 0 -176 -75t-70 -191q0 -120 69.5 -193t176.5 -73q110 0 179 72t69 194z
" />
    <glyph glyph-name="colon" unicode=":" 
d="M481 143q0 67 44 111.5t110 44.5q67 0 111.5 -44.5t44.5 -111.5q0 -66 -44.5 -110.5t-111.5 -44.5q-66 0 -110 44.5t-44 110.5zM481 860q0 67 44 111.5t110 44.5q67 0 111.5 -44t44.5 -112q0 -66 -44.5 -110.5t-111.5 -44.5q-66 0 -110 44.5t-44 110.5z" />
    <glyph glyph-name="semicolon" unicode=";" 
d="M375 -266l135 526h291l-277 -526h-149zM481 860q0 67 44 111.5t110 44.5q67 0 111.5 -44t44.5 -112q0 -66 -44.5 -110.5t-111.5 -44.5q-66 0 -110 44.5t-44 110.5z" />
    <glyph glyph-name="less" unicode="&#x3c;" 
d="M1036 121l-819 409v209l819 410v-223l-590 -291l590 -291v-223z" />
    <glyph glyph-name="equal" unicode="=" 
d="M209 719v186h854v-186h-854zM209 365v186h854v-186h-854z" />
    <glyph glyph-name="greater" unicode="&#x3e;" 
d="M233 121v223l592 291l-592 291v223l820 -410v-209z" />
    <glyph glyph-name="question" unicode="?" 
d="M365 684q0 89 49 150t147 106l141 66q101 48 101 139q0 60 -42.5 93.5t-113.5 33.5q-70 0 -120 -43.5t-74 -120.5l-191 33q25 140 126.5 224.5t256.5 84.5q166 0 264.5 -84t98.5 -229q0 -174 -181 -256l-143 -66q-77 -35 -107 -65.5t-30 -73.5q0 -41 24.5 -64.5
t65.5 -23.5q89 0 133 108l156 -57q-35 -103 -108.5 -158t-176.5 -55q-124 0 -200 70.5t-76 187.5zM487 143q0 65 45.5 110.5t108.5 45.5t108.5 -45.5t45.5 -110.5q0 -64 -44.5 -108.5t-109.5 -44.5q-63 0 -108.5 45t-45.5 108z" />
    <glyph glyph-name="at" unicode="@" 
d="M76 578v79q0 385 164.5 599t445.5 214q239 0 378.5 -118.5t139.5 -337.5v-795h-182l-16 90q-78 -106 -222 -106q-163 0 -265.5 120t-102.5 300q0 186 100 301q101 116 268 116q72 0 136 -24.5t102 -65.5v43q0 141 -85.5 218t-240.5 77q-188 0 -304 -166t-116 -471v-69
q0 -149 35.5 -264.5t98 -186.5t143 -107t174.5 -36q104 0 184.5 34t153.5 107l98 -154q-175 -168 -442 -168q-297 0 -471 204.5t-174 566.5zM1016 623q0 116 -54.5 183.5t-150.5 67.5t-150.5 -67.5t-54.5 -183.5q0 -111 56 -181.5t149 -70.5q96 0 150.5 69t54.5 183z" />
    <glyph glyph-name="A" unicode="A" 
d="M39 0l481 1434h232l479 -1434h-230l-114 358h-502l-115 -358h-231zM451 567h368l-184 572z" />
    <glyph glyph-name="B" unicode="B" 
d="M197 0v1434h493q193 0 301.5 -98t108.5 -279q0 -90 -42 -163t-112 -110q107 -43 166 -134t59 -220q0 -202 -121.5 -316t-336.5 -114h-516zM420 864h262q197 0 197 180q0 181 -201 181h-258v-361zM420 209h266q133 0 196.5 55t63.5 168t-63.5 168t-196.5 55h-266v-446z
" />
    <glyph glyph-name="C" unicode="C" 
d="M92 717q0 176 47 317.5t129 231t190 137t234 47.5q204 0 337 -113.5t190 -320.5l-211 -64q-41 153 -120 221t-196 68q-175 0 -274 -129t-99 -395t99 -395t274 -129q117 0 196 68.5t120 221.5l211 -65q-57 -207 -190 -320.5t-337 -113.5q-126 0 -234 47.5t-190 137
t-129 231t-47 317.5z" />
    <glyph glyph-name="D" unicode="D" 
d="M145 0v1434h383q143 0 263 -45t210 -132.5t140.5 -225.5t50.5 -314t-50.5 -314t-140.5 -225.5t-210 -132.5t-263 -45h-383zM369 209h139q200 0 326 117q127 121 127 391q0 271 -127 389q-125 119 -326 119h-139v-1016z" />
    <glyph glyph-name="E" unicode="E" 
d="M186 0v1434h910v-209h-686v-357h583v-209h-583v-450h706v-209h-930z" />
    <glyph glyph-name="F" unicode="F" 
d="M186 0v1434h895v-220h-671v-362h571v-209h-571v-643h-224z" />
    <glyph glyph-name="G" unicode="G" 
d="M90 717q-2 146 30.5 269t88.5 207.5t131 144t157.5 86.5t168.5 26q208 0 342 -111.5t188 -324.5l-211 -64q-38 151 -113.5 221t-195.5 70q-171 0 -265 -130.5t-94 -393.5q0 -262 92 -393t257 -131q131 0 210.5 85.5t92.5 247.5h-297v197h518v-723h-186l-15 166
q-103 -182 -340 -182q-108 -2 -208 45t-179.5 136t-126.5 232.5t-45 319.5z" />
    <glyph glyph-name="H" unicode="H" 
d="M139 0v1434h223v-568h545v568h223v-1434h-223v657h-545v-657h-223z" />
    <glyph glyph-name="I" unicode="I" 
d="M199 0v201h325v1032h-325v201h872v-201h-323v-1032h323v-201h-872z" />
    <glyph glyph-name="J" unicode="J" 
d="M135 375l221 47q24 -107 85.5 -168t152.5 -61q107 0 166 67.5t59 204.5v969h223v-953q0 -248 -118 -372.5t-330 -124.5q-187 0 -310.5 108t-148.5 283z" />
    <glyph glyph-name="K" unicode="K" 
d="M123 0v1434h223v-555l481 555h279l-561 -641l602 -793h-277l-524 700v-700h-223z" />
    <glyph glyph-name="L" unicode="L" 
d="M180 0v1434h223v-1225h689v-209h-912z" />
    <glyph glyph-name="M" unicode="M" 
d="M115 0v1434h221l299 -754l299 754h223v-1434h-211v969l-244 -578h-135l-243 578v-969h-209z" />
    <glyph glyph-name="N" unicode="N" 
d="M145 0v1434h222l542 -1014v1014h213v-1434h-221l-543 1012v-1012h-213z" />
    <glyph glyph-name="O" unicode="O" 
d="M78 717q0 176 42 316t117 230.5t176.5 138.5t221.5 48t221.5 -48t176.5 -138.5t117 -230.5t42 -316t-42 -316t-117 -230.5t-176.5 -138.5t-221.5 -48t-221.5 48t-176.5 138.5t-117 230.5t-42 316zM967 717q0 263 -88.5 393.5t-243.5 130.5t-242.5 -130.5t-87.5 -393.5
t87.5 -393.5t242.5 -130.5t243.5 131t88.5 393z" />
    <glyph glyph-name="P" unicode="P" 
d="M203 0v1434h532q208 0 322 -113.5t114 -308.5t-114 -309.5t-322 -114.5h-309v-588h-223zM426 797h301q105 0 161 55t56 160t-56 159t-161 54h-301v-428z" />
    <glyph glyph-name="Q" unicode="Q" 
d="M1225 141l-154 -159l-113 112q-137 -110 -323 -110q-120 0 -221.5 48t-176.5 138.5t-117 230.5t-42 316t42 316t117 230.5t176.5 138.5t221.5 48t221.5 -48t176.5 -138.5t117 -230.5t42 -316q0 -270 -94 -451zM805 244l-162 159l154 160l133 -131q37 124 37 285
q0 263 -88.5 393.5t-243.5 130.5t-242.5 -130.5t-87.5 -393.5t87.5 -393.5t242.5 -130.5q102 0 170 51z" />
    <glyph glyph-name="R" unicode="R" 
d="M154 0v1434h512q202 0 316 -104.5t114 -289.5q0 -147 -74 -243t-211 -131l414 -666h-256l-402 647h-190v-647h-223zM377 856h293q198 0 198 184q0 185 -198 185h-293v-369z" />
    <glyph glyph-name="S" unicode="S" 
d="M113 408l202 77q71 -292 340 -292q108 0 178 56.5t70 151.5t-66.5 143.5t-248.5 102.5q-189 54 -286 152t-97 262q0 171 121.5 280t322.5 109q171 0 285.5 -83t163.5 -224l-187 -94q-76 192 -262 192q-100 0 -160.5 -49.5t-60.5 -138.5t66.5 -136t234.5 -90
q100 -26 170 -58.5t123 -80t78.5 -114t25.5 -154.5q0 -207 -132.5 -321.5t-342.5 -114.5q-211 0 -354 111t-184 313z" />
    <glyph glyph-name="T" unicode="T" 
d="M524 0v1225h-426v209h1073v-209h-423v-1225h-224z" />
    <glyph glyph-name="U" unicode="U" 
d="M125 522v912h223v-920q0 -153 74 -237t213 -84q144 0 216.5 82.5t72.5 238.5v920h223v-912q0 -254 -142 -396t-370 -142q-227 0 -368.5 141.5t-141.5 396.5z" />
    <glyph glyph-name="V" unicode="V" 
d="M520 0l-485 1434h235l365 -1119l366 1119h234l-483 -1434h-232z" />
    <glyph glyph-name="W" unicode="W" 
d="M180 0l-137 1434h221l76 -1035l213 752h164l213 -752l78 1035h219l-137 -1434h-252l-203 756l-221 -756h-234z" />
    <glyph glyph-name="X" unicode="X" 
d="M70 0l438 770l-375 664h248l254 -463l256 463h246l-375 -664l438 -770h-246l-319 569l-318 -569h-247z" />
    <glyph glyph-name="Y" unicode="Y" 
d="M528 0v547l-456 887h241l322 -654l321 654h244l-459 -887v-547h-213z" />
    <glyph glyph-name="Z" unicode="Z" 
d="M150 0v104l659 1121h-631v209h934v-105l-657 -1120h680v-209h-985z" />
    <glyph glyph-name="bracketleft" unicode="[" 
d="M391 -102v1638h596v-188h-391v-1262h391v-188h-596z" />
    <glyph glyph-name="backslash" unicode="\" 
d="M946 -102l-831 1638h211l831 -1638h-211z" />
    <glyph glyph-name="bracketright" unicode="]" 
d="M283 -102v188h391v1262h-391v188h596v-1638h-596z" />
    <glyph glyph-name="asciicircum" unicode="^" 
d="M156 844l391 590h176l391 -590h-215l-264 401l-264 -401h-215z" />
    <glyph glyph-name="underscore" unicode="_" 
d="M143 -193v193h983v-193h-983z" />
    <glyph glyph-name="grave" unicode="`" 
d="M674 1147l-266 299h297l133 -299h-164z" />
    <glyph glyph-name="a" unicode="a" 
d="M209 297q0 159 122 248.5t333 89.5h190v45q0 93 -57 140.5t-152 47.5q-74 0 -130 -42t-81 -117l-184 51q37 131 145 210t250 79q416 0 416 -414v-635h-168l-27 139q-51 -72 -141.5 -113.5t-198.5 -41.5q-140 0 -228.5 83.5t-88.5 229.5zM852 438v29h-205
q-111 0 -172 -43.5t-61 -124.5q0 -58 39 -95.5t104 -37.5q53 0 104.5 18t94.5 51t69.5 86t26.5 117z" />
    <glyph glyph-name="b" unicode="b" 
d="M414 123v-123h-213v1450h213v-530q43 56 120 92.5t162 36.5q218 0 344.5 -146.5t126.5 -386.5q0 -243 -123 -387q-124 -145 -348 -145q-90 0 -167.5 40.5t-114.5 98.5zM948 516q0 158 -75.5 252t-200.5 94t-201 -93.5t-76 -252.5t76 -252.5t201 -93.5t200.5 94t75.5 252z
" />
    <glyph glyph-name="c" unicode="c" 
d="M166 516q0 146 58 266t172 193.5t263 73.5q317 0 443 -285l-184 -76q-72 174 -259 174q-129 0 -203.5 -93.5t-74.5 -252.5q0 -157 75 -251.5t203 -94.5q186 0 259 176l184 -78q-126 -284 -443 -284q-112 0 -206 42.5t-156 115t-96.5 169.5t-34.5 205z" />
    <glyph glyph-name="d" unicode="d" 
d="M152 516q0 247 124 390t347 143q86 0 163 -36t119 -93v530h213v-1450h-213v123q-38 -60 -115 -99.5t-167 -39.5q-225 0 -349 145q-122 143 -122 387zM924 516q0 157 -75.5 251.5t-199.5 94.5q-125 0 -200.5 -93.5t-75.5 -252.5t75.5 -252.5t200.5 -93.5q124 0 199.5 94.5
t75.5 251.5z" />
    <glyph glyph-name="e" unicode="e" 
d="M145 516q0 106 33 201.5t94.5 169.5t157 118t211.5 44q93 0 172.5 -27.5t136.5 -75.5t97 -112t59.5 -137.5t19.5 -151.5v-88h-768q6 -125 86 -206t203 -81q188 0 293 176l170 -88q-148 -274 -469 -274q-115 0 -210.5 43.5t-157 117.5t-95 169.5t-33.5 201.5zM367 631h548
q-24 111 -94 173t-180 62q-108 0 -180.5 -64t-93.5 -171z" />
    <glyph glyph-name="f" unicode="f" 
d="M473 0v846h-270v186h270v64q0 176 89.5 265t248.5 89q120 0 215 -59l-49 -179q-73 54 -148 54q-68 0 -105.5 -42.5t-37.5 -123.5v-68h381v-186h-381v-846h-213z" />
    <glyph glyph-name="g" unicode="g" 
d="M176 -94q0 133 96 213q-63 57 -63 160q0 69 36.5 125t102.5 85q-67 85 -67 213q0 154 105.5 250.5t264.5 96.5q105 0 197 -50l205 107l90 -154l-162 -82q43 -73 43 -168q0 -160 -106 -253q-107 -93 -267 -93q-91 0 -170 33q-71 -30 -71 -92q0 -38 31.5 -59t88.5 -21h240
q167 0 260.5 -77t93.5 -218q0 -72 -26 -132t-70.5 -101t-105 -69t-129.5 -41t-144 -13q-220 0 -346.5 89t-126.5 251zM821 702q0 77 -47.5 123.5t-122.5 46.5q-73 0 -120.5 -46.5t-47.5 -123.5t47.5 -123.5t120.5 -46.5q75 0 122.5 46.5t47.5 123.5zM909 -94
q0 70 -42.5 100.5t-127.5 30.5h-190q-72 0 -113 8q-55 -40 -55 -127q0 -79 72 -124.5t196 -45.5q122 0 191 41.5t69 116.5z" />
    <glyph glyph-name="h" unicode="h" 
d="M201 0v1450h213v-596q57 89 149.5 142t200.5 53q155 0 237 -83t82 -241v-725h-213v662q0 102 -42.5 151t-129.5 49q-115 0 -199.5 -115.5t-84.5 -312.5v-434h-213z" />
    <glyph glyph-name="i" unicode="i" 
d="M465 1319q0 66 44 110t107 44q66 0 110 -44t44 -110t-44 -109t-110 -43q-63 0 -107 44.5t-44 107.5zM184 0v184h338v664h-291v184h504v-848h350v-184h-901z" />
    <glyph glyph-name="j" unicode="j" 
d="M555 1319q0 65 45 109.5t109 44.5q63 0 107 -44t44 -110q0 -64 -43 -108t-108 -44t-109.5 44.5t-44.5 107.5zM416 -434l-60 192q136 42 197 120.5t61 223.5v746h-385v184h598v-975q0 -208 -122 -327q-121 -124 -289 -164z" />
    <glyph glyph-name="k" unicode="k" 
d="M178 0v1450h213v-825l389 407h267l-461 -473l508 -559h-267l-436 494v-494h-213z" />
    <glyph glyph-name="l" unicode="l" 
d="M375 389v858h-275v187h488v-1016q0 -234 186 -234q172 0 207 213l188 -39q-26 -183 -129 -278.5t-266 -95.5q-184 0 -291.5 107t-107.5 298z" />
    <glyph glyph-name="m" unicode="m" 
d="M84 0v1032h195v-131q81 148 233 148q167 0 213 -168q38 77 103 122.5t143 45.5q106 0 168.5 -71.5t62.5 -207.5v-770h-194v719q0 74 -22.5 105.5t-76.5 31.5q-77 0 -121.5 -102t-44.5 -303v-451h-196v719q0 72 -23.5 104.5t-77.5 32.5q-76 0 -121.5 -103.5t-45.5 -301.5
v-451h-195z" />
    <glyph glyph-name="n" unicode="n" 
d="M199 0v1032h213v-178q58 89 150.5 142t195.5 53q149 0 232 -84t83 -236v-729h-213v672q0 95 -44 142.5t-124 47.5q-120 0 -200 -123t-80 -325v-414h-213z" />
    <glyph glyph-name="o" unicode="o" 
d="M127 516q0 109 36.5 206.5t102 170t161 114.5t208.5 42t208.5 -42t161 -114.5t102 -170t36.5 -206.5q0 -147 -62 -267.5t-179 -192.5t-267 -72t-267 72t-179 192.5t-62 267.5zM932 516q0 143 -80 246q-75 100 -217 100q-141 0 -219 -100q-78 -104 -78 -246
q0 -144 81 -245t216 -101t216 101t81 245z" />
    <glyph glyph-name="p" unicode="p" 
d="M207 -418v1450h213v-121q39 58 116 98t166 40q224 0 349 -143t125 -390q0 -244 -125 -387q-124 -145 -349 -145q-85 0 -162 36.5t-120 92.5v-531h-213zM954 516q0 158 -75.5 252t-200.5 94t-201 -93.5t-76 -252.5t76 -252.5t201 -93.5t200.5 94t75.5 252z" />
    <glyph glyph-name="q" unicode="q" 
d="M881 -418v531q-42 -57 -119.5 -93t-163.5 -36q-224 0 -348 145q-123 144 -123 387q0 247 124 390t347 143q90 0 167 -40t116 -98v121h213v-1450h-213zM899 516q0 158 -75 252t-199 94q-125 0 -201 -93.5t-76 -252.5t76 -252.5t201 -93.5q124 0 199 94t75 252z" />
    <glyph glyph-name="r" unicode="r" 
d="M178 0v1032h213v-174q64 94 161.5 142.5t207.5 48.5q149 0 237 -91.5t95 -257.5h-211q-15 168 -164 168q-135 0 -230.5 -145t-95.5 -379v-344h-213z" />
    <glyph glyph-name="s" unicode="s" 
d="M207 289l196 69q56 -188 259 -188q87 0 140.5 33.5t53.5 89.5t-50.5 85t-191.5 56q-167 34 -253.5 110t-86.5 206q0 131 106 215t253 84q271 0 393 -230l-162 -108q-78 151 -233 151q-67 0 -111.5 -29.5t-44.5 -82.5q0 -51 49 -83t164 -55q194 -39 284.5 -107t90.5 -196
q0 -148 -116 -236.5t-290 -88.5q-165 0 -282.5 77t-167.5 228z" />
    <glyph glyph-name="t" unicode="t" 
d="M391 379v467h-264v186h264v285l213 133v-418h404v-186h-404v-467q0 -209 174 -209q63 0 118 28.5t114 94.5l75 -176q-69 -69 -142.5 -101t-164.5 -32q-190 0 -288.5 99.5t-98.5 295.5z" />
    <glyph glyph-name="u" unicode="u" 
d="M199 305v727h213v-672q0 -94 44 -141t124 -47q120 0 200 122.5t80 323.5v414h213v-1032h-213v178q-61 -89 -153 -141.5t-193 -52.5q-149 0 -232 84.5t-83 236.5z" />
    <glyph glyph-name="v" unicode="v" 
d="M549 0l-432 1032h221l297 -749l297 749h221l-432 -1032h-172z" />
    <glyph glyph-name="w" unicode="w" 
d="M270 0l-215 1032h201l117 -700l176 618h172l176 -618l117 700h200l-215 -1032h-176l-188 664l-189 -664h-176z" />
    <glyph glyph-name="x" unicode="x" 
d="M162 0l358 549l-317 483h235l197 -305l199 305h233l-317 -483l358 -549h-229l-244 371l-242 -371h-231z" />
    <glyph glyph-name="y" unicode="y" 
d="M328 -418l217 518l-428 932h229l305 -684l277 684h225l-612 -1450h-213z" />
    <glyph glyph-name="z" unicode="z" 
d="M223 0v86l510 760h-483v186h774v-86l-506 -760h531v-186h-826z" />
    <glyph glyph-name="braceleft" unicode="{" 
d="M502 102v326q0 103 -53 149t-162 46v188q109 0 162 46t53 149v325q0 92 56.5 148.5t148.5 56.5h315v-188h-227q-49 0 -68.5 -21t-19.5 -72v-337q0 -98 -36 -142.5t-112 -58.5q77 -14 112.5 -58t35.5 -143v-338q0 -51 19.5 -71.5t68.5 -20.5h227v-188h-315
q-92 0 -148.5 56t-56.5 148z" />
    <glyph glyph-name="bar" unicode="|" 
d="M530 -102v1638h209v-1638h-209z" />
    <glyph glyph-name="braceright" unicode="}" 
d="M250 -102v188h227q49 0 68.5 20.5t19.5 71.5v338q0 99 35.5 143t112.5 58q-76 14 -112 58.5t-36 142.5v337q0 51 -19.5 72t-68.5 21h-227v188h315q92 0 148.5 -56.5t56.5 -148.5v-325q0 -103 53 -149t162 -46v-188q-109 0 -162 -46t-53 -149v-326q0 -92 -56.5 -148
t-148.5 -56h-315z" />
    <glyph glyph-name="asciitilde" unicode="~" 
d="M623 575q-53 23 -72 31t-50 15.5t-61 7.5q-106 0 -188 -99l-115 123q42 90 121 146.5t168 56.5q58 0 104 -13t117 -46q113 -52 182 -52q110 0 189 99l117 -123q-43 -92 -121.5 -148.5t-169.5 -56.5q-56 0 -101.5 13t-119.5 46z" />
    <glyph glyph-name="uni00A0" unicode="&#xa0;" 
 />
    <glyph glyph-name="exclamdown" unicode="&#xa1;" 
d="M793 872q0 -66 -46 -111.5t-112 -45.5t-111 45.5t-45 111.5t45 111t111 45t112 -45t46 -111zM547 563h178l53 -981h-284z" />
    <glyph glyph-name="cent" unicode="&#xa2;" 
d="M555 -102v297q-186 34 -291 178q-104 143 -104 344t104 344q106 146 291 180v295h207v-295q247 -41 350 -280l-188 -78q-82 180 -265 180q-131 0 -204.5 -94.5t-73.5 -251.5t73.5 -251.5t204.5 -94.5q183 0 265 180l188 -76q-104 -242 -350 -282v-295h-207z" />
    <glyph glyph-name="sterling" unicode="&#xa3;" 
d="M299 -16l-129 141q120 110 172.5 196.5t52.5 186.5q0 56 -20 137h-168v201h104q-39 101 -39 186q0 184 117.5 301t302.5 117q150 0 256 -74t156 -209l-182 -86q-38 87 -94 127.5t-136 40.5q-91 0 -149 -59t-58 -166q0 -89 29 -178h344v-201h-283q11 -64 11 -102
q0 -197 -164 -348q99 59 190 59q59 0 129 -37q40 -20 60.5 -26.5t48.5 -6.5q50 0 86 27t80 100l155 -92q-67 -122 -145 -178.5t-178 -56.5q-94 0 -180 45q-75 34 -133 34q-65 0 -118 -18.5t-118 -60.5z" />
    <glyph glyph-name="currency" unicode="&#xa4;" 
d="M276 100l-170 170l183 140q-62 103 -62 219q0 124 62 219l-183 139l170 170l140 -180q95 65 219 65t219 -65l139 180l170 -170l-180 -139q61 -94 61 -219q0 -118 -61 -219l180 -140l-170 -170l-139 181q-101 -66 -219 -66q-115 0 -219 66zM838 629q0 99 -55.5 160
t-147.5 61t-147.5 -61t-55.5 -160t55.5 -159t147.5 -60t147.5 60t55.5 159z" />
    <glyph glyph-name="yen" unicode="&#xa5;" 
d="M528 0v240h-309v184h309v164h-309v184h213l-344 662h242l305 -625l303 625h244l-344 -662h206v-184h-303v-164h303v-184h-303v-240h-213z" />
    <glyph glyph-name="brokenbar" unicode="&#xa6;" 
d="M530 821v715h209v-715h-209zM530 -102v714h209v-714h-209z" />
    <glyph glyph-name="section" unicode="&#xa7;" 
d="M211 -111l186 72q56 -190 238 -190q83 0 135.5 47t52.5 127q-3 31 -10 54.5t-24.5 44.5t-33.5 35.5t-52 33.5t-64 32t-84 37q-103 46 -154 72q-121 62 -176 137.5t-55 175.5q0 179 149 267q-90 93 -90 235q0 174 115.5 277.5t288.5 103.5q165 0 277.5 -85.5t150.5 -238.5
l-187 -71q-56 190 -237 190q-83 0 -135.5 -47t-52.5 -127q0 -60 32 -98q33 -39 82.5 -67.5t155.5 -74.5q21 -9 151 -69q122 -62 177 -137t55 -174q0 -177 -150 -267q90 -96 90 -237q0 -174 -115.5 -277.5t-287.5 -103.5q-165 0 -277.5 85t-150.5 238zM889 436
q0 65 -61 112.5t-207 108.5q-69 26 -134 62q-104 -52 -104 -139q0 -65 60.5 -112t205.5 -108q88 -37 135 -61q105 53 105 137z" />
    <glyph glyph-name="dieresis" unicode="&#xa8;" 
d="M305 1321q0 57 37 94t94 37t94 -37t37 -94q0 -56 -37 -93.5t-94 -37.5t-94 37.5t-37 93.5zM705 1321q0 57 37 94t94 37t94 -37t37 -94q0 -56 -37 -93.5t-94 -37.5t-94 37.5t-37 93.5z" />
    <glyph glyph-name="copyright" unicode="&#xa9;" 
d="M74 717q-3 158 71 291.5t204.5 210t285.5 73.5q156 3 286 -73.5t203.5 -209.5t71.5 -292q0 -161 -72.5 -293t-201.5 -207.5t-287 -75.5q-116 -1 -221 43.5t-180 122t-118.5 184.5t-41.5 226zM1053 717q0 189 -118 313.5t-300 124.5t-300 -124.5t-118 -313.5t118 -313.5
t300 -124.5t300 124.5t118 313.5zM340 717q0 102 44 176t109.5 107.5t141.5 33.5q104 0 174.5 -53.5t83.5 -144.5l-117 -27q-20 55 -53.5 79.5t-87.5 24.5q-77 0 -119.5 -50t-42.5 -146q0 -97 43 -147t119 -50q54 0 87.5 25t53.5 82l117 -27q-13 -92 -84 -146.5t-174 -54.5
q-56 0 -108 20.5t-94.5 59t-67.5 100.5t-25 138z" />
    <glyph glyph-name="ordfeminine" unicode="&#xaa;" 
d="M301 852q0 124 95.5 195t260.5 71h150v35q0 72 -45.5 107.5t-122.5 35.5q-58 0 -101 -30t-63 -86l-141 34q23 104 105.5 166t199.5 62q159 0 246.5 -79.5t87.5 -246.5v-502h-137l-19 113q-44 -57 -113.5 -89t-154.5 -32q-109 0 -178.5 65.5t-69.5 180.5zM807 961v24h-158
q-81 0 -127.5 -35.5t-46.5 -97.5q0 -45 28 -71.5t81 -26.5q82 0 153 53q70 55 70 154z" />
    <glyph glyph-name="guillemotleft" unicode="&#xab;" 
d="M690 135l-618 426v148l618 428v-224l-403 -278l403 -277v-223zM1192 135l-619 426v148l619 428v-224l-404 -278l404 -277v-223z" />
    <glyph glyph-name="logicalnot" unicode="&#xac;" 
d="M903 291v327h-713v193h922v-520h-209z" />
    <glyph glyph-name="uni00AD" unicode="&#xad;" 
d="M279 557v186h714v-186h-714z" />
    <glyph glyph-name="registered" unicode="&#xae;" 
d="M74 717q-3 158 71 291.5t204.5 210t285.5 73.5q156 3 286 -73.5t203.5 -209.5t71.5 -292q0 -161 -72.5 -293t-201.5 -207.5t-287 -75.5q-116 -1 -221 43.5t-180 122t-118.5 184.5t-41.5 226zM1053 717q0 189 -118 313.5t-300 124.5t-300 -124.5t-118 -313.5t118 -313.5
t300 -124.5t300 124.5t118 313.5zM434 414v606h219q91 0 144 -48t53 -128q0 -61 -36 -107.5t-93 -60.5l180 -262h-133l-178 254h-39v-254h-117zM551 778h96q82 0 82 66q0 65 -82 65h-96v-131z" />
    <glyph glyph-name="overscore" unicode="&#xaf;" 
d="M369 1223v176h534v-176h-534z" />
    <glyph glyph-name="degree" unicode="&#xb0;" 
d="M319 1133q0 134 89 223q90 90 227 90t227 -90q88 -88 88 -223q0 -138 -88 -226t-227 -88t-227 88q-89 89 -89 226zM772 1133q0 62 -38 100.5t-99 38.5t-98 -38.5t-37 -100.5t37 -101t98 -39t99 39t38 101z" />
    <glyph glyph-name="plusminus" unicode="&#xb1;" 
d="M543 346v377h-377v186h377v375h186v-375h375v-186h-375v-377h-186zM184 -18v188h901v-188h-901z" />
    <glyph glyph-name="uni00B2" unicode="&#xb2;" 
d="M365 614v62l299 366q63 75 63 158q0 43 -25.5 68.5t-68.5 25.5q-44 0 -74.5 -31.5t-40.5 -93.5l-145 41q11 103 83 167.5t177 64.5q117 0 187.5 -65t70.5 -175q0 -105 -80 -209l-190 -231h284v-148h-540z" />
    <glyph glyph-name="uni00B3" unicode="&#xb3;" 
d="M358 858l148 21q7 -60 43.5 -92.5t87.5 -32.5q54 0 84.5 35t30.5 98t-30.5 97t-84.5 34q-39 0 -74 -21l-74 93l152 200h-244v144h469v-58l-188 -250q103 8 170 -60.5t67 -180.5q0 -127 -72 -203t-204 -76q-121 0 -195.5 68t-85.5 184z" />
    <glyph glyph-name="acute" unicode="&#xb4;" 
d="M420 1147l135 299h295l-264 -299h-166z" />
    <glyph glyph-name="uni00B5" unicode="&#xb5;" 
d="M199 -418v1450h213v-672q0 -95 44 -141.5t126 -46.5q117 0 197.5 123.5t80.5 322.5v414h213v-1032h-213v178q-58 -88 -150.5 -141t-193.5 -53q-63 0 -104 14v-416h-213z" />
    <glyph glyph-name="paragraph" unicode="&#xb6;" 
d="M481 -418v1061q-162 0 -278.5 116.5t-116.5 278.5q0 163 116 279.5t279 116.5h701v-187h-117v-1665h-213v1665h-158v-1665h-213z" />
    <glyph glyph-name="middot" unicode="&#xb7;" 
d="M481 719q0 67 44 111t110 44q68 0 112 -44t44 -111q0 -66 -44.5 -111t-111.5 -45q-66 0 -110 45t-44 111z" />
    <glyph glyph-name="cedilla" unicode="&#xb8;" 
d="M655 -514l-249 115l256 276h163z" />
    <glyph glyph-name="uni00B9" unicode="&#xb9;" 
d="M401 614v144h172v461l-163 -74v170l256 119h63v-676h172v-144h-500z" />
    <glyph glyph-name="ordmasculine" unicode="&#xba;" 
d="M236 1024q0 113 47.5 207.5t139.5 152.5t210 58t210 -57.5t140.5 -152.5t48.5 -208t-48.5 -208t-140.5 -152.5t-210 -57.5t-210 58t-139.5 152.5t-47.5 207.5zM862 1024q0 111 -63 185.5t-166 74.5q-102 0 -166 -74.5t-64 -185.5t64 -185.5t166 -74.5q103 0 166 74.5
t63 185.5z" />
    <glyph glyph-name="guillemotright" unicode="&#xbb;" 
d="M80 135v223l403 277l-403 278v224l616 -428v-148zM582 135v223l403 277l-403 278v224l616 -428v-148z" />
    <glyph glyph-name="onequarter" unicode="&#xbc;" 
d="M47 750v124h160v371l-148 -67v149l228 107h57v-560h160v-124h-457zM328 188l-97 84l844 945l96 -84zM948 0v131h-311v64l291 489h157v-424h97v-129h-97v-131h-137zM821 260h127v221z" />
    <glyph glyph-name="onehalf" unicode="&#xbd;" 
d="M47 750v124h160v371l-148 -67v149l228 107h57v-560h160v-124h-457zM285 188l-97 84l844 945l96 -84zM729 0v59l258 297q49 58 49 121q0 38 -21.5 61t-58.5 23q-79 0 -94 -98l-129 33q14 91 74.5 143.5t153.5 52.5q104 0 161.5 -53.5t57.5 -151.5q0 -60 -18 -106t-60 -96
l-129 -154h215v-131h-459z" />
    <glyph glyph-name="threequarters" unicode="&#xbe;" 
d="M90 956l135 29q15 -115 111 -115q44 0 71 30t27 83q0 49 -25.5 78t-68.5 29q-44 0 -70 -23l-63 86l127 152h-207v129h416v-56l-158 -188q86 -2 139.5 -59.5t53.5 -149.5q0 -110 -66 -175t-176 -65q-103 0 -171 58.5t-75 156.5zM328 188l-97 84l844 945l96 -84zM948 0v131
h-311v64l291 489h157v-424h97v-129h-97v-131h-137zM821 260h127v221z" />
    <glyph glyph-name="questiondown" unicode="&#xbf;" 
d="M782 872q0 -66 -45 -110.5t-108 -44.5q-64 0 -109 45t-45 110t45 109.5t109 44.5q66 0 109.5 -44t43.5 -110zM905 332q0 -89 -49 -150t-147 -106l-142 -66q-100 -47 -100 -139q0 -60 42.5 -93.5t113.5 -33.5q70 0 120 43.5t74 120.5l191 -33q-25 -140 -126.5 -224.5
t-256.5 -84.5q-166 0 -264.5 84t-98.5 229q0 90 44 152t136 104l144 66q77 35 107 65.5t30 73.5q0 41 -24.5 64.5t-65.5 23.5q-89 0 -133 -109l-156 58q35 103 108.5 158t176.5 55q124 0 200 -70.5t76 -187.5z" />
    <glyph glyph-name="Agrave" unicode="&#xc0;" 
d="M39 0l481 1434h232l479 -1434h-230l-114 358h-502l-115 -358h-231zM451 567h368l-184 572zM553 1548l-266 299h297l133 -299h-164z" />
    <glyph glyph-name="Aacute" unicode="&#xc1;" 
d="M39 0l481 1434h232l479 -1434h-230l-114 358h-502l-115 -358h-231zM451 567h368l-184 572zM553 1548l135 299h295l-264 -299h-166z" />
    <glyph glyph-name="Acircumflex" unicode="&#xc2;" 
d="M39 0l481 1434h232l479 -1434h-230l-114 358h-502l-115 -358h-231zM451 567h368l-184 572zM272 1548l332 334h62l333 -334h-219l-145 148l-146 -148h-217z" />
    <glyph glyph-name="Atilde" unicode="&#xc3;" 
d="M39 0l481 1434h232l479 -1434h-230l-114 358h-502l-115 -358h-231zM451 567h368l-184 572zM616 1624q-64 37 -112 37q-70 0 -133 -78l-117 92q38 75 101 121.5t134 46.5q46 0 78 -10.5t80 -36.5q39 -22 61.5 -29.5t51.5 -7.5q72 0 133 82l117 -96q-37 -75 -101 -120.5
t-135 -45.5q-46 0 -75 9t-83 36z" />
    <glyph glyph-name="Adieresis" unicode="&#xc4;" 
d="M39 0l481 1434h232l479 -1434h-230l-114 358h-502l-115 -358h-231zM451 567h368l-184 572zM305 1722q0 57 37 94t94 37t94 -37t37 -94q0 -56 -37 -93.5t-94 -37.5t-94 37.5t-37 93.5zM705 1722q0 57 37 94t94 37t94 -37t37 -94q0 -56 -37 -93.5t-94 -37.5t-94 37.5
t-37 93.5z" />
    <glyph glyph-name="Aring" unicode="&#xc5;" 
d="M39 0l481 1434h232l479 -1434h-230l-114 358h-502l-115 -358h-231zM451 567h368l-184 572zM428 1741q0 88 59.5 147.5t147.5 59.5q90 0 148.5 -59.5t58.5 -147.5q0 -87 -58.5 -145t-148.5 -58q-88 0 -147.5 58.5t-59.5 144.5zM711 1743q0 36 -20.5 58t-55.5 22
q-32 0 -53 -22.5t-21 -57.5t20.5 -56.5t53.5 -21.5q35 0 55.5 21.5t20.5 56.5z" />
    <glyph glyph-name="AE" unicode="&#xc6;" 
d="M-23 0l398 1434h813v-220h-389v-360h307v-219h-307v-416h409v-219h-633v383h-276l-104 -383h-218zM350 586h225v612h-61z" />
    <glyph glyph-name="Ccedilla" unicode="&#xc7;" 
d="M92 717q0 176 47 317.5t129 231t190 137t234 47.5q204 0 337 -113.5t190 -320.5l-211 -64q-41 153 -120 221t-196 68q-175 0 -274 -129t-99 -395t99 -395t274 -129q117 0 196 68.5t120 221.5l211 -65q-57 -207 -190 -320.5t-337 -113.5q-126 0 -234 47.5t-190 137
t-129 231t-47 317.5zM602 -514l-250 115l256 276h164z" />
    <glyph glyph-name="Egrave" unicode="&#xc8;" 
d="M186 0v1434h910v-209h-686v-357h583v-209h-583v-450h706v-209h-930zM569 1548l-266 299h297l133 -299h-164z" />
    <glyph glyph-name="Eacute" unicode="&#xc9;" 
d="M186 0v1434h910v-209h-686v-357h583v-209h-583v-450h706v-209h-930zM569 1548l136 299h294l-264 -299h-166z" />
    <glyph glyph-name="Ecircumflex" unicode="&#xca;" 
d="M186 0v1434h910v-209h-686v-357h583v-209h-583v-450h706v-209h-930zM289 1548l332 334h61l334 -334h-219l-146 148l-145 -148h-217z" />
    <glyph glyph-name="Edieresis" unicode="&#xcb;" 
d="M186 0v1434h910v-209h-686v-357h583v-209h-583v-450h706v-209h-930zM322 1722q0 57 37 94t94 37t94 -37t37 -94q0 -56 -37 -93.5t-94 -37.5t-94 37.5t-37 93.5zM721 1722q0 57 37 94t94 37t94 -37t37 -94q0 -56 -37 -93.5t-94 -37.5t-94 37.5t-37 93.5z" />
    <glyph glyph-name="Igrave" unicode="&#xcc;" 
d="M199 0v201h325v1032h-325v201h872v-201h-323v-1032h323v-201h-872zM553 1548l-266 299h297l133 -299h-164z" />
    <glyph glyph-name="Iacute" unicode="&#xcd;" 
d="M199 0v201h325v1032h-325v201h872v-201h-323v-1032h323v-201h-872zM553 1548l135 299h295l-264 -299h-166z" />
    <glyph glyph-name="Icircumflex" unicode="&#xce;" 
d="M199 0v201h325v1032h-325v201h872v-201h-323v-1032h323v-201h-872zM272 1548l332 334h62l333 -334h-219l-145 148l-146 -148h-217z" />
    <glyph glyph-name="Idieresis" unicode="&#xcf;" 
d="M199 0v201h325v1032h-325v201h872v-201h-323v-1032h323v-201h-872zM305 1722q0 57 37 94t94 37t94 -37t37 -94q0 -56 -37 -93.5t-94 -37.5t-94 37.5t-37 93.5zM705 1722q0 57 37 94t94 37t94 -37t37 -94q0 -56 -37 -93.5t-94 -37.5t-94 37.5t-37 93.5z" />
    <glyph glyph-name="Eth" unicode="&#xd0;" 
d="M145 0v618h-92v197h92v619h383q143 0 263 -45t210 -132.5t140.5 -225.5t50.5 -314t-50.5 -314t-140.5 -225.5t-210 -132.5t-263 -45h-383zM369 209h139q200 0 326 117q127 121 127 391q0 271 -127 389q-125 119 -326 119h-139v-410h219v-197h-219v-409z" />
    <glyph glyph-name="Ntilde" unicode="&#xd1;" 
d="M145 0v1434h222l542 -1014v1014h213v-1434h-221l-543 1012v-1012h-213zM616 1624q-64 37 -112 37q-70 0 -133 -78l-117 92q38 75 101 121.5t134 46.5q46 0 78 -10.5t80 -36.5q39 -22 61.5 -29.5t51.5 -7.5q72 0 133 82l117 -96q-37 -75 -101 -120.5t-135 -45.5
q-46 0 -75 9t-83 36z" />
    <glyph glyph-name="Ograve" unicode="&#xd2;" 
d="M78 717q0 176 42 316t117 230.5t176.5 138.5t221.5 48t221.5 -48t176.5 -138.5t117 -230.5t42 -316t-42 -316t-117 -230.5t-176.5 -138.5t-221.5 -48t-221.5 48t-176.5 138.5t-117 230.5t-42 316zM967 717q0 263 -88.5 393.5t-243.5 130.5t-242.5 -130.5t-87.5 -393.5
t87.5 -393.5t242.5 -130.5t243.5 131t88.5 393zM553 1548l-266 299h297l133 -299h-164z" />
    <glyph glyph-name="Oacute" unicode="&#xd3;" 
d="M78 717q0 176 42 316t117 230.5t176.5 138.5t221.5 48t221.5 -48t176.5 -138.5t117 -230.5t42 -316t-42 -316t-117 -230.5t-176.5 -138.5t-221.5 -48t-221.5 48t-176.5 138.5t-117 230.5t-42 316zM967 717q0 263 -88.5 393.5t-243.5 130.5t-242.5 -130.5t-87.5 -393.5
t87.5 -393.5t242.5 -130.5t243.5 131t88.5 393zM553 1548l135 299h295l-264 -299h-166z" />
    <glyph glyph-name="Ocircumflex" unicode="&#xd4;" 
d="M78 717q0 176 42 316t117 230.5t176.5 138.5t221.5 48t221.5 -48t176.5 -138.5t117 -230.5t42 -316t-42 -316t-117 -230.5t-176.5 -138.5t-221.5 -48t-221.5 48t-176.5 138.5t-117 230.5t-42 316zM967 717q0 263 -88.5 393.5t-243.5 130.5t-242.5 -130.5t-87.5 -393.5
t87.5 -393.5t242.5 -130.5t243.5 131t88.5 393zM272 1548l332 334h62l333 -334h-219l-145 148l-146 -148h-217z" />
    <glyph glyph-name="Otilde" unicode="&#xd5;" 
d="M78 717q0 176 42 316t117 230.5t176.5 138.5t221.5 48t221.5 -48t176.5 -138.5t117 -230.5t42 -316t-42 -316t-117 -230.5t-176.5 -138.5t-221.5 -48t-221.5 48t-176.5 138.5t-117 230.5t-42 316zM967 717q0 263 -88.5 393.5t-243.5 130.5t-242.5 -130.5t-87.5 -393.5
t87.5 -393.5t242.5 -130.5t243.5 131t88.5 393zM616 1624q-64 37 -112 37q-70 0 -133 -78l-117 92q38 75 101 121.5t134 46.5q46 0 78 -10.5t80 -36.5q39 -22 61.5 -29.5t51.5 -7.5q72 0 133 82l117 -96q-37 -75 -101 -120.5t-135 -45.5q-46 0 -75 9t-83 36z" />
    <glyph glyph-name="Odieresis" unicode="&#xd6;" 
d="M78 717q0 176 42 316t117 230.5t176.5 138.5t221.5 48t221.5 -48t176.5 -138.5t117 -230.5t42 -316t-42 -316t-117 -230.5t-176.5 -138.5t-221.5 -48t-221.5 48t-176.5 138.5t-117 230.5t-42 316zM967 717q0 263 -88.5 393.5t-243.5 130.5t-242.5 -130.5t-87.5 -393.5
t87.5 -393.5t242.5 -130.5t243.5 131t88.5 393zM305 1722q0 57 37 94t94 37t94 -37t37 -94q0 -56 -37 -93.5t-94 -37.5t-94 37.5t-37 93.5zM705 1722q0 57 37 94t94 37t94 -37t37 -94q0 -56 -37 -93.5t-94 -37.5t-94 37.5t-37 93.5z" />
    <glyph glyph-name="multiply" unicode="&#xd7;" 
d="M324 211l-131 131l311 311l-311 312l131 131l311 -312l311 312l131 -131l-311 -312l311 -311l-131 -131l-311 311z" />
    <glyph glyph-name="Oslash" unicode="&#xd8;" 
d="M78 717q0 176 42 316t117 230.5t176.5 138.5t221.5 48t221.5 -48t176.5 -138.5t117 -230.5t42 -316t-42 -316t-117 -230.5t-176.5 -138.5t-221.5 -48t-221.5 48t-176.5 138.5t-117 230.5t-42 316zM967 717q0 263 -88.5 393.5t-243.5 130.5t-242.5 -130.5t-87.5 -393.5
t87.5 -393.5t242.5 -130.5t243.5 131t88.5 393zM145 -68l-149 111l1130 1458l148 -110z" />
    <glyph glyph-name="Ugrave" unicode="&#xd9;" 
d="M125 522v912h223v-920q0 -153 74 -237t213 -84q144 0 216.5 82.5t72.5 238.5v920h223v-912q0 -254 -142 -396t-370 -142q-227 0 -368.5 141.5t-141.5 396.5zM553 1548l-266 299h297l133 -299h-164z" />
    <glyph glyph-name="Uacute" unicode="&#xda;" 
d="M125 522v912h223v-920q0 -153 74 -237t213 -84q144 0 216.5 82.5t72.5 238.5v920h223v-912q0 -254 -142 -396t-370 -142q-227 0 -368.5 141.5t-141.5 396.5zM553 1548l135 299h295l-264 -299h-166z" />
    <glyph glyph-name="Ucircumflex" unicode="&#xdb;" 
d="M125 522v912h223v-920q0 -153 74 -237t213 -84q144 0 216.5 82.5t72.5 238.5v920h223v-912q0 -254 -142 -396t-370 -142q-227 0 -368.5 141.5t-141.5 396.5zM272 1548l332 334h62l333 -334h-219l-145 148l-146 -148h-217z" />
    <glyph glyph-name="Udieresis" unicode="&#xdc;" 
d="M125 522v912h223v-920q0 -153 74 -237t213 -84q144 0 216.5 82.5t72.5 238.5v920h223v-912q0 -254 -142 -396t-370 -142q-227 0 -368.5 141.5t-141.5 396.5zM305 1722q0 57 37 94t94 37t94 -37t37 -94q0 -56 -37 -93.5t-94 -37.5t-94 37.5t-37 93.5zM705 1722q0 57 37 94
t94 37t94 -37t37 -94q0 -56 -37 -93.5t-94 -37.5t-94 37.5t-37 93.5z" />
    <glyph glyph-name="Yacute" unicode="&#xdd;" 
d="M528 0v547l-456 887h241l322 -654l321 654h244l-459 -887v-547h-213zM553 1548l135 299h295l-264 -299h-166z" />
    <glyph glyph-name="Thorn" unicode="&#xde;" 
d="M201 0v1434h223v-293h299q210 0 324 -114t114 -310q0 -195 -114 -308.5t-324 -113.5h-299v-295h-223zM424 504h293q105 0 160 54t55 159q0 215 -215 215h-293v-428z" />
    <glyph glyph-name="germandbls" unicode="&#xdf;" 
d="M535 -2v190q88 -16 131 -16q247 0 247 256q0 129 -68.5 193.5t-199.5 64.5h-70v193h58q92 0 139 49.5t47 142.5q0 91 -50.5 142t-137.5 51q-89 0 -140 -61.5t-51 -172.5v-1030h-209v686h-104v193h104v151q0 197 109.5 308.5t290.5 111.5q183 0 284 -99t101 -266
q0 -103 -48.5 -175.5t-125.5 -98.5q126 -30 203 -126t77 -243q0 -229 -115 -343.5t-333 -114.5q-84 0 -139 14z" />
    <glyph glyph-name="agrave" unicode="&#xe0;" 
d="M209 297q0 159 122 248.5t333 89.5h190v45q0 93 -57 140.5t-152 47.5q-74 0 -130 -42t-81 -117l-184 51q37 131 145 210t250 79q416 0 416 -414v-635h-168l-27 139q-51 -72 -141.5 -113.5t-198.5 -41.5q-140 0 -228.5 83.5t-88.5 229.5zM852 438v29h-205
q-111 0 -172 -43.5t-61 -124.5q0 -58 39 -95.5t104 -37.5q53 0 104.5 18t94.5 51t69.5 86t26.5 117zM592 1147l-266 299h297l133 -299h-164z" />
    <glyph glyph-name="aacute" unicode="&#xe1;" 
d="M209 297q0 159 122 248.5t333 89.5h190v45q0 93 -57 140.5t-152 47.5q-74 0 -130 -42t-81 -117l-184 51q37 131 145 210t250 79q416 0 416 -414v-635h-168l-27 139q-51 -72 -141.5 -113.5t-198.5 -41.5q-140 0 -228.5 83.5t-88.5 229.5zM852 438v29h-205
q-111 0 -172 -43.5t-61 -124.5q0 -58 39 -95.5t104 -37.5q53 0 104.5 18t94.5 51t69.5 86t26.5 117zM559 1147l135 299h295l-264 -299h-166z" />
    <glyph glyph-name="acircumflex" unicode="&#xe2;" 
d="M209 297q0 159 122 248.5t333 89.5h190v45q0 93 -57 140.5t-152 47.5q-74 0 -130 -42t-81 -117l-184 51q37 131 145 210t250 79q416 0 416 -414v-635h-168l-27 139q-51 -72 -141.5 -113.5t-198.5 -41.5q-140 0 -228.5 83.5t-88.5 229.5zM852 438v29h-205
q-111 0 -172 -43.5t-61 -124.5q0 -58 39 -95.5t104 -37.5q53 0 104.5 18t94.5 51t69.5 86t26.5 117zM281 1147l331 334h62l334 -334h-220l-145 147l-145 -147h-217z" />
    <glyph glyph-name="atilde" unicode="&#xe3;" 
d="M209 297q0 159 122 248.5t333 89.5h190v45q0 93 -57 140.5t-152 47.5q-74 0 -130 -42t-81 -117l-184 51q37 131 145 210t250 79q416 0 416 -414v-635h-168l-27 139q-51 -72 -141.5 -113.5t-198.5 -41.5q-140 0 -228.5 83.5t-88.5 229.5zM852 438v29h-205
q-111 0 -172 -43.5t-61 -124.5q0 -58 39 -95.5t104 -37.5q53 0 104.5 18t94.5 51t69.5 86t26.5 117zM625 1223q-64 37 -113 37q-70 0 -133 -78l-117 92q37 75 101 121.5t135 46.5q46 0 77.5 -10.5t79.5 -36.5q39 -22 61.5 -29.5t51.5 -7.5q72 0 133 82l117 -97
q-37 -74 -101 -119.5t-135 -45.5q-46 0 -74 9t-83 36z" />
    <glyph glyph-name="adieresis" unicode="&#xe4;" 
d="M209 297q0 159 122 248.5t333 89.5h190v45q0 93 -57 140.5t-152 47.5q-74 0 -130 -42t-81 -117l-184 51q37 131 145 210t250 79q416 0 416 -414v-635h-168l-27 139q-51 -72 -141.5 -113.5t-198.5 -41.5q-140 0 -228.5 83.5t-88.5 229.5zM852 438v29h-205
q-111 0 -172 -43.5t-61 -124.5q0 -58 39 -95.5t104 -37.5q53 0 104.5 18t94.5 51t69.5 86t26.5 117zM313 1321q0 57 37 94t94 37t94 -37t37 -94q0 -56 -37 -93.5t-94 -37.5t-94 37.5t-37 93.5zM713 1321q0 57 37 94t94 37t94 -37t37 -94q0 -56 -37 -93.5t-94 -37.5t-94 37.5
t-37 93.5z" />
    <glyph glyph-name="aring" unicode="&#xe5;" 
d="M209 297q0 159 122 248.5t333 89.5h190v45q0 93 -57 140.5t-152 47.5q-74 0 -130 -42t-81 -117l-184 51q37 131 145 210t250 79q416 0 416 -414v-635h-168l-27 139q-51 -72 -141.5 -113.5t-198.5 -41.5q-140 0 -228.5 83.5t-88.5 229.5zM852 438v29h-205
q-111 0 -172 -43.5t-61 -124.5q0 -58 39 -95.5t104 -37.5q53 0 104.5 18t94.5 51t69.5 86t26.5 117zM436 1339q0 88 59.5 147.5t147.5 59.5q90 0 148.5 -59.5t58.5 -147.5q0 -87 -58.5 -144.5t-148.5 -57.5q-88 0 -147.5 58t-59.5 144zM719 1341q0 36 -20.5 58t-55.5 22
q-32 0 -53 -22.5t-21 -57.5t20.5 -56t53.5 -21q35 0 55.5 21t20.5 56z" />
    <glyph glyph-name="ae" unicode="&#xe6;" 
d="M74 295q0 161 105 250.5t280 89.5h102v55q0 195 -131 195q-62 0 -102 -45t-52 -125l-159 43q15 123 102 207t211 84q182 0 240 -156q38 72 106 114t146 42q154 0 237.5 -122t83.5 -345v-109h-487q0 -153 39.5 -233t113.5 -80q61 0 98 41.5t68 144.5l156 -47
q-48 -163 -124 -239t-198 -76q-90 0 -153 49t-90 135q-39 -87 -115 -135.5t-180 -48.5q-135 0 -216 82.5t-81 228.5zM754 635h311q0 111 -42 180.5t-114 69.5q-68 0 -111.5 -69t-43.5 -181zM561 408v71h-80q-105 0 -160 -43t-55 -127q0 -69 34.5 -109t94.5 -40
q83 0 124.5 68t41.5 180z" />
    <glyph glyph-name="ccedilla" unicode="&#xe7;" 
d="M166 516q0 146 58 266t172 193.5t263 73.5q317 0 443 -285l-184 -76q-72 174 -259 174q-129 0 -203.5 -93.5t-74.5 -252.5q0 -157 75 -251.5t203 -94.5q186 0 259 176l184 -78q-126 -284 -443 -284q-112 0 -206 42.5t-156 115t-96.5 169.5t-34.5 205zM575 -514l-249 115
l256 276h163z" />
    <glyph glyph-name="egrave" unicode="&#xe8;" 
d="M145 516q0 106 33 201.5t94.5 169.5t157 118t211.5 44q93 0 172.5 -27.5t136.5 -75.5t97 -112t59.5 -137.5t19.5 -151.5v-88h-768q6 -125 86 -206t203 -81q188 0 293 176l170 -88q-148 -274 -469 -274q-115 0 -210.5 43.5t-157 117.5t-95 169.5t-33.5 201.5zM367 631h548
q-24 111 -94 173t-180 62q-108 0 -180.5 -64t-93.5 -171zM588 1147l-266 299h296l134 -299h-164z" />
    <glyph glyph-name="eacute" unicode="&#xe9;" 
d="M145 516q0 106 33 201.5t94.5 169.5t157 118t211.5 44q93 0 172.5 -27.5t136.5 -75.5t97 -112t59.5 -137.5t19.5 -151.5v-88h-768q6 -125 86 -206t203 -81q188 0 293 176l170 -88q-148 -274 -469 -274q-115 0 -210.5 43.5t-157 117.5t-95 169.5t-33.5 201.5zM367 631h548
q-24 111 -94 173t-180 62q-108 0 -180.5 -64t-93.5 -171zM555 1147l135 299h295l-264 -299h-166z" />
    <glyph glyph-name="ecircumflex" unicode="&#xea;" 
d="M145 516q0 106 33 201.5t94.5 169.5t157 118t211.5 44q93 0 172.5 -27.5t136.5 -75.5t97 -112t59.5 -137.5t19.5 -151.5v-88h-768q6 -125 86 -206t203 -81q188 0 293 176l170 -88q-148 -274 -469 -274q-115 0 -210.5 43.5t-157 117.5t-95 169.5t-33.5 201.5zM367 631h548
q-24 111 -94 173t-180 62q-108 0 -180.5 -64t-93.5 -171zM276 1147l332 334h62l334 -334h-220l-145 147l-145 -147h-218z" />
    <glyph glyph-name="edieresis" unicode="&#xeb;" 
d="M145 516q0 106 33 201.5t94.5 169.5t157 118t211.5 44q93 0 172.5 -27.5t136.5 -75.5t97 -112t59.5 -137.5t19.5 -151.5v-88h-768q6 -125 86 -206t203 -81q188 0 293 176l170 -88q-148 -274 -469 -274q-115 0 -210.5 43.5t-157 117.5t-95 169.5t-33.5 201.5zM367 631h548
q-24 111 -94 173t-180 62q-108 0 -180.5 -64t-93.5 -171zM309 1321q0 57 37 94t94 37t94 -37t37 -94q0 -56 -37 -93.5t-94 -37.5t-94 37.5t-37 93.5zM709 1321q0 57 37 94t94 37t94 -37t37 -94q0 -56 -37 -93.5t-94 -37.5t-94 37.5t-37 93.5z" />
    <glyph glyph-name="igrave" unicode="&#xec;" 
d="M184 0v184h338v664h-291v184h504v-848h350v-184h-901zM571 1147l-266 299h297l133 -299h-164z" />
    <glyph glyph-name="iacute" unicode="&#xed;" 
d="M184 0v184h338v664h-291v184h504v-848h350v-184h-901zM539 1147l135 299h295l-264 -299h-166z" />
    <glyph glyph-name="icircumflex" unicode="&#xee;" 
d="M184 0v184h338v664h-291v184h504v-848h350v-184h-901zM260 1147l332 334h61l334 -334h-219l-145 147l-146 -147h-217z" />
    <glyph glyph-name="idieresis" unicode="&#xef;" 
d="M184 0v184h338v664h-291v184h504v-848h350v-184h-901zM293 1321q0 57 37 94t94 37t94 -37t37 -94q0 -56 -37 -93.5t-94 -37.5t-94 37.5t-37 93.5zM692 1321q0 57 37 94t94 37t94 -37t37 -94q0 -56 -37 -93.5t-94 -37.5t-94 37.5t-37 93.5z" />
    <glyph glyph-name="eth" unicode="&#xf0;" 
d="M133 516q0 111 35 208t98.5 169t158.5 114t210 42q56 0 112.5 -18.5t88.5 -47.5q-28 64 -76 117.5t-123 109.5l-74 -108l-137 98l70 100q-83 44 -170 80l104 156q105 -47 168 -84l72 104l137 -96l-68 -100q207 -152 301.5 -345t94.5 -464q0 -250 -135 -408.5t-365 -158.5
q-152 0 -267.5 72t-175 192t-59.5 268zM913 516q0 152 -74 249t-204 97q-137 0 -209 -100q-72 -104 -72 -246t72 -246q72 -100 209 -100q136 0 205 100q73 101 73 246z" />
    <glyph glyph-name="ntilde" unicode="&#xf1;" 
d="M199 0v1032h213v-178q58 89 150.5 142t195.5 53q149 0 232 -84t83 -236v-729h-213v672q0 95 -44 142.5t-124 47.5q-120 0 -200 -123t-80 -325v-414h-213zM666 1223q-64 37 -113 37q-70 0 -133 -78l-117 92q37 75 101 121.5t135 46.5q46 0 77.5 -10.5t79.5 -36.5
q39 -22 61.5 -29.5t51.5 -7.5q72 0 133 82l117 -97q-37 -74 -101 -119.5t-135 -45.5q-46 0 -74 9t-83 36z" />
    <glyph glyph-name="ograve" unicode="&#xf2;" 
d="M127 516q0 109 36.5 206.5t102 170t161 114.5t208.5 42t208.5 -42t161 -114.5t102 -170t36.5 -206.5q0 -147 -62 -267.5t-179 -192.5t-267 -72t-267 72t-179 192.5t-62 267.5zM932 516q0 143 -80 246q-75 100 -217 100q-141 0 -219 -100q-78 -104 -78 -246
q0 -144 81 -245t216 -101t216 101t81 245zM584 1147l-267 299h297l134 -299h-164z" />
    <glyph glyph-name="oacute" unicode="&#xf3;" 
d="M127 516q0 109 36.5 206.5t102 170t161 114.5t208.5 42t208.5 -42t161 -114.5t102 -170t36.5 -206.5q0 -147 -62 -267.5t-179 -192.5t-267 -72t-267 72t-179 192.5t-62 267.5zM932 516q0 143 -80 246q-75 100 -217 100q-141 0 -219 -100q-78 -104 -78 -246
q0 -144 81 -245t216 -101t216 101t81 245zM551 1147l135 299h295l-264 -299h-166z" />
    <glyph glyph-name="ocircumflex" unicode="&#xf4;" 
d="M127 516q0 109 36.5 206.5t102 170t161 114.5t208.5 42t208.5 -42t161 -114.5t102 -170t36.5 -206.5q0 -147 -62 -267.5t-179 -192.5t-267 -72t-267 72t-179 192.5t-62 267.5zM932 516q0 143 -80 246q-75 100 -217 100q-141 0 -219 -100q-78 -104 -78 -246
q0 -144 81 -245t216 -101t216 101t81 245zM272 1147l332 334h62l333 -334h-219l-145 147l-146 -147h-217z" />
    <glyph glyph-name="otilde" unicode="&#xf5;" 
d="M127 516q0 109 36.5 206.5t102 170t161 114.5t208.5 42t208.5 -42t161 -114.5t102 -170t36.5 -206.5q0 -147 -62 -267.5t-179 -192.5t-267 -72t-267 72t-179 192.5t-62 267.5zM932 516q0 143 -80 246q-75 100 -217 100q-141 0 -219 -100q-78 -104 -78 -246
q0 -144 81 -245t216 -101t216 101t81 245zM616 1223q-64 37 -112 37q-70 0 -133 -78l-117 92q38 75 101 121.5t134 46.5q46 0 78 -10.5t80 -36.5q39 -22 61.5 -29.5t51.5 -7.5q72 0 133 82l117 -97q-37 -74 -101 -119.5t-135 -45.5q-46 0 -75 9t-83 36z" />
    <glyph glyph-name="odieresis" unicode="&#xf6;" 
d="M127 516q0 109 36.5 206.5t102 170t161 114.5t208.5 42t208.5 -42t161 -114.5t102 -170t36.5 -206.5q0 -147 -62 -267.5t-179 -192.5t-267 -72t-267 72t-179 192.5t-62 267.5zM932 516q0 143 -80 246q-75 100 -217 100q-141 0 -219 -100q-78 -104 -78 -246
q0 -144 81 -245t216 -101t216 101t81 245zM305 1321q0 57 37 94t94 37t94 -37t37 -94q0 -56 -37 -93.5t-94 -37.5t-94 37.5t-37 93.5zM705 1321q0 57 37 94t94 37t94 -37t37 -94q0 -56 -37 -93.5t-94 -37.5t-94 37.5t-37 93.5z" />
    <glyph glyph-name="divide" unicode="&#xf7;" 
d="M481 1022q0 66 44 110t110 44t109.5 -44t43.5 -110t-43.5 -110t-109.5 -44t-110 44t-44 110zM166 555v186h938v-186h-938zM481 274q0 66 44 110t110 44t109.5 -44t43.5 -110t-43.5 -109.5t-109.5 -43.5t-110 43.5t-44 109.5z" />
    <glyph glyph-name="oslash" unicode="&#xf8;" 
d="M127 516q0 109 36.5 206.5t102 170t161 114.5t208.5 42t208.5 -42t161 -114.5t102 -170t36.5 -206.5q0 -147 -62 -267.5t-179 -192.5t-267 -72t-267 72t-179 192.5t-62 267.5zM932 516q0 143 -80 246q-75 100 -217 100q-141 0 -219 -100q-78 -104 -78 -246
q0 -144 81 -245t216 -101t216 101t81 245zM264 -106l-149 110l893 1135l147 -109z" />
    <glyph glyph-name="ugrave" unicode="&#xf9;" 
d="M199 305v727h213v-672q0 -94 44 -141t124 -47q120 0 200 122.5t80 323.5v414h213v-1032h-213v178q-61 -89 -153 -141.5t-193 -52.5q-149 0 -232 84.5t-83 236.5zM571 1147l-266 299h297l133 -299h-164z" />
    <glyph glyph-name="uacute" unicode="&#xfa;" 
d="M199 305v727h213v-672q0 -94 44 -141t124 -47q120 0 200 122.5t80 323.5v414h213v-1032h-213v178q-61 -89 -153 -141.5t-193 -52.5q-149 0 -232 84.5t-83 236.5zM539 1147l135 299h295l-264 -299h-166z" />
    <glyph glyph-name="ucircumflex" unicode="&#xfb;" 
d="M199 305v727h213v-672q0 -94 44 -141t124 -47q120 0 200 122.5t80 323.5v414h213v-1032h-213v178q-61 -89 -153 -141.5t-193 -52.5q-149 0 -232 84.5t-83 236.5zM260 1147l332 334h61l334 -334h-219l-145 147l-146 -147h-217z" />
    <glyph glyph-name="udieresis" unicode="&#xfc;" 
d="M199 305v727h213v-672q0 -94 44 -141t124 -47q120 0 200 122.5t80 323.5v414h213v-1032h-213v178q-61 -89 -153 -141.5t-193 -52.5q-149 0 -232 84.5t-83 236.5zM293 1321q0 57 37 94t94 37t94 -37t37 -94q0 -56 -37 -93.5t-94 -37.5t-94 37.5t-37 93.5zM692 1321
q0 57 37 94t94 37t94 -37t37 -94q0 -56 -37 -93.5t-94 -37.5t-94 37.5t-37 93.5z" />
    <glyph glyph-name="yacute" unicode="&#xfd;" 
d="M328 -418l217 518l-428 932h229l305 -684l277 684h225l-612 -1450h-213zM569 1147l136 299h294l-264 -299h-166z" />
    <glyph glyph-name="thorn" unicode="&#xfe;" 
d="M178 -418v1868h213v-530q44 57 120.5 93t162.5 36q223 0 347 -143t124 -390q0 -243 -123 -387q-124 -145 -348 -145q-90 0 -167.5 39.5t-115.5 99.5v-541h-213zM924 516q0 159 -76 252.5t-201 93.5q-124 0 -199 -94t-75 -252t75 -252t199 -94q125 0 201 93.5t76 252.5z
" />
    <glyph glyph-name="ydieresis" unicode="&#xff;" 
d="M328 -418l217 518l-428 932h229l305 -684l277 684h225l-612 -1450h-213zM324 1321q0 57 37 94t94 37t94 -37t37 -94q0 -56 -37 -93.5t-94 -37.5t-94 37.5t-37 93.5zM723 1321q0 57 37 94t94 37t94 -37t37 -94q0 -56 -37 -93.5t-94 -37.5t-94 37.5t-37 93.5z" />
    <glyph glyph-name="Amacron" unicode="&#x100;" 
d="M39 0l481 1434h232l479 -1434h-230l-114 358h-502l-115 -358h-231zM451 567h368l-184 572zM367 1624v176h534v-176h-534z" />
    <glyph glyph-name="amacron" unicode="&#x101;" 
d="M209 297q0 159 122 248.5t333 89.5h190v45q0 93 -57 140.5t-152 47.5q-74 0 -130 -42t-81 -117l-184 51q37 131 145 210t250 79q416 0 416 -414v-635h-168l-27 139q-51 -72 -141.5 -113.5t-198.5 -41.5q-140 0 -228.5 83.5t-88.5 229.5zM852 438v29h-205
q-111 0 -172 -43.5t-61 -124.5q0 -58 39 -95.5t104 -37.5q53 0 104.5 18t94.5 51t69.5 86t26.5 117zM375 1223v176h534v-176h-534z" />
    <glyph glyph-name="Abreve" unicode="&#x102;" 
d="M39 0l481 1434h232l479 -1434h-230l-114 358h-502l-115 -358h-231zM451 567h368l-184 572zM401 1835h162q0 -32 20 -53t52 -21t53 21t21 53h161q0 -94 -66 -158.5t-169 -64.5q-101 0 -167.5 64.5t-66.5 158.5z" />
    <glyph glyph-name="abreve" unicode="&#x103;" 
d="M209 297q0 159 122 248.5t333 89.5h190v45q0 93 -57 140.5t-152 47.5q-74 0 -130 -42t-81 -117l-184 51q37 131 145 210t250 79q416 0 416 -414v-635h-168l-27 139q-51 -72 -141.5 -113.5t-198.5 -41.5q-140 0 -228.5 83.5t-88.5 229.5zM852 438v29h-205
q-111 0 -172 -43.5t-61 -124.5q0 -58 39 -95.5t104 -37.5q53 0 104.5 18t94.5 51t69.5 86t26.5 117zM410 1434h161q0 -32 20 -53t52 -21t53 21t21 53h162q0 -94 -66.5 -159t-169.5 -65q-101 0 -167 65t-66 159z" />
    <glyph glyph-name="Aogonek" unicode="&#x104;" 
d="M39 0l481 1434h232l479 -1434h-230l-114 358h-502l-115 -358h-231zM451 567h368l-184 572zM946 -197q0 55 31.5 107.5t87.5 89.5h166q-123 -102 -123 -166q0 -29 16 -44t43 -15q35 0 70 24l39 -145q-59 -33 -133 -33q-89 0 -143 49t-54 133z" />
    <glyph glyph-name="aogonek" unicode="&#x105;" 
d="M1067 -201l39 -145q-59 -33 -133 -33q-89 0 -143 49t-54 133q0 56 33.5 108t93.5 89h-10l-27 139q-51 -72 -141.5 -113.5t-198.5 -41.5q-140 0 -228.5 83.5t-88.5 229.5q0 159 122 248.5t333 89.5h190v45q0 93 -57 140.5t-152 47.5q-74 0 -130 -42t-81 -117l-184 51
q37 131 145 210t250 79q416 0 416 -414v-635q-123 -102 -123 -166q0 -29 16 -44t43 -15q35 0 70 24zM852 438v29h-205q-111 0 -172 -43.5t-61 -124.5q0 -58 39 -95.5t104 -37.5q53 0 104.5 18t94.5 51t69.5 86t26.5 117z" />
    <glyph glyph-name="Cacute" unicode="&#x106;" 
d="M92 717q0 176 47 317.5t129 231t190 137t234 47.5q204 0 337 -113.5t190 -320.5l-211 -64q-41 153 -120 221t-196 68q-175 0 -274 -129t-99 -395t99 -395t274 -129q117 0 196 68.5t120 221.5l211 -65q-57 -207 -190 -320.5t-337 -113.5q-126 0 -234 47.5t-190 137
t-129 231t-47 317.5zM610 1548l135 299h295l-264 -299h-166z" />
    <glyph glyph-name="cacute" unicode="&#x107;" 
d="M166 516q0 146 58 266t172 193.5t263 73.5q317 0 443 -285l-184 -76q-72 174 -259 174q-129 0 -203.5 -93.5t-74.5 -252.5q0 -157 75 -251.5t203 -94.5q186 0 259 176l184 -78q-126 -284 -443 -284q-112 0 -206 42.5t-156 115t-96.5 169.5t-34.5 205zM575 1147l136 299
h295l-265 -299h-166z" />
    <glyph glyph-name="Ccircumflex" unicode="&#x108;" 
d="M92 717q0 176 47 317.5t129 231t190 137t234 47.5q204 0 337 -113.5t190 -320.5l-211 -64q-41 153 -120 221t-196 68q-175 0 -274 -129t-99 -395t99 -395t274 -129q117 0 196 68.5t120 221.5l211 -65q-57 -207 -190 -320.5t-337 -113.5q-126 0 -234 47.5t-190 137
t-129 231t-47 317.5zM330 1548l332 334h61l334 -334h-219l-146 148l-145 -148h-217z" />
    <glyph glyph-name="ccircumflex" unicode="&#x109;" 
d="M166 516q0 146 58 266t172 193.5t263 73.5q317 0 443 -285l-184 -76q-72 174 -259 174q-129 0 -203.5 -93.5t-74.5 -252.5q0 -157 75 -251.5t203 -94.5q186 0 259 176l184 -78q-126 -284 -443 -284q-112 0 -206 42.5t-156 115t-96.5 169.5t-34.5 205zM297 1147l332 334
h61l334 -334h-219l-146 147l-145 -147h-217z" />
    <glyph glyph-name="Cdotaccent" unicode="&#x10a;" 
d="M92 717q0 176 47 317.5t129 231t190 137t234 47.5q204 0 337 -113.5t190 -320.5l-211 -64q-41 153 -120 221t-196 68q-175 0 -274 -129t-99 -395t99 -395t274 -129q117 0 196 68.5t120 221.5l211 -65q-57 -207 -190 -320.5t-337 -113.5q-126 0 -234 47.5t-190 137
t-129 231t-47 317.5zM539 1729q0 65 43.5 109t107.5 44q66 0 110 -43.5t44 -109.5q0 -63 -44 -107.5t-110 -44.5q-63 0 -107 44.5t-44 107.5z" />
    <glyph glyph-name="cdotaccent" unicode="&#x10b;" 
d="M166 516q0 146 58 266t172 193.5t263 73.5q317 0 443 -285l-184 -76q-72 174 -259 174q-129 0 -203.5 -93.5t-74.5 -252.5q0 -157 75 -251.5t203 -94.5q186 0 259 176l184 -78q-126 -284 -443 -284q-112 0 -206 42.5t-156 115t-96.5 169.5t-34.5 205zM508 1317
q0 65 44 109t107 44q66 0 110 -43.5t44 -109.5q0 -63 -44.5 -107.5t-109.5 -44.5q-63 0 -107 44.5t-44 107.5z" />
    <glyph glyph-name="Ccaron" unicode="&#x10c;" 
d="M92 717q0 176 47 317.5t129 231t190 137t234 47.5q204 0 337 -113.5t190 -320.5l-211 -64q-41 153 -120 221t-196 68q-175 0 -274 -129t-99 -395t99 -395t274 -129q117 0 196 68.5t120 221.5l211 -65q-57 -207 -190 -320.5t-337 -113.5q-126 0 -234 47.5t-190 137
t-129 231t-47 317.5zM662 1548l-332 334h217l145 -147l146 147h219l-334 -334h-61z" />
    <glyph glyph-name="ccaron" unicode="&#x10d;" 
d="M166 516q0 146 58 266t172 193.5t263 73.5q317 0 443 -285l-184 -76q-72 174 -259 174q-129 0 -203.5 -93.5t-74.5 -252.5q0 -157 75 -251.5t203 -94.5q186 0 259 176l184 -78q-126 -284 -443 -284q-112 0 -206 42.5t-156 115t-96.5 169.5t-34.5 205zM629 1147l-332 334
h217l145 -148l146 148h219l-334 -334h-61z" />
    <glyph glyph-name="Dcaron" unicode="&#x10e;" 
d="M145 0v1434h383q143 0 263 -45t210 -132.5t140.5 -225.5t50.5 -314t-50.5 -314t-140.5 -225.5t-210 -132.5t-263 -45h-383zM369 209h139q200 0 326 117q127 121 127 391q0 271 -127 389q-125 119 -326 119h-139v-1016zM496 1548l-332 334h217l145 -147l146 147h219
l-334 -334h-61z" />
    <glyph glyph-name="dcaron" unicode="&#x10f;" 
d="M27 516q0 247 124 390t347 143q86 0 163 -36t119 -93v530h213v-1450h-213v123q-38 -60 -115 -99.5t-167 -39.5q-224 0 -348 145q-123 144 -123 387zM799 516q0 157 -75.5 251.5t-199.5 94.5q-125 0 -200.5 -93.5t-75.5 -252.5t75.5 -252.5t200.5 -93.5q124 0 199.5 94.5
t75.5 251.5zM1061 1110l49 367h246l-158 -367h-137z" />
    <glyph glyph-name="Dcroat" unicode="&#x110;" 
d="M145 0v618h-92v197h92v619h383q143 0 263 -45t210 -132.5t140.5 -225.5t50.5 -314t-50.5 -314t-140.5 -225.5t-210 -132.5t-263 -45h-383zM369 209h139q200 0 326 117q127 121 127 391q0 271 -127 389q-125 119 -326 119h-139v-410h219v-197h-219v-409z" />
    <glyph glyph-name="dslash" unicode="&#x111;" 
d="M131 516q0 247 124 390t347 143q86 0 163.5 -36t119.5 -93v239h-246v164h246v127h213v-127h141v-164h-141v-1159h-213v123q-38 -60 -115.5 -99.5t-167.5 -39.5q-224 0 -348 145q-123 144 -123 387zM903 516q0 158 -75 252t-199 94q-125 0 -201 -93.5t-76 -252.5
t76 -252.5t201 -93.5q124 0 199 94t75 252z" />
    <glyph glyph-name="Emacron" unicode="&#x112;" 
d="M186 0v1434h910v-209h-686v-357h583v-209h-583v-450h706v-209h-930zM383 1624v176h535v-176h-535z" />
    <glyph glyph-name="emacron" unicode="&#x113;" 
d="M145 516q0 106 33 201.5t94.5 169.5t157 118t211.5 44q93 0 172.5 -27.5t136.5 -75.5t97 -112t59.5 -137.5t19.5 -151.5v-88h-768q6 -125 86 -206t203 -81q188 0 293 176l170 -88q-148 -274 -469 -274q-115 0 -210.5 43.5t-157 117.5t-95 169.5t-33.5 201.5zM367 631h548
q-24 111 -94 173t-180 62q-108 0 -180.5 -64t-93.5 -171zM371 1223v176h534v-176h-534z" />
    <glyph glyph-name="Ebreve" unicode="&#x114;" 
d="M186 0v1434h910v-209h-686v-357h583v-209h-583v-450h706v-209h-930zM418 1835h162q0 -33 19.5 -53.5t51.5 -20.5t53 21t21 53h162q0 -94 -66.5 -158.5t-169.5 -64.5q-101 0 -167 64.5t-66 158.5z" />
    <glyph glyph-name="ebreve" unicode="&#x115;" 
d="M145 516q0 106 33 201.5t94.5 169.5t157 118t211.5 44q93 0 172.5 -27.5t136.5 -75.5t97 -112t59.5 -137.5t19.5 -151.5v-88h-768q6 -125 86 -206t203 -81q188 0 293 176l170 -88q-148 -274 -469 -274q-115 0 -210.5 43.5t-157 117.5t-95 169.5t-33.5 201.5zM367 631h548
q-24 111 -94 173t-180 62q-108 0 -180.5 -64t-93.5 -171zM406 1434h161q0 -32 20 -53t52 -21t53 21t21 53h161q0 -94 -66 -159t-169 -65q-101 0 -167 65t-66 159z" />
    <glyph glyph-name="Edotaccent" unicode="&#x116;" 
d="M186 0v1434h910v-209h-686v-357h583v-209h-583v-450h706v-209h-930zM498 1729q0 65 44 109t107 44q66 0 110 -43.5t44 -109.5q0 -63 -44.5 -107.5t-109.5 -44.5q-63 0 -107 44.5t-44 107.5z" />
    <glyph glyph-name="edotaccent" unicode="&#x117;" 
d="M145 516q0 106 33 201.5t94.5 169.5t157 118t211.5 44q93 0 172.5 -27.5t136.5 -75.5t97 -112t59.5 -137.5t19.5 -151.5v-88h-768q6 -125 86 -206t203 -81q188 0 293 176l170 -88q-148 -274 -469 -274q-115 0 -210.5 43.5t-157 117.5t-95 169.5t-33.5 201.5zM367 631h548
q-24 111 -94 173t-180 62q-108 0 -180.5 -64t-93.5 -171zM487 1317q0 65 44 109t108 44q66 0 110 -43.5t44 -109.5q0 -63 -44.5 -107.5t-109.5 -44.5q-63 0 -107.5 44.5t-44.5 107.5z" />
    <glyph glyph-name="Eogonek" unicode="&#x118;" 
d="M186 0v1434h910v-209h-686v-357h583v-209h-583v-450h706v-209h-930zM831 -197q0 55 31.5 107.5t87.5 89.5h166q-123 -102 -123 -166q0 -28 16.5 -43.5t43.5 -15.5q35 0 69 24l39 -145q-59 -33 -133 -33q-89 0 -143 49t-54 133z" />
    <glyph glyph-name="eogonek" unicode="&#x119;" 
d="M145 516q0 106 33 201.5t94.5 169.5t157 118t211.5 44q93 0 172.5 -27.5t136.5 -75.5t97 -112t59.5 -137.5t19.5 -151.5v-88h-768q6 -125 86 -206t203 -81q188 0 293 176l170 -88q-148 -274 -469 -274q-115 0 -210.5 43.5t-157 117.5t-95 169.5t-33.5 201.5zM367 631h548
q-24 111 -94 173t-180 62q-108 0 -180.5 -64t-93.5 -171zM504 -197q0 55 31.5 107.5t87.5 89.5h165q-122 -101 -122 -166q0 -29 16 -44t43 -15q35 0 70 24l39 -145q-59 -33 -134 -33q-89 0 -142.5 49t-53.5 133z" />
    <glyph glyph-name="Ecaron" unicode="&#x11a;" 
d="M186 0v1434h910v-209h-686v-357h583v-209h-583v-450h706v-209h-930zM621 1548l-332 334h217l145 -147l146 147h219l-334 -334h-61z" />
    <glyph glyph-name="ecaron" unicode="&#x11b;" 
d="M145 516q0 106 33 201.5t94.5 169.5t157 118t211.5 44q93 0 172.5 -27.5t136.5 -75.5t97 -112t59.5 -137.5t19.5 -151.5v-88h-768q6 -125 86 -206t203 -81q188 0 293 176l170 -88q-148 -274 -469 -274q-115 0 -210.5 43.5t-157 117.5t-95 169.5t-33.5 201.5zM367 631h548
q-24 111 -94 173t-180 62q-108 0 -180.5 -64t-93.5 -171zM608 1147l-332 334h218l145 -148l145 148h220l-334 -334h-62z" />
    <glyph glyph-name="Gcircumflex" unicode="&#x11c;" 
d="M90 717q-2 146 30.5 269t88.5 207.5t131 144t157.5 86.5t168.5 26q208 0 342 -111.5t188 -324.5l-211 -64q-38 151 -113.5 221t-195.5 70q-171 0 -265 -130.5t-94 -393.5q0 -262 92 -393t257 -131q131 0 210.5 85.5t92.5 247.5h-297v197h518v-723h-186l-15 166
q-103 -182 -340 -182q-108 -2 -208 45t-179.5 136t-126.5 232.5t-45 319.5zM303 1548l332 334h61l334 -334h-219l-145 148l-146 -148h-217z" />
    <glyph glyph-name="gcircumflex" unicode="&#x11d;" 
d="M176 -94q0 133 96 213q-63 57 -63 160q0 69 36.5 125t102.5 85q-67 85 -67 213q0 154 105.5 250.5t264.5 96.5q105 0 197 -50l205 107l90 -154l-162 -82q43 -73 43 -168q0 -160 -106 -253q-107 -93 -267 -93q-91 0 -170 33q-71 -30 -71 -92q0 -38 31.5 -59t88.5 -21h240
q167 0 260.5 -77t93.5 -218q0 -72 -26 -132t-70.5 -101t-105 -69t-129.5 -41t-144 -13q-220 0 -346.5 89t-126.5 251zM821 702q0 77 -47.5 123.5t-122.5 46.5q-73 0 -120.5 -46.5t-47.5 -123.5t47.5 -123.5t120.5 -46.5q75 0 122.5 46.5t47.5 123.5zM909 -94
q0 70 -42.5 100.5t-127.5 30.5h-190q-72 0 -113 8q-55 -40 -55 -127q0 -79 72 -124.5t196 -45.5q122 0 191 41.5t69 116.5zM293 1147l332 334h61l334 -334h-219l-146 147l-145 -147h-217z" />
    <glyph glyph-name="Gbreve" unicode="&#x11e;" 
d="M90 717q-2 146 30.5 269t88.5 207.5t131 144t157.5 86.5t168.5 26q208 0 342 -111.5t188 -324.5l-211 -64q-38 151 -113.5 221t-195.5 70q-171 0 -265 -130.5t-94 -393.5q0 -262 92 -393t257 -131q131 0 210.5 85.5t92.5 247.5h-297v197h518v-723h-186l-15 166
q-103 -182 -340 -182q-108 -2 -208 45t-179.5 136t-126.5 232.5t-45 319.5zM432 1835h162q0 -32 20 -53t52 -21t52.5 21t20.5 53h162q0 -94 -66 -158.5t-169 -64.5q-101 0 -167.5 64.5t-66.5 158.5z" />
    <glyph glyph-name="gbreve" unicode="&#x11f;" 
d="M176 -94q0 133 96 213q-63 57 -63 160q0 69 36.5 125t102.5 85q-67 85 -67 213q0 154 105.5 250.5t264.5 96.5q105 0 197 -50l205 107l90 -154l-162 -82q43 -73 43 -168q0 -160 -106 -253q-107 -93 -267 -93q-91 0 -170 33q-71 -30 -71 -92q0 -38 31.5 -59t88.5 -21h240
q167 0 260.5 -77t93.5 -218q0 -72 -26 -132t-70.5 -101t-105 -69t-129.5 -41t-144 -13q-220 0 -346.5 89t-126.5 251zM821 702q0 77 -47.5 123.5t-122.5 46.5q-73 0 -120.5 -46.5t-47.5 -123.5t47.5 -123.5t120.5 -46.5q75 0 122.5 46.5t47.5 123.5zM909 -94
q0 70 -42.5 100.5t-127.5 30.5h-190q-72 0 -113 8q-55 -40 -55 -127q0 -79 72 -124.5t196 -45.5q122 0 191 41.5t69 116.5zM422 1434h162q0 -33 19.5 -53.5t51.5 -20.5t53 21t21 53h162q0 -94 -66.5 -159t-169.5 -65q-101 0 -167 65t-66 159z" />
    <glyph glyph-name="Gdotaccent" unicode="&#x120;" 
d="M90 717q-2 146 30.5 269t88.5 207.5t131 144t157.5 86.5t168.5 26q208 0 342 -111.5t188 -324.5l-211 -64q-38 151 -113.5 221t-195.5 70q-171 0 -265 -130.5t-94 -393.5q0 -262 92 -393t257 -131q131 0 210.5 85.5t92.5 247.5h-297v197h518v-723h-186l-15 166
q-103 -182 -340 -182q-108 -2 -208 45t-179.5 136t-126.5 232.5t-45 319.5zM512 1729q0 65 44 109t108 44q66 0 109.5 -43.5t43.5 -109.5q0 -64 -44 -108t-109 -44q-63 0 -107.5 44.5t-44.5 107.5z" />
    <glyph glyph-name="gdotaccent" unicode="&#x121;" 
d="M176 -94q0 133 96 213q-63 57 -63 160q0 69 36.5 125t102.5 85q-67 85 -67 213q0 154 105.5 250.5t264.5 96.5q105 0 197 -50l205 107l90 -154l-162 -82q43 -73 43 -168q0 -160 -106 -253q-107 -93 -267 -93q-91 0 -170 33q-71 -30 -71 -92q0 -38 31.5 -59t88.5 -21h240
q167 0 260.5 -77t93.5 -218q0 -72 -26 -132t-70.5 -101t-105 -69t-129.5 -41t-144 -13q-220 0 -346.5 89t-126.5 251zM821 702q0 77 -47.5 123.5t-122.5 46.5q-73 0 -120.5 -46.5t-47.5 -123.5t47.5 -123.5t120.5 -46.5q75 0 122.5 46.5t47.5 123.5zM909 -94
q0 70 -42.5 100.5t-127.5 30.5h-190q-72 0 -113 8q-55 -40 -55 -127q0 -79 72 -124.5t196 -45.5q122 0 191 41.5t69 116.5zM504 1317q0 65 44 109t107 44q66 0 110 -43.5t44 -109.5q0 -63 -44.5 -107.5t-109.5 -44.5q-63 0 -107 44.5t-44 107.5z" />
    <glyph glyph-name="Gcommaaccent" unicode="&#x122;" 
d="M90 717q-2 146 30.5 269t88.5 207.5t131 144t157.5 86.5t168.5 26q208 0 342 -111.5t188 -324.5l-211 -64q-38 151 -113.5 221t-195.5 70q-171 0 -265 -130.5t-94 -393.5q0 -262 92 -393t257 -131q131 0 210.5 85.5t92.5 247.5h-297v197h518v-723h-186l-15 166
q-103 -182 -340 -182q-108 -2 -208 45t-179.5 136t-126.5 232.5t-45 319.5zM434 -471l88 365h269l-240 -365h-117z" />
    <glyph glyph-name="gcommaaccent" unicode="&#x123;" 
d="M176 -94q0 133 96 213q-63 57 -63 160q0 69 36.5 125t102.5 85q-67 85 -67 213q0 154 105.5 250.5t264.5 96.5q105 0 197 -50l205 107l90 -154l-162 -82q43 -73 43 -168q0 -160 -106 -253q-107 -93 -267 -93q-91 0 -170 33q-71 -30 -71 -92q0 -38 31.5 -59t88.5 -21h240
q167 0 260.5 -77t93.5 -218q0 -72 -26 -132t-70.5 -101t-105 -69t-129.5 -41t-144 -13q-220 0 -346.5 89t-126.5 251zM821 702q0 77 -47.5 123.5t-122.5 46.5q-73 0 -120.5 -46.5t-47.5 -123.5t47.5 -123.5t120.5 -46.5q75 0 122.5 46.5t47.5 123.5zM909 -94
q0 70 -42.5 100.5t-127.5 30.5h-190q-72 0 -113 8q-55 -40 -55 -127q0 -79 72 -124.5t196 -45.5q122 0 191 41.5t69 116.5zM532 1200l191 328h141l-88 -328h-244z" />
    <glyph glyph-name="Hcircumflex" unicode="&#x124;" 
d="M139 0v1434h223v-568h545v568h223v-1434h-223v657h-545v-657h-223zM272 1548l332 334h62l333 -334h-219l-145 148l-146 -148h-217z" />
    <glyph glyph-name="hcircumflex" unicode="&#x125;" 
d="M201 0v1450h213v-596q57 89 149.5 142t200.5 53q155 0 237 -83t82 -241v-725h-213v662q0 102 -42.5 151t-129.5 49q-115 0 -199.5 -115.5t-84.5 -312.5v-434h-213zM193 1565l331 333h62l334 -333h-220l-145 147l-145 -147h-217z" />
    <glyph glyph-name="Hbar" unicode="&#x126;" 
d="M139 0v1075h-106v189h106v170h223v-170h545v170h223v-170h109v-189h-109v-1075h-223v657h-545v-657h-223zM362 866h545v209h-545v-209z" />
    <glyph glyph-name="hbar" unicode="&#x127;" 
d="M201 0v1159h-148v164h148v127h213v-127h254v-164h-254v-305q57 89 149.5 142t200.5 53q155 0 237 -83t82 -241v-725h-213v662q0 102 -42.5 151t-129.5 49q-115 0 -199.5 -115.5t-84.5 -312.5v-434h-213z" />
    <glyph glyph-name="Itilde" unicode="&#x128;" 
d="M199 0v201h325v1032h-325v201h872v-201h-323v-1032h323v-201h-872zM616 1624q-64 37 -112 37q-70 0 -133 -78l-117 92q38 75 101 121.5t134 46.5q46 0 78 -10.5t80 -36.5q39 -22 61.5 -29.5t51.5 -7.5q72 0 133 82l117 -96q-37 -75 -101 -120.5t-135 -45.5q-46 0 -75 9
t-83 36z" />
    <glyph glyph-name="itilde" unicode="&#x129;" 
d="M184 0v184h338v664h-291v184h504v-848h350v-184h-901zM604 1223q-64 37 -112 37q-71 0 -134 -78l-116 92q38 75 101 121.5t134 46.5q46 0 78 -10.5t80 -36.5q39 -22 61.5 -29.5t51.5 -7.5q72 0 133 82l116 -97q-37 -75 -100.5 -120t-134.5 -45q-46 0 -75 9t-83 36z" />
    <glyph glyph-name="Imacron" unicode="&#x12a;" 
d="M199 0v201h325v1032h-325v201h872v-201h-323v-1032h323v-201h-872zM367 1624v176h534v-176h-534z" />
    <glyph glyph-name="imacron" unicode="&#x12b;" 
d="M184 0v184h338v664h-291v184h504v-848h350v-184h-901zM354 1223v176h535v-176h-535z" />
    <glyph glyph-name="Ibreve" unicode="&#x12c;" 
d="M199 0v201h325v1032h-325v201h872v-201h-323v-1032h323v-201h-872zM401 1835h162q0 -32 20 -53t52 -21t53 21t21 53h161q0 -94 -66 -158.5t-169 -64.5q-101 0 -167.5 64.5t-66.5 158.5z" />
    <glyph glyph-name="ibreve" unicode="&#x12d;" 
d="M184 0v184h338v664h-291v184h504v-848h350v-184h-901zM389 1434h162q0 -32 20 -53t52 -21t52.5 21t20.5 53h162q0 -94 -66 -159t-169 -65q-101 0 -167.5 65t-66.5 159z" />
    <glyph glyph-name="Iogonek" unicode="&#x12e;" 
d="M199 0v201h325v1032h-325v201h872v-201h-323v-1032h323v-201h-872zM786 -197q0 55 31.5 107.5t87.5 89.5h166q-123 -102 -123 -166q0 -28 16.5 -43.5t43.5 -15.5q34 0 69 24l39 -145q-59 -33 -133 -33q-89 0 -143 49t-54 133z" />
    <glyph glyph-name="iogonek" unicode="&#x12f;" 
d="M184 0v184h338v664h-291v184h504v-848h350v-184h-901zM471 1317q0 65 44 109t108 44q66 0 109.5 -43.5t43.5 -109.5q0 -64 -44 -108t-109 -44q-63 0 -107.5 44.5t-44.5 107.5zM803 -197q0 55 31.5 107.5t87.5 89.5h165q-122 -101 -122 -166q0 -29 16 -44t43 -15
q36 0 70 24l39 -145q-59 -33 -134 -33q-89 0 -142.5 49t-53.5 133z" />
    <glyph glyph-name="Idot" unicode="&#x130;" 
d="M199 0v201h325v1032h-325v201h872v-201h-323v-1032h323v-201h-872zM481 1729q0 65 44 109t108 44q66 0 109.5 -43.5t43.5 -109.5q0 -64 -44 -108t-109 -44q-63 0 -107.5 44.5t-44.5 107.5z" />
    <glyph glyph-name="dotlessi" unicode="&#x131;" 
d="M184 0v184h338v664h-291v184h504v-848h350v-184h-901z" />
    <glyph glyph-name="IJ" unicode="&#x132;" 
d="M66 0v1434h223v-1434h-223zM365 340l223 47q18 -96 68.5 -145t125.5 -49q197 0 197 272v969h223v-953q0 -247 -108 -372t-312 -125q-170 0 -281 95.5t-136 260.5z" />
    <glyph glyph-name="ij" unicode="&#x133;" 
d="M178 1319q0 65 44 109.5t108 44.5q66 0 109.5 -44t43.5 -110t-43.5 -109t-109.5 -43q-63 0 -107.5 44.5t-44.5 107.5zM834 1319q0 65 44.5 109.5t108.5 44.5q63 0 107.5 -44.5t44.5 -109.5q0 -64 -43.5 -108t-108.5 -44t-109 44t-44 108zM231 0v1032h213v-1032h-213z
M694 -434l-59 192q136 42 197 120.5t61 223.5v746h-231v184h444v-975q0 -207 -123 -327q-121 -124 -289 -164z" />
    <glyph glyph-name="Jcircumflex" unicode="&#x134;" 
d="M135 375l221 47q24 -107 85.5 -168t152.5 -61q107 0 166 67.5t59 204.5v969h223v-953q0 -248 -118 -372.5t-330 -124.5q-187 0 -310.5 108t-148.5 283zM567 1548l332 334h62l333 -334h-219l-145 148l-146 -148h-217z" />
    <glyph glyph-name="jcircumflex" unicode="&#x135;" 
d="M416 -434l-60 192q136 42 197 120.5t61 223.5v746h-385v184h598v-975q0 -208 -122 -327q-121 -124 -289 -164zM360 1147l332 334h62l333 -334h-219l-145 147l-145 -147h-218z" />
    <glyph glyph-name="Kcommaaccent" unicode="&#x136;" 
d="M123 0v1434h223v-555l481 555h279l-561 -641l602 -793h-277l-524 700v-700h-223zM346 -471l88 365h268l-239 -365h-117z" />
    <glyph glyph-name="kcommaaccent" unicode="&#x137;" 
d="M178 0v1450h213v-825l389 407h267l-461 -473l508 -559h-267l-436 494v-494h-213zM385 -471l88 365h268l-239 -365h-117z" />
    <glyph glyph-name="kgreenlandic" unicode="&#x138;" 
d="M178 0v1032h213v-407l389 407h267l-461 -473l508 -559h-267l-436 494v-494h-213z" />
    <glyph glyph-name="Lacute" unicode="&#x139;" 
d="M180 0v1434h223v-1225h689v-209h-912zM211 1548l135 299h295l-264 -299h-166z" />
    <glyph glyph-name="lacute" unicode="&#x13a;" 
d="M375 389v858h-275v187h488v-1016q0 -234 186 -234q172 0 207 213l188 -39q-26 -183 -129 -278.5t-266 -95.5q-184 0 -291.5 107t-107.5 298zM406 1548l135 299h295l-265 -299h-165z" />
    <glyph glyph-name="Lcommaaccent" unicode="&#x13b;" 
d="M180 0v1434h223v-1225h689v-209h-912zM430 -471l88 365h268l-239 -365h-117z" />
    <glyph glyph-name="lcommaaccent" unicode="&#x13c;" 
d="M375 389v858h-275v187h488v-1016q0 -234 186 -234q172 0 207 213l188 -39q-26 -183 -129 -278.5t-266 -95.5q-184 0 -291.5 107t-107.5 298zM543 -471l88 365h268l-240 -365h-116z" />
    <glyph glyph-name="Lcaron" unicode="&#x13d;" 
d="M180 0v1434h223v-1225h689v-209h-912zM764 1110l49 367h246l-158 -367h-137z" />
    <glyph glyph-name="lcaron" unicode="&#x13e;" 
d="M375 389v858h-275v187h488v-1016q0 -234 186 -234q172 0 207 213l188 -39q-26 -183 -129 -278.5t-266 -95.5q-184 0 -291.5 107t-107.5 298zM838 1110l49 367h246l-158 -367h-137z" />
    <glyph glyph-name="Ldot" unicode="&#x13f;" 
d="M180 0v1434h223v-1225h689v-209h-912zM709 768q0 67 43.5 111.5t109.5 44.5q68 0 112 -44t44 -112q0 -66 -44.5 -111t-111.5 -45q-66 0 -109.5 45t-43.5 111z" />
    <glyph glyph-name="ldot" unicode="&#x140;" 
d="M375 389v858h-275v187h488v-1016q0 -234 186 -234q172 0 207 213l188 -39q-26 -183 -129 -278.5t-266 -95.5q-184 0 -291.5 107t-107.5 298zM854 719q0 67 44 111t110 44q68 0 111.5 -44t43.5 -111q0 -66 -44 -111t-111 -45q-66 0 -110 45t-44 111z" />
    <glyph glyph-name="Lslash" unicode="&#x141;" 
d="M180 0v1434h223v-1225h689v-209h-912zM88 459l-88 178l655 338l93 -176z" />
    <glyph glyph-name="lslash" unicode="&#x142;" 
d="M375 391v135l-146 -80l-90 162l236 131v508h-275v187h488v-578l153 86l93 -162l-246 -135v-223q0 -238 186 -238q172 0 207 211l188 -37q-26 -183 -129 -278.5t-266 -95.5q-182 0 -290.5 109t-108.5 298z" />
    <glyph glyph-name="Nacute" unicode="&#x143;" 
d="M145 0v1434h222l542 -1014v1014h213v-1434h-221l-543 1012v-1012h-213zM553 1548l135 299h295l-264 -299h-166z" />
    <glyph glyph-name="nacute" unicode="&#x144;" 
d="M199 0v1032h213v-178q58 89 150.5 142t195.5 53q149 0 232 -84t83 -236v-729h-213v672q0 95 -44 142.5t-124 47.5q-120 0 -200 -123t-80 -325v-414h-213zM600 1147l135 299h295l-264 -299h-166z" />
    <glyph glyph-name="Ncommaaccent" unicode="&#x145;" 
d="M145 0v1434h222l542 -1014v1014h213v-1434h-221l-543 1012v-1012h-213zM414 -471l88 365h268l-240 -365h-116z" />
    <glyph glyph-name="ncommaaccent" unicode="&#x146;" 
d="M199 0v1032h213v-178q58 89 150.5 142t195.5 53q149 0 232 -84t83 -236v-729h-213v672q0 95 -44 142.5t-124 47.5q-120 0 -200 -123t-80 -325v-414h-213zM414 -471l88 365h268l-240 -365h-116z" />
    <glyph glyph-name="Ncaron" unicode="&#x147;" 
d="M145 0v1434h222l542 -1014v1014h213v-1434h-221l-543 1012v-1012h-213zM604 1548l-332 334h217l146 -147l145 147h219l-333 -334h-62z" />
    <glyph glyph-name="ncaron" unicode="&#x148;" 
d="M199 0v1032h213v-178q58 89 150.5 142t195.5 53q149 0 232 -84t83 -236v-729h-213v672q0 95 -44 142.5t-124 47.5q-120 0 -200 -123t-80 -325v-414h-213zM653 1147l-331 334h217l145 -148l145 148h220l-334 -334h-62z" />
    <glyph glyph-name="Eng" unicode="&#x14a;" 
d="M678 -434v209q114 0 172 51t59 174l-551 1012v-1012h-213v1434h222l542 -1000v1000h213v-1434q0 -221 -114.5 -327.5t-329.5 -106.5z" />
    <glyph glyph-name="eng" unicode="&#x14b;" 
d="M662 -434l-60 192q138 42 198 118t60 220v576q0 95 -44 142.5t-124 47.5q-120 0 -200 -123t-80 -325v-414h-213v1032h213v-178q58 89 150.5 142t195.5 53q149 0 232 -84t83 -236v-641q0 -423 -411 -522z" />
    <glyph glyph-name="Omacron" unicode="&#x14c;" 
d="M78 717q0 176 42 316t117 230.5t176.5 138.5t221.5 48t221.5 -48t176.5 -138.5t117 -230.5t42 -316t-42 -316t-117 -230.5t-176.5 -138.5t-221.5 -48t-221.5 48t-176.5 138.5t-117 230.5t-42 316zM967 717q0 263 -88.5 393.5t-243.5 130.5t-242.5 -130.5t-87.5 -393.5
t87.5 -393.5t242.5 -130.5t243.5 131t88.5 393zM367 1624v176h534v-176h-534z" />
    <glyph glyph-name="omacron" unicode="&#x14d;" 
d="M127 516q0 109 36.5 206.5t102 170t161 114.5t208.5 42t208.5 -42t161 -114.5t102 -170t36.5 -206.5q0 -147 -62 -267.5t-179 -192.5t-267 -72t-267 72t-179 192.5t-62 267.5zM932 516q0 143 -80 246q-75 100 -217 100q-141 0 -219 -100q-78 -104 -78 -246
q0 -144 81 -245t216 -101t216 101t81 245zM367 1223v176h534v-176h-534z" />
    <glyph glyph-name="Obreve" unicode="&#x14e;" 
d="M78 717q0 176 42 316t117 230.5t176.5 138.5t221.5 48t221.5 -48t176.5 -138.5t117 -230.5t42 -316t-42 -316t-117 -230.5t-176.5 -138.5t-221.5 -48t-221.5 48t-176.5 138.5t-117 230.5t-42 316zM967 717q0 263 -88.5 393.5t-243.5 130.5t-242.5 -130.5t-87.5 -393.5
t87.5 -393.5t242.5 -130.5t243.5 131t88.5 393zM401 1835h162q0 -32 20 -53t52 -21t53 21t21 53h161q0 -94 -66 -158.5t-169 -64.5q-101 0 -167.5 64.5t-66.5 158.5z" />
    <glyph glyph-name="obreve" unicode="&#x14f;" 
d="M127 516q0 109 36.5 206.5t102 170t161 114.5t208.5 42t208.5 -42t161 -114.5t102 -170t36.5 -206.5q0 -147 -62 -267.5t-179 -192.5t-267 -72t-267 72t-179 192.5t-62 267.5zM932 516q0 143 -80 246q-75 100 -217 100q-141 0 -219 -100q-78 -104 -78 -246
q0 -144 81 -245t216 -101t216 101t81 245zM401 1434h162q0 -32 20 -53t52 -21t53 21t21 53h161q0 -94 -66 -159t-169 -65q-101 0 -167.5 65t-66.5 159z" />
    <glyph glyph-name="Ohungarumlaut" unicode="&#x150;" 
d="M78 717q0 176 42 316t117 230.5t176.5 138.5t221.5 48t221.5 -48t176.5 -138.5t117 -230.5t42 -316t-42 -316t-117 -230.5t-176.5 -138.5t-221.5 -48t-221.5 48t-176.5 138.5t-117 230.5t-42 316zM967 717q0 263 -88.5 393.5t-243.5 130.5t-242.5 -130.5t-87.5 -393.5
t87.5 -393.5t242.5 -130.5t243.5 131t88.5 393zM309 1548l135 299h295l-264 -299h-166zM711 1548l135 299h297l-266 -299h-166z" />
    <glyph glyph-name="ohungarumlaut" unicode="&#x151;" 
d="M127 516q0 109 36.5 206.5t102 170t161 114.5t208.5 42t208.5 -42t161 -114.5t102 -170t36.5 -206.5q0 -147 -62 -267.5t-179 -192.5t-267 -72t-267 72t-179 192.5t-62 267.5zM932 516q0 143 -80 246q-75 100 -217 100q-141 0 -219 -100q-78 -104 -78 -246
q0 -144 81 -245t216 -101t216 101t81 245zM289 1147l135 299h295l-264 -299h-166zM690 1147l135 299h297l-266 -299h-166z" />
    <glyph glyph-name="OE" unicode="&#x152;" 
d="M68 717q0 350 142 533.5t392 183.5h563v-213h-358v-351h303v-213h-303v-444h379v-213h-584q-250 0 -392 183.5t-142 533.5zM584 213v1024q-287 0 -287 -520q0 -260 69 -382t218 -122z" />
    <glyph glyph-name="oe" unicode="&#x153;" 
d="M154 516q0 104 33.5 199t95 170t158 119.5t214.5 44.5q116 0 210 -42t153.5 -113.5t91 -161t31.5 -187.5v-88h-393v-277q124 29 204 172l172 -73q-142 -295 -469 -295q-118 0 -214.5 44.5t-158 119t-95 169.5t-33.5 199zM563 186v662q-88 -29 -140 -118.5t-52 -213.5
q0 -128 50 -213.5t142 -116.5zM748 635h172q-35 173 -172 213v-213z" />
    <glyph glyph-name="Racute" unicode="&#x154;" 
d="M154 0v1434h512q202 0 316 -104.5t114 -289.5q0 -147 -74 -243t-211 -131l414 -666h-256l-402 647h-190v-647h-223zM377 856h293q198 0 198 184q0 185 -198 185h-293v-369zM451 1548l135 299h295l-265 -299h-165z" />
    <glyph glyph-name="racute" unicode="&#x155;" 
d="M178 0v1032h213v-174q64 94 161.5 142.5t207.5 48.5q149 0 237 -91.5t95 -257.5h-211q-15 168 -164 168q-135 0 -230.5 -145t-95.5 -379v-344h-213zM618 1147l136 299h295l-265 -299h-166z" />
    <glyph glyph-name="Rcommaaccent" unicode="&#x156;" 
d="M154 0v1434h512q202 0 316 -104.5t114 -289.5q0 -147 -74 -243t-211 -131l414 -666h-256l-402 647h-190v-647h-223zM377 856h293q198 0 198 184q0 185 -198 185h-293v-369zM434 -471l88 365h269l-240 -365h-117z" />
    <glyph glyph-name="rcommaaccent" unicode="&#x157;" 
d="M178 0v1032h213v-174q64 94 161.5 142.5t207.5 48.5q149 0 237 -91.5t95 -257.5h-211q-15 168 -164 168q-135 0 -230.5 -145t-95.5 -379v-344h-213zM63 -471l89 365h268l-240 -365h-117z" />
    <glyph glyph-name="Rcaron" unicode="&#x158;" 
d="M154 0v1434h512q202 0 316 -104.5t114 -289.5q0 -147 -74 -243t-211 -131l414 -666h-256l-402 647h-190v-647h-223zM377 856h293q198 0 198 184q0 185 -198 185h-293v-369zM502 1548l-332 334h217l145 -147l146 147h219l-334 -334h-61z" />
    <glyph glyph-name="rcaron" unicode="&#x159;" 
d="M178 0v1032h213v-174q64 94 161.5 142.5t207.5 48.5q149 0 237 -91.5t95 -257.5h-211q-15 168 -164 168q-135 0 -230.5 -145t-95.5 -379v-344h-213zM672 1147l-332 334h217l145 -148l146 148h219l-334 -334h-61z" />
    <glyph glyph-name="Sacute" unicode="&#x15a;" 
d="M113 408l202 77q71 -292 340 -292q108 0 178 56.5t70 151.5t-66.5 143.5t-248.5 102.5q-189 54 -286 152t-97 262q0 171 121.5 280t322.5 109q171 0 285.5 -83t163.5 -224l-187 -94q-76 192 -262 192q-100 0 -160.5 -49.5t-60.5 -138.5t66.5 -136t234.5 -90
q100 -26 170 -58.5t123 -80t78.5 -114t25.5 -154.5q0 -207 -132.5 -321.5t-342.5 -114.5q-211 0 -354 111t-184 313zM561 1548l135 299h295l-264 -299h-166z" />
    <glyph glyph-name="sacute" unicode="&#x15b;" 
d="M207 289l196 69q56 -188 259 -188q87 0 140.5 33.5t53.5 89.5t-50.5 85t-191.5 56q-167 34 -253.5 110t-86.5 206q0 131 106 215t253 84q271 0 393 -230l-162 -108q-78 151 -233 151q-67 0 -111.5 -29.5t-44.5 -82.5q0 -51 49 -83t164 -55q194 -39 284.5 -107t90.5 -196
q0 -148 -116 -236.5t-290 -88.5q-165 0 -282.5 77t-167.5 228zM553 1147l135 299h295l-264 -299h-166z" />
    <glyph glyph-name="Scircumflex" unicode="&#x15c;" 
d="M113 408l202 77q71 -292 340 -292q108 0 178 56.5t70 151.5t-66.5 143.5t-248.5 102.5q-189 54 -286 152t-97 262q0 171 121.5 280t322.5 109q171 0 285.5 -83t163.5 -224l-187 -94q-76 192 -262 192q-100 0 -160.5 -49.5t-60.5 -138.5t66.5 -136t234.5 -90
q100 -26 170 -58.5t123 -80t78.5 -114t25.5 -154.5q0 -207 -132.5 -321.5t-342.5 -114.5q-211 0 -354 111t-184 313zM281 1548l331 334h62l334 -334h-220l-145 148l-145 -148h-217z" />
    <glyph glyph-name="scircumflex" unicode="&#x15d;" 
d="M207 289l196 69q56 -188 259 -188q87 0 140.5 33.5t53.5 89.5t-50.5 85t-191.5 56q-167 34 -253.5 110t-86.5 206q0 131 106 215t253 84q271 0 393 -230l-162 -108q-78 151 -233 151q-67 0 -111.5 -29.5t-44.5 -82.5q0 -51 49 -83t164 -55q194 -39 284.5 -107t90.5 -196
q0 -148 -116 -236.5t-290 -88.5q-165 0 -282.5 77t-167.5 228zM274 1147l332 334h62l333 -334h-219l-145 147l-145 -147h-218z" />
    <glyph glyph-name="Scedilla" unicode="&#x15e;" 
d="M113 408l202 77q71 -292 340 -292q108 0 178 56.5t70 151.5t-66.5 143.5t-248.5 102.5q-189 54 -286 152t-97 262q0 171 121.5 280t322.5 109q171 0 285.5 -83t163.5 -224l-187 -94q-76 192 -262 192q-100 0 -160.5 -49.5t-60.5 -138.5t66.5 -136t234.5 -90
q100 -26 170 -58.5t123 -80t78.5 -114t25.5 -154.5q0 -207 -132.5 -321.5t-342.5 -114.5q-211 0 -354 111t-184 313zM545 -514l-250 115l256 276h164z" />
    <glyph glyph-name="scedilla" unicode="&#x15f;" 
d="M207 289l196 69q56 -188 259 -188q87 0 140.5 33.5t53.5 89.5t-50.5 85t-191.5 56q-167 34 -253.5 110t-86.5 206q0 131 106 215t253 84q271 0 393 -230l-162 -108q-78 151 -233 151q-67 0 -111.5 -29.5t-44.5 -82.5q0 -51 49 -83t164 -55q194 -39 284.5 -107t90.5 -196
q0 -148 -116 -236.5t-290 -88.5q-165 0 -282.5 77t-167.5 228zM547 -514l-250 115l256 276h164z" />
    <glyph glyph-name="Scaron" unicode="&#x160;" 
d="M113 408l202 77q71 -292 340 -292q108 0 178 56.5t70 151.5t-66.5 143.5t-248.5 102.5q-189 54 -286 152t-97 262q0 171 121.5 280t322.5 109q171 0 285.5 -83t163.5 -224l-187 -94q-76 192 -262 192q-100 0 -160.5 -49.5t-60.5 -138.5t66.5 -136t234.5 -90
q100 -26 170 -58.5t123 -80t78.5 -114t25.5 -154.5q0 -207 -132.5 -321.5t-342.5 -114.5q-211 0 -354 111t-184 313zM612 1548l-331 334h217l145 -147l145 147h220l-334 -334h-62z" />
    <glyph glyph-name="scaron" unicode="&#x161;" 
d="M207 289l196 69q56 -188 259 -188q87 0 140.5 33.5t53.5 89.5t-50.5 85t-191.5 56q-167 34 -253.5 110t-86.5 206q0 131 106 215t253 84q271 0 393 -230l-162 -108q-78 151 -233 151q-67 0 -111.5 -29.5t-44.5 -82.5q0 -51 49 -83t164 -55q194 -39 284.5 -107t90.5 -196
q0 -148 -116 -236.5t-290 -88.5q-165 0 -282.5 77t-167.5 228zM606 1147l-332 334h218l145 -148l145 148h219l-333 -334h-62z" />
    <glyph glyph-name="uni0162" unicode="&#x162;" 
d="M524 0v1225h-426v209h1073v-209h-423v-1225h-224zM545 -514l-250 115l256 276h164z" />
    <glyph glyph-name="uni0163" unicode="&#x163;" 
d="M391 379v467h-264v186h264v285l213 133v-418h404v-186h-404v-467q0 -209 174 -209q63 0 118 28.5t114 94.5l75 -176q-69 -69 -142.5 -101t-164.5 -32q-190 0 -288.5 99.5t-98.5 295.5zM639 -514l-250 115l256 276h164z" />
    <glyph glyph-name="Tcaron" unicode="&#x164;" 
d="M524 0v1225h-426v209h1073v-209h-423v-1225h-224zM604 1548l-332 334h217l146 -147l145 147h219l-333 -334h-62z" />
    <glyph glyph-name="tcaron" unicode="&#x165;" 
d="M391 379v467h-264v186h264v285l213 133v-418h404v-186h-404v-467q0 -209 174 -209q63 0 118 28.5t114 94.5l75 -176q-69 -69 -142.5 -101t-164.5 -32q-190 0 -288.5 99.5t-98.5 295.5zM866 1110l49 367h246l-157 -367h-138z" />
    <glyph glyph-name="Tbar" unicode="&#x166;" 
d="M524 0v1225h-426v209h1073v-209h-423v-1225h-224zM268 623v188h736v-188h-736z" />
    <glyph glyph-name="tbar" unicode="&#x167;" 
d="M391 379v137h-149v166h149v164h-264v186h264v285l213 133v-418h404v-186h-404v-164h242v-166h-242v-137q0 -209 174 -209q63 0 118 28.5t114 94.5l75 -176q-69 -69 -142.5 -101t-164.5 -32q-190 0 -288.5 99.5t-98.5 295.5z" />
    <glyph glyph-name="Utilde" unicode="&#x168;" 
d="M125 522v912h223v-920q0 -153 74 -237t213 -84q144 0 216.5 82.5t72.5 238.5v920h223v-912q0 -254 -142 -396t-370 -142q-227 0 -368.5 141.5t-141.5 396.5zM616 1624q-64 37 -112 37q-70 0 -133 -78l-117 92q38 75 101 121.5t134 46.5q46 0 78 -10.5t80 -36.5
q39 -22 61.5 -29.5t51.5 -7.5q72 0 133 82l117 -96q-37 -75 -101 -120.5t-135 -45.5q-46 0 -75 9t-83 36z" />
    <glyph glyph-name="utilde" unicode="&#x169;" 
d="M199 305v727h213v-672q0 -94 44 -141t124 -47q120 0 200 122.5t80 323.5v414h213v-1032h-213v178q-61 -89 -153 -141.5t-193 -52.5q-149 0 -232 84.5t-83 236.5zM604 1223q-64 37 -112 37q-71 0 -134 -78l-116 92q38 75 101 121.5t134 46.5q46 0 78 -10.5t80 -36.5
q39 -22 61.5 -29.5t51.5 -7.5q72 0 133 82l116 -97q-37 -75 -100.5 -120t-134.5 -45q-46 0 -75 9t-83 36z" />
    <glyph glyph-name="Umacron" unicode="&#x16a;" 
d="M125 522v912h223v-920q0 -153 74 -237t213 -84q144 0 216.5 82.5t72.5 238.5v920h223v-912q0 -254 -142 -396t-370 -142q-227 0 -368.5 141.5t-141.5 396.5zM367 1624v176h534v-176h-534z" />
    <glyph glyph-name="umacron" unicode="&#x16b;" 
d="M199 305v727h213v-672q0 -94 44 -141t124 -47q120 0 200 122.5t80 323.5v414h213v-1032h-213v178q-61 -89 -153 -141.5t-193 -52.5q-149 0 -232 84.5t-83 236.5zM354 1223v176h535v-176h-535z" />
    <glyph glyph-name="Ubreve" unicode="&#x16c;" 
d="M125 522v912h223v-920q0 -153 74 -237t213 -84q144 0 216.5 82.5t72.5 238.5v920h223v-912q0 -254 -142 -396t-370 -142q-227 0 -368.5 141.5t-141.5 396.5zM401 1835h162q0 -32 20 -53t52 -21t53 21t21 53h161q0 -94 -66 -158.5t-169 -64.5q-101 0 -167.5 64.5
t-66.5 158.5z" />
    <glyph glyph-name="ubreve" unicode="&#x16d;" 
d="M199 305v727h213v-672q0 -94 44 -141t124 -47q120 0 200 122.5t80 323.5v414h213v-1032h-213v178q-61 -89 -153 -141.5t-193 -52.5q-149 0 -232 84.5t-83 236.5zM389 1434h162q0 -32 20 -53t52 -21t52.5 21t20.5 53h162q0 -94 -66 -159t-169 -65q-101 0 -167.5 65
t-66.5 159z" />
    <glyph glyph-name="Uring" unicode="&#x16e;" 
d="M125 522v912h223v-920q0 -153 74 -237t213 -84q144 0 216.5 82.5t72.5 238.5v920h223v-912q0 -254 -142 -396t-370 -142q-227 0 -368.5 141.5t-141.5 396.5zM428 1741q0 88 59.5 147.5t147.5 59.5q90 0 148.5 -59.5t58.5 -147.5q0 -87 -58.5 -145t-148.5 -58
q-88 0 -147.5 58.5t-59.5 144.5zM711 1743q0 36 -20.5 58t-55.5 22q-32 0 -53 -22.5t-21 -57.5t20.5 -56.5t53.5 -21.5q35 0 55.5 21.5t20.5 56.5z" />
    <glyph glyph-name="uring" unicode="&#x16f;" 
d="M199 305v727h213v-672q0 -94 44 -141t124 -47q120 0 200 122.5t80 323.5v414h213v-1032h-213v178q-61 -89 -153 -141.5t-193 -52.5q-149 0 -232 84.5t-83 236.5zM416 1339q0 88 59.5 147.5t147.5 59.5q90 0 148 -59t58 -148q0 -87 -58 -144.5t-148 -57.5q-88 0 -147.5 58
t-59.5 144zM698 1341q0 36 -20 58t-55 22q-32 0 -53 -22.5t-21 -57.5t20.5 -56t53.5 -21q35 0 55 21t20 56z" />
    <glyph glyph-name="Uhungarumlaut" unicode="&#x170;" 
d="M125 522v912h223v-920q0 -153 74 -237t213 -84q144 0 216.5 82.5t72.5 238.5v920h223v-912q0 -254 -142 -396t-370 -142q-227 0 -368.5 141.5t-141.5 396.5zM309 1548l135 299h295l-264 -299h-166zM711 1548l135 299h297l-266 -299h-166z" />
    <glyph glyph-name="uhungarumlaut" unicode="&#x171;" 
d="M199 305v727h213v-672q0 -94 44 -141t124 -47q120 0 200 122.5t80 323.5v414h213v-1032h-213v178q-61 -89 -153 -141.5t-193 -52.5q-149 0 -232 84.5t-83 236.5zM276 1147l136 299h295l-265 -299h-166zM678 1147l135 299h297l-266 -299h-166z" />
    <glyph glyph-name="Uogonek" unicode="&#x172;" 
d="M125 522v912h223v-920q0 -153 74 -237t213 -84q144 0 216.5 82.5t72.5 238.5v920h223v-912q0 -254 -142 -396t-370 -142q-227 0 -368.5 141.5t-141.5 396.5zM494 -197q0 56 31.5 108t86.5 89h166q-123 -102 -123 -166q0 -28 16.5 -43.5t43.5 -15.5q35 0 69 24l39 -145
q-59 -33 -133 -33q-89 0 -142.5 49t-53.5 133z" />
    <glyph glyph-name="uogonek" unicode="&#x173;" 
d="M199 305v727h213v-672q0 -94 44 -141t124 -47q120 0 200 122.5t80 323.5v414h213v-1032h-213v178q-61 -89 -153 -141.5t-193 -52.5q-149 0 -232 84.5t-83 236.5zM788 -197q0 55 31.5 107.5t87.5 89.5h166q-123 -102 -123 -166q0 -28 16.5 -43.5t43.5 -15.5q34 0 69 24
l39 -145q-59 -33 -133 -33q-89 0 -143 49t-54 133z" />
    <glyph glyph-name="Wcircumflex" unicode="&#x174;" 
d="M180 0l-137 1434h221l76 -1035l213 752h164l213 -752l78 1035h219l-137 -1434h-252l-203 756l-221 -756h-234zM272 1548l332 334h62l333 -334h-219l-145 148l-146 -148h-217z" />
    <glyph glyph-name="wcircumflex" unicode="&#x175;" 
d="M270 0l-215 1032h201l117 -700l176 618h172l176 -618l117 700h200l-215 -1032h-176l-188 664l-189 -664h-176zM272 1147l332 334h62l333 -334h-219l-145 147l-146 -147h-217z" />
    <glyph glyph-name="Ycircumflex" unicode="&#x176;" 
d="M528 0v547l-456 887h241l322 -654l321 654h244l-459 -887v-547h-213zM272 1548l332 334h62l333 -334h-219l-145 148l-146 -148h-217z" />
    <glyph glyph-name="ycircumflex" unicode="&#x177;" 
d="M328 -418l217 518l-428 932h229l305 -684l277 684h225l-612 -1450h-213zM291 1147l332 334h61l334 -334h-219l-146 147l-145 -147h-217z" />
    <glyph glyph-name="Ydieresis" unicode="&#x178;" 
d="M528 0v547l-456 887h241l322 -654l321 654h244l-459 -887v-547h-213zM305 1722q0 57 37 94t94 37t94 -37t37 -94q0 -56 -37 -93.5t-94 -37.5t-94 37.5t-37 93.5zM705 1722q0 57 37 94t94 37t94 -37t37 -94q0 -56 -37 -93.5t-94 -37.5t-94 37.5t-37 93.5z" />
    <glyph glyph-name="Zacute" unicode="&#x179;" 
d="M150 0v104l659 1121h-631v209h934v-105l-657 -1120h680v-209h-985zM553 1548l135 299h295l-264 -299h-166z" />
    <glyph glyph-name="zacute" unicode="&#x17a;" 
d="M223 0v86l510 760h-483v186h774v-86l-506 -760h531v-186h-826zM549 1147l135 299h295l-264 -299h-166z" />
    <glyph glyph-name="Zdotaccent" unicode="&#x17b;" 
d="M150 0v104l659 1121h-631v209h934v-105l-657 -1120h680v-209h-985zM481 1729q0 65 44 109t108 44q66 0 109.5 -43.5t43.5 -109.5q0 -64 -44 -108t-109 -44q-63 0 -107.5 44.5t-44.5 107.5z" />
    <glyph glyph-name="zdotaccent" unicode="&#x17c;" 
d="M223 0v86l510 760h-483v186h774v-86l-506 -760h531v-186h-826zM481 1317q0 65 44 109t108 44q66 0 109.5 -43.5t43.5 -109.5q0 -64 -44 -108t-109 -44q-63 0 -107.5 44.5t-44.5 107.5z" />
    <glyph glyph-name="Zcaron" unicode="&#x17d;" 
d="M150 0v104l659 1121h-631v209h934v-105l-657 -1120h680v-209h-985zM604 1548l-332 334h217l146 -147l145 147h219l-333 -334h-62z" />
    <glyph glyph-name="zcaron" unicode="&#x17e;" 
d="M223 0v86l510 760h-483v186h774v-86l-506 -760h531v-186h-826zM602 1147l-332 334h217l146 -148l145 148h219l-333 -334h-62z" />
    <glyph glyph-name="florin" unicode="&#x192;" 
d="M39 -385l84 178q65 -41 135 -41q134 0 168 162l180 932h-278l37 186h278l12 60q36 185 136 271.5t264 86.5q126 0 200 -49l-84 -178q-65 41 -135 41q-134 0 -168 -162l-12 -70h363l-37 -186h-363l-180 -922q-36 -185 -136 -271.5t-263 -86.5q-127 0 -201 49z" />
    <glyph glyph-name="uni01B5" unicode="&#x1b5;" 
d="M150 0v104l311 531h-248v188h358l238 402h-631v209h934v-105l-299 -506h234v-188h-345l-247 -426h680v-209h-985z" />
    <glyph glyph-name="uni01B6" unicode="&#x1b6;" 
d="M221 0v86l250 373h-174v164h285l149 223h-483v186h774v-86l-215 -323h168v-164h-279l-180 -273h531v-186h-826z" />
    <glyph glyph-name="Aringacute" unicode="&#x1fa;" 
d="M39 0l481 1434h232l479 -1434h-230l-114 358h-502l-115 -358h-231zM451 567h368l-184 572zM428 1741q0 88 59.5 147.5t147.5 59.5q90 0 148.5 -59.5t58.5 -147.5q0 -87 -58.5 -145t-148.5 -58q-88 0 -147.5 58.5t-59.5 144.5zM711 1743q0 36 -20.5 58t-55.5 22
q-32 0 -53 -22.5t-21 -57.5t20.5 -56.5t53.5 -21.5q35 0 55.5 21.5t20.5 56.5zM553 2003l135 299h295l-264 -299h-166z" />
    <glyph glyph-name="aringacute" unicode="&#x1fb;" 
d="M209 297q0 159 122 248.5t333 89.5h190v45q0 93 -57 140.5t-152 47.5q-74 0 -130 -42t-81 -117l-184 51q37 131 145 210t250 79q416 0 416 -414v-635h-168l-27 139q-51 -72 -141.5 -113.5t-198.5 -41.5q-140 0 -228.5 83.5t-88.5 229.5zM852 438v29h-205
q-111 0 -172 -43.5t-61 -124.5q0 -58 39 -95.5t104 -37.5q53 0 104.5 18t94.5 51t69.5 86t26.5 117zM436 1339q0 88 59.5 147.5t147.5 59.5q90 0 148.5 -59.5t58.5 -147.5q0 -87 -58.5 -144.5t-148.5 -57.5q-88 0 -147.5 58t-59.5 144zM719 1341q0 36 -20.5 58t-55.5 22
q-32 0 -53 -22.5t-21 -57.5t20.5 -56t53.5 -21q35 0 55.5 21t20.5 56zM559 1630l135 299h295l-264 -299h-166z" />
    <glyph glyph-name="AEacute" unicode="&#x1fc;" 
d="M-23 0l398 1434h813v-220h-389v-360h307v-219h-307v-416h409v-219h-633v383h-276l-104 -383h-218zM350 586h225v612h-61zM748 1548l135 299h295l-265 -299h-165z" />
    <glyph glyph-name="aeacute" unicode="&#x1fd;" 
d="M74 295q0 161 105 250.5t280 89.5h102v55q0 195 -131 195q-62 0 -102 -45t-52 -125l-159 43q15 123 102 207t211 84q182 0 240 -156q38 72 106 114t146 42q154 0 237.5 -122t83.5 -345v-109h-487q0 -153 39.5 -233t113.5 -80q61 0 98 41.5t68 144.5l156 -47
q-48 -163 -124 -239t-198 -76q-90 0 -153 49t-90 135q-39 -87 -115 -135.5t-180 -48.5q-135 0 -216 82.5t-81 228.5zM754 635h311q0 111 -42 180.5t-114 69.5q-68 0 -111.5 -69t-43.5 -181zM561 408v71h-80q-105 0 -160 -43t-55 -127q0 -69 34.5 -109t94.5 -40
q83 0 124.5 68t41.5 180zM590 1147l135 299h295l-264 -299h-166z" />
    <glyph glyph-name="Scommaaccent" unicode="&#x218;" 
d="M113 408l202 77q71 -292 340 -292q108 0 178 56.5t70 151.5t-66.5 143.5t-248.5 102.5q-189 54 -286 152t-97 262q0 171 121.5 280t322.5 109q171 0 285.5 -83t163.5 -224l-187 -94q-76 192 -262 192q-100 0 -160.5 -49.5t-60.5 -138.5t66.5 -136t234.5 -90
q100 -26 170 -58.5t123 -80t78.5 -114t25.5 -154.5q0 -207 -132.5 -321.5t-342.5 -114.5q-211 0 -354 111t-184 313zM414 -471l88 365h268l-240 -365h-116z" />
    <glyph glyph-name="scommaaccent" unicode="&#x219;" 
d="M207 289l196 69q56 -188 259 -188q87 0 140.5 33.5t53.5 89.5t-50.5 85t-191.5 56q-167 34 -253.5 110t-86.5 206q0 131 106 215t253 84q271 0 393 -230l-162 -108q-78 151 -233 151q-67 0 -111.5 -29.5t-44.5 -82.5q0 -51 49 -83t164 -55q194 -39 284.5 -107t90.5 -196
q0 -148 -116 -236.5t-290 -88.5q-165 0 -282.5 77t-167.5 228zM416 -471l88 365h268l-240 -365h-116z" />
    <glyph glyph-name="uni021A" unicode="&#x21a;" 
d="M524 0v1225h-426v209h1073v-209h-423v-1225h-224zM414 -471l88 365h268l-240 -365h-116z" />
    <glyph glyph-name="uni021B" unicode="&#x21b;" 
d="M391 379v467h-264v186h264v285l213 133v-418h404v-186h-404v-467q0 -209 174 -209q63 0 118 28.5t114 94.5l75 -176q-69 -69 -142.5 -101t-164.5 -32q-190 0 -288.5 99.5t-98.5 295.5zM508 -471l88 365h268l-239 -365h-117z" />
    <glyph glyph-name="uni0237" unicode="&#x237;" 
d="M416 -434l-60 192q136 42 197 120.5t61 223.5v746h-385v184h598v-975q0 -208 -122 -327q-121 -124 -289 -164z" />
    <glyph glyph-name="circumflex" unicode="&#x2c6;" 
d="M272 1147l332 334h62l333 -334h-219l-145 147l-146 -147h-217z" />
    <glyph glyph-name="caron" unicode="&#x2c7;" 
d="M604 1147l-332 334h217l146 -148l145 148h219l-333 -334h-62z" />
    <glyph glyph-name="uni02C9" unicode="&#x2c9;" 
d="M369 1223v176h534v-176h-534z" />
    <glyph glyph-name="breve" unicode="&#x2d8;" 
d="M401 1434h162q0 -32 20 -53t52 -21t53 21t21 53h161q0 -94 -66 -159t-169 -65q-101 0 -167.5 65t-66.5 159z" />
    <glyph glyph-name="dotaccent" unicode="&#x2d9;" 
d="M483 1296q0 66 44.5 110t107.5 44q66 0 109.5 -44t43.5 -110q0 -64 -44 -107.5t-109 -43.5q-63 0 -107.5 44t-44.5 107z" />
    <glyph glyph-name="ring" unicode="&#x2da;" 
d="M428 1339q0 88 59.5 147.5t147.5 59.5q90 0 148.5 -59.5t58.5 -147.5q0 -87 -58.5 -144.5t-148.5 -57.5q-88 0 -147.5 58t-59.5 144zM711 1341q0 36 -20.5 58t-55.5 22q-32 0 -53 -22.5t-21 -57.5t20.5 -56t53.5 -21q35 0 55.5 21t20.5 56z" />
    <glyph glyph-name="ogonek" unicode="&#x2db;" 
d="M471 -197q0 55 31.5 107.5t87.5 89.5h166q-123 -102 -123 -166q0 -29 16 -44t43 -15q36 0 70 24l39 -145q-59 -33 -133 -33q-89 0 -143 49t-54 133z" />
    <glyph glyph-name="tilde" unicode="&#x2dc;" 
d="M616 1223q-64 37 -112 37q-70 0 -133 -78l-117 92q38 75 101 121.5t134 46.5q46 0 78 -10.5t80 -36.5q39 -22 61.5 -29.5t51.5 -7.5q72 0 133 82l117 -97q-37 -74 -101 -119.5t-135 -45.5q-46 0 -75 9t-83 36z" />
    <glyph glyph-name="hungarumlaut" unicode="&#x2dd;" 
d="M219 1147l135 299h295l-264 -299h-166zM621 1147l135 299h297l-267 -299h-165z" />
    <glyph glyph-name="gravecomb" unicode="&#x300;" horiz-adv-x="0" 
d="M-584 1147l-266 299h297l133 -299h-164z" />
    <glyph glyph-name="acutecomb" unicode="&#x301;" horiz-adv-x="0" 
d="M-850 1147l135 299h295l-264 -299h-166z" />
    <glyph glyph-name="uni0302" unicode="&#x302;" horiz-adv-x="0" 
d="M-997 1147l331 334h62l334 -334h-219l-146 147l-145 -147h-217z" />
    <glyph glyph-name="tildecomb" unicode="&#x303;" horiz-adv-x="0" 
d="M-653 1223q-64 37 -113 37q-70 0 -133 -78l-117 92q37 75 101 121.5t135 46.5q46 0 77.5 -10.5t79.5 -36.5q39 -22 61.5 -29.5t51.5 -7.5q72 0 133 82l117 -97q-37 -74 -101 -119.5t-135 -45.5q-46 0 -74 9t-83 36z" />
    <glyph glyph-name="uni0304" unicode="&#x304;" horiz-adv-x="0" 
d="M-901 1223v176h534v-176h-534z" />
    <glyph glyph-name="uni0306" unicode="&#x306;" horiz-adv-x="0" 
d="M-868 1434h161q0 -32 20 -53t52 -21t53 21t21 53h162q0 -94 -66.5 -159t-169.5 -65q-101 0 -167 65t-66 159z" />
    <glyph glyph-name="uni0307" unicode="&#x307;" horiz-adv-x="0" 
d="M-786 1296q0 66 44 110t107 44q66 0 110 -44t44 -110q0 -63 -44 -107t-110 -44q-63 0 -107 44t-44 107z" />
    <glyph glyph-name="uni0308" unicode="&#x308;" horiz-adv-x="0" 
d="M-965 1321q0 57 37 94t94 37t94.5 -37t37.5 -94q0 -56 -37.5 -93.5t-94.5 -37.5t-94 37.5t-37 93.5zM-565 1321q0 57 37 94t94 37t94 -37t37 -94q0 -56 -37 -93.5t-94 -37.5t-94 37.5t-37 93.5z" />
    <glyph glyph-name="uni030A" unicode="&#x30a;" horiz-adv-x="0" 
d="M-842 1339q0 88 59.5 147.5t147.5 59.5q90 0 148.5 -59.5t58.5 -147.5q0 -87 -58.5 -144.5t-148.5 -57.5q-88 0 -147.5 58t-59.5 144zM-559 1341q0 36 -20.5 58t-55.5 22q-32 0 -53 -22.5t-21 -57.5t20.5 -56t53.5 -21q35 0 55.5 21t20.5 56z" />
    <glyph glyph-name="uni030B" unicode="&#x30b;" horiz-adv-x="0" 
d="M-1063 1147l135 299h295l-264 -299h-166zM-662 1147l136 299h297l-267 -299h-166z" />
    <glyph glyph-name="uni030C" unicode="&#x30c;" horiz-adv-x="0" 
d="M-666 1147l-331 334h217l145 -148l146 148h219l-334 -334h-62z" />
    <glyph glyph-name="uni0312" unicode="&#x312;" horiz-adv-x="0" 
d="M-801 1200l191 328h141l-88 -328h-244z" />
    <glyph glyph-name="uni0326" unicode="&#x326;" horiz-adv-x="0" 
d="M-813 -471l88 365h268l-239 -365h-117z" />
    <glyph glyph-name="uni0327" unicode="&#x327;" horiz-adv-x="0" 
d="M-594 -514l-250 115l256 276h164z" />
    <glyph glyph-name="uni0328" unicode="&#x328;" horiz-adv-x="0" 
d="M-799 -197q0 55 31.5 107.5t87.5 89.5h166q-123 -102 -123 -166q0 -29 16 -44t43 -15q36 0 70 24l39 -145q-59 -33 -133 -33q-89 0 -143 49t-54 133z" />
    <glyph glyph-name="uni0335" unicode="&#x335;" horiz-adv-x="0" 
d="M-936 635v164h604v-164h-604z" />
    <glyph glyph-name="uni0336" unicode="&#x336;" horiz-adv-x="0" 
d="M-1212 625v186h1155v-186h-1155z" />
    <glyph glyph-name="uni0337" unicode="&#x337;" horiz-adv-x="0" 
d="M-860 516l-90 162l540 297l93 -162z" />
    <glyph glyph-name="uni0338" unicode="&#x338;" horiz-adv-x="0" 
d="M-1006 -106l-149 110l893 1135l147 -109z" />
    <glyph glyph-name="uni037E" unicode="&#x37e;" 
d="M375 -266l135 526h291l-277 -526h-149zM481 860q0 67 44 111.5t110 44.5q67 0 111.5 -44t44.5 -112q0 -66 -44.5 -110.5t-111.5 -44.5q-66 0 -110 44.5t-44 110.5z" />
    <glyph glyph-name="tonos" unicode="&#x384;" 
d="M420 1147l88 299h291l-213 -299h-166z" />
    <glyph glyph-name="dieresistonos" unicode="&#x385;" 
d="M485 1147l88 299h248l-198 -299h-138zM229 1292q0 47 33 81t80 34q51 0 84 -32.5t33 -82.5q0 -48 -33 -80t-84 -32q-47 0 -80 32.5t-33 79.5zM815 1292q0 47 33 81t80 34q51 0 83.5 -32.5t32.5 -82.5q0 -48 -32.5 -80t-83.5 -32q-47 0 -80 32.5t-33 79.5z" />
    <glyph glyph-name="Alphatonos" unicode="&#x386;" 
d="M14 1135l123 299h277l-236 -299h-164zM39 0l481 1434h232l479 -1434h-230l-114 358h-502l-115 -358h-231zM451 567h368l-184 572z" />
    <glyph glyph-name="anoteleia" unicode="&#x387;" 
d="M481 719q0 67 44 111t110 44q68 0 112 -44t44 -111q0 -66 -44.5 -111t-111.5 -45q-66 0 -110 45t-44 111z" />
    <glyph glyph-name="Epsilontonos" unicode="&#x388;" 
d="M12 1135l123 299h277l-236 -299h-164zM463 0v1434h719v-209h-496v-357h393v-209h-393v-450h516v-209h-739z" />
    <glyph glyph-name="Etatonos" unicode="&#x389;" 
d="M-47 1135l125 299h276l-235 -299h-166zM397 0v1434h224v-568h370v568h223v-1434h-223v657h-370v-657h-224z" />
    <glyph glyph-name="Iotatonos" unicode="&#x38a;" 
d="M35 1135l125 299h274l-233 -299h-166zM494 0v201h254v1032h-254v201h729v-201h-252v-1032h252v-201h-729z" />
    <glyph glyph-name="Omicrontonos" unicode="&#x38c;" 
d="M240 717q0 175 38 315.5t105 231t157 138.5t195 48t195 -48t157.5 -138.5t105.5 -231t38 -315.5t-38 -315.5t-105.5 -231t-157.5 -138.5t-195 -48t-195 48t-157 138.5t-105 231t-38 315.5zM-4 1135l125 299h274l-233 -299h-166zM1004 717q0 261 -72.5 392.5t-196.5 131.5
t-197 -131.5t-73 -392.5t73 -392.5t197 -131.5t196.5 131.5t72.5 392.5z" />
    <glyph glyph-name="Upsilontonos" unicode="&#x38e;" 
d="M-55 1135l125 299h274l-233 -299h-166zM702 0v526l-321 908h240l188 -625l190 625h238l-322 -908v-526h-213z" />
    <glyph glyph-name="Omegatonos" unicode="&#x38f;" 
d="M211 0v193h233q-102 124 -170 290q-69 172 -69 363q0 280 140 442t386 162t386 -162t140 -442q0 -186 -71 -363q-70 -171 -168 -290h233v-193h-471v193q121 116 186.5 285.5t65.5 350.5q0 201 -79.5 308.5t-221.5 107.5q-139 0 -219 -107.5t-80 -308.5q0 -181 65 -350.5
t185 -285.5v-193h-471zM-29 1135l125 299h275l-234 -299h-166z" />
    <glyph glyph-name="iotadieresistonos" unicode="&#x390;" 
d="M184 0v184h338v664h-291v184h504v-848h350v-184h-901zM508 1147l88 299h248l-199 -299h-137zM252 1292q0 47 33 81t80 34q51 0 83.5 -32.5t32.5 -82.5q0 -48 -32.5 -80t-83.5 -32q-47 0 -80 32.5t-33 79.5zM838 1292q0 48 32.5 81.5t79.5 33.5q51 0 84 -32.5t33 -82.5
q0 -48 -33 -80t-84 -32q-47 0 -79.5 32.5t-32.5 79.5z" />
    <glyph glyph-name="Alpha" unicode="&#x391;" 
d="M39 0l481 1434h232l479 -1434h-230l-114 358h-502l-115 -358h-231zM451 567h368l-184 572z" />
    <glyph glyph-name="Beta" unicode="&#x392;" 
d="M197 0v1434h493q193 0 301.5 -98t108.5 -279q0 -90 -42 -163t-112 -110q107 -43 166 -134t59 -220q0 -202 -121.5 -316t-336.5 -114h-516zM420 864h262q197 0 197 180q0 181 -201 181h-258v-361zM420 209h266q133 0 196.5 55t63.5 168t-63.5 168t-196.5 55h-266v-446z
" />
    <glyph glyph-name="Gamma" unicode="&#x393;" 
d="M242 0v1434h874v-209h-651v-1225h-223z" />
    <glyph glyph-name="uni0394" unicode="&#x394;" 
d="M752 1434l479 -1434h-1192l481 1434h232zM338 209h596l-299 930z" />
    <glyph glyph-name="Epsilon" unicode="&#x395;" 
d="M186 0v1434h910v-209h-686v-357h583v-209h-583v-450h706v-209h-930z" />
    <glyph glyph-name="Zeta" unicode="&#x396;" 
d="M150 0v104l659 1121h-631v209h934v-105l-657 -1120h680v-209h-985z" />
    <glyph glyph-name="Eta" unicode="&#x397;" 
d="M139 0v1434h223v-568h545v568h223v-1434h-223v657h-545v-657h-223z" />
    <glyph glyph-name="Theta" unicode="&#x398;" 
d="M78 717q0 176 42 316t117 230.5t176.5 138.5t221.5 48t221.5 -48t176.5 -138.5t117 -230.5t42 -316t-42 -316t-117 -230.5t-176.5 -138.5t-221.5 -48t-221.5 48t-176.5 138.5t-117 230.5t-42 316zM967 717q0 263 -88.5 393.5t-243.5 130.5t-242.5 -130.5t-87.5 -393.5
t87.5 -393.5t242.5 -130.5t243.5 131t88.5 393zM399 623v190h469v-190h-469z" />
    <glyph glyph-name="Iota" unicode="&#x399;" 
d="M199 0v201h325v1032h-325v201h872v-201h-323v-1032h323v-201h-872z" />
    <glyph glyph-name="Kappa" unicode="&#x39a;" 
d="M123 0v1434h223v-555l481 555h279l-561 -641l602 -793h-277l-524 700v-700h-223z" />
    <glyph glyph-name="Lambda" unicode="&#x39b;" 
d="M635 1139l-365 -1139h-231l481 1434h232l479 -1434h-230z" />
    <glyph glyph-name="Mu" unicode="&#x39c;" 
d="M115 0v1434h221l299 -754l299 754h223v-1434h-211v969l-244 -578h-135l-243 578v-969h-209z" />
    <glyph glyph-name="Nu" unicode="&#x39d;" 
d="M145 0v1434h222l542 -1014v1014h213v-1434h-221l-543 1012v-1012h-213z" />
    <glyph glyph-name="Xi" unicode="&#x39e;" 
d="M190 1225v209h891v-209h-891zM297 659v209h678v-209h-678zM174 0v209h922v-209h-922z" />
    <glyph glyph-name="Omicron" unicode="&#x39f;" 
d="M78 717q0 176 42 316t117 230.5t176.5 138.5t221.5 48t221.5 -48t176.5 -138.5t117 -230.5t42 -316t-42 -316t-117 -230.5t-176.5 -138.5t-221.5 -48t-221.5 48t-176.5 138.5t-117 230.5t-42 316zM967 717q0 263 -88.5 393.5t-243.5 130.5t-242.5 -130.5t-87.5 -393.5
t87.5 -393.5t242.5 -130.5t243.5 131t88.5 393z" />
    <glyph glyph-name="Pi" unicode="&#x3a0;" 
d="M127 0v1434h1016v-1434h-223v1225h-570v-1225h-223z" />
    <glyph glyph-name="Rho" unicode="&#x3a1;" 
d="M203 0v1434h532q208 0 322 -113.5t114 -308.5t-114 -309.5t-322 -114.5h-309v-588h-223zM426 797h301q105 0 161 55t56 160t-56 159t-161 54h-301v-428z" />
    <glyph glyph-name="Sigma" unicode="&#x3a3;" 
d="M180 0v104l402 613l-402 614v103h893v-209h-571l309 -482v-51l-309 -483h588v-209h-910z" />
    <glyph glyph-name="Tau" unicode="&#x3a4;" 
d="M524 0v1225h-426v209h1073v-209h-423v-1225h-224z" />
    <glyph glyph-name="Upsilon" unicode="&#x3a5;" 
d="M528 0v547l-456 887h241l322 -654l321 654h244l-459 -887v-547h-213z" />
    <glyph glyph-name="Phi" unicode="&#x3a6;" 
d="M524 0v152q-93 -2 -183 39.5t-159 114.5t-110 181t-39 230q0 124 41 231.5t109.5 179.5t157 113t183.5 43v150h224v-150q91 1 180 -41t158.5 -115t112 -181t40.5 -230q2 -122 -40.5 -230.5t-112 -181t-158.5 -114t-180 -39.5v-152h-224zM524 356v723q-110 0 -187 -95
t-77 -267t76 -265t188 -96zM1010 717q0 171 -79 266.5t-183 95.5v-723q105 3 183.5 97t78.5 264z" />
    <glyph glyph-name="Chi" unicode="&#x3a7;" 
d="M70 0l438 770l-375 664h248l254 -463l256 463h246l-375 -664l438 -770h-246l-319 569l-318 -569h-247z" />
    <glyph glyph-name="Psi" unicode="&#x3a8;" 
d="M524 0v377q-199 3 -327 131q-125 125 -125 348v578h223v-576q0 -126 61 -197.5t168 -76.5v850h224v-850q108 1 167.5 73.5t59.5 200.5v576h223v-578q0 -220 -123.5 -348t-326.5 -131v-377h-224z" />
    <glyph glyph-name="uni03A9" unicode="&#x3a9;" 
d="M117 0v193h233q-102 124 -170 290q-69 172 -69 363q0 280 140 442t386 162t386 -162t140 -442q0 -186 -71 -363q-70 -171 -168 -290h233v-193h-471v193q121 116 186.5 285.5t65.5 350.5q0 201 -79.5 308.5t-221.5 107.5q-139 0 -219 -107.5t-80 -308.5q0 -181 65 -350.5
t185 -285.5v-193h-471z" />
    <glyph glyph-name="Iotadieresis" unicode="&#x3aa;" 
d="M199 0v201h325v1032h-325v201h872v-201h-323v-1032h323v-201h-872zM305 1722q0 57 37 94t94 37t94 -37t37 -94q0 -56 -37 -93.5t-94 -37.5t-94 37.5t-37 93.5zM705 1722q0 57 37 94t94 37t94 -37t37 -94q0 -56 -37 -93.5t-94 -37.5t-94 37.5t-37 93.5z" />
    <glyph glyph-name="Upsilondieresis" unicode="&#x3ab;" 
d="M528 0v547l-456 887h241l322 -654l321 654h244l-459 -887v-547h-213zM305 1722q0 57 37 94t94 37t94 -37t37 -94q0 -56 -37 -93.5t-94 -37.5t-94 37.5t-37 93.5zM705 1722q0 57 37 94t94 37t94 -37t37 -94q0 -56 -37 -93.5t-94 -37.5t-94 37.5t-37 93.5z" />
    <glyph glyph-name="alphatonos" unicode="&#x3ac;" 
d="M152 516q0 247 124 390t347 143q88 0 163.5 -36t118.5 -93v112h213v-1032h-213v123q-38 -60 -115 -99.5t-167 -39.5q-225 0 -349 145q-122 143 -122 387zM924 516q0 157 -75.5 251.5t-199.5 94.5q-125 0 -200.5 -93.5t-75.5 -252.5t75.5 -252.5t200.5 -93.5
q124 0 199.5 94.5t75.5 251.5zM557 1147l88 299h291l-213 -299h-166z" />
    <glyph glyph-name="epsilontonos" unicode="&#x3ad;" 
d="M266 301q0 91 46 154.5t128 95.5q-131 70 -131 225q0 119 89 196t239 77q137 0 222.5 -64.5t109.5 -177.5l-178 -43q-30 115 -150 115q-66 0 -105.5 -34t-39.5 -91q0 -63 46 -99.5t124 -36.5h53v-151h-57q-88 0 -139.5 -41t-51.5 -113q0 -67 46 -107t120 -40
q70 0 116.5 38.5t59.5 110.5l191 -26q-17 -137 -116 -221t-251 -84q-161 0 -266 89t-105 228zM543 1147l88 299h291l-213 -299h-166z" />
    <glyph glyph-name="etatonos" unicode="&#x3ae;" 
d="M199 0v1032h213v-178q58 89 150.5 142t195.5 53q149 0 232 -84t83 -236v-1147h-213v1090q0 95 -44 142.5t-124 47.5q-120 0 -200 -123t-80 -325v-414h-213zM645 1147l88 299h291l-213 -299h-166z" />
    <glyph glyph-name="iotatonos" unicode="&#x3af;" 
d="M184 0v184h338v664h-291v184h504v-848h350v-184h-901zM530 1147l88 299h291l-213 -299h-166z" />
    <glyph glyph-name="upsilondieresistonos" unicode="&#x3b0;" 
d="M203 442v590h213v-606q0 -130 58 -194t161 -64t161 64t58 194v606h213v-590q0 -221 -111.5 -339.5t-320.5 -118.5q-207 0 -319.5 118.5t-112.5 339.5zM520 1147l88 299h248l-199 -299h-137zM264 1292q0 47 33 81t80 34q51 0 84 -32.5t33 -82.5q0 -48 -33 -80t-84 -32
q-47 0 -80 32.5t-33 79.5zM850 1292q0 47 33 81t80 34q51 0 83.5 -32.5t32.5 -82.5q0 -48 -32.5 -80t-83.5 -32q-47 0 -80 32.5t-33 79.5z" />
    <glyph glyph-name="alpha" unicode="&#x3b1;" 
d="M152 516q0 247 124 390t347 143q88 0 163.5 -36t118.5 -93v112h213v-1032h-213v123q-38 -60 -115 -99.5t-167 -39.5q-225 0 -349 145q-122 143 -122 387zM924 516q0 157 -75.5 251.5t-199.5 94.5q-125 0 -200.5 -93.5t-75.5 -252.5t75.5 -252.5t200.5 -93.5
q124 0 199.5 94.5t75.5 251.5z" />
    <glyph glyph-name="beta" unicode="&#x3b2;" 
d="M188 -418v1432q0 205 114 320.5t292 115.5t281.5 -98.5t103.5 -261.5q0 -98 -51.5 -176t-128.5 -103q124 -34 203 -135t79 -248q0 -208 -114 -326t-305 -118q-85 0 -159.5 34t-107.5 86v-522h-207zM872 426q0 123 -75.5 192.5t-204.5 69.5h-68v191h54q93 0 147.5 51.5
t54.5 144.5q0 88 -50.5 139.5t-135.5 51.5q-95 0 -147 -56.5t-52 -169.5v-606q0 -124 63.5 -194t174.5 -70q116 0 177.5 68.5t61.5 187.5z" />
    <glyph glyph-name="gamma" unicode="&#x3b3;" 
d="M526 -418v447l-344 1003h215l238 -758l239 758h213l-350 -1003v-447h-211z" />
    <glyph glyph-name="delta" unicode="&#x3b4;" 
d="M125 516q0 208 126.5 357.5t305.5 164.5l-301 226v170h770v-187h-455l342 -268q234 -185 234 -463q0 -147 -61.5 -267.5t-179.5 -192.5t-271 -72q-152 0 -269.5 72t-179 192.5t-61.5 267.5zM926 516q0 142 -78 246q-77 102 -213 102q-135 0 -211 -102q-78 -104 -78 -246
q0 -144 78 -248q75 -100 211 -100q138 0 213 100q78 104 78 248z" />
    <glyph glyph-name="epsilon" unicode="&#x3b5;" 
d="M266 301q0 91 46 154.5t128 95.5q-131 70 -131 225q0 119 89 196t239 77q137 0 222.5 -64.5t109.5 -177.5l-178 -43q-30 115 -150 115q-66 0 -105.5 -34t-39.5 -91q0 -63 46 -99.5t124 -36.5h53v-151h-57q-88 0 -139.5 -41t-51.5 -113q0 -67 46 -107t120 -40
q70 0 116.5 38.5t59.5 110.5l191 -26q-17 -137 -116 -221t-251 -84q-161 0 -266 89t-105 228z" />
    <glyph glyph-name="zeta" unicode="&#x3b6;" 
d="M385 -307l117 157q75 -100 205 -100q72 0 115.5 35t43.5 100q0 69 -47.5 106.5t-142.5 37.5h-88q-182 0 -292 104.5t-110 286.5q0 119 53 220t173 224l366 383h-536v187h811v-168l-484 -512q-92 -95 -130 -167.5t-38 -156.5q0 -104 62 -160.5t170 -56.5h82q170 0 269 -88
t99 -240q0 -142 -102 -230.5t-274 -88.5q-207 0 -322 127z" />
    <glyph glyph-name="eta" unicode="&#x3b7;" 
d="M199 0v1032h213v-178q58 89 150.5 142t195.5 53q149 0 232 -84t83 -236v-1147h-213v1090q0 95 -44 142.5t-124 47.5q-120 0 -200 -123t-80 -325v-414h-213z" />
    <glyph glyph-name="theta" unicode="&#x3b8;" 
d="M1192 717q0 -176 -42 -316t-117 -230.5t-176.5 -138.5t-221.5 -48t-221.5 48t-176.5 138.5t-117 230.5t-42 316t42 316t117 230.5t176.5 138.5t221.5 48t221.5 -48t176.5 -138.5t117 -230.5t42 -316zM307 809h656q-13 216 -100.5 324t-227.5 108q-139 0 -225 -107.5
t-103 -324.5zM963 625h-656q17 -217 103 -324.5t225 -107.5q140 0 227.5 108t100.5 324z" />
    <glyph glyph-name="iota" unicode="&#x3b9;" 
d="M184 0v184h338v664h-291v184h504v-848h350v-184h-901z" />
    <glyph glyph-name="kappa" unicode="&#x3ba;" 
d="M178 0v1032h213v-407l389 407h267l-461 -473l508 -559h-267l-436 494v-494h-213z" />
    <glyph glyph-name="lambda" unicode="&#x3bb;" 
d="M545 932l-217 518h213l612 -1450h-225l-277 684l-305 -684h-229z" />
    <glyph glyph-name="uni03BC" unicode="&#x3bc;" 
d="M203 -418v1450h213v-672q0 -190 170 -190q112 0 190 122t78 326v414h213v-1032h-213v178q-52 -92 -129 -143t-170 -51q-89 0 -139 36v-438h-213z" />
    <glyph glyph-name="nu" unicode="&#x3bd;" 
d="M549 0l-432 1032h221l297 -749l297 749h221l-432 -1032h-172z" />
    <glyph glyph-name="xi" unicode="&#x3be;" 
d="M377 -340l112 174q82 -76 193 -76q73 0 115.5 33.5t42.5 95.5q0 67 -48 104.5t-139 37.5h-37q-184 0 -303.5 107.5t-119.5 291.5q0 129 62.5 219.5t164.5 134.5q-87 43 -134.5 119t-47.5 172q0 157 120 267t308 110q165 0 276 -84t135 -240l-194 -51q-19 92 -75 141.5
t-142 49.5q-92 0 -146.5 -51.5t-54.5 -141.5q0 -89 58 -140.5t161 -51.5h147v-191h-153q-118 0 -188 -62t-70 -177q0 -108 66.5 -169t177.5 -61h32q174 0 269.5 -82t95.5 -241q0 -150 -103.5 -241t-279.5 -91q-194 0 -301 94z" />
    <glyph glyph-name="omicron" unicode="&#x3bf;" 
d="M127 516q0 109 36.5 206.5t102 170t161 114.5t208.5 42t208.5 -42t161 -114.5t102 -170t36.5 -206.5q0 -147 -62 -267.5t-179 -192.5t-267 -72t-267 72t-179 192.5t-62 267.5zM932 516q0 143 -80 246q-75 100 -217 100q-141 0 -219 -100q-78 -104 -78 -246
q0 -144 81 -245t216 -101t216 101t81 245z" />
    <glyph glyph-name="pi" unicode="&#x3c0;" 
d="M238 0v846h-181v186h1155v-186h-180v-846h-213v846h-368v-846h-213z" />
    <glyph glyph-name="rho" unicode="&#x3c1;" 
d="M152 -418v932q0 243 129 387q130 148 366 148q224 0 348.5 -143t124.5 -390q0 -244 -125 -387q-124 -145 -348 -145q-85 0 -162 36.5t-120 92.5v-531h-213zM899 516q0 159 -73.5 252.5t-196.5 93.5q-125 0 -198 -93t-73 -253t73 -253t198 -93q123 0 196.5 93.5
t73.5 252.5z" />
    <glyph glyph-name="uni03C2" unicode="&#x3c2;" 
d="M1059 -119q0 -144 -104.5 -229.5t-272.5 -85.5q-198 0 -305 94l108 166q76 -76 197 -76q74 0 118 31.5t44 91.5q0 66 -40.5 100.5t-115.5 34.5h-31q-218 0 -354.5 142.5t-136.5 365.5q0 149 55 268t167 192t265 73q340 0 453 -291l-191 -76q-42 91 -105.5 135.5
t-156.5 44.5q-122 0 -194 -90t-72 -240q0 -160 90 -248.5t232 -88.5h43q138 0 222.5 -82.5t84.5 -231.5z" />
    <glyph glyph-name="sigma" unicode="&#x3c3;" 
d="M1165 1032v-186h-145q100 -138 100 -330q0 -147 -62 -267.5t-179 -192.5t-267 -72t-267 72t-179 192.5t-62 267.5q0 109 36.5 206.5t102 170t161 114.5t208.5 42q63 0 136 -17h417zM909 516q0 143 -80 246q-75 100 -217 100q-141 0 -219 -100q-78 -104 -78 -246
q0 -144 81 -245t216 -101t216 101t81 245z" />
    <glyph glyph-name="tau" unicode="&#x3c4;" 
d="M528 0v846h-321v186h858v-186h-324v-846h-213z" />
    <glyph glyph-name="upsilon" unicode="&#x3c5;" 
d="M203 442v590h213v-606q0 -130 58 -194t161 -64t161 64t58 194v606h213v-590q0 -221 -111.5 -339.5t-320.5 -118.5q-207 0 -319.5 118.5t-112.5 339.5z" />
    <glyph glyph-name="phi" unicode="&#x3c6;" 
d="M530 -418v402q-209 3 -339 153.5t-130 378.5q0 224 128.5 372.5t340.5 160.5v233h211v-233q212 -12 340.5 -160.5t128.5 -372.5q0 -228 -130 -378.5t-339 -153.5v-402h-211zM530 168v696q-117 -10 -182 -102t-65 -246t65 -246t182 -102zM989 516q0 154 -65.5 245.5
t-182.5 102.5v-696q117 10 182.5 102.5t65.5 245.5z" />
    <glyph glyph-name="chi" unicode="&#x3c7;" 
d="M162 0l358 549l-317 483h235l197 -305l199 305h233l-317 -483l358 -549h-229l-244 371l-242 -371h-231z" />
    <glyph glyph-name="psi" unicode="&#x3c8;" 
d="M528 -418v402q-217 0 -337.5 125.5t-120.5 351.5v571h213v-579q0 -137 65.5 -211t179.5 -74v1104h213v-1104q117 0 181.5 73t64.5 212v579h213v-571q0 -226 -121 -351.5t-338 -125.5v-402h-213z" />
    <glyph glyph-name="omega" unicode="&#x3c9;" 
d="M41 426q0 175 55 326t166 297l176 -123q-176 -250 -176 -510q0 -128 32 -188t101 -60q65 0 98 59.5t33 167.5v371h219v-371q0 -110 33.5 -168.5t98.5 -58.5q133 0 133 248q0 260 -179 510l177 123q112 -151 167.5 -301t55.5 -322q0 -217 -86.5 -329.5t-237.5 -112.5
q-108 0 -173 54t-99 157q-34 -103 -99.5 -157t-173.5 -54q-151 0 -236 112.5t-85 329.5z" />
    <glyph glyph-name="iotadieresis" unicode="&#x3ca;" 
d="M184 0v184h338v664h-291v184h504v-848h350v-184h-901zM293 1321q0 57 37 94t94 37t94 -37t37 -94q0 -56 -37 -93.5t-94 -37.5t-94 37.5t-37 93.5zM692 1321q0 57 37 94t94 37t94 -37t37 -94q0 -56 -37 -93.5t-94 -37.5t-94 37.5t-37 93.5z" />
    <glyph glyph-name="upsilondieresis" unicode="&#x3cb;" 
d="M203 442v590h213v-606q0 -130 58 -194t161 -64t161 64t58 194v606h213v-590q0 -221 -111.5 -339.5t-320.5 -118.5q-207 0 -319.5 118.5t-112.5 339.5zM305 1321q0 57 37 94t94 37t94 -37t37 -94q0 -56 -37 -93.5t-94 -37.5t-94 37.5t-37 93.5zM705 1321q0 57 37 94t94 37
t94 -37t37 -94q0 -56 -37 -93.5t-94 -37.5t-94 37.5t-37 93.5z" />
    <glyph glyph-name="omicrontonos" unicode="&#x3cc;" 
d="M127 516q0 109 36.5 206.5t102 170t161 114.5t208.5 42t208.5 -42t161 -114.5t102 -170t36.5 -206.5q0 -147 -62 -267.5t-179 -192.5t-267 -72t-267 72t-179 192.5t-62 267.5zM932 516q0 143 -80 246q-75 100 -217 100q-141 0 -219 -100q-78 -104 -78 -246
q0 -144 81 -245t216 -101t216 101t81 245zM543 1147l88 299h291l-213 -299h-166z" />
    <glyph glyph-name="upsilontonos" unicode="&#x3cd;" 
d="M203 442v590h213v-606q0 -130 58 -194t161 -64t161 64t58 194v606h213v-590q0 -221 -111.5 -339.5t-320.5 -118.5q-207 0 -319.5 118.5t-112.5 339.5zM543 1147l88 299h291l-213 -299h-166z" />
    <glyph glyph-name="omegatonos" unicode="&#x3ce;" 
d="M41 426q0 175 55 326t166 297l176 -123q-176 -250 -176 -510q0 -128 32 -188t101 -60q65 0 98 59.5t33 167.5v371h219v-371q0 -110 33.5 -168.5t98.5 -58.5q133 0 133 248q0 260 -179 510l177 123q112 -151 167.5 -301t55.5 -322q0 -217 -86.5 -329.5t-237.5 -112.5
q-108 0 -173 54t-99 157q-34 -103 -99.5 -157t-173.5 -54q-151 0 -236 112.5t-85 329.5zM543 1147l88 299h291l-213 -299h-166z" />
    <glyph glyph-name="uni0400" unicode="&#x400;" 
d="M186 0v1434h910v-209h-686v-357h583v-209h-583v-450h706v-209h-930zM569 1548l-266 299h297l133 -299h-164z" />
    <glyph glyph-name="uni0401" unicode="&#x401;" 
d="M186 0v1434h910v-209h-686v-357h583v-209h-583v-450h706v-209h-930zM322 1722q0 57 37 94t94 37t94 -37t37 -94q0 -56 -37 -93.5t-94 -37.5t-94 37.5t-37 93.5zM721 1722q0 57 37 94t94 37t94 -37t37 -94q0 -56 -37 -93.5t-94 -37.5t-94 37.5t-37 93.5z" />
    <glyph glyph-name="uni0402" unicode="&#x402;" 
d="M774 -16l-59 194q136 42 197 119t61 217v148q0 103 -39.5 151.5t-124.5 48.5q-110 0 -187 -114t-77 -314v-434h-223v1225h-267v209h887v-209h-397v-365q52 86 140 137.5t192 51.5q151 0 230 -80.5t79 -229.5v-233q0 -423 -412 -522z" />
    <glyph glyph-name="uni0403" unicode="&#x403;" 
d="M242 0v1434h874v-209h-651v-1225h-223zM604 1548l135 299h295l-264 -299h-166z" />
    <glyph glyph-name="uni0404" unicode="&#x404;" 
d="M94 717q0 177 43.5 317.5t121.5 230.5t183 137.5t230 47.5q205 0 344 -115.5t196 -318.5l-208 -64q-79 289 -332 289q-314 0 -348 -420h548v-209h-548q34 -419 348 -419q253 0 332 290l208 -65q-57 -203 -196 -318.5t-344 -115.5q-125 0 -230 47.5t-183 137.5
t-121.5 230.5t-43.5 317.5z" />
    <glyph glyph-name="uni0405" unicode="&#x405;" 
d="M113 408l202 77q71 -292 340 -292q108 0 178 56.5t70 151.5t-66.5 143.5t-248.5 102.5q-189 54 -286 152t-97 262q0 171 121.5 280t322.5 109q171 0 285.5 -83t163.5 -224l-187 -94q-76 192 -262 192q-100 0 -160.5 -49.5t-60.5 -138.5t66.5 -136t234.5 -90
q100 -26 170 -58.5t123 -80t78.5 -114t25.5 -154.5q0 -207 -132.5 -321.5t-342.5 -114.5q-211 0 -354 111t-184 313z" />
    <glyph glyph-name="uni0406" unicode="&#x406;" 
d="M199 0v201h325v1032h-325v201h872v-201h-323v-1032h323v-201h-872z" />
    <glyph glyph-name="uni0407" unicode="&#x407;" 
d="M199 0v201h325v1032h-325v201h872v-201h-323v-1032h323v-201h-872zM305 1722q0 57 37 94t94 37t94 -37t37 -94q0 -56 -37 -93.5t-94 -37.5t-94 37.5t-37 93.5zM705 1722q0 57 37 94t94 37t94 -37t37 -94q0 -56 -37 -93.5t-94 -37.5t-94 37.5t-37 93.5z" />
    <glyph glyph-name="uni0408" unicode="&#x408;" 
d="M135 375l221 47q24 -107 85.5 -168t152.5 -61q107 0 166 67.5t59 204.5v969h223v-953q0 -248 -118 -372.5t-330 -124.5q-187 0 -310.5 108t-148.5 283z" />
    <glyph glyph-name="uni0409" unicode="&#x409;" 
d="M14 0v213q73 0 106 38.5t38 129.5l49 1053h590v-584h51q190 0 297.5 -111.5t107.5 -312.5q0 -202 -107.5 -314t-297.5 -112h-275v1239h-155l-47 -872q-11 -190 -92 -278.5t-265 -88.5zM797 209h30q103 0 150 52t47 165q0 110 -48.5 162.5t-148.5 52.5h-30v-432z" />
    <glyph glyph-name="uni040A" unicode="&#x40a;" 
d="M59 0v1434h224v-566h239v566h223v-584h68q191 0 302.5 -112.5t111.5 -311.5q0 -201 -111.5 -313.5t-302.5 -112.5h-291v659h-239v-659h-224zM745 209h50q204 0 204 217q0 215 -204 215h-50v-432z" />
    <glyph glyph-name="uni040B" unicode="&#x40b;" 
d="M322 0v1225h-267v209h887v-209h-397v-365q52 86 140 137.5t192 51.5q151 0 230 -80.5t79 -229.5v-739h-213v662q0 103 -39.5 151.5t-124.5 48.5q-110 0 -187 -114t-77 -314v-434h-223z" />
    <glyph glyph-name="uni040C" unicode="&#x40c;" 
d="M123 0v1434h223v-555l481 555h279l-561 -641l602 -793h-277l-524 700v-700h-223zM485 1548l136 299h294l-264 -299h-166z" />
    <glyph glyph-name="uni040D" unicode="&#x40d;" 
d="M1124 0h-213v1012l-542 -1012h-222v1434h213v-1014l543 1014h221v-1434zM553 1548l-266 299h297l133 -299h-164z" />
    <glyph glyph-name="uni040E" unicode="&#x40e;" 
d="M346 0l207 489l-461 945h230l335 -703l301 703h222l-625 -1434h-209zM406 1835h161q0 -32 20 -53t52 -21t53 21t21 53h161q0 -94 -66 -158.5t-169 -64.5q-101 0 -167 64.5t-66 158.5z" />
    <glyph glyph-name="uni040F" unicode="&#x40f;" 
d="M524 -254v254h-356v1434h223v-1221h488v1221h223v-1434h-354v-254h-224z" />
    <glyph glyph-name="uni0410" unicode="&#x410;" 
d="M39 0l481 1434h232l479 -1434h-230l-114 358h-502l-115 -358h-231zM451 567h368l-184 572z" />
    <glyph glyph-name="uni0411" unicode="&#x411;" 
d="M197 0v1434h837v-209h-614v-361h303q216 0 337.5 -114t121.5 -318t-121.5 -318t-337.5 -114h-526zM420 209h276q133 0 196.5 55t63.5 168t-63.5 168t-196.5 55h-276v-446z" />
    <glyph glyph-name="uni0412" unicode="&#x412;" 
d="M197 0v1434h493q193 0 301.5 -98t108.5 -279q0 -90 -42 -163t-112 -110q107 -43 166 -134t59 -220q0 -202 -121.5 -316t-336.5 -114h-516zM420 864h262q197 0 197 180q0 181 -201 181h-258v-361zM420 209h266q133 0 196.5 55t63.5 168t-63.5 168t-196.5 55h-266v-446z
" />
    <glyph glyph-name="uni0413" unicode="&#x413;" 
d="M242 0v1434h874v-209h-651v-1225h-223z" />
    <glyph glyph-name="uni0414" unicode="&#x414;" 
d="M109 -254l-25 426h100l158 1262h776v-1262h111l-25 -426h-192v254h-701v-254h-202zM418 213h477v1008h-356z" />
    <glyph glyph-name="uni0415" unicode="&#x415;" 
d="M186 0v1434h910v-209h-686v-357h583v-209h-583v-450h706v-209h-930z" />
    <glyph glyph-name="uni0416" unicode="&#x416;" 
d="M14 0l369 788l-326 646h230l243 -506v506h209v-506l244 506h231l-327 -646l368 -788h-225l-291 641v-641h-209v641l-288 -641h-228z" />
    <glyph glyph-name="uni0417" unicode="&#x417;" 
d="M156 360l206 70q23 -118 92.5 -182t174.5 -64q110 0 180 68.5t70 177.5q0 122 -91 182t-204 60h-66v182h55q118 0 186 55.5t68 159.5q0 84 -58 136t-151 52q-90 0 -146 -49t-75 -141l-194 41q25 155 138 248.5t277 93.5q198 0 308 -100t110 -267q0 -196 -182 -307
q109 -43 176.5 -134.5t67.5 -209.5q0 -194 -131 -321t-336 -127q-183 0 -312 100q-128 99 -163 276z" />
    <glyph glyph-name="uni0418" unicode="&#x418;" 
d="M1124 0h-213v1012l-542 -1012h-222v1434h213v-1014l543 1014h221v-1434z" />
    <glyph glyph-name="uni0419" unicode="&#x419;" 
d="M1124 0h-213v1012l-542 -1012h-222v1434h213v-1014l543 1014h221v-1434zM399 1835h162q0 -32 20 -53t52 -21t53 21t21 53h161q0 -94 -66 -158.5t-169 -64.5q-101 0 -167.5 64.5t-66.5 158.5z" />
    <glyph glyph-name="uni041A" unicode="&#x41a;" 
d="M123 0v1434h223v-555l481 555h279l-561 -641l602 -793h-277l-524 700v-700h-223z" />
    <glyph glyph-name="uni041B" unicode="&#x41b;" 
d="M37 0v213q53 0 86 6.5t60 26t40.5 57t16.5 96.5l69 1035h848v-1434h-223v1221h-420l-55 -836q-14 -197 -117 -291t-305 -94z" />
    <glyph glyph-name="uni041C" unicode="&#x41c;" 
d="M115 0v1434h221l299 -754l299 754h223v-1434h-211v969l-244 -578h-135l-243 578v-969h-209z" />
    <glyph glyph-name="uni041D" unicode="&#x41d;" 
d="M139 0v1434h223v-568h545v568h223v-1434h-223v657h-545v-657h-223z" />
    <glyph glyph-name="uni041E" unicode="&#x41e;" 
d="M78 717q0 176 42 316t117 230.5t176.5 138.5t221.5 48t221.5 -48t176.5 -138.5t117 -230.5t42 -316t-42 -316t-117 -230.5t-176.5 -138.5t-221.5 -48t-221.5 48t-176.5 138.5t-117 230.5t-42 316zM967 717q0 263 -88.5 393.5t-243.5 130.5t-242.5 -130.5t-87.5 -393.5
t87.5 -393.5t242.5 -130.5t243.5 131t88.5 393z" />
    <glyph glyph-name="uni041F" unicode="&#x41f;" 
d="M127 0v1434h1016v-1434h-223v1225h-570v-1225h-223z" />
    <glyph glyph-name="uni0420" unicode="&#x420;" 
d="M203 0v1434h532q208 0 322 -113.5t114 -308.5t-114 -309.5t-322 -114.5h-309v-588h-223zM426 797h301q105 0 161 55t56 160t-56 159t-161 54h-301v-428z" />
    <glyph glyph-name="uni0421" unicode="&#x421;" 
d="M92 717q0 176 47 317.5t129 231t190 137t234 47.5q204 0 337 -113.5t190 -320.5l-211 -64q-41 153 -120 221t-196 68q-175 0 -274 -129t-99 -395t99 -395t274 -129q117 0 196 68.5t120 221.5l211 -65q-57 -207 -190 -320.5t-337 -113.5q-126 0 -234 47.5t-190 137
t-129 231t-47 317.5z" />
    <glyph glyph-name="uni0422" unicode="&#x422;" 
d="M524 0v1225h-426v209h1073v-209h-423v-1225h-224z" />
    <glyph glyph-name="uni0423" unicode="&#x423;" 
d="M346 0l207 489l-461 945h230l335 -703l301 703h222l-625 -1434h-209z" />
    <glyph glyph-name="uni0424" unicode="&#x424;" 
d="M528 0v150q-93 9 -176.5 53t-148 115t-102.5 174.5t-38 224.5t38 225t102.5 175.5t148 115.5t176.5 53v148h213v-148q93 -9 176.5 -53t148 -115.5t102.5 -175.5t38 -225t-38 -224.5t-102.5 -174.5t-148 -115t-176.5 -53v-150h-213zM528 338v758q-109 -14 -181.5 -116
t-72.5 -263t72.5 -263t181.5 -116zM995 717q0 161 -72.5 263t-181.5 116v-758q109 14 181.5 116t72.5 263z" />
    <glyph glyph-name="uni0425" unicode="&#x425;" 
d="M70 0l438 770l-375 664h248l254 -463l256 463h246l-375 -664l438 -770h-246l-319 569l-318 -569h-247z" />
    <glyph glyph-name="uni0426" unicode="&#x426;" 
d="M928 -254v254h-817v1434h223v-1221h481v1221h223v-1221h121l-31 -467h-200z" />
    <glyph glyph-name="uni0427" unicode="&#x427;" 
d="M924 0v651q-138 -100 -340 -100q-201 0 -313.5 127t-112.5 375v381h223v-367q0 -151 63.5 -227t182.5 -76q94 0 161 32t136 103v535h223v-1434h-223z" />
    <glyph glyph-name="uni0428" unicode="&#x428;" 
d="M113 0v1434h213v-1225h202v1225h213v-1225h203v1225h213v-1434h-1044z" />
    <glyph glyph-name="uni0429" unicode="&#x429;" 
d="M1010 -254v254h-932v1434h213v-1225h203v1225h213v-1225h202v1225h213v-1221h119l-31 -467h-200z" />
    <glyph glyph-name="uni042A" unicode="&#x42a;" 
d="M244 0v1225h-224v209h447v-584h270q209 0 328 -113t119 -311t-119 -312t-328 -114h-493zM467 209h244q123 0 183 53.5t60 163.5t-60 162.5t-183 52.5h-244v-432z" />
    <glyph glyph-name="uni042B" unicode="&#x42b;" 
d="M86 0v1434h223v-584h121q209 0 328 -113t119 -311t-119 -312t-328 -114h-344zM975 0v1434h219v-1434h-219zM309 209h94q123 0 183.5 53.5t60.5 163.5t-60 162.5t-184 52.5h-94v-432z" />
    <glyph glyph-name="uni042C" unicode="&#x42c;" 
d="M121 0v1434h223v-584h293q209 0 327.5 -113t118.5 -311t-118.5 -312t-327.5 -114h-516zM344 209h268q123 0 183.5 53.5t60.5 163.5t-60 162.5t-184 52.5h-268v-432z" />
    <glyph glyph-name="uni042D" unicode="&#x42d;" 
d="M72 418l209 65q79 -290 331 -290q312 0 349 419h-549v209h549q-37 420 -349 420q-252 0 -331 -289l-209 64q57 203 196 318.5t344 115.5q125 0 230 -47.5t183 -137.5t121.5 -230.5t43.5 -317.5t-43.5 -317.5t-121.5 -230.5t-183 -137.5t-230 -47.5q-205 0 -344 115.5
t-196 318.5z" />
    <glyph glyph-name="uni042E" unicode="&#x42e;" 
d="M385 614h-119v-614h-223v1434h223v-611h119q18 303 131.5 465t290.5 162q192 0 309 -188t117 -545t-117 -545t-309 -188q-176 0 -290 162.5t-132 467.5zM1008 717q0 267 -52.5 395.5t-148.5 128.5q-199 0 -199 -524t199 -524q96 0 148.5 128.5t52.5 395.5z" />
    <glyph glyph-name="uni042F" unicode="&#x42f;" 
d="M41 0l412 666q-136 36 -209.5 131.5t-73.5 242.5q0 185 113 289.5t315 104.5h512v-1434h-223v647h-189l-403 -647h-254zM596 856h291v369h-291q-201 0 -201 -185q0 -184 201 -184z" />
    <glyph glyph-name="uni0430" unicode="&#x430;" 
d="M209 297q0 159 122 248.5t333 89.5h190v45q0 93 -57 140.5t-152 47.5q-74 0 -130 -42t-81 -117l-184 51q37 131 145 210t250 79q416 0 416 -414v-635h-168l-27 139q-51 -72 -141.5 -113.5t-198.5 -41.5q-140 0 -228.5 83.5t-88.5 229.5zM852 438v29h-205
q-111 0 -172 -43.5t-61 -124.5q0 -58 39 -95.5t104 -37.5q53 0 104.5 18t94.5 51t69.5 86t26.5 117z" />
    <glyph glyph-name="uni0431" unicode="&#x431;" 
d="M115 635q0 421 139 610t389 189h100q63 0 98 22.5t54 73.5h135q0 -144 -70 -214.5t-198 -70.5h-119q-132 0 -214 -85t-89 -240q59 59 144 94t186 35q141 0 251.5 -71.5t169 -192.5t58.5 -269q0 -229 -143.5 -380.5t-374.5 -151.5q-237 0 -376.5 173t-139.5 478zM928 516
q0 143 -80 246q-75 100 -215 100q-141 0 -219 -100q-78 -104 -78 -246t78 -246q78 -100 219 -100q140 0 215 100q80 103 80 246z" />
    <glyph glyph-name="uni0432" unicode="&#x432;" 
d="M184 0v1032h447q133 0 220 -70.5t87 -185.5q0 -138 -115 -211q72 -32 115 -97t43 -153q0 -135 -97.5 -225t-244.5 -90h-455zM397 639h197q65 0 101 30.5t36 82.5t-36 82t-101 30h-197v-225zM397 176h207q162 0 162 137q0 138 -162 138h-207v-275z" />
    <glyph glyph-name="uni0433" unicode="&#x433;" 
d="M266 0v1032h709v-186h-496v-846h-213z" />
    <glyph glyph-name="uni0434" unicode="&#x434;" 
d="M158 -233l-31 419h78l137 846h715v-846h73l-26 -419h-186v233h-576v-233h-184zM416 186h428v660h-326z" />
    <glyph glyph-name="uni0435" unicode="&#x435;" 
d="M145 516q0 106 33 201.5t94.5 169.5t157 118t211.5 44q93 0 172.5 -27.5t136.5 -75.5t97 -112t59.5 -137.5t19.5 -151.5v-88h-768q6 -125 86 -206t203 -81q188 0 293 176l170 -88q-148 -274 -469 -274q-115 0 -210.5 43.5t-157 117.5t-95 169.5t-33.5 201.5zM367 631h548
q-24 111 -94 173t-180 62q-108 0 -180.5 -64t-93.5 -171z" />
    <glyph glyph-name="uni0436" unicode="&#x436;" 
d="M27 0l313 559l-274 473h231l231 -411v411h213v-411l232 411h231l-272 -473l311 -559h-229l-273 498v-498h-213v498l-272 -498h-229z" />
    <glyph glyph-name="uni0437" unicode="&#x437;" 
d="M260 291l197 24q7 -67 53 -107t113 -40q69 0 111 40t42 107t-55 108.5t-146 41.5h-38v149h43q84 0 128 35t44 101q0 56 -37 91.5t-99 35.5q-114 0 -149 -121l-178 47q27 114 111 180t216 66q150 0 236 -76t86 -191q0 -151 -125 -227q76 -30 121 -95t45 -151
q0 -147 -98 -236t-258 -89q-147 0 -248 86t-115 221z" />
    <glyph glyph-name="uni0438" unicode="&#x438;" 
d="M190 0v1032h213v-706l445 706h231v-1032h-213v707l-444 -707h-232z" />
    <glyph glyph-name="uni0439" unicode="&#x439;" 
d="M190 0v1032h213v-706l445 706h231v-1032h-213v707l-444 -707h-232zM399 1434h162q0 -32 20 -53t52 -21t53 21t21 53h161q0 -94 -66 -159t-169 -65q-101 0 -167.5 65t-66.5 159z" />
    <glyph glyph-name="uni043A" unicode="&#x43a;" 
d="M178 0v1032h213v-407l389 407h267l-461 -473l508 -559h-267l-436 494v-494h-213z" />
    <glyph glyph-name="uni043B" unicode="&#x43b;" 
d="M96 0v186q98 0 145 39t54 129l67 678h738v-1032h-213v846h-336l-62 -570q-18 -154 -111 -215t-282 -61z" />
    <glyph glyph-name="uni043C" unicode="&#x43c;" 
d="M147 0v1032h236l252 -600l252 600h235v-1032h-213v612l-219 -518h-110l-220 518v-612h-213z" />
    <glyph glyph-name="uni043D" unicode="&#x43d;" 
d="M201 0v1032h213v-389h442v389h213v-1032h-213v457h-442v-457h-213z" />
    <glyph glyph-name="uni043E" unicode="&#x43e;" 
d="M127 516q0 109 36.5 206.5t102 170t161 114.5t208.5 42t208.5 -42t161 -114.5t102 -170t36.5 -206.5q0 -147 -62 -267.5t-179 -192.5t-267 -72t-267 72t-179 192.5t-62 267.5zM932 516q0 143 -80 246q-75 100 -217 100q-141 0 -219 -100q-78 -104 -78 -246
q0 -144 81 -245t216 -101t216 101t81 245z" />
    <glyph glyph-name="uni043F" unicode="&#x43f;" 
d="M205 0v1032h860v-1032h-213v846h-434v-846h-213z" />
    <glyph glyph-name="uni0440" unicode="&#x440;" 
d="M207 -418v1450h213v-121q39 58 116 98t166 40q224 0 349 -143t125 -390q0 -244 -125 -387q-124 -145 -349 -145q-85 0 -162 36.5t-120 92.5v-531h-213zM954 516q0 158 -75.5 252t-200.5 94t-201 -93.5t-76 -252.5t76 -252.5t201 -93.5t200.5 94t75.5 252z" />
    <glyph glyph-name="uni0441" unicode="&#x441;" 
d="M166 516q0 146 58 266t172 193.5t263 73.5q317 0 443 -285l-184 -76q-72 174 -259 174q-129 0 -203.5 -93.5t-74.5 -252.5q0 -157 75 -251.5t203 -94.5q186 0 259 176l184 -78q-126 -284 -443 -284q-112 0 -206 42.5t-156 115t-96.5 169.5t-34.5 205z" />
    <glyph glyph-name="uni0442" unicode="&#x442;" 
d="M528 0v846h-358v186h930v-186h-359v-846h-213z" />
    <glyph glyph-name="uni0443" unicode="&#x443;" 
d="M328 -418l217 518l-428 932h229l305 -684l277 684h225l-612 -1450h-213z" />
    <glyph glyph-name="uni0444" unicode="&#x444;" 
d="M528 -418v402q-136 1 -247.5 74.5t-172.5 195t-59 262.5q0 145 60 265t170 192t249 76v393h213v-393q139 -4 249 -76t170.5 -192t60.5 -265q0 -144 -60.5 -263.5t-170.5 -192t-249 -76.5v-402h-213zM528 170v692q-121 -6 -189.5 -101t-68.5 -245t68.5 -245t189.5 -101z
M741 170h2q120 7 188 101.5t68 244.5t-68 245t-188 101h-2v-692z" />
    <glyph glyph-name="uni0445" unicode="&#x445;" 
d="M162 0l358 549l-317 483h235l197 -305l199 305h233l-317 -483l358 -549h-229l-244 371l-242 -371h-231z" />
    <glyph glyph-name="uni0446" unicode="&#x446;" 
d="M930 -233v233h-737v1032h213v-846h450v846h213v-846h74l-27 -419h-186z" />
    <glyph glyph-name="uni0447" unicode="&#x447;" 
d="M844 0v453q-138 -138 -318 -138q-146 0 -231.5 84.5t-85.5 241.5v391h213v-338q0 -92 43.5 -139t122.5 -47q148 0 256 199v325h213v-1032h-213z" />
    <glyph glyph-name="uni0448" unicode="&#x448;" 
d="M92 0v1032h213v-846h223v846h213v-846h224v846h213v-1032h-1086z" />
    <glyph glyph-name="uni0449" unicode="&#x449;" 
d="M1012 -233v233h-946v1032h213v-846h223v846h213v-846h223v846h213v-846h74l-27 -419h-186z" />
    <glyph glyph-name="uni044A" unicode="&#x44a;" 
d="M297 0v846h-201v186h414v-393h235q163 0 257 -86.5t94 -233.5t-94 -233t-257 -86h-448zM510 186h190q95 0 138 31t43 102t-43 102.5t-138 31.5h-190v-267z" />
    <glyph glyph-name="uni044B" unicode="&#x44b;" 
d="M86 0v1032h213v-393h203q163 0 256.5 -86.5t93.5 -233.5t-93.5 -233t-256.5 -86h-416zM954 0v1032h213v-1032h-213zM299 186h160q93 0 135.5 31t42.5 102t-42.5 102.5t-135.5 31.5h-160v-267z" />
    <glyph glyph-name="uni044C" unicode="&#x44c;" 
d="M170 0v1032h213v-393h266q163 0 256.5 -86.5t93.5 -233.5t-93.5 -233t-256.5 -86h-479zM383 186h223q93 0 135.5 31t42.5 102t-42.5 102.5t-135.5 31.5h-223v-267z" />
    <glyph glyph-name="uni044D" unicode="&#x44d;" 
d="M197 254l176 90q85 -174 274 -174q113 0 183 69.5t88 188.5h-465v178h465q-18 118 -88 187t-183 69q-189 0 -274 -174l-176 92q148 269 446 269q118 0 214 -42t159 -114.5t97 -169.5t34 -207q0 -109 -34 -205t-96.5 -169t-159 -115.5t-214.5 -42.5q-302 0 -446 270z" />
    <glyph glyph-name="uni044E" unicode="&#x44e;" 
d="M440 424h-104v-424h-213v1032h213v-422h104q21 204 121.5 321.5t263.5 117.5q183 0 286 -145t103 -388t-103 -387.5t-286 -144.5q-165 0 -264.5 117t-120.5 323zM1010 516q0 165 -48.5 255.5t-136.5 90.5t-136 -90t-48 -256t48 -256t136 -90t136.5 90.5t48.5 255.5z" />
    <glyph glyph-name="uni044F" unicode="&#x44f;" 
d="M219 0l277 467q-95 30 -149 101.5t-54 174.5q0 129 93 209t241 80h393v-1032h-213v455h-109l-258 -455h-221zM616 641h191v205h-191q-58 0 -89 -26.5t-31 -76.5q0 -49 31.5 -75.5t88.5 -26.5z" />
    <glyph glyph-name="uni0450" unicode="&#x450;" 
d="M145 516q0 106 33 201.5t94.5 169.5t157 118t211.5 44q93 0 172.5 -27.5t136.5 -75.5t97 -112t59.5 -137.5t19.5 -151.5v-88h-768q6 -125 86 -206t203 -81q188 0 293 176l170 -88q-148 -274 -469 -274q-115 0 -210.5 43.5t-157 117.5t-95 169.5t-33.5 201.5zM367 631h548
q-24 111 -94 173t-180 62q-108 0 -180.5 -64t-93.5 -171zM573 1147l-266 299h297l133 -299h-164z" />
    <glyph glyph-name="uni0451" unicode="&#x451;" 
d="M145 516q0 106 33 201.5t94.5 169.5t157 118t211.5 44q93 0 172.5 -27.5t136.5 -75.5t97 -112t59.5 -137.5t19.5 -151.5v-88h-768q6 -125 86 -206t203 -81q188 0 293 176l170 -88q-148 -274 -469 -274q-115 0 -210.5 43.5t-157 117.5t-95 169.5t-33.5 201.5zM367 631h548
q-24 111 -94 173t-180 62q-108 0 -180.5 -64t-93.5 -171zM295 1321q0 57 37 94t94 37t94 -37t37 -94q0 -56 -37 -93.5t-94 -37.5t-94 37.5t-37 93.5zM694 1321q0 57 37 94t94 37t94 -37t37 -94q0 -56 -37 -93.5t-94 -37.5t-94 37.5t-37 93.5z" />
    <glyph glyph-name="uni0452" unicode="&#x452;" 
d="M682 -434l-59 192q138 42 198 118t60 220v566q0 102 -42.5 151t-129.5 49q-115 0 -200 -115.5t-85 -312.5v-434h-213v1159h-145v164h145v127h213v-127h256v-164h-256v-305q59 89 151.5 142t200.5 53q155 0 236.5 -83t81.5 -241v-637q0 -423 -412 -522z" />
    <glyph glyph-name="uni0453" unicode="&#x453;" 
d="M266 0v1032h709v-186h-496v-846h-213zM537 1147l135 299h295l-265 -299h-165z" />
    <glyph glyph-name="uni0454" unicode="&#x454;" 
d="M123 516q0 110 34 207t97 169.5t159 114.5t214 42q297 0 448 -269l-176 -92q-88 174 -276 174q-110 0 -181 -69t-90 -187h467v-178h-467q19 -118 90 -188t181 -70q188 0 276 174l176 -90q-150 -270 -448 -270q-118 0 -214.5 42.5t-159 115.5t-96.5 169t-34 205z" />
    <glyph glyph-name="uni0455" unicode="&#x455;" 
d="M207 289l196 69q56 -188 259 -188q87 0 140.5 33.5t53.5 89.5t-50.5 85t-191.5 56q-167 34 -253.5 110t-86.5 206q0 131 106 215t253 84q271 0 393 -230l-162 -108q-78 151 -233 151q-67 0 -111.5 -29.5t-44.5 -82.5q0 -51 49 -83t164 -55q194 -39 284.5 -107t90.5 -196
q0 -148 -116 -236.5t-290 -88.5q-165 0 -282.5 77t-167.5 228z" />
    <glyph glyph-name="uni0456" unicode="&#x456;" 
d="M465 1319q0 66 44 110t107 44q66 0 110 -44t44 -110t-44 -109t-110 -43q-63 0 -107 44.5t-44 107.5zM184 0v184h338v664h-291v184h504v-848h350v-184h-901z" />
    <glyph glyph-name="uni0457" unicode="&#x457;" 
d="M184 0v184h338v664h-291v184h504v-848h350v-184h-901zM293 1321q0 57 37 94t94 37t94 -37t37 -94q0 -56 -37 -93.5t-94 -37.5t-94 37.5t-37 93.5zM692 1321q0 57 37 94t94 37t94 -37t37 -94q0 -56 -37 -93.5t-94 -37.5t-94 37.5t-37 93.5z" />
    <glyph glyph-name="uni0458" unicode="&#x458;" 
d="M555 1319q0 65 45 109.5t109 44.5q63 0 107 -44t44 -110q0 -64 -43 -108t-108 -44t-109.5 44.5t-44.5 107.5zM416 -434l-60 192q136 42 197 120.5t61 223.5v746h-385v184h598v-975q0 -208 -122 -327q-121 -124 -289 -164z" />
    <glyph glyph-name="uni0459" unicode="&#x459;" 
d="M18 0v186q87 0 129.5 38t47.5 118l41 690h550v-393h93q163 0 257.5 -86.5t94.5 -233.5t-94 -233t-258 -86h-306v846h-147l-37 -582q-7 -145 -96.5 -204.5t-274.5 -59.5zM786 186h50q95 0 137.5 31t42.5 102t-42.5 102.5t-137.5 31.5h-50v-267z" />
    <glyph glyph-name="uni045A" unicode="&#x45a;" 
d="M59 0v1032h213v-393h265v393h213v-393h149q158 0 248 -86.5t90 -233.5t-89.5 -233t-248.5 -86h-362v453h-265v-453h-213zM750 186h104q86 0 127 32t41 101t-41 101.5t-127 32.5h-104v-267z" />
    <glyph glyph-name="uni045B" unicode="&#x45b;" 
d="M209 0v1159h-148v164h148v127h213v-127h254v-164h-254v-305q57 89 149.5 142t200.5 53q156 0 238 -83t82 -241v-725h-213v662q0 102 -42.5 151t-129.5 49q-115 0 -200 -115.5t-85 -312.5v-434h-213z" />
    <glyph glyph-name="uni045C" unicode="&#x45c;" 
d="M178 0v1032h213v-407l389 407h267l-461 -473l508 -559h-267l-436 494v-494h-213zM510 1147l135 299h295l-264 -299h-166z" />
    <glyph glyph-name="uni045D" unicode="&#x45d;" 
d="M190 0v1032h213v-706l445 706h231v-1032h-213v707l-444 -707h-232zM584 1147l-267 299h297l134 -299h-164z" />
    <glyph glyph-name="uni045E" unicode="&#x45e;" 
d="M328 -418l217 518l-428 932h229l305 -684l277 684h225l-612 -1450h-213zM418 1434h162q0 -33 19.5 -53.5t51.5 -20.5t53 21t21 53h162q0 -94 -66.5 -159t-169.5 -65q-101 0 -167 65t-66 159z" />
    <glyph glyph-name="uni045F" unicode="&#x45f;" 
d="M532 -233v233h-323v1032h213v-846h426v846h213v-1032h-322v-233h-207z" />
    <glyph glyph-name="uni0462" unicode="&#x462;" 
d="M1206 426q0 -198 -118.5 -312t-327.5 -114h-516v1034h-205v209h205v191h223v-191h217v-209h-217v-184h293q209 0 327.5 -113t118.5 -311zM979 426q0 110 -60 162.5t-184 52.5h-268v-432h268q123 0 183.5 53.5t60.5 163.5z" />
    <glyph glyph-name="uni0463" unicode="&#x463;" 
d="M1145 319q0 -147 -93.5 -233t-258.5 -86h-414v950h-256v180h256v304h213v-304h256v-180h-256v-311h201q165 0 258.5 -86t93.5 -234zM926 319q0 71 -44 103.5t-139 32.5h-151v-271h151q95 0 139 32t44 103z" />
    <glyph glyph-name="uni0472" unicode="&#x472;" 
d="M1192 717q0 -176 -42 -316t-117 -230.5t-176.5 -138.5t-221.5 -48t-221.5 48t-176.5 138.5t-117 230.5t-42 316t42 316t117 230.5t176.5 138.5t221.5 48t221.5 -48t176.5 -138.5t117 -230.5t42 -316zM309 811h654q-17 215 -103 322.5t-225 107.5q-140 0 -226.5 -107.5
t-99.5 -322.5zM963 625h-656q17 -217 103 -324.5t225 -107.5q140 0 227.5 108t100.5 324z" />
    <glyph glyph-name="uni0473" unicode="&#x473;" 
d="M1143 516q0 -147 -62 -267.5t-179 -192.5t-267 -72t-267 72t-179 192.5t-62 267.5q0 109 36.5 206.5t102 170t161 114.5t208.5 42t208.5 -42t161 -114.5t102 -170t36.5 -206.5zM348 610h574q-24 114 -99.5 183t-187.5 69t-187.5 -69t-99.5 -183zM922 424h-574
q24 -116 99 -185t188 -69t188 69t99 185z" />
    <glyph glyph-name="uni0474" unicode="&#x474;" 
d="M1214 1450v-211q-85 0 -128.5 -37t-69.5 -133l-305 -1069h-228l-426 1434h242l299 -1106l193 784q45 182 140 260t283 78z" />
    <glyph glyph-name="uni0475" unicode="&#x475;" 
d="M485 0l-350 1032h215l234 -766l149 486q24 76 51 127t58.5 85t76 52.5t94.5 25.5t122 7v-185q-92 0 -137 -33t-72 -116l-242 -715h-199z" />
    <glyph glyph-name="uni0490" unicode="&#x490;" 
d="M893 1587h223v-362h-651v-1225h-223v1434h651v153z" />
    <glyph glyph-name="uni0491" unicode="&#x491;" 
d="M266 0v1032h496v160h213v-346h-496v-846h-213z" />
    <glyph glyph-name="Wgrave" unicode="&#x1e80;" 
d="M180 0l-137 1434h221l76 -1035l213 752h164l213 -752l78 1035h219l-137 -1434h-252l-203 756l-221 -756h-234zM553 1548l-266 299h297l133 -299h-164z" />
    <glyph glyph-name="wgrave" unicode="&#x1e81;" 
d="M270 0l-215 1032h201l117 -700l176 618h172l176 -618l117 700h200l-215 -1032h-176l-188 664l-189 -664h-176zM584 1147l-267 299h297l134 -299h-164z" />
    <glyph glyph-name="Wacute" unicode="&#x1e82;" 
d="M180 0l-137 1434h221l76 -1035l213 752h164l213 -752l78 1035h219l-137 -1434h-252l-203 756l-221 -756h-234zM553 1548l135 299h295l-264 -299h-166z" />
    <glyph glyph-name="wacute" unicode="&#x1e83;" 
d="M270 0l-215 1032h201l117 -700l176 618h172l176 -618l117 700h200l-215 -1032h-176l-188 664l-189 -664h-176zM551 1147l135 299h295l-264 -299h-166z" />
    <glyph glyph-name="Wdieresis" unicode="&#x1e84;" 
d="M180 0l-137 1434h221l76 -1035l213 752h164l213 -752l78 1035h219l-137 -1434h-252l-203 756l-221 -756h-234zM305 1722q0 57 37 94t94 37t94 -37t37 -94q0 -56 -37 -93.5t-94 -37.5t-94 37.5t-37 93.5zM705 1722q0 57 37 94t94 37t94 -37t37 -94q0 -56 -37 -93.5
t-94 -37.5t-94 37.5t-37 93.5z" />
    <glyph glyph-name="wdieresis" unicode="&#x1e85;" 
d="M270 0l-215 1032h201l117 -700l176 618h172l176 -618l117 700h200l-215 -1032h-176l-188 664l-189 -664h-176zM305 1321q0 57 37 94t94 37t94 -37t37 -94q0 -56 -37 -93.5t-94 -37.5t-94 37.5t-37 93.5zM705 1321q0 57 37 94t94 37t94 -37t37 -94q0 -56 -37 -93.5
t-94 -37.5t-94 37.5t-37 93.5z" />
    <glyph glyph-name="uni1E9E" unicode="&#x1e9e;" 
d="M483 20v203q121 -41 211 -41q110 0 172 65t62 185q0 126 -79.5 190t-227.5 64h-68v105l231 434h-264q-92 0 -138 -54.5t-46 -169.5v-1001h-223v1020q0 195 108.5 304.5t298.5 109.5h543v-105l-268 -491q154 -12 259 -119.5t105 -269.5q0 -204 -123.5 -334.5
t-324.5 -130.5q-104 0 -228 36z" />
    <glyph glyph-name="Ygrave" unicode="&#x1ef2;" 
d="M528 0v547l-456 887h241l322 -654l321 654h244l-459 -887v-547h-213zM553 1548l-266 299h297l133 -299h-164z" />
    <glyph glyph-name="ygrave" unicode="&#x1ef3;" 
d="M328 -418l217 518l-428 932h229l305 -684l277 684h225l-612 -1450h-213zM602 1147l-266 299h297l133 -299h-164z" />
    <glyph glyph-name="endash" unicode="&#x2013;" 
d="M215 557v186h838v-186h-838z" />
    <glyph glyph-name="emdash" unicode="&#x2014;" 
d="M133 557v186h1004v-186h-1004z" />
    <glyph glyph-name="quoteleft" unicode="&#x2018;" 
d="M719 1450h160l-177 -504h-296z" />
    <glyph glyph-name="quoteright" unicode="&#x2019;" 
d="M406 946l176 504h297l-314 -504h-159z" />
    <glyph glyph-name="quotesinglbase" unicode="&#x201a;" 
d="M406 -266l135 526h290l-276 -526h-149z" />
    <glyph glyph-name="quotedblleft" unicode="&#x201c;" 
d="M1096 1450l-176 -504h-297l313 504h160zM649 1450l-176 -504h-297l313 504h160z" />
    <glyph glyph-name="quotedblright" unicode="&#x201d;" 
d="M184 946l178 504h295l-313 -504h-160zM610 946l178 504h295l-313 -504h-160z" />
    <glyph glyph-name="quotedblbase" unicode="&#x201e;" 
d="M174 -324l178 504h295l-313 -504h-160zM600 -324l178 504h295l-313 -504h-160z" />
    <glyph glyph-name="dagger" unicode="&#x2020;" 
d="M532 -102v942h-348v192h348v504h207v-504h346v-192h-346v-942h-207z" />
    <glyph glyph-name="daggerdbl" unicode="&#x2021;" 
d="M532 -102v503h-348v193h348v246h-348v192h348v504h207v-504h346v-192h-346v-246h346v-193h-346v-503h-207z" />
    <glyph glyph-name="bullet" unicode="&#x2022;" 
d="M430 676q0 86 60 146.5t145 60.5q86 0 146.5 -60.5t60.5 -146.5q0 -85 -60.5 -145t-146.5 -60q-85 0 -145 60t-60 145z" />
    <glyph glyph-name="ellipsis" unicode="&#x2026;" 
d="M479 143q0 67 44 111.5t110 44.5q67 0 111 -44t44 -112q0 -66 -44 -110.5t-111 -44.5q-66 0 -110 44.5t-44 110.5zM891 143q0 67 43.5 111.5t109.5 44.5q68 0 112 -44.5t44 -111.5q0 -66 -44.5 -110.5t-111.5 -44.5q-66 0 -109.5 44.5t-43.5 110.5zM70 143
q0 67 43.5 111.5t109.5 44.5q67 0 111.5 -44.5t44.5 -111.5q0 -66 -44.5 -110.5t-111.5 -44.5q-66 0 -109.5 44.5t-43.5 110.5z" />
    <glyph glyph-name="perthousand" unicode="&#x2030;" 
d="M76 1178q0 111 79 191.5t193 80.5q118 0 195 -80q78 -78 78 -192t-78 -195q-78 -78 -195 -78q-114 0 -193 80.5t-79 192.5zM479 1178q0 60 -35.5 97.5t-95.5 37.5t-95.5 -37.5t-35.5 -97.5q0 -61 36 -98.5t95 -37.5t95 37.5t36 98.5zM156 422l-86 117l1028 735l88 -117z
M266 256q0 115 78 193q76 79 193 79q62 0 118 -25.5t93 -70.5q37 45 92.5 70.5t117.5 25.5q117 0 193 -79q78 -78 78 -193q0 -114 -78 -195q-77 -77 -193 -77q-127 0 -210 96q-83 -96 -211 -96q-116 0 -193 77q-78 81 -78 195zM668 256q0 60 -35.5 97.5t-95.5 37.5
t-95.5 -37.5t-35.5 -97.5t35.5 -97.5t95.5 -37.5q59 0 95 38.5t36 96.5zM1087 256q0 61 -35 98t-94 37q-60 0 -96.5 -37.5t-36.5 -97.5q0 -58 37 -96.5t96 -38.5t94 37t35 98z" />
    <glyph glyph-name="guilsinglleft" unicode="&#x2039;" 
d="M938 135l-616 426v148l616 428v-224l-403 -278l403 -277v-223z" />
    <glyph glyph-name="guilsinglright" unicode="&#x203a;" 
d="M332 135v223l403 277l-403 278v224l618 -428v-148z" />
    <glyph glyph-name="fraction" unicode="&#x2044;" 
d="M213 238l-98 108l956 828l98 -109z" />
    <glyph glyph-name="uni2048" unicode="&#x2048;" 
d="M170 684q0 89 49.5 150t147.5 106l141 66q100 47 100 139q0 60 -42.5 93.5t-112.5 33.5q-71 0 -121 -43.5t-74 -120.5l-190 33q25 140 126.5 224.5t256.5 84.5q165 0 263.5 -84t98.5 -229q0 -90 -44 -152t-136 -104l-144 -66q-77 -35 -107 -65.5t-30 -73.5
q0 -41 24.5 -64.5t65.5 -23.5q90 0 133 108l156 -57q-35 -103 -108.5 -158t-176.5 -55q-124 0 -200 70.5t-76 187.5zM293 143q0 66 45 111t108 45q64 0 109 -45.5t45 -110.5q0 -64 -44.5 -108.5t-109.5 -44.5q-63 0 -108 45t-45 108zM954 453l-53 981h285l-53 -981h-179z
M887 143q0 66 44.5 112t110.5 46t112 -46t46 -112t-46 -110.5t-112 -44.5t-110.5 44.5t-44.5 110.5z" />
    <glyph glyph-name="uni2049" unicode="&#x2049;" 
d="M553 684q0 89 49.5 150t147.5 106l141 66q100 47 100 139q0 60 -42.5 93.5t-112.5 33.5q-71 0 -121 -43.5t-74 -120.5l-190 33q25 140 126.5 224.5t256.5 84.5q165 0 263.5 -84t98.5 -229q0 -90 -44 -152t-136 -104l-144 -66q-77 -35 -107 -65.5t-30 -73.5
q0 -41 24.5 -64.5t65.5 -23.5q89 0 133 108l156 -57q-35 -103 -108.5 -158t-176.5 -55q-124 0 -200 70.5t-76 187.5zM676 143q0 66 45 111t108 45t108.5 -45.5t45.5 -110.5q0 -64 -44.5 -108.5t-109.5 -44.5q-63 0 -108 45t-45 108zM143 453l-53 981h285l-53 -981h-179z
M76 143q0 66 44.5 112t110.5 46t112 -46t46 -112t-46 -110.5t-112 -44.5t-110.5 44.5t-44.5 110.5z" />
    <glyph glyph-name="uni2070" unicode="&#x2070;" 
d="M309 1024q0 196 86.5 307t239.5 111t239.5 -111t86.5 -307t-86.5 -307t-239.5 -111t-239.5 111t-86.5 307zM496 872l192 412q-24 12 -53 12q-72 0 -117 -70t-45 -202q0 -85 23 -152zM797 1024q0 96 -25 160l-192 -418q24 -12 55 -12q74 0 118 68.5t44 201.5z" />
    <glyph glyph-name="uni2074" unicode="&#x2074;" 
d="M684 614v146h-344v74l330 600h172v-529h94v-145h-94v-146h-158zM528 905h156v299z" />
    <glyph glyph-name="uni2075" unicode="&#x2075;" 
d="M358 842l154 20q7 -50 39 -78t80 -28q57 0 90 36t33 99q0 66 -31.5 100.5t-91.5 34.5q-81 0 -133 -61l-121 26l43 443h448v-146h-319l-23 -172q53 41 133 41q121 0 190 -72t69 -194q0 -133 -76.5 -209t-210.5 -76q-109 0 -186 65.5t-87 170.5z" />
    <glyph glyph-name="uni2076" unicode="&#x2076;" 
d="M354 877q0 87 43 163l228 402h172l-183 -305q13 8 48 8q117 0 186.5 -71t69.5 -197q0 -122 -78 -196.5t-205 -74.5q-126 0 -203.5 75.5t-77.5 195.5zM752 877q0 57 -31.5 89.5t-85.5 32.5q-52 0 -84.5 -33.5t-32.5 -88.5q0 -54 33 -88.5t84 -34.5t84 34.5t33 88.5z" />
    <glyph glyph-name="uni2077" unicode="&#x2077;" 
d="M418 614l280 674h-313v146h512v-62l-311 -758h-168z" />
    <glyph glyph-name="uni2078" unicode="&#x2078;" 
d="M362 864q0 138 119 193q-92 55 -92 168q0 93 68.5 155t177.5 62t178.5 -62t69.5 -155q0 -113 -92 -168q118 -54 118 -193q0 -116 -77 -187t-197 -71t-196.5 71t-76.5 187zM733 1219q0 44 -27 72t-71 28t-70 -27.5t-26 -72.5t26 -73t70 -28t71 28t27 73zM743 866
q0 50 -29.5 81.5t-78.5 31.5t-79 -31.5t-30 -81.5t30 -81t79 -31t78.5 31t29.5 81z" />
    <glyph glyph-name="uni2079" unicode="&#x2079;" 
d="M475 606l182 305q-13 -8 -47 -8q-117 0 -186.5 71t-69.5 197q0 122 78 196.5t205 74.5t204 -74.5t77 -196.5q0 -86 -44 -163l-227 -402h-172zM754 1171q0 55 -33 90t-84 35t-84 -35t-33 -90t31.5 -87.5t85.5 -32.5q52 0 84.5 32.5t32.5 87.5z" />
    <glyph glyph-name="uni2080" unicode="&#x2080;" 
d="M309 -8q0 196 86.5 307t239.5 111t239.5 -111t86.5 -307t-86.5 -307t-239.5 -111t-239.5 111t-86.5 307zM496 -160l192 412q-24 12 -53 12q-72 0 -117 -70t-45 -202q0 -85 23 -152zM797 -8q0 96 -25 160l-192 -418q26 -13 55 -13q74 0 118 69t44 202z" />
    <glyph glyph-name="uni2081" unicode="&#x2081;" 
d="M401 -418v144h172v460l-163 -73v170l256 118h63v-675h172v-144h-500z" />
    <glyph glyph-name="uni2082" unicode="&#x2082;" 
d="M365 -418v62l299 366q63 75 63 158q0 43 -25.5 68.5t-68.5 25.5q-44 0 -74.5 -31.5t-40.5 -93.5l-145 41q11 103 83 167.5t177 64.5q117 0 187.5 -65t70.5 -175q0 -105 -80 -209l-190 -231h284v-148h-540z" />
    <glyph glyph-name="uni2083" unicode="&#x2083;" 
d="M358 -174l148 20q7 -60 43.5 -92.5t87.5 -32.5q54 0 84.5 35.5t30.5 98.5t-30.5 97t-84.5 34q-39 0 -74 -21l-74 92l152 201h-244v143h469v-57l-188 -250q103 8 170 -60.5t67 -180.5q0 -127 -72 -203t-204 -76q-121 0 -195.5 68t-85.5 184z" />
    <glyph glyph-name="uni2084" unicode="&#x2084;" 
d="M684 -418v146h-344v73l330 600h172v-528h94v-145h-94v-146h-158zM528 -127h156v299z" />
    <glyph glyph-name="uni2085" unicode="&#x2085;" 
d="M358 -190l154 20q7 -50 39 -78t80 -28q57 0 90 36t33 99q0 66 -31.5 100.5t-91.5 34.5q-80 0 -133 -62l-121 27l43 442h448v-145h-319l-23 -172q53 41 133 41q121 0 190 -72t69 -194q0 -133 -76.5 -209t-210.5 -76q-109 0 -186 65.5t-87 170.5z" />
    <glyph glyph-name="uni2086" unicode="&#x2086;" 
d="M354 -156q0 88 43 164l228 402h172l-183 -306q15 9 48 9q117 0 186.5 -71.5t69.5 -197.5q0 -122 -78 -196t-205 -74t-204 75.5t-77 194.5zM752 -156q0 57 -31.5 90t-85.5 33q-51 0 -84 -34t-33 -89q0 -54 33 -88.5t84 -34.5t84 34.5t33 88.5z" />
    <glyph glyph-name="uni2087" unicode="&#x2087;" 
d="M418 -418l280 674h-313v145h512v-61l-311 -758h-168z" />
    <glyph glyph-name="uni2088" unicode="&#x2088;" 
d="M362 -168q0 138 119 193q-92 55 -92 168q0 93 68.5 155t177.5 62t178.5 -62t69.5 -155q0 -113 -92 -168q118 -54 118 -193q0 -116 -77 -187t-197 -71t-196.5 71t-76.5 187zM733 186q0 45 -27 73t-71 28t-70 -28t-26 -73t26 -72.5t70 -27.5t71 28t27 72zM743 -166
q0 50 -29.5 81.5t-78.5 31.5t-79 -31.5t-30 -81.5t30 -81.5t79 -31.5t78.5 31.5t29.5 81.5z" />
    <glyph glyph-name="uni2089" unicode="&#x2089;" 
d="M475 -418l182 305q-13 -8 -47 -8q-117 0 -186.5 71t-69.5 197q0 122 78 196.5t205 74.5t204 -74.5t77 -196.5q0 -86 -44 -163l-227 -402h-172zM754 147q0 55 -33 90t-84 35t-84 -35t-33 -90t31.5 -87.5t85.5 -32.5q52 0 84.5 32.5t32.5 87.5z" />
    <glyph glyph-name="franc" unicode="&#x20a3;" 
d="M1081 1214h-671v-362h571v-209h-571v-270h325v-209h-325v-164h-224v164h-135v209h135v1061h895v-220z" />
    <glyph glyph-name="uni20A8" unicode="&#x20a8;" 
d="M537 666l223 -666h-189l-217 647h-24v-647h-193v977h-63v143h63v314h291q138 0 232 -84.5t114 -229.5h152v-143h-150q-26 -223 -239 -311zM330 1233v-113h248q-27 113 -148 113h-100zM330 852h100q125 0 152 125h-252v-125zM1229 233q0 -109 -68 -179t-174 -70
q-92 0 -155.5 58t-81.5 165l129 63q21 -133 112 -133q36 0 58 23t22 61q0 75 -125 133q-172 85 -172 230q0 98 62 156.5t157 58.5q149 0 213 -137l-110 -91q-37 82 -101 82q-33 0 -53 -17t-20 -46q0 -38 25.5 -64t92.5 -57q96 -47 142.5 -101t46.5 -135z" />
    <glyph glyph-name="dong" unicode="&#x20ab;" 
d="M1049 1352v-140h-82v-839h-203v76q-31 -42 -82.5 -66.5t-112.5 -24.5q-157 0 -248.5 107.5t-91.5 288.5q0 180 90.5 286.5t247.5 106.5q130 0 197 -86v151h-184v140h184v82h203v-82h82zM774 754q0 102 -45.5 159.5t-124.5 57.5q-80 0 -127 -57.5t-47 -159.5
q0 -103 47 -161t127 -58q79 0 124.5 58t45.5 161zM1049 266v-139h-828v139h828z" />
    <glyph glyph-name="Euro" unicode="&#x20ac;" 
d="M254 461h-191l87 186h83l-2 72l2 69h-170l87 187h104q47 227 184 351t340 124q305 0 428 -250l-186 -106q-78 155 -242 155q-234 0 -305 -274h475l-86 -187h-411l-2 -69l2 -72h497l-86 -186h-389q70 -277 305 -277q81 0 143 41t99 117l186 -106q-124 -252 -428 -252
q-203 0 -340 124.5t-184 352.5z" />
    <glyph glyph-name="uni20AD" unicode="&#x20ad;" 
d="M1198 883v-209h-545l512 -674h-276l-504 674h-20v-674h-224v674h-104v209h104v551h224v-551h4l477 551h278l-481 -551h555z" />
    <glyph glyph-name="uni20B1" unicode="&#x20b1;" 
d="M1208 1167v-120h-82v-35v-35h82v-123h-104q-39 -126 -145.5 -196t-268.5 -70h-309v-588h-223v854h-107v123h107v70h-107v120h107v267h532q162 0 268.5 -70.5t145.5 -196.5h104zM381 1225v-58h465q-55 58 -164 58h-301zM897 1047h-516v-70h516q2 6 2 35t-2 35zM846 854
h-465v-57h301q110 0 164 57z" />
    <glyph glyph-name="uni20B4" unicode="&#x20b4;" 
d="M961 944h129v-184h-910v184h551q76 64 76 148q0 64 -48.5 108.5t-119.5 44.5q-147 0 -205 -155l-180 114q108 246 385 246q167 0 274 -92.5t107 -235.5q0 -101 -59 -178zM180 489v187h910v-187h-543q-76 -64 -76 -147q0 -64 47.5 -108t118.5 -44q145 0 207 156l178 -115
q-107 -247 -385 -247q-165 0 -273 92.5t-108 236.5q0 101 57 176h-133z" />
    <glyph glyph-name="uni20B8" unicode="&#x20b8;" 
d="M147 1186v200h977v-200h-977zM526 0v831h-379v201h977v-201h-379v-831h-219z" />
    <glyph glyph-name="uni20BA" unicode="&#x20ba;" 
d="M934 508h227v-84q0 -195 -115 -309.5t-323 -114.5h-426v489l-221 -57v184l221 58v129l-221 -58v185l221 57v447h221v-390l344 91v-187l-344 -88v-129l344 90v-186l-344 -88v-340h199q217 0 217 217v84z" />
    <glyph glyph-name="uni20BD" unicode="&#x20bd;" 
d="M1194 1012q0 -195 -114 -309.5t-322 -114.5h-309v-154h299v-209h-299v-225h-224v225h-147v209h147v154h-147v209h147v637h533q208 0 322 -113.5t114 -308.5zM967 1012q0 105 -56 159t-161 54h-301v-428h301q105 0 161 55t56 160z" />
    <glyph glyph-name="uni20BF" unicode="&#x20bf;" 
d="M731 4v-147h-166v143h-100v-143h-166v143h-152v1434h152v143h166v-143h100v143h166v-150q154 -24 237 -118t83 -252q0 -90 -42 -163t-112 -110q107 -43 166 -134t59 -220q0 -185 -103 -297t-288 -129zM629 1225h-258v-361h262q196 0 196 180q0 181 -200 181zM897 432
q0 113 -63.5 168t-196.5 55h-266v-446h266q133 0 196.5 55t63.5 168z" />
    <glyph glyph-name="uni2113" unicode="&#x2113;" 
d="M854 346l180 -65q-44 -153 -127 -225t-229 -72q-340 0 -340 354v209l-105 -64l-100 166q116 68 205 129v357q0 144 76.5 229.5t220.5 85.5q134 0 202 -73.5t68 -186.5q0 -124 -82.5 -246.5t-224.5 -224.5l-37 -27v-381q0 -71 34 -107t95 -36q62 0 100.5 42t63.5 136z
M561 1171v-225q125 119 125 240q0 80 -61 80q-64 0 -64 -95z" />
    <glyph glyph-name="uni2116" unicode="&#x2116;" 
d="M743 1188q0 118 69 190t185 72t185 -72t69 -190t-69 -190t-185 -72t-185 72t-69 190zM39 0v1434h211l231 -844v844h203v-1434h-211l-231 844v-844h-203zM1087 1188q0 48 -25.5 77t-64.5 29t-64.5 -29t-25.5 -77q0 -49 25.5 -78t64.5 -29t64.5 29t25.5 78zM754 629v182
h489v-182h-489z" />
    <glyph glyph-name="uni2117" unicode="&#x2117;" 
d="M1196 717q0 -161 -72.5 -293t-201.5 -207.5t-287 -75.5q-116 -1 -221 43.5t-180 122t-118.5 184.5t-41.5 226q-3 158 71 291.5t204.5 210t285.5 73.5q156 3 286 -73.5t203.5 -209.5t71.5 -292zM1053 717q0 189 -118 313.5t-300 124.5t-300 -124.5t-118 -313.5t118 -313.5
t300 -124.5t300 124.5t118 313.5zM850 844q0 -80 -53 -128t-144 -48h-102v-254h-117v606h219q91 0 144 -48t53 -128zM729 844q0 65 -82 65h-96v-131h96q82 0 82 66z" />
    <glyph glyph-name="uni2120" unicode="&#x2120;" 
d="M29 825l123 78q25 -164 143 -164q39 0 65.5 28.5t26.5 74.5q0 54 -31.5 88.5t-111.5 73.5q-84 41 -127 96t-43 139q0 95 62.5 153t156.5 58q157 0 213 -139l-111 -80q-27 84 -100 84q-35 0 -58.5 -21t-23.5 -53q0 -45 37 -77t135 -79q78 -40 115 -93.5t37 -135.5
q0 -120 -67 -189t-177 -69q-103 0 -174.5 63.5t-89.5 163.5zM616 614v820h138l168 -504l170 504h137v-820h-131v457l-131 -381h-88l-131 381v-457h-132z" />
    <glyph glyph-name="trademark" unicode="&#x2122;" 
d="M190 614v668h-172v152h504v-152h-174v-668h-158zM606 614v820h158l158 -424l157 424h162v-820h-158v510l-122 -336h-78l-127 336v-510h-150z" />
    <glyph glyph-name="uni2126" unicode="&#x2126;" 
d="M117 0v193h233q-102 124 -170 290q-69 172 -69 363q0 280 140 442t386 162t386 -162t140 -442q0 -186 -71 -363q-70 -171 -168 -290h233v-193h-471v193q121 116 186.5 285.5t65.5 350.5q0 201 -79.5 308.5t-221.5 107.5q-139 0 -219 -107.5t-80 -308.5q0 -181 65 -350.5
t185 -285.5v-193h-471z" />
    <glyph glyph-name="estimated" unicode="&#x212e;" 
d="M272 717v-318q56 -83 154 -133.5t209 -50.5q140 0 253 65t167 177h90q-67 -140 -207 -230q-137 -88 -303 -88q-165 0 -295.5 77.5t-201 209t-70.5 291.5q0 159 70.5 291t201 210t295.5 78q248 0 407.5 -163t159.5 -416h-930zM272 1051v-258h734v251q-53 78 -153 128.5
t-218 50.5q-109 0 -205.5 -46.5t-157.5 -125.5z" />
    <glyph glyph-name="uni2153" unicode="&#x2153;" 
d="M47 750v124h160v371l-148 -67v149l228 107h57v-560h160v-124h-457zM285 188l-97 84l844 945l96 -84zM758 207l137 29q5 -55 33.5 -85t77.5 -30q44 0 71 29.5t27 82.5q0 49 -26.5 78t-69.5 29q-40 0 -70 -23l-61 86l124 152h-204v129h413v-55l-157 -189q88 -1 141 -59
t53 -150q0 -110 -65.5 -174.5t-175.5 -64.5q-105 0 -173 58.5t-75 156.5z" />
    <glyph glyph-name="uni2154" unicode="&#x2154;" 
d="M63 750v59l259 297q51 57 51 121q0 38 -22.5 61t-59.5 23q-38 0 -62 -25t-30 -74l-131 33q14 91 74 144t153 53q106 0 163.5 -53.5t57.5 -151.5q0 -61 -18 -107t-60 -96l-131 -153h217v-131h-461zM285 188l-97 84l844 945l96 -84zM758 207l137 29q5 -55 33.5 -85
t77.5 -30q44 0 71 29.5t27 82.5q0 49 -26.5 78t-69.5 29q-40 0 -70 -23l-61 86l124 152h-204v129h413v-55l-157 -189q88 -1 141 -59t53 -150q0 -110 -65.5 -174.5t-175.5 -64.5q-105 0 -173 58.5t-75 156.5z" />
    <glyph glyph-name="oneeighth" unicode="&#x215b;" 
d="M47 750v124h160v371l-148 -67v149l228 107h57v-560h160v-124h-457zM311 188l-96 84l844 945l96 -84zM760 199q0 117 100 174q-76 52 -76 137q0 81 58 131.5t151 50.5t151 -50.5t58 -131.5q0 -84 -74 -137q101 -58 101 -174q0 -91 -67.5 -149t-168.5 -58t-167 57t-66 150z
M1071 494q0 34 -22.5 55.5t-55.5 21.5t-55.5 -21.5t-22.5 -55.5q0 -35 22.5 -56.5t55.5 -21.5t55.5 21.5t22.5 56.5zM1087 207q0 42 -26 67t-68 25q-39 0 -65.5 -25.5t-26.5 -66.5q0 -40 26.5 -65t65.5 -25q42 0 68 24.5t26 65.5z" />
    <glyph glyph-name="threeeighths" unicode="&#x215c;" 
d="M90 956l135 29q15 -115 111 -115q44 0 71 30t27 83q0 49 -25.5 78t-68.5 29q-44 0 -70 -23l-63 86l127 152h-207v129h416v-56l-158 -188q86 -2 139.5 -59.5t53.5 -149.5q0 -110 -66 -175t-176 -65q-103 0 -171 58.5t-75 156.5zM289 188l-96 84l843 945l97 -84zM760 199
q0 117 100 174q-76 52 -76 137q0 81 58 131.5t151 50.5t151 -50.5t58 -131.5q0 -84 -74 -137q101 -58 101 -174q0 -91 -67.5 -149t-168.5 -58t-167 57t-66 150zM1071 494q0 34 -22.5 55.5t-55.5 21.5t-55.5 -21.5t-22.5 -55.5q0 -35 22.5 -56.5t55.5 -21.5t55.5 21.5
t22.5 56.5zM1087 207q0 42 -26 67t-68 25q-39 0 -65.5 -25.5t-26.5 -66.5q0 -40 26.5 -65t65.5 -25q42 0 68 24.5t26 65.5z" />
    <glyph glyph-name="fiveeighths" unicode="&#x215d;" 
d="M92 930l125 31q8 -42 34.5 -66.5t67.5 -24.5q47 0 73 27t26 78q0 49 -25.5 76.5t-70.5 27.5q-66 0 -103 -53l-117 18l39 390h381v-129h-268l-14 -134q42 33 112 33q98 0 152.5 -60t54.5 -171q0 -108 -66 -170t-174 -62q-93 0 -154 49.5t-73 139.5zM289 188l-96 84
l843 945l97 -84zM760 199q0 117 100 174q-76 52 -76 137q0 81 58 131.5t151 50.5t151 -50.5t58 -131.5q0 -84 -74 -137q101 -58 101 -174q0 -91 -67.5 -149t-168.5 -58t-167 57t-66 150zM1071 494q0 34 -22.5 55.5t-55.5 21.5t-55.5 -21.5t-22.5 -55.5q0 -35 22.5 -56.5
t55.5 -21.5t55.5 21.5t22.5 56.5zM1087 207q0 42 -26 67t-68 25q-39 0 -65.5 -25.5t-26.5 -66.5q0 -40 26.5 -65t65.5 -25q42 0 68 24.5t26 65.5z" />
    <glyph glyph-name="seveneighths" unicode="&#x215e;" 
d="M203 737l248 568h-306v129h484v-54l-277 -643h-149zM221 188l-96 84l844 945l96 -84zM713 199q0 117 100 174q-76 52 -76 137q0 81 58 131.5t151 50.5t151 -50.5t58 -131.5q0 -84 -74 -137q101 -58 101 -174q0 -91 -67.5 -149t-168.5 -58t-167 57t-66 150zM1024 494
q0 34 -22.5 55.5t-55.5 21.5t-55.5 -21.5t-22.5 -55.5q0 -35 22.5 -56.5t55.5 -21.5t55.5 21.5t22.5 56.5zM1040 207q0 42 -26 67t-68 25q-39 0 -65.5 -25.5t-26.5 -66.5q0 -40 26.5 -65t65.5 -25q42 0 68 24.5t26 65.5z" />
    <glyph glyph-name="arrowleft" unicode="&#x2190;" 
d="M569 215l-503 502l503 504l127 -131l-274 -279h762v-186h-762l274 -281z" />
    <glyph glyph-name="arrowup" unicode="&#x2191;" 
d="M543 158v764l-281 -275l-129 127l502 502l504 -502l-131 -127l-279 275v-764h-186z" />
    <glyph glyph-name="arrowright" unicode="&#x2192;" 
d="M696 215l-127 129l275 281h-762v186h762l-275 279l127 131l504 -504z" />
    <glyph glyph-name="arrowdown" unicode="&#x2193;" 
d="M637 158l-504 504l131 126l279 -274v762h186v-762l281 274l129 -126z" />
    <glyph glyph-name="arrowboth" unicode="&#x2194;" 
d="M817 1159l440 -442l-440 -441l-127 132l213 217h-536l213 -217l-127 -132l-441 441l441 442l127 -131l-213 -217h536l-213 217z" />
    <glyph glyph-name="arrowupdn" unicode="&#x2195;" 
d="M543 438v764l-281 -274l-129 127l502 501l504 -501l-131 -127l-279 274v-764h-186zM635 -119l-504 504l131 127l279 -274v761h186v-761l281 274l129 -127z" />
    <glyph glyph-name="uni2196" unicode="&#x2196;" 
d="M973 274l-551 549v-395h-184v711h710v-183l-393 -2l549 -548z" />
    <glyph glyph-name="uni2197" unicode="&#x2197;" 
d="M299 274l-131 132l549 548l-395 2v183h710v-711h-182l-2 395z" />
    <glyph glyph-name="uni2198" unicode="&#x2198;" 
d="M338 276v189h391l-561 561l131 131l561 -561v391h189v-711h-711z" />
    <glyph glyph-name="uni2199" unicode="&#x2199;" 
d="M223 276v711h187v-391l561 561l133 -131l-563 -561h393v-189h-711z" />
    <glyph glyph-name="partialdiff" unicode="&#x2202;" 
d="M121 430q-3 171 74 314t216 225.5t310 79.5q130 0 207 -74q-37 289 -258 289q-167 0 -240 -162l-194 57q43 130 159.5 210.5t263.5 80.5q253 0 371.5 -176.5t118.5 -530.5q0 -125 -21 -235.5t-67.5 -207.5t-115.5 -166.5t-170.5 -109.5t-227.5 -40q-187 0 -306.5 123
t-119.5 323zM913 598q0 264 -213 264q-102 0 -183.5 -62.5t-124 -159t-42.5 -204.5q0 -121 57 -193.5t164 -72.5q156 0 249 124t93 304z" />
    <glyph glyph-name="uni2206" unicode="&#x2206;" 
d="M115 0v53l428 1381h184l430 -1381v-53h-1042zM362 193h547l-274 923z" />
    <glyph glyph-name="product" unicode="&#x220f;" 
d="M217 0v1434h836v-1434h-213v1245h-410v-1245h-213z" />
    <glyph glyph-name="summation" unicode="&#x2211;" 
d="M168 0v74l459 643l-459 643v74h934v-189h-615l357 -508v-41l-357 -508h615v-188h-934z" />
    <glyph glyph-name="minus" unicode="&#x2212;" 
d="M184 557v186h901v-186h-901z" />
    <glyph glyph-name="uni2215" unicode="&#x2215;" 
d="M113 -102l831 1638h211l-831 -1638h-211z" />
    <glyph glyph-name="uni2219" unicode="&#x2219;" 
d="M438 621q0 84 58.5 142t140.5 58t139.5 -58t57.5 -142q0 -82 -57.5 -140.5t-139.5 -58.5t-140.5 58.5t-58.5 140.5z" />
    <glyph glyph-name="radical" unicode="&#x221a;" 
d="M598 0l-195 604h-227v193h344l162 -508l346 1161h205l-463 -1450h-172z" />
    <glyph glyph-name="infinity" unicode="&#x221e;" 
d="M31 735q0 162 85 250t230 88q98 0 178.5 -59t110.5 -148q30 89 110.5 148t178.5 59q145 0 230 -88t85 -250t-85 -250t-230 -88q-98 0 -178.5 59t-110.5 148q-30 -89 -110.5 -148t-178.5 -59q-145 0 -230 88t-85 250zM549 735q-21 74 -72.5 125t-111.5 51
q-70 0 -112 -47.5t-42 -128.5t42 -127.5t112 -46.5q60 0 111.5 51t72.5 123zM1061 735q0 82 -42 129t-114 47q-60 0 -110.5 -51t-71.5 -125q21 -72 72 -123t110 -51q72 0 114 46.5t42 127.5z" />
    <glyph glyph-name="integral" unicode="&#x222b;" 
d="M35 -385l84 178q65 -41 135 -41q134 0 168 162l229 1178q36 188 134 273t262 85q130 0 204 -49l-84 -178q-65 41 -135 41q-134 0 -168 -162l-229 -1178q-36 -188 -132.5 -273t-258.5 -85q-135 0 -209 49z" />
    <glyph glyph-name="approxequal" unicode="&#x2248;" 
d="M623 782q-53 23 -72 31t-50 15.5t-61 7.5q-106 0 -188 -99l-115 121q42 90 121 147.5t168 57.5q58 0 104 -13t117 -46q113 -52 182 -52q110 0 189 99l117 -123q-43 -92 -121.5 -148.5t-169.5 -56.5q-56 0 -101.5 13t-119.5 46zM627 367q-63 28 -101 39.5t-82 11.5
q-109 0 -188 -99l-117 123q44 91 122.5 148t168.5 57q56 0 101.5 -13t119.5 -46q50 -22 71.5 -30.5t51.5 -15.5t60 -7q107 0 188 98l115 -123q-42 -90 -121 -146.5t-168 -56.5q-55 0 -100.5 13.5t-120.5 46.5z" />
    <glyph glyph-name="notequal" unicode="&#x2260;" 
d="M469 156l-162 90l68 119h-166v186h272l97 168h-369v186h473l121 211l162 -92l-68 -119h168v-186h-274l-95 -168h369v-186h-475z" />
    <glyph glyph-name="lessequal" unicode="&#x2264;" 
d="M1044 309l-819 410v209l819 409v-223l-589 -291l589 -291v-223zM168 0v186h938v-186h-938z" />
    <glyph glyph-name="greaterequal" unicode="&#x2265;" 
d="M225 309v223l592 291l-592 291v223l819 -409v-209zM166 0v186h938v-186h-938z" />
    <glyph glyph-name="lozenge" unicode="&#x25ca;" 
d="M532 0l-399 717l399 717h207l400 -717l-400 -717h-207zM635 193l285 524l-285 526l-283 -526z" />
    <glyph glyph-name="uniF8FF" unicode="&#xf8ff;" 
d="M29 45v1219q0 14 9.5 27.5t22.5 17.5l553 159l21 5l20 -5l553 -159q13 -4 23 -17.5t10 -27.5v-1219q0 -19 -13 -32t-32 -13l-14 2l-547 158l-547 -158l-14 -2q-19 0 -32 13t-13 32zM590 750v620l-471 -137q12 -191 146.5 -329.5t324.5 -153.5zM1151 1233l-471 137v-620
q190 15 324.5 153.5t146.5 329.5zM117 104l473 138v417q-149 12 -274 89t-199 200v-844zM1153 104v844q-75 -124 -200 -200.5t-273 -88.5v-417z" />
    <glyph glyph-name="NULL" 
 />
    <glyph glyph-name="Gcommaaccent.ss02" 
d="M90 717q-2 146 30.5 269t88.5 207.5t131 144t157.5 86.5t168.5 26q208 0 342 -111.5t188 -324.5l-211 -64q-38 151 -113.5 221t-195.5 70q-171 0 -265 -130.5t-94 -393.5q0 -262 92 -393t257 -131q131 0 210.5 85.5t92.5 247.5h-297v197h518v-723h-186l-15 166
q-103 -182 -340 -182q-108 -2 -208 45t-179.5 136t-126.5 232.5t-45 319.5zM545 -573l-33 45q96 66 119 182q-103 38 -103 125q0 52 36.5 88.5t92.5 36.5q57 0 94 -40t37 -100q0 -181 -243 -337z" />
    <glyph glyph-name="Kcommaaccent.ss02" 
d="M123 0v1434h223v-555l481 555h279l-561 -641l602 -793h-277l-524 700v-700h-223zM457 -573l-33 45q96 66 119 182q-103 38 -103 125q0 52 36.5 88.5t92.5 36.5q57 0 94 -40t37 -100q0 -181 -243 -337z" />
    <glyph glyph-name="Lcaron.ss02" 
d="M180 0v1434h223v-1225h689v-209h-912zM795 1094l-33 45q96 66 119 182q-103 38 -103 125q0 52 36.5 88.5t92.5 36.5q57 0 94 -39.5t37 -99.5q0 -182 -243 -338z" />
    <glyph glyph-name="Lcommaaccent.ss02" 
d="M180 0v1434h223v-1225h689v-209h-912zM541 -573l-33 45q96 66 119 182q-103 38 -103 125q0 52 36.5 88.5t92.5 36.5q57 0 94 -40t37 -100q0 -181 -243 -337z" />
    <glyph glyph-name="Ncommaaccent.ss02" 
d="M145 0v1434h222l542 -1014v1014h213v-1434h-221l-543 1012v-1012h-213zM524 -573l-32 45q95 65 118 182q-102 38 -102 125q0 52 36.5 88.5t92.5 36.5q57 0 94 -40t37 -100q0 -180 -244 -337z" />
    <glyph glyph-name="Rcommaaccent.ss02" 
d="M154 0v1434h512q202 0 316 -104.5t114 -289.5q0 -147 -74 -243t-211 -131l414 -666h-256l-402 647h-190v-647h-223zM377 856h293q198 0 198 184q0 185 -198 185h-293v-369zM545 -573l-33 45q96 66 119 182q-103 38 -103 125q0 52 36.5 88.5t92.5 36.5q57 0 94 -40
t37 -100q0 -181 -243 -337z" />
    <glyph glyph-name="Scommaaccent.ss02" 
d="M113 408l202 77q71 -292 340 -292q108 0 178 56.5t70 151.5t-66.5 143.5t-248.5 102.5q-189 54 -286 152t-97 262q0 171 121.5 280t322.5 109q171 0 285.5 -83t163.5 -224l-187 -94q-76 192 -262 192q-100 0 -160.5 -49.5t-60.5 -138.5t66.5 -136t234.5 -90
q100 -26 170 -58.5t123 -80t78.5 -114t25.5 -154.5q0 -207 -132.5 -321.5t-342.5 -114.5q-211 0 -354 111t-184 313zM524 -573l-32 45q95 65 118 182q-102 38 -102 125q0 52 36.5 88.5t92.5 36.5q57 0 94 -40t37 -100q0 -180 -244 -337z" />
    <glyph glyph-name="uni021A.ss02" 
d="M524 0v1225h-426v209h1073v-209h-423v-1225h-224zM524 -573l-32 45q95 65 118 182q-102 38 -102 125q0 52 36.5 88.5t92.5 36.5q57 0 94 -40t37 -100q0 -180 -244 -337z" />
    <glyph glyph-name="i.loclTRK" 
d="M184 0v184h338v664h-291v184h504v-848h350v-184h-901zM471 1317q0 65 44 109t108 44q66 0 109.5 -43.5t43.5 -109.5q0 -64 -44 -108t-109 -44q-63 0 -107.5 44.5t-44.5 107.5z" />
    <glyph glyph-name="a.ss01" 
d="M152 516q0 247 124 390t347 143q88 0 163.5 -36t118.5 -93v112h213v-1032h-213v123q-38 -60 -115 -99.5t-167 -39.5q-225 0 -349 145q-122 143 -122 387zM924 516q0 157 -75.5 251.5t-199.5 94.5q-125 0 -200.5 -93.5t-75.5 -252.5t75.5 -252.5t200.5 -93.5
q124 0 199.5 94.5t75.5 251.5z" />
    <glyph glyph-name="aacute.ss01" 
d="M152 516q0 247 124 390t347 143q88 0 163.5 -36t118.5 -93v112h213v-1032h-213v123q-38 -60 -115 -99.5t-167 -39.5q-225 0 -349 145q-122 143 -122 387zM924 516q0 157 -75.5 251.5t-199.5 94.5q-125 0 -200.5 -93.5t-75.5 -252.5t75.5 -252.5t200.5 -93.5
q124 0 199.5 94.5t75.5 251.5zM565 1147l135 299h295l-264 -299h-166z" />
    <glyph glyph-name="abreve.ss01" 
d="M152 516q0 247 124 390t347 143q88 0 163.5 -36t118.5 -93v112h213v-1032h-213v123q-38 -60 -115 -99.5t-167 -39.5q-225 0 -349 145q-122 143 -122 387zM924 516q0 157 -75.5 251.5t-199.5 94.5q-125 0 -200.5 -93.5t-75.5 -252.5t75.5 -252.5t200.5 -93.5
q124 0 199.5 94.5t75.5 251.5zM416 1434h162q0 -33 19.5 -53.5t51.5 -20.5t53 21t21 53h162q0 -94 -66.5 -159t-169.5 -65q-101 0 -167 65t-66 159z" />
    <glyph glyph-name="acircumflex.ss01" 
d="M152 516q0 247 124 390t347 143q88 0 163.5 -36t118.5 -93v112h213v-1032h-213v123q-38 -60 -115 -99.5t-167 -39.5q-225 0 -349 145q-122 143 -122 387zM924 516q0 157 -75.5 251.5t-199.5 94.5q-125 0 -200.5 -93.5t-75.5 -252.5t75.5 -252.5t200.5 -93.5
q124 0 199.5 94.5t75.5 251.5zM287 1147l331 334h62l334 -334h-219l-146 147l-145 -147h-217z" />
    <glyph glyph-name="adieresis.ss01" 
d="M152 516q0 247 124 390t347 143q88 0 163.5 -36t118.5 -93v112h213v-1032h-213v123q-38 -60 -115 -99.5t-167 -39.5q-225 0 -349 145q-122 143 -122 387zM924 516q0 157 -75.5 251.5t-199.5 94.5q-125 0 -200.5 -93.5t-75.5 -252.5t75.5 -252.5t200.5 -93.5
q124 0 199.5 94.5t75.5 251.5zM319 1321q0 57 37.5 94t94.5 37t94 -37t37 -94q0 -56 -37 -93.5t-94 -37.5t-94.5 37.5t-37.5 93.5zM719 1321q0 57 37 94t94 37t94 -37t37 -94q0 -56 -37 -93.5t-94 -37.5t-94 37.5t-37 93.5z" />
    <glyph glyph-name="agrave.ss01" 
d="M152 516q0 247 124 390t347 143q88 0 163.5 -36t118.5 -93v112h213v-1032h-213v123q-38 -60 -115 -99.5t-167 -39.5q-225 0 -349 145q-122 143 -122 387zM924 516q0 157 -75.5 251.5t-199.5 94.5q-125 0 -200.5 -93.5t-75.5 -252.5t75.5 -252.5t200.5 -93.5
q124 0 199.5 94.5t75.5 251.5zM598 1147l-266 299h297l133 -299h-164z" />
    <glyph glyph-name="amacron.ss01" 
d="M152 516q0 247 124 390t347 143q88 0 163.5 -36t118.5 -93v112h213v-1032h-213v123q-38 -60 -115 -99.5t-167 -39.5q-225 0 -349 145q-122 143 -122 387zM924 516q0 157 -75.5 251.5t-199.5 94.5q-125 0 -200.5 -93.5t-75.5 -252.5t75.5 -252.5t200.5 -93.5
q124 0 199.5 94.5t75.5 251.5zM381 1223v176h534v-176h-534z" />
    <glyph glyph-name="aogonek.ss01" 
d="M152 516q0 247 124 390t347 143q88 0 163.5 -36t118.5 -93v112h213v-1032h-213v123q-38 -60 -115 -99.5t-167 -39.5q-225 0 -349 145q-122 143 -122 387zM924 516q0 157 -75.5 251.5t-199.5 94.5q-125 0 -200.5 -93.5t-75.5 -252.5t75.5 -252.5t200.5 -93.5
q124 0 199.5 94.5t75.5 251.5zM834 -197q0 56 31.5 108t86.5 89h166q-123 -102 -123 -166q0 -28 16.5 -43.5t43.5 -15.5q35 0 69 24l39 -145q-59 -33 -133 -33q-89 0 -142.5 49t-53.5 133z" />
    <glyph glyph-name="aring.ss01" 
d="M152 516q0 247 124 390t347 143q88 0 163.5 -36t118.5 -93v112h213v-1032h-213v123q-38 -60 -115 -99.5t-167 -39.5q-225 0 -349 145q-122 143 -122 387zM924 516q0 157 -75.5 251.5t-199.5 94.5q-125 0 -200.5 -93.5t-75.5 -252.5t75.5 -252.5t200.5 -93.5
q124 0 199.5 94.5t75.5 251.5zM442 1339q0 88 59.5 147.5t147.5 59.5q90 0 148.5 -59.5t58.5 -147.5q0 -87 -58.5 -144.5t-148.5 -57.5q-88 0 -147.5 58t-59.5 144zM725 1341q0 36 -20.5 58t-55.5 22q-32 0 -53 -22.5t-21 -57.5t20.5 -56t53.5 -21q35 0 55.5 21t20.5 56z
" />
    <glyph glyph-name="aringacute.ss01" 
d="M152 516q0 247 124 390t347 143q88 0 163.5 -36t118.5 -93v112h213v-1032h-213v123q-38 -60 -115 -99.5t-167 -39.5q-225 0 -349 145q-122 143 -122 387zM924 516q0 157 -75.5 251.5t-199.5 94.5q-125 0 -200.5 -93.5t-75.5 -252.5t75.5 -252.5t200.5 -93.5
q124 0 199.5 94.5t75.5 251.5zM442 1339q0 88 59.5 147.5t147.5 59.5q90 0 148.5 -59.5t58.5 -147.5q0 -87 -58.5 -144.5t-148.5 -57.5q-88 0 -147.5 58t-59.5 144zM725 1341q0 36 -20.5 58t-55.5 22q-32 0 -53 -22.5t-21 -57.5t20.5 -56t53.5 -21q35 0 55.5 21t20.5 56z
M565 1630l135 299h295l-264 -299h-166z" />
    <glyph glyph-name="atilde.ss01" 
d="M152 516q0 247 124 390t347 143q88 0 163.5 -36t118.5 -93v112h213v-1032h-213v123q-38 -60 -115 -99.5t-167 -39.5q-225 0 -349 145q-122 143 -122 387zM924 516q0 157 -75.5 251.5t-199.5 94.5q-125 0 -200.5 -93.5t-75.5 -252.5t75.5 -252.5t200.5 -93.5
q124 0 199.5 94.5t75.5 251.5zM631 1223q-64 37 -113 37q-70 0 -133 -78l-117 92q37 75 101 121.5t135 46.5q46 0 78 -10.5t80 -36.5q40 -22 61.5 -29.5t50.5 -7.5q72 0 133 82l117 -97q-37 -74 -101 -119.5t-135 -45.5q-46 0 -74 9t-83 36z" />
    <glyph glyph-name="ae.ss01" 
d="M45 516q0 267 86.5 400t233.5 133q49 0 93 -21t64 -55v59h191v-71q30 39 82 63.5t108 24.5q154 0 238 -122t84 -345v-109h-510q0 -149 46.5 -231t123.5 -82q59 0 94.5 40.5t71.5 145.5l161 -47q-43 -160 -122 -237.5t-205 -77.5q-107 0 -172 77v-61h-191v63
q-25 -37 -66.5 -58t-90.5 -21q-147 0 -233.5 132.5t-86.5 399.5zM518 518q0 367 -145 367q-75 0 -113.5 -85.5t-38.5 -281.5t38.5 -283.5t113.5 -87.5q73 0 109 89.5t36 281.5zM713 635h327q0 111 -41.5 180.5t-113.5 69.5q-71 0 -121.5 -71t-50.5 -179z" />
    <glyph glyph-name="aeacute.ss01" 
d="M45 516q0 267 86.5 400t233.5 133q49 0 93 -21t64 -55v59h191v-71q30 39 82 63.5t108 24.5q154 0 238 -122t84 -345v-109h-510q0 -149 46.5 -231t123.5 -82q59 0 94.5 40.5t71.5 145.5l161 -47q-43 -160 -122 -237.5t-205 -77.5q-107 0 -172 77v-61h-191v63
q-25 -37 -66.5 -58t-90.5 -21q-147 0 -233.5 132.5t-86.5 399.5zM518 518q0 367 -145 367q-75 0 -113.5 -85.5t-38.5 -281.5t38.5 -283.5t113.5 -87.5q73 0 109 89.5t36 281.5zM713 635h327q0 111 -41.5 180.5t-113.5 69.5q-71 0 -121.5 -71t-50.5 -179zM535 1147l135 299
h295l-265 -299h-165z" />
    <glyph glyph-name="dcaron.ss02" 
d="M29 516q0 247 124 390t347 143q86 0 163 -36t119 -93v530h213v-1450h-213v123q-38 -60 -115 -99.5t-167 -39.5q-224 0 -348 145q-123 144 -123 387zM801 516q0 157 -75.5 251.5t-199.5 94.5q-125 0 -200.5 -93.5t-75.5 -252.5t75.5 -252.5t200.5 -93.5q124 0 199.5 94.5
t75.5 251.5zM1102 1075l-33 45q96 66 119 183q-103 38 -103 124q0 52 36.5 88.5t92.5 36.5q57 0 94.5 -39.5t37.5 -99.5q0 -181 -244 -338z" />
    <glyph glyph-name="gcommaaccent.ss02" 
d="M176 -94q0 133 96 213q-63 57 -63 160q0 69 36.5 125t102.5 85q-67 85 -67 213q0 154 105.5 250.5t264.5 96.5q105 0 197 -50l205 107l90 -154l-162 -82q43 -73 43 -168q0 -160 -106 -253q-107 -93 -267 -93q-91 0 -170 33q-71 -30 -71 -92q0 -38 31.5 -59t88.5 -21h240
q167 0 260.5 -77t93.5 -218q0 -72 -26 -132t-70.5 -101t-105 -69t-129.5 -41t-144 -13q-220 0 -346.5 89t-126.5 251zM821 702q0 77 -47.5 123.5t-122.5 46.5q-73 0 -120.5 -46.5t-47.5 -123.5t47.5 -123.5t120.5 -46.5q75 0 122.5 46.5t47.5 123.5zM909 -94
q0 70 -42.5 100.5t-127.5 30.5h-190q-72 0 -113 8q-55 -40 -55 -127q0 -79 72 -124.5t196 -45.5q122 0 191 41.5t69 116.5zM516 1290q0 179 244 338l35 -43q-49 -32 -80 -80.5t-39 -103.5q100 -38 100 -125q0 -52 -36.5 -88.5t-92.5 -36.5q-57 0 -94 39.5t-37 99.5z" />
    <glyph glyph-name="kcommaaccent.ss02" 
d="M178 0v1450h213v-825l389 407h267l-461 -473l508 -559h-267l-436 494v-494h-213zM496 -573l-33 45q96 66 119 182q-103 38 -103 125q0 52 36.5 88.5t92.5 36.5q57 0 94 -40t37 -100q0 -181 -243 -337z" />
    <glyph glyph-name="lcaron.ss02" 
d="M375 389v858h-275v187h488v-1016q0 -234 186 -234q172 0 207 213l188 -39q-26 -183 -129 -278.5t-266 -95.5q-184 0 -291.5 107t-107.5 298zM868 1094l-32 45q95 65 118 182q-102 38 -102 125q0 52 36.5 88.5t92.5 36.5q57 0 94 -39.5t37 -99.5q0 -181 -244 -338z" />
    <glyph glyph-name="lcommaaccent.ss02" 
d="M375 389v858h-275v187h488v-1016q0 -234 186 -234q172 0 207 213l188 -39q-26 -183 -129 -278.5t-266 -95.5q-184 0 -291.5 107t-107.5 298zM653 -573l-32 45q95 65 118 182q-102 38 -102 125q0 52 36.5 88.5t92.5 36.5q57 0 94 -40t37 -100q0 -180 -244 -337z" />
    <glyph glyph-name="ncommaaccent.ss02" 
d="M199 0v1032h213v-178q58 89 150.5 142t195.5 53q149 0 232 -84t83 -236v-729h-213v672q0 95 -44 142.5t-124 47.5q-120 0 -200 -123t-80 -325v-414h-213zM524 -573l-32 45q95 65 118 182q-102 38 -102 125q0 52 36.5 88.5t92.5 36.5q57 0 94 -40t37 -100
q0 -180 -244 -337z" />
    <glyph glyph-name="rcommaaccent.ss02" 
d="M178 0v1032h213v-174q64 94 161.5 142.5t207.5 48.5q149 0 237 -91.5t95 -257.5h-211q-15 168 -164 168q-135 0 -230.5 -145t-95.5 -379v-344h-213zM174 -573l-33 45q96 66 119 182q-102 38 -102 125q0 52 36.5 88.5t92.5 36.5q57 0 94 -40t37 -100q0 -180 -244 -337z
" />
    <glyph glyph-name="scommaaccent.ss02" 
d="M207 289l196 69q56 -188 259 -188q87 0 140.5 33.5t53.5 89.5t-50.5 85t-191.5 56q-167 34 -253.5 110t-86.5 206q0 131 106 215t253 84q271 0 393 -230l-162 -108q-78 151 -233 151q-67 0 -111.5 -29.5t-44.5 -82.5q0 -51 49 -83t164 -55q194 -39 284.5 -107t90.5 -196
q0 -148 -116 -236.5t-290 -88.5q-165 0 -282.5 77t-167.5 228zM526 -573l-32 45q95 65 118 182q-102 38 -102 125q0 52 36.5 88.5t92.5 36.5q57 0 94 -40t37 -100q0 -180 -244 -337z" />
    <glyph glyph-name="tcaron.ss02" 
d="M391 379v467h-264v186h264v285l213 133v-418h404v-186h-404v-467q0 -209 174 -209q63 0 118 28.5t114 94.5l75 -176q-69 -69 -142.5 -101t-164.5 -32q-190 0 -288.5 99.5t-98.5 295.5zM897 1094l-33 45q96 66 119 182q-102 38 -102 125q0 52 36.5 88.5t92.5 36.5
q57 0 94 -39.5t37 -99.5q0 -181 -244 -338z" />
    <glyph glyph-name="uni021B.ss02" 
d="M391 379v467h-264v186h264v285l213 133v-418h404v-186h-404v-467q0 -209 174 -209q63 0 118 28.5t114 94.5l75 -176q-69 -69 -142.5 -101t-164.5 -32q-190 0 -288.5 99.5t-98.5 295.5zM618 -573l-32 45q96 66 119 182q-103 38 -103 125q0 52 36.5 88.5t92.5 36.5
q57 0 94 -40t37 -100q0 -180 -244 -337z" />
    <glyph glyph-name="f_b" 
d="M678 92v-92h-213v1266h-37q-60 0 -84.5 -33.5t-24.5 -112.5v-88h89v-186h-89v-846h-213v846h-73v186h73v94q0 324 304 324h268v-500q31 43 90 71t121 28q159 0 253.5 -147.5t94.5 -385.5q0 -244 -92 -388t-256 -144q-135 0 -211 108zM1018 516q0 163 -45 254.5t-129 91.5
q-96 0 -140.5 -87t-44.5 -259t44.5 -259t140.5 -87q84 0 129 91.5t45 254.5z" />
    <glyph glyph-name="f_f" 
d="M883 1100v-68h288v-186h-288v-846h-213v846h-271v-846h-213v846h-137v186h137v64q0 176 89.5 265t248.5 89q147 0 248 -78q87 78 236 78q120 0 215 -59l-49 -179q-73 54 -148 54q-68 0 -105.5 -42.5t-37.5 -123.5zM670 1032v64q0 62 12 114q-62 56 -141 56
q-142 0 -142 -166v-68h271z" />
    <glyph glyph-name="f_h" 
d="M106 0v846h-73v186h73v94q0 324 304 324h309v-518q81 117 237 117q128 0 204.5 -84t76.5 -246v-719h-219v715q0 77 -27.5 112t-85.5 35q-91 0 -138.5 -89t-47.5 -251v-522h-213v1266h-78q-60 0 -84.5 -33.5t-24.5 -112.5v-88h97v-186h-97v-846h-213z" />
    <glyph glyph-name="f_i" 
d="M346 0v846h-203v186h203v60q0 177 109 266q109 92 272 92q123 0 207 -36t151 -120l-141 -135q-50 60 -98 83.5t-113 23.5q-81 0 -127.5 -43t-46.5 -123v-68h565v-1032h-213v846h-352v-846h-213z" />
    <glyph glyph-name="f_j" 
d="M713 -434l-60 192q136 42 197 120.5t61 223.5v744h-352v-846h-213v846h-203v186h203v60q0 177 109 266q109 92 272 92q123 0 207 -36t151 -120l-141 -135q-50 60 -98 83.5t-113 23.5q-81 0 -127.5 -43t-46.5 -123v-68h565v-975q0 -207 -123 -327q-121 -124 -288 -164z
" />
    <glyph glyph-name="f_k" 
d="M983 559l250 -559h-229l-201 494v-494h-213v1264h-92q-131 0 -131 -162v-62h133v-186h-133v-854h-213v854h-115v186h115v45q0 182 87 273.5t251 91.5h311v-825l153 407h230z" />
    <glyph glyph-name="f_l" 
d="M289 0v846h-160v186h160v45q0 182 87 273.5t251 91.5h516v-1442h-213v1255h-297q-131 0 -131 -161v-62h215v-186h-215v-846h-213z" />
    <glyph glyph-name="zero.osf" 
d="M1143 516q0 -147 -62 -267.5t-179 -192.5t-267 -72t-267 72t-179 192.5t-62 267.5q0 109 36.5 206.5t102 170t161 114.5t208.5 42t208.5 -42t161 -114.5t102 -170t36.5 -206.5zM338 516q0 -133 70 -231l303 567q-42 10 -76 10q-141 0 -219 -100q-78 -104 -78 -246z
M932 516q0 137 -68 229l-305 -565q45 -10 76 -10q135 0 216 101t81 245z" />
    <glyph glyph-name="one.osf" 
d="M180 0v197h348v526l-286 -168v233l411 244h90v-835h347v-197h-910z" />
    <glyph glyph-name="two.osf" 
d="M258 0v84l340 344l74 76q59 61 81.5 106t22.5 95q0 71 -41.5 110t-111.5 39q-77 0 -125 -44.5t-58 -133.5l-188 33q3 145 111 242.5t260 97.5q169 0 264.5 -93t95.5 -245q0 -99 -49 -172q-46 -73 -150 -177l-163 -165h397v-197h-760z" />
    <glyph glyph-name="three.osf" 
d="M156 -6l209 29q47 -240 258 -240q117 0 187.5 73t70.5 199q0 129 -69.5 203t-186.5 74q-67 0 -127 -29l-86 121l297 407h-486v201h799v-71l-350 -476q36 4 57 4q164 0 266.5 -120t102.5 -312q0 -211 -134 -343t-341 -132q-187 0 -317.5 115t-149.5 297z" />
    <glyph glyph-name="four.osf" 
d="M741 -401v286h-614v101l600 1046h231v-946h185v-201h-185v-286h-217zM401 86h340v621z" />
    <glyph glyph-name="five.osf" 
d="M190 -27l209 39q20 -114 84.5 -171.5t161.5 -57.5q117 0 184.5 77t67.5 210q0 135 -64.5 209.5t-185.5 74.5q-81 0 -156.5 -39t-130.5 -106l-137 29l80 794h719v-201h-539l-43 -356q43 33 108.5 53.5t127.5 20.5q211 0 324.5 -127.5t113.5 -351.5q0 -214 -130 -351
t-339 -137q-183 0 -309 105q-125 104 -146 286z" />
    <glyph glyph-name="six.osf" 
d="M184 451q0 131 72 260l422 739h242l-312 -539q28 7 56 7q196 0 324 -132t128 -335q0 -199 -133 -333t-332 -134t-333 134.5t-134 332.5zM897 451q0 121 -69 193.5t-177 72.5q-110 0 -179 -72t-69 -194q0 -116 71 -191.5t177 -75.5t176 75.5t70 191.5z" />
    <glyph glyph-name="seven.osf" 
d="M258 -401l586 1232h-666v201h932v-90l-627 -1343h-225z" />
    <glyph glyph-name="eight.osf" 
d="M180 420q0 123 53 213.5t148 138.5q-69 44 -109.5 122.5t-40.5 168.5q0 162 114.5 274.5t289.5 112.5t289 -112.5t114 -274.5q0 -91 -40 -169t-109 -122q95 -48 149 -139.5t54 -212.5q0 -196 -133 -316t-324 -120q-125 0 -227.5 52t-165 152.5t-62.5 231.5zM831 1061
q0 92 -53 147.5t-143 55.5q-88 0 -141.5 -56t-53.5 -147t54 -148t141 -57q90 0 143 56.5t53 148.5zM872 420q0 107 -65.5 171t-171.5 64q-104 0 -170 -64t-66 -171t66 -171.5t170 -64.5q105 0 171 64t66 172z" />
    <glyph glyph-name="nine.osf" 
d="M367 -418l311 541q-19 -8 -55 -8q-196 0 -324.5 132t-128.5 335q0 199 133 333t332 134q200 0 333.5 -134t133.5 -333q0 -131 -72 -260l-422 -740h-241zM883 582q0 116 -70.5 191t-177.5 75q-106 0 -176 -75t-70 -191q0 -120 69.5 -193.5t176.5 -73.5q110 0 179 72.5
t69 194.5z" />
    <glyph glyph-name="zero.osf.zero" 
d="M127 516q0 109 36.5 206.5t102 170t161 114.5t208.5 42t208.5 -42t161 -114.5t102 -170t36.5 -206.5q0 -147 -62 -267.5t-179 -192.5t-267 -72t-267 72t-179 192.5t-62 267.5zM932 516q0 143 -80 246q-75 100 -217 100q-141 0 -219 -100q-78 -104 -78 -246
q0 -144 81 -245t216 -101t216 101t81 245z" />
    <glyph glyph-name="zero.zero" 
d="M109 717q0 344 137 536q138 197 389 197t389 -197q137 -192 137 -536t-137 -539q-138 -194 -389 -194t-389 194q-137 195 -137 539zM944 717q0 251 -79 391.5t-230 140.5t-230 -138t-79 -394q0 -251 79 -392t230 -141t230 138.5t79 394.5z" />
    <glyph glyph-name="uni2080.zero" 
d="M309 -8q0 196 86.5 307t239.5 111t239.5 -111t86.5 -307t-86.5 -307t-239.5 -111t-239.5 111t-86.5 307zM797 -8q0 136 -42.5 204t-119.5 68q-76 0 -119 -68t-43 -204q0 -133 43 -202t119 -69q77 0 119.5 67.5t42.5 203.5z" />
    <glyph glyph-name="uni2070.zero" 
d="M309 1024q0 196 86.5 307t239.5 111t239.5 -111t86.5 -307t-86.5 -307t-239.5 -111t-239.5 111t-86.5 307zM797 1024q0 136 -42.5 204t-119.5 68q-76 0 -119 -68t-43 -204q0 -133 43 -201.5t119 -68.5q77 0 119.5 67t42.5 203z" />
    <glyph glyph-name="bullet.case" 
d="M430 717q0 86 60 146.5t145 60.5q86 0 146.5 -60.5t60.5 -146.5q0 -85 -60.5 -145t-146.5 -60q-85 0 -145 60t-60 145z" />
    <glyph glyph-name="exclamdown.case" 
d="M793 1290q0 -66 -46 -111.5t-112 -45.5t-111 45.5t-45 111.5t45 111t111 45t112 -45t46 -111zM547 981h178l53 -981h-284z" />
    <glyph glyph-name="questiondown.case" 
d="M782 1290q0 -66 -45 -110.5t-108 -44.5q-64 0 -109 45t-45 110t45 109.5t109 44.5q66 0 109.5 -44t43.5 -110zM905 750q0 -89 -49 -150t-147 -106l-142 -66q-100 -47 -100 -139q0 -60 42.5 -93.5t113.5 -33.5q70 0 120 43.5t74 120.5l191 -33q-25 -140 -126.5 -224.5
t-256.5 -84.5q-166 0 -264.5 84t-98.5 229q0 90 44 152t136 104l144 65q77 35 107 66t30 74q0 41 -24.5 64.5t-65.5 23.5q-89 0 -133 -109l-156 58q35 103 108.5 158t176.5 55q124 0 200 -70.5t76 -187.5z" />
    <glyph glyph-name="comma.ss02" 
d="M500 -266l-41 53q126 80 147 205q-60 17 -92.5 58.5t-32.5 94.5q0 63 44.5 107.5t111.5 44.5q69 0 111.5 -47t42.5 -121q0 -208 -291 -395z" />
    <glyph glyph-name="semicolon.ss02" 
d="M483 879q0 67 44 111t110 44q68 0 112 -44t44 -111q0 -66 -44.5 -111t-111.5 -45q-66 0 -110 45t-44 111zM502 -266l-41 53q126 80 147 205q-60 17 -92.5 58.5t-32.5 94.5q0 63 44.5 107.5t111.5 44.5q69 0 111.5 -47t42.5 -121q0 -208 -291 -395z" />
    <glyph glyph-name="periodcentered.ss04" 
d="M477 719q0 67 45.5 112.5t112.5 45.5q69 0 114.5 -45t45.5 -113q0 -69 -45.5 -114.5t-114.5 -45.5q-68 0 -113 45.5t-45 114.5z" />
    <glyph glyph-name="colon.ss04" 
d="M477 147q0 67 45.5 112.5t112.5 45.5q69 0 114.5 -45t45.5 -113q0 -69 -45.5 -114t-114.5 -45q-68 0 -113 45t-45 114zM477 854q0 68 45.5 113t112.5 45q69 0 114.5 -45t45.5 -113q0 -69 -45.5 -114.5t-114.5 -45.5q-68 0 -113 45.5t-45 114.5z" />
    <glyph glyph-name="comma.ss04" 
d="M387 -266l127 538h315l-276 -538h-166z" />
    <glyph glyph-name="ellipsis.ss04" 
d="M477 147q0 67 45.5 112.5t112.5 45.5q69 0 114.5 -45t45.5 -113q0 -69 -45.5 -114t-114.5 -45q-68 0 -113 45t-45 114zM883 147q0 68 45 113t112 45q69 0 114.5 -45t45.5 -113q0 -69 -45.5 -114t-114.5 -45q-68 0 -112.5 45t-44.5 114zM63 147q0 67 45.5 112.5
t112.5 45.5q69 0 114.5 -45t45.5 -113q0 -69 -45.5 -114t-114.5 -45q-68 0 -113 45t-45 114z" />
    <glyph glyph-name="period.ss04" 
d="M477 147q0 67 45.5 112.5t112.5 45.5q69 0 114.5 -45t45.5 -113q0 -69 -45.5 -114t-114.5 -45q-68 0 -113 45t-45 114z" />
    <glyph glyph-name="semicolon.ss04" 
d="M477 872q0 68 45.5 113t112.5 45q69 0 114.5 -45t45.5 -113q0 -69 -45.5 -114t-114.5 -45q-68 0 -113 45t-45 114zM356 -266l127 538h316l-277 -538h-166z" />
    <glyph glyph-name="comma.ss02.ss04" 
d="M489 -293l-38 53q142 107 151 230q-61 18 -93 61.5t-32 100.5q0 64 45 108.5t113 44.5q72 0 118 -48t46 -122q0 -123 -83.5 -232.5t-226.5 -195.5z" />
    <glyph glyph-name="semicolon.ss02.ss04" 
d="M477 872q0 68 45.5 113t112.5 45q69 0 114.5 -45t45.5 -113q0 -69 -45.5 -114t-114.5 -45q-68 0 -113 45t-45 114zM489 -293l-38 53q142 107 151 230q-61 18 -93 61.5t-32 100.5q0 64 45 108.5t113 44.5q72 0 118 -48t46 -122q0 -123 -83.5 -232.5t-226.5 -195.5z" />
    <glyph glyph-name="braceleft.case" 
d="M541 209v248q0 94 -35.5 130t-126.5 36v188q91 0 126.5 37t35.5 131v248q0 94 54.5 150.5t145.5 56.5h152v-187h-57q-51 0 -71 -21t-20 -75v-233q0 -98 -34 -140.5t-111 -60.5q76 -14 110.5 -57.5t34.5 -141.5v-233q0 -54 20 -75.5t71 -21.5h57v-188h-152
q-91 0 -145.5 57.5t-54.5 151.5z" />
    <glyph glyph-name="braceright.case" 
d="M729 209q0 -94 -55 -151.5t-146 -57.5h-151v188h57q51 0 70.5 21.5t19.5 75.5v233q0 98 35 141.5t111 57.5q-77 18 -111.5 60.5t-34.5 140.5v233q0 54 -19.5 75t-70.5 21h-57v187h151q91 0 146 -56.5t55 -150.5v-248q0 -94 35.5 -131t126.5 -37v-188q-91 0 -126.5 -36
t-35.5 -130v-248z" />
    <glyph glyph-name="bracketleft.case" 
d="M418 0v1434h436v-185h-231v-1063h231v-186h-436z" />
    <glyph glyph-name="bracketright.case" 
d="M852 1434v-1434h-436v186h231v1063h-231v185h436z" />
    <glyph glyph-name="parenleft.case" 
d="M438 717q0 213 54 381q54 160 149 336h193q-94 -182 -140.5 -351t-46.5 -366q0 -201 45.5 -367.5t138.5 -349.5h-190q-92 168 -149 336q-54 168 -54 381z" />
    <glyph glyph-name="parenright.case" 
d="M831 717q0 -219 -55 -381q-52 -164 -147 -336h-191q94 184 139.5 350.5t45.5 366.5q0 197 -46.5 366t-140.5 351h193q97 -180 147 -336q55 -162 55 -381z" />
    <glyph glyph-name="emdash.case" 
d="M133 625v186h1004v-186h-1004z" />
    <glyph glyph-name="endash.case" 
d="M215 625v186h838v-186h-838z" />
    <glyph glyph-name="hyphen.case" 
d="M279 625v186h714v-186h-714z" />
    <glyph glyph-name="uni00AD.case" 
d="M279 557v186h714v-186h-714z" />
    <glyph glyph-name="guillemotleft.case" 
d="M694 217l-618 426v148l618 428v-224l-403 -278l403 -277v-223zM1196 217l-618 426v148l618 428v-224l-403 -278l403 -277v-223z" />
    <glyph glyph-name="guillemotright.case" 
d="M76 217v223l403 277l-403 278v224l616 -428v-148zM578 217v223l403 277l-403 278v224l616 -428v-148z" />
    <glyph glyph-name="guilsinglleft.case" 
d="M944 217l-616 426v148l616 428v-224l-403 -278l403 -277v-223z" />
    <glyph glyph-name="guilsinglright.case" 
d="M326 217v223l403 277l-403 278v224l618 -428v-148z" />
    <glyph glyph-name="quotedblbase.ss02" 
d="M604 127q0 -221 -297 -393l-37 55q129 82 150 203q-59 13 -92 55.5t-33 95.5q0 64 44 108t112 44q69 0 111 -47t42 -121zM993 127q0 -221 -297 -393l-37 55q129 82 150 203q-59 13 -92 55.5t-33 95.5q0 64 44 108t112 44q69 0 111 -47t42 -121z" />
    <glyph glyph-name="quotedblleft.ss02" 
d="M662 1057q0 222 296 393l37 -55q-128 -81 -149 -203q59 -13 92 -55.5t33 -96.5q0 -64 -44 -107.5t-112 -43.5q-69 0 -111 47t-42 121zM270 1057q0 221 297 393l37 -55q-128 -81 -149 -203q59 -13 92 -55.5t33 -96.5q0 -64 -44 -107.5t-112 -43.5q-69 0 -111.5 47
t-42.5 121z" />
    <glyph glyph-name="quotedblright.ss02" 
d="M604 1282q0 -221 -297 -393l-37 55q129 82 150 203q-59 13 -92 55.5t-33 95.5q0 64 44 108t112 44q69 0 111 -47t42 -121zM993 1282q0 -221 -297 -393l-37 55q129 82 150 203q-59 13 -92 55.5t-33 95.5q0 64 44 108t112 44q69 0 111 -47t42 -121z" />
    <glyph glyph-name="quoteleft.ss02" 
d="M471 1057q0 221 297 393l37 -55q-129 -82 -150 -203q59 -13 92 -55.5t33 -96.5q0 -64 -43.5 -107.5t-111.5 -43.5q-69 0 -111.5 47t-42.5 121z" />
    <glyph glyph-name="quoteright.ss02" 
d="M801 1282q0 -221 -297 -393l-37 55q128 81 149 203q-59 13 -91.5 55t-32.5 96q0 64 43.5 108t111.5 44q69 0 111.5 -47t42.5 -121z" />
    <glyph glyph-name="quotesinglbase.ss02" 
d="M799 127q0 -221 -297 -393l-37 55q128 81 149 203q-59 13 -92 55.5t-33 95.5q0 64 44 108t112 44q69 0 111.5 -47t42.5 -121z" />
    <glyph glyph-name="uni037E.ss02.001" 
d="M494 879q0 67 43.5 111t109.5 44q68 0 112 -44t44 -111q0 -66 -44.5 -111t-111.5 -45q-66 0 -109.5 45t-43.5 111zM512 -266l-41 53q126 80 147 205q-60 17 -92 58.5t-32 94.5q0 63 44.5 107.5t110.5 44.5q69 0 111.5 -47t42.5 -121q0 -208 -291 -395z" />
    <glyph glyph-name="uni037E.ss04" 
d="M487 872q0 68 45.5 113t112.5 45q69 0 114.5 -45t45.5 -113q0 -69 -45.5 -114t-114.5 -45q-68 0 -113 45t-45 114zM500 -293l-39 53q142 107 151 230q-61 18 -93 61.5t-32 100.5q0 64 45 108.5t113 44.5q72 0 118 -48t46 -122q0 -123 -83 -232.5t-226 -195.5z" />
    <glyph glyph-name="arrowup.ss03" 
d="M543 117v805l-281 -275l-129 127l502 502l504 -502l-131 -127l-279 275v-805h-186z" />
    <glyph glyph-name="uni2197.ss03" 
d="M324 279l-131 131l567 569l-393 2v182h712v-710h-184l-2 393z" />
    <glyph glyph-name="arrowright.ss03" 
d="M713 215l-127 129l274 281h-805v186h805l-274 279l127 131l501 -502z" />
    <glyph glyph-name="uni2198.ss03" 
d="M367 279v182h395l-569 571l131 131l571 -569v395h184v-710h-712z" />
    <glyph glyph-name="arrowdown.ss03" 
d="M543 1280h186v-805l279 275l131 -127l-504 -504l-504 504l131 127l281 -275v805z" />
    <glyph glyph-name="uni2199.ss03" 
d="M193 279v708h182l2 -393l571 569l131 -131l-571 -571h395v-182h-710z" />
    <glyph glyph-name="arrowleft.ss03" 
d="M1217 819v-186h-805l274 -281l-127 -131l-504 506l504 502l127 -131l-274 -279h805z" />
    <glyph glyph-name="uni2196.ss03" 
d="M948 279l-569 567l-4 -391h-182v708h710l-2 -182l-391 -2l569 -569z" />
    <glyph glyph-name="caroncomb.alt" horiz-adv-x="0" 
d="M-776 1110l49 367h246l-158 -367h-137z" />
    <glyph glyph-name="uni0308.cap" horiz-adv-x="0" 
d="M-963 1722q0 57 37.5 94t94.5 37t94 -37t37 -94q0 -56 -37 -93.5t-94 -37.5t-94.5 37.5t-37.5 93.5zM-563 1722q0 57 37 94t94 37t94 -37t37 -94q0 -56 -37 -93.5t-94 -37.5t-94 37.5t-37 93.5z" />
    <glyph glyph-name="uni0307.cap" horiz-adv-x="0" 
d="M-786 1729q0 65 44 109t107 44q66 0 110 -43.5t44 -109.5q0 -63 -44.5 -107.5t-109.5 -44.5q-63 0 -107 44.5t-44 107.5z" />
    <glyph glyph-name="gravecomb.cap" horiz-adv-x="0" 
d="M-584 1548l-266 299h297l133 -299h-164z" />
    <glyph glyph-name="acutecomb.cap" horiz-adv-x="0" 
d="M-850 1548l135 299h295l-264 -299h-166z" />
    <glyph glyph-name="uni030B.cap" horiz-adv-x="0" 
d="M-1075 1548l135 299h295l-264 -299h-166zM-674 1548l135 299h297l-266 -299h-166z" />
    <glyph glyph-name="uni0302.cap" horiz-adv-x="0" 
d="M-997 1548l331 334h62l334 -334h-219l-146 148l-145 -148h-217z" />
    <glyph glyph-name="uni030C.cap" horiz-adv-x="0" 
d="M-666 1548l-331 334h217l145 -147l146 147h219l-334 -334h-62z" />
    <glyph glyph-name="uni0306.cap" horiz-adv-x="0" 
d="M-868 1835h161q0 -32 20 -53t52 -21t53 21t21 53h162q0 -94 -66.5 -158.5t-169.5 -64.5q-101 0 -167 64.5t-66 158.5z" />
    <glyph glyph-name="uni030A.cap" horiz-adv-x="0" 
d="M-842 1741q0 88 59.5 147.5t147.5 59.5q90 0 148.5 -59.5t58.5 -147.5q0 -87 -58.5 -145t-148.5 -58q-88 0 -147.5 58.5t-59.5 144.5zM-559 1743q0 36 -20.5 58t-55.5 22q-32 0 -53 -22.5t-21 -57.5t20.5 -56.5t53.5 -21.5q35 0 55.5 21.5t20.5 56.5z" />
    <glyph glyph-name="tildecomb.cap" horiz-adv-x="0" 
d="M-653 1624q-64 37 -113 37q-70 0 -133 -78l-117 92q37 75 101 121.5t135 46.5q46 0 77.5 -10.5t79.5 -36.5q39 -22 61.5 -29.5t51.5 -7.5q72 0 133 82l117 -96q-37 -75 -101 -120.5t-135 -45.5q-46 0 -74 9t-83 36z" />
    <glyph glyph-name="uni0304.cap" horiz-adv-x="0" 
d="M-901 1624v176h534v-176h-534z" />
    <glyph glyph-name="uni0327.cap" horiz-adv-x="0" 
d="M-594 -514l-250 115l256 276h164z" />
    <glyph glyph-name="uni0328.cap" horiz-adv-x="0" 
d="M-799 -197q0 55 31.5 107.5t87.5 89.5h166q-123 -102 -123 -166q0 -29 16 -44t43 -15q36 0 70 24l39 -145q-59 -33 -133 -33q-89 0 -143 49t-54 133z" />
    <glyph glyph-name="uni0335.cap" horiz-adv-x="0" 
d="M-1001 623v188h735v-188h-735z" />
    <glyph glyph-name="uni0337.cap" horiz-adv-x="0" 
d="M-920 451l-88 178l656 338l92 -176z" />
    <glyph glyph-name="uni0338.cap" horiz-adv-x="0" 
d="M-1112 -68l-150 111l1131 1458l147 -110z" />
    <glyph glyph-name="caroncomb.alt.ss02" horiz-adv-x="0" 
d="M-741 1094l-33 45q96 66 119 182q-103 38 -103 125q0 52 36.5 88.5t92.5 36.5q57 0 94 -39.5t37 -99.5q0 -182 -243 -338z" />
    <glyph glyph-name="uni0312.ss02" horiz-adv-x="0" 
d="M-774 1290q0 179 244 338l34 -43q-49 -32 -79.5 -80.5t-38.5 -103.5q100 -38 100 -125q0 -52 -36.5 -88.5t-92.5 -36.5q-57 0 -94 39.5t-37 99.5z" />
    <glyph glyph-name="uni0326.ss02" horiz-adv-x="0" 
d="M-745 -573l-33 45q96 66 119 182q-103 38 -103 125q0 52 36.5 88.5t92.5 36.5q57 0 94 -40t37 -100q0 -181 -243 -337z" />
    <glyph glyph-name="brevecombcy" horiz-adv-x="0" 
d="M-868 1434h161q0 -32 20 -53t52 -21t53 21t21 53h162q0 -94 -66.5 -159t-169.5 -65q-101 0 -167 65t-66 159z" />
    <glyph glyph-name="tonoscomb" 
d="M420 1147l88 299h291l-213 -299h-166z" />
    <glyph glyph-name="dieresistonoscomb" 
d="M483 1147l88 299h248l-198 -299h-138zM227 1292q0 47 33 81t80 34q51 0 84 -32.5t33 -82.5q0 -48 -33 -80t-84 -32q-47 0 -80 32.5t-33 79.5zM813 1292q0 47 33 81t80 34q51 0 83.5 -32.5t32.5 -82.5q0 -48 -32.5 -80t-83.5 -32q-47 0 -80 32.5t-33 79.5z" />
  </font>
</defs>
</svg>
