<?xml version="1.0" standalone="no"?>
<!DOCTYPE svg PUBLIC "-//W3C//DTD SVG 1.1//EN" "http://www.w3.org/Graphics/SVG/1.1/DTD/svg11.dtd" >
<svg xmlns="http://www.w3.org/2000/svg" xmlns:xlink="http://www.w3.org/1999/xlink" version="1.1">
<metadata>
Created by FontForge 20170731 at Sun Feb  7 23:23:38 2021
 By Aleksey,,,
Copyright 1990 as an unpublished work by Bitstream Inc.  All rights reserved.  Confidential.
</metadata>
<defs>
<font id="CheltenhamBT-BoldHeadline" horiz-adv-x="1024" >
  <font-face 
    font-family="Cheltenham Headline"
    font-weight="700"
    font-stretch="normal"
    units-per-em="2048"
    panose-1="0 0 0 0 0 0 0 0 0 0"
    ascent="1638"
    descent="-410"
    x-height="868"
    cap-height="1518"
    bbox="-342 -483 2410 1972"
    underline-thickness="155"
    underline-position="-351"
    unicode-range="U+0020-FB02"
  />
<missing-glyph horiz-adv-x="563" 
 />
    <glyph glyph-name=".notdef" horiz-adv-x="563" 
 />
    <glyph glyph-name=".null" horiz-adv-x="0" 
 />
    <glyph glyph-name="nonmarkingreturn" horiz-adv-x="682" 
 />
    <glyph glyph-name="space" unicode=" " horiz-adv-x="563" 
 />
    <glyph glyph-name="exclam" unicode="!" horiz-adv-x="612" 
d="M135 147q0 71 49 120.5t121 49.5q71 0 121.5 -50t50.5 -120q0 -72 -50.5 -122t-121.5 -50q-70 0 -120 50.5t-50 121.5zM258 479q-15 215 -43 414.5t-48 311.5t-20 145q0 196 158 196t158 -196q0 -33 -19.5 -145t-47 -311.5t-42.5 -414.5h-96z" />
    <glyph glyph-name="quotedbl" unicode="&#x22;" horiz-adv-x="706" 
d="M203 852h-41l-80 461q-2 14 -2 37q0 52 28 83t74 31q48 0 75.5 -29t27.5 -81q0 -27 -2 -41zM543 852h-41l-80 461q-4 24 -4 37q0 53 28 83.5t76 30.5t76.5 -29t28.5 -81q0 -13 -4 -41z" />
    <glyph glyph-name="numbersign" unicode="#" horiz-adv-x="1574" 
d="M711 1464h215l-148 -415h254l150 415h213l-148 -415h283l-74 -197h-278l-88 -250h292l-71 -196h-291l-148 -416h-215l148 416h-254l-150 -416h-215l148 416h-289l74 196h287l88 250h-304l74 197h299zM705 852l-91 -250h265l88 250h-262z" />
    <glyph glyph-name="dollar" unicode="$" horiz-adv-x="1128" 
d="M479 -12q-187 6 -294 95t-107 228q0 71 39 113.5t102 42.5q65 0 103 -38.5t38 -104.5q0 -88 -69 -131q71 -63 188 -66v502q-176 84 -258 185t-82 239q0 144 92 245t248 123v150h154v-150q152 -7 247 -88.5t95 -189.5q0 -63 -36 -100t-95 -37q-60 0 -95.5 36t-35.5 95
t43 102q-35 35 -123 45v-420q212 -102 303.5 -207.5t91.5 -269.5q0 -165 -108 -276t-287 -123v-271h-154v271zM479 928v358q-82 -22 -118.5 -61t-36.5 -107q0 -63 37.5 -109t117.5 -81zM635 131q91 15 142.5 71.5t51.5 137.5q0 73 -45 124.5t-149 108.5v-442z" />
    <glyph glyph-name="percent" unicode="%" horiz-adv-x="1689" 
d="M57 997q0 193 93.5 311.5t244.5 118.5q150 0 243 -118t93 -312t-93 -312t-243 -118q-151 0 -244.5 118.5t-93.5 311.5zM393 1313q-67 0 -97 -70.5t-30 -222.5q0 -183 27.5 -260.5t101.5 -77.5q70 0 98.5 74t28.5 241q0 168 -28.5 242t-100.5 74zM1176 1427h141
l-803 -1452h-141zM958 406q0 193 93.5 311.5t244.5 118.5q150 0 243 -118t93 -312t-93 -312.5t-243 -118.5q-151 0 -244.5 119t-93.5 312zM1294 721q-67 0 -97 -70.5t-30 -222.5q0 -183 27.5 -260.5t101.5 -77.5q70 0 98.5 74.5t28.5 241.5q0 168 -28.5 241.5t-100.5 73.5z
" />
    <glyph glyph-name="ampersand" unicode="&#x26;" horiz-adv-x="1673" 
d="M946 121q-174 -146 -403 -146q-221 0 -359.5 119.5t-138.5 308.5q0 117 45.5 203t134 152t246.5 141q-68 166 -68 289q0 153 114.5 254.5t293.5 101.5q157 0 251.5 -82.5t94.5 -212.5q0 -120 -82 -199.5t-280 -172.5q103 -251 256 -463q125 125 125 207q0 31 -12 45
t-42 26l-35 15q-26 11 -36.5 25.5t-10.5 41.5v70h535v-80q0 -23 -16.5 -36t-39.5 -19t-58 -23.5t-62 -44.5q-31 -30 -108 -149t-142 -199q59 -68 120 -99.5t138 -31.5q81 0 170 39l45 -78q6 -12 6 -27q0 -48 -92 -84.5t-236 -36.5q-105 0 -188.5 34.5t-165.5 111.5zM834 238
q-90 112 -159 234.5t-145 283.5q-104 -56 -149 -113.5t-45 -144.5q0 -132 88 -224t223 -92q92 0 187 56zM735 1024q108 47 157.5 98t49.5 123q0 62 -36.5 101.5t-96.5 39.5q-61 0 -97 -39t-36 -104q0 -80 59 -219z" />
    <glyph glyph-name="quotesingle" unicode="'" horiz-adv-x="364" 
d="M203 852h-41l-80 461q-4 24 -4 37q0 53 28 83.5t76 30.5t75.5 -29t27.5 -81q0 -27 -2 -41z" />
    <glyph glyph-name="parenleft" unicode="(" horiz-adv-x="739" 
d="M608 -381l-61 64q-228 241 -340.5 458t-112.5 441t112.5 442.5t340.5 458.5l61 63l41 -35l-22 -30q-131 -185 -175 -392t-44 -507q0 -146 8 -255.5t30.5 -224.5t67 -217.5t113.5 -199.5l22 -31z" />
    <glyph glyph-name="parenright" unicode=")" horiz-adv-x="739" 
d="M131 1546l62 -63q228 -240 341 -458.5t113 -442.5t-113 -441t-341 -458l-62 -64l-41 35l23 31q69 97 113.5 199.5t67 217.5t30.5 224.5t8 255.5q0 300 -44 507t-175 392l-23 30z" />
    <glyph glyph-name="asterisk" unicode="*" 
d="M543 1044v-24q0 -58 18.5 -108t36.5 -88.5t18 -67.5q0 -45 -28.5 -74t-75.5 -29t-75.5 29t-28.5 74q0 29 18 67.5t36.5 88.5t18.5 108v24q-51 -30 -80 -54.5t-55 -65.5q-2 -3 -10 -15.5t-10.5 -16l-10 -14t-11 -14.5t-11.5 -12t-13 -11.5t-13.5 -8.5t-16 -7t-17.5 -4
t-20 -2q-38 0 -70 35t-32 78t32 72t82 32q5 0 29 1.5t34 2.5t33.5 5t40.5 10t41 17t48 26q-31 19 -59 31.5t-55 18t-40.5 7.5t-41 2h-30.5q-47 3 -80.5 34t-33.5 73q0 43 31 76.5t71 33.5q33 0 57 -15.5t42.5 -41.5t38 -54.5t53 -60.5t77.5 -53v25q0 46 -11.5 88t-26 67.5
t-26 55t-11.5 53.5q0 45 29.5 73.5t76.5 28.5t75.5 -28.5t28.5 -73.5q0 -29 -18 -67.5t-36.5 -88.5t-18.5 -108v-25q50 30 79.5 55t55.5 66q1 1 10 15t10.5 16.5t10 14t11.5 14t11 12t13 11.5t13.5 8t16 7.5l17.5 3.5t20 2q38 0 69 -34.5t31 -77.5t-32 -72.5t-82 -32.5
q-2 0 -34 -1.5t-44 -3.5t-40.5 -8t-54 -18t-53.5 -30q31 -19 58.5 -32t56 -18t41 -7t42 -2.5t30.5 -0.5q46 -3 79 -33.5t33 -72.5q0 -43 -30.5 -77t-69.5 -34q-33 0 -57 15.5t-42.5 41.5t-38 54.5t-53 60.5t-77.5 53z" />
    <glyph glyph-name="plus" unicode="+" horiz-adv-x="1705" 
d="M752 1221h202v-510h498v-199h-498v-512h-202v512h-498v199h498v510z" />
    <glyph glyph-name="comma" unicode="," horiz-adv-x="516" 
d="M229 -18q-68 6 -106.5 49.5t-38.5 113.5q0 71 48.5 120.5t121.5 49.5t120.5 -53.5t47.5 -142.5q0 -139 -75 -256t-222 -201l-53 86q142 112 157 234z" />
    <glyph glyph-name="hyphen" unicode="-" horiz-adv-x="681" 
d="M90 319v228h504v-228h-504z" />
    <glyph glyph-name="period" unicode="." horiz-adv-x="516" 
d="M88 133q0 71 49 120.5t121 49.5q70 0 120 -49.5t50 -120.5q0 -72 -49.5 -122t-120.5 -50q-70 0 -120 50.5t-50 121.5z" />
    <glyph glyph-name="slash" unicode="/" horiz-adv-x="702" 
d="M-33 -190l578 1730h145l-579 -1730h-144z" />
    <glyph glyph-name="zero" unicode="0" horiz-adv-x="1128" 
d="M66 682q0 344 140 544.5t355 200.5q217 0 358.5 -199.5t141.5 -527.5q0 -166 -39 -304t-106.5 -229.5t-157.5 -141.5t-193 -50q-213 0 -356 196.5t-143 510.5zM346 733q0 -323 45.5 -466.5t173.5 -143.5q52 0 90 25t62.5 71t39 122.5t20 167t5.5 216.5q0 291 -49 424
t-170 133q-122 0 -169.5 -130t-47.5 -419z" />
    <glyph glyph-name="one" unicode="1" horiz-adv-x="1128" 
d="M307 0v84q0 19 14 36.5t37 24.5l39 11q32 9 43 23.5t11 49.5v949h-215v71q0 57 59 80l240 98h178v-1198q0 -35 11 -49.5t44 -23.5l37 -11q23 -7 37 -24.5t14 -36.5v-84h-549z" />
    <glyph glyph-name="two" unicode="2" horiz-adv-x="1128" 
d="M47 0v113q0 54 20.5 90t86.5 104l196 205q93 96 148 158.5t105.5 133t72.5 132t22 123.5q0 95 -60 155t-157 60q-86 0 -151 -41q59 -59 59 -143q0 -68 -43.5 -109t-112.5 -41q-66 0 -106.5 47.5t-40.5 124.5q0 130 121 221.5t315 91.5q207 0 332 -104t125 -270
q0 -31 -5 -60.5t-11 -53.5t-21 -52t-25 -47t-34 -47.5t-37 -43.5t-44 -45.5t-45 -44t-51.5 -48t-52.5 -48.5l-323 -305h352q66 0 96 14t53 56l21 32q8 16 12.5 22t14.5 9.5t28 3.5h76l-22 -393h-914z" />
    <glyph glyph-name="three" unicode="3" horiz-adv-x="1128" 
d="M307 164q70 -45 158 -45q121 0 188.5 76t67.5 208q0 135 -87.5 213t-246.5 78h-12v142q142 0 221.5 64t79.5 175q0 98 -54.5 156.5t-142.5 58.5q-55 0 -114 -30q12 -54 12 -76q0 -57 -35.5 -92t-93.5 -35q-61 0 -96 36t-35 95q0 101 106 169t277 68q207 0 324.5 -92
t117.5 -241q0 -253 -330 -318q190 -32 291 -132.5t101 -254.5q0 -187 -138.5 -298.5t-380.5 -111.5q-197 0 -313.5 80t-116.5 203q0 68 42 110t106 42q62 0 100.5 -40t38.5 -110q0 -57 -35 -98z" />
    <glyph glyph-name="four" unicode="4" horiz-adv-x="1128" 
d="M502 0v84q0 20 12 37.5t29 23.5l28 11q27 10 35 24.5t8 48.5v125h-577v203l653 870h176v-911h207v-162h-207v-125q0 -34 8.5 -48.5t36.5 -24.5l31 -11q19 -6 31 -23.5t12 -37.5v-84h-483zM621 516v426v33q0 72 6 131q-54 -87 -133 -191l-195 -262q-44 -57 -129 -145
q76 8 182 8h269z" />
    <glyph glyph-name="five" unicode="5" horiz-adv-x="1128" 
d="M307 168q62 -49 158 -49q137 0 215 80.5t78 218.5q0 136 -78 215.5t-209 79.5q-134 0 -246 -92l-112 69l61 713h535q30 0 52.5 9t35 22t22.5 26t22.5 22t28.5 9h66l-35 -342h-596l-24 -262q-3 -39 -15 -90q117 106 318 106q199 0 325.5 -127t126.5 -327
q0 -208 -146.5 -340t-379.5 -132q-211 0 -330 80.5t-119 206.5q0 71 41 114.5t105 43.5q62 0 101.5 -42.5t39.5 -109.5q0 -49 -41 -102z" />
    <glyph glyph-name="six" unicode="6" horiz-adv-x="1128" 
d="M360 748q132 126 299 126q164 0 269.5 -117t105.5 -302q0 -217 -122 -347.5t-322 -130.5q-225 0 -364.5 188t-139.5 488q0 172 49.5 319t133 245.5t195.5 154t236 55.5q136 0 218.5 -69t82.5 -174q0 -72 -40 -118t-103 -46q-69 0 -113.5 46.5t-44.5 115.5q0 41 23 92
q-24 6 -51 6q-129 0 -218.5 -141t-93.5 -391zM369 586q3 -467 206 -467q88 0 137.5 80t49.5 227q0 131 -46.5 198.5t-133.5 67.5q-53 0 -111 -27.5t-102 -78.5z" />
    <glyph glyph-name="seven" unicode="7" horiz-adv-x="1128" 
d="M817 1145h-401q-81 0 -123 -47q-10 -11 -23.5 -35t-27 -37.5t-33.5 -13.5h-57l24 407q134 -16 246 -16h612v-139q-350 -571 -375 -936q-11 -164 -17 -197q-19 -110 -83 -140q-31 -14 -76 -14q-147 0 -147 170q0 253 481 998z" />
    <glyph glyph-name="eight" unicode="8" horiz-adv-x="1128" 
d="M328 705q-93 69 -135.5 148t-42.5 183q0 164 125.5 279t310.5 115q163 0 272 -93.5t109 -230.5q0 -104 -57 -179.5t-175 -129.5q166 -79 242 -175t76 -233q0 -193 -140 -303.5t-385 -110.5q-219 0 -346 101t-127 270q0 212 273 359zM602 854q162 92 162 229
q0 87 -55.5 141t-145.5 54q-89 0 -146 -49t-57 -125q0 -81 58 -138.5t184 -111.5zM442 635q-163 -120 -163 -275q0 -102 70 -167.5t192 -65.5q124 0 196 56t72 136q0 38 -12.5 68t-32.5 51.5t-56.5 45.5t-71 42t-91.5 49t-103 60z" />
    <glyph glyph-name="nine" unicode="9" horiz-adv-x="1128" 
d="M762 655q-130 -127 -305 -127q-164 0 -270.5 119t-106.5 303q0 206 125.5 340.5t326.5 134.5q228 0 366 -187.5t138 -504.5q0 -223 -82 -397.5t-222 -268.5t-312 -94q-134 0 -216.5 71t-82.5 177q0 71 44 114.5t111 43.5q66 0 108 -44t42 -116q0 -43 -27 -90q24 -6 50 -6
q129 0 219 141.5t94 390.5zM754 817q-3 467 -207 467q-89 0 -139 -80.5t-50 -226.5q0 -130 48 -198t135 -68q53 0 111 27.5t102 78.5z" />
    <glyph glyph-name="colon" unicode=":" horiz-adv-x="563" 
d="M113 721q0 71 49 120.5t121 49.5q71 0 121.5 -50t50.5 -120q0 -71 -50.5 -120.5t-121.5 -49.5t-120.5 49.5t-49.5 120.5zM113 133q0 71 49 120.5t121 49.5q71 0 121.5 -50t50.5 -120q0 -72 -50.5 -122t-121.5 -50q-70 0 -120 50.5t-50 121.5z" />
    <glyph glyph-name="semicolon" unicode=";" horiz-adv-x="563" 
d="M258 -18q-68 6 -106.5 49.5t-38.5 113.5q0 71 48.5 120.5t121.5 49.5q74 0 123 -53.5t49 -142.5q0 -138 -77 -255t-224 -202l-54 86q143 113 158 234zM113 733q0 71 49 120.5t121 49.5q71 0 121.5 -50t50.5 -120q0 -71 -50.5 -120.5t-121.5 -49.5t-120.5 49.5
t-49.5 120.5z" />
    <glyph glyph-name="less" unicode="&#x3c;" horiz-adv-x="1705" 
d="M1442 1194v-219l-893 -365l893 -364v-219l-1178 485v199z" />
    <glyph glyph-name="equal" unicode="=" horiz-adv-x="1705" 
d="M254 926h1198v-199h-1198v199zM254 496h1198v-199h-1198v199z" />
    <glyph glyph-name="greater" unicode="&#x3e;" horiz-adv-x="1705" 
d="M264 1194l1178 -483v-199l-1178 -485v219l895 364l-895 365v219z" />
    <glyph glyph-name="question" unicode="?" horiz-adv-x="882" 
d="M225 147q0 71 50 120.5t122 49.5q71 0 120.5 -49.5t49.5 -120.5q0 -72 -49.5 -122t-120.5 -50t-121.5 50.5t-50.5 121.5zM336 469q0 8 -1 25.5t-1 25.5q0 158 55 271q9 18 42 83t43.5 89t30 72t26 86t6.5 77q0 85 -43.5 136.5t-110.5 51.5q-37 0 -64 -16q33 -53 33 -104
q0 -60 -44 -103t-109 -43q-59 0 -101.5 45.5t-42.5 116.5q0 96 110.5 180t266.5 84q169 0 273 -100t104 -242q0 -22 -3.5 -43.5t-7 -39t-14 -40.5t-16 -36t-22.5 -38t-23.5 -35.5t-29.5 -38.5t-29.5 -36t-33.5 -40t-34 -40q-71 -81 -104 -151.5t-33 -171.5v-25h-123z" />
    <glyph glyph-name="at" unicode="@" horiz-adv-x="2019" 
d="M1118 948q-64 0 -114.5 -45.5t-98.5 -142.5q-117 -231 -117 -398q0 -81 34.5 -126.5t92.5 -45.5q129 0 240 244q86 196 86 348q0 79 -32 122.5t-91 43.5zM1176 319q-121 -196 -295 -196q-141 0 -222 91t-81 251q0 236 194 418q140 131 309 131q188 0 222 -183l49 164h190
l-174 -618q-16 -66 -16 -94q0 -47 20.5 -74t54.5 -27q30 0 82.5 24t100.5 64q103 88 158 217t55 285q0 182 -86 322.5t-240 217.5t-352 77q-279 0 -490 -150q-174 -122 -267 -309.5t-93 -415.5q0 -222 95.5 -387.5t271 -253.5t409.5 -88q325 0 627 207l39 -51
q-303 -226 -666 -226q-190 0 -350 47t-275 132q-151 113 -232 278t-81 363q0 316 205 563q145 174 346.5 267t435.5 93q350 0 559 -189t209 -503q0 -162 -59 -300.5t-170 -238.5q-120 -108 -264 -108q-97 0 -154.5 52t-64.5 148z" />
    <glyph glyph-name="A" unicode="A" horiz-adv-x="1406" 
d="M-25 0v78q0 39 31 53l47 21q53 21 111 159l391 922l-57 123q-4 6 -4 20t11 23t36 22t41 25l43 33q16 12 32.5 29.5t26 26.5t18.5 9q11 0 16.5 -6t12.5 -20l576 -1307q21 -47 49 -61l30 -15q30 -14 36 -26q5 -9 5 -23v-86h-534v78q0 38 31 53l47 25q7 3 13.5 13t6.5 19
q0 26 -12 54l-57 131h-557l-56 -129q-14 -31 -14 -49q0 -13 8 -25.5t19 -17.5l32 -17q30 -15 36 -25q5 -9 5 -22v-88h-420zM434 535h422l-213 503z" />
    <glyph glyph-name="B" unicode="B" horiz-adv-x="1384" 
d="M481 877h166q127 0 197.5 66t70.5 183q0 108 -66 171t-183 63h-185v-483zM80 0v74q0 47 41 61l31 12q27 10 35 25t8 49v1075q0 34 -8 49t-35 25l-31 12q-41 14 -41 62v74h618q266 0 392.5 -85t126.5 -280q0 -144 -82 -229.5t-252 -122.5q198 -34 301.5 -134t103.5 -255
q0 -249 -227 -357q-74 -35 -166 -45t-238 -10h-577zM481 162h164q162 0 250 70t88 198q0 139 -92.5 215t-267.5 76h-142v-559z" />
    <glyph glyph-name="C" unicode="C" horiz-adv-x="1374" 
d="M1243 381l62 -66q10 -10 10 -34q0 -31 -21 -57.5t-73 -73.5q-102 -90 -214 -133.5t-249 -43.5q-275 0 -455 183q-227 235 -227 577q0 323 192 563q96 119 221 182.5t259 63.5q74 0 141.5 -17t105.5 -37t69.5 -37t43.5 -17q10 0 22 4l25 10q40 14 53 14h52v-399h-62
q-10 0 -17.5 1t-13 2.5t-11 6.5t-8.5 7.5t-8.5 12t-8.5 15t-10.5 20t-12.5 23.5q-121 223 -311 223q-169 0 -285.5 -170.5t-116.5 -453.5q0 -271 116.5 -430.5t303.5 -159.5q109 0 211.5 54.5t216.5 166.5z" />
    <glyph glyph-name="D" unicode="D" horiz-adv-x="1519" 
d="M80 0v74q0 47 41 61l31 12q27 10 35 25t8 49v1075q0 34 -8 49t-35 25l-31 12q-41 14 -41 62v74h465q179 0 307 -21.5t229 -77.5q169 -94 265 -269.5t96 -395.5q0 -182 -75 -340.5t-208 -259.5q-117 -90 -257 -122t-343 -32h-479zM494 162q25 -2 71 -2q280 0 421.5 151.5
t141.5 450.5q0 290 -136.5 443t-391.5 153q-8 0 -106 -4v-1192z" />
    <glyph glyph-name="E" unicode="E" horiz-adv-x="1261" 
d="M80 0v74q0 47 41 61l31 12q27 10 35 25t8 49v1075q0 34 -8 49t-35 25l-31 12q-41 14 -41 62v74h827q76 0 221 12v-367h-53q-35 0 -51.5 12t-30.5 44q-33 76 -80.5 106.5t-138.5 30.5h-278v-500h133q72 0 98 37l29 39q2 3 7 10t7 9.5t6.5 8t7 7.5t7.5 5.5t9 5t9.5 2.5
t11.5 1h68v-412h-68q-16 0 -28.5 7.5t-17 13.5l-19.5 26l-29 41q-26 37 -98 37h-133v-530h393q57 0 104 31t72 86q5 10 15.5 35.5t14.5 32.5t14 19.5t21.5 15.5t28.5 3h64v-387h-1143z" />
    <glyph glyph-name="F" unicode="F" horiz-adv-x="1228" 
d="M80 0v74q0 47 41 61l31 12q27 10 35 25t8 49v1075q0 33 -6.5 48.5t-30.5 25.5l-27 12q-35 16 -35 62v74h871q89 0 221 14v-371h-49q-37 0 -54 11.5t-32 46.5q-35 77 -80.5 107t-136.5 30h-340v-500h180q72 0 98 37l29 39q2 3 7 10t7 9.5t6.5 8t7 7.5t7.5 5.5t9 5t9.5 2.5
t11.5 1h68v-412h-68q-16 0 -28.5 7.5t-17 13.5l-19.5 26l-29 41q-26 37 -98 37h-180v-473q0 -33 9 -48.5t36 -25.5l28 -12q43 -15 43 -61v-74h-532z" />
    <glyph glyph-name="G" unicode="G" horiz-adv-x="1531" 
d="M1516 115q-399 -140 -650 -140q-168 0 -295 40.5t-229 131.5q-266 235 -266 623q0 145 52 286.5t148 256.5q101 120 225 176.5t281 56.5q74 0 139.5 -16t101.5 -35t67 -35t45 -16t20 2l29 12q43 15 55 15h39v-400h-59q-7 0 -13.5 0.5t-11 1t-9.5 3.5t-8 3.5t-7 5.5t-6 7
t-6.5 9.5t-6.5 10t-7.5 13t-8.5 14.5q-137 248 -340 248q-183 0 -292.5 -164t-109.5 -451q0 -296 125.5 -468.5t331.5 -172.5q122 0 188 61t66 177v43q0 32 -12 51.5t-41 32.5l-35 16q-43 21 -43 68v75h422q-17 -119 -17 -202q0 -91 14.5 -136.5t59.5 -66.5l33 -14
q19 -9 25 -19.5t6 -30.5v-73z" />
    <glyph glyph-name="H" unicode="H" horiz-adv-x="1622" 
d="M80 0v74q0 47 41 61l31 12q27 10 35 25t8 49v1075q0 34 -8 49t-35 25l-31 12q-41 14 -41 62v74h532v-74q0 -47 -43 -62l-28 -12q-27 -10 -36 -25.5t-9 -48.5v-434h630v434q0 34 -8 49t-35 25l-30 12q-41 14 -41 62v74h528v-74q0 -48 -41 -62l-29 -12q-27 -10 -36 -25.5
t-9 -48.5v-1075q0 -33 9 -48.5t36 -25.5l29 -12q41 -14 41 -61v-74h-528v74q0 47 41 61l30 12q27 10 35 25t8 49v475h-630v-475q0 -33 9 -48.5t36 -25.5l28 -12q43 -15 43 -61v-74h-532z" />
    <glyph glyph-name="I" unicode="I" horiz-adv-x="716" 
d="M90 0v74q0 47 41 61l29 12q27 10 36 25.5t9 48.5v1075q0 33 -9 48.5t-36 25.5l-29 12q-41 14 -41 62v74h537v-74q0 -47 -43 -62l-29 -12q-27 -10 -36 -25.5t-9 -48.5v-1075q0 -33 9 -48.5t36 -25.5l29 -12q43 -15 43 -61v-74h-537z" />
    <glyph glyph-name="J" unicode="J" horiz-adv-x="937" 
d="M219 162q43 -27 84 -27q164 0 164 250v911q0 33 -9 48.5t-36 25.5l-29 12q-41 14 -41 62v74h512v-74q0 -46 -35 -62l-24 -12q-23 -10 -30 -25.5t-7 -48.5v-704v-25q0 -96 -3 -149.5t-20.5 -123.5t-52.5 -126q-58 -93 -152 -144t-214 -51q-161 0 -258 77t-97 196
q0 72 42.5 116t105.5 44q66 0 106.5 -40.5t40.5 -105.5q0 -57 -47 -98z" />
    <glyph glyph-name="K" unicode="K" horiz-adv-x="1456" 
d="M80 0v74q0 47 41 61l31 12q27 10 35 25t8 49v1075q0 34 -8 49t-35 25l-31 12q-41 14 -41 62v74h532v-74q0 -47 -43 -62l-28 -12q-27 -10 -36 -25.5t-9 -48.5v-383l426 379q34 31 34 51q0 23 -26 33l-23 8q-10 3 -19 15.5t-9 23.5v95h524v-84q0 -39 -37 -45l-35 -7
q-55 -11 -114 -61l-508 -440l604 -617q45 -46 92 -80.5t72.5 -48t42 -30t16.5 -37.5v-68h-625v66q0 41 21 53l47 24q16 8 16 33q0 18 -22 43l-477 498v-496q0 -33 9 -48.5t36 -25.5l28 -12q43 -15 43 -61v-74h-532z" />
    <glyph glyph-name="L" unicode="L" horiz-adv-x="1236" 
d="M80 0v74q0 47 41 61l31 12q27 10 35 25t8 49v1075q0 34 -8 49t-35 25l-31 12q-41 14 -41 62v74h551v-74q0 -47 -49 -62l-35 -12q-29 -9 -40 -24.5t-11 -49.5v-1132h393q57 0 104 31t72 86q5 10 15.5 35.5t14.5 32.5t14 19.5t21.5 15.5t28.5 3h64v-395q-226 8 -285 8h-858
z" />
    <glyph glyph-name="M" unicode="M" horiz-adv-x="1839" 
d="M80 0v74q0 47 41 61l31 12q27 10 35 25t8 49v1075q0 33 -6.5 48.5t-30.5 25.5l-27 12q-35 16 -35 62v74h477l340 -1018l363 1018h467v-74q0 -46 -35 -62l-25 -12q-24 -10 -31 -25.5t-7 -48.5v-1075q0 -33 9 -48.5t36 -25.5l28 -12q41 -14 41 -61v-74h-504v74q0 47 41 61
l31 12q27 10 35 25t8 49v930q0 69 10 192l-30.5 -91.5t-40.5 -118.5l-398 -1133h-104l-391 1167q-8 22 -41 152q10 -113 10 -145v-953q0 -34 8 -49t35 -25l31 -12q41 -14 41 -61v-74h-420z" />
    <glyph glyph-name="N" unicode="N" horiz-adv-x="1484" 
d="M80 0v74q0 47 41 61l31 12q27 10 35 25t8 49v1075q0 33 -6.5 48.5t-30.5 25.5l-27 12q-35 16 -35 62v74h418l606 -940q-6 47 -6 143v575q0 33 -9 48.5t-36 25.5l-29 12q-43 15 -43 62v74h416v-74q0 -48 -41 -62l-29 -12q-27 -10 -36 -25.5t-9 -48.5v-1296h-141l-786 1219
q10 -113 10 -146v-852q0 -34 8 -49t35 -25l31 -12q41 -14 41 -61v-74h-416z" />
    <glyph glyph-name="O" unicode="O" horiz-adv-x="1568" 
d="M76 762q0 229 89 407.5t250 277.5t369 99t370 -99t250.5 -277.5t88.5 -407.5q0 -172 -52 -318t-144.5 -249.5t-225 -161.5t-287.5 -58q-207 0 -368.5 99.5t-250.5 279t-89 408.5zM393 762q0 -315 98.5 -474t292.5 -159t293 159.5t99 473.5t-99 472.5t-293 158.5
q-193 0 -292 -158.5t-99 -472.5z" />
    <glyph glyph-name="P" unicode="P" horiz-adv-x="1298" 
d="M80 0v74q0 47 41 61l31 12q27 10 35 25t8 49v1075q0 34 -8 49t-35 25l-31 12q-41 14 -41 62v74h584q577 0 577 -416q0 -210 -141 -317t-420 -107h-184v-457q0 -33 9 -48.5t36 -25.5l28 -12q43 -15 43 -61v-74h-532zM496 838h84q177 0 263.5 60t86.5 192q0 140 -83 204
t-255 64h-96v-520z" />
    <glyph glyph-name="Q" unicode="Q" horiz-adv-x="1568" 
d="M963 14v-10q60 -4 124.5 -26.5t111 -46.5t104 -44t106.5 -20q34 0 100 14v-80q0 -51 -84 -96t-178 -45q-85 0 -162 36.5t-184 113.5q-10 7 -54 39t-62 45t-53.5 36.5t-65.5 40t-62 31.5q-16 8 -62.5 27t-77 33.5t-76 45t-83.5 68.5q-110 108 -169.5 261.5t-59.5 332.5
q0 226 89 403t250.5 275t368.5 98q155 0 287.5 -57.5t225 -159t144.5 -246t52 -313.5q0 -289 -142 -492t-388 -264zM393 770q0 -312 98.5 -469.5t292.5 -157.5t293 158t99 469t-99 468t-293 157q-391 0 -391 -625z" />
    <glyph glyph-name="R" unicode="R" horiz-adv-x="1398" 
d="M80 0v74q0 47 41 61l31 12q27 10 35 25t8 49v1075q0 32 -6.5 48t-28.5 26l-25 12q-35 17 -35 62v74h574q577 0 577 -420q0 -167 -99.5 -267t-279.5 -110q33 -13 58 -30.5t49 -47.5t34 -45t36 -57l170 -275q21 -33 32.5 -50t29 -36t34.5 -28l41 -23q43 -22 43 -57v-72
h-359l-225 365q-108 177 -168 246t-131 69q-12 0 -20 -2v-457q0 -33 9 -48.5t36 -25.5l28 -12q43 -15 43 -61v-74h-532zM496 838h92q177 0 262.5 60t85.5 192q0 141 -82.5 204.5t-253.5 63.5h-104v-520z" />
    <glyph glyph-name="S" unicode="S" horiz-adv-x="1175" 
d="M94 0v420h53q16 0 28 -3.5t20 -7.5t18.5 -16t16 -20t19.5 -29.5t23 -34.5q62 -90 136 -134t170 -44q123 0 203.5 77t80.5 189q0 50 -15 84t-52 59t-80.5 43t-117.5 44q-38 13 -58 20q-224 80 -325 184.5t-101 282.5q0 193 118 312.5t306 119.5q61 0 116.5 -14t92.5 -28.5
t51 -14.5t24 4l23 10q30 13 59 13h41v-400h-53q-10 0 -17.5 0.5t-14.5 3t-11 4t-9.5 7.5t-8 9t-8 13.5t-8 16.5t-10 21.5t-11.5 25.5q-82 174 -246 174q-94 0 -154.5 -53.5t-60.5 -135.5q0 -26 6 -47.5t14 -37.5t27 -31t33 -24t45.5 -22t51.5 -20t62 -21q7 -2 40 -13
t41.5 -14t37.5 -13t40 -15t35.5 -15t38.5 -17.5t33.5 -18t35.5 -22t32 -23.5q174 -135 174 -373q0 -221 -140.5 -360.5t-358.5 -139.5q-69 0 -137.5 20.5t-114.5 41t-62 20.5q-24 0 -35 -14l-16 -18q-8 -9 -24 -17t-29 -8h-68z" />
    <glyph glyph-name="T" unicode="T" horiz-adv-x="1359" 
d="M406 0v74q0 47 43 61l32 12q27 9 37 25t10 49v1135h-129q-79 0 -125.5 -23t-76.5 -80q-7 -13 -15 -31t-12 -26t-12 -17t-19.5 -12.5t-29.5 -3.5h-62v367q145 -12 221 -12h826q74 0 219 12v-367h-60q-31 0 -44 10.5t-29 45.5q-35 77 -81 107t-138 30h-130v-1135
q0 -33 10.5 -49t37.5 -25l32 -12q43 -14 43 -61v-74h-548z" />
    <glyph glyph-name="U" unicode="U" horiz-adv-x="1550" 
d="M78 1518h514v-74q0 -48 -37 -62l-29 -12q-25 -10 -33 -25t-8 -49v-657q0 -113 9 -183.5t41 -129.5q40 -74 118.5 -117t177.5 -43q89 0 164 34.5t121 94.5q44 58 60 144t16 225v632q0 33 -8.5 48.5t-32.5 25.5l-27 12q-37 14 -37 62v74h381v-74q0 -49 -36 -62l-27 -12
q-25 -10 -32 -25.5t-7 -48.5v-663q0 -167 -28.5 -277t-114.5 -204q-160 -177 -439 -177q-298 0 -449 173t-151 516v632q0 34 -8 49t-33 25l-26 12q-39 14 -39 62v74z" />
    <glyph glyph-name="V" unicode="V" horiz-adv-x="1398" 
d="M96 1307q-18 45 -49 61l-29 14q-29 14 -35 23.5t-6 26.5v86h533v-78q0 -42 -29 -56l-49 -22q-7 -3 -12.5 -13.5t-5.5 -19.5q0 -26 10 -53l295 -717q32 -78 45 -129q12 51 43 133l295 711q12 27 12 51q0 30 -22 41l-35 16q-16 8 -22.5 12t-12.5 13t-6 23v88h411v-78
q0 -44 -26 -56l-43 -18q-24 -11 -46 -49t-52 -111l-500 -1206h-125z" />
    <glyph glyph-name="W" unicode="W" horiz-adv-x="2048" 
d="M-12 1518h532v-78q0 -42 -28 -56l-50 -22q-7 -3 -13.5 -13.5t-6.5 -19.5q0 -19 12 -53l291 -817l211 622l-78 226q-14 40 -51 61l-29 14q-29 14 -35 23.5t-6 26.5v86h518v-78q0 -41 -30 -56l-47 -22q-8 -3 -14.5 -13.5t-6.5 -19.5q0 -23 12 -53l289 -815l279 811
q10 30 10 55q0 10 -7.5 22.5t-17.5 16.5l-32 16q-16 8 -22.5 12t-12.5 13t-6 23v88h409v-78q0 -44 -26 -56l-43 -18q-20 -10 -47 -52t-50 -108l-419 -1206h-142l-233 631q-40 105 -68 229l-297 -860h-137l-475 1292q-17 53 -64 76l-30 14q-17 8 -22.5 11.5t-11 13t-5.5 25.5
v86z" />
    <glyph glyph-name="X" unicode="X" horiz-adv-x="1402" 
d="M0 0v78q0 15 11 30t26 23l57 29q58 25 96 80l367 514l-350 544q-32 48 -84 68l-45 16q-39 13 -39 50v86h569v-64q0 -21 -5.5 -32t-22.5 -21l-25 -19q-18 -11 -18 -39q0 -17 8 -28l198 -322l211 297q21 27 21 49q0 26 -14 33l-27 17l-11 5.5t-14.5 8t-10.5 13t-5 22.5v80
h420v-78q0 -42 -35 -56l-43 -18q-36 -16 -90 -92l-303 -424l405 -621q34 -52 74 -71l43 -23q30 -16 35 -24q6 -9 6 -25v-86h-571v72q0 38 28 55l27 16q22 13 22 43q0 20 -18 47l-240 373l-256 -366q-20 -30 -20 -45q0 -30 14 -39l27 -17l11 -5.5t14.5 -8t10.5 -13t5 -22.5
v-90h-459z" />
    <glyph glyph-name="Y" unicode="Y" horiz-adv-x="1294" 
d="M385 0v74q0 46 43 61l29 12q27 10 36 25.5t9 48.5v465l-369 600q-31 52 -74 74l-34 18q-25 12 -37.5 26t-12.5 38v76h582v-72q0 -16 -10 -32t-27 -25l-28 -15q-27 -14 -27 -49q0 -19 14 -41l240 -405l246 411q18 29 18 43q0 23 -16 29l-35 16q-47 21 -47 60v80h440v-78
q0 -41 -37 -56l-43 -18q-17 -7 -43 -32t-47 -60l-352 -574v-479q0 -34 8 -49t35 -25l31 -12q41 -14 41 -61v-74h-533z" />
    <glyph glyph-name="Z" unicode="Z" horiz-adv-x="1312" 
d="M25 0v74q0 66 69 166l760 1116h-385q-78 0 -124.5 -23t-76.5 -80q-6 -12 -17.5 -36.5t-17 -31.5t-19.5 -14.5t-36 -7.5h-61v367q145 -12 221 -12h893v-60q0 -31 -9.5 -59.5t-19.5 -45t-35 -53.5l-768 -1130h457q84 0 132 32t79 109q3 7 9.5 24t8.5 21.5t7.5 15t9.5 13
t11 7.5t15.5 6t20.5 1h78v-399h-1202z" />
    <glyph glyph-name="bracketleft" unicode="[" horiz-adv-x="739" 
d="M147 -352v1870h433v-58q0 -37 -43 -43l-58 -8q-43 -6 -54 -38.5t-11 -115.5v-36v-1272v-37q0 -83 11 -115.5t54 -38.5l58 -8q43 -6 43 -43v-57h-433z" />
    <glyph glyph-name="backslash" unicode="\" horiz-adv-x="702" 
d="M590 -190l-578 1728h146l577 -1728h-145z" />
    <glyph glyph-name="bracketright" unicode="]" horiz-adv-x="739" 
d="M160 -352v57q0 37 43 43l57 8q43 6 54.5 39t11.5 115v37v1272v36q0 82 -11.5 115t-54.5 39l-57 8q-43 6 -43 43v58h432v-1870h-432z" />
    <glyph glyph-name="asciicircum" unicode="^" horiz-adv-x="2048" 
d="M905 1462h236l491 -565h-112l-498 373l-498 -373h-112z" />
    <glyph glyph-name="underscore" unicode="_" 
d="M0 -279h1024v-204h-1024v204z" />
    <glyph glyph-name="grave" unicode="`" 
d="M592 963l-305 124q-66 28 -66 82q0 35 23.5 58.5t58.5 23.5q17 0 33 -6.5t24.5 -13t26.5 -21.5l285 -247h-80z" />
    <glyph glyph-name="a" unicode="a" horiz-adv-x="1019" 
d="M637 94q-110 -119 -272 -119q-137 0 -218 69.5t-81 182.5q0 307 530 342v15q0 77 -42 124.5t-105 47.5q-20 0 -66 -8q-4 -73 -41 -114.5t-96 -41.5q-54 0 -83.5 31.5t-29.5 87.5q0 75 84 129.5t219 54.5q202 0 309 -94t107 -273v-247q0 -70 16.5 -96.5t65.5 -26.5
q21 0 45 8l33 -45q6 -8 6 -27q0 -34 -57.5 -75.5t-135.5 -41.5q-133 0 -188 117zM596 438q-266 -6 -266 -192q0 -55 30 -85t84 -30q73 0 112.5 40t39.5 118v149z" />
    <glyph glyph-name="b" unicode="b" horiz-adv-x="1095" 
d="M334 74l-146 -80q-16 -8 -28 -8q-15 0 -21 7t-6 25v1297q0 33 -5.5 48t-25.5 26l-22 12q-29 15 -29 61v56l340 18v-741q116 96 238 96q172 0 284.5 -128.5t112.5 -328.5q0 -199 -118.5 -329t-297.5 -130q-150 0 -276 99zM393 178q77 -59 139 -59q93 0 155.5 88.5
t62.5 238.5q0 136 -52 210.5t-143 74.5q-90 0 -162 -78v-475z" />
    <glyph glyph-name="c" unicode="c" horiz-adv-x="944" 
d="M813 276l68 -63q14 -11 14 -29q0 -21 -31.5 -56t-82 -69t-124 -59t-147.5 -25q-198 0 -323.5 128.5t-125.5 324.5q0 202 134 333.5t342 131.5q139 0 224 -62.5t85 -160.5q0 -63 -35.5 -99t-99.5 -36q-62 0 -97.5 38t-35.5 107q0 19 10 61q-6 0 -20 1t-21 1
q-95 0 -155 -83t-60 -226q0 -131 65.5 -209t167.5 -78q125 0 248 129z" />
    <glyph glyph-name="d" unicode="d" horiz-adv-x="1120" 
d="M719 92q-129 -117 -266 -117q-161 0 -274 130.5t-113 330.5q0 196 113 326.5t280 130.5q128 0 258 -100q-19 59 -19 110v412q0 34 -6.5 49t-29.5 25l-25 12q-14 6 -24.5 23t-10.5 38v56l359 18v-1333q0 -34 6.5 -50t29.5 -26l25 -10q14 -6 24.5 -23.5t10.5 -38.5v-55
l-350 -18v30q0 37 12 80zM698 657q-75 72 -159 72q-90 0 -143.5 -78t-53.5 -217t52 -215t145 -76q87 0 159 78v436z" />
    <glyph glyph-name="e" unicode="e" horiz-adv-x="1005" 
d="M858 272l68 -55q12 -12 12 -27q0 -29 -64 -84q-79 -69 -153 -100t-178 -31q-215 0 -347.5 126.5t-132.5 330.5q0 196 132 327.5t329 131.5q187 0 307.5 -118.5t120.5 -307.5v-29h-610q1 -146 65 -222.5t183 -76.5q84 0 146 31.5t122 103.5zM358 575h326
q-4 86 -46.5 133.5t-111.5 47.5q-67 0 -111.5 -47t-56.5 -134z" />
    <glyph glyph-name="f" unicode="f" horiz-adv-x="663" 
d="M70 0v55q0 21 10 38.5t24 23.5l25 10q23 10 30 26t7 50v518h-92v70q0 21 9 38t23 23l25 10q27 13 35.5 44t13 103.5t15.5 129.5q34 183 139.5 290t236.5 107q83 0 133 -43.5t50 -114.5q0 -59 -34.5 -95t-92.5 -36q-55 0 -88 32.5t-39 94.5q-44 -6 -59 -45.5t-15 -126.5
v-334h242v-147h-242v-518q0 -33 7.5 -49.5t31.5 -26.5l24 -10q14 -6 24.5 -23.5t10.5 -38.5v-55h-454z" />
    <glyph glyph-name="g" unicode="g" horiz-adv-x="999" 
d="M211 291q-67 46 -103 114t-36 150q0 148 108.5 242t282.5 94q167 0 276 -92q48 48 85 70t79 22q44 0 74.5 -27t30.5 -73q0 -45 -22.5 -72t-59.5 -27q-26 0 -59.5 19.5t-45.5 19.5q-14 0 -22 -2q55 -65 55 -174q0 -149 -108.5 -242.5t-288.5 -93.5q-62 0 -127 19l-37 -88
q118 8 176 8q222 0 335.5 -68.5t113.5 -200.5q0 -144 -125.5 -225.5t-358.5 -81.5q-171 0 -259.5 50.5t-88.5 144.5q0 49 30.5 77.5t80.5 28.5q55 0 85.5 -32t30.5 -89q61 -20 138 -20q118 0 183.5 26.5t65.5 69.5q0 101 -340 101q-70 0 -132.5 -5.5t-100 -11.5t-45.5 -6
q-21 0 -29 6.5t-8 22.5q0 25 37 94zM315 555q0 -96 38.5 -146.5t109.5 -50.5t109 50.5t38 146.5q0 97 -37.5 148t-109.5 51t-110 -51t-38 -148z" />
    <glyph glyph-name="h" unicode="h" horiz-adv-x="1144" 
d="M59 0v55q0 21 10.5 38.5t24.5 23.5l25 10q23 10 30 26t7 50v1112q0 33 -5.5 48t-25.5 26l-21 12q-30 15 -30 61v56l344 18v-643q0 -70 -8 -115q132 117 280 117q153 0 226 -92.5t73 -282.5v-317q0 -34 7 -50t30 -26l25 -10q14 -6 24 -23.5t10 -38.5v-55h-440v55
q0 21 9 38.5t22 23.5l20 10q20 11 25.5 27t5.5 49v329q0 97 -31.5 144t-99.5 47q-90 0 -178 -88v-432q0 -33 5.5 -49t25.5 -27l20 -10q13 -6 22 -23.5t9 -38.5v-55h-441z" />
    <glyph glyph-name="i" unicode="i" horiz-adv-x="602" 
d="M135 1311q0 67 47.5 114.5t114.5 47.5t114.5 -47.5t47.5 -114.5t-47.5 -114.5t-114.5 -47.5t-114.5 47.5t-47.5 114.5zM74 0v55q0 21 10.5 38.5t24.5 23.5l24 10q23 10 30 26t7 50v463q0 32 -5.5 47t-25.5 26l-20 13q-31 16 -31 61v55l348 19v-684q0 -32 6.5 -49
t28.5 -27l23 -10q13 -6 22.5 -23.5t9.5 -38.5v-55h-452z" />
    <glyph glyph-name="j" unicode="j" horiz-adv-x="583" 
d="M131 1311q0 67 48 114.5t116 47.5q67 0 114.5 -47.5t47.5 -114.5t-47.5 -114.5t-114.5 -47.5q-68 0 -116 47.5t-48 114.5zM432 125q0 -256 -95 -387t-274 -131q-92 0 -144 42.5t-52 114.5q0 60 33.5 97t87.5 37q52 0 82 -27.5t30 -73.5q0 -8 -6 -35h4q45 0 58.5 39
t13.5 136v729q0 32 -5.5 47t-25.5 26l-20 13q-31 16 -31 61v55l344 19v-762z" />
    <glyph glyph-name="k" unicode="k" horiz-adv-x="1128" 
d="M59 0v55q0 21 10.5 38.5t24.5 23.5l25 10q23 10 30 26t7 50v1112q0 33 -5.5 48t-25.5 26l-21 12q-30 15 -30 61v56l344 18v-940q0 -25 -6 -127l247 199q31 25 31 45q0 21 -20 32l-27 17q-13 8 -18 11.5t-9 12.5t-4 23v59h463v-61q0 -43 -28 -55l-50 -19
q-30 -12 -57.5 -25.5t-45 -23.5t-39 -24.5t-28.5 -20t-25.5 -20t-19.5 -15.5l-59 -47l235 -346q27 -38 70 -61l35 -21l17 -6q17 -6 24.5 -15.5t7.5 -27.5v-80h-508v45q0 41 21 55l32 19q7 3 13 14.5t6 22.5q0 24 -27 63l-123 180l-108 -86v-123q0 -31 6.5 -45t28.5 -24
l22 -12q33 -15 33 -58v-51h-449z" />
    <glyph glyph-name="l" unicode="l" horiz-adv-x="598" 
d="M70 0v55q0 21 10 38.5t24 23.5l25 10q23 10 30 26t7 50v1112q0 33 -5.5 48t-25.5 26l-22 12q-29 15 -29 61v56l348 18v-1333q0 -32 6.5 -49t28.5 -27l22 -10q13 -6 23 -23.5t10 -38.5v-55h-452z" />
    <glyph glyph-name="m" unicode="m" horiz-adv-x="1675" 
d="M70 0v55q0 21 10 38.5t24 23.5l25 10q23 10 30 26t7 50v463q0 32 -5.5 47t-25.5 26l-22 13q-12 6 -20.5 23t-8.5 38v55l330 19v-43q0 -47 -8 -78q71 66 136 97.5t140 31.5q184 0 248 -143q137 143 299 143q150 0 220.5 -92.5t70.5 -282.5v-317q0 -34 6.5 -50t29.5 -26
l25 -10q14 -6 24.5 -23.5t10.5 -38.5v-55h-434v55q0 48 28 62l21 10q20 11 26.5 27.5t6.5 48.5v329q0 98 -31 144.5t-100 46.5q-79 0 -164 -88v-432q0 -34 5 -49.5t25 -26.5l21 -10q13 -6 22 -23.5t9 -38.5v-55h-416v55q0 47 29 62l22 10q20 11 25.5 27t5.5 49v329
q0 98 -31 144.5t-100 46.5q-79 0 -164 -88v-432q0 -33 5.5 -49t25.5 -27l22 -10q29 -15 29 -62v-55h-434z" />
    <glyph glyph-name="n" unicode="n" horiz-adv-x="1155" 
d="M70 0v55q0 21 10 38.5t24 23.5l25 10q23 10 30 26t7 50v463q0 32 -5.5 47t-25.5 26l-22 13q-12 6 -20.5 23t-8.5 38v55l334 19v-43q0 -55 -6 -78q120 129 288 129q153 0 225 -92.5t72 -282.5v-317q0 -34 7 -50t30 -26l27 -10q14 -6 23.5 -23.5t9.5 -38.5v-55h-439v55
q0 47 29 62l23 10q20 11 25 26.5t5 49.5v329q0 97 -31.5 144t-99.5 47q-92 0 -180 -88v-432q0 -32 6.5 -48.5t26.5 -27.5l20 -10q29 -15 29 -62v-55h-438z" />
    <glyph glyph-name="o" unicode="o" horiz-adv-x="1052" 
d="M61 434q0 204 129.5 330.5t335.5 126.5t335.5 -126t129.5 -331t-127.5 -332t-337.5 -127q-209 0 -337 127t-128 332zM336 434q0 -155 49 -236t141 -81q93 0 142 80.5t49 236.5t-49 237t-142 81q-91 0 -140.5 -81t-49.5 -237z" />
    <glyph glyph-name="p" unicode="p" horiz-adv-x="1103" 
d="M59 -393v55q0 21 10.5 38.5t24.5 23.5l25 10q23 10 30 25t7 48v859q0 32 -5.5 47t-25.5 26l-21 13q-30 15 -30 61v55l340 19v-23q0 -49 -8 -80q116 107 243 107q171 0 282 -127.5t111 -327.5q0 -196 -111 -324t-282 -128q-144 0 -239 98q8 -45 8 -94v-181q0 -32 5.5 -47
t25.5 -26l20 -10q13 -6 22 -23.5t9 -38.5v-55h-441zM418 217q78 -72 157 -72q89 0 142 77.5t53 215.5q0 137 -52 212t-143 75q-87 0 -157 -76v-432z" />
    <glyph glyph-name="q" unicode="q" horiz-adv-x="1075" 
d="M700 84q-52 -54 -108.5 -77t-132.5 -23q-173 0 -286.5 130t-113.5 322q0 202 117 330.5t303 128.5q150 0 318 -117l84 70q3 3 9.5 8t9.5 7.5t8 5.5t9 4t9 1q28 0 28 -47v-1020q0 -32 5.5 -47t25.5 -26l21 -13q30 -15 30 -61v-53h-448v53q0 20 11 37.5t26 23.5l28 13
q24 10 31.5 25.5t7.5 47.5v179v39q0 3 1 10.5t3 21t4 27.5zM692 217v475q-68 56 -135 56q-99 0 -160 -83.5t-61 -228.5q0 -138 52 -214.5t142 -76.5q84 0 162 72z" />
    <glyph glyph-name="r" unicode="r" horiz-adv-x="806" 
d="M70 0v55q0 21 10 38.5t24 23.5l25 10q23 10 30 26t7 50v463q0 32 -5.5 47t-25.5 26l-22 13q-12 6 -20.5 23t-8.5 38v55l342 23v-105q0 -26 -8 -84q105 191 250 191q69 0 113 -42.5t44 -109.5q0 -65 -43.5 -108t-105.5 -43q-43 0 -80 23t-49 59q-64 -49 -89.5 -135.5
t-25.5 -227.5v-106q0 -34 7 -50t30 -26l25 -10q14 -6 24 -23.5t10 -38.5v-55h-458z" />
    <glyph glyph-name="s" unicode="s" horiz-adv-x="843" 
d="M305 139q49 -18 92 -18q73 0 113.5 23.5t40.5 60.5q0 20 -7.5 33.5t-28 25.5t-40.5 20t-62.5 24.5t-76.5 31.5q-64 28 -102 49.5t-72 53.5t-49 73.5t-15 97.5q0 128 88.5 204.5t239.5 76.5q121 0 192.5 -48.5t71.5 -121.5q0 -55 -30.5 -86t-84.5 -31q-127 0 -133 137
q-34 17 -61 17q-43 0 -70.5 -21.5t-27.5 -50.5q0 -10 3.5 -18.5t13.5 -17t19.5 -14.5t30 -15t34.5 -15t44.5 -18.5t50.5 -20.5q44 -18 67 -28.5t58 -28.5t53.5 -32.5t41 -36.5t33.5 -45.5t18.5 -55t7.5 -68.5q0 -136 -98.5 -220.5t-264.5 -84.5q-154 0 -247 60t-93 151
q0 54 34 87.5t91 33.5q60 0 94.5 -32t34.5 -87q0 -9 -4 -45z" />
    <glyph glyph-name="t" unicode="t" horiz-adv-x="673" 
d="M645 104q4 -12 4 -18q0 -33 -75.5 -68.5t-172.5 -35.5q-134 0 -194 74t-60 231v434h-94v70q0 21 10.5 38t24.5 23l23 10q29 13 39 37.5t10 83.5v188l248 39v-342h219v-147h-219v-416q0 -79 20 -112t82 -33q39 0 100 22z" />
    <glyph glyph-name="u" unicode="u" horiz-adv-x="1148" 
d="M743 111q-118 -127 -290 -127q-153 0 -225 92t-72 282v308q0 31 -5.5 46.5t-25.5 26.5l-21 13q-28 16 -28 61v55l342 19v-543q0 -96 31.5 -143t99.5 -47q88 0 178 90v422q0 32 -5.5 47t-25.5 26l-20 13q-31 16 -31 61v55l344 19v-684q0 -34 6 -50t27 -26l22 -10
q13 -6 23 -23.5t10 -38.5v-55l-342 -18v51q0 47 8 78z" />
    <glyph glyph-name="v" unicode="v" horiz-adv-x="954" 
d="M123 664q-11 26 -22 39t-35 26l-29 16q-37 19 -37 68v55h469v-55q0 -45 -31 -61l-20 -13q-27 -15 -27 -34q0 -16 8 -35l107 -273q28 -73 43 -125q45 151 57 183l80 217q4 12 4 20q0 32 -37 47l-26 13q-16 6 -26.5 23t-10.5 38v55h385v-55q0 -40 -43 -61l-35 -17
q-42 -22 -73 -90q-5 -11 -14 -35l-5 -12l-238 -598h-155z" />
    <glyph glyph-name="w" unicode="w" horiz-adv-x="1433" 
d="M119 664q-10 26 -22 39t-36 26l-28 16q-37 19 -37 68v55h477v-55q0 -41 -31 -57l-30 -17q-27 -12 -27 -37q0 -18 6 -32l88 -236q25 -71 41 -137q11 35 25 81t22 72.5t13 41.5l129 376h125l172 -442q22 -65 43 -145q31 125 49 180l67 207q4 12 4 18q0 35 -41 53l-26 13
q-16 6 -26.5 23t-10.5 38v55h385v-55q0 -40 -43 -61l-35 -17q-30 -14 -50.5 -46.5t-41.5 -90.5l-211 -598h-158l-157 389q-18 44 -41 139q-5 -26 -11.5 -49t-18 -56t-13.5 -40l-138 -383h-149z" />
    <glyph glyph-name="x" unicode="x" horiz-adv-x="995" 
d="M10 0v43q0 28 6 42.5t29 25.5l49 22q67 33 123 100l148 175l-222 262q-45 53 -67 63l-33 17q-33 16 -33 73v45h467v-53q0 -34 -20 -47l-23 -14q-10 -7 -10 -25q0 -11 10 -24l96 -117l88 100q19 22 19 33q0 15 -10 22l-19 13q-33 23 -33 51v61h359v-53q0 -41 -33 -57
l-43 -19q-21 -10 -38 -22t-24 -19t-19 -21.5t-17 -19.5l-146 -165l244 -283q47 -52 86 -74l33 -18q35 -18 35 -68v-49h-502v49q0 29 27 47l22 17q16 10 16 30q0 14 -14 31l-115 139l-106 -131q-10 -10 -10 -26t14 -27l33 -23q26 -17 26 -51v-55h-393z" />
    <glyph glyph-name="y" unicode="y" horiz-adv-x="954" 
d="M123 664q-10 26 -21.5 38.5t-35.5 26.5l-29 16q-37 19 -37 68v55h469v-55q0 -45 -31 -61l-20 -13q-27 -15 -27 -34q0 -16 8 -35l105 -273q34 -91 45 -125q54 174 57 183l92 217q4 12 4 18q0 34 -38 49l-27 13q-15 6 -25 23t-10 38v55h383v-55q0 -40 -43 -61l-33 -17
q-10 -5 -18.5 -12t-15 -13t-13.5 -16.5t-11 -16t-10.5 -19.5t-8.5 -19t-8.5 -21t-8.5 -20l-276 -647q-77 -181 -164 -263.5t-211 -82.5q-77 0 -123.5 43.5t-46.5 111.5q0 56 33 92.5t84 36.5q30 0 54 -13t37 -28t29.5 -28t32.5 -13q37 0 70 44t78 143z" />
    <glyph glyph-name="z" unicode="z" horiz-adv-x="958" 
d="M47 0v45q0 52 55 123l422 553h-172q-49 0 -73.5 -11t-40.5 -46l-15 -33q-15 -35 -51 -35h-70v272h762v-61q0 -58 -33 -102l-428 -558h203q52 0 78 16.5t49 59.5l17 37q17 39 65 39h62v-299h-830z" />
    <glyph glyph-name="braceleft" unicode="{" 
d="M852 1516v-62q-66 -1 -107 -14.5t-63.5 -47.5t-30.5 -80t-8 -122v-133q0 -83 -5 -137.5t-19.5 -105.5t-42 -82.5t-72.5 -56.5t-111 -40q66 -15 111 -39t72.5 -55.5t42 -82t19.5 -105t5 -138.5v-135q0 -76 8 -122t30.5 -80t63.5 -47.5t107 -14.5v-60q-121 0 -197 16
t-124 57.5t-66.5 106t-18.5 166.5v193q0 82 -11 134t-41.5 88.5t-81.5 54.5t-134 26v76q83 8 134 26t81.5 54.5t41.5 88.5t11 134v192q0 136 36.5 209.5t123 105.5t246.5 32z" />
    <glyph glyph-name="bar" unicode="|" 
d="M410 1565h206v-2048h-206v2048z" />
    <glyph glyph-name="braceright" unicode="}" 
d="M172 1516q236 0 322 -73.5t86 -273.5v-192q0 -82 11 -134t41.5 -88.5t81.5 -54.5t134 -26v-76q-83 -8 -134 -26t-81.5 -54.5t-41.5 -88.5t-11 -134v-193q0 -197 -84.5 -271.5t-311.5 -74.5h-12v60q65 1 106 15t64 47.5t31 80t8 121.5v135q0 84 5 138.5t19.5 105t42 82
t72.5 55.5t111 39q-66 15 -111 40t-72.5 56.5t-42 82.5t-19.5 105.5t-5 137.5v133q0 75 -8 121.5t-31 80t-64 47.5t-106 15v62z" />
    <glyph glyph-name="asciitilde" unicode="~" horiz-adv-x="1705" 
d="M1530 803v-221q-204 -138 -379 -138q-89 0 -184 31q-20 7 -80 27.5t-87 29t-73.5 21t-85.5 17.5t-78 5q-165 0 -385 -157v221q213 143 387 143q55 0 112.5 -10t91.5 -20t91 -29q17 -6 56.5 -20t61.5 -21t55 -16t62.5 -13t59.5 -4q164 0 375 154z" />
    <glyph glyph-name="exclamdown" unicode="&#xa1;" horiz-adv-x="612" 
d="M354 1042q15 -215 42.5 -414t47 -311t19.5 -145q0 -197 -158 -197t-158 197q0 33 20 145t48 311t43 414h96zM477 1374q0 -71 -50 -120.5t-122 -49.5q-71 0 -120.5 50t-49.5 120q0 72 49.5 122t120.5 50t121.5 -51t50.5 -121z" />
    <glyph glyph-name="cent" unicode="&#xa2;" horiz-adv-x="1128" 
d="M520 -276v276q-180 15 -289.5 141t-109.5 310q0 180 108 305t291 151v256h135v-248q148 -13 230 -76.5t82 -158.5q0 -62 -36 -98.5t-100 -36.5q-62 0 -97.5 38t-35.5 107q0 16 11 62l-54 10v-592h9q80 0 142.5 31t125.5 98l65 -66q15 -12 15 -28q0 -19 -25.5 -49
t-68.5 -62t-114 -59t-149 -35v-276h-135zM520 180v584q-151 -79 -151 -305q0 -101 36 -169t115 -110z" />
    <glyph glyph-name="sterling" unicode="&#xa3;" horiz-adv-x="1128" 
d="M506 129q-95 -145 -248 -145q-107 0 -175.5 66.5t-68.5 170.5q0 99 70 166.5t176 67.5q60 0 127 -31q0 31 -13 73.5t-27 73t-46 97.5h-231v157h174q-23 115 -23 183q0 181 122 300t314 119q161 0 261 -76.5t100 -199.5q0 -75 -40 -119.5t-108 -44.5t-107.5 40.5
t-39.5 111.5q0 59 49 114q-48 25 -94 25q-87 0 -141 -57.5t-54 -147.5q0 -68 62 -248h377v-157h-320q31 -118 31 -181q0 -74 -33 -153q158 -103 258 -103q21 0 40 3t43 13t35 15t43.5 22t39.5 21l47 -98q8 -16 8 -37q0 -35 -42 -80t-115.5 -80t-147.5 -35q-81 0 -152.5 37.5
t-150.5 116.5zM391 244q-70 67 -131 67q-48 0 -77 -26.5t-29 -65.5q0 -43 29.5 -68.5t72.5 -25.5q105 0 135 119z" />
    <glyph glyph-name="currency" unicode="&#xa4;" horiz-adv-x="1241" 
d="M172 1438l205 -203q108 78 244 78q138 0 247 -78l203 203l105 -107l-203 -205q76 -109 76 -241t-76 -242l203 -205l-105 -104l-203 203q-108 -78 -245 -78q-140 0 -246 78l-205 -203l-104 104l202 205q-75 106 -75 242q0 134 75 241l-202 205zM623 1161
q-114 0 -195.5 -81.5t-81.5 -194.5q0 -114 81 -194.5t196 -80.5q114 0 195 80.5t81 194.5q0 113 -81 194.5t-195 81.5z" />
    <glyph glyph-name="yen" unicode="&#xa5;" horiz-adv-x="1232" 
d="M1214 1403v-70q0 -22 -7.5 -30.5t-30.5 -20.5l-35 -16q-46 -24 -84 -86l-123 -209h242v-90h-299l-125 -203h424v-90h-445v-383q0 -32 8 -46.5t33 -23.5l27 -10q39 -14 39 -57v-68h-455v68q0 43 37 57l29 10q25 9 32.5 23t7.5 47v383h-442v90h418l-127 203h-291v90h236
l-136 221q-26 45 -67 68l-33 16q-17 9 -24 14t-14 17t-7 28v68h514v-66q0 -30 -35 -51l-26 -14q-23 -13 -23 -43q0 -18 12 -39l222 -375l227 379q16 28 16 41q0 20 -14 27l-33 14q-43 21 -43 55v72h395z" />
    <glyph glyph-name="brokenbar" unicode="&#xa6;" 
d="M410 1432h206v-758h-206v758zM410 408h206v-758h-206v758z" />
    <glyph glyph-name="section" unicode="&#xa7;" horiz-adv-x="1128" 
d="M713 379q170 -121 170 -285q0 -124 -89.5 -198t-248.5 -74t-248.5 63.5t-89.5 169.5q0 67 39 107.5t104 40.5q54 0 90.5 -33t36.5 -86q0 -28 -10.5 -49t-23 -31t-23 -22t-10.5 -25q0 -24 34.5 -38.5t94.5 -14.5q71 0 110 32.5t39 90.5q0 23 -7.5 44.5t-17 37.5t-32 38.5
t-37 35.5t-48.5 41t-52 44l-183 158q-174 149 -174 299q0 105 75 177.5t204 82.5q-172 123 -172 285q0 123 90.5 197.5t249.5 74.5q149 0 234 -62.5t85 -164.5q0 -66 -39 -106t-102 -40q-52 0 -88.5 33t-36.5 84q0 35 16.5 58t32.5 37.5t16 29.5q0 49 -112 49
q-71 0 -111.5 -33.5t-40.5 -91.5q0 -23 7.5 -44.5t17.5 -37.5t32 -38.5t37 -35.5t48.5 -41t52.5 -44l182 -156q176 -150 176 -299q0 -106 -74 -177t-204 -83zM328 797q0 -91 121 -197q12 -11 39 -34t37.5 -32t31.5 -25.5t32.5 -23.5t28.5 -15.5t31.5 -11.5t30.5 -3
q52 0 86.5 33.5t34.5 84.5t-40 104t-126 124q-10 8 -38 32t-38.5 31.5t-31.5 20.5t-39 17.5t-39 4.5q-52 0 -86.5 -33t-34.5 -77z" />
    <glyph glyph-name="dieresis" unicode="&#xa8;" 
d="M217 1100q0 45 35.5 79.5t81.5 34.5q47 0 82 -34t35 -80q0 -50 -33.5 -83.5t-83.5 -33.5q-48 0 -82.5 34t-34.5 83zM573 1100q0 45 35.5 79.5t81.5 34.5q47 0 82 -34t35 -80q0 -50 -33.5 -83.5t-83.5 -33.5q-48 0 -82.5 34t-34.5 83z" />
    <glyph glyph-name="copyright" unicode="&#xa9;" horiz-adv-x="1683" 
d="M844 1413q142 0 276.5 -56.5t237.5 -158.5q102 -102 159.5 -239t57.5 -281q0 -143 -56.5 -277.5t-160.5 -240.5q-102 -104 -235 -158.5t-281 -54.5q-300 0 -516 213q-104 104 -159.5 237t-55.5 281q0 147 54.5 280.5t158.5 237.5q103 103 238.5 160t281.5 57zM844 1309
q-126 0 -241 -48t-204 -139q-182 -185 -182 -444q0 -263 182 -445t443 -182t440 182q89 90 136.5 205.5t47.5 239.5q0 127 -47.5 243.5t-134.5 202.5q-88 88 -203.5 136.5t-236.5 48.5zM1126 1102h45v-326h-47q-32 132 -101.5 202.5t-162.5 70.5q-118 0 -175.5 -90
t-57.5 -275q0 -186 62.5 -281.5t182.5 -95.5q160 0 273 174l45 -28q-126 -215 -348 -215q-186 0 -309 123t-123 303q0 192 121.5 317t304.5 125q59 0 109 -16.5t80.5 -33t43.5 -16.5q45 0 57 62z" />
    <glyph glyph-name="ordfeminine" unicode="&#xaa;" horiz-adv-x="765" 
d="M477 975q-79 -82 -203 -82q-103 0 -164 48.5t-61 127.5q0 216 397 240v8q0 54 -31.5 87.5t-78.5 33.5q-22 0 -49 -6q-3 -51 -31 -80t-72 -29q-39 0 -61.5 22.5t-22.5 61.5q0 53 63.5 91t164.5 38q152 0 231.5 -65.5t79.5 -190.5v-174q0 -49 12 -67.5t49 -18.5q14 0 35 6
l25 -33q4 -6 4 -18q0 -23 -44 -52.5t-102 -29.5q-96 0 -141 82zM446 1217q-198 -6 -198 -136q0 -38 23 -59t63 -21q112 0 112 111v105z" />
    <glyph glyph-name="guillemotleft" unicode="&#xab;" horiz-adv-x="966" 
d="M72 432q109 85 220.5 177.5t155.5 127.5t56 35q10 0 19 -10.5t9 -22.5q0 -22 -56 -104t-159 -203q215 -255 215 -305q0 -12 -9 -22.5t-19 -10.5q-12 0 -55.5 34.5t-156 127t-220.5 176.5zM451 432q109 85 220.5 177.5t155.5 127.5t56 35q10 0 19 -10.5t9 -22.5
q0 -22 -56 -104t-159 -203q215 -255 215 -305q0 -12 -9 -22.5t-19 -10.5q-12 0 -55.5 34.5t-156 127t-220.5 176.5z" />
    <glyph glyph-name="logicalnot" unicode="&#xac;" horiz-adv-x="1705" 
d="M254 864h1198v-502h-199v306h-999v196z" />
    <glyph glyph-name="registered" unicode="&#xae;" horiz-adv-x="1683" 
d="M844 1413q146 0 284.5 -59.5t241.5 -165.5q97 -100 150 -235.5t53 -286.5q0 -137 -61 -275.5t-171 -245.5q-99 -96 -227.5 -147t-271.5 -51q-222 0 -402 121q-157 104 -243 263.5t-86 346.5q0 146 55 280t158 238q102 103 237.5 160t282.5 57zM844 1309
q-126 0 -241.5 -49t-203.5 -138q-182 -185 -182 -444q0 -263 182 -445t443 -182t440 182q89 90 136.5 205.5t47.5 239.5q0 125 -48.5 242.5t-135.5 203.5q-88 88 -202.5 136.5t-235.5 48.5zM465 1098h403q150 0 236 -57t86 -142q0 -88 -66 -136t-213 -73q186 -43 219 -194
q5 -23 8 -56.5t4.5 -52.5t12 -34t31.5 -15q57 0 57 117v12h51v-23q0 -88 -43.5 -134t-128.5 -46q-97 0 -139 55q-18 25 -25 57.5t-8.5 77t-5.5 66.5q-26 154 -166 154h-18v-246q0 -47 20.5 -65.5t77.5 -26.5v-51h-393v51q61 3 83.5 22.5t22.5 69.5v522q0 50 -22.5 69.5
t-83.5 24.5v54zM760 723q14 -2 43 -2q192 0 192 180q0 58 -42 102t-107 44q-86 0 -86 -66v-258z" />
    <glyph glyph-name="macron" unicode="&#xaf;" 
d="M248 1028v141h526v-141h-526z" />
    <glyph glyph-name="degree" unicode="&#xb0;" horiz-adv-x="673" 
d="M338 1464q126 0 214.5 -89.5t88.5 -215.5q0 -125 -89 -214t-216 -89q-126 0 -213.5 88t-87.5 215t88.5 216t214.5 89zM338 1335q-72 0 -124 -51t-52 -123q0 -73 51 -124.5t125 -51.5q73 0 123.5 52.5t50.5 123.5q0 72 -51 123t-123 51z" />
    <glyph glyph-name="plusminus" unicode="&#xb1;" horiz-adv-x="1705" 
d="M752 1223h202v-326h498v-199h-498v-325h-202v325h-498v199h498v326zM254 197h1198v-199h-1198v199z" />
    <glyph glyph-name="twosuperior" unicode="&#xb2;" horiz-adv-x="745" 
d="M31 561v68q0 33 13.5 54t57.5 62l129 123q123 116 176.5 186.5t53.5 141.5q0 57 -40 93t-104 36q-54 0 -100 -25q39 -36 39 -86q0 -41 -28.5 -65.5t-73.5 -24.5q-43 0 -70 29.5t-27 75.5q0 78 80 133t207 55q136 0 218.5 -63t82.5 -162q0 -18 -3 -36t-7 -32.5t-14 -31.5
t-16.5 -28t-22 -28.5t-23.5 -26.5t-29 -27.5t-30 -26.5t-34 -29t-34 -29l-215 -182h234q43 0 63 8t35 33l14 20q6 13 12.5 17t22.5 4h51l-14 -236h-604z" />
    <glyph glyph-name="threesuperior" unicode="&#xb3;" horiz-adv-x="745" 
d="M203 659q45 -26 104 -26q79 0 123.5 45.5t44.5 124.5q0 81 -57.5 127.5t-161.5 46.5h-8v86q93 0 145.5 38.5t52.5 104.5q0 58 -36 93.5t-95 35.5q-35 0 -75 -18q8 -32 8 -45q0 -34 -23 -55t-61 -21q-41 0 -63.5 21t-22.5 57q0 60 69.5 101.5t182.5 41.5
q136 0 214.5 -55.5t78.5 -144.5q0 -153 -220 -191q126 -20 192.5 -80.5t66.5 -152.5q0 -112 -92 -179t-251 -67q-129 0 -205.5 48t-76.5 122q0 41 27 66.5t69 25.5q41 0 66.5 -24.5t25.5 -65.5q0 -38 -22 -60z" />
    <glyph glyph-name="acute" unicode="&#xb4;" 
d="M432 963h-80l285 247q18 15 26.5 21.5t24.5 13t33 6.5q35 0 58.5 -23.5t23.5 -58.5q0 -54 -66 -82z" />
    <glyph glyph-name="mu" unicode="&#xb5;" horiz-adv-x="1202" 
d="M178 209q-8 -63 -16 -134.5t-13 -120t-11 -101t-11.5 -86.5t-14 -68.5t-18.5 -55t-24 -37t-33 -23.5t-43 -7q-54 0 -84.5 30.5t-30.5 84.5q0 41 25.5 129.5t71 245t77.5 307.5l109 512h256l-99 -459q-22 -104 -22 -147q0 -59 30.5 -92t84.5 -33q71 0 116 54t68 165
l109 512h256l-115 -533q-17 -80 -17 -110q0 -47 17.5 -67.5t56.5 -20.5t65 17.5t46 59.5q8 17 17 39.5t14 34t11.5 23.5t14.5 17t19 5q32 0 32 -39q0 -31 -15 -85t-44 -105q-81 -146 -236 -146q-86 0 -130.5 48.5t-53.5 150.5q-40 -105 -98 -152t-150 -47q-93 0 -150 60.5
t-67 173.5z" />
    <glyph glyph-name="paragraph" unicode="&#xb6;" 
d="M983 1479v-111h-113v-1368h-151v1368h-160v-1368h-151v784q-168 6 -267.5 101.5t-99.5 244.5q0 156 106 252.5t285 96.5h551z" />
    <glyph glyph-name="periodcentered" unicode="&#xb7;" horiz-adv-x="516" 
d="M88 707q0 71 49 120.5t121 49.5q70 0 120 -49.5t50 -120.5q0 -72 -49.5 -121t-120.5 -49q-70 0 -120 49.5t-50 120.5z" />
    <glyph glyph-name="cedilla" unicode="&#xb8;" 
d="M274 -340l39 80q69 -35 122.5 -51.5t113.5 -16.5q37 0 60.5 21t23.5 55q0 78 -94 78q-19 0 -62 -6v180h68v-102q47 6 69 6q75 0 122.5 -43.5t47.5 -112.5q0 -76 -57 -119t-162 -43q-61 0 -125.5 18t-165.5 56z" />
    <glyph glyph-name="onesuperior" unicode="&#xb9;" horiz-adv-x="745" 
d="M203 561v51q0 11 10 22t25 15l24 6q22 4 28.5 12.5t6.5 30.5v570h-141v43q0 35 39 47l157 59h119v-719q0 -21 7.5 -29.5t29.5 -13.5l24 -6q15 -4 24 -15t9 -22v-51h-362z" />
    <glyph glyph-name="ordmasculine" unicode="&#xba;" horiz-adv-x="790" 
d="M47 1212q0 143 96.5 231.5t251.5 88.5t251.5 -88t96.5 -232q0 -143 -95 -231t-253 -88q-156 0 -252 88t-96 231zM252 1212q0 -108 37.5 -164.5t105.5 -56.5q69 0 106.5 56.5t37.5 164.5q0 110 -37.5 167t-106.5 57q-68 0 -105.5 -57.5t-37.5 -166.5z" />
    <glyph glyph-name="guillemotright" unicode="&#xbb;" horiz-adv-x="966" 
d="M518 434q-108 -84 -221 -177t-157 -128t-56 -35q-11 0 -20 10.5t-9 22.5q0 22 56 104t159 203q-215 255 -215 305q0 12 9 22.5t20 10.5q12 0 55.5 -34t158 -127.5t220.5 -176.5zM895 434q-109 -85 -220.5 -177.5t-155.5 -127.5t-56 -35q-11 0 -20 10.5t-9 22.5
q0 22 56 104t159 203q-215 255 -215 305q0 12 9 22.5t20 10.5q12 0 55.5 -34.5t156 -127t220.5 -176.5z" />
    <glyph glyph-name="onequarter" unicode="&#xbc;" horiz-adv-x="1763" 
d="M193 618v48q0 23 32 34l25 7q20 4 26.5 12.5t6.5 28.5v530h-136v41q0 31 37 43l152 55h113v-669q0 -20 7 -28t27 -13l23 -7q33 -10 33 -34v-48h-346zM1251 1427h142l-881 -1452h-143zM1368 0v47q0 11 8.5 21.5t18.5 13.5l18 6q17 4 22 12.5t5 28.5v70h-365v112l412 488
h110v-510h132v-90h-132v-70q0 -20 5.5 -28.5t23.5 -12.5l21 -6q10 -3 18 -13.5t8 -21.5v-47h-305zM1444 289v239v19q0 38 4 71q-20 -28 -48.5 -62.5t-35.5 -43.5l-123 -145q-24 -30 -82 -82q49 4 115 4h170z" />
    <glyph glyph-name="onehalf" unicode="&#xbd;" horiz-adv-x="1763" 
d="M193 618v48q0 23 32 34l25 7q20 4 26.5 12.5t6.5 28.5v530h-136v41q0 31 37 43l152 55h113v-669q0 -20 7 -28t27 -13l23 -7q33 -10 33 -34v-48h-346zM1251 1427h142l-881 -1452h-143zM1081 0v63q0 30 13.5 50.5t54.5 58.5l125 115q118 109 168.5 175t50.5 132
q0 53 -38 86t-99 33q-54 0 -96 -23q38 -32 38 -80q0 -38 -27.5 -61t-70.5 -23q-41 0 -67.5 27t-26.5 70q0 73 77 124.5t199 51.5q129 0 208 -59t79 -152q0 -17 -3 -33.5t-6.5 -29.5t-14 -29.5t-16 -26.5t-21.5 -27t-22.5 -24.5t-28 -26t-28.5 -24.5t-32.5 -27t-32.5 -27
l-204 -170h223q41 0 60 8t34 31l12 19q5 8 8 11.5t9.5 6t17.5 2.5h47l-14 -221h-576z" />
    <glyph glyph-name="threequarters" unicode="&#xbe;" horiz-adv-x="1763" 
d="M193 711q49 -27 100 -27q76 0 119 43.5t43 116.5q0 76 -55.5 120t-155.5 44h-8v77q90 0 140 37t50 99q0 55 -34.5 87.5t-90.5 32.5q-35 0 -72 -18q9 -31 9 -41q0 -32 -22.5 -52t-59.5 -20q-38 0 -60 20.5t-22 53.5q0 57 66.5 95t174.5 38q130 0 204.5 -51.5t74.5 -136.5
q0 -141 -209 -176q120 -19 184 -75t64 -142q0 -104 -88 -167t-240 -63q-124 0 -197 44.5t-73 113.5q0 38 26.5 62t65.5 24q40 0 64 -23t24 -61q0 -33 -22 -55zM1251 1427h142l-881 -1452h-143zM1368 0v47q0 11 8.5 21.5t18.5 13.5l18 6q17 4 22 12.5t5 28.5v70h-365v112
l412 488h110v-510h132v-90h-132v-70q0 -20 5.5 -28.5t23.5 -12.5l21 -6q10 -3 18 -13.5t8 -21.5v-47h-305zM1444 289v239v19q0 38 4 71q-20 -28 -48.5 -62.5t-35.5 -43.5l-123 -145q-24 -30 -82 -82q49 4 115 4h170z" />
    <glyph glyph-name="questiondown" unicode="&#xbf;" horiz-adv-x="882" 
d="M672 1374q0 -71 -50 -120.5t-122 -49.5q-70 0 -120 50t-50 120q0 72 49.5 122t120.5 50q70 0 121 -51t51 -121zM561 1053q0 -8 1 -26t1 -26q0 -157 -55 -270q-9 -18 -42 -83t-43.5 -89t-30 -72t-26 -86t-6.5 -77q0 -85 43.5 -137t110.5 -52q36 0 64 17q-33 53 -33 104
q0 60 44 103.5t109 43.5q59 0 100.5 -45.5t41.5 -117.5q0 -96 -111 -180.5t-266 -84.5q-169 0 -273 100t-104 242q0 49 13.5 94.5t42 90.5t58 83t74.5 91q8 9 13.5 15.5t11.5 13.5q71 81 104 151.5t33 171.5v25h125z" />
    <glyph glyph-name="Agrave" unicode="&#xc0;" horiz-adv-x="1406" 
d="M-25 0v78q0 39 31 53l47 21q53 21 111 159l391 922l-57 123q-4 6 -4 20t11 23t36 22t41 25l43 33q16 12 32.5 29.5t26 26.5t18.5 9q11 0 16.5 -6t12.5 -20l576 -1307q21 -47 49 -61l30 -15q30 -14 36 -26q5 -9 5 -23v-86h-534v78q0 38 31 53l47 25q7 3 13.5 13t6.5 19
q0 26 -12 54l-57 131h-557l-56 -129q-14 -31 -14 -49q0 -13 8 -25.5t19 -17.5l32 -17q30 -15 36 -25q5 -9 5 -22v-88h-420zM434 535h422l-213 503zM764 1612l-305 125q-66 28 -66 82q0 35 23.5 58.5t58.5 23.5q17 0 33 -6.5t24.5 -13t26.5 -21.5l285 -248h-80z" />
    <glyph glyph-name="Aacute" unicode="&#xc1;" horiz-adv-x="1406" 
d="M-25 0v78q0 39 31 53l47 21q53 21 111 159l391 922l-57 123q-4 6 -4 20t11 23t36 22t41 25l43 33q16 12 32.5 29.5t26 26.5t18.5 9q11 0 16.5 -6t12.5 -20l576 -1307q21 -47 49 -61l30 -15q30 -14 36 -26q5 -9 5 -23v-86h-534v78q0 38 31 53l47 25q7 3 13.5 13t6.5 19
q0 26 -12 54l-57 131h-557l-56 -129q-14 -31 -14 -49q0 -13 8 -25.5t19 -17.5l32 -17q30 -15 36 -25q5 -9 5 -22v-88h-420zM434 535h422l-213 503zM604 1612h-80l285 248q18 15 26.5 21.5t24.5 13t33 6.5q35 0 58.5 -23.5t23.5 -58.5q0 -54 -66 -82z" />
    <glyph glyph-name="Acircumflex" unicode="&#xc2;" horiz-adv-x="1406" 
d="M-25 0v78q0 39 31 53l47 21q53 21 111 159l391 922l-57 123q-4 6 -4 20t11 23t36 22t41 25l43 33q16 12 32.5 29.5t26 26.5t18.5 9q11 0 16.5 -6t12.5 -20l576 -1307q21 -47 49 -61l30 -15q30 -14 36 -26q5 -9 5 -23v-86h-534v78q0 38 31 53l47 25q7 3 13.5 13t6.5 19
q0 26 -12 54l-57 131h-557l-56 -129q-14 -31 -14 -49q0 -13 8 -25.5t19 -17.5l32 -17q30 -15 36 -25q5 -9 5 -22v-88h-420zM434 535h422l-213 503zM385 1614l207 272h182l207 -272h-78l-219 131l-221 -131h-78z" />
    <glyph glyph-name="Atilde" unicode="&#xc3;" horiz-adv-x="1406" 
d="M-25 0v78q0 39 31 53l47 21q53 21 111 159l391 922l-57 123q-4 6 -4 20t11 23t36 22t41 25l43 33q16 12 32.5 29.5t26 26.5t18.5 9q11 0 16.5 -6t12.5 -20l576 -1307q21 -47 49 -61l30 -15q30 -14 36 -26q5 -9 5 -23v-86h-534v78q0 38 31 53l47 25q7 3 13.5 13t6.5 19
q0 26 -12 54l-57 131h-557l-56 -129q-14 -31 -14 -49q0 -13 8 -25.5t19 -17.5l32 -17q30 -15 36 -25q5 -9 5 -22v-88h-420zM434 535h422l-213 503zM461 1614h-66q34 233 209 233q33 0 64 -8l108 -29q21 -6 39 -6q63 0 90 82h66q-37 -231 -211 -231q-25 0 -49 6l-105 29
q-33 8 -53 8q-65 0 -92 -84z" />
    <glyph glyph-name="Adieresis" unicode="&#xc4;" horiz-adv-x="1406" 
d="M-25 0v78q0 39 31 53l47 21q53 21 111 159l391 922l-57 123q-4 6 -4 20t11 23t36 22t41 25l43 33q16 12 32.5 29.5t26 26.5t18.5 9q11 0 16.5 -6t12.5 -20l576 -1307q21 -47 49 -61l30 -15q30 -14 36 -26q5 -9 5 -23v-86h-534v78q0 38 31 53l47 25q7 3 13.5 13t6.5 19
q0 26 -12 54l-57 131h-557l-56 -129q-14 -31 -14 -49q0 -13 8 -25.5t19 -17.5l32 -17q30 -15 36 -25q5 -9 5 -22v-88h-420zM434 535h422l-213 503zM389 1749q0 46 35.5 80.5t81.5 34.5q47 0 82 -34.5t35 -80.5q0 -49 -33.5 -83t-83.5 -34q-48 0 -82.5 34t-34.5 83zM745 1749
q0 46 35.5 80.5t81.5 34.5q47 0 82 -34.5t35 -80.5q0 -49 -33.5 -83t-83.5 -34q-48 0 -82.5 34t-34.5 83z" />
    <glyph glyph-name="Aring" unicode="&#xc5;" horiz-adv-x="1406" 
d="M496 1767q0 86 59 145.5t145 59.5q85 0 144 -59.5t59 -145.5q0 -84 -59.5 -143t-143.5 -59q-85 0 -144.5 59.5t-59.5 142.5zM602 1767q0 -41 28.5 -69.5t69.5 -28.5q40 0 69.5 29t29.5 69t-29 70.5t-70 30.5q-42 0 -70 -29.5t-28 -71.5zM-25 0v76q0 41 31 53l47 18
q51 21 111 158l391 903l-57 123q-4 12 -4 17q0 14 11 23t36 21.5t41 24.5l43 33q16 12 33.5 29t27.5 25.5t19 8.5q4 0 7 -1t5 -2t4 -4t3 -5l3.5 -7l3.5 -7l576 -1280q19 -45 49 -60l30 -14q30 -14 36 -26q5 -9 5 -23v-84h-534v76q0 38 31 53l47 23q20 8 20 32q0 26 -12 54
l-57 129h-557l-56 -127q-14 -32 -14 -50q0 -28 27 -43l32 -14q30 -15 36 -25q5 -9 5 -22v-86h-420zM434 524h422l-213 494z" />
    <glyph glyph-name="AE" unicode="&#xc6;" horiz-adv-x="1951" 
d="M559 788h303v572zM1563 1518q76 0 221 12v-367h-62q-31 0 -43 10.5t-28 45.5q-35 77 -81 107t-138 30h-279v-500h133q72 0 98 37l29 39q26 35 38 42q13 7 28 7h67v-412h-67q-16 0 -28.5 7.5t-18 14t-19.5 25.5l-29 41q-26 37 -98 37h-133v-530h393q57 0 104 31t72 86
q5 11 13.5 31t12 27.5t11 19.5t14.5 16t18 8t26 4h63v-387h-1135v74q0 47 41 61l31 12q27 10 36 25.5t9 48.5v408h-389l-203 -385q-14 -25 -14 -49q0 -32 25 -43l34 -17q30 -15 36 -25q5 -9 5 -22v-88h-419v78q0 41 28 53l47 21q49 20 129 172l502 944q16 29 16 53
q0 20 -9.5 30.5t-31.5 18.5l-30 12q-41 14 -41 62v74h1016z" />
    <glyph glyph-name="Ccedilla" unicode="&#xc7;" horiz-adv-x="1374" 
d="M1243 381l62 -66q10 -10 10 -34q0 -31 -21 -57.5t-73 -73.5q-102 -90 -214 -133.5t-249 -43.5q-275 0 -455 183q-227 235 -227 577q0 323 192 563q96 119 221 182.5t259 63.5q74 0 141.5 -17t105.5 -37t69.5 -37t43.5 -17q10 0 22 4l25 10q40 14 53 14h52v-399h-62
q-10 0 -17.5 1t-13 2.5t-11 6.5t-8.5 7.5t-8.5 12t-8.5 15t-10.5 20t-12.5 23.5q-121 223 -311 223q-169 0 -285.5 -170.5t-116.5 -453.5q0 -271 116.5 -430.5t303.5 -159.5q109 0 211.5 54.5t216.5 166.5zM537 -340l38 80q69 -35 122.5 -51.5t113.5 -16.5q37 0 60.5 21
t23.5 55q0 78 -94 78q-19 0 -62 -6v180h68v-102q47 6 70 6q75 0 122.5 -43.5t47.5 -112.5q0 -76 -57.5 -119t-162.5 -43q-61 0 -125 18t-165 56z" />
    <glyph glyph-name="Egrave" unicode="&#xc8;" horiz-adv-x="1261" 
d="M80 0v74q0 47 41 61l31 12q27 10 35 25t8 49v1075q0 34 -8 49t-35 25l-31 12q-41 14 -41 62v74h827q76 0 221 12v-367h-53q-35 0 -51.5 12t-30.5 44q-33 76 -80.5 106.5t-138.5 30.5h-278v-500h133q72 0 98 37l29 39q2 3 7 10t7 9.5t6.5 8t7 7.5t7.5 5.5t9 5t9.5 2.5
t11.5 1h68v-412h-68q-16 0 -28.5 7.5t-17 13.5l-19.5 26l-29 41q-26 37 -98 37h-133v-530h393q57 0 104 31t72 86q5 10 15.5 35.5t14.5 32.5t14 19.5t21.5 15.5t28.5 3h64v-387h-1143zM692 1612l-305 125q-65 27 -65 82q0 35 23 58.5t58 23.5q17 0 33 -6.5t24.5 -13
t26.5 -21.5l285 -248h-80z" />
    <glyph glyph-name="Eacute" unicode="&#xc9;" horiz-adv-x="1261" 
d="M80 0v74q0 47 41 61l31 12q27 10 35 25t8 49v1075q0 34 -8 49t-35 25l-31 12q-41 14 -41 62v74h827q76 0 221 12v-367h-53q-35 0 -51.5 12t-30.5 44q-33 76 -80.5 106.5t-138.5 30.5h-278v-500h133q72 0 98 37l29 39q2 3 7 10t7 9.5t6.5 8t7 7.5t7.5 5.5t9 5t9.5 2.5
t11.5 1h68v-412h-68q-16 0 -28.5 7.5t-17 13.5l-19.5 26l-29 41q-26 37 -98 37h-133v-530h393q57 0 104 31t72 86q5 10 15.5 35.5t14.5 32.5t14 19.5t21.5 15.5t28.5 3h64v-387h-1143zM532 1612h-79l284 248q18 15 26.5 21.5t24.5 13t33 6.5q35 0 58.5 -23.5t23.5 -58.5
q0 -55 -65 -82z" />
    <glyph glyph-name="Ecircumflex" unicode="&#xca;" horiz-adv-x="1261" 
d="M80 0v74q0 47 41 61l31 12q27 10 35 25t8 49v1075q0 34 -8 49t-35 25l-31 12q-41 14 -41 62v74h827q76 0 221 12v-367h-53q-35 0 -51.5 12t-30.5 44q-33 76 -80.5 106.5t-138.5 30.5h-278v-500h133q72 0 98 37l29 39q2 3 7 10t7 9.5t6.5 8t7 7.5t7.5 5.5t9 5t9.5 2.5
t11.5 1h68v-412h-68q-16 0 -28.5 7.5t-17 13.5l-19.5 26l-29 41q-26 37 -98 37h-133v-530h393q57 0 104 31t72 86q5 10 15.5 35.5t14.5 32.5t14 19.5t21.5 15.5t28.5 3h64v-387h-1143zM313 1614l207 272h182l207 -272h-78l-219 131l-221 -131h-78z" />
    <glyph glyph-name="Edieresis" unicode="&#xcb;" horiz-adv-x="1261" 
d="M80 0v74q0 47 41 61l31 12q27 10 35 25t8 49v1075q0 34 -8 49t-35 25l-31 12q-41 14 -41 62v74h827q76 0 221 12v-367h-53q-35 0 -51.5 12t-30.5 44q-33 76 -80.5 106.5t-138.5 30.5h-278v-500h133q72 0 98 37l29 39q2 3 7 10t7 9.5t6.5 8t7 7.5t7.5 5.5t9 5t9.5 2.5
t11.5 1h68v-412h-68q-16 0 -28.5 7.5t-17 13.5l-19.5 26l-29 41q-26 37 -98 37h-133v-530h393q57 0 104 31t72 86q5 10 15.5 35.5t14.5 32.5t14 19.5t21.5 15.5t28.5 3h64v-387h-1143zM317 1749q0 46 35.5 80.5t81.5 34.5q47 0 82 -34.5t35 -80.5q0 -49 -33.5 -83t-83.5 -34
q-48 0 -82.5 34t-34.5 83zM674 1749q0 46 35.5 80.5t81.5 34.5q47 0 81.5 -34.5t34.5 -80.5q0 -50 -33.5 -83.5t-82.5 -33.5q-48 0 -82.5 34t-34.5 83z" />
    <glyph glyph-name="Igrave" unicode="&#xcc;" horiz-adv-x="716" 
d="M90 0v74q0 47 41 61l29 12q27 10 36 25.5t9 48.5v1075q0 33 -9 48.5t-36 25.5l-29 12q-41 14 -41 62v74h537v-74q0 -47 -43 -62l-29 -12q-27 -10 -36 -25.5t-9 -48.5v-1075q0 -33 9 -48.5t36 -25.5l29 -12q43 -15 43 -61v-74h-537zM438 1612l-305 125q-65 27 -65 82
q0 35 23.5 58.5t58.5 23.5q17 0 33 -6.5t23.5 -12.5t26.5 -22l285 -248h-80z" />
    <glyph glyph-name="Iacute" unicode="&#xcd;" horiz-adv-x="716" 
d="M90 0v74q0 47 41 61l29 12q27 10 36 25.5t9 48.5v1075q0 33 -9 48.5t-36 25.5l-29 12q-41 14 -41 62v74h537v-74q0 -47 -43 -62l-29 -12q-27 -10 -36 -25.5t-9 -48.5v-1075q0 -33 9 -48.5t36 -25.5l29 -12q43 -15 43 -61v-74h-537zM279 1612h-80l284 248q18 15 26.5 21.5
t24.5 13t33 6.5q35 0 58.5 -23.5t23.5 -58.5q0 -55 -65 -82z" />
    <glyph glyph-name="Icircumflex" unicode="&#xce;" horiz-adv-x="716" 
d="M90 0v74q0 47 41 61l29 12q27 10 36 25.5t9 48.5v1075q0 33 -9 48.5t-36 25.5l-29 12q-41 14 -41 62v74h537v-74q0 -47 -43 -62l-29 -12q-27 -10 -36 -25.5t-9 -48.5v-1075q0 -33 9 -48.5t36 -25.5l29 -12q43 -15 43 -61v-74h-537zM59 1614l207 272h183l206 -272h-77
l-220 131l-221 -131h-78z" />
    <glyph glyph-name="Idieresis" unicode="&#xcf;" horiz-adv-x="716" 
d="M90 0v74q0 47 41 61l29 12q27 10 36 25.5t9 48.5v1075q0 33 -9 48.5t-36 25.5l-29 12q-41 14 -41 62v74h537v-74q0 -47 -43 -62l-29 -12q-27 -10 -36 -25.5t-9 -48.5v-1075q0 -33 9 -48.5t36 -25.5l29 -12q43 -15 43 -61v-74h-537zM63 1749q0 46 35.5 80.5t81.5 34.5
q47 0 82 -34.5t35 -80.5q0 -49 -33.5 -83t-83.5 -34q-48 0 -82.5 34t-34.5 83zM420 1749q0 46 35.5 80.5t81.5 34.5q47 0 81.5 -34.5t34.5 -80.5q0 -50 -33.5 -83.5t-82.5 -33.5q-48 0 -82.5 34t-34.5 83z" />
    <glyph glyph-name="Eth" unicode="&#xd0;" horiz-adv-x="1529" 
d="M90 0v74q0 47 41 61l31 12q27 10 35 25t8 49v488h-205v137h205v450q0 34 -8 49t-35 25l-31 12q-41 14 -41 62v74h465q179 0 307.5 -21.5t229.5 -77.5q168 -94 264 -269.5t96 -395.5q0 -182 -75 -340.5t-208 -259.5q-117 -90 -257 -122t-343 -32h-479zM506 162
q25 -2 72 -2q278 0 418.5 151.5t140.5 450.5q0 291 -136 443.5t-391 152.5q-10 0 -104 -4v-508h330v-137h-330v-547z" />
    <glyph glyph-name="Ntilde" unicode="&#xd1;" horiz-adv-x="1484" 
d="M80 0v74q0 47 41 61l31 12q27 10 35 25t8 49v1075q0 33 -6.5 48.5t-30.5 25.5l-27 12q-35 16 -35 62v74h418l606 -940q-6 47 -6 143v575q0 33 -9 48.5t-36 25.5l-29 12q-43 15 -43 62v74h416v-74q0 -48 -41 -62l-29 -12q-27 -10 -36 -25.5t-9 -48.5v-1296h-141l-786 1219
q10 -113 10 -146v-852q0 -34 8 -49t35 -25l31 -12q41 -14 41 -61v-74h-416zM532 1614h-65q34 233 209 233q32 0 63 -8l109 -29q21 -6 39 -6q63 0 90 82h65q-19 -116 -70.5 -173.5t-140.5 -57.5q-25 0 -49 6l-104 29q-33 8 -53 8q-66 0 -93 -84z" />
    <glyph glyph-name="Ograve" unicode="&#xd2;" horiz-adv-x="1568" 
d="M76 762q0 229 89 407.5t250 277.5t369 99t370 -99t250.5 -277.5t88.5 -407.5q0 -172 -52 -318t-144.5 -249.5t-225 -161.5t-287.5 -58q-207 0 -368.5 99.5t-250.5 279t-89 408.5zM393 762q0 -315 98.5 -474t292.5 -159t293 159.5t99 473.5t-99 472.5t-293 158.5
q-193 0 -292 -158.5t-99 -472.5zM864 1612l-305 125q-65 27 -65 82q0 35 23 58.5t58 23.5q17 0 33 -6.5t24.5 -13t26.5 -21.5l285 -248h-80z" />
    <glyph glyph-name="Oacute" unicode="&#xd3;" horiz-adv-x="1568" 
d="M76 762q0 229 89 407.5t250 277.5t369 99t370 -99t250.5 -277.5t88.5 -407.5q0 -172 -52 -318t-144.5 -249.5t-225 -161.5t-287.5 -58q-207 0 -368.5 99.5t-250.5 279t-89 408.5zM393 762q0 -315 98.5 -474t292.5 -159t293 159.5t99 473.5t-99 472.5t-293 158.5
q-193 0 -292 -158.5t-99 -472.5zM705 1612h-80l284 248q18 15 26.5 21.5t24.5 13t33 6.5q35 0 58.5 -23.5t23.5 -58.5q0 -55 -65 -82z" />
    <glyph glyph-name="Ocircumflex" unicode="&#xd4;" horiz-adv-x="1568" 
d="M76 762q0 229 89 407.5t250 277.5t369 99t370 -99t250.5 -277.5t88.5 -407.5q0 -172 -52 -318t-144.5 -249.5t-225 -161.5t-287.5 -58q-207 0 -368.5 99.5t-250.5 279t-89 408.5zM393 762q0 -315 98.5 -474t292.5 -159t293 159.5t99 473.5t-99 472.5t-293 158.5
q-193 0 -292 -158.5t-99 -472.5zM485 1614l207 272h182l207 -272h-77l-220 131l-221 -131h-78z" />
    <glyph glyph-name="Otilde" unicode="&#xd5;" horiz-adv-x="1568" 
d="M76 762q0 229 89 407.5t250 277.5t369 99t370 -99t250.5 -277.5t88.5 -407.5q0 -172 -52 -318t-144.5 -249.5t-225 -161.5t-287.5 -58q-207 0 -368.5 99.5t-250.5 279t-89 408.5zM393 762q0 -315 98.5 -474t292.5 -159t293 159.5t99 473.5t-99 472.5t-293 158.5
q-193 0 -292 -158.5t-99 -472.5zM561 1614h-65q34 233 209 233q32 0 63 -8l109 -29q21 -6 38 -6q64 0 91 82h65q-37 -231 -211 -231q-25 0 -49 6l-104 29q-33 8 -54 8q-65 0 -92 -84z" />
    <glyph glyph-name="Odieresis" unicode="&#xd6;" horiz-adv-x="1568" 
d="M76 762q0 229 89 407.5t250 277.5t369 99t370 -99t250.5 -277.5t88.5 -407.5q0 -172 -52 -318t-144.5 -249.5t-225 -161.5t-287.5 -58q-207 0 -368.5 99.5t-250.5 279t-89 408.5zM393 762q0 -315 98.5 -474t292.5 -159t293 159.5t99 473.5t-99 472.5t-293 158.5
q-193 0 -292 -158.5t-99 -472.5zM489 1749q0 46 35.5 80.5t81.5 34.5q47 0 82 -34.5t35 -80.5q0 -49 -33.5 -83t-83.5 -34q-48 0 -82.5 34t-34.5 83zM846 1749q0 46 35.5 80.5t81.5 34.5q47 0 81.5 -34.5t34.5 -80.5q0 -50 -33.5 -83.5t-82.5 -33.5q-48 0 -82.5 34t-34.5 83
z" />
    <glyph glyph-name="multiply" unicode="&#xd7;" horiz-adv-x="1705" 
d="M416 1202l450 -450l451 450l141 -139l-450 -453l450 -450l-141 -140l-451 451l-450 -451l-140 140l451 450l-451 453z" />
    <glyph glyph-name="Oslash" unicode="&#xd8;" horiz-adv-x="1568" 
d="M168 -90l149 242q-241 232 -241 606q0 228 89 406t250.5 277t368.5 99q202 0 363 -94l90 143h152l-140 -219q244 -232 244 -612q0 -171 -52 -316.5t-144.5 -247.5t-225 -159.5t-287.5 -57.5q-206 0 -364 95l-101 -162h-151zM453 365l587 915q-103 109 -256 109
q-194 0 -292.5 -159t-98.5 -472q0 -116 12 -208.5t48 -184.5zM1114 1159l-588 -919q102 -111 258 -111q194 0 293 158t99 471q0 239 -62 401z" />
    <glyph glyph-name="Ugrave" unicode="&#xd9;" horiz-adv-x="1550" 
d="M78 1518h514v-74q0 -48 -37 -62l-29 -12q-25 -10 -33 -25t-8 -49v-657q0 -113 9 -183.5t41 -129.5q40 -74 118.5 -117t177.5 -43q89 0 164 34.5t121 94.5q44 58 60 144t16 225v632q0 33 -8.5 48.5t-32.5 25.5l-27 12q-37 14 -37 62v74h381v-74q0 -49 -36 -62l-27 -12
q-25 -10 -32 -25.5t-7 -48.5v-663q0 -167 -28.5 -277t-114.5 -204q-160 -177 -439 -177q-298 0 -449 173t-151 516v632q0 34 -8 49t-33 25l-26 12q-39 14 -39 62v74zM893 1612l-305 125q-66 28 -66 82q0 35 23.5 58.5t58.5 23.5q17 0 33 -6.5t24.5 -13t26.5 -21.5l285 -248
h-80z" />
    <glyph glyph-name="Uacute" unicode="&#xda;" horiz-adv-x="1550" 
d="M78 1518h514v-74q0 -48 -37 -62l-29 -12q-25 -10 -33 -25t-8 -49v-657q0 -113 9 -183.5t41 -129.5q40 -74 118.5 -117t177.5 -43q89 0 164 34.5t121 94.5q44 58 60 144t16 225v632q0 33 -8.5 48.5t-32.5 25.5l-27 12q-37 14 -37 62v74h381v-74q0 -49 -36 -62l-27 -12
q-25 -10 -32 -25.5t-7 -48.5v-663q0 -167 -28.5 -277t-114.5 -204q-160 -177 -439 -177q-298 0 -449 173t-151 516v632q0 34 -8 49t-33 25l-26 12q-39 14 -39 62v74zM733 1612h-80l285 248q18 15 26.5 21.5t24.5 13t33 6.5q35 0 58.5 -23.5t23.5 -58.5q0 -54 -66 -82z" />
    <glyph glyph-name="Ucircumflex" unicode="&#xdb;" horiz-adv-x="1550" 
d="M78 1518h514v-74q0 -48 -37 -62l-29 -12q-25 -10 -33 -25t-8 -49v-657q0 -113 9 -183.5t41 -129.5q40 -74 118.5 -117t177.5 -43q89 0 164 34.5t121 94.5q44 58 60 144t16 225v632q0 33 -8.5 48.5t-32.5 25.5l-27 12q-37 14 -37 62v74h381v-74q0 -49 -36 -62l-27 -12
q-25 -10 -32 -25.5t-7 -48.5v-663q0 -167 -28.5 -277t-114.5 -204q-160 -177 -439 -177q-298 0 -449 173t-151 516v632q0 34 -8 49t-33 25l-26 12q-39 14 -39 62v74zM514 1614l207 272h182l207 -272h-78l-219 131l-221 -131h-78z" />
    <glyph glyph-name="Udieresis" unicode="&#xdc;" horiz-adv-x="1550" 
d="M78 1518h514v-74q0 -48 -37 -62l-29 -12q-25 -10 -33 -25t-8 -49v-657q0 -113 9 -183.5t41 -129.5q40 -74 118.5 -117t177.5 -43q89 0 164 34.5t121 94.5q44 58 60 144t16 225v632q0 33 -8.5 48.5t-32.5 25.5l-27 12q-37 14 -37 62v74h381v-74q0 -49 -36 -62l-27 -12
q-25 -10 -32 -25.5t-7 -48.5v-663q0 -167 -28.5 -277t-114.5 -204q-160 -177 -439 -177q-298 0 -449 173t-151 516v632q0 34 -8 49t-33 25l-26 12q-39 14 -39 62v74zM518 1749q0 46 35.5 80.5t81.5 34.5q47 0 82 -34.5t35 -80.5q0 -49 -34 -83t-83 -34q-48 0 -82.5 34
t-34.5 83zM874 1749q0 46 35.5 80.5t81.5 34.5q47 0 82 -34.5t35 -80.5q0 -49 -34 -83t-83 -34q-48 0 -82.5 34t-34.5 83z" />
    <glyph glyph-name="Yacute" unicode="&#xdd;" horiz-adv-x="1294" 
d="M385 0v74q0 46 43 61l29 12q27 10 36 25.5t9 48.5v465l-369 600q-31 52 -74 74l-34 18q-25 12 -37.5 26t-12.5 38v76h582v-72q0 -16 -10 -32t-27 -25l-28 -15q-27 -14 -27 -49q0 -19 14 -41l240 -405l246 411q18 29 18 43q0 23 -16 29l-35 16q-47 21 -47 60v80h440v-78
q0 -41 -37 -56l-43 -18q-17 -7 -43 -32t-47 -60l-352 -574v-479q0 -34 8 -49t35 -25l31 -12q41 -14 41 -61v-74h-533zM567 1612h-80l285 248q18 15 26.5 21.5t24.5 13t33 6.5q35 0 58.5 -23.5t23.5 -58.5q0 -54 -66 -82z" />
    <glyph glyph-name="Thorn" unicode="&#xde;" horiz-adv-x="1298" 
d="M80 74q0 47 41 61l31 12q27 10 35 25t8 49v1075q0 34 -8 49t-35 25l-31 12q-41 14 -41 62v74h532v-74q0 -47 -43 -62l-28 -12q-27 -10 -36 -25.5t-9 -48.5v-106h168q577 0 577 -416q0 -210 -141 -317t-420 -107h-184v-129q0 -33 9 -48.5t36 -25.5l28 -12q43 -15 43 -61
v-74h-532v74zM496 1030v-518h84q177 0 263.5 60t86.5 190q0 140 -83 204t-255 64h-96z" />
    <glyph glyph-name="germandbls" unicode="&#xdf;" horiz-adv-x="1251" 
d="M70 0v55q0 21 10 38.5t24 23.5l25 10q23 10 30 26t7 50v518h-92v70q0 21 9 38t23 23l25 10q15 7 24 19.5t13.5 36t6.5 45t4.5 64t6.5 77.5q26 218 130 325t290 107q170 0 266.5 -90.5t96.5 -249.5q0 -169 -121 -223q-11 -5 -29.5 -13t-27 -11.5t-21 -10t-18.5 -11.5
t-12 -12.5t-8.5 -16t-2.5 -19.5q0 -18 10 -34.5t33 -34t46 -32t64 -40t72 -46.5q131 -90 191.5 -176.5t60.5 -200.5q0 -151 -100.5 -247.5t-265.5 -96.5q-157 0 -251.5 70t-94.5 176q0 56 35.5 92.5t93.5 36.5q59 0 95 -36t36 -95q0 -38 -27 -65q46 -35 102 -35q64 0 102 34
t38 93q0 30 -12.5 59t-29 51.5t-52 53t-63.5 51.5t-81 59q-111 77 -161 140.5t-50 158.5q0 29 6 51t22 41t28 29.5t38 30.5q56 44 72 89t16 138q0 207 -145 207q-77 0 -104 -46.5t-27 -148.5v-1206h-356z" />
    <glyph glyph-name="agrave" unicode="&#xe0;" horiz-adv-x="1019" 
d="M637 94q-110 -119 -272 -119q-137 0 -218 69.5t-81 182.5q0 307 530 342v15q0 77 -42 124.5t-105 47.5q-20 0 -66 -8q-4 -73 -41 -114.5t-96 -41.5q-54 0 -83.5 31.5t-29.5 87.5q0 75 84 129.5t219 54.5q202 0 309 -94t107 -273v-247q0 -70 16.5 -96.5t65.5 -26.5
q21 0 45 8l33 -45q6 -8 6 -27q0 -34 -57.5 -75.5t-135.5 -41.5q-133 0 -188 117zM596 438q-266 -6 -266 -192q0 -55 30 -85t84 -30q73 0 112.5 40t39.5 118v149zM571 963l-305 124q-65 27 -65 82q0 35 23.5 58.5t58.5 23.5q17 0 33 -6.5t24.5 -13t26.5 -21.5l284 -247h-80z
" />
    <glyph glyph-name="aacute" unicode="&#xe1;" horiz-adv-x="1019" 
d="M637 94q-110 -119 -272 -119q-137 0 -218 69.5t-81 182.5q0 307 530 342v15q0 77 -42 124.5t-105 47.5q-20 0 -66 -8q-4 -73 -41 -114.5t-96 -41.5q-54 0 -83.5 31.5t-29.5 87.5q0 75 84 129.5t219 54.5q202 0 309 -94t107 -273v-247q0 -70 16.5 -96.5t65.5 -26.5
q21 0 45 8l33 -45q6 -8 6 -27q0 -34 -57.5 -75.5t-135.5 -41.5q-133 0 -188 117zM596 438q-266 -6 -266 -192q0 -55 30 -85t84 -30q73 0 112.5 40t39.5 118v149zM412 963h-80l284 247q18 15 26.5 21.5t24.5 13t33 6.5q35 0 58.5 -23.5t23.5 -58.5q0 -55 -65 -82z" />
    <glyph glyph-name="acircumflex" unicode="&#xe2;" horiz-adv-x="1019" 
d="M637 94q-110 -119 -272 -119q-137 0 -218 69.5t-81 182.5q0 307 530 342v15q0 77 -42 124.5t-105 47.5q-20 0 -66 -8q-4 -73 -41 -114.5t-96 -41.5q-54 0 -83.5 31.5t-29.5 87.5q0 75 84 129.5t219 54.5q202 0 309 -94t107 -273v-247q0 -70 16.5 -96.5t65.5 -26.5
q21 0 45 8l33 -45q6 -8 6 -27q0 -34 -57.5 -75.5t-135.5 -41.5q-133 0 -188 117zM596 438q-266 -6 -266 -192q0 -55 30 -85t84 -30q73 0 112.5 40t39.5 118v149zM193 965l206 272h183l206 -272h-77l-219 131l-222 -131h-77z" />
    <glyph glyph-name="atilde" unicode="&#xe3;" horiz-adv-x="1019" 
d="M637 94q-110 -119 -272 -119q-137 0 -218 69.5t-81 182.5q0 307 530 342v15q0 77 -42 124.5t-105 47.5q-20 0 -66 -8q-4 -73 -41 -114.5t-96 -41.5q-54 0 -83.5 31.5t-29.5 87.5q0 75 84 129.5t219 54.5q202 0 309 -94t107 -273v-247q0 -70 16.5 -96.5t65.5 -26.5
q21 0 45 8l33 -45q6 -8 6 -27q0 -34 -57.5 -75.5t-135.5 -41.5q-133 0 -188 117zM596 438q-266 -6 -266 -192q0 -55 30 -85t84 -30q73 0 112.5 40t39.5 118v149zM268 965h-65q34 233 209 233q32 0 63 -8l109 -29q21 -6 39 -6q63 0 90 82h65q-37 -231 -211 -231q-25 0 -49 6
l-104 28q-38 9 -54 9q-65 0 -92 -84z" />
    <glyph glyph-name="adieresis" unicode="&#xe4;" horiz-adv-x="1019" 
d="M637 94q-110 -119 -272 -119q-137 0 -218 69.5t-81 182.5q0 307 530 342v15q0 77 -42 124.5t-105 47.5q-20 0 -66 -8q-4 -73 -41 -114.5t-96 -41.5q-54 0 -83.5 31.5t-29.5 87.5q0 75 84 129.5t219 54.5q202 0 309 -94t107 -273v-247q0 -70 16.5 -96.5t65.5 -26.5
q21 0 45 8l33 -45q6 -8 6 -27q0 -34 -57.5 -75.5t-135.5 -41.5q-133 0 -188 117zM596 438q-266 -6 -266 -192q0 -55 30 -85t84 -30q73 0 112.5 40t39.5 118v149zM197 1100q0 46 35 80t81 34q47 0 82 -34t35 -80q0 -50 -34 -83.5t-83 -33.5q-48 0 -82 34t-34 83zM553 1100
q0 45 35.5 79.5t81.5 34.5q47 0 81.5 -34t34.5 -80q0 -50 -33.5 -83.5t-82.5 -33.5q-48 0 -82.5 34t-34.5 83z" />
    <glyph glyph-name="aring" unicode="&#xe5;" horiz-adv-x="1019" 
d="M637 94q-110 -119 -272 -119q-137 0 -218 69.5t-81 182.5q0 307 530 342v15q0 77 -42 124.5t-105 47.5q-20 0 -66 -8q-4 -73 -41 -114.5t-96 -41.5q-54 0 -83.5 31.5t-29.5 87.5q0 75 84 129.5t219 54.5q202 0 309 -94t107 -273v-247q0 -70 16.5 -96.5t65.5 -26.5
q21 0 45 8l33 -45q6 -8 6 -27q0 -34 -57.5 -75.5t-135.5 -41.5q-133 0 -188 117zM596 440q-266 -6 -266 -192q0 -56 29.5 -86.5t84.5 -30.5q73 0 112.5 40.5t39.5 119.5v149zM287 1161q0 86 59.5 145.5t145.5 59.5q85 0 143.5 -59.5t58.5 -145.5q0 -85 -59 -144t-143 -59
q-85 0 -145 60t-60 143zM391 1161q0 -41 28.5 -69.5t69.5 -28.5q40 0 70.5 29.5t30.5 68.5q0 40 -30 69.5t-71 29.5q-42 0 -70 -28.5t-28 -70.5z" />
    <glyph glyph-name="ae" unicode="&#xe6;" horiz-adv-x="1509" 
d="M676 135q-129 -160 -311 -160q-139 0 -219 70t-80 184q0 154 133.5 241.5t396.5 102.5v11q0 76 -42 122t-105 46q-14 0 -66 -9q-4 -74 -41 -114.5t-96 -40.5q-54 0 -83.5 31.5t-29.5 87.5q0 78 86 131t234 53q92 0 159.5 -26t128.5 -87q120 113 283 113q190 0 311 -117
t121 -305v-29h-610q1 -149 64.5 -226t183.5 -77q85 0 149 32t121 103l66 -55q12 -12 12 -27q0 -31 -62 -84q-79 -69 -152.5 -100t-180.5 -31q-123 0 -218 42t-153 118zM596 440q-266 -6 -266 -188q0 -58 29 -89.5t83 -31.5q72 0 113 47t41 133v129zM852 573h338
q-3 86 -47 132.5t-117 46.5q-70 0 -117 -46.5t-57 -132.5z" />
    <glyph glyph-name="ccedilla" unicode="&#xe7;" horiz-adv-x="944" 
d="M813 276l68 -63q14 -11 14 -29q0 -21 -31.5 -56t-82 -69t-124 -59t-147.5 -25q-198 0 -323.5 128.5t-125.5 324.5q0 202 134 333.5t342 131.5q139 0 224 -62.5t85 -160.5q0 -63 -35.5 -99t-99.5 -36q-62 0 -97.5 38t-35.5 107q0 19 10 61q-6 0 -20 1t-21 1
q-95 0 -155 -83t-60 -226q0 -131 65.5 -209t167.5 -78q125 0 248 129zM289 -340l39 80q69 -35 122 -51.5t113 -16.5q37 0 60.5 21t23.5 55q0 78 -94 78q-17 0 -61 -6v180h67v-102q47 6 70 6q75 0 122.5 -43.5t47.5 -112.5q0 -76 -57 -119t-162 -43q-61 0 -125.5 18
t-165.5 56z" />
    <glyph glyph-name="egrave" unicode="&#xe8;" horiz-adv-x="1005" 
d="M858 272l68 -55q12 -12 12 -27q0 -29 -64 -84q-79 -69 -153 -100t-178 -31q-215 0 -347.5 126.5t-132.5 330.5q0 196 132 327.5t329 131.5q187 0 307.5 -118.5t120.5 -307.5v-29h-610q1 -146 65 -222.5t183 -76.5q84 0 146 31.5t122 103.5zM358 575h326
q-4 86 -46.5 133.5t-111.5 47.5q-67 0 -111.5 -47t-56.5 -134zM610 963l-305 124q-65 27 -65 82q0 35 23.5 58.5t58.5 23.5q17 0 33 -6.5t24.5 -13t26.5 -21.5l284 -247h-80z" />
    <glyph glyph-name="eacute" unicode="&#xe9;" horiz-adv-x="1005" 
d="M858 272l68 -55q12 -12 12 -27q0 -29 -64 -84q-79 -69 -153 -100t-178 -31q-215 0 -347.5 126.5t-132.5 330.5q0 196 132 327.5t329 131.5q187 0 307.5 -118.5t120.5 -307.5v-29h-610q1 -146 65 -222.5t183 -76.5q84 0 146 31.5t122 103.5zM358 575h326
q-4 86 -46.5 133.5t-111.5 47.5q-67 0 -111.5 -47t-56.5 -134zM451 963h-80l284 247q18 15 26.5 21.5t24.5 13t33 6.5q35 0 58.5 -23.5t23.5 -58.5q0 -55 -65 -82z" />
    <glyph glyph-name="ecircumflex" unicode="&#xea;" horiz-adv-x="1005" 
d="M858 272l68 -55q12 -12 12 -27q0 -29 -64 -84q-79 -69 -153 -100t-178 -31q-215 0 -347.5 126.5t-132.5 330.5q0 196 132 327.5t329 131.5q187 0 307.5 -118.5t120.5 -307.5v-29h-610q1 -146 65 -222.5t183 -76.5q84 0 146 31.5t122 103.5zM358 575h326
q-4 86 -46.5 133.5t-111.5 47.5q-67 0 -111.5 -47t-56.5 -134zM231 965l207 272h183l206 -272h-77l-220 131l-221 -131h-78z" />
    <glyph glyph-name="edieresis" unicode="&#xeb;" horiz-adv-x="1005" 
d="M858 272l68 -55q12 -12 12 -27q0 -29 -64 -84q-79 -69 -153 -100t-178 -31q-215 0 -347.5 126.5t-132.5 330.5q0 196 132 327.5t329 131.5q187 0 307.5 -118.5t120.5 -307.5v-29h-610q1 -146 65 -222.5t183 -76.5q84 0 146 31.5t122 103.5zM358 575h326
q-4 86 -46.5 133.5t-111.5 47.5q-67 0 -111.5 -47t-56.5 -134zM236 1100q0 46 35 80t81 34q47 0 82 -34t35 -80q0 -50 -33.5 -83.5t-83.5 -33.5q-48 0 -82 34t-34 83zM592 1100q0 45 35.5 79.5t81.5 34.5q47 0 81.5 -34t34.5 -80q0 -50 -33.5 -83.5t-82.5 -33.5
q-48 0 -82.5 34t-34.5 83z" />
    <glyph glyph-name="igrave" unicode="&#xec;" horiz-adv-x="602" 
d="M74 0v55q0 21 10.5 38.5t24.5 23.5l24 10q23 10 30 26t7 50v463q0 32 -5.5 47t-25.5 26l-20 13q-31 16 -31 61v55l348 19v-684q0 -32 6.5 -49t28.5 -27l23 -10q13 -6 22.5 -23.5t9.5 -38.5v-55h-452zM375 963l-305 124q-66 28 -66 82q0 35 23.5 58.5t58.5 23.5
q17 0 33 -6.5t24.5 -13t26.5 -21.5l285 -247h-80z" />
    <glyph glyph-name="iacute" unicode="&#xed;" horiz-adv-x="602" 
d="M74 0v55q0 21 10.5 38.5t24.5 23.5l24 10q23 10 30 26t7 50v463q0 32 -5.5 47t-25.5 26l-20 13q-31 16 -31 61v55l348 19v-684q0 -32 6.5 -49t28.5 -27l23 -10q13 -6 22.5 -23.5t9.5 -38.5v-55h-452zM215 963h-80l285 247q18 15 26.5 21.5t24.5 13t33 6.5
q35 0 58.5 -23.5t23.5 -58.5q0 -54 -66 -82z" />
    <glyph glyph-name="icircumflex" unicode="&#xee;" horiz-adv-x="602" 
d="M74 0v55q0 21 10.5 38.5t24.5 23.5l24 10q23 10 30 26t7 50v463q0 32 -5.5 47t-25.5 26l-20 13q-31 16 -31 61v55l348 19v-684q0 -32 6.5 -49t28.5 -27l23 -10q13 -6 22.5 -23.5t9.5 -38.5v-55h-452zM-4 965l207 272h182l207 -272h-78l-219 131l-221 -131h-78z" />
    <glyph glyph-name="idieresis" unicode="&#xef;" horiz-adv-x="602" 
d="M74 0v55q0 21 10.5 38.5t24.5 23.5l24 10q23 10 30 26t7 50v463q0 32 -5.5 47t-25.5 26l-20 13q-31 16 -31 61v55l348 19v-684q0 -32 6.5 -49t28.5 -27l23 -10q13 -6 22.5 -23.5t9.5 -38.5v-55h-452zM0 1100q0 45 35.5 79.5t81.5 34.5q47 0 81.5 -34t34.5 -80
q0 -50 -33.5 -83.5t-82.5 -33.5q-48 0 -82.5 34t-34.5 83zM356 1100q0 45 35.5 79.5t81.5 34.5q47 0 82 -34t35 -80q0 -50 -34 -83.5t-83 -33.5q-48 0 -82.5 34t-34.5 83z" />
    <glyph glyph-name="eth" unicode="&#xf0;" horiz-adv-x="1052" 
d="M670 872q-40 133 -142 289l-276 -166l-47 78l270 162q-86 108 -207 229l72 56q124 -95 246 -211l288 174l52 -78l-271 -166q336 -358 336 -762q0 -240 -123.5 -371t-341.5 -131q-210 0 -337.5 127t-127.5 332q0 204 129.5 330.5t335.5 126.5q51 0 144 -19zM526 752
q-90 0 -140 -80t-50 -228q0 -327 190 -327q93 0 142 80.5t49 236.5q0 155 -49.5 236.5t-141.5 81.5z" />
    <glyph glyph-name="ntilde" unicode="&#xf1;" horiz-adv-x="1155" 
d="M70 0v55q0 21 10 38.5t24 23.5l25 10q23 10 30 26t7 50v463q0 32 -5.5 47t-25.5 26l-22 13q-12 6 -20.5 23t-8.5 38v55l334 19v-43q0 -55 -6 -78q120 129 288 129q153 0 225 -92.5t72 -282.5v-317q0 -34 7 -50t30 -26l27 -10q14 -6 23.5 -23.5t9.5 -38.5v-55h-439v55
q0 47 29 62l23 10q20 11 25 26.5t5 49.5v329q0 97 -31.5 144t-99.5 47q-92 0 -180 -88v-432q0 -32 6.5 -48.5t26.5 -27.5l20 -10q29 -15 29 -62v-55h-438zM344 965h-65q34 233 208 233q33 0 64 -8l108 -29q21 -6 39 -6q63 0 90 82h66q-19 -116 -70.5 -173.5t-140.5 -57.5
q-25 0 -49 6l-105 28q-38 9 -53 9q-65 0 -92 -84z" />
    <glyph glyph-name="ograve" unicode="&#xf2;" horiz-adv-x="1052" 
d="M61 434q0 204 129.5 330.5t335.5 126.5t335.5 -126t129.5 -331t-127.5 -332t-337.5 -127q-209 0 -337 127t-128 332zM336 434q0 -155 49 -236t141 -81q93 0 142 80.5t49 236.5t-49 237t-142 81q-91 0 -140.5 -81t-49.5 -237zM606 963l-305 124q-65 27 -65 82
q0 35 23 58.5t58 23.5q17 0 33 -6.5t24.5 -13t26.5 -21.5l285 -247h-80z" />
    <glyph glyph-name="oacute" unicode="&#xf3;" horiz-adv-x="1052" 
d="M61 434q0 204 129.5 330.5t335.5 126.5t335.5 -126t129.5 -331t-127.5 -332t-337.5 -127q-209 0 -337 127t-128 332zM336 434q0 -155 49 -236t141 -81q93 0 142 80.5t49 236.5t-49 237t-142 81q-91 0 -140.5 -81t-49.5 -237zM446 963h-79l284 247q18 15 26.5 21.5
t24.5 13t33 6.5q35 0 58.5 -23.5t23.5 -58.5q0 -55 -65 -82z" />
    <glyph glyph-name="ocircumflex" unicode="&#xf4;" horiz-adv-x="1052" 
d="M61 434q0 204 129.5 330.5t335.5 126.5t335.5 -126t129.5 -331t-127.5 -332t-337.5 -127q-209 0 -337 127t-128 332zM336 434q0 -155 49 -236t141 -81q93 0 142 80.5t49 236.5t-49 237t-142 81q-91 0 -140.5 -81t-49.5 -237zM227 965l207 272h182l207 -272h-78l-219 131
l-221 -131h-78z" />
    <glyph glyph-name="otilde" unicode="&#xf5;" horiz-adv-x="1052" 
d="M61 434q0 204 129.5 330.5t335.5 126.5t335.5 -126t129.5 -331t-127.5 -332t-337.5 -127q-209 0 -337 127t-128 332zM336 434q0 -155 49 -236t141 -81q93 0 142 80.5t49 236.5t-49 237t-142 81q-91 0 -140.5 -81t-49.5 -237zM303 965h-65q34 233 208 233q33 0 64 -8
l108 -29q21 -6 39 -6q64 0 91 82h65q-37 -231 -211 -231q-25 0 -49 6l-104 28q-37 9 -54 9q-65 0 -92 -84z" />
    <glyph glyph-name="odieresis" unicode="&#xf6;" horiz-adv-x="1052" 
d="M61 434q0 204 129.5 330.5t335.5 126.5t335.5 -126t129.5 -331t-127.5 -332t-337.5 -127q-209 0 -337 127t-128 332zM336 434q0 -155 49 -236t141 -81q93 0 142 80.5t49 236.5t-49 237t-142 81q-91 0 -140.5 -81t-49.5 -237zM231 1100q0 45 35.5 79.5t81.5 34.5
q47 0 82 -34t35 -80q0 -50 -33.5 -83.5t-83.5 -33.5q-48 0 -82.5 34t-34.5 83zM588 1100q0 45 35.5 79.5t81.5 34.5q47 0 81.5 -34t34.5 -80q0 -50 -33.5 -83.5t-82.5 -33.5q-48 0 -82.5 34t-34.5 83z" />
    <glyph glyph-name="divide" unicode="&#xf7;" horiz-adv-x="1705" 
d="M854 1155q62 0 107 -44t45 -107q0 -62 -44 -107t-108 -45q-63 0 -107.5 44.5t-44.5 107.5q0 64 45 107.5t107 43.5zM254 711h1198v-199h-1198v199zM854 369q62 0 107 -44.5t45 -107.5q0 -60 -44.5 -104.5t-107.5 -44.5t-107.5 43t-44.5 106q0 64 45 108t107 44z" />
    <glyph glyph-name="oslash" unicode="&#xf8;" horiz-adv-x="1052" 
d="M90 -76l117 162q-146 134 -146 348q0 205 129.5 331t335.5 126q130 0 236 -53l69 96h121l-108 -152q147 -129 147 -348q0 -205 -127.5 -332t-337.5 -127q-122 0 -237 56l-78 -107h-121zM346 274l313 422q-54 62 -133 62q-96 0 -146 -82.5t-50 -241.5q0 -97 16 -160z
M705 596l-312 -424q49 -63 133 -63q96 0 146.5 83t50.5 242q0 96 -18 162z" />
    <glyph glyph-name="ugrave" unicode="&#xf9;" horiz-adv-x="1148" 
d="M743 111q-118 -127 -290 -127q-153 0 -225 92t-72 282v308q0 31 -5.5 46.5t-25.5 26.5l-21 13q-28 16 -28 61v55l342 19v-543q0 -96 31.5 -143t99.5 -47q88 0 178 90v422q0 32 -5.5 47t-25.5 26l-20 13q-31 16 -31 61v55l344 19v-684q0 -34 6 -50t27 -26l22 -10
q13 -6 23 -23.5t10 -38.5v-55l-342 -18v51q0 47 8 78zM639 963l-305 124q-66 28 -66 82q0 35 23.5 58.5t58.5 23.5q17 0 33 -6.5t24.5 -13t26.5 -21.5l285 -247h-80z" />
    <glyph glyph-name="uacute" unicode="&#xfa;" horiz-adv-x="1148" 
d="M743 111q-118 -127 -290 -127q-153 0 -225 92t-72 282v308q0 31 -5.5 46.5t-25.5 26.5l-21 13q-28 16 -28 61v55l342 19v-543q0 -96 31.5 -143t99.5 -47q88 0 178 90v422q0 32 -5.5 47t-25.5 26l-20 13q-31 16 -31 61v55l344 19v-684q0 -34 6 -50t27 -26l22 -10
q13 -6 23 -23.5t10 -38.5v-55l-342 -18v51q0 47 8 78zM479 963h-80l285 247q18 15 26.5 21.5t24.5 13t33 6.5q35 0 58.5 -23.5t23.5 -58.5q0 -54 -66 -82z" />
    <glyph glyph-name="ucircumflex" unicode="&#xfb;" horiz-adv-x="1148" 
d="M743 111q-118 -127 -290 -127q-153 0 -225 92t-72 282v308q0 31 -5.5 46.5t-25.5 26.5l-21 13q-28 16 -28 61v55l342 19v-543q0 -96 31.5 -143t99.5 -47q88 0 178 90v422q0 32 -5.5 47t-25.5 26l-20 13q-31 16 -31 61v55l344 19v-684q0 -34 6 -50t27 -26l22 -10
q13 -6 23 -23.5t10 -38.5v-55l-342 -18v51q0 47 8 78zM260 965l207 272h182l207 -272h-78l-219 131l-221 -131h-78z" />
    <glyph glyph-name="udieresis" unicode="&#xfc;" horiz-adv-x="1148" 
d="M743 111q-118 -127 -290 -127q-153 0 -225 92t-72 282v308q0 31 -5.5 46.5t-25.5 26.5l-21 13q-28 16 -28 61v55l342 19v-543q0 -96 31.5 -143t99.5 -47q88 0 178 90v422q0 32 -5.5 47t-25.5 26l-20 13q-31 16 -31 61v55l344 19v-684q0 -34 6 -50t27 -26l22 -10
q13 -6 23 -23.5t10 -38.5v-55l-342 -18v51q0 47 8 78zM264 1100q0 45 35.5 79.5t81.5 34.5q47 0 82 -34t35 -80q0 -50 -34 -83.5t-83 -33.5q-48 0 -82.5 34t-34.5 83zM621 1100q0 46 35 80t81 34q47 0 82 -34t35 -80q0 -50 -34 -83.5t-83 -33.5q-48 0 -82 34t-34 83z" />
    <glyph glyph-name="yacute" unicode="&#xfd;" horiz-adv-x="954" 
d="M123 664q-10 26 -21.5 38.5t-35.5 26.5l-29 16q-37 19 -37 68v55h469v-55q0 -45 -31 -61l-20 -13q-27 -15 -27 -34q0 -16 8 -35l105 -273q34 -91 45 -125q54 174 57 183l92 217q4 12 4 18q0 34 -38 49l-27 13q-15 6 -25 23t-10 38v55h383v-55q0 -40 -43 -61l-33 -17
q-10 -5 -18.5 -12t-15 -13t-13.5 -16.5t-11 -16t-10.5 -19.5t-8.5 -19t-8.5 -21t-8.5 -20l-276 -647q-77 -181 -164 -263.5t-211 -82.5q-77 0 -123.5 43.5t-46.5 111.5q0 56 33 92.5t84 36.5q30 0 54 -13t37 -28t29.5 -28t32.5 -13q37 0 70 44t78 143zM397 963h-80l285 247
q18 15 26.5 21.5t24.5 13t33 6.5q35 0 58.5 -23.5t23.5 -58.5q0 -54 -66 -82z" />
    <glyph glyph-name="thorn" unicode="&#xfe;" horiz-adv-x="1103" 
d="M59 -338q0 21 10.5 38.5t24.5 23.5l25 10q23 10 30 25.5t7 47.5v1508q0 33 -5.5 48.5t-25.5 25.5l-21 12q-30 15 -30 61v56l344 18v-672q0 -16 -3.5 -44.5t-4.5 -35.5q107 107 239 107q171 0 282 -127.5t111 -327.5q0 -194 -111 -323t-282 -129q-144 0 -239 98
q8 -45 8 -94v-181q0 -32 5.5 -47t25.5 -26l20 -10q13 -6 22 -23.5t9 -38.5v-55h-441v55zM418 649v-432q76 -72 157 -72q89 0 142 77t53 216q0 137 -52 212t-143 75q-84 0 -157 -76z" />
    <glyph glyph-name="ydieresis" unicode="&#xff;" horiz-adv-x="954" 
d="M123 664q-10 26 -21.5 38.5t-35.5 26.5l-29 16q-37 19 -37 68v55h469v-55q0 -45 -31 -61l-20 -13q-27 -15 -27 -34q0 -16 8 -35l105 -273q34 -91 45 -125q54 174 57 183l92 217q4 12 4 18q0 34 -38 49l-27 13q-15 6 -25 23t-10 38v55h383v-55q0 -40 -43 -61l-33 -17
q-10 -5 -18.5 -12t-15 -13t-13.5 -16.5t-11 -16t-10.5 -19.5t-8.5 -19t-8.5 -21t-8.5 -20l-276 -647q-77 -181 -164 -263.5t-211 -82.5q-77 0 -123.5 43.5t-46.5 111.5q0 56 33 92.5t84 36.5q30 0 54 -13t37 -28t29.5 -28t32.5 -13q37 0 70 44t78 143zM182 1100
q0 45 35.5 79.5t81.5 34.5q47 0 82 -34t35 -80q0 -50 -34 -83.5t-83 -33.5q-48 0 -82.5 34t-34.5 83zM539 1100q0 46 35 80t81 34q47 0 82 -34t35 -80q0 -50 -34 -83.5t-83 -33.5q-48 0 -82 34t-34 83z" />
    <glyph glyph-name="dotlessi" unicode="&#x131;" horiz-adv-x="602" 
d="M74 0v55q0 21 10.5 38.5t24.5 23.5l24 10q23 10 30 26t7 50v463q0 32 -5.5 47t-25.5 26l-20 13q-31 16 -31 61v55l348 19v-684q0 -32 6.5 -49t28.5 -27l23 -10q13 -6 22.5 -23.5t9.5 -38.5v-55h-452z" />
    <glyph glyph-name="Lslash" unicode="&#x141;" horiz-adv-x="1247" 
d="M90 0v74q0 47 41 61l29 12q27 10 36 25.5t9 48.5v340l-205 -143v162l205 145v571q0 33 -9 48.5t-36 25.5l-29 12q-41 14 -41 62v74h549v-74q0 -48 -47 -62l-35 -12q-30 -9 -40.5 -24.5t-10.5 -49.5v-403l393 272v-166l-393 -274v-561h393q56 0 104 31t72 86
q5 10 15.5 35.5t14.5 32.5t14 19.5t21.5 15.5t28.5 3h64v-395q-226 8 -285 8h-858z" />
    <glyph glyph-name="lslash" unicode="&#x142;" horiz-adv-x="616" 
d="M78 0v55q0 21 10.5 38.5t24.5 23.5l26 10q23 10 30 26t7 50v393l-176 -121v107l176 125v608q0 31 -6 47t-27 27l-20 12q-29 15 -29 61v56l346 18v-686l176 123v-111l-176 -125v-534q0 -32 6.5 -49t28.5 -27l25 -10q12 -6 21 -23.5t9 -38.5v-55h-452z" />
    <glyph glyph-name="OE" unicode="&#x152;" horiz-adv-x="2166" 
d="M2124 0h-893q-118 0 -272.5 -10t-192.5 -10q-197 0 -354 98t-246.5 276t-89.5 404q0 228 88 405t249.5 276t370.5 99q27 0 175 -10t272 -10h577q77 0 222 12v-367h-62q-32 0 -45.5 10.5t-28.5 45.5q-35 77 -81 107t-138 30h-278v-500h133q72 0 98 37l29 39q2 3 7 10
t7 9.5t6.5 8t7 7.5t7.5 5.5t9 5t9.5 2.5t11.5 1h68v-412h-68q-16 0 -28.5 7.5t-17 13.5l-19.5 26l-29 41q-26 37 -98 37h-133v-530h393q57 0 104 31t72 86q5 10 15.5 35.5t14.5 32.5t14 19.5t21.5 15.5t28.5 3h64v-387zM1104 358v801q0 63 -9.5 102t-35.5 64q-31 30 -95 51
t-137 21q-223 0 -328.5 -155.5t-105.5 -479.5q0 -320 100.5 -476.5t307.5 -156.5q71 0 136.5 16.5t98.5 38.5q44 28 56 65.5t12 108.5z" />
    <glyph glyph-name="oe" unicode="&#x153;" horiz-adv-x="1642" 
d="M844 111q-115 -136 -318 -136q-210 0 -337.5 127t-127.5 332t129.5 331t335.5 126q207 0 326 -137q65 71 138.5 104t168.5 33q190 0 311 -118t121 -308v-29h-610v-26q0 -127 67 -200t181 -73q84 0 146 31.5t122 103.5l68 -55q10 -10 10 -27q0 -31 -62 -84
q-85 -73 -159 -102t-189 -29q-194 0 -321 136zM336 434q0 -155 49 -236t141 -81q93 0 142 80.5t49 236.5t-49 237t-142 81q-91 0 -140.5 -81t-49.5 -237zM983 567h340q-1 90 -45.5 139.5t-118.5 49.5q-72 0 -119.5 -50t-56.5 -139z" />
    <glyph glyph-name="Scaron" unicode="&#x160;" horiz-adv-x="1175" 
d="M94 0v420h53q16 0 28 -3.5t20 -7.5t18.5 -16t16 -20t19.5 -29.5t23 -34.5q62 -90 136 -134t170 -44q123 0 203.5 77t80.5 189q0 50 -15 84t-52 59t-80.5 43t-117.5 44q-38 13 -58 20q-224 80 -325 184.5t-101 282.5q0 193 118 312.5t306 119.5q61 0 116.5 -14t92.5 -28.5
t51 -14.5t24 4l23 10q30 13 59 13h41v-400h-53q-10 0 -17.5 0.5t-14.5 3t-11 4t-9.5 7.5t-8 9t-8 13.5t-8 16.5t-10 21.5t-11.5 25.5q-82 174 -246 174q-94 0 -154.5 -53.5t-60.5 -135.5q0 -26 6 -47.5t14 -37.5t27 -31t33 -24t45.5 -22t51.5 -20t62 -21q7 -2 40 -13
t41.5 -14t37.5 -13t40 -15t35.5 -15t38.5 -17.5t33.5 -18t35.5 -22t32 -23.5q174 -135 174 -373q0 -221 -140.5 -360.5t-358.5 -139.5q-69 0 -137.5 20.5t-114.5 41t-62 20.5q-24 0 -35 -14l-16 -18q-8 -9 -24 -17t-29 -8h-68zM289 1886h78l221 -131l219 131h78l-207 -272
h-182z" />
    <glyph glyph-name="scaron" unicode="&#x161;" horiz-adv-x="843" 
d="M305 139q49 -18 92 -18q73 0 113.5 23.5t40.5 60.5q0 20 -7.5 33.5t-28 25.5t-40.5 20t-62.5 24.5t-76.5 31.5q-64 28 -102 49.5t-72 53.5t-49 73.5t-15 97.5q0 128 88.5 204.5t239.5 76.5q121 0 192.5 -48.5t71.5 -121.5q0 -55 -30.5 -86t-84.5 -31q-127 0 -133 137
q-34 17 -61 17q-43 0 -70.5 -21.5t-27.5 -50.5q0 -10 3.5 -18.5t13.5 -17t19.5 -14.5t30 -15t34.5 -15t44.5 -18.5t50.5 -20.5q44 -18 67 -28.5t58 -28.5t53.5 -32.5t41 -36.5t33.5 -45.5t18.5 -55t7.5 -68.5q0 -136 -98.5 -220.5t-264.5 -84.5q-154 0 -247 60t-93 151
q0 54 34 87.5t91 33.5q60 0 94.5 -32t34.5 -87q0 -9 -4 -45zM123 1237h78l221 -131l219 131h78l-207 -272h-182z" />
    <glyph glyph-name="Ydieresis" unicode="&#x178;" horiz-adv-x="1294" 
d="M385 0v74q0 46 43 61l29 12q27 10 36 25.5t9 48.5v465l-369 600q-31 52 -74 74l-34 18q-25 12 -37.5 26t-12.5 38v76h582v-72q0 -16 -10 -32t-27 -25l-28 -15q-27 -14 -27 -49q0 -19 14 -41l240 -405l246 411q18 29 18 43q0 23 -16 29l-35 16q-47 21 -47 60v80h440v-78
q0 -41 -37 -56l-43 -18q-17 -7 -43 -32t-47 -60l-352 -574v-479q0 -34 8 -49t35 -25l31 -12q41 -14 41 -61v-74h-533zM352 1749q0 46 35.5 80.5t81.5 34.5q47 0 82 -34.5t35 -80.5q0 -49 -34 -83t-83 -34q-48 0 -82.5 34t-34.5 83zM709 1749q0 46 35 80.5t81 34.5
q47 0 82 -34.5t35 -80.5q0 -49 -34 -83t-83 -34q-48 0 -82 34t-34 83z" />
    <glyph glyph-name="Zcaron" unicode="&#x17d;" horiz-adv-x="1312" 
d="M25 0v74q0 66 69 166l760 1116h-385q-78 0 -124.5 -23t-76.5 -80q-6 -12 -17.5 -36.5t-17 -31.5t-19.5 -14.5t-36 -7.5h-61v367q145 -12 221 -12h893v-60q0 -31 -9.5 -59.5t-19.5 -45t-35 -53.5l-768 -1130h457q84 0 132 32t79 109q3 7 9.5 24t8.5 21.5t7.5 15t9.5 13
t11 7.5t15.5 6t20.5 1h78v-399h-1202zM358 1886h78l221 -131l220 131h77l-206 -272h-183z" />
    <glyph glyph-name="zcaron" unicode="&#x17e;" horiz-adv-x="958" 
d="M47 0v45q0 52 55 123l422 553h-172q-49 0 -73.5 -11t-40.5 -46l-15 -33q-15 -35 -51 -35h-70v272h762v-61q0 -58 -33 -102l-428 -558h203q52 0 78 16.5t49 59.5l17 37q17 39 65 39h62v-299h-830zM180 1237h78l221 -131l219 131h78l-207 -272h-182z" />
    <glyph glyph-name="florin" unicode="&#x192;" horiz-adv-x="1128" 
d="M780 1268q-51 -1 -65 -70.5t-22 -271.5q-3 -76 -5 -119h246v-145h-256q-33 -536 -147 -795.5t-332 -259.5q-81 0 -131 44t-50 113q0 59 34.5 95.5t92.5 36.5q56 0 89.5 -33t39.5 -94h2q23 0 38 16.5t23.5 54.5t13 87t9 127.5t8.5 161.5t14.5 204.5t25.5 241.5h-222v145
h238q38 301 153.5 462t282.5 161q77 0 126.5 -44.5t49.5 -113.5q0 -59 -34.5 -95t-92.5 -36q-57 0 -90 32.5t-39 94.5z" />
    <glyph glyph-name="circumflex" unicode="&#x2c6;" 
d="M213 965l207 272h182l207 -272h-78l-219 131l-221 -131h-78z" />
    <glyph glyph-name="caron" unicode="&#x2c7;" 
d="M213 1237h78l221 -131l219 131h78l-207 -272h-182z" />
    <glyph glyph-name="breve" unicode="&#x2d8;" 
d="M205 1233h76q33 -107 231 -107q200 0 229 107h76q-20 -128 -99 -196t-206 -68t-207 68t-100 196z" />
    <glyph glyph-name="dotaccent" unicode="&#x2d9;" 
d="M391 1102q0 47 37 84t84 37q49 0 85 -36.5t36 -84.5q0 -51 -35 -86t-86 -35q-50 0 -85.5 35t-35.5 86z" />
    <glyph glyph-name="ring" unicode="&#x2da;" 
d="M309 1163q0 86 58.5 144.5t144.5 58.5q85 0 145 -58.5t60 -144.5q0 -84 -60.5 -144.5t-144.5 -60.5t-143.5 60.5t-59.5 144.5zM414 1163q0 -41 28.5 -70.5t69.5 -29.5q40 0 70 30t30 70t-29.5 69.5t-70.5 29.5q-42 0 -70 -28.5t-28 -70.5z" />
    <glyph glyph-name="ogonek" unicode="&#x2db;" 
d="M631 31q-162 -125 -162 -242q0 -47 26 -74.5t68 -27.5q65 0 103 65l30 -18q-72 -154 -223 -154q-65 0 -105 38.5t-40 102.5q0 78 65 158.5t189 151.5h49z" />
    <glyph glyph-name="tilde" unicode="&#x2dc;" 
d="M289 965h-66q34 233 209 233q33 0 64 -8l108 -29q21 -6 39 -6q63 0 90 82h66q-37 -231 -211 -231q-25 0 -49 6l-105 28q-37 9 -53 9q-65 0 -92 -84z" />
    <glyph glyph-name="hungarumlaut" unicode="&#x2dd;" 
d="M469 1196q14 22 23 32.5t25 19.5t36 9q31 0 51.5 -21t20.5 -52q0 -47 -45 -78l-193 -141h-68zM799 1206q15 19 23.5 28t24 17.5t32.5 8.5q33 0 54 -21.5t21 -54.5q0 -46 -55 -80l-235 -139h-68z" />
    <glyph glyph-name="endash" unicode="&#x2013;" 
d="M0 356v156h1024v-156h-1024z" />
    <glyph glyph-name="emdash" unicode="&#x2014;" horiz-adv-x="2048" 
d="M0 356v156h2048v-156h-2048z" />
    <glyph glyph-name="quoteleft" unicode="&#x2018;" horiz-adv-x="497" 
d="M252 1221q69 -6 107 -49t38 -113q0 -71 -48.5 -121.5t-121.5 -50.5t-120.5 54.5t-47.5 143.5q0 139 75 255t222 200l54 -84q-143 -113 -158 -235z" />
    <glyph glyph-name="quoteright" unicode="&#x2019;" horiz-adv-x="497" 
d="M217 1208q-69 6 -108 49.5t-39 112.5q0 71 49.5 120.5t122.5 49.5t120.5 -54t47.5 -143q0 -139 -75 -255.5t-222 -200.5l-54 86q143 113 158 235z" />
    <glyph glyph-name="quotesinglbase" unicode="&#x201a;" horiz-adv-x="497" 
d="M217 -18q-69 6 -108 50t-39 113q0 71 49.5 120.5t122.5 49.5t120.5 -53.5t47.5 -142.5q0 -139 -75 -256t-222 -201l-54 86q143 113 158 234z" />
    <glyph glyph-name="quotedblleft" unicode="&#x201c;" horiz-adv-x="944" 
d="M698 1221q69 -6 107.5 -49.5t38.5 -112.5q0 -71 -49.5 -121.5t-122.5 -50.5t-120.5 54.5t-47.5 143.5q0 139 76 255t223 200l53 -84q-143 -113 -158 -235zM252 1221q69 -6 107 -49t38 -113q0 -71 -48.5 -121.5t-121.5 -50.5t-120.5 54.5t-47.5 143.5q0 139 75 255
t222 200l54 -84q-143 -113 -158 -235z" />
    <glyph glyph-name="quotedblright" unicode="&#x201d;" horiz-adv-x="944" 
d="M217 1208q-69 6 -108 49.5t-39 112.5q0 71 49.5 120.5t122.5 49.5t120.5 -54t47.5 -143q0 -139 -75 -255.5t-222 -200.5l-54 86q143 113 158 235zM662 1208q-69 6 -107.5 49.5t-38.5 112.5q0 71 48.5 120.5t121.5 49.5q74 0 122 -54t48 -143q0 -138 -75.5 -254
t-223.5 -202l-53 86q143 113 158 235z" />
    <glyph glyph-name="quotedblbase" unicode="&#x201e;" horiz-adv-x="944" 
d="M217 -18q-69 6 -108 50t-39 113q0 71 49.5 120.5t122.5 49.5t120.5 -53.5t47.5 -142.5q0 -139 -75 -256t-222 -201l-54 86q143 113 158 234zM662 -18q-69 6 -107.5 50t-38.5 113q0 71 48.5 120.5t121.5 49.5q74 0 122 -53.5t48 -142.5q0 -139 -76 -256t-223 -201l-53 86
q143 113 158 234z" />
    <glyph glyph-name="dagger" unicode="&#x2020;" horiz-adv-x="1128" 
d="M522 -195q0 554 -112 865q112 163 112 319v19q-59 -1 -145.5 -39.5t-126.5 -38.5q-54 0 -88.5 33.5t-34.5 83.5t35.5 83t87.5 33q44 0 128.5 -38t135.5 -38h8v19q0 55 -12.5 106t-27.5 82t-27.5 65t-12.5 58q0 59 31.5 91t89.5 32t89.5 -32t31.5 -91q0 -29 -19.5 -73.5
t-39 -106t-19.5 -131.5v-19h8q51 0 136 38t129 38q52 0 87 -33t35 -83t-34.5 -83.5t-87.5 -33.5q-40 0 -127 38.5t-146 39.5v-19q0 -155 113 -319q-113 -314 -113 -865h-84z" />
    <glyph glyph-name="daggerdbl" unicode="&#x2021;" horiz-adv-x="1128" 
d="M719 670q-113 -162 -113 -326v-18q59 1 146 39t127 38q54 0 88 -33t34 -83t-35 -83.5t-87 -33.5q-44 0 -129 38t-136 38h-8v-13q0 -69 20 -130.5t40 -106.5t20 -74q0 -58 -32 -90.5t-91 -32.5q-58 0 -89.5 32t-31.5 91q0 29 20 74t40 106.5t20 130.5v13h-8
q-51 0 -135.5 -38t-128.5 -38q-52 0 -87.5 33.5t-35.5 83.5t34.5 83t88.5 33q40 0 126.5 -38t145.5 -39v18q0 165 -112 326q112 161 112 325v19q-59 -1 -145.5 -38.5t-126.5 -37.5q-54 0 -88.5 33.5t-34.5 83.5t35.5 83t87.5 33q44 0 128.5 -38.5t135.5 -38.5h8v12
q0 69 -20 130.5t-40 106.5t-20 74q0 59 31.5 91t89.5 32t89.5 -32t31.5 -91q0 -29 -19.5 -74t-39 -106.5t-19.5 -130.5v-12h8q51 0 136 38.5t129 38.5q52 0 87 -33t35 -83t-34.5 -83.5t-87.5 -33.5q-40 0 -127 37.5t-146 38.5v-19q0 -163 113 -325z" />
    <glyph glyph-name="bullet" unicode="&#x2022;" horiz-adv-x="1208" 
d="M307 762q0 123 87 209t210 86q122 0 208.5 -86t86.5 -209q0 -122 -87 -209.5t-210 -87.5t-209 87t-86 210z" />
    <glyph glyph-name="ellipsis" unicode="&#x2026;" horiz-adv-x="2048" 
d="M172 133q0 71 49 120.5t121 49.5q70 0 120 -49.5t50 -120.5q0 -72 -49.5 -122t-120.5 -50q-70 0 -120 50.5t-50 121.5zM854 133q0 71 49 120.5t121 49.5q70 0 120 -49.5t50 -120.5q0 -72 -49.5 -122t-120.5 -50q-70 0 -120 50.5t-50 121.5zM1538 133q0 71 49 120.5
t121 49.5q70 0 120 -49.5t50 -120.5q0 -72 -49.5 -122t-120.5 -50q-70 0 -120 50.5t-50 121.5z" />
    <glyph glyph-name="perthousand" unicode="&#x2030;" horiz-adv-x="2467" 
d="M57 997q0 193 93.5 311.5t244.5 118.5q150 0 243 -118t93 -312t-93 -312t-243 -118q-151 0 -244.5 118.5t-93.5 311.5zM393 1313q-67 0 -97 -70.5t-30 -222.5q0 -183 27.5 -260.5t101.5 -77.5q70 0 98.5 74t28.5 241q0 168 -28.5 242t-100.5 74zM1176 1427h141
l-803 -1452h-141zM958 406q0 193 93.5 311.5t244.5 118.5q150 0 243 -118t93 -312t-93 -312.5t-243 -118.5q-151 0 -244.5 119t-93.5 312zM1294 721q-67 0 -97 -70.5t-30 -222.5q0 -183 27.5 -260.5t101.5 -77.5q70 0 98.5 74.5t28.5 241.5q0 168 -28.5 241.5t-100.5 73.5z
M1735 406q0 193 93.5 311.5t244.5 118.5q150 0 243.5 -118t93.5 -312t-93.5 -312.5t-243.5 -118.5q-151 0 -244.5 119t-93.5 312zM2071 721q-67 0 -97 -70.5t-30 -222.5q0 -183 27.5 -260.5t101.5 -77.5q71 0 100 75t29 241q0 168 -29.5 241.5t-101.5 73.5z" />
    <glyph glyph-name="guilsinglleft" unicode="&#x2039;" horiz-adv-x="587" 
d="M72 434q108 84 220.5 176.5t156 127t55.5 34.5q10 0 19 -10.5t9 -22.5q0 -22 -55.5 -103t-159.5 -202q215 -255 215 -307q0 -12 -9 -22.5t-19 -10.5q-12 0 -56 35t-155.5 127.5t-220.5 177.5z" />
    <glyph glyph-name="guilsinglright" unicode="&#x203a;" horiz-adv-x="587" 
d="M518 434q-108 -84 -221 -177t-157 -128t-56 -35q-11 0 -20 10.5t-9 22.5q0 22 56 104t159 203q-215 255 -215 305q0 12 9 22.5t20 10.5q12 0 55.5 -34t158 -127.5t220.5 -176.5z" />
    <glyph glyph-name="fraction" unicode="&#x2044;" horiz-adv-x="342" 
d="M541 1427h141l-881 -1452h-143z" />
    <glyph glyph-name="trademark" unicode="&#x2122;" horiz-adv-x="1683" 
d="M238 1454h450l12 -192h-32q-8 78 -39 114.5t-92 36.5h-7v-420q0 -45 35 -51l31 -4v-33h-266v33l30 4q35 6 35 51v420h-10q-60 0 -89.5 -36t-37.5 -115h-33zM758 1454h211l131 -369l129 369h198v-27l-26 -4q-37 -5 -37 -51v-379q0 -46 37 -51l26 -4v-33h-253v33l30 4
q37 6 37 51v365l-156 -455h-36l-166 463v-373q0 -45 37 -51l34 -4v-33h-196v33l35 4q36 6 36 51v373q0 45 -36 51l-35 4v33z" />
    <glyph glyph-name="minus" unicode="&#x2212;" horiz-adv-x="1705" 
d="M254 713h1198v-203h-1198v203z" />
    <glyph glyph-name="fi" unicode="&#xfb01;" horiz-adv-x="1150" 
d="M70 0v55q0 21 10 38.5t24 23.5l25 10q23 10 30 26t7 50v518h-92v70q0 21 9 38t23 23l25 10q29 14 37.5 51t16 112t28.5 140q55 170 186.5 272.5t288.5 102.5q118 0 186 -55.5t68 -145.5q0 -59 -41 -101t-100 -42q-64 0 -104 40.5t-40 102.5v47q-37 11 -43 11
q-86 0 -137 -103.5t-51 -296.5v-129h190h68q47 0 70 2l231 17v-684q0 -32 6.5 -49t28.5 -27l24 -10q13 -6 22 -23.5t9 -38.5v-55h-434v55q0 21 9 38.5t22 23.5l20 10q22 11 27.5 27t5.5 49v463q0 31 -8 43t-33 12h-258v-518q0 -32 6.5 -48.5t26.5 -27.5l20 -10
q11 -6 20 -23.5t9 -38.5v-55h-438z" />
    <glyph glyph-name="fl" unicode="&#xfb02;" horiz-adv-x="1150" 
d="M70 0v55q0 21 10 38.5t24 23.5l25 10q23 10 30 26t7 50v518h-92v70q0 21 9 38t23 23l25 10q29 14 37.5 51t16 112t28.5 140q55 169 184 271t283 102q37 0 115 -12l190 12v-1335q0 -32 6.5 -49t28.5 -27l24 -10q13 -6 22 -23.5t9 -38.5v-55h-434v55q0 21 9 38.5t22 23.5
l20 10q22 11 27.5 27t5.5 49v463q0 31 -8 43t-33 12h-258v-518q0 -32 6.5 -48.5t26.5 -27.5l20 -10q11 -6 20 -23.5t9 -38.5v-55h-438zM426 868h299v351q-70 25 -70 131q0 16 2 36q-37 11 -43 11q-86 0 -137 -103.5t-51 -296.5v-129z" />
    </font>
</defs>
</svg>
