<?xml version="1.0" standalone="no"?>
<!DOCTYPE svg PUBLIC "-//W3C//DTD SVG 1.1//EN" "http://www.w3.org/Graphics/SVG/1.1/DTD/svg11.dtd" >
<svg xmlns="http://www.w3.org/2000/svg" xmlns:xlink="http://www.w3.org/1999/xlink" version="1.1">
<metadata>
Created by FontForge 20170731 at Mon Feb 15 18:20:58 2021
 By Aleksey,,,
(c) 1986, 1990, 2001, 2002 Adobe Systems Incorporated. All rights reserved.
</metadata>
<defs>
<font id="CheltenhamStd-Bold" horiz-adv-x="1146" >
  <font-face 
    font-family="ITC Cheltenham Std Book"
    font-weight="700"
    font-stretch="normal"
    units-per-em="2048"
    panose-1="2 4 8 3 6 5 5 2 4 4"
    ascent="1448"
    descent="-600"
    x-height="993"
    cap-height="1440"
    bbox="-360 -475 2445 1942"
    underline-thickness="167"
    underline-position="-375"
    unicode-range="U+0020-FB02"
  />
<missing-glyph horiz-adv-x="1024" 
d="M0 0v1434h1024v-1434h-1024zM512 809l348 522h-696zM573 717l349 -522v1044zM164 102h696l-348 523zM102 1239v-1044l349 522z" />
    <glyph glyph-name="f_i" unicode="fi" horiz-adv-x="1351" 
d="M496 870v-657q0 -45 13.5 -67.5t33 -28t38.5 -9.5t32.5 -21.5t13.5 -55.5v-31h-572v31q0 38 12 55.5t29 21.5t34.5 9.5t29.5 28t12 67.5v657h-127v31q0 36 11.5 54t28 23.5t34 11t31.5 25.5t18 58q11 111 51 188t109 122t158 65t210 20q52 0 104 -4t119.5 -18.5
t117 -37.5t84 -66.5t34.5 -100.5q0 -69 -50 -114.5t-120 -45.5q-62 0 -106.5 38.5t-44.5 99.5q0 22 10 55t10 45q0 11 -17.5 19t-43.5 11t-43 4t-31 1q-121 0 -172 -52.5t-51 -158.5v-150h297l374 15v-795q0 -45 12.5 -67.5t29.5 -28t34.5 -9.5t30 -21.5t12.5 -55.5v-31
h-555v31q0 38 11.5 55.5t28 21.5t33.5 9.5t28.5 28t11.5 67.5v551q0 73 -16 89.5t-91 16.5h-241z" />
    <glyph glyph-name="f_l" unicode="fl" horiz-adv-x="1351" 
d="M895 1397l272 43v-1227q0 -45 12 -67.5t29.5 -28t34.5 -9.5t29 -21.5t12 -55.5v-31h-561v31q0 38 12.5 55.5t30.5 21.5t35.5 9.5t30 28t12.5 67.5v913q0 42 -2.5 71t-11.5 62.5t-26 54t-47 34.5t-73 14q-95 0 -142.5 -53.5t-47.5 -149.5v-166h231v-123h-231v-657
q0 -45 13.5 -67.5t33 -28t38.5 -9.5t32.5 -21.5t13.5 -55.5v-31h-572v31q0 38 12 55.5t29 21.5t34.5 9.5t29.5 28t12 67.5v657h-127v31q0 32 9 49t23 20t30.5 8.5t31 13.5t25 35.5t12.5 74.5q4 91 42 162.5t100.5 115t140.5 66t166 22.5q153 0 272 -71z" />
    <glyph glyph-name=".notdef" horiz-adv-x="1024" 
d="M0 0v1434h1024v-1434h-1024zM512 809l348 522h-696zM573 717l349 -522v1044zM164 102h696l-348 523zM102 1239v-1044l349 522z" />
    <glyph glyph-name=".null" horiz-adv-x="0" 
 />
    <glyph glyph-name="nonmarkingreturn" horiz-adv-x="682" 
 />
    <glyph glyph-name="space" unicode=" " horiz-adv-x="573" 
 />
    <glyph glyph-name="exclam" unicode="!" horiz-adv-x="696" 
d="M348 328q72 0 123 -51t51 -123t-51 -123t-123 -51t-123 51t-51 123t51 123t123 51zM406 403h-115l-105 660q-2 12 -8 43.5t-8 44t-4 36.5t-2 50q0 92 47.5 161.5t136.5 69.5t136.5 -69.5t47.5 -161.5q0 -72 -18 -174z" />
    <glyph glyph-name="quotedbl" unicode="&#x22;" horiz-adv-x="681" 
d="M209 856h-90l-74 406q-1 7 -5 24.5t-6.5 32.5t-2.5 27q0 45 41 88t92 43q50 0 90.5 -43t40.5 -88q0 -26 -10 -84zM565 856h-90l-74 406q-1 7 -5 24.5t-6.5 32.5t-2.5 27q0 45 41 88t92 43q50 0 90.5 -43t40.5 -88q0 -26 -10 -84z" />
    <glyph glyph-name="numbersign" unicode="#" horiz-adv-x="1175" 
d="M1038 647v-194h-209l-65 -453h-182l63 453h-174l-65 -453h-181l64 453h-205v194h233l27 180h-203v195h228l61 418h178l-59 -418h176l59 418h185l-62 -418h185v-195h-211l-25 -180h182zM698 827h-176l-24 -180h174z" />
    <glyph glyph-name="dollar" unicode="$" 
d="M524 1427v209h103v-209q58 2 121.5 -14.5t119.5 -47.5t92.5 -83t36.5 -115q0 -67 -42.5 -109t-110.5 -42q-52 0 -92.5 38.5t-40.5 90.5q0 39 24.5 72t24.5 49q0 25 -24 40.5t-48.5 19t-50.5 3.5q-49 0 -93 -9t-85 -28.5t-65.5 -57t-24.5 -89.5q0 -47 23.5 -82t63 -57.5
t91 -41t108.5 -37t114 -40.5t108.5 -56t91 -79t63 -114t23.5 -157q0 -163 -126.5 -282t-301.5 -142v-245h-103v237q-60 1 -120 15.5t-115 43t-97.5 68t-68 95t-25.5 120.5q0 73 40.5 121.5t111.5 48.5q64 0 107.5 -44t43.5 -107q0 -57 -47 -91q-3 -2 -9.5 -6.5t-10 -7
t-8.5 -6.5t-8 -7t-6 -7.5t-4 -9.5t-1 -11q0 -36 45.5 -62t94 -36t83.5 -10q70 0 135.5 21.5t114.5 73.5t49 124q0 55 -23.5 96.5t-63 68t-91 48t-108.5 41t-114 41t-108.5 53.5t-91 74t-63 107.5t-23.5 148.5q0 140 113 248t268 126z" />
    <glyph glyph-name="percent" unicode="%" horiz-adv-x="1679" 
d="M412 1448q154 0 255 -89t101 -241q0 -146 -96 -242t-242 -96q-158 0 -258 93.5t-100 250.5q0 140 99 232t241 92zM416 1391q-121 0 -121 -275q0 -278 129 -278q28 0 50 12.5t34.5 36.5t20.5 47.5t11 57.5t4 54t1 48q0 297 -129 297zM1251 659q154 0 255.5 -88.5
t101.5 -240.5q0 -146 -96 -242t-242 -96q-158 0 -258.5 93.5t-100.5 250.5q0 140 99 231.5t241 91.5zM1255 602q-28 0 -50 -14t-34.5 -40.5t-20 -52t-10.5 -62t-4 -56.5t-1 -49q0 -279 129 -279q28 0 50 12.5t34.5 36.5t20 47.5t10.5 57.5t4 53.5t1 48.5q0 297 -129 297z
M1493 1440l-1157 -1440h-143l1157 1440h143z" />
    <glyph glyph-name="ampersand" unicode="&#x26;" horiz-adv-x="1679" 
d="M932 160l-397 520q-132 -76 -132 -225q0 -148 96 -253.5t242 -105.5q50 0 103 16.5t88 47.5zM1104 709v45h448v-49q0 -25 -19 -40.5t-44 -24t-53.5 -33t-42.5 -62.5q-11 -29 -30 -64.5t-34 -58.5t-43.5 -65.5t-38.5 -57.5q50 -68 116.5 -125t125.5 -57q35 0 57.5 9.5
t52.5 33.5l80 -66q-36 -63 -144 -97t-202 -34q-84 0 -165.5 32.5t-143.5 90.5q-161 -123 -406 -123q-103 0 -201 24t-183 73t-137 134t-52 195q0 37 6 70.5t20 62t28 52t39.5 45.5t44.5 38t53.5 33t55.5 28t61 25.5t60 21.5t62 21q-115 183 -115 318q0 116 67 203
t166.5 128.5t211.5 41.5q56 0 113 -11t111.5 -35.5t96.5 -59.5t67.5 -87.5t25.5 -114.5q0 -69 -32 -131t-85 -107t-113 -77t-125 -51q150 -244 299 -406q33 26 55.5 81.5t22.5 99.5q0 33 -14 49t-34.5 19.5t-40.5 6t-34 15.5t-14 41zM803 901q54 21 91.5 41t73.5 50.5t54 73
t18 97.5q0 86 -50.5 146.5t-135.5 60.5q-76 0 -123 -48t-47 -122q0 -105 119 -299z" />
    <glyph glyph-name="quotesingle" unicode="'" horiz-adv-x="493" 
d="M293 856h-90l-74 406q-14 54 -14 84q0 45 41 88t92 43q50 0 90.5 -43t40.5 -88q0 -26 -10 -84z" />
    <glyph glyph-name="parenleft" unicode="(" horiz-adv-x="696" 
d="M860 -362v-84q-127 0 -239.5 42t-195.5 113.5t-150 165t-108.5 199.5t-63 213.5t-21.5 210.5q0 102 21.5 209.5t63 213.5t108.5 199.5t150 165t195.5 113t239.5 41.5v-84q-80 0 -146 -29t-112 -77.5t-81.5 -118t-56.5 -143.5t-34.5 -162t-18.5 -166t-5 -162t5 -162
t18.5 -166t34.5 -162.5t56.5 -144.5t81.5 -118.5t112 -77.5t146 -29z" />
    <glyph glyph-name="parenright" unicode=")" horiz-adv-x="696" 
d="M-164 1356v84q127 0 239.5 -41.5t195.5 -113t150 -165t108.5 -199.5t63 -213.5t21.5 -209.5q0 -103 -21.5 -210.5t-63 -213.5t-108.5 -199.5t-150 -165t-195.5 -113.5t-239.5 -42v84q80 0 146 29t112 77.5t81.5 118.5t57 144.5t35 162.5t18.5 166t5 162t-5 162t-18.5 166
t-35 162t-57 143.5t-81.5 118t-112 77.5t-146 29z" />
    <glyph glyph-name="asterisk" unicode="*" horiz-adv-x="1228" 
d="M571 1153l-28 57q-45 130 -43 179q0 51 29 67.5t85 16.5t85.5 -16.5t29.5 -67.5q0 -13 -2.5 -29t-5.5 -30t-9 -33.5t-10 -31t-12.5 -33t-11.5 -29t-11.5 -28t-9.5 -22.5l5 -4q38 44 114.5 96.5t122.5 52.5q41 -3 66.5 -56t25.5 -99q0 -20 -8.5 -35t-25.5 -23.5
t-32.5 -13.5t-40 -7t-37.5 -2.5t-35 -0.5h-7q-1 0 -117 8l-4 -4q27 -14 57.5 -32.5t69.5 -47t64.5 -61t25.5 -60.5q0 -39 -54 -79t-95 -40q-31 0 -57 33t-42.5 87.5t-23.5 86.5t-13 66h-4q-45 -273 -135 -273q-41 0 -95 40t-54 79q0 28 25.5 60.5t64.5 61t69.5 47t57.5 32.5
l-4 4q-116 -8 -117 -8h-7q-22 0 -35 0.5t-37.5 2.5t-40 7t-32.5 13.5t-25.5 23.5t-8.5 35q0 46 25.5 99t66.5 56q46 0 122.5 -52.5t114.5 -96.5z" />
    <glyph glyph-name="plus" unicode="+" 
d="M92 414v164h400v399h163v-399h400v-164h-400v-400h-163v400h-400z" />
    <glyph glyph-name="comma" unicode="," horiz-adv-x="573" 
d="M203 -369l-70 78q44 34 84.5 73.5t76 97t32.5 104.5q-18 -4 -54 -4q-71 0 -120.5 52.5t-49.5 123.5q0 68 50.5 120t117.5 52q92 0 146.5 -75t54.5 -171q0 -124 -76.5 -239.5t-191.5 -211.5z" />
    <glyph glyph-name="hyphen" unicode="-" horiz-adv-x="491" 
d="M0 606h492v-221h-492v221z" />
    <glyph glyph-name="period" unicode="." horiz-adv-x="573" 
d="M287 328q72 0 123 -51t51 -123t-51 -123t-123 -51t-123 51t-51 123t51 123t123 51z" />
    <glyph glyph-name="slash" unicode="/" horiz-adv-x="778" 
d="M778 1477l-606 -1868h-172l606 1868h172z" />
    <glyph glyph-name="zero" unicode="0" 
d="M571 1477q118 0 209 -48t145 -123t88.5 -178.5t47 -202t12.5 -206.5q0 -87 -9 -168.5t-29 -170t-58 -161t-91 -131.5t-133 -92t-178 -33q-86 0 -158 25.5t-122.5 68.5t-90 104.5t-63.5 128.5t-39.5 145t-21.5 149t-6 147q0 104 13 202t48 199t89 175.5t143.5 122
t203.5 47.5zM573 1391q-144 0 -141 -654v-20q0 -339 33 -496q36 -172 108 -172q142 0 142 668v18q3 656 -142 656z" />
    <glyph glyph-name="one" unicode="1" 
d="M252 1241v84l332 115h202v-1258q0 -32 15.5 -47t38 -18.5t45 -6.5t38 -17t15.5 -44v-49h-639v49q0 30 17 44t41 17t48 6.5t41 18.5t17 47v1059h-211z" />
    <glyph glyph-name="two" unicode="2" 
d="M1065 0h-918v158l418 524q77 107 115.5 189.5t38.5 181.5q0 59 -11 111.5t-36 100.5t-71 76.5t-109 28.5q-42 0 -82.5 -23.5t-40.5 -62.5q0 -13 9.5 -25t23.5 -24.5t28 -28t23.5 -42.5t9.5 -62q0 -66 -44 -109t-110 -43q-77 0 -122.5 54t-45.5 133q0 145 132 242.5
t321 97.5q130 0 238 -50.5t171.5 -143.5t63.5 -208q0 -79 -31 -148t-80 -120t-119.5 -110t-140.5 -111t-153.5 -129.5t-147.5 -159.5h432q50 0 79.5 9.5t38 24.5t13.5 31.5t7.5 31.5t19.5 24.5t49 9.5h31v-428z" />
    <glyph glyph-name="three" unicode="3" 
d="M356 721v108q60 0 107.5 6.5t93.5 24.5t76.5 48.5t49.5 80.5t19 117q0 117 -52.5 194.5t-160.5 77.5q-42 0 -81 -17t-39 -54q0 -14 12.5 -30t27.5 -30t27.5 -41.5t12.5 -62.5q0 -65 -45.5 -110.5t-110.5 -45.5q-77 0 -126.5 53t-49.5 131q0 76 46 137t116.5 96.5
t145.5 54t142 18.5q68 0 134.5 -13.5t130 -42.5t112 -71t78 -104t29.5 -136q0 -146 -113.5 -231t-294.5 -99v-4q73 -4 136 -18t122 -43t101 -70.5t67 -105t25 -142.5q0 -89 -36 -163t-94.5 -123t-135.5 -83t-157 -49.5t-161 -15.5q-54 0 -109.5 9t-112.5 31t-100 54
t-70.5 82.5t-27.5 112.5q0 71 55.5 124.5t126.5 51.5q71 0 124 -44.5t53 -113.5q0 -31 -9.5 -54.5t-23.5 -35.5t-27.5 -21.5t-23 -19t-9.5 -20.5q0 -30 34 -44t69 -14q135 0 200.5 86.5t65.5 227.5q0 65 -11.5 118.5t-31 88.5t-45.5 62t-55.5 40.5t-60.5 24t-60 11
t-55.5 2.5t-45.5 -1h-4z" />
    <glyph glyph-name="four" unicode="4" 
d="M575 1085l-372 -561h372v561zM63 410v114l609 916h227v-916h193v-114h-193v-189q0 -51 12.5 -75t29.5 -27.5t34.5 -5t30 -18t12.5 -56.5v-39h-561v51q0 28 12 41.5t29.5 17.5t35 10t29.5 28.5t12 64.5v197h-512z" />
    <glyph glyph-name="five" unicode="5" 
d="M178 1440h594q32 0 49.5 6.5t23.5 16t12.5 19.5t25 16.5t51.5 6.5h35l-11 -362h-667l-8 -309q120 102 288 102q130 0 245 -58t188 -167t73 -242q0 -115 -52 -212.5t-137 -160.5t-191 -98t-216 -35q-68 0 -134.5 16.5t-127 49t-98 90t-37.5 131.5q0 68 51 117t121 49
q66 0 117 -45t51 -111q0 -28 -11 -52.5t-25 -38t-25 -28.5t-11 -26q0 -16 11.5 -28t30 -17t34.5 -7t31 -2q67 0 118.5 30t81.5 79.5t45 107.5t15 121q0 53 -8 105.5t-28 105.5t-49.5 93t-76 65t-104.5 25q-133 0 -211 -136l-95 45z" />
    <glyph glyph-name="six" unicode="6" 
d="M397 686q3 -23 5.5 -90t5 -130t13.5 -140t28 -132.5t51 -94t80 -38.5q28 0 50.5 13.5t36.5 32t24.5 50t15 56t7 62.5t3 57t0.5 51v8q0 395 -152 395q-97 0 -168 -100zM596 -37q-111 0 -202.5 40.5t-152.5 107.5t-103 157.5t-60.5 188t-18.5 200.5q0 138 24 255
t63.5 199.5t93.5 147.5t111 105t120 66.5t116 36.5t103 10q74 0 146 -26t124 -84t52 -134t-46.5 -127t-121.5 -51q-61 0 -104.5 47t-43.5 108q0 33 22.5 71.5t22.5 51.5q0 21 -22.5 33t-46.5 12q-65 0 -116 -51t-79.5 -122.5t-47 -156.5t-24.5 -143t-6 -92q107 96 244 96
q122 0 217.5 -67t145 -172.5t49.5 -225.5q0 -209 -126 -345t-333 -136z" />
    <glyph glyph-name="seven" unicode="7" 
d="M1094 1440v-140l-131 -163q-110 -136 -193.5 -342.5t-83.5 -368.5q0 -56 20.5 -149.5t20.5 -131.5q0 -85 -47.5 -133.5t-132.5 -48.5q-99 0 -151 57.5t-52 157.5q0 228 254 613l231 352h-430q-50 0 -82.5 -11t-44.5 -27.5t-21.5 -35.5t-15.5 -35.5t-25 -27.5t-52 -11h-39
v490q68 -45 166 -45h809z" />
    <glyph glyph-name="eight" unicode="8" 
d="M666 868q145 86 145 252q0 109 -62 183.5t-167 74.5q-80 0 -141.5 -58t-61.5 -138q0 -199 287 -314zM553 549l-125 59q-52 -28 -82.5 -110t-30.5 -154q0 -122 68 -202.5t188 -80.5q99 0 157 61.5t58 160.5q0 50 -19 91.5t-58 74.5t-71 53t-85 47zM848 848l-76 -43
q59 -29 99 -52.5t84.5 -58.5t70.5 -72.5t43.5 -90.5t17.5 -115q0 -53 -14.5 -109t-53.5 -119t-97.5 -112t-157 -81t-221.5 -32q-211 0 -347.5 111t-136.5 272q0 59 22 110.5t62.5 91.5t83 69t97.5 57q-111 72 -170.5 163t-59.5 214q0 129 75 228.5t188.5 148.5t240.5 49
q63 0 125.5 -13t121 -41t103.5 -68t72 -98t27 -127q0 -55 -13.5 -97t-42.5 -75t-60.5 -56.5t-82.5 -53.5z" />
    <glyph glyph-name="nine" unicode="9" 
d="M748 705q4 98 4 149q0 110 -10 198.5t-24 141.5t-35.5 92t-37.5 56t-37.5 26t-27.5 9.5t-15 0.5q-135 0 -135 -344q0 -41 3 -83.5t14 -100t28.5 -100t50.5 -73t76 -30.5q38 0 78 16t68 42zM578 1477q93 0 171 -31t132.5 -86t95 -124.5t64 -152.5t35 -164.5t11.5 -164.5
q0 -119 -22 -231t-71.5 -214.5t-120.5 -178.5t-176.5 -121.5t-233.5 -45.5q-60 0 -122 16t-117.5 47t-90.5 83t-35 116q0 77 46.5 129t121.5 52q66 0 113 -51t47 -117q0 -32 -22.5 -67t-22.5 -52q0 -30 34.5 -45t67.5 -15q48 0 87.5 21.5t66 56t47 82t32 96.5t18.5 103t9 97
t2 83q-128 -74 -241 -74q-121 0 -217 69t-145.5 175.5t-49.5 224.5q0 215 136 349.5t350 134.5z" />
    <glyph glyph-name="colon" unicode=":" horiz-adv-x="573" 
d="M287 328q72 0 123 -51t51 -123t-51 -123t-123 -51t-123 51t-51 123t51 123t123 51zM287 1022q72 0 123 -51t51 -123t-51 -123t-123 -51t-123 51t-51 123t51 123t123 51z" />
    <glyph glyph-name="semicolon" unicode=";" horiz-adv-x="573" 
d="M203 -369l-70 78q44 34 84.5 73.5t76 97t32.5 104.5q-18 -4 -54 -4q-71 0 -120.5 52.5t-49.5 123.5q0 68 50.5 120t117.5 52q92 0 146.5 -75t54.5 -171q0 -124 -76.5 -239.5t-191.5 -211.5zM276 1022q72 0 123.5 -51t51.5 -123t-51.5 -123t-123.5 -51t-123 51t-51 123
t51 123t123 51z" />
    <glyph glyph-name="less" unicode="&#x3c;" 
d="M92 414v164l963 399v-178l-733 -303l733 -303v-179z" />
    <glyph glyph-name="equal" unicode="=" 
d="M92 772h963v-164h-963v164zM92 383h963v-164h-963v164z" />
    <glyph glyph-name="greater" unicode="&#x3e;" 
d="M1055 578v-164l-963 -400v179l733 303l-733 303v178z" />
    <glyph glyph-name="question" unicode="?" horiz-adv-x="1024" 
d="M475 408h-117v116q0 64 23.5 118.5t56.5 99t66 93.5t56.5 124t23.5 167q0 98 -52.5 171t-146.5 73q-19 0 -43.5 -12.5t-24.5 -30.5q0 -13 17 -32t34 -45.5t17 -57.5q0 -72 -46.5 -123t-117.5 -51q-68 0 -116 46.5t-48 113.5q0 69 38 126t97 92t126 53.5t131 18.5
q70 0 136 -13t127.5 -42t108 -71.5t74 -106t27.5 -141.5q0 -53 -19.5 -99.5t-50 -80.5t-74 -69t-84.5 -61.5t-88 -62t-78 -66.5q-53 -53 -53 -194v-53zM416 -20q-72 0 -123 51t-51 123t51 123t123 51t123 -51t51 -123t-51 -123t-123 -51z" />
    <glyph glyph-name="at" unicode="@" horiz-adv-x="1529" 
d="M834 600l88 262q16 50 16 76q0 45 -28 78t-72 33q-55 0 -106.5 -42.5t-88 -107.5t-64.5 -140.5t-41.5 -143.5t-13.5 -115q0 -51 26 -83t79 -32q71 0 123.5 65t81.5 150zM993 1047l23 63h209l-209 -641q-2 -6 -2 -16q0 -50 51 -50q8 0 25.5 5.5t45 19.5t56.5 35t58.5 56
t53 78t38 105t14.5 134q0 113 -45 207.5t-121.5 157.5t-177.5 97.5t-213 34.5q-175 0 -318 -77t-225 -214.5t-82 -308.5q0 -178 82.5 -322t227 -224.5t323.5 -80.5q161 0 303.5 69t228.5 196h144q-101 -189 -286.5 -298.5t-403.5 -109.5q-154 0 -295.5 60.5t-243.5 162
t-162.5 241t-60.5 290.5q0 158 61 299.5t164.5 242t246 159.5t300.5 59q132 0 257.5 -47t222.5 -128.5t156.5 -201.5t59.5 -256q0 -98 -40.5 -197.5t-107 -177t-158.5 -126t-187 -48.5q-53 0 -103 24.5t-74 65.5q-44 -31 -59 -40.5t-49.5 -27.5t-64 -24t-66.5 -6
q-118 0 -194.5 91.5t-76.5 209.5q0 73 21.5 151.5t63.5 151t97.5 130t129.5 92t153 34.5q59 0 117.5 -27t91.5 -73z" />
    <glyph glyph-name="A" unicode="A" horiz-adv-x="1474" 
d="M866 414h-477l-59 -138q-31 -69 -31 -108q0 -30 14 -43t34 -14.5t40.5 -3.5t34.5 -20t14 -56v-31h-428v31q0 32 4.5 48t14 21.5t21.5 7t29 9t35.5 22.5t41.5 53t45 95l364 930l-18 47q0 1 -8.5 19t-14.5 34t-6 22q0 7 3 13t10 11t11.5 7.5t13.5 6.5t11 5l174 82
q32 19 49 19q5 0 9.5 -2t8.5 -7.5t7.5 -10t7 -13t5.5 -14t5 -15.5t5 -14l473 -1198q17 -45 40 -67t42 -25.5t36 -7t27 -21t10 -57.5v-31h-612v31q0 38 11.5 57.5t28 23t33.5 4.5t28.5 10.5t11.5 33.5q0 21 -19 65zM627 1040l-199 -512h403z" />
    <glyph glyph-name="B" unicode="B" horiz-adv-x="1351" 
d="M512 694v-579h86q61 0 103 4t92.5 20.5t81.5 46t52 84t21 131.5q0 61 -15.5 110t-43 80t-60 52.5t-71.5 32t-71 14.5t-66 4h-109zM754 0h-695v37q0 35 12 51.5t28.5 20.5t33.5 9.5t29 28t12 66.5v1014q0 43 -12 65.5t-28.5 28t-33.5 10t-29 21t-12 51.5v37h709
q70 0 133 -9.5t124.5 -33.5t105.5 -61t71 -96.5t27 -135.5q0 -75 -32 -137.5t-85.5 -103.5t-119 -65.5t-138.5 -31.5v-4q63 -1 123.5 -12.5t121.5 -39t106 -67t73.5 -103t28.5 -141.5q0 -73 -20 -132.5t-52 -100t-79 -71.5t-94.5 -48.5t-105 -28.5t-104.5 -14.5t-98 -3.5z
M512 1325v-516h63q59 0 108 12t93 39.5t69 82t25 130.5q0 61 -16.5 108t-40.5 73t-56 43t-58 22.5t-52 5.5h-135z" />
    <glyph glyph-name="C" unicode="C" horiz-adv-x="1351" 
d="M1266 1413v-397h-56q-35 0 -61.5 25.5t-43.5 64t-42.5 83.5t-55 83.5t-84.5 64t-128 25.5q-65 0 -119 -20.5t-92.5 -55t-68.5 -83t-48 -101t-30 -113.5t-16.5 -115.5t-4.5 -111.5q0 -96 14.5 -185t49.5 -176.5t87.5 -151.5t135.5 -103.5t186 -39.5q116 0 193 48t145 151
l8 12l98 -63q-179 -291 -518 -291q-224 0 -397 99t-267 275.5t-94 401.5q0 118 29 228t86.5 202.5t137.5 161.5t187 107.5t230 38.5q144 0 254 -52q17 -7 48 -22.5t48 -22t33 -6.5q20 0 30 9.5t17 29.5h109z" />
    <glyph glyph-name="D" unicode="D" horiz-adv-x="1474" 
d="M688 0h-633v37q0 35 12 51.5t28.5 20.5t33.5 9.5t29 28t12 66.5v1014q0 44 -12 66.5t-28.5 28t-33.5 9.5t-29 20.5t-12 51.5v37h680q109 0 210 -30.5t186.5 -91.5t149.5 -145t100 -198t36 -244q0 -145 -42 -267t-113 -206t-165.5 -143.5t-197.5 -87t-211 -27.5zM508 1325
v-1210h108q124 0 209.5 41t134 123t69 189t20.5 255q0 122 -19.5 220.5t-48.5 160t-71 106.5t-77 66t-77 33.5t-61 14t-38 1.5h-149z" />
    <glyph glyph-name="E" unicode="E" horiz-adv-x="1228" 
d="M512 1325v-520h137q42 0 67.5 10.5t34.5 26.5t16.5 34.5t13.5 34.5t25 26.5t52 10.5h37v-409h-55q-33 0 -50.5 15.5t-25.5 37.5t-17 44.5t-33 38t-65 15.5h-137v-575h342q60 0 100.5 14.5t60.5 38t31.5 51.5t17.5 56t14.5 51.5t27.5 38t51 14.5h49v-379h-1147v37
q0 35 12 51.5t28.5 20.5t33.5 9.5t29 28t12 66.5v1014q0 44 -12 66.5t-28.5 28t-33.5 9.5t-29 20.5t-12 51.5v37h902q97 0 165 45v-385h-61q-28 0 -47 16.5t-28.5 41.5t-25 54.5t-34 54.5t-58 41.5t-94.5 16.5h-266z" />
    <glyph glyph-name="F" unicode="F" horiz-adv-x="1105" 
d="M518 1325v-516h158q49 0 76 14.5t36 35.5t16 42.5t26.5 36t58.5 14.5h33v-409h-72q-28 0 -43 15.5t-21.5 37.5t-15 44.5t-33 38t-65.5 15.5h-160v-481q0 -45 13 -67.5t31 -28t36.5 -9.5t31.5 -21.5t13 -55.5v-31h-578v31q0 38 12 55.5t28.5 21.5t33.5 9.5t29 28t12 67.5
v1014q0 29 -4.5 48.5t-14 29.5t-17 14t-21.5 8q-15 4 -22 7t-17 11t-14.5 22t-4.5 36v37h924q98 0 166 45v-387h-62q-27 0 -44.5 17t-25 42t-21 54.5t-30.5 54.5t-55.5 42t-93.5 17h-299z" />
    <glyph glyph-name="G" unicode="G" horiz-adv-x="1556" 
d="M1358 1008h-58q-38 0 -65.5 19.5t-45 50.5t-34 69t-39 76t-53 69t-83.5 50.5t-124 19.5q-69 0 -126.5 -20.5t-98 -55.5t-72.5 -84.5t-51.5 -103.5t-32 -117t-17.5 -120.5t-5 -117.5q0 -63 4.5 -123.5t17 -130t32 -129.5t52 -116t74.5 -95.5t102.5 -63.5t132.5 -24
q119 0 168 55.5t49 164.5v131q0 61 -11 97.5t-27 47t-35.5 17t-35.5 9.5t-27 22t-11 57v30h530q-23 -21 -33.5 -53t-11 -47.5t-0.5 -59.5v-223q0 -31 1.5 -44t8.5 -28.5t23.5 -22t46.5 -9.5v-37q0 -50 -74.5 -91.5t-181 -65t-205 -36t-163.5 -12.5q-245 0 -427 84
t-285.5 255t-103.5 413q0 155 53 294.5t145.5 243t228 164t292.5 60.5q84 0 161.5 -16.5t122 -37t82.5 -37t52 -16.5q8 0 14.5 2t10 4t8 7t6 8t5 11t5.5 11h109v-405z" />
    <glyph glyph-name="H" unicode="H" horiz-adv-x="1597" 
d="M516 799h563v428q0 45 -11.5 67.5t-28.5 28t-34 9.5t-28.5 21.5t-11.5 55.5v31h567v-31q0 -38 -12 -55.5t-29 -21.5t-33.5 -9.5t-28.5 -28t-12 -67.5v-1014q0 -45 12 -67.5t28.5 -28t33.5 -9.5t29 -21.5t12 -55.5v-31h-574v31q0 38 12.5 55.5t30 21.5t35.5 9.5t30.5 28
t12.5 67.5v463h-563v-463q0 -45 12 -67.5t29 -28t33.5 -9.5t28.5 -21.5t12 -55.5v-31h-568v31q0 38 12 55.5t28.5 21.5t33.5 9.5t29 28t12 67.5v1014q0 45 -12 67.5t-28.5 28t-33.5 9.5t-29 21.5t-12 55.5v31h568v-31q0 -38 -12 -55.5t-28.5 -21.5t-33.5 -9.5t-29 -28
t-12 -67.5v-428z" />
    <glyph glyph-name="I" unicode="I" horiz-adv-x="696" 
d="M61 1440h572v-31q0 -38 -12 -55.5t-29.5 -21.5t-34.5 -9.5t-29 -28t-12 -67.5v-1014q0 -45 12 -67.5t29 -28t34.5 -9.5t29.5 -21.5t12 -55.5v-31h-572v31q0 38 12 55.5t29 21.5t34.5 9.5t29.5 28t12 67.5v1014q0 45 -12 67.5t-29 28t-34.5 9.5t-29.5 21.5t-12 55.5v31z
" />
    <glyph glyph-name="J" unicode="J" horiz-adv-x="1105" 
d="M621 324v903q0 45 -12 67.5t-29.5 28t-34.5 9.5t-29 21.5t-12 55.5v31h569v-31q0 -38 -12 -55.5t-28.5 -21.5t-33.5 -9.5t-29 -28t-12 -67.5v-879q0 -83 -27 -150.5t-83.5 -121.5t-153.5 -83.5t-229 -29.5q-75 0 -150 17t-145 51t-114 97t-44 144q0 85 50.5 143t134.5 58
q70 0 125 -50.5t55 -121.5q0 -40 -14.5 -69t-29 -49t-14.5 -38q0 -43 38 -63.5t83 -20.5q49 0 84 14.5t53.5 36.5t28.5 59.5t12.5 70t2.5 82.5z" />
    <glyph glyph-name="K" unicode="K" horiz-adv-x="1392" 
d="M836 215l-338 524v-526q0 -45 11.5 -67.5t28.5 -28t34 -9.5t28.5 -21.5t11.5 -55.5v-31h-567v31q0 38 12 55.5t28.5 21.5t33.5 9.5t29 28t12 67.5v1014q0 45 -12 67.5t-28.5 28t-33.5 9.5t-29 21.5t-12 55.5v31h567v-31q0 -38 -11.5 -55.5t-28.5 -21.5t-34 -9.5
t-28.5 -28t-11.5 -67.5v-412l397 410q53 53 53 75q0 14 -15 21t-33 10.5t-33 23t-15 54.5v31h469v-31q0 -40 -9 -56t-31 -22.5t-50 -13t-76.5 -36.5t-99.5 -83l-281 -287l459 -708q26 -41 54 -64t46.5 -28.5t34 -11t21.5 -20.5t4 -48v-31h-619v31q0 35 14 53t31 21t31 12.5
t14 29.5q0 8 -1.5 15t-5.5 15.5t-6 12.5t-8 13.5t-7 11.5z" />
    <glyph glyph-name="L" unicode="L" 
d="M1139 379v-379h-1080v37q0 35 12 51.5t29 20.5t34.5 9.5t29.5 28t12 66.5v1014q0 44 -12 66.5t-29 28t-34.5 9.5t-29.5 20.5t-12 51.5v37h588v-37q0 -30 -10 -46.5t-24.5 -20.5t-32 -9.5t-32 -12t-24.5 -28.5t-10 -59v-1112h152q95 0 160.5 14.5t97.5 38t50 51.5t25 56
t15.5 51.5t28 38t55.5 14.5h41z" />
    <glyph glyph-name="M" unicode="M" horiz-adv-x="1761" 
d="M895 526l303 914h502v-31q0 -38 -12.5 -55.5t-30 -21.5t-34.5 -9.5t-29.5 -28t-12.5 -67.5v-1014q0 -45 12.5 -67.5t29.5 -28t34.5 -9.5t30 -21.5t12.5 -55.5v-31h-572v31q0 38 12 55.5t29 21.5t33.5 9.5t28.5 28t12 67.5v961h-4l-395 -1174h-129l-391 1159h-5v-946
q0 -45 13.5 -67.5t32.5 -28t38 -9.5t32.5 -21.5t13.5 -55.5v-31h-390v31q0 38 14 55.5t33.5 21.5t39 9.5t33.5 28t14 67.5v1014q0 45 -12 67.5t-28.5 28t-33.5 9.5t-29 21.5t-12 55.5v31h504z" />
    <glyph glyph-name="N" unicode="N" horiz-adv-x="1433" 
d="M555 1440l580 -854v641q0 45 -12 67.5t-29.5 28t-34.5 9.5t-29 21.5t-12 55.5v31h358v-31q0 -38 -11.5 -55.5t-28.5 -21.5t-34 -9.5t-28.5 -28t-11.5 -67.5v-1227h-148l-792 1188v-975q0 -45 13.5 -67.5t33 -28t38.5 -9.5t32.5 -21.5t13.5 -55.5v-31h-387v31
q0 38 13.5 55.5t32 21.5t37.5 9.5t32.5 28t13.5 67.5v1014q0 45 -13.5 67.5t-32.5 28t-37.5 9.5t-32 21.5t-13.5 55.5v31h489z" />
    <glyph glyph-name="O" unicode="O" horiz-adv-x="1597" 
d="M799 -37q-217 0 -386 97.5t-260.5 269t-91.5 389.5t91.5 390.5t259.5 270t385 97.5t385.5 -97.5t260 -269t91.5 -389.5t-91 -390.5t-259 -270t-385 -97.5zM799 61q66 0 120.5 24.5t91.5 65t65.5 97.5t45 115t26.5 125t13.5 121.5t3.5 109.5q0 56 -3.5 110.5t-13.5 122
t-26.5 125.5t-45 115t-65.5 97t-92 64.5t-122 24.5q-66 0 -120.5 -24.5t-92 -65t-66 -97t-45 -114.5t-26.5 -125t-13.5 -121.5t-3.5 -109.5q0 -56 3.5 -110.5t13.5 -122t26.5 -125.5t45 -115t66 -97t92.5 -65t122 -25z" />
    <glyph glyph-name="P" unicode="P" horiz-adv-x="1310" 
d="M512 1325v-565h115q117 0 189.5 70t72.5 229q0 77 -20 131t-59 82.5t-86 40.5t-110 12h-102zM645 0h-586v37q0 35 12 51.5t28.5 20.5t33.5 9.5t29 28t12 66.5v1014q0 44 -12 66.5t-28.5 28t-33.5 9.5t-29 20.5t-12 51.5v37h705q77 0 145 -12t131 -40t108 -71t72 -108.5
t27 -147.5q0 -100 -31.5 -176.5t-81 -121t-120 -72t-138 -37t-145.5 -9.5h-219v-432q0 -37 10 -59t24.5 -28.5t32 -12t32 -9.5t24.5 -20.5t10 -46.5v-37z" />
    <glyph glyph-name="Q" unicode="Q" horiz-adv-x="1597" 
d="M1456 -135l12 -21q31 -39 31 -57q0 -48 -93 -98.5t-210 -50.5q-70 0 -131 17t-107 45.5t-87 63.5t-78 72t-72 69.5t-77 59t-85 37.5q-114 29 -204.5 94.5t-144.5 143.5t-89.5 171t-48.5 171t-13 149q0 215 93 385t262 265.5t385 95.5q215 0 382 -94.5t258 -263t91 -382.5
q0 -216 -89 -386.5t-254 -266.5t-378 -92v-4q89 -9 163.5 -30.5t122.5 -44.5t89 -45.5t82 -37t84 -14.5q34 0 57.5 11t48.5 38zM793 1380q-64 0 -118 -23.5t-90.5 -61.5t-65.5 -91.5t-45.5 -109t-27.5 -119.5t-14.5 -117.5t-3.5 -107.5t4 -109.5t15 -122t28 -125.5
t46 -115.5t66 -97t90.5 -65.5t117.5 -25q75 0 135.5 29.5t99 81.5t65.5 113.5t41 136.5t19.5 139t5.5 131q0 57 -3.5 112.5t-14 122.5t-27 125t-45 114t-66 96t-92 64.5t-120.5 24.5z" />
    <glyph glyph-name="R" unicode="R" horiz-adv-x="1392" 
d="M512 1325v-541h96q287 0 287 283q0 56 -15.5 101.5t-38.5 74t-52 47.5t-54 27t-47 8h-176zM512 670v-457q0 -44 12 -66.5t29 -28t33.5 -9.5t28.5 -20.5t12 -51.5v-37h-568v37q0 35 12 51.5t28.5 20.5t33.5 9.5t29 28t12 66.5v1014q0 44 -12 66.5t-28.5 28t-33.5 9.5
t-29 20.5t-12 51.5v37h809q47 0 97 -11t102 -37.5t93 -65.5t67 -100t26 -136q0 -83 -27 -147.5t-69.5 -104t-100 -65t-114 -35t-117.5 -9.5h-55v-4q78 -5 128 -27.5t79 -56.5t72 -106l227 -375q20 -33 45.5 -46.5t42.5 -13t29 -13.5t12 -50v-37h-447l-282 514q-2 3 -12.5 22
t-14.5 26t-15 25t-18 26.5t-18.5 21.5t-21.5 19t-22 11t-24 5h-18z" />
    <glyph glyph-name="S" unicode="S" horiz-adv-x="1105" 
d="M33 381h80q19 0 34.5 -16.5t29 -43.5t30 -59t44 -64.5t64 -59.5t96 -43.5t134.5 -16.5q102 0 174 62t72 173q0 54 -25.5 97.5t-68 73.5t-98 56t-117 50.5t-123 51.5t-117 64.5t-98 83.5t-68 113.5t-25.5 151.5q0 121 70 219.5t178 150.5t227 52q105 0 201 -45
q13 -7 33 -18t30 -16t22.5 -9.5t21.5 -4.5q30 0 43 43h96v-362h-66q-29 0 -49 16.5t-32.5 42.5t-24 58t-28.5 63.5t-41.5 57.5t-68.5 42.5t-104 16.5q-87 0 -149 -52.5t-62 -138.5q0 -50 25.5 -88.5t68 -65t98 -49t116.5 -45t122.5 -47.5t117 -61t98 -82t68 -115t25.5 -155
q0 -142 -80 -258.5t-206 -179t-266 -62.5q-80 0 -152 20t-118 40t-64 20q-38 0 -41 -43h-127v381z" />
    <glyph glyph-name="T" unicode="T" horiz-adv-x="1269" 
d="M25 1096v389q68 -45 165 -45h887q98 0 166 45v-389h-57q-28 0 -42 13t-19 34t-8.5 46t-15 50.5t-33.5 46.5t-70 34t-119 13h-76v-1120q0 -45 13.5 -67.5t32.5 -28t38.5 -9.5t33 -21.5t13.5 -55.5v-31h-600v31q0 38 13.5 55.5t33 21.5t38.5 9.5t32.5 28t13.5 67.5v1120
h-76q-71 0 -119 -13t-70 -34t-33.5 -46.5t-15 -50.5t-8.5 -46t-19 -34t-42 -13h-57z" />
    <glyph glyph-name="U" unicode="U" horiz-adv-x="1392" 
d="M37 1440h567v-31q0 -38 -12 -55.5t-29 -21.5t-33.5 -9.5t-28.5 -28t-12 -67.5v-766q0 -85 13 -148t44.5 -116.5t91.5 -81t148 -27.5q57 0 105.5 12.5t82 32.5t59.5 47t41 54t25 56t13.5 50.5t3.5 38.5v848q0 45 -12 67.5t-29 28t-33.5 9.5t-28.5 21.5t-12 55.5v31h357
v-31q0 -38 -12 -55.5t-29 -21.5t-33.5 -9.5t-28.5 -28t-12 -67.5v-848q0 -197 -148 -306.5t-384 -109.5q-94 0 -176.5 16.5t-153 52t-121 87.5t-79.5 127.5t-29 167.5v813q0 45 -12 67.5t-28.5 28t-33.5 9.5t-29 21.5t-12 55.5v31z" />
    <glyph glyph-name="V" unicode="V" horiz-adv-x="1351" 
d="M803 424l280 776q23 58 23 82q0 22 -17.5 32.5t-38 13.5t-38 22.5t-17.5 58.5v31h373v-31q0 -34 -9 -50t-24.5 -20t-32.5 -7.5t-35.5 -21.5t-31.5 -53l-467 -1257h-156l-485 1249q-13 33 -31 52t-34 25t-30.5 12t-23 22.5t-8.5 48.5v31h575v-41q0 -29 -11.5 -45
t-27.5 -20.5t-32 -7.5t-27.5 -11.5t-11.5 -26.5q0 -2 31 -80z" />
    <glyph glyph-name="W" unicode="W" horiz-adv-x="2007" 
d="M2009 1440v-31q0 -35 -8.5 -50.5t-23.5 -20t-31.5 -9t-36 -27t-33.5 -65.5l-422 -1237h-139l-318 946l-331 -946h-125l-414 1239q-15 46 -33.5 69t-33 26.5t-27.5 6t-20 17.5t-7 51v31h572v-31q0 -32 -11.5 -49.5t-28 -22.5t-32.5 -9t-27.5 -16.5t-11.5 -37.5
q0 -19 22 -82l228 -674l219 619q-18 74 -39.5 119.5t-39.5 58t-36 19t-31 7t-20.5 16.5t-7.5 52v31h608v-31q0 -39 -13 -58.5t-31 -23.5t-36.5 -6.5t-31.5 -14.5t-13 -40q0 -12 2.5 -25.5t5 -21.5t8 -23t7.5 -22l227 -656l229 645q25 69 25 107q0 27 -13 39.5t-31.5 15.5
t-36.5 7t-31 22.5t-13 54.5v31h385z" />
    <glyph glyph-name="X" unicode="X" horiz-adv-x="1351" 
d="M598 571l-213 -319q-43 -67 -43 -98q0 -21 11 -29t27 -9.5t32.5 -6t27.5 -23.5t11 -55v-31h-449v31q0 33 4.5 49.5t14 22.5t22.5 7t33.5 7t43.5 17.5t55 44t65 81.5l286 424l-360 569q-24 38 -49.5 56t-42.5 19t-31 3.5t-20.5 19.5t-6.5 58v31h619v-35q0 -32 -11 -49
t-27.5 -21t-32.5 -5t-27 -6.5t-11 -20.5t29 -58l199 -313l182 270q2 4 12.5 19.5t16 25t11 23.5t5.5 24q0 24 -18.5 32t-40 7t-40 16.5t-18.5 59.5v31h445v-35q0 -40 -10.5 -56.5t-30 -19.5t-43 -5t-55.5 -22.5t-60 -62.5l-283 -420l398 -637q23 -36 46.5 -54.5t39.5 -21.5
t29 -7t19.5 -19t6.5 -49v-31h-633v31q0 42 18.5 59.5t40 16t40 6t18.5 32.5q0 11 -3.5 23t-11 26.5t-12.5 23.5t-15.5 25t-12.5 19z" />
    <glyph glyph-name="Y" unicode="Y" horiz-adv-x="1392" 
d="M1257 1262l-372 -633v-416q0 -45 13.5 -67t32 -27t37.5 -9t32.5 -22t13.5 -57v-31h-596v31q0 36 13.5 53.5t32 22t37.5 10t32.5 28.5t13.5 68v381l-389 639q-26 42 -53 66t-44.5 29.5t-32 11t-21.5 20.5t-7 49v31h670v-31q0 -33 -12.5 -50.5t-31 -22.5t-36.5 -9
t-30.5 -15.5t-12.5 -35.5q0 -6 1 -12t2 -10.5t4 -11t4.5 -10t5.5 -10t5.5 -9t6.5 -10t6 -9.5l247 -410l244 416q0 1 8.5 14t11 18l8 16t7.5 19.5t2 16.5q0 27 -18.5 36.5t-40 9t-40 18t-18.5 61.5v31h412v-35q0 -35 -7.5 -49.5t-22.5 -17.5t-32 -4.5t-41 -18.5t-45 -53z" />
    <glyph glyph-name="Z" unicode="Z" horiz-adv-x="1228" 
d="M1169 1440v-88l-737 -1229h332q78 0 132.5 14t81 36.5t42 49.5t22 54t14 49.5t24.5 36.5t48 14h64v-377h-1172v115l721 1202h-266q-72 0 -119.5 -12t-69 -31.5t-32 -42.5t-14.5 -46.5t-10 -43t-24.5 -31.5t-53.5 -12h-52v387q68 -45 166 -45h903z" />
    <glyph glyph-name="bracketleft" unicode="[" horiz-adv-x="737" 
d="M168 1477h469v-31q0 -34 -12.5 -52t-33 -22t-45 -4t-48.5 -3t-44.5 -14t-33 -41.5t-12.5 -80.5v-1391q0 -50 12.5 -80.5t33 -41.5t44.5 -14t48.5 -3t45 -4t33 -22t12.5 -52v-31h-469v1887z" />
    <glyph glyph-name="backslash" unicode="\" 
d="M96 1477h207l748 -1477h-207z" />
    <glyph glyph-name="bracketright" unicode="]" horiz-adv-x="737" 
d="M580 -410h-469v31q0 34 12.5 52t33 22t44.5 4t48.5 3t45 14t33 41.5t12.5 80.5v1391q0 50 -12.5 80.5t-33 41.5t-44.5 14t-48.5 3t-45 4t-33 22t-12.5 52v31h469v-1887z" />
    <glyph glyph-name="asciicircum" unicode="^" 
d="M492 1440h163l400 -963h-178l-304 733l-303 -733h-178z" />
    <glyph glyph-name="underscore" unicode="_" horiz-adv-x="1024" 
d="M1024 -293h-1024v168h1024v-168z" />
    <glyph glyph-name="grave" unicode="`" horiz-adv-x="778" 
d="M596 1176l-66 -97l-256 133q-174 92 -174 168q0 35 28 66t62 31q40 0 73 -19t71 -53z" />
    <glyph glyph-name="a" unicode="a" horiz-adv-x="1105" 
d="M651 393v154q-117 -13 -196.5 -83t-79.5 -183q0 -38 11 -76.5t39 -69.5t67 -31q40 0 70 21t46.5 51.5t26.5 72t13 75.5t3 69zM647 647q1 45 -5.5 88.5t-23 88.5t-51 72.5t-82.5 27.5q-36 0 -67 -16.5t-31 -49.5q0 -13 5 -36.5t5 -35.5q0 -56 -42 -91.5t-99 -35.5
q-60 0 -107 38.5t-47 97.5q0 62 40.5 109t105 71t129.5 35.5t129 11.5q22 0 44 -1t72.5 -9.5t92 -24t92.5 -48t85.5 -76.5t58.5 -115.5t24 -159.5v-281q0 -3 -1 -24t-1 -38.5t2.5 -42t7.5 -41t16.5 -28.5t28.5 -12q30 0 53 31l11 -15q26 -36 26 -49q0 -39 -65.5 -78
t-112.5 -39q-91 0 -145.5 40t-92.5 118q-69 -86 -142.5 -122t-182.5 -36q-142 0 -241 76t-99 213q0 44 12.5 83t32.5 69t52.5 57t63.5 46.5t76 37.5t78.5 28.5t82.5 22.5t77.5 17.5t73.5 14t61 11.5z" />
    <glyph glyph-name="b" unicode="b" horiz-adv-x="1269" 
d="M487 848v-721q45 -51 115 -51q56 0 99.5 28.5t67.5 70.5t39.5 99t20.5 105t5 98q0 47 -4 95t-18 108.5t-36 106t-62.5 77t-92.5 31.5q-87 0 -134 -47zM365 68l-119 -68h-82v1227q0 45 -12 67.5t-29 28t-34.5 9.5t-29.5 21.5t-12 55.5v31l440 14v-502q45 34 112.5 52
t131.5 18q218 0 344.5 -145t126.5 -367q0 -154 -63 -276.5t-181 -192.5t-272 -70q-145 0 -321 97z" />
    <glyph glyph-name="c" unicode="c" horiz-adv-x="1024" 
d="M913 215l72 -63q-117 -181 -352 -181q-160 0 -292 64.5t-212 189t-80 285.5q0 154 76 272t201.5 179t277.5 61q61 0 119 -11.5t114.5 -36t91 -73t34.5 -113.5q0 -60 -43 -102.5t-103 -42.5q-52 0 -94.5 35t-42.5 86q0 29 17.5 60t17.5 44q0 28 -24 42t-54 14
q-71 0 -123 -40t-78 -105t-37.5 -129t-11.5 -130q0 -62 8.5 -120t30 -116.5t54.5 -101t86.5 -69.5t121.5 -27q126 0 225 129z" />
    <glyph glyph-name="d" unicode="d" horiz-adv-x="1269" 
d="M768 180v672q-61 55 -143 55q-45 0 -80 -17t-56.5 -49t-35.5 -67t-20.5 -82t-8.5 -82t-2 -78q0 -40 0.5 -67.5t4.5 -76.5t11 -83t21.5 -75t35 -66t52 -42.5t71.5 -17.5q39 0 84 22t66 54zM1204 0h-420v78q-123 -107 -266 -107q-102 0 -190 41t-147.5 109.5t-93.5 160
t-34 191.5q0 107 33.5 205.5t93.5 175t152.5 122.5t202.5 46q103 0 233 -55v260q0 44 -12 66.5t-29 28t-33.5 9.5t-28.5 20.5t-12 51.5v37l439 14v-1241q0 -44 11.5 -66.5t28 -28t33 -9.5t28 -20.5t11.5 -51.5v-37z" />
    <glyph glyph-name="e" unicode="e" horiz-adv-x="1105" 
d="M1042 518h-651v-24q0 -74 15.5 -141.5t48 -127.5t92 -95.5t139.5 -35.5q60 0 113 22.5t89.5 53.5t82.5 82l80 -70q-75 -105 -189 -158t-248 -53q-158 0 -286 70.5t-201.5 197.5t-73.5 285q0 214 141 356t355 142q231 0 360.5 -136t132.5 -368zM393 625h332
q1 48 -5.5 94.5t-22.5 95.5t-50.5 79t-83.5 30q-41 0 -72 -20.5t-49 -51t-29.5 -73t-15 -78.5t-4.5 -76z" />
    <glyph glyph-name="f" unicode="f" horiz-adv-x="696" 
d="M492 993h231v-123h-231v-657q0 -45 13.5 -67.5t33 -28t38.5 -9.5t32.5 -21.5t13.5 -55.5v-31h-572v31q0 38 12 55.5t29.5 21.5t34.5 9.5t29 28t12 67.5v657h-123v31q0 39 13 56.5t32 21t37.5 8.5t31.5 27.5t13 68.5v43q0 145 98.5 243.5t257.5 98.5q45 0 86 -9t78 -28
t58.5 -54t21.5 -83q0 -53 -34.5 -93t-86.5 -40q-54 0 -89.5 35.5t-35.5 89.5q0 10 3 31t3 31q0 14 -8 24t-22 10q-24 0 -36.5 -23.5t-12.5 -49.5q0 -34 19.5 -119.5t19.5 -145.5v-51z" />
    <glyph glyph-name="g" unicode="g" horiz-adv-x="1105" 
d="M539 924q-138 0 -138 -291q0 -34 2 -65.5t10 -75t22 -74.5t41 -53.5t63 -22.5q135 0 135 274q0 33 -2 66t-10.5 79t-22 80t-39.5 58.5t-61 24.5zM379 264l-105 -135l5 -4q161 51 329 51q63 0 121.5 -7t122.5 -28t110 -53t76.5 -87.5t30.5 -127.5q0 -79 -36 -141.5
t-92 -100.5t-130.5 -62.5t-144.5 -34t-142 -9.5q-40 0 -79 2.5t-90.5 9.5t-94 22.5t-80 37.5t-59 58t-21.5 81q0 60 46 95.5t108 35.5q53 0 90 -29t37 -80q0 -21 -12.5 -44t-12.5 -36q0 -18 20 -30t51 -17t53 -6.5t42 -1.5q38 0 80 8t84 25t69 49.5t27 75.5q0 40 -26 69.5
t-67 44t-79.5 21t-74.5 6.5q-82 0 -225 -18.5t-175 -18.5q-96 0 -96 74q0 11 3 21.5t9.5 22.5t11 19.5t14.5 21t13 17.5l172 242q-87 46 -135.5 134t-48.5 190q0 122 63.5 214t164 136.5t220.5 44.5q72 0 131 -15.5t140 -56.5q0 3 -1 10.5t-1 10.5q0 68 45.5 119t111.5 51
q59 0 102.5 -37.5t43.5 -95.5q0 -48 -26.5 -79.5t-74.5 -31.5q-32 0 -62 24.5t-42 24.5q-25 0 -25 -26q0 -11 8 -23.5t28 -35.5t30 -36q63 -87 63 -200q0 -95 -38 -169.5t-102.5 -119.5t-144.5 -68.5t-169 -23.5q-98 0 -164 20z" />
    <glyph glyph-name="h" unicode="h" horiz-adv-x="1269" 
d="M588 0h-547v31q0 38 12 55.5t28.5 21.5t33.5 9.5t29 28t12 67.5v1014q0 45 -12 67.5t-28.5 28t-33.5 9.5t-29 21.5t-12 55.5v31l438 14v-536q132 104 295 104q160 0 245 -79t85 -228v-502q0 -45 12 -67.5t29 -28t33.5 -9.5t28.5 -21.5t12 -55.5v-31h-547v31q0 38 11 55.5
t27 21.5t32 9.5t27 28t11 67.5v453q0 45 -4.5 77.5t-18 66t-43.5 51.5t-75 18q-41 0 -87.5 -24.5t-72.5 -59.5v-582q0 -45 11 -67.5t27.5 -28t32.5 -9.5t27 -21.5t11 -55.5v-31z" />
    <glyph glyph-name="i" unicode="i" horiz-adv-x="655" 
d="M487 1008v-795q0 -45 12 -67.5t28.5 -28t33.5 -9.5t29 -21.5t12 -55.5v-31h-555v31q0 38 12 55.5t29.5 21.5t34.5 9.5t29 28t12 67.5v567q0 45 -12 67.5t-29 28t-34.5 10t-29.5 22t-12 55.5v30zM305 1468q74 0 128 -53t54 -125q0 -80 -53.5 -135t-134.5 -55
q-74 0 -127 53.5t-53 126.5q0 77 53.5 132.5t132.5 55.5z" />
    <glyph glyph-name="j" unicode="j" horiz-adv-x="532" 
d="M434 1008v-1018q0 -84 -25.5 -164t-74 -148.5t-130.5 -110.5t-184 -42q-84 0 -145 46.5t-61 127.5q0 61 44 103t105 42q49 0 77.5 -23.5t49.5 -64.5q6 -12 15 -31.5t14 -29.5t13 -18.5t18 -8.5q28 0 28 39q0 24 -10.5 53.5t-23 57.5t-23 86.5t-10.5 132.5v743
q0 45 -12 67.5t-29 28t-34.5 10t-29.5 22t-12 55.5v30zM250 1468q75 0 129.5 -52.5t54.5 -125.5q0 -79 -53.5 -134.5t-134.5 -55.5q-75 0 -127.5 54.5t-52.5 129.5t54 129.5t130 54.5z" />
    <glyph glyph-name="k" unicode="k" horiz-adv-x="1187" 
d="M702 162l-221 307v-256q0 -45 11 -67.5t27.5 -28t32.5 -9.5t27 -21.5t11 -55.5v-31h-547v31q0 38 12 55.5t28.5 21.5t33.5 9.5t29 28t12 67.5v1014q0 45 -12 67.5t-28.5 28t-33.5 9.5t-29 21.5t-12 55.5v31l438 14v-885l217 193q3 3 18 16.5t26.5 24.5t21.5 24.5t10 22.5
q0 18 -16 27t-35 11.5t-35 15.5t-16 38v51h452v-35q0 -39 -12 -53t-31.5 -14t-61 -17.5t-85.5 -56.5l-195 -174l334 -477q25 -36 50 -53t37.5 -18t20 -15t7.5 -49v-31h-535v41q0 30 10.5 44t23.5 13.5t23.5 5t10.5 21.5q0 12 -19 37z" />
    <glyph glyph-name="l" unicode="l" horiz-adv-x="655" 
d="M602 0h-557v31q0 38 12 55.5t29.5 21.5t34.5 9.5t29 28t12 67.5v1014q0 45 -12 67.5t-29 28t-34.5 9.5t-29.5 21.5t-12 55.5v31l440 14v-1241q0 -45 12 -67.5t29.5 -28t34.5 -9.5t29 -21.5t12 -55.5v-31z" />
    <glyph glyph-name="m" unicode="m" horiz-adv-x="1802" 
d="M35 993l424 15v-109q126 123 297 123q86 0 156.5 -34.5t111.5 -104.5q45 38 73.5 59t66.5 42t78.5 29.5t90.5 8.5q71 0 128 -20.5t91.5 -51t57.5 -68.5t32 -70t9 -58v-541q0 -45 11.5 -67.5t28.5 -28t34 -9.5t28.5 -21.5t11.5 -55.5v-31h-544v31q0 32 8 50t19.5 22
t25.5 9.5t25.5 11.5t19.5 28.5t8 60.5v463q0 30 -1 49t-4.5 45.5t-12 43.5t-22.5 33t-36.5 24t-52.5 8q-44 0 -82 -25t-53 -66v-575q0 -38 7.5 -60.5t18.5 -28.5t24 -11.5t24 -9.5t18.5 -22t7.5 -50v-31h-524v31q0 32 7.5 50t18.5 22t24 9.5t24 11.5t18.5 28.5t7.5 60.5v500
q0 30 -1.5 50t-8 44t-18.5 38.5t-33.5 24t-52.5 9.5q-44 0 -86.5 -23t-63.5 -61v-582q0 -45 11 -67.5t27.5 -28t32.5 -9.5t27 -21.5t11 -55.5v-31h-549v31q0 38 12 55.5t29.5 21.5t34.5 9.5t29 28t12 67.5v567q0 45 -12 67.5t-29 28t-34.5 10t-29.5 22t-12 55.5v30z" />
    <glyph glyph-name="n" unicode="n" horiz-adv-x="1269" 
d="M43 993l422 15v-101q74 63 140 89t159 26q338 0 338 -328v-481q0 -45 12 -67.5t29 -28t33.5 -9.5t28.5 -21.5t12 -55.5v-31h-547v31q0 38 11 55.5t27 21.5t32 9.5t27 28t11 67.5v498q0 35 -5 61.5t-18.5 52.5t-41.5 40t-70 14t-91 -20.5t-71 -53.5v-592q0 -44 12.5 -65.5
t30.5 -27t36.5 -9.5t31 -22.5t12.5 -57.5v-31h-561v31q0 38 12 55.5t28.5 21.5t33.5 9.5t29 28t12 67.5v567q0 45 -12 67.5t-28.5 28t-33.5 10t-29 22t-12 55.5v30z" />
    <glyph glyph-name="o" unicode="o" horiz-adv-x="1187" 
d="M598 1022q238 0 388.5 -147t150.5 -383q0 -151 -74 -271t-198.5 -185t-274.5 -65t-273.5 68.5t-194.5 190.5t-71 272q0 154 72.5 273.5t197 183t277.5 63.5zM590 924q-37 0 -66.5 -18t-49 -46t-34 -68.5t-22.5 -78.5t-12.5 -83.5t-5.5 -76.5t-1 -64q0 -39 2.5 -77t9 -89
t21 -93t35.5 -79.5t55 -59t78 -21.5q188 0 188 401q0 35 -1 67t-5.5 79.5t-12.5 87t-23 82t-35 71.5t-51.5 47.5t-69.5 18.5z" />
    <glyph glyph-name="p" unicode="p" horiz-adv-x="1228" 
d="M473 817v-686q66 -47 133 -47q54 0 94 28t62 68.5t35.5 97t17.5 101.5t4 94q0 39 -2.5 77t-10 87.5t-22.5 90t-36.5 76.5t-56.5 56.5t-79 20.5q-78 0 -139 -64zM35 993l422 15v-95q115 109 256 109q108 0 199 -42.5t150.5 -114.5t92.5 -166t33 -197q0 -140 -60 -260.5
t-174 -195.5t-258 -75q-94 0 -223 47v-251q0 -37 9 -59t19.5 -29t28.5 -13q16 -5 22 -7t17 -9.5t15 -21t4 -34.5v-40h-553v40q0 21 4 34.5t14.5 21t16.5 10t22 6.5q18 6 28.5 13t20 29.5t9.5 58.5v1013q0 44 -12 66.5t-28.5 28t-33.5 9.5t-29 20.5t-12 51.5v37z" />
    <glyph glyph-name="q" unicode="q" horiz-adv-x="1269" 
d="M772 158v663q-18 33 -57.5 51.5t-79.5 18.5q-46 0 -81.5 -20t-57.5 -55.5t-36.5 -75t-21.5 -89t-9.5 -87.5t-2.5 -79q0 -389 201 -389q39 0 81 16.5t64 45.5zM883 897l137 96h76v-1226q0 -44 11.5 -66.5t28.5 -28t34 -10t28.5 -21t11.5 -51.5v-36h-555v36q0 35 12 51.5
t29.5 21t34.5 10t29 28t12 66.5v278q-49 -35 -113 -54.5t-124 -19.5q-143 0 -253 69t-167.5 185t-57.5 258t56.5 264t168 198.5t255.5 76.5q172 0 346 -125z" />
    <glyph glyph-name="r" unicode="r" horiz-adv-x="901" 
d="M39 993l418 15v-303h4q18 38 27.5 58.5t31 59t38 61.5t42.5 52.5t51 46t57.5 28t67.5 11.5q71 0 119.5 -46t48.5 -116q0 -63 -40 -111.5t-101 -48.5q-51 0 -92 41q-3 3 -13.5 13t-15.5 14t-14 8t-19 4q-35 0 -68.5 -51.5t-53.5 -118t-32 -122t-12 -72.5v-203
q0 -45 13.5 -67.5t32.5 -28t38.5 -9.5t33 -21.5t13.5 -55.5v-31h-571v31q0 38 12 55.5t29.5 21.5t34.5 9.5t29 28t12 67.5v567q0 45 -12.5 67.5t-30.5 28t-35.5 10t-30 22t-12.5 55.5v30z" />
    <glyph glyph-name="s" unicode="s" horiz-adv-x="901" 
d="M295 160q-6 -18 -6 -27q0 -29 43.5 -42t81.5 -13q47 0 89.5 12t75.5 44.5t33 80.5q0 39 -31 69t-80.5 50t-109.5 39t-119.5 44t-109 58t-80.5 87t-31 124q0 87 41 154t108.5 105.5t144.5 57.5t159 19q51 0 104 -9.5t108.5 -30t90.5 -61.5t35 -96t-43 -91t-99 -36
q-51 0 -93 30.5t-42 80.5q0 11 7.5 35t7.5 30q0 22 -32 31.5t-61 9.5q-53 0 -101 -29.5t-48 -80.5q0 -38 31 -66t80 -46t109 -35t119.5 -41t108.5 -57t80 -89t31 -131q0 -74 -29.5 -136.5t-78.5 -104.5t-113 -71.5t-131 -43t-135 -13.5q-61 0 -124.5 11t-129.5 35.5t-108 73
t-42 114.5q0 60 42 98.5t102 38.5q63 0 109 -38t46 -99q0 -18 -10 -45z" />
    <glyph glyph-name="t" unicode="t" horiz-adv-x="696" 
d="M467 993h192v-133h-192v-586q0 -34 2.5 -56t11 -48.5t30 -40.5t54.5 -14q25 0 42.5 9t41.5 30l53 -72q-92 -111 -260 -111q-82 0 -142 22.5t-93 62.5t-48.5 89t-15.5 109v600h-118v31q0 37 12 55t29.5 24t35 15.5t29.5 42t12 92.5v55q0 37 3.5 56t20 30t35 13.5t64.5 5.5
l201 12v-293z" />
    <glyph glyph-name="u" unicode="u" horiz-adv-x="1228" 
d="M754 0v88q-106 -117 -299 -117q-157 0 -232.5 98.5t-75.5 258.5v452q0 37 -8 59t-20 28.5t-26 12t-26 9.5t-20 20.5t-8 46.5v37l432 15v-689q0 -204 127 -204q36 0 83.5 20t63.5 49v596q0 37 -8.5 59t-21 28.5t-27.5 12t-27.5 9.5t-21 20.5t-8.5 46.5v37l438 15v-795
q0 -44 12 -66.5t28.5 -28t33.5 -9.5t29 -20.5t12 -51.5v-37h-430z" />
    <glyph glyph-name="v" unicode="v" 
d="M664 0h-168l-344 795q-20 46 -43 69t-39.5 26t-30.5 5.5t-21.5 16.5t-7.5 51v30h568v-57q0 -16 -16 -26t-35.5 -13.5t-35.5 -12t-16 -22.5q0 -6 5 -20.5t13 -33.5t9 -22l182 -446l182 432q25 50 25 68q0 27 -17.5 37t-38 10.5t-38 18t-17.5 57.5v30h363v-30
q0 -34 -8.5 -50.5t-23 -21.5t-31 -8.5t-35.5 -19.5t-33 -48z" />
    <glyph glyph-name="w" unicode="w" horiz-adv-x="1638" 
d="M827 631l-227 -631h-174l-303 819q-14 38 -31.5 55t-32 18t-27 2.5t-19.5 16.5t-7 52v30h580v-35q0 -35 -18 -49.5t-39.5 -15t-39.5 -12.5t-18 -43q0 -36 23 -99l120 -325l205 579h223l220 -592l110 351q21 71 21 90q0 28 -19 38.5t-41.5 11t-41.5 17t-19 54.5v30h377
v-30q0 -35 -7 -48t-20.5 -16t-29 -8t-36.5 -33.5t-40 -81.5l-267 -776h-192z" />
    <glyph glyph-name="x" unicode="x" 
d="M719 993h383v-37q0 -33 -13.5 -46t-33 -13.5t-52 -17t-61.5 -52.5l-225 -282l274 -369q30 -41 61 -58.5t47.5 -17t27 -13t10.5 -52.5v-35h-588v49q0 31 13 44t28 11.5t28 5t13 25.5q0 14 -11 38t-22 38l-115 156l-100 -134q-2 -3 -11 -15t-14.5 -20t-12 -19.5t-10 -21.5
t-3.5 -18q0 -19 15.5 -26.5t33.5 -8t33.5 -18t15.5 -55.5v-31h-414v51q0 24 18.5 37t45 18.5t63.5 27.5t66 59l205 266l-275 381q-18 26 -43 39.5t-41.5 16.5t-28.5 18.5t-12 48.5v30h582v-30q0 -33 -15 -48t-33 -15.5t-33 -8t-15 -27.5q0 -6 7 -18.5t17.5 -28t10.5 -16.5
l116 -164l123 164q2 3 10.5 14.5t13 18.5t9 18t4.5 20q0 14 -14.5 19.5t-31.5 7.5t-31.5 17.5t-14.5 46.5v30z" />
    <glyph glyph-name="y" unicode="y" 
d="M508 762l186 -406l154 387q2 5 8.5 23t10 28.5t7 25.5t3.5 26q0 31 -18.5 42t-40 9.5t-40 13t-18.5 52.5v30h381v-30q0 -30 -9.5 -47.5t-25 -23.5t-32 -11t-33 -16.5t-25.5 -33.5l-434 -1040q-39 -95 -131.5 -166t-182.5 -71q-85 0 -146 47.5t-61 130.5q0 61 43 103
t105 42q42 0 68.5 -17t36 -41t16 -48t16.5 -41t29 -17q24 0 47 20t40 52.5t28.5 60t21.5 56.5q3 8 4 12l14 37l-395 868q-14 32 -33 49.5t-34 21.5t-29 7.5t-21.5 17t-7.5 41.5v37h570v-37q0 -38 -16.5 -52.5t-36 -12t-36 -4.5t-16.5 -31q0 -9 4 -23.5t8 -24t12 -27t9 -19.5
z" />
    <glyph glyph-name="z" unicode="z" horiz-adv-x="1024" 
d="M954 993v-94l-503 -776h215q64 0 103 13t51.5 33t20.5 43t11.5 43t23 33t56.5 13h31v-301h-914v90l518 780h-239q-38 0 -62 -15t-34 -37t-18.5 -43.5t-23.5 -36.5t-40 -15h-46v270h850z" />
    <glyph glyph-name="braceleft" unicode="{" horiz-adv-x="796" 
d="M573 1251v-348q0 -47 -3.5 -80.5t-14 -67t-29 -56t-49.5 -40t-74 -26.5v-4q102 -22 136 -86t34 -185v-348q0 -95 30 -149.5t99 -75.5v-4q-61 -1 -103.5 0.5t-85 8t-69.5 18.5t-51 32.5t-37 50t-20.5 71t-7.5 95.5v353q0 104 -30.5 151t-125.5 68v4q95 21 125.5 68
t30.5 151v352q0 76 15 127t40.5 81.5t75 46t103 19.5t140.5 3v-4q-69 -21 -99 -76t-30 -150z" />
    <glyph glyph-name="bar" unicode="|" 
d="M481 0v1477h185v-1477h-185z" />
    <glyph glyph-name="braceright" unicode="}" horiz-adv-x="796" 
d="M223 10v348q0 121 34 185t136 86v4q-43 9 -74 26.5t-49.5 40t-29 56t-14 67t-3.5 80.5v348q0 95 -30 150t-99 76v4q72 1 119.5 -1.5t93.5 -12t73.5 -28t49 -49.5t30.5 -77t9 -109v-352q0 -104 30.5 -151t125.5 -68v-4q-95 -21 -125.5 -68t-30.5 -151v-353
q0 -54 -7.5 -95.5t-20.5 -71t-37.5 -50t-51.5 -32.5t-69.5 -18.5t-85 -8t-103.5 -0.5v4q69 21 99 75.5t30 149.5z" />
    <glyph glyph-name="asciitilde" unicode="~" 
d="M991 688l99 -113q-27 -49 -53 -85.5t-62.5 -73.5t-82 -56.5t-97.5 -19.5q-76 0 -228 72q-52 23 -79.5 34.5t-67 23t-68.5 11.5t-55.5 -12.5t-43.5 -26t-39 -44t-30 -44.5l-28 -49l-99 113q27 49 53 85.5t62.5 73.5t82 56.5t97.5 19.5q78 0 228 -69q152 -72 215 -72
q29 0 55.5 12.5t43.5 26t39 44t30 44.5z" />
    <glyph glyph-name="uni00A0" unicode="&#xa0;" horiz-adv-x="573" 
 />
    <glyph glyph-name="exclamdown" unicode="&#xa1;" horiz-adv-x="696" 
d="M348 674q-72 0 -123 51t-51 123t51 123t123 51t123 -51t51 -123t-51 -123t-123 -51zM291 598h115l104 -659q2 -11 8 -43.5t8 -44.5t4 -36.5t2 -50.5q0 -92 -47.5 -161.5t-136.5 -69.5t-136.5 69.5t-47.5 161.5q0 73 18 175z" />
    <glyph glyph-name="cent" unicode="&#xa2;" 
d="M662 1395v-211q47 -1 94.5 -12t92.5 -32.5t73 -60.5t28 -90q0 -53 -35 -86t-90 -33q-43 0 -80.5 27.5t-37.5 69.5q0 26 14 51t14 35q0 45 -71 45q-59 0 -102.5 -34.5t-65.5 -90t-31.5 -109.5t-9.5 -108q0 -53 8 -101.5t27.5 -94.5t49 -79.5t75 -54t102.5 -20.5
q64 0 105 23.5t91 76.5l62 -53q-52 -73 -136.5 -112t-176.5 -34v-250h-103v256q-171 33 -281 152t-110 289q0 174 107 283.5t284 138.5v219h103z" />
    <glyph glyph-name="sterling" unicode="&#xa3;" 
d="M555 135q-3 2 -17 13.5t-18.5 14.5t-18 13.5t-19 14t-18.5 11.5t-21 11.5t-20 9t-22 7.5t-22 4t-23 2q-35 0 -58.5 -16.5t-23.5 -49.5q0 -43 41 -63.5t88 -20.5q95 0 152 49zM899 745h240v-106h-252q71 -100 71 -209q0 -91 -37 -157t-114 -148q53 -29 113 -29
q28 0 52.5 13t45.5 40t32 44.5t29 50.5l72 -99q-47 -83 -104.5 -132.5t-137.5 -49.5q-102 0 -225 72q-141 -72 -289 -72q-49 0 -101 8.5t-105.5 28.5t-94.5 49t-67.5 75t-26.5 101q0 94 71 141.5t171 47.5q74 0 146.5 -26t118.5 -56t122 -88q18 70 18 92q0 39 -19.5 79.5
t-52 75.5t-65 64t-67.5 57q-12 9 -17 13l-18 14h-396v106h269q-86 92 -112 130q-60 86 -60 184q0 99 41.5 179.5t111.5 132t157.5 79t182.5 27.5q54 0 104 -6.5t102 -24.5t90 -45.5t62.5 -73.5t24.5 -106q0 -68 -41.5 -106t-109.5 -38q-67 0 -109.5 40.5t-42.5 105.5
q0 33 13.5 62.5t13.5 41.5q0 51 -95 51q-86 0 -140 -46.5t-54 -131.5q0 -70 62.5 -154.5t144.5 -148.5t160 -108t112 -44z" />
    <glyph glyph-name="currency" unicode="&#xa4;" 
d="M53 338l90 90q-39 71 -57 129.5t-18 132.5q0 144 75 268l-90 89l162 163l90 -90q129 78 264 78q150 0 275 -78l90 90l158 -163l-91 -89q78 -125 78 -266q0 -152 -78 -264l91 -90l-158 -162l-90 90q-134 -80 -264 -80q-151 0 -275 80l-90 -90zM573 440q106 0 179 75.5
t73 176.5t-73 176.5t-179 75.5q-105 0 -178 -75t-73 -177t73 -177t178 -75z" />
    <glyph glyph-name="yen" unicode="&#xa5;" 
d="M752 526v-323q0 -42 13.5 -62.5t32 -24.5t37.5 -7t32.5 -20t13.5 -54v-35h-582v35q0 38 13.5 55.5t32.5 20t37.5 6.5t32 24.5t13.5 63.5v321h-393v107h371l-87 174h-284v106h231l-164 320q-20 38 -44 60.5t-43 29.5t-35.5 13.5t-25.5 23t-9 49.5v31h641v-35
q0 -37 -19 -55.5t-41.5 -21t-41.5 -14.5t-19 -38q0 -16 27 -84l184 -444l207 450q30 60 30 86q0 23 -12 32.5t-29.5 11.5t-35 5t-29.5 20.5t-12 51.5v35h411v-43q0 -32 -9 -45t-26 -17t-37 -9.5t-47.5 -33.5t-52.5 -78l-147 -301h229v-106h-278l-82 -174h360v-107h-364z" />
    <glyph glyph-name="brokenbar" unicode="&#xa6;" 
d="M481 985v492h185v-492h-185zM666 492v-492h-185v492h185z" />
    <glyph glyph-name="section" unicode="&#xa7;" horiz-adv-x="1228" 
d="M494 506l284 -100l105 -44q32 30 46.5 57.5t14.5 67.5q0 47 -34 81.5t-96 58.5t-129 44t-154 49t-150 60q-57 -64 -57 -125q0 -26 12 -48.5t26 -36t42.5 -28t43 -20t46.5 -16.5zM643 125l-283 102q-65 23 -111 46t-90.5 59t-67.5 87.5t-23 117.5q0 103 50 180t144 147
q-100 97 -100 230q0 97 47 173t123 120.5t163.5 67t178.5 22.5q45 0 91 -5.5t98 -20.5t92 -38.5t66 -63t26 -89.5q0 -65 -46 -102.5t-112 -37.5q-48 0 -86.5 30t-38.5 77q0 15 5 42.5t5 39.5q0 35 -33 52t-71 17q-61 0 -117 -21t-95.5 -67.5t-39.5 -109.5q0 -38 13.5 -67
t41 -49.5t53 -33t64.5 -26.5l321 -111q122 -42 190 -115.5t68 -193.5q0 -178 -170 -301q61 -73 88 -130.5t27 -138.5q0 -113 -49 -206.5t-130 -153t-183 -91.5t-211 -32q-61 0 -123 10.5t-124.5 35.5t-111 61.5t-78.5 92.5t-30 124q0 74 45 125t119 51q58 0 102.5 -33.5
t44.5 -89.5q0 -39 -19.5 -70.5t-39 -54.5t-19.5 -41q0 -29 24.5 -52t60.5 -35.5t69.5 -19t58.5 -6.5q130 0 224 74.5t94 202.5q0 47 -14 83t-42.5 61.5t-60.5 42t-78 32.5z" />
    <glyph glyph-name="dieresis" unicode="&#xa8;" horiz-adv-x="1024" 
d="M297 1454q67 0 115.5 -48t48.5 -116t-48.5 -116t-115.5 -48t-115.5 48t-48.5 116t48.5 116t115.5 48zM727 1454q67 0 115.5 -48t48.5 -116t-48.5 -116t-115.5 -48t-115.5 48t-48.5 116t48.5 116t115.5 48z" />
    <glyph glyph-name="copyright" unicode="&#xa9;" horiz-adv-x="1529" 
d="M764 -37q-154 0 -294.5 60t-242 161t-161.5 241.5t-60 295.5q0 154 60 294t161.5 241t242 161t294.5 60t294.5 -60t242 -161t161.5 -241t60 -294q0 -155 -60 -295.5t-161.5 -241.5t-242 -161t-294.5 -60zM764 106q167 0 308.5 82t223.5 223.5t82 309.5q0 167 -82 308
t-223.5 222.5t-308.5 81.5t-308.5 -81.5t-223.5 -222.5t-82 -308q0 -168 82 -309.5t223.5 -223.5t308.5 -82zM1083 1067v-219h-84q-18 48 -30 73t-35 57.5t-55.5 47t-77.5 14.5q-58 0 -102.5 -27t-69.5 -71.5t-37 -94.5t-12 -104q0 -63 15 -123t45 -112.5t82.5 -84.5
t119.5 -32q56 0 112 33.5t90 85.5l66 -23q-39 -96 -138 -145t-212 -49q-179 0 -287 117t-108 297q0 184 117 301.5t300 117.5q60 0 156.5 -18.5t144.5 -40.5z" />
    <glyph glyph-name="ordfeminine" unicode="&#xaa;" horiz-adv-x="663" 
d="M399 1100v92q-76 -8 -128 -50.5t-52 -109.5q0 -37 20 -71.5t56 -34.5q32 0 54.5 17.5t32.5 47.5t13.5 55.5t3.5 53.5zM610 1217v-168q0 -1 -0.5 -14t-0.5 -23.5t1.5 -25.5t5 -25t11 -17.5t18.5 -7.5q21 0 35 18l6 -8q16 -21 16 -31q0 -23 -41.5 -46t-72.5 -23
q-59 0 -95 23.5t-61 70.5q-44 -51 -92.5 -72.5t-118.5 -21.5q-93 0 -157 45.5t-64 128.5q0 29 9 54.5t27.5 45t39 35t51 28t54.5 21.5t59.5 17t57 12t55 10t44.5 8q1 27 -3 53t-14.5 53t-33 43.5t-53.5 16.5q-25 0 -45.5 -9.5t-20.5 -29.5q0 -7 4.5 -21.5t4.5 -21.5
q0 -33 -28.5 -54t-64.5 -21q-39 0 -69.5 22t-30.5 57q0 38 26 66t68 43t84.5 22t83.5 7q15 0 29 -0.5t47 -6t60 -14.5t60 -28.5t55.5 -46t38 -69t15.5 -95.5z" />
    <glyph glyph-name="guillemotleft" unicode="&#xab;" horiz-adv-x="983" 
d="M479 809l-125 -313l125 -314l-125 -65l-219 379l219 378zM848 809l-125 -313l125 -314l-125 -65l-219 379l219 378z" />
    <glyph glyph-name="logicalnot" unicode="&#xac;" 
d="M891 219v389h-799v164h963v-553h-164z" />
    <glyph glyph-name="uni00AD" unicode="&#xad;" horiz-adv-x="491" 
d="M0 606h492v-221h-492v221z" />
    <glyph glyph-name="registered" unicode="&#xae;" horiz-adv-x="1529" 
d="M768 -37q-155 0 -295.5 60t-242.5 161t-162 241.5t-60 295.5q0 154 60 294t162 241t242.5 161t295.5 60q154 0 293.5 -60t240.5 -161t160.5 -241t59.5 -294q0 -155 -59.5 -295.5t-160.5 -241.5t-240.5 -161t-293.5 -60zM768 106q167 0 307.5 82t221.5 223.5t81 309.5
q0 167 -81 309t-221.5 224.5t-307.5 82.5q-168 0 -310 -82.5t-224 -224.5t-82 -309q0 -168 82 -309.5t224 -223.5t310 -82zM688 694v-243q0 -21 2 -32.5t11.5 -21.5t27.5 -10h43v-49h-356v49h51q18 0 27.5 10t11.5 21.5t2 32.5v567q0 20 -2 31.5t-11.5 21.5t-27.5 10h-47v58
h366q28 0 49.5 -1t54.5 -5.5t57.5 -12t52 -23t45 -36.5t29 -53.5t11.5 -73.5q0 -77 -59.5 -135.5t-136.5 -69.5v-4q49 -3 92 -57t69 -116t60.5 -113.5t69.5 -51.5v-49h-156q-27 0 -45.5 6.5t-32.5 24t-19.5 28t-19.5 39.5l-84 176q-21 46 -37 64t-43 18h-55zM688 1055v-297
q19 -8 45 -8q172 0 172 172q0 72 -38 113.5t-109 41.5h-60q-10 -5 -10 -22z" />
    <glyph glyph-name="macron" unicode="&#xaf;" horiz-adv-x="942" 
d="M139 1331h664v-164h-664v164z" />
    <glyph glyph-name="degree" unicode="&#xb0;" horiz-adv-x="819" 
d="M717 1169q0 -127 -89.5 -217t-217.5 -90t-218 90t-90 217q-1 127 89.5 217.5t218.5 90.5q127 0 217 -90t90 -218zM604 1169q0 82 -56 138.5t-138 56.5t-139 -57t-56 -138q0 -82 56.5 -138t138.5 -56t138 56t56 138z" />
    <glyph glyph-name="plusminus" unicode="&#xb1;" 
d="M492 731v246h163v-246h400v-164h-400v-245h-163v245h-400v164h400zM1055 0h-963v164h963v-164z" />
    <glyph glyph-name="twosuperior" unicode="&#xb2;" horiz-adv-x="688" 
d="M47 590v96l272 313q50 64 75.5 114t25.5 110q0 76 -35.5 133t-112.5 57q-27 0 -53 -14t-26 -37q0 -12 14.5 -24t29.5 -33t15 -54q0 -40 -27.5 -65t-70.5 -25q-51 0 -81 32t-30 79q0 87 86 146t209 59q129 0 218 -68.5t89 -173.5q0 -47 -20 -88t-52 -72t-77.5 -66.5
t-91 -66.5t-99.5 -78t-96 -96h280q33 0 52 6t25 15t9.5 19t5 19t12.5 15t32 6h20v-258h-598z" />
    <glyph glyph-name="threesuperior" unicode="&#xb3;" horiz-adv-x="688" 
d="M190 1024v61q49 0 87 7.5t71 25t50.5 52t17.5 83.5q0 70 -34.5 116t-105.5 46q-28 0 -52.5 -9.5t-24.5 -31.5q0 -9 12.5 -21.5t25.5 -31.5t13 -45q0 -38 -29.5 -65t-70.5 -27q-50 0 -82.5 32t-32.5 78q0 59 52 103t116.5 62t124.5 18q76 0 145 -22t118.5 -73.5
t49.5 -124.5q0 -89 -73 -139.5t-191 -58.5v-4q60 -2 110.5 -15t92.5 -38.5t66 -69.5t24 -103q0 -66 -35 -118t-92 -82.5t-121.5 -46t-130.5 -15.5q-46 0 -91 9.5t-87.5 29t-68.5 54.5t-26 81q0 42 36 74.5t81 32.5q46 0 80.5 -26.5t34.5 -67.5q0 -23 -9.5 -39t-20.5 -22.5
t-20.5 -14t-9.5 -16.5q0 -18 22 -25.5t46 -7.5q88 0 130 51t42 135q0 52 -13 91.5t-34 60.5t-47.5 35.5t-53 17t-51 5t-41.5 -0.5z" />
    <glyph glyph-name="acute" unicode="&#xb4;" horiz-adv-x="778" 
d="M248 1079l-66 97l262 229q38 34 71 53t73 19q34 0 62 -31t28 -66q0 -76 -174 -168z" />
    <glyph glyph-name="mu" unicode="&#xb5;" horiz-adv-x="1228" 
d="M1184 37v-37h-430v88q-56 -60 -133.5 -87.5t-188.5 -29.5q3 -16 14 -64.5t18 -90.5t7 -72q0 -92 -41 -155.5t-121 -63.5t-121 63.5t-41 155.5q0 102 68 332q-31 42 -47.5 94t-18.5 81.5t-2 76.5v452q0 37 -8 59t-20 28.5t-26 12t-26 9.5t-20 20.5t-8 46.5v37l432 15v-689
q0 -204 127 -204q36 0 83.5 20t63.5 49v596q0 37 -8.5 59t-21 28.5t-27.5 12t-27.5 9.5t-21 20.5t-8.5 46.5v37l438 15v-795q0 -44 12 -66.5t28.5 -28t33.5 -9.5t29 -20.5t12 -51.5z" />
    <glyph glyph-name="paragraph" unicode="&#xb6;" horiz-adv-x="1529" 
d="M1462 1440v-49q0 -34 -18 -48.5t-43.5 -15.5t-51 -2.5t-43.5 -17t-18 -50.5v-1298q0 -35 18 -50.5t43.5 -16.5l51 -2t43.5 -15.5t18 -48.5v-49h-1140v49q0 34 18 48.5t44 15.5l52 2t44 16.5t18 50.5v713q-86 2 -162 27.5t-136 72.5t-95 120.5t-35 164.5q0 33 4 64
t16 70.5t31.5 73t54 67t80.5 56.5t113.5 37.5t150.5 14.5h942zM965 1325h-144v-1434h144v1434z" />
    <glyph glyph-name="periodcentered" unicode="&#xb7;" horiz-adv-x="573" 
d="M287 670q72 0 123 -51t51 -123t-51 -123t-123 -51t-123 51t-51 123t51 123t123 51z" />
    <glyph glyph-name="cedilla" unicode="&#xb8;" horiz-adv-x="737" 
d="M451 0l-72 -98q28 4 45 4q80 0 138.5 -40t58.5 -116q0 -79 -72.5 -123.5t-157.5 -44.5q-60 0 -133.5 20.5t-73.5 55.5q0 17 29 68q82 -54 178 -54q39 0 66.5 17.5t27.5 54.5q0 38 -35.5 55t-78.5 17q-39 0 -88 -17l-66 74l92 127h142z" />
    <glyph glyph-name="onesuperior" unicode="&#xb9;" horiz-adv-x="688" 
d="M121 1339v45l215 70h131v-754q0 -24 12.5 -31.5t36.5 -9.5q17 -1 25 -2.5t16 -10.5t8 -25v-31h-413v31q0 5 1 10t2 8t4 6t4 5t5.5 3.5l6 2t7.5 1.5t7 1h9l7 1q17 0 26.5 2t18 11.5t8.5 27.5v639h-137z" />
    <glyph glyph-name="ordmasculine" unicode="&#xba;" horiz-adv-x="712" 
d="M358 1477q155 0 253 -88t98 -230q0 -137 -103.5 -225t-253.5 -88q-149 0 -249.5 91t-100.5 228q0 139 102 225.5t254 86.5zM352 1417q-40 0 -67 -28t-38 -75t-14.5 -82.5t-3.5 -74.5q0 -29 2 -56.5t10 -65t21.5 -64.5t38.5 -46.5t59 -19.5q121 0 121 242q0 270 -129 270z
" />
    <glyph glyph-name="guillemotright" unicode="&#xbb;" horiz-adv-x="983" 
d="M135 182l125 314l-125 313l125 65l219 -378l-219 -379zM504 182l125 314l-125 313l125 65l219 -378l-219 -379z" />
    <glyph glyph-name="onequarter" unicode="&#xbc;" horiz-adv-x="1720" 
d="M1384 1440l-927 -1440h-121l926 1440h122zM930 246v69l395 549h148v-549h124v-69h-124v-131q0 -24 11.5 -35t25.5 -12t26.5 -9.5t13.5 -27.5v-31h-364v31q1 19 13.5 27.5t27 9.5t26 12t11.5 35v131h-334zM162 1370l215 70h131v-748q0 -26 15.5 -36t33.5 -9t33.5 -8
t15.5 -33v-31h-413v31q0 24 16.5 33t36.5 8t36.5 9t16.5 36v633h-137v45zM1264 651l-244 -336h244v336z" />
    <glyph glyph-name="onehalf" unicode="&#xbd;" horiz-adv-x="1720" 
d="M1364 1440l-928 -1440h-121l926 1440h123zM162 1370l215 70h131v-748q0 -26 15.5 -36t33.5 -9t33.5 -8t15.5 -33v-31h-413v31q0 24 16.5 33t36.5 8t36.5 9t16.5 36v633h-137v45zM1163 178h281q44 0 64.5 12.5t21 27.5t8.5 27.5t31 12.5h30v-258h-598v96l273 314
q50 63 75 113t25 110q0 35 -7.5 66.5t-23.5 60.5t-46 46t-70 17q-27 0 -53.5 -14t-26.5 -37q0 -12 14.5 -24t29.5 -32.5t15 -53.5q0 -40 -27.5 -65.5t-70.5 -25.5q-51 0 -81 32t-30 79q0 87 86 146t209 59q129 0 218 -68.5t89 -173.5q0 -47 -20 -88t-52 -72t-77.5 -66.5
t-91 -66.5t-99.5 -78t-96 -96z" />
    <glyph glyph-name="threequarters" unicode="&#xbe;" horiz-adv-x="1720" 
d="M971 246v69l395 549h147v-549h125v-69h-125v-131q0 -24 11.5 -35t26 -12t27 -9.5t13.5 -27.5v-31h-364v31q1 19 13.5 27.5t27 9.5t26 12t11.5 35v131h-334zM1305 651l-244 -336h244v336zM1446 1440l-928 -1440h-121l926 1440h123zM252 1010v61q49 0 87 7.5t70.5 25t50 52
t17.5 83.5q0 70 -34 116t-105 46q-28 0 -53 -9.5t-25 -31.5q0 -9 13 -21.5t25.5 -31.5t12.5 -45q0 -38 -29.5 -65.5t-70.5 -27.5q-50 0 -82.5 32t-32.5 79q0 45 30 81.5t76 57.5t94.5 32t92.5 11q76 0 145 -21.5t118.5 -73t49.5 -124.5q0 -89 -73 -140t-191 -59v-4
q60 -2 110.5 -15t92.5 -38t66 -69t24 -103q0 -66 -35 -118t-92 -82.5t-121.5 -46t-130.5 -15.5q-45 0 -90.5 9.5t-87.5 29t-68 54.5t-26 81q0 42 36 74.5t81 32.5q46 0 80 -27t34 -68q0 -23 -9 -39t-20.5 -22.5t-20.5 -14t-9 -16.5q0 -18 21.5 -25.5t45.5 -7.5
q88 0 130.5 51.5t42.5 135.5q0 52 -13 91.5t-34 60.5t-47.5 35.5t-53 17t-51 5t-41.5 -0.5z" />
    <glyph glyph-name="questiondown" unicode="&#xbf;" horiz-adv-x="1024" 
d="M549 594h117v-117q0 -64 -23.5 -118.5t-56.5 -99t-66 -93.5t-56.5 -124t-23.5 -167q0 -98 52.5 -171t146.5 -73q19 0 43.5 12.5t24.5 30.5q0 13 -17 32t-34 46t-17 58q0 72 46.5 123t117.5 51q68 0 116 -46.5t48 -113.5q0 -69 -38 -126.5t-97 -92t-126 -53.5t-131 -19
q-70 0 -136 13t-127.5 42t-108 71.5t-74 106.5t-27.5 142q0 63 26 115.5t72.5 94t94 75t106.5 75.5t95 78q53 53 53 195v53zM606 1022q72 0 123 -51t51 -123t-51 -123t-123 -51t-123 51t-51 123t51 123t123 51z" />
    <glyph glyph-name="Agrave" unicode="&#xc0;" horiz-adv-x="1474" 
d="M866 414h-477l-59 -138q-31 -69 -31 -108q0 -30 14 -43t34 -14.5t40.5 -3.5t34.5 -20t14 -56v-31h-428v31q0 32 4.5 48t14 21.5t21.5 7t29 9t35.5 22.5t41.5 53t45 95l364 930l-18 47q0 1 -8.5 19t-14.5 34t-6 22q0 7 3 13t10 11t11.5 7.5t13.5 6.5t11 5l174 82
q32 19 49 19q5 0 9.5 -2t8.5 -7.5t7.5 -10t7 -13t5.5 -14t5 -15.5t5 -14l473 -1198q17 -45 40 -67t42 -25.5t36 -7t27 -21t10 -57.5v-31h-612v31q0 38 11.5 57.5t28 23t33.5 4.5t28.5 10.5t11.5 33.5q0 21 -19 65zM627 1040l-199 -512h403zM944 1581l-65 -96l-256 133
q-174 92 -174 168q0 35 28 65.5t62 30.5q40 0 72 -18.5t71 -53.5z" />
    <glyph glyph-name="Aacute" unicode="&#xc1;" horiz-adv-x="1474" 
d="M866 414h-477l-59 -138q-31 -69 -31 -108q0 -30 14 -43t34 -14.5t40.5 -3.5t34.5 -20t14 -56v-31h-428v31q0 32 4.5 48t14 21.5t21.5 7t29 9t35.5 22.5t41.5 53t45 95l364 930l-18 47q0 1 -8.5 19t-14.5 34t-6 22q0 7 3 13t10 11t11.5 7.5t13.5 6.5t11 5l174 82
q32 19 49 19q5 0 9.5 -2t8.5 -7.5t7.5 -10t7 -13t5.5 -14t5 -15.5t5 -14l473 -1198q17 -45 40 -67t42 -25.5t36 -7t27 -21t10 -57.5v-31h-612v31q0 38 11.5 57.5t28 23t33.5 4.5t28.5 10.5t11.5 33.5q0 21 -19 65zM627 1040l-199 -512h403zM555 1485l-66 96l263 229
q39 35 71 53.5t72 18.5q34 0 62 -30.5t28 -65.5q0 -76 -174 -168z" />
    <glyph glyph-name="Acircumflex" unicode="&#xc2;" horiz-adv-x="1474" 
d="M866 414h-477l-59 -138q-31 -69 -31 -108q0 -30 14 -43t34 -14.5t40.5 -3.5t34.5 -20t14 -56v-31h-428v31q0 32 4.5 48t14 21.5t21.5 7t29 9t35.5 22.5t41.5 53t45 95l364 930l-18 47q0 1 -8.5 19t-14.5 34t-6 22q0 7 3 13t10 11t11.5 7.5t13.5 6.5t11 5l174 82
q32 19 49 19q5 0 9.5 -2t8.5 -7.5t7.5 -10t7 -13t5.5 -14t5 -15.5t5 -14l473 -1198q17 -45 40 -67t42 -25.5t36 -7t27 -21t10 -57.5v-31h-612v31q0 38 11.5 57.5t28 23t33.5 4.5t28.5 10.5t11.5 33.5q0 21 -19 65zM627 1040l-199 -512h403zM1112 1524l-311 121
q-53 20 -66 20q-12 0 -65 -20l-308 -121l-53 104l275 176q6 4 23 15t21 13.5t17 9.5t19.5 8.5t19 5t25 4t28.5 0.5q12 0 22.5 -0.5t20.5 -2.5t16 -2.5t16 -5t14 -6t15 -8t14 -8.5t17 -11t19 -12l274 -176z" />
    <glyph glyph-name="Atilde" unicode="&#xc3;" horiz-adv-x="1474" 
d="M866 414h-477l-59 -138q-31 -69 -31 -108q0 -30 14 -43t34 -14.5t40.5 -3.5t34.5 -20t14 -56v-31h-428v31q0 32 4.5 48t14 21.5t21.5 7t29 9t35.5 22.5t41.5 53t45 95l364 930l-18 47q0 1 -8.5 19t-14.5 34t-6 22q0 7 3 13t10 11t11.5 7.5t13.5 6.5t11 5l174 82
q32 19 49 19q5 0 9.5 -2t8.5 -7.5t7.5 -10t7 -13t5.5 -14t5 -15.5t5 -14l473 -1198q17 -45 40 -67t42 -25.5t36 -7t27 -21t10 -57.5v-31h-612v31q0 38 11.5 57.5t28 23t33.5 4.5t28.5 10.5t11.5 33.5q0 21 -19 65zM627 1040l-199 -512h403zM432 1597l-10 13q-2 2 -7.5 7
t-8.5 8.5t-7.5 8.5t-7 9.5t-4.5 10t-2 11.5q0 56 76.5 108t163.5 52q71 0 159 -35q11 -4 32 -12t32 -12t26 -7.5t27 -3.5q14 0 25.5 3.5t23 12.5t17 14t18.5 21t16 19l11 -13q2 -2 7.5 -7t8.5 -8.5t7.5 -8.5t7 -9.5t4.5 -10t2 -11.5q0 -56 -76.5 -108t-163.5 -52
q-62 0 -160 35q-88 35 -117 35q-14 0 -25.5 -3.5t-23 -12.5t-17 -14t-18.5 -21t-16 -19z" />
    <glyph glyph-name="Adieresis" unicode="&#xc4;" horiz-adv-x="1474" 
d="M866 414h-477l-59 -138q-31 -69 -31 -108q0 -30 14 -43t34 -14.5t40.5 -3.5t34.5 -20t14 -56v-31h-428v31q0 32 4.5 48t14 21.5t21.5 7t29 9t35.5 22.5t41.5 53t45 95l364 930l-18 47q0 1 -8.5 19t-14.5 34t-6 22q0 7 3 13t10 11t11.5 7.5t13.5 6.5t11 5l174 82
q32 19 49 19q5 0 9.5 -2t8.5 -7.5t7.5 -10t7 -13t5.5 -14t5 -15.5t5 -14l473 -1198q17 -45 40 -67t42 -25.5t36 -7t27 -21t10 -57.5v-31h-612v31q0 38 11.5 57.5t28 23t33.5 4.5t28.5 10.5t11.5 33.5q0 21 -19 65zM627 1040l-199 -512h403zM522 1860q68 0 116 -48t48 -116
t-48 -116t-116 -48t-116 48t-48 116t48 116t116 48zM952 1860q68 0 116 -48t48 -116t-48 -116t-116 -48t-116 48t-48 116t48 116t116 48z" />
    <glyph glyph-name="Aring" unicode="&#xc5;" horiz-adv-x="1474" 
d="M866 414h-477l-59 -138q-31 -69 -31 -108q0 -30 14 -43t34 -14.5t40.5 -3.5t34.5 -20t14 -56v-31h-428v31q0 32 4.5 48t14 21.5t21.5 7t29 9t35.5 22.5t41.5 53t45 95l364 930l-18 47q0 1 -8.5 19t-14.5 34t-6 22q0 7 3 13t10 11t11.5 7.5t13.5 6.5t11 5l174 82
q32 19 49 19q5 0 9.5 -2t8.5 -7.5t7.5 -10t7 -13t5.5 -14t5 -15.5t5 -14l473 -1198q17 -45 40 -67t42 -25.5t36 -7t27 -21t10 -57.5v-31h-612v31q0 38 11.5 57.5t28 23t33.5 4.5t28.5 10.5t11.5 33.5q0 21 -19 65zM627 1040l-199 -512h403zM707 1942q89 0 152 -63.5
t63 -152.5t-63 -152t-152 -63t-152 63t-63 152t63 152.5t152 63.5zM707 1815q-37 0 -63 -26t-26 -63t26 -62.5t63 -25.5t62.5 25.5t25.5 62.5t-25.5 63t-62.5 26z" />
    <glyph glyph-name="AE" unicode="&#xc6;" horiz-adv-x="2007" 
d="M633 774h348v510q0 2 1 10.5t1 15.5t-1.5 15.5t-5.5 13t-11 4.5q-17 0 -25 -24zM563 651l-215 -379q-1 -2 -9.5 -16.5t-12.5 -21t-11 -20.5t-10.5 -23t-6.5 -20t-3 -19q0 -27 13.5 -37.5t33.5 -10.5t39.5 -1t33 -16.5t13.5 -49.5v-37h-451v37q0 37 8.5 50.5t25 14.5t37 3
t50.5 27t58 75l553 973q32 54 32 96q0 30 -20.5 43.5t-45 15t-45 12t-20.5 33.5v60h1145q98 0 166 45v-381h-61q-28 0 -47 16.5t-28.5 41t-25 53t-34 53t-58 41t-94.5 16.5h-254v-520h121q42 0 67.5 10.5t34.5 26.5t16.5 34.5t13.5 34.5t25 26.5t52 10.5h37v-409h-56
q-33 0 -50.5 15.5t-25 37.5t-16.5 44.5t-33 38t-65 15.5h-121v-575h328q60 0 100.5 15t60.5 38.5t31.5 52t17.5 57t14.5 52t27.5 38.5t51 15h49v-383h-1133v37q0 35 12 51.5t29 20.5t33.5 9.5t28.5 28t12 66.5v438h-418z" />
    <glyph glyph-name="Ccedilla" unicode="&#xc7;" horiz-adv-x="1351" 
d="M1266 1413v-397h-56q-35 0 -61.5 25.5t-43.5 64t-42.5 83.5t-55 83.5t-84.5 64t-128 25.5q-65 0 -119 -20.5t-92.5 -55t-68.5 -83t-48 -101t-30 -113.5t-16.5 -115.5t-4.5 -111.5q0 -96 14.5 -185t49.5 -176.5t87.5 -151.5t135.5 -103.5t186 -39.5q116 0 193 48t145 151
l8 12l98 -63q-179 -291 -518 -291q-28 0 -82 4l-47 -65q28 4 45 4q80 0 138.5 -40t58.5 -116q0 -79 -72.5 -123.5t-157.5 -44.5q-59 0 -132.5 20.5t-73.5 55.5q0 19 28 68q82 -54 178 -54q39 0 67 17.5t28 54.5q0 38 -36 55t-79 17q-39 0 -88 -17l-66 74l84 115
q-254 63 -402.5 265t-148.5 486q0 118 29 228t86.5 202.5t137.5 161.5t187 107.5t230 38.5q144 0 254 -52q17 -7 48 -22.5t48 -22t33 -6.5q20 0 30 9.5t17 29.5h109z" />
    <glyph glyph-name="Egrave" unicode="&#xc8;" horiz-adv-x="1228" 
d="M512 1325v-520h137q42 0 67.5 10.5t34.5 26.5t16.5 34.5t13.5 34.5t25 26.5t52 10.5h37v-409h-55q-33 0 -50.5 15.5t-25.5 37.5t-17 44.5t-33 38t-65 15.5h-137v-575h342q60 0 100.5 14.5t60.5 38t31.5 51.5t17.5 56t14.5 51.5t27.5 38t51 14.5h49v-379h-1147v37
q0 35 12 51.5t28.5 20.5t33.5 9.5t29 28t12 66.5v1014q0 44 -12 66.5t-28.5 28t-33.5 9.5t-29 20.5t-12 51.5v37h902q97 0 165 45v-385h-61q-28 0 -47 16.5t-28.5 41.5t-25 54.5t-34 54.5t-58 41.5t-94.5 16.5h-266zM821 1581l-65 -96l-256 133q-174 92 -174 168
q0 35 28 65.5t62 30.5q40 0 72 -18.5t71 -53.5z" />
    <glyph glyph-name="Eacute" unicode="&#xc9;" horiz-adv-x="1228" 
d="M512 1325v-520h137q42 0 67.5 10.5t34.5 26.5t16.5 34.5t13.5 34.5t25 26.5t52 10.5h37v-409h-55q-33 0 -50.5 15.5t-25.5 37.5t-17 44.5t-33 38t-65 15.5h-137v-575h342q60 0 100.5 14.5t60.5 38t31.5 51.5t17.5 56t14.5 51.5t27.5 38t51 14.5h49v-379h-1147v37
q0 35 12 51.5t28.5 20.5t33.5 9.5t29 28t12 66.5v1014q0 44 -12 66.5t-28.5 28t-33.5 9.5t-29 20.5t-12 51.5v37h902q97 0 165 45v-385h-61q-28 0 -47 16.5t-28.5 41.5t-25 54.5t-34 54.5t-58 41.5t-94.5 16.5h-266zM514 1485l-65 96l262 229q39 35 71 53.5t72 18.5
q34 0 62 -30.5t28 -65.5q0 -76 -174 -168z" />
    <glyph glyph-name="Ecircumflex" unicode="&#xca;" horiz-adv-x="1228" 
d="M512 1325v-520h137q42 0 67.5 10.5t34.5 26.5t16.5 34.5t13.5 34.5t25 26.5t52 10.5h37v-409h-55q-33 0 -50.5 15.5t-25.5 37.5t-17 44.5t-33 38t-65 15.5h-137v-575h342q60 0 100.5 14.5t60.5 38t31.5 51.5t17.5 56t14.5 51.5t27.5 38t51 14.5h49v-379h-1147v37
q0 35 12 51.5t28.5 20.5t33.5 9.5t29 28t12 66.5v1014q0 44 -12 66.5t-28.5 28t-33.5 9.5t-29 20.5t-12 51.5v37h902q97 0 165 45v-385h-61q-28 0 -47 16.5t-28.5 41.5t-25 54.5t-34 54.5t-58 41.5t-94.5 16.5h-266zM989 1524l-311 121q-53 20 -66 20q-12 0 -65 -20
l-307 -121l-54 104l275 176q6 4 23 15t21 13.5t17 9.5t19.5 8.5t19 5t25 4t28.5 0.5q12 0 22.5 -0.5t20.5 -2.5t16 -2.5t16 -5t14 -6t15 -8t14 -8.5t17 -11t19 -12l274 -176z" />
    <glyph glyph-name="Edieresis" unicode="&#xcb;" horiz-adv-x="1228" 
d="M512 1325v-520h137q42 0 67.5 10.5t34.5 26.5t16.5 34.5t13.5 34.5t25 26.5t52 10.5h37v-409h-55q-33 0 -50.5 15.5t-25.5 37.5t-17 44.5t-33 38t-65 15.5h-137v-575h342q60 0 100.5 14.5t60.5 38t31.5 51.5t17.5 56t14.5 51.5t27.5 38t51 14.5h49v-379h-1147v37
q0 35 12 51.5t28.5 20.5t33.5 9.5t29 28t12 66.5v1014q0 44 -12 66.5t-28.5 28t-33.5 9.5t-29 20.5t-12 51.5v37h902q97 0 165 45v-385h-61q-28 0 -47 16.5t-28.5 41.5t-25 54.5t-34 54.5t-58 41.5t-94.5 16.5h-266zM399 1860q67 0 115.5 -48t48.5 -116t-48.5 -116
t-115.5 -48t-115 48t-48 116t48 116t115 48zM829 1860q67 0 115.5 -48t48.5 -116t-48.5 -116t-115.5 -48t-115 48t-48 116t48 116t115 48z" />
    <glyph glyph-name="Igrave" unicode="&#xcc;" horiz-adv-x="696" 
d="M61 1440h572v-31q0 -38 -12 -55.5t-29.5 -21.5t-34.5 -9.5t-29 -28t-12 -67.5v-1014q0 -45 12 -67.5t29 -28t34.5 -9.5t29.5 -21.5t12 -55.5v-31h-572v31q0 38 12 55.5t29 21.5t34.5 9.5t29.5 28t12 67.5v1014q0 45 -12 67.5t-29 28t-34.5 9.5t-29.5 21.5t-12 55.5v31z
M555 1581l-66 -96l-256 133q-174 92 -174 168q0 35 28 65.5t63 30.5q40 0 72 -18.5t71 -53.5z" />
    <glyph glyph-name="Iacute" unicode="&#xcd;" horiz-adv-x="696" 
d="M61 1440h572v-31q0 -38 -12 -55.5t-29.5 -21.5t-34.5 -9.5t-29 -28t-12 -67.5v-1014q0 -45 12 -67.5t29 -28t34.5 -9.5t29.5 -21.5t12 -55.5v-31h-572v31q0 38 12 55.5t29 21.5t34.5 9.5t29.5 28t12 67.5v1014q0 45 -12 67.5t-29 28t-34.5 9.5t-29.5 21.5t-12 55.5v31z
M186 1485l-65 96l262 229q39 35 71 53.5t72 18.5q34 0 62 -30.5t28 -65.5q0 -76 -174 -168z" />
    <glyph glyph-name="Icircumflex" unicode="&#xce;" horiz-adv-x="696" 
d="M61 1440h572v-31q0 -38 -12 -55.5t-29.5 -21.5t-34.5 -9.5t-29 -28t-12 -67.5v-1014q0 -45 12 -67.5t29 -28t34.5 -9.5t29.5 -21.5t12 -55.5v-31h-572v31q0 38 12 55.5t29 21.5t34.5 9.5t29.5 28t12 67.5v1014q0 45 -12 67.5t-29 28t-34.5 9.5t-29.5 21.5t-12 55.5v31z
M702 1524l-311 121q-53 20 -65 20q-13 0 -66 -20l-307 -121l-53 104l274 176q6 4 20.5 13.5t19 12t15.5 9t16.5 8.5t16 5.5t19.5 4.5t21 2t26 1t26 -1t20 -2t19 -5t16 -5t17 -8t15.5 -9.5t19 -12.5t20.5 -13l275 -176z" />
    <glyph glyph-name="Idieresis" unicode="&#xcf;" horiz-adv-x="696" 
d="M61 1440h572v-31q0 -38 -12 -55.5t-29.5 -21.5t-34.5 -9.5t-29 -28t-12 -67.5v-1014q0 -45 12 -67.5t29 -28t34.5 -9.5t29.5 -21.5t12 -55.5v-31h-572v31q0 38 12 55.5t29 21.5t34.5 9.5t29.5 28t12 67.5v1014q0 45 -12 67.5t-29 28t-34.5 9.5t-29.5 21.5t-12 55.5v31z
M133 1860q67 0 115.5 -48t48.5 -116t-48.5 -116t-115.5 -48t-115.5 48t-48.5 116t48.5 116t115.5 48zM563 1860q67 0 115.5 -48t48.5 -116t-48.5 -116t-115.5 -48t-115.5 48t-48.5 116t48.5 116t115.5 48z" />
    <glyph glyph-name="Eth" unicode="&#xd0;" horiz-adv-x="1474" 
d="M0 676v123h195v428q0 44 -12 66.5t-28.5 28t-33.5 9.5t-29 20.5t-12 51.5v37h680q109 0 210 -30.5t186.5 -91.5t149.5 -145t100 -198t36 -244q0 -145 -42 -267t-113 -206t-165.5 -143.5t-197.5 -87t-211 -27.5h-633v37q0 35 12 51.5t28.5 20.5t33.5 9.5t29 28t12 66.5
v463h-195zM805 799v-123h-273v-561h109q124 0 209.5 41t133.5 123t68.5 189t20.5 255q0 122 -19.5 220.5t-48.5 160t-70.5 106.5t-76.5 66t-77 33.5t-61 14t-38 1.5h-150v-526h273z" />
    <glyph glyph-name="Ntilde" unicode="&#xd1;" horiz-adv-x="1433" 
d="M555 1440l580 -854v641q0 45 -12 67.5t-29.5 28t-34.5 9.5t-29 21.5t-12 55.5v31h358v-31q0 -38 -11.5 -55.5t-28.5 -21.5t-34 -9.5t-28.5 -28t-11.5 -67.5v-1227h-148l-792 1188v-975q0 -45 13.5 -67.5t33 -28t38.5 -9.5t32.5 -21.5t13.5 -55.5v-31h-387v31
q0 38 13.5 55.5t32 21.5t37.5 9.5t32.5 28t13.5 67.5v1014q0 45 -13.5 67.5t-32.5 28t-37.5 9.5t-32 21.5t-13.5 55.5v31h489zM432 1597l-10 13q-2 2 -7.5 7t-8.5 8.5t-7.5 8.5t-7 9.5t-4.5 10t-2 11.5q0 56 76.5 108t163.5 52q71 0 159 -35q11 -4 32 -12t32 -12t26 -7.5
t27 -3.5q14 0 25.5 3.5t23 12.5t17 14t18.5 21t16 19l11 -13q2 -2 7.5 -7t8.5 -8.5t7.5 -8.5t7 -9.5t4.5 -10t2 -11.5q0 -56 -76.5 -108t-163.5 -52q-62 0 -160 35q-88 35 -117 35q-14 0 -25.5 -3.5t-23 -12.5t-17 -14t-18.5 -21t-16 -19z" />
    <glyph glyph-name="Ograve" unicode="&#xd2;" horiz-adv-x="1597" 
d="M799 -37q-217 0 -386 97.5t-260.5 269t-91.5 389.5t91.5 390.5t259.5 270t385 97.5t385.5 -97.5t260 -269t91.5 -389.5t-91 -390.5t-259 -270t-385 -97.5zM799 61q66 0 120.5 24.5t91.5 65t65.5 97.5t45 115t26.5 125t13.5 121.5t3.5 109.5q0 56 -3.5 110.5t-13.5 122
t-26.5 125.5t-45 115t-65.5 97t-92 64.5t-122 24.5q-66 0 -120.5 -24.5t-92 -65t-66 -97t-45 -114.5t-26.5 -125t-13.5 -121.5t-3.5 -109.5q0 -56 3.5 -110.5t13.5 -122t26.5 -125.5t45 -115t66 -97t92.5 -65t122 -25zM1006 1581l-66 -96l-256 133q-174 92 -174 168
q0 35 28 65.5t62 30.5q40 0 72 -18.5t71 -53.5z" />
    <glyph glyph-name="Oacute" unicode="&#xd3;" horiz-adv-x="1597" 
d="M799 -37q-217 0 -386 97.5t-260.5 269t-91.5 389.5t91.5 390.5t259.5 270t385 97.5t385.5 -97.5t260 -269t91.5 -389.5t-91 -390.5t-259 -270t-385 -97.5zM799 61q66 0 120.5 24.5t91.5 65t65.5 97.5t45 115t26.5 125t13.5 121.5t3.5 109.5q0 56 -3.5 110.5t-13.5 122
t-26.5 125.5t-45 115t-65.5 97t-92 64.5t-122 24.5q-66 0 -120.5 -24.5t-92 -65t-66 -97t-45 -114.5t-26.5 -125t-13.5 -121.5t-3.5 -109.5q0 -56 3.5 -110.5t13.5 -122t26.5 -125.5t45 -115t66 -97t92.5 -65t122 -25zM657 1485l-65 96l262 229q39 35 71 53.5t72 18.5
q34 0 62 -30.5t28 -65.5q0 -76 -174 -168z" />
    <glyph glyph-name="Ocircumflex" unicode="&#xd4;" horiz-adv-x="1597" 
d="M799 -37q-217 0 -386 97.5t-260.5 269t-91.5 389.5t91.5 390.5t259.5 270t385 97.5t385.5 -97.5t260 -269t91.5 -389.5t-91 -390.5t-259 -270t-385 -97.5zM799 61q66 0 120.5 24.5t91.5 65t65.5 97.5t45 115t26.5 125t13.5 121.5t3.5 109.5q0 56 -3.5 110.5t-13.5 122
t-26.5 125.5t-45 115t-65.5 97t-92 64.5t-122 24.5q-66 0 -120.5 -24.5t-92 -65t-66 -97t-45 -114.5t-26.5 -125t-13.5 -121.5t-3.5 -109.5q0 -56 3.5 -110.5t13.5 -122t26.5 -125.5t45 -115t66 -97t92.5 -65t122 -25zM1174 1524l-312 121q-53 20 -65 20q-13 0 -66 -20
l-307 -121l-53 104l274 176q6 4 20.5 13.5t19 12t15.5 9t16.5 8.5t16 5.5t19.5 4.5t21 2t26 1t26 -1t20 -2t19 -5t16 -5t17 -8t15.5 -9.5t19 -12.5t20.5 -13l275 -176z" />
    <glyph glyph-name="Otilde" unicode="&#xd5;" horiz-adv-x="1597" 
d="M799 -37q-217 0 -386 97.5t-260.5 269t-91.5 389.5t91.5 390.5t259.5 270t385 97.5t385.5 -97.5t260 -269t91.5 -389.5t-91 -390.5t-259 -270t-385 -97.5zM799 61q66 0 120.5 24.5t91.5 65t65.5 97.5t45 115t26.5 125t13.5 121.5t3.5 109.5q0 56 -3.5 110.5t-13.5 122
t-26.5 125.5t-45 115t-65.5 97t-92 64.5t-122 24.5q-66 0 -120.5 -24.5t-92 -65t-66 -97t-45 -114.5t-26.5 -125t-13.5 -121.5t-3.5 -109.5q0 -56 3.5 -110.5t13.5 -122t26.5 -125.5t45 -115t66 -97t92.5 -65t122 -25zM514 1597l-10 13q-2 2 -7.5 7t-8.5 8.5t-7.5 8.5
t-7 9.5t-4.5 10t-2 11.5q0 56 76.5 108t163.5 52q71 0 159 -35q11 -4 32 -12t32 -12t26 -7.5t27 -3.5q14 0 25.5 3.5t23 12.5t17 14t18.5 21t16 19l11 -13l7 -7l8.5 -8.5t7.5 -8.5t7 -10t4 -9.5t2 -11.5q0 -56 -76 -108t-163 -52q-62 0 -160 35q-87 35 -117 35
q-14 0 -25.5 -3.5t-23 -12.5t-17 -14t-18.5 -21t-16 -19z" />
    <glyph glyph-name="Odieresis" unicode="&#xd6;" horiz-adv-x="1597" 
d="M799 -37q-217 0 -386 97.5t-260.5 269t-91.5 389.5t91.5 390.5t259.5 270t385 97.5t385.5 -97.5t260 -269t91.5 -389.5t-91 -390.5t-259 -270t-385 -97.5zM799 61q66 0 120.5 24.5t91.5 65t65.5 97.5t45 115t26.5 125t13.5 121.5t3.5 109.5q0 56 -3.5 110.5t-13.5 122
t-26.5 125.5t-45 115t-65.5 97t-92 64.5t-122 24.5q-66 0 -120.5 -24.5t-92 -65t-66 -97t-45 -114.5t-26.5 -125t-13.5 -121.5t-3.5 -109.5q0 -56 3.5 -110.5t13.5 -122t26.5 -125.5t45 -115t66 -97t92.5 -65t122 -25zM563 1860q67 0 115.5 -48t48.5 -116t-48.5 -116
t-115.5 -48t-115.5 48t-48.5 116t48.5 116t115.5 48zM993 1860q67 0 115.5 -48t48.5 -116t-48.5 -116t-115.5 -48t-115.5 48t-48.5 116t48.5 116t115.5 48z" />
    <glyph glyph-name="multiply" unicode="&#xd7;" 
d="M92 860l117 117l364 -365l365 365l117 -117l-365 -364l365 -365l-117 -117l-365 365l-364 -365l-117 117l365 365z" />
    <glyph glyph-name="Oslash" unicode="&#xd8;" horiz-adv-x="1597" 
d="M479 344l598 842q-41 88 -111.5 140t-168.5 52q-66 0 -120.5 -24.5t-92 -64.5t-66 -96.5t-45 -114.5t-26.5 -125t-13.5 -121.5t-3.5 -110.5q0 -78 11.5 -187.5t37.5 -189.5zM1137 1018l-584 -821q89 -136 246 -136q66 0 120.5 24.5t91.5 64.5t65.5 97t45 115t26.5 125
t13.5 121.5t3.5 110.5q0 159 -28 299zM1202 1366l154 217h180l-217 -307q215 -215 215 -555q0 -218 -91 -390.5t-259 -270t-385 -97.5q-198 0 -355 82l-206 -291h-179l260 373q-258 217 -258 592q0 218 91.5 390.5t259.5 270t385 97.5q225 0 405 -111z" />
    <glyph glyph-name="Ugrave" unicode="&#xd9;" horiz-adv-x="1392" 
d="M37 1440h567v-31q0 -38 -12 -55.5t-29 -21.5t-33.5 -9.5t-28.5 -28t-12 -67.5v-766q0 -85 13 -148t44.5 -116.5t91.5 -81t148 -27.5q57 0 105.5 12.5t82 32.5t59.5 47t41 54t25 56t13.5 50.5t3.5 38.5v848q0 45 -12 67.5t-29 28t-33.5 9.5t-28.5 21.5t-12 55.5v31h357
v-31q0 -38 -12 -55.5t-29 -21.5t-33.5 -9.5t-28.5 -28t-12 -67.5v-848q0 -197 -148 -306.5t-384 -109.5q-94 0 -176.5 16.5t-153 52t-121 87.5t-79.5 127.5t-29 167.5v813q0 45 -12 67.5t-28.5 28t-33.5 9.5t-29 21.5t-12 55.5v31zM903 1581l-65 -96l-256 133
q-174 92 -174 168q0 35 28 65.5t62 30.5q40 0 72 -18.5t71 -53.5z" />
    <glyph glyph-name="Uacute" unicode="&#xda;" horiz-adv-x="1392" 
d="M37 1440h567v-31q0 -38 -12 -55.5t-29 -21.5t-33.5 -9.5t-28.5 -28t-12 -67.5v-766q0 -85 13 -148t44.5 -116.5t91.5 -81t148 -27.5q57 0 105.5 12.5t82 32.5t59.5 47t41 54t25 56t13.5 50.5t3.5 38.5v848q0 45 -12 67.5t-29 28t-33.5 9.5t-28.5 21.5t-12 55.5v31h357
v-31q0 -38 -12 -55.5t-29 -21.5t-33.5 -9.5t-28.5 -28t-12 -67.5v-848q0 -197 -148 -306.5t-384 -109.5q-94 0 -176.5 16.5t-153 52t-121 87.5t-79.5 127.5t-29 167.5v813q0 45 -12 67.5t-28.5 28t-33.5 9.5t-29 21.5t-12 55.5v31zM637 1485l-66 96l263 229q39 35 71 53.5
t72 18.5q34 0 62 -30.5t28 -65.5q0 -76 -174 -168z" />
    <glyph glyph-name="Ucircumflex" unicode="&#xdb;" horiz-adv-x="1392" 
d="M37 1440h567v-31q0 -38 -12 -55.5t-29 -21.5t-33.5 -9.5t-28.5 -28t-12 -67.5v-766q0 -85 13 -148t44.5 -116.5t91.5 -81t148 -27.5q57 0 105.5 12.5t82 32.5t59.5 47t41 54t25 56t13.5 50.5t3.5 38.5v848q0 45 -12 67.5t-29 28t-33.5 9.5t-28.5 21.5t-12 55.5v31h357
v-31q0 -38 -12 -55.5t-29 -21.5t-33.5 -9.5t-28.5 -28t-12 -67.5v-848q0 -197 -148 -306.5t-384 -109.5q-94 0 -176.5 16.5t-153 52t-121 87.5t-79.5 127.5t-29 167.5v813q0 45 -12 67.5t-28.5 28t-33.5 9.5t-29 21.5t-12 55.5v31zM1092 1524l-312 121q-53 20 -65 20
q-13 0 -66 -20l-307 -121l-53 104l274 176q6 4 20.5 13.5t19 12t15.5 9t16.5 8.5t16 5.5t19.5 4.5t21 2t26 1t26 -1t20 -2t19 -5t16 -5t17 -8t15.5 -9.5t19 -12.5t20.5 -13l275 -176z" />
    <glyph glyph-name="Udieresis" unicode="&#xdc;" horiz-adv-x="1392" 
d="M37 1440h567v-31q0 -38 -12 -55.5t-29 -21.5t-33.5 -9.5t-28.5 -28t-12 -67.5v-766q0 -85 13 -148t44.5 -116.5t91.5 -81t148 -27.5q57 0 105.5 12.5t82 32.5t59.5 47t41 54t25 56t13.5 50.5t3.5 38.5v848q0 45 -12 67.5t-29 28t-33.5 9.5t-28.5 21.5t-12 55.5v31h357
v-31q0 -38 -12 -55.5t-29 -21.5t-33.5 -9.5t-28.5 -28t-12 -67.5v-848q0 -197 -148 -306.5t-384 -109.5q-94 0 -176.5 16.5t-153 52t-121 87.5t-79.5 127.5t-29 167.5v813q0 45 -12 67.5t-28.5 28t-33.5 9.5t-29 21.5t-12 55.5v31zM543 1860q67 0 115.5 -48t48.5 -116
t-48.5 -116t-115.5 -48t-115.5 48t-48.5 116t48.5 116t115.5 48zM973 1860q67 0 115.5 -48t48.5 -116t-48.5 -116t-115.5 -48t-115.5 48t-48.5 116t48.5 116t115.5 48z" />
    <glyph glyph-name="Yacute" unicode="&#xdd;" horiz-adv-x="1392" 
d="M1257 1262l-372 -633v-416q0 -45 13.5 -67t32 -27t37.5 -9t32.5 -22t13.5 -57v-31h-596v31q0 36 13.5 53.5t32 22t37.5 10t32.5 28.5t13.5 68v381l-389 639q-26 42 -53 66t-44.5 29.5t-32 11t-21.5 20.5t-7 49v31h670v-31q0 -33 -12.5 -50.5t-31 -22.5t-36.5 -9
t-30.5 -15.5t-12.5 -35.5q0 -6 1 -12t2 -10.5t4 -11t4.5 -10t5.5 -10t5.5 -9t6.5 -10t6 -9.5l247 -410l244 416q0 1 8.5 14t11 18l8 16t7.5 19.5t2 16.5q0 27 -18.5 36.5t-40 9t-40 18t-18.5 61.5v31h412v-35q0 -35 -7.5 -49.5t-22.5 -17.5t-32 -4.5t-41 -18.5t-45 -53z
M637 1485l-66 96l263 229q39 35 71 53.5t72 18.5q34 0 62 -30.5t28 -65.5q0 -76 -174 -168z" />
    <glyph glyph-name="Thorn" unicode="&#xde;" horiz-adv-x="1310" 
d="M512 1018v-565h115q117 0 189.5 70t72.5 229q0 77 -20 131t-59 82.5t-86 40.5t-110 12h-102zM645 0h-586v31q0 38 12 55.5t28.5 21.5t33.5 9.5t29 28t12 67.5v1014q0 45 -12 67.5t-28.5 28t-33.5 9.5t-29 21.5t-12 55.5v31h586v-31q0 -38 -13.5 -55.5t-33.5 -21.5
t-39.5 -9.5t-33 -28t-13.5 -67.5v-94h252q77 0 145 -12t131 -40t108 -71t72 -108.5t27 -147.5q0 -100 -31.5 -176.5t-81 -121t-120 -72t-138 -37t-145.5 -9.5h-219v-125q0 -45 13.5 -67.5t33 -28t39.5 -9.5t33.5 -21.5t13.5 -55.5v-31z" />
    <glyph glyph-name="germandbls" unicode="&#xdf;" horiz-adv-x="1433" 
d="M1384 328q0 -88 -37.5 -159.5t-100 -115t-139.5 -67t-161 -23.5q-62 0 -124 16t-117 46.5t-89 83t-34 118.5q0 63 44 104.5t107 41.5q62 0 104 -37.5t42 -97.5q0 -34 -25 -65.5t-25 -49.5q0 -30 35 -46t70 -16q69 0 124.5 47t55.5 115q0 47 -29 83.5t-76 61.5
t-103.5 47.5t-113 49t-103.5 58.5t-76 82t-29 114q0 37 7.5 66t16 45.5t28.5 32t30.5 20.5t37.5 17q2 1 3.5 1.5t3.5 1.5l4 2q31 13 49.5 24t40 35t31.5 64t10 98q0 41 -10 85t-29.5 85.5t-55 68t-81.5 26.5q-37 0 -64.5 -13t-44 -38t-27.5 -51t-15 -64t-5.5 -63.5
t-1.5 -61.5v-1100h-436v31q0 38 11.5 55.5t28 21.5t33 9.5t28 28t11.5 67.5v668h-143v37q0 33 13.5 47.5t34 18t42 8t39 26t23.5 63.5q27 202 162.5 299t355.5 97q61 0 121.5 -10t121.5 -34t107 -59.5t75 -92.5t29 -128q0 -87 -43.5 -133.5t-117.5 -75.5q-16 -6 -47.5 -17.5
t-47 -18t-34.5 -17.5t-27 -25t-8 -32q0 -28 30 -52t77.5 -44t105 -43t115 -55t105 -72t77.5 -102t30 -138z" />
    <glyph glyph-name="agrave" unicode="&#xe0;" horiz-adv-x="1105" 
d="M651 393v154q-117 -13 -196.5 -83t-79.5 -183q0 -38 11 -76.5t39 -69.5t67 -31q40 0 70 21t46.5 51.5t26.5 72t13 75.5t3 69zM647 647q1 45 -5.5 88.5t-23 88.5t-51 72.5t-82.5 27.5q-36 0 -67 -16.5t-31 -49.5q0 -13 5 -36.5t5 -35.5q0 -56 -42 -91.5t-99 -35.5
q-60 0 -107 38.5t-47 97.5q0 62 40.5 109t105 71t129.5 35.5t129 11.5q22 0 44 -1t72.5 -9.5t92 -24t92.5 -48t85.5 -76.5t58.5 -115.5t24 -159.5v-281q0 -3 -1 -24t-1 -38.5t2.5 -42t7.5 -41t16.5 -28.5t28.5 -12q30 0 53 31l11 -15q26 -36 26 -49q0 -39 -65.5 -78
t-112.5 -39q-91 0 -145.5 40t-92.5 118q-69 -86 -142.5 -122t-182.5 -36q-142 0 -241 76t-99 213q0 44 12.5 83t32.5 69t52.5 57t63.5 46.5t76 37.5t78.5 28.5t82.5 22.5t77.5 17.5t73.5 14t61 11.5zM719 1176l-66 -97l-256 133q-174 92 -174 168q0 35 28 66t62 31
q40 0 73 -19t71 -53z" />
    <glyph glyph-name="aacute" unicode="&#xe1;" horiz-adv-x="1105" 
d="M651 393v154q-117 -13 -196.5 -83t-79.5 -183q0 -38 11 -76.5t39 -69.5t67 -31q40 0 70 21t46.5 51.5t26.5 72t13 75.5t3 69zM647 647q1 45 -5.5 88.5t-23 88.5t-51 72.5t-82.5 27.5q-36 0 -67 -16.5t-31 -49.5q0 -13 5 -36.5t5 -35.5q0 -56 -42 -91.5t-99 -35.5
q-60 0 -107 38.5t-47 97.5q0 62 40.5 109t105 71t129.5 35.5t129 11.5q22 0 44 -1t72.5 -9.5t92 -24t92.5 -48t85.5 -76.5t58.5 -115.5t24 -159.5v-281q0 -3 -1 -24t-1 -38.5t2.5 -42t7.5 -41t16.5 -28.5t28.5 -12q30 0 53 31l11 -15q26 -36 26 -49q0 -39 -65.5 -78
t-112.5 -39q-91 0 -145.5 40t-92.5 118q-69 -86 -142.5 -122t-182.5 -36q-142 0 -241 76t-99 213q0 44 12.5 83t32.5 69t52.5 57t63.5 46.5t76 37.5t78.5 28.5t82.5 22.5t77.5 17.5t73.5 14t61 11.5zM412 1079l-66 97l262 229q38 34 71 53t73 19q34 0 62 -31t28 -66
q0 -76 -174 -168z" />
    <glyph glyph-name="acircumflex" unicode="&#xe2;" horiz-adv-x="1105" 
d="M651 393v154q-117 -13 -196.5 -83t-79.5 -183q0 -38 11 -76.5t39 -69.5t67 -31q40 0 70 21t46.5 51.5t26.5 72t13 75.5t3 69zM647 647q1 45 -5.5 88.5t-23 88.5t-51 72.5t-82.5 27.5q-36 0 -67 -16.5t-31 -49.5q0 -13 5 -36.5t5 -35.5q0 -56 -42 -91.5t-99 -35.5
q-60 0 -107 38.5t-47 97.5q0 62 40.5 109t105 71t129.5 35.5t129 11.5q22 0 44 -1t72.5 -9.5t92 -24t92.5 -48t85.5 -76.5t58.5 -115.5t24 -159.5v-281q0 -3 -1 -24t-1 -38.5t2.5 -42t7.5 -41t16.5 -28.5t28.5 -12q30 0 53 31l11 -15q26 -36 26 -49q0 -39 -65.5 -78
t-112.5 -39q-91 0 -145.5 40t-92.5 118q-69 -86 -142.5 -122t-182.5 -36q-142 0 -241 76t-99 213q0 44 12.5 83t32.5 69t52.5 57t63.5 46.5t76 37.5t78.5 28.5t82.5 22.5t77.5 17.5t73.5 14t61 11.5zM866 1118l-311 121q-56 21 -66 21q-9 0 -65 -21l-307 -121l-54 105
l275 176q5 3 18.5 12t17 11t14.5 8.5t15 8t13.5 5.5t16 4.5t16.5 2.5t20 2.5t23 0.5q11 0 21 -0.5t17.5 -1t16 -3t13.5 -3.5t13.5 -5t12 -5.5t13.5 -7.5t13.5 -8t15.5 -10t17 -11l275 -176z" />
    <glyph glyph-name="atilde" unicode="&#xe3;" horiz-adv-x="1105" 
d="M651 393v154q-117 -13 -196.5 -83t-79.5 -183q0 -38 11 -76.5t39 -69.5t67 -31q40 0 70 21t46.5 51.5t26.5 72t13 75.5t3 69zM647 647q1 45 -5.5 88.5t-23 88.5t-51 72.5t-82.5 27.5q-36 0 -67 -16.5t-31 -49.5q0 -13 5 -36.5t5 -35.5q0 -56 -42 -91.5t-99 -35.5
q-60 0 -107 38.5t-47 97.5q0 62 40.5 109t105 71t129.5 35.5t129 11.5q22 0 44 -1t72.5 -9.5t92 -24t92.5 -48t85.5 -76.5t58.5 -115.5t24 -159.5v-281q0 -3 -1 -24t-1 -38.5t2.5 -42t7.5 -41t16.5 -28.5t28.5 -12q30 0 53 31l11 -15q26 -36 26 -49q0 -39 -65.5 -78
t-112.5 -39q-91 0 -145.5 40t-92.5 118q-69 -86 -142.5 -122t-182.5 -36q-142 0 -241 76t-99 213q0 44 12.5 83t32.5 69t52.5 57t63.5 46.5t76 37.5t78.5 28.5t82.5 22.5t77.5 17.5t73.5 14t61 11.5zM248 1192l-10 12q-1 1 -7.5 7t-9 8.5t-7.5 8.5t-7 10.5t-4 10t-2 11.5
q0 56 76 107.5t163 51.5q72 0 160 -35q9 -3 31.5 -11.5t32.5 -12t25.5 -7t27.5 -3.5q14 0 25.5 3t23.5 13t16.5 13.5t18.5 20.5t16 19l10 -12q2 -2 7.5 -7t8.5 -8.5t7.5 -8.5t7 -9.5t4.5 -10t2 -11.5q0 -56 -76 -108t-163 -52q-62 0 -160 35q-87 35 -117 35
q-14 0 -25.5 -3.5t-23 -12.5t-17 -14t-18.5 -21t-16 -19z" />
    <glyph glyph-name="adieresis" unicode="&#xe4;" horiz-adv-x="1105" 
d="M651 393v154q-117 -13 -196.5 -83t-79.5 -183q0 -38 11 -76.5t39 -69.5t67 -31q40 0 70 21t46.5 51.5t26.5 72t13 75.5t3 69zM647 647q1 45 -5.5 88.5t-23 88.5t-51 72.5t-82.5 27.5q-36 0 -67 -16.5t-31 -49.5q0 -13 5 -36.5t5 -35.5q0 -56 -42 -91.5t-99 -35.5
q-60 0 -107 38.5t-47 97.5q0 62 40.5 109t105 71t129.5 35.5t129 11.5q22 0 44 -1t72.5 -9.5t92 -24t92.5 -48t85.5 -76.5t58.5 -115.5t24 -159.5v-281q0 -3 -1 -24t-1 -38.5t2.5 -42t7.5 -41t16.5 -28.5t28.5 -12q30 0 53 31l11 -15q26 -36 26 -49q0 -39 -65.5 -78
t-112.5 -39q-91 0 -145.5 40t-92.5 118q-69 -86 -142.5 -122t-182.5 -36q-142 0 -241 76t-99 213q0 44 12.5 83t32.5 69t52.5 57t63.5 46.5t76 37.5t78.5 28.5t82.5 22.5t77.5 17.5t73.5 14t61 11.5zM317 1454q67 0 115.5 -48t48.5 -116t-48.5 -116t-115.5 -48t-115 48
t-48 116t48 116t115 48zM748 1454q67 0 115 -48t48 -116t-48 -116t-115 -48q-68 0 -116 48t-48 116t48 116t116 48z" />
    <glyph glyph-name="aring" unicode="&#xe5;" horiz-adv-x="1105" 
d="M651 393v154q-117 -13 -196.5 -83t-79.5 -183q0 -38 11 -76.5t39 -69.5t67 -31q40 0 70 21t46.5 51.5t26.5 72t13 75.5t3 69zM647 647q1 45 -5.5 88.5t-23 88.5t-51 72.5t-82.5 27.5q-36 0 -67 -16.5t-31 -49.5q0 -13 5 -36.5t5 -35.5q0 -56 -42 -91.5t-99 -35.5
q-60 0 -107 38.5t-47 97.5q0 62 40.5 109t105 71t129.5 35.5t129 11.5q22 0 44 -1t72.5 -9.5t92 -24t92.5 -48t85.5 -76.5t58.5 -115.5t24 -159.5v-281q0 -3 -1 -24t-1 -38.5t2.5 -42t7.5 -41t16.5 -28.5t28.5 -12q30 0 53 31l11 -15q26 -36 26 -49q0 -39 -65.5 -78
t-112.5 -39q-91 0 -145.5 40t-92.5 118q-69 -86 -142.5 -122t-182.5 -36q-142 0 -241 76t-99 213q0 44 12.5 83t32.5 69t52.5 57t63.5 46.5t76 37.5t78.5 28.5t82.5 22.5t77.5 17.5t73.5 14t61 11.5zM532 1556q89 0 152.5 -63t63.5 -152t-63.5 -152t-152.5 -63t-152 63
t-63 152t63 152t152 63zM532 1430q-37 0 -62.5 -26t-25.5 -63t25.5 -62.5t62.5 -25.5t63 25.5t26 62.5t-26 63t-63 26z" />
    <glyph glyph-name="ae" unicode="&#xe6;" horiz-adv-x="1679" 
d="M993 625h316q1 42 -4.5 86t-20 93t-46.5 80t-77 31q-46 0 -81.5 -31t-54 -77t-26.5 -94t-6 -88zM670 424v102q-65 -2 -118 -15t-99 -40t-71.5 -75.5t-25.5 -114.5q0 -76 39.5 -135.5t110.5 -59.5q34 0 60.5 13.5t43.5 33t29 52.5t18 58.5t9 65.5t3.5 60.5t0.5 54.5z
M993 518v-39q0 -71 17.5 -138t51.5 -125.5t92.5 -94t133.5 -35.5q145 0 264 160l80 -60q-65 -100 -176.5 -157.5t-234.5 -57.5q-243 0 -416 185q-69 -88 -175 -136.5t-220 -48.5q-69 0 -133 15.5t-120 47.5t-90 88.5t-34 129.5q0 59 21.5 109.5t57 87.5t86.5 66.5t106 48.5
t119.5 32.5t123 20t119.5 8.5q2 53 -5 103t-26 98.5t-59.5 78t-98.5 29.5q-42 0 -77 -16.5t-35 -53.5q0 -12 4 -35t4 -36q0 -58 -40 -90.5t-100 -32.5q-56 0 -96.5 35t-40.5 90q0 59 37.5 105t95 71.5t117 38t113.5 12.5q110 0 214.5 -35.5t153.5 -112.5q122 148 324 148
q221 0 350.5 -141t126.5 -363h-635z" />
    <glyph glyph-name="ccedilla" unicode="&#xe7;" horiz-adv-x="1024" 
d="M913 215l72 -63q-117 -181 -352 -181q-40 0 -58 2l-53 -71q28 4 45 4q80 0 138.5 -40t58.5 -116q0 -79 -72 -123.5t-157 -44.5q-60 0 -133.5 20.5t-73.5 55.5q0 19 28 68q82 -54 179 -54q39 0 66.5 17.5t27.5 54.5q0 38 -36 55t-79 17q-39 0 -88 -17l-66 74l89 123
q-179 49 -289.5 184.5t-110.5 329.5q0 154 76 272t201.5 179t277.5 61q61 0 119 -11.5t114.5 -36t91 -73t34.5 -113.5q0 -60 -43 -102.5t-103 -42.5q-52 0 -94.5 35t-42.5 86q0 29 17.5 60t17.5 44q0 28 -24 42t-54 14q-71 0 -123 -40t-78 -105t-37.5 -129t-11.5 -130
q0 -62 8.5 -120t30 -116.5t54.5 -101t86.5 -69.5t121.5 -27q126 0 225 129z" />
    <glyph glyph-name="egrave" unicode="&#xe8;" horiz-adv-x="1105" 
d="M1042 518h-651v-24q0 -74 15.5 -141.5t48 -127.5t92 -95.5t139.5 -35.5q60 0 113 22.5t89.5 53.5t82.5 82l80 -70q-75 -105 -189 -158t-248 -53q-158 0 -286 70.5t-201.5 197.5t-73.5 285q0 214 141 356t355 142q231 0 360.5 -136t132.5 -368zM393 625h332
q1 48 -5.5 94.5t-22.5 95.5t-50.5 79t-83.5 30q-41 0 -72 -20.5t-49 -51t-29.5 -73t-15 -78.5t-4.5 -76zM760 1176l-66 -97l-256 133q-174 92 -174 168q0 35 28 66t62 31q40 0 73 -19t71 -53z" />
    <glyph glyph-name="eacute" unicode="&#xe9;" horiz-adv-x="1105" 
d="M1042 518h-651v-24q0 -74 15.5 -141.5t48 -127.5t92 -95.5t139.5 -35.5q60 0 113 22.5t89.5 53.5t82.5 82l80 -70q-75 -105 -189 -158t-248 -53q-158 0 -286 70.5t-201.5 197.5t-73.5 285q0 214 141 356t355 142q231 0 360.5 -136t132.5 -368zM393 625h332
q1 48 -5.5 94.5t-22.5 95.5t-50.5 79t-83.5 30q-41 0 -72 -20.5t-49 -51t-29.5 -73t-15 -78.5t-4.5 -76zM412 1079l-66 97l262 229q38 34 71 53t73 19q34 0 62 -31t28 -66q0 -76 -174 -168z" />
    <glyph glyph-name="ecircumflex" unicode="&#xea;" horiz-adv-x="1105" 
d="M1042 518h-651v-24q0 -74 15.5 -141.5t48 -127.5t92 -95.5t139.5 -35.5q60 0 113 22.5t89.5 53.5t82.5 82l80 -70q-75 -105 -189 -158t-248 -53q-158 0 -286 70.5t-201.5 197.5t-73.5 285q0 214 141 356t355 142q231 0 360.5 -136t132.5 -368zM393 625h332
q1 48 -5.5 94.5t-22.5 95.5t-50.5 79t-83.5 30q-41 0 -72 -20.5t-49 -51t-29.5 -73t-15 -78.5t-4.5 -76zM928 1118l-312 121q-56 21 -65 21q-10 0 -66 -21l-307 -121l-53 105l274 176q5 3 18.5 12t17 11t14.5 8.5t15 8t13.5 5.5t16 4.5t16.5 2.5t20 2.5t23 0.5q33 0 57.5 -6
t37 -12.5t46.5 -28.5q4 -2 7 -4l6 -4l274 -176z" />
    <glyph glyph-name="edieresis" unicode="&#xeb;" horiz-adv-x="1105" 
d="M1042 518h-651v-24q0 -74 15.5 -141.5t48 -127.5t92 -95.5t139.5 -35.5q60 0 113 22.5t89.5 53.5t82.5 82l80 -70q-75 -105 -189 -158t-248 -53q-158 0 -286 70.5t-201.5 197.5t-73.5 285q0 214 141 356t355 142q231 0 360.5 -136t132.5 -368zM393 625h332
q1 48 -5.5 94.5t-22.5 95.5t-50.5 79t-83.5 30q-41 0 -72 -20.5t-49 -51t-29.5 -73t-15 -78.5t-4.5 -76zM338 1454q68 0 116 -48t48 -116t-48 -116t-116 -48t-116 48t-48 116t48 116t116 48zM768 1454q68 0 116 -48t48 -116t-48 -116t-116 -48t-116 48t-48 116t48 116
t116 48z" />
    <glyph glyph-name="igrave" unicode="&#xec;" horiz-adv-x="655" 
d="M487 1008v-795q0 -45 12 -67.5t28.5 -28t33.5 -9.5t29 -21.5t12 -55.5v-31h-555v31q0 38 12 55.5t29.5 21.5t34.5 9.5t29 28t12 67.5v567q0 45 -12 67.5t-29 28t-34.5 10t-29.5 22t-12 55.5v30zM535 1176l-66 -97l-256 133q-174 92 -174 168q0 35 28 66t62 31
q40 0 72 -18.5t71 -53.5z" />
    <glyph glyph-name="iacute" unicode="&#xed;" horiz-adv-x="655" 
d="M487 1008v-795q0 -45 12 -67.5t28.5 -28t33.5 -9.5t29 -21.5t12 -55.5v-31h-555v31q0 38 12 55.5t29.5 21.5t34.5 9.5t29 28t12 67.5v567q0 45 -12 67.5t-29 28t-34.5 10t-29.5 22t-12 55.5v30zM166 1079l-66 97l262 229q38 34 71 53t73 19q34 0 62 -31t28 -66
q0 -76 -174 -168z" />
    <glyph glyph-name="icircumflex" unicode="&#xee;" horiz-adv-x="655" 
d="M487 1008v-795q0 -45 12 -67.5t28.5 -28t33.5 -9.5t29 -21.5t12 -55.5v-31h-555v31q0 38 12 55.5t29.5 21.5t34.5 9.5t29 28t12 67.5v567q0 45 -12 67.5t-29 28t-34.5 10t-29.5 22t-12 55.5v30zM682 1118l-311 121q-56 21 -66 21q-9 0 -65 -21l-308 -121l-53 105l275 176
q5 3 20.5 13t19 12t15 9t16.5 8.5t15.5 5t19.5 4.5t21 2t26 1q33 0 57.5 -6t37 -12.5t46.5 -28.5q4 -2 7 -4l6 -4l274 -176z" />
    <glyph glyph-name="idieresis" unicode="&#xef;" horiz-adv-x="655" 
d="M487 1008v-795q0 -45 12 -67.5t28.5 -28t33.5 -9.5t29 -21.5t12 -55.5v-31h-555v31q0 38 12 55.5t29.5 21.5t34.5 9.5t29 28t12 67.5v567q0 45 -12 67.5t-29 28t-34.5 10t-29.5 22t-12 55.5v30zM92 1454q68 0 116 -48t48 -116t-48 -116t-116 -48t-116 48t-48 116t48 116
t116 48zM522 1454q68 0 116 -48t48 -116t-48 -116t-116 -48t-116 48t-48 116t48 116t116 48z" />
    <glyph glyph-name="eth" unicode="&#xf0;" horiz-adv-x="1187" 
d="M399 489q0 -39 2.5 -77t9 -89t21 -93t35.5 -79.5t55 -59t78 -21.5q188 0 188 401q0 91 -9 164t-22 119.5t-33 80.5t-37 50.5t-38.5 26t-33 11t-25.5 1.5q-37 0 -66.5 -18t-49 -46t-34 -68.5t-22.5 -78.5t-12.5 -83.5t-5.5 -76.5t-1 -64zM727 1362l299 115l94 -78
l-286 -113q86 -72 148 -160.5t94.5 -181.5t46.5 -179t14 -175q0 -126 -30.5 -234t-93.5 -196t-171 -138.5t-252 -50.5q-150 0 -273.5 68.5t-194.5 190.5t-71 272q0 154 72.5 273.5t197 183t277.5 63.5q31 0 71 -10.5t68 -30.5q-14 55 -50 113t-81 104l-301 -117l-94 78
l305 119q-120 91 -250 131l152 68q175 -37 309 -115z" />
    <glyph glyph-name="ntilde" unicode="&#xf1;" horiz-adv-x="1269" 
d="M43 993l422 15v-101q74 63 140 89t159 26q338 0 338 -328v-481q0 -45 12 -67.5t29 -28t33.5 -9.5t28.5 -21.5t12 -55.5v-31h-547v31q0 38 11 55.5t27 21.5t32 9.5t27 28t11 67.5v498q0 35 -5 61.5t-18.5 52.5t-41.5 40t-70 14t-91 -20.5t-71 -53.5v-592q0 -44 12.5 -65.5
t30.5 -27t36.5 -9.5t31 -22.5t12.5 -57.5v-31h-561v31q0 38 12 55.5t28.5 21.5t33.5 9.5t29 28t12 67.5v567q0 45 -12 67.5t-28.5 28t-33.5 10t-29 22t-12 55.5v30zM350 1192l-10 12q-1 1 -7.5 7t-9 8.5t-7.5 8.5t-7 10.5t-4 10t-2 11.5q0 56 76.5 107.5t163.5 51.5
q71 0 159 -35q9 -3 31.5 -11.5t32.5 -12t25.5 -7t27.5 -3.5t23 3.5t18 7t17 12.5t14.5 13t15 17t13.5 16l10 -12q2 -2 7.5 -7t8.5 -8.5t7.5 -8.5t7 -9.5t4.5 -10t2 -11.5q0 -56 -76.5 -108t-163.5 -52q-62 0 -160 35q-88 35 -116 35q-14 0 -25.5 -3t-24 -13t-17 -14
t-18.5 -21t-16 -19z" />
    <glyph glyph-name="ograve" unicode="&#xf2;" horiz-adv-x="1187" 
d="M598 1022q238 0 388.5 -147t150.5 -383q0 -151 -74 -271t-198.5 -185t-274.5 -65t-273.5 68.5t-194.5 190.5t-71 272q0 154 72.5 273.5t197 183t277.5 63.5zM590 924q-37 0 -66.5 -18t-49 -46t-34 -68.5t-22.5 -78.5t-12.5 -83.5t-5.5 -76.5t-1 -64q0 -39 2.5 -77t9 -89
t21 -93t35.5 -79.5t55 -59t78 -21.5q188 0 188 401q0 35 -1 67t-5.5 79.5t-12.5 87t-23 82t-35 71.5t-51.5 47.5t-69.5 18.5zM780 1176l-65 -97l-256 133q-174 92 -174 168q0 35 28 66t62 31q40 0 72 -18.5t71 -53.5z" />
    <glyph glyph-name="oacute" unicode="&#xf3;" horiz-adv-x="1187" 
d="M598 1022q238 0 388.5 -147t150.5 -383q0 -151 -74 -271t-198.5 -185t-274.5 -65t-273.5 68.5t-194.5 190.5t-71 272q0 154 72.5 273.5t197 183t277.5 63.5zM590 924q-37 0 -66.5 -18t-49 -46t-34 -68.5t-22.5 -78.5t-12.5 -83.5t-5.5 -76.5t-1 -64q0 -39 2.5 -77t9 -89
t21 -93t35.5 -79.5t55 -59t78 -21.5q188 0 188 401q0 35 -1 67t-5.5 79.5t-12.5 87t-23 82t-35 71.5t-51.5 47.5t-69.5 18.5zM453 1079l-66 97l262 229q38 34 71 53t73 19q34 0 62 -31t28 -66q0 -76 -174 -168z" />
    <glyph glyph-name="ocircumflex" unicode="&#xf4;" horiz-adv-x="1187" 
d="M598 1022q238 0 388.5 -147t150.5 -383q0 -151 -74 -271t-198.5 -185t-274.5 -65t-273.5 68.5t-194.5 190.5t-71 272q0 154 72.5 273.5t197 183t277.5 63.5zM590 924q-37 0 -66.5 -18t-49 -46t-34 -68.5t-22.5 -78.5t-12.5 -83.5t-5.5 -76.5t-1 -64q0 -39 2.5 -77t9 -89
t21 -93t35.5 -79.5t55 -59t78 -21.5q188 0 188 401q0 35 -1 67t-5.5 79.5t-12.5 87t-23 82t-35 71.5t-51.5 47.5t-69.5 18.5zM969 1118l-312 121q-56 21 -65 21q-10 0 -66 -21l-307 -121l-53 105l274 176q5 3 18.5 12t17 11t14.5 8.5t15 8t13.5 5.5t16 4.5t16.5 2.5t20 2.5
t23 0.5q33 0 57.5 -6t37 -12.5t46.5 -28.5q4 -2 7 -4l6 -4l274 -176z" />
    <glyph glyph-name="otilde" unicode="&#xf5;" horiz-adv-x="1187" 
d="M598 1022q238 0 388.5 -147t150.5 -383q0 -151 -74 -271t-198.5 -185t-274.5 -65t-273.5 68.5t-194.5 190.5t-71 272q0 154 72.5 273.5t197 183t277.5 63.5zM590 924q-37 0 -66.5 -18t-49 -46t-34 -68.5t-22.5 -78.5t-12.5 -83.5t-5.5 -76.5t-1 -64q0 -39 2.5 -77t9 -89
t21 -93t35.5 -79.5t55 -59t78 -21.5q188 0 188 401q0 35 -1 67t-5.5 79.5t-12.5 87t-23 82t-35 71.5t-51.5 47.5t-69.5 18.5zM309 1192l-10 12q-1 1 -7.5 7t-9 8.5t-7.5 8.5t-7 10.5t-4 10t-2 11.5q0 56 76.5 107.5t163.5 51.5q72 0 160 -35q10 -3 31.5 -11.5t32 -12
t25.5 -7t27 -3.5t23 3.5t18 7t17 12.5t14.5 13t15 17t13.5 16l10 -12q2 -2 7.5 -7t8.5 -8.5t7.5 -8.5t7 -9.5t4.5 -10t2 -11.5q0 -56 -76.5 -108t-163.5 -52q-62 0 -160 35q-87 35 -116 35q-14 0 -25.5 -3t-24 -13t-17 -14t-18.5 -21t-16 -19z" />
    <glyph glyph-name="odieresis" unicode="&#xf6;" horiz-adv-x="1187" 
d="M598 1022q238 0 388.5 -147t150.5 -383q0 -151 -74 -271t-198.5 -185t-274.5 -65t-273.5 68.5t-194.5 190.5t-71 272q0 154 72.5 273.5t197 183t277.5 63.5zM590 924q-37 0 -66.5 -18t-49 -46t-34 -68.5t-22.5 -78.5t-12.5 -83.5t-5.5 -76.5t-1 -64q0 -39 2.5 -77t9 -89
t21 -93t35.5 -79.5t55 -59t78 -21.5q188 0 188 401q0 35 -1 67t-5.5 79.5t-12.5 87t-23 82t-35 71.5t-51.5 47.5t-69.5 18.5zM379 1454q67 0 115.5 -48t48.5 -116t-48.5 -116t-115.5 -48t-115.5 48t-48.5 116t48.5 116t115.5 48zM809 1454q67 0 115.5 -48t48.5 -116
t-48.5 -116t-115.5 -48t-115.5 48t-48.5 116t48.5 116t115.5 48z" />
    <glyph glyph-name="divide" unicode="&#xf7;" 
d="M92 414v164h963v-164h-963zM573 977q62 0 106 -43.5t44 -104.5q0 -63 -44 -106t-106 -43t-104.5 43t-42.5 106q0 62 43 105t104 43zM573 311q62 0 106 -43t44 -104q0 -63 -44 -106.5t-106 -43.5t-104.5 43.5t-42.5 106.5q0 62 43 104.5t104 42.5z" />
    <glyph glyph-name="oslash" unicode="&#xf8;" horiz-adv-x="1187" 
d="M780 659l-340 -454q51 -135 156 -135q38 0 68 14.5t49.5 37t34 56.5t22 65.5t12 72t5.5 68.5t1 62q0 117 -8 213zM406 334l342 452q-33 69 -69 103.5t-91 34.5q-46 0 -81 -29.5t-55 -72t-32.5 -98t-16.5 -100t-4 -85.5q0 -86 7 -205zM868 952l133 176h129l-176 -233
q84 -57 133.5 -163t49.5 -230q0 -151 -70 -273t-192.5 -190t-274.5 -68q-70 0 -149 18t-129 52l-158 -209h-131l200 266q-88 73 -135 178.5t-47 225.5q0 160 74 279.5t198.5 180t282.5 60.5q75 0 149.5 -18.5t112.5 -51.5z" />
    <glyph glyph-name="ugrave" unicode="&#xf9;" horiz-adv-x="1228" 
d="M754 0v88q-106 -117 -299 -117q-157 0 -232.5 98.5t-75.5 258.5v452q0 37 -8 59t-20 28.5t-26 12t-26 9.5t-20 20.5t-8 46.5v37l432 15v-689q0 -204 127 -204q36 0 83.5 20t63.5 49v596q0 37 -8.5 59t-21 28.5t-27.5 12t-27.5 9.5t-21 20.5t-8.5 46.5v37l438 15v-795
q0 -44 12 -66.5t28.5 -28t33.5 -9.5t29 -20.5t12 -51.5v-37h-430zM801 1176l-66 -97l-256 133q-174 92 -174 168q0 35 28 66t62 31q40 0 73 -19t71 -53z" />
    <glyph glyph-name="uacute" unicode="&#xfa;" horiz-adv-x="1228" 
d="M754 0v88q-106 -117 -299 -117q-157 0 -232.5 98.5t-75.5 258.5v452q0 37 -8 59t-20 28.5t-26 12t-26 9.5t-20 20.5t-8 46.5v37l432 15v-689q0 -204 127 -204q36 0 83.5 20t63.5 49v596q0 37 -8.5 59t-21 28.5t-27.5 12t-27.5 9.5t-21 20.5t-8.5 46.5v37l438 15v-795
q0 -44 12 -66.5t28.5 -28t33.5 -9.5t29 -20.5t12 -51.5v-37h-430zM494 1079l-66 97l262 229q38 34 71 53t73 19q34 0 62 -31t28 -66q0 -76 -174 -168z" />
    <glyph glyph-name="ucircumflex" unicode="&#xfb;" horiz-adv-x="1228" 
d="M754 0v88q-106 -117 -299 -117q-157 0 -232.5 98.5t-75.5 258.5v452q0 37 -8 59t-20 28.5t-26 12t-26 9.5t-20 20.5t-8 46.5v37l432 15v-689q0 -204 127 -204q36 0 83.5 20t63.5 49v596q0 37 -8.5 59t-21 28.5t-27.5 12t-27.5 9.5t-21 20.5t-8.5 46.5v37l438 15v-795
q0 -44 12 -66.5t28.5 -28t33.5 -9.5t29 -20.5t12 -51.5v-37h-430zM979 1118l-311 121q-56 21 -66 21q-9 0 -65 -21l-308 -121l-53 105l275 176q5 3 20.5 13t19 12t15 9t16.5 8.5t15.5 5t19.5 4.5t21 2t26 1q33 0 57.5 -6t37 -12.5t46.5 -28.5q4 -2 7 -4l6 -4l274 -176z" />
    <glyph glyph-name="udieresis" unicode="&#xfc;" horiz-adv-x="1228" 
d="M754 0v88q-106 -117 -299 -117q-157 0 -232.5 98.5t-75.5 258.5v452q0 37 -8 59t-20 28.5t-26 12t-26 9.5t-20 20.5t-8 46.5v37l432 15v-689q0 -204 127 -204q36 0 83.5 20t63.5 49v596q0 37 -8.5 59t-21 28.5t-27.5 12t-27.5 9.5t-21 20.5t-8.5 46.5v37l438 15v-795
q0 -44 12 -66.5t28.5 -28t33.5 -9.5t29 -20.5t12 -51.5v-37h-430zM379 1454q67 0 115.5 -48t48.5 -116t-48.5 -116t-115.5 -48t-115.5 48t-48.5 116t48.5 116t115.5 48zM809 1454q67 0 115.5 -48t48.5 -116t-48.5 -116t-115.5 -48t-115.5 48t-48.5 116t48.5 116t115.5 48z
" />
    <glyph glyph-name="yacute" unicode="&#xfd;" 
d="M508 762l186 -406l154 387q2 5 8.5 23t10 28.5t7 25.5t3.5 26q0 31 -18.5 42t-40 9.5t-40 13t-18.5 52.5v30h381v-30q0 -30 -9.5 -47.5t-25 -23.5t-32 -11t-33 -16.5t-25.5 -33.5l-434 -1040q-39 -95 -131.5 -166t-182.5 -71q-85 0 -146 47.5t-61 130.5q0 61 43 103
t105 42q42 0 68.5 -17t36 -41t16 -48t16.5 -41t29 -17q24 0 47 20t40 52.5t28.5 60t21.5 56.5q3 8 4 12l14 37l-395 868q-14 32 -33 49.5t-34 21.5t-29 7.5t-21.5 17t-7.5 41.5v37h570v-37q0 -38 -16.5 -52.5t-36 -12t-36 -4.5t-16.5 -31q0 -9 4 -23.5t8 -24t12 -27t9 -19.5
zM473 1079l-65 97l262 229q39 35 71 53.5t72 18.5q34 0 62 -31t28 -66q0 -76 -174 -168z" />
    <glyph glyph-name="thorn" unicode="&#xfe;" horiz-adv-x="1228" 
d="M473 817v-686q66 -47 133 -47q54 0 94 28t62 68.5t35.5 97t17.5 101.5t4 94q0 39 -2.5 77t-10 87.5t-22.5 90t-36.5 76.5t-56.5 56.5t-79 20.5q-78 0 -139 -64zM473 18v-251q0 -37 9 -59t19.5 -29t28.5 -13q2 -1 10.5 -3.5t11 -3.5t9.5 -4.5t9.5 -6.5t7 -8t6 -11t3 -15
t1.5 -20v-40h-553v40q0 11 1.5 20t3 15t6 11.5t6.5 8t9 6t9.5 4.5t11 3.5t10.5 3.5q18 6 28.5 13t20 29.5t9.5 58.5v1460q0 44 -12 66.5t-28.5 28t-33.5 9.5t-29 20.5t-12 51.5v37l438 14v-524q99 92 240 92q108 0 199 -42.5t150.5 -114.5t92.5 -166t33 -197
q0 -140 -60 -260.5t-174 -195.5t-258 -75q-94 0 -223 47z" />
    <glyph glyph-name="ydieresis" unicode="&#xff;" 
d="M508 762l186 -406l154 387q2 5 8.5 23t10 28.5t7 25.5t3.5 26q0 31 -18.5 42t-40 9.5t-40 13t-18.5 52.5v30h381v-30q0 -30 -9.5 -47.5t-25 -23.5t-32 -11t-33 -16.5t-25.5 -33.5l-434 -1040q-39 -95 -131.5 -166t-182.5 -71q-85 0 -146 47.5t-61 130.5q0 61 43 103
t105 42q42 0 68.5 -17t36 -41t16 -48t16.5 -41t29 -17q24 0 47 20t40 52.5t28.5 60t21.5 56.5q3 8 4 12l14 37l-395 868q-14 32 -33 49.5t-34 21.5t-29 7.5t-21.5 17t-7.5 41.5v37h570v-37q0 -38 -16.5 -52.5t-36 -12t-36 -4.5t-16.5 -31q0 -9 4 -23.5t8 -24t12 -27t9 -19.5
zM399 1454q67 0 115.5 -48t48.5 -116t-48.5 -116t-115.5 -48t-115 48t-48 116t48 116t115 48zM829 1454q67 0 115.5 -48t48.5 -116t-48.5 -116t-115.5 -48t-115 48t-48 116t48 116t115 48z" />
    <glyph glyph-name="dotlessi" unicode="&#x131;" horiz-adv-x="655" 
d="M487 1008v-795q0 -45 12 -67.5t28.5 -28t33.5 -9.5t29 -21.5t12 -55.5v-31h-555v31q0 38 12 55.5t29.5 21.5t34.5 9.5t29 28t12 67.5v567q0 45 -12 67.5t-29 28t-34.5 10t-29.5 22t-12 55.5v30z" />
    <glyph glyph-name="Lslash" unicode="&#x141;" horiz-adv-x="1187" 
d="M1176 379v-379h-1082v37q0 35 12 51.5t29 20.5t34.5 9.5t29.5 28t12 66.5v371l-172 -129v166l172 129v477q0 44 -12 66.5t-29 28t-34.5 9.5t-29.5 20.5t-12 51.5v37h588v-37q0 -35 -13.5 -51.5t-33 -20.5t-39.5 -9.5t-33.5 -28t-13.5 -66.5v-305l266 200v-166l-266 -200
v-641h153q95 0 160.5 14.5t97.5 38t50.5 51.5t25.5 56t15 51.5t28 38t56 14.5h41z" />
    <glyph glyph-name="lslash" unicode="&#x142;" horiz-adv-x="737" 
d="M100 543v151l117 90v443q0 45 -12 67.5t-29 28t-34.5 9.5t-29.5 21.5t-12 55.5v31l441 14v-498l114 88v-151l-114 -88v-592q0 -45 11.5 -67.5t28.5 -28t34 -9.5t28.5 -21.5t11.5 -55.5v-31h-555v31q0 38 12 55.5t29 21.5t34.5 9.5t29.5 28t12 67.5v420z" />
    <glyph glyph-name="OE" unicode="&#x152;" horiz-adv-x="2088" 
d="M2068 379v-379h-1107q-33 0 -91 -8q-52 -10 -92 -10q-203 0 -369 104t-258 276.5t-92 372.5q0 191 88 356.5t246 266t350 100.5q33 0 107 -8q62 -10 111 -10h862q98 0 166 45v-385h-62q-28 0 -47 16.5t-28.5 41.5t-25 54.5t-34 54.5t-58 41.5t-94.5 16.5h-235v-520h106
q42 0 67.5 10.5t34.5 26.5t16.5 34.5t13.5 34.5t25 26.5t52 10.5h37v-409h-55q-33 0 -50.5 15.5t-25.5 37.5t-17 44.5t-33 38t-65 15.5h-106v-575h311q60 0 100.5 14.5t60.5 38t31.5 51.5t17.5 56t14.5 51.5t27.5 38t51 14.5h49zM1067 207v926q0 99 -70 163t-172 64
q-87 0 -157.5 -38t-116 -99t-76.5 -141t-44 -160t-13 -160q0 -96 16.5 -188.5t55.5 -182.5t95.5 -157t143 -108.5t191.5 -41.5q78 0 112.5 25.5t34.5 97.5z" />
    <glyph glyph-name="oe" unicode="&#x153;" horiz-adv-x="1843" 
d="M1112 625h326q0 45 -6.5 90.5t-22 95.5t-48.5 81.5t-79 31.5q-49 0 -84 -30.5t-52 -81t-24.5 -95t-9.5 -92.5zM584 924q-41 0 -73 -22.5t-50.5 -62.5t-31 -82t-18 -96t-7 -88t-1.5 -73q0 -48 2.5 -93.5t14 -110.5t31 -111.5t57 -80.5t88.5 -34q48 0 83 34t52.5 79.5
t28 109.5t12.5 105t2 85q0 46 -3 93t-14.5 113t-31 115t-56 84.5t-85.5 35.5zM1755 518h-643v-24q0 -79 15.5 -148.5t49 -129.5t94.5 -95t144 -35q84 0 148 42.5t129 121.5l75 -68q-156 -211 -440 -211q-213 0 -364 148q-90 -77 -178.5 -112.5t-202.5 -35.5
q-148 0 -269 70.5t-189.5 192.5t-68.5 270q0 150 69 268.5t190 184t270 65.5q190 0 348 -133q145 133 352 133q97 0 184.5 -36t153 -99.5t102 -159.5t31.5 -209z" />
    <glyph glyph-name="Scaron" unicode="&#x160;" horiz-adv-x="1105" 
d="M33 381h80q19 0 34.5 -16.5t29 -43.5t30 -59t44 -64.5t64 -59.5t96 -43.5t134.5 -16.5q102 0 174 62t72 173q0 54 -25.5 97.5t-68 73.5t-98 56t-117 50.5t-123 51.5t-117 64.5t-98 83.5t-68 113.5t-25.5 151.5q0 121 70 219.5t178 150.5t227 52q105 0 201 -45
q13 -7 33 -18t30 -16t22.5 -9.5t21.5 -4.5q30 0 43 43h96v-362h-66q-29 0 -49 16.5t-32.5 42.5t-24 58t-28.5 63.5t-41.5 57.5t-68.5 42.5t-104 16.5q-87 0 -149 -52.5t-62 -138.5q0 -50 25.5 -88.5t68 -65t98 -49t116.5 -45t122.5 -47.5t117 -61t98 -82t68 -115t25.5 -155
q0 -142 -80 -258.5t-206 -179t-266 -62.5q-80 0 -152 20t-118 40t-64 20q-38 0 -41 -43h-127v381zM178 1860l311 -121q56 -21 66 -21t66 21l307 121l53 -105l-274 -176q-5 -3 -18.5 -12t-17 -11t-14.5 -8.5t-15 -8t-13.5 -5.5t-16 -4.5t-16.5 -2.5t-20 -2.5t-23 -0.5
q-33 0 -57.5 6t-37 12.5t-46.5 28.5q-4 2 -7 4l-6 4l-274 176z" />
    <glyph glyph-name="scaron" unicode="&#x161;" horiz-adv-x="901" 
d="M295 160q-6 -18 -6 -27q0 -29 43.5 -42t81.5 -13q47 0 89.5 12t75.5 44.5t33 80.5q0 39 -31 69t-80.5 50t-109.5 39t-119.5 44t-109 58t-80.5 87t-31 124q0 87 41 154t108.5 105.5t144.5 57.5t159 19q51 0 104 -9.5t108.5 -30t90.5 -61.5t35 -96t-43 -91t-99 -36
q-51 0 -93 30.5t-42 80.5q0 11 7.5 35t7.5 30q0 22 -32 31.5t-61 9.5q-53 0 -101 -29.5t-48 -80.5q0 -38 31 -66t80 -46t109 -35t119.5 -41t108.5 -57t80 -89t31 -131q0 -74 -29.5 -136.5t-78.5 -104.5t-113 -71.5t-131 -43t-135 -13.5q-61 0 -124.5 11t-129.5 35.5t-108 73
t-42 114.5q0 60 42 98.5t102 38.5q63 0 109 -38t46 -99q0 -18 -10 -45zM76 1454l311 -121q53 -20 66 -20q12 0 65 20l307 121l54 -104l-275 -176q-6 -4 -23 -15t-21 -13.5t-17 -9.5t-19.5 -8.5t-19 -5t-25 -4t-28.5 -0.5q-12 0 -22.5 0.5t-20.5 2.5t-16 2.5t-16 5t-14 6
t-15 8t-14 8.5t-17 11t-19 12l-274 176z" />
    <glyph glyph-name="Ydieresis" unicode="&#x178;" horiz-adv-x="1392" 
d="M1257 1262l-372 -633v-416q0 -45 13.5 -67t32 -27t37.5 -9t32.5 -22t13.5 -57v-31h-596v31q0 36 13.5 53.5t32 22t37.5 10t32.5 28.5t13.5 68v381l-389 639q-26 42 -53 66t-44.5 29.5t-32 11t-21.5 20.5t-7 49v31h670v-31q0 -33 -12.5 -50.5t-31 -22.5t-36.5 -9
t-30.5 -15.5t-12.5 -35.5q0 -6 1 -12t2 -10.5t4 -11t4.5 -10t5.5 -10t5.5 -9t6.5 -10t6 -9.5l247 -410l244 416q0 1 8.5 14t11 18l8 16t7.5 19.5t2 16.5q0 27 -18.5 36.5t-40 9t-40 18t-18.5 61.5v31h412v-35q0 -35 -7.5 -49.5t-22.5 -17.5t-32 -4.5t-41 -18.5t-45 -53z
M563 1860q67 0 115.5 -48t48.5 -116t-48.5 -116t-115.5 -48t-115.5 48t-48.5 116t48.5 116t115.5 48zM993 1860q67 0 115.5 -48t48.5 -116t-48.5 -116t-115.5 -48t-115.5 48t-48.5 116t48.5 116t115.5 48z" />
    <glyph glyph-name="Zcaron" unicode="&#x17d;" horiz-adv-x="1228" 
d="M1169 1440v-88l-737 -1229h332q78 0 132.5 14t81 36.5t42 49.5t22 54t14 49.5t24.5 36.5t48 14h64v-377h-1172v115l721 1202h-266q-72 0 -119.5 -12t-69 -31.5t-32 -42.5t-14.5 -46.5t-10 -43t-24.5 -31.5t-53.5 -12h-52v387q68 -45 166 -45h903zM240 1860l311 -121
q56 -21 65 -21q10 0 66 21l307 121l53 -105l-274 -176q-5 -3 -18.5 -12t-17 -11t-14.5 -8.5t-15 -8t-13.5 -5.5t-16 -4.5t-16.5 -2.5t-20 -2.5t-23 -0.5q-11 0 -21 0.5t-17.5 1t-16 3t-13.5 3.5t-13.5 5t-12 5.5t-13.5 7.5t-13.5 8t-15.5 10t-17 11l-275 176z" />
    <glyph glyph-name="zcaron" unicode="&#x17e;" horiz-adv-x="1024" 
d="M954 993v-94l-503 -776h215q64 0 103 13t51.5 33t20.5 43t11.5 43t23 33t56.5 13h31v-301h-914v90l518 780h-239q-38 0 -62 -15t-34 -37t-18.5 -43.5t-23.5 -36.5t-40 -15h-46v270h850zM137 1454l312 -121q53 -20 65 -20q13 0 66 20l307 121l53 -104l-274 -176
q-6 -4 -20.5 -13.5t-19 -12t-15.5 -9t-16.5 -8.5t-16 -5.5t-19.5 -4.5t-21 -2t-26 -1q-12 0 -22.5 0.5t-20.5 2.5t-16 2.5t-16 5t-14 6t-15 8t-14 8.5t-17 11t-19 12l-274 176z" />
    <glyph glyph-name="florin" unicode="&#x192;" 
d="M1010 1108v-115h-232q-15 -67 -32.5 -178.5t-31 -209t-38 -217.5t-52.5 -217t-74.5 -193t-104 -161t-141 -105t-185.5 -40q-45 0 -90.5 11t-87 32.5t-67.5 58.5t-26 83q0 56 38.5 99.5t93.5 43.5q43 0 77.5 -28t34.5 -70q0 -23 -15.5 -55.5t-15.5 -39.5q0 -16 12.5 -26
t28.5 -10q187 0 316 931q2 10 2.5 15.5t1.5 13t2 12.5l37 250h-117v31q0 41 10.5 58t29.5 22t41 12t50.5 41t52.5 96q11 28 24.5 56.5t39 72t59.5 80t76.5 70t100.5 53t122 19.5q44 0 88 -9t87.5 -28t70.5 -55t27 -85q0 -48 -36.5 -81t-84.5 -33q-45 0 -79 23.5t-34 66.5
q0 11 6 32t6 27q0 12 -7.5 19.5t-18.5 7.5q-104 0 -175 -366q-2 -11 -3 -15h213z" />
    <glyph glyph-name="circumflex" unicode="&#x2c6;" 
d="M948 1118l-311 121q-56 21 -66 21q-9 0 -65 -21l-307 -121l-54 105l275 176q5 3 20.5 13t19 12t15 9t16.5 8.5t15.5 5t19.5 4.5t21 2t26 1q33 0 57.5 -6t37 -12.5t46.5 -28.5q4 -2 7 -4l6 -4l274 -176z" />
    <glyph glyph-name="caron" unicode="&#x2c7;" 
d="M199 1454l311 -121q53 -20 65 -20q13 0 66 20l307 121l53 -104l-274 -176q-6 -4 -20.5 -13.5t-19 -12t-15.5 -9t-16.5 -8.5t-16 -5.5t-19.5 -4.5t-21 -2t-26 -1t-26 1t-20 2t-19 5t-16 5t-17 8t-15.5 9.5t-19 12.5t-20.5 13l-275 176z" />
    <glyph glyph-name="uni02C9" unicode="&#x2c9;" horiz-adv-x="942" 
d="M139 1331h664v-164h-664v164z" />
    <glyph glyph-name="breve" unicode="&#x2d8;" horiz-adv-x="901" 
d="M666 1413h94q-15 -129 -102 -209t-212 -80q-127 0 -208.5 79t-96.5 210h95q66 -110 210 -110q154 0 220 110z" />
    <glyph glyph-name="dotaccent" unicode="&#x2d9;" horiz-adv-x="614" 
d="M307 1454q67 0 115.5 -48t48.5 -116t-48.5 -116t-115.5 -48t-115.5 48t-48.5 116t48.5 116t115.5 48z" />
    <glyph glyph-name="ring" unicode="&#x2da;" horiz-adv-x="737" 
d="M348 1556q89 0 152 -63t63 -152t-63 -152t-152 -63t-152 63t-63 152t63 152t152 63zM348 1430q-37 0 -62.5 -26t-25.5 -63t25.5 -62.5t62.5 -25.5t62.5 25.5t25.5 62.5t-25.5 63t-62.5 26z" />
    <glyph glyph-name="ogonek" unicode="&#x2db;" horiz-adv-x="614" 
d="M475 -203v-26v-8q0 -29 -2 -42t-12.5 -29.5t-36.5 -23t-70 -6.5q-77 0 -144 42t-67 114q0 28 9.5 52.5t19 39.5t35 35t36.5 27l44 28h182v-4q-7 -3 -32 -13t-38.5 -15.5t-35 -18t-33 -24t-20.5 -28.5t-9 -36q0 -37 34 -57.5t73 -20.5q32 0 67 14z" />
    <glyph glyph-name="tilde" unicode="&#x2dc;" horiz-adv-x="942" 
d="M186 1192l-10 12q-1 1 -7.5 7t-9 8.5t-7.5 8.5t-7 10.5t-4 10t-2 11.5q0 56 76.5 107.5t163.5 51.5q73 0 160 -35q10 -3 31.5 -11.5t32 -12t25.5 -7t27 -3.5t23 3.5t18 7t17 12.5t14.5 13t15 17t13.5 16l10 -12q2 -2 7.5 -7t8.5 -8.5t7.5 -8.5t7 -9.5t4.5 -10t2 -11.5
q0 -56 -76.5 -108t-163.5 -52q-62 0 -160 35q-87 35 -116 35q-14 0 -25.5 -3t-24 -13t-17 -14t-18.5 -21t-16 -19z" />
    <glyph glyph-name="hungarumlaut" unicode="&#x2dd;" horiz-adv-x="1024" 
d="M240 1028l-97 70l136 245q3 5 18.5 34t22.5 41.5t24.5 36.5t31 35.5t34 21.5t41.5 10q39 0 67.5 -26.5t28.5 -65.5q0 -73 -111 -189zM573 1028l-96 70l135 245q3 5 18.5 34t22.5 41.5t24 36.5t31 35.5t33.5 21.5t40.5 10q39 0 69 -26.5t30 -65.5q0 -30 -22 -70t-40.5 -62
t-50.5 -57z" />
    <glyph glyph-name="uni03A9" unicode="&#x3a9;" horiz-adv-x="1499" 
d="M1434 381l-58 -381h-534l-23 49q2 5 35 96.5t40.5 114.5t35 104.5t36.5 122t25 107.5t21.5 120.5t5.5 104.5q0 572 -273 572q-50 0 -89 -15.5t-73 -55t-55.5 -104t-34 -166t-12.5 -237.5q0 -163 53 -351t142 -413l-23 -49h-536l-51 381h77q33 -88 65 -114.5t101 -26.5
h180q-43 33 -69 53.5t-69 59t-70 70.5t-60 80.5t-51.5 95.5t-31.5 108.5t-13 126.5q0 193 82.5 341t225 226t321.5 78q274 0 447 -173t173 -462q0 -80 -24 -156t-51.5 -126.5t-87.5 -116t-92 -94.5t-106 -92q-5 -4 -7.5 -6.5t-7 -6t-7.5 -6.5h211q62 0 92 26.5t60 114.5h80z
" />
    <glyph glyph-name="uni03BC" unicode="&#x3bc;" horiz-adv-x="1228" 
d="M1184 37v-37h-430v88q-56 -60 -133.5 -87.5t-188.5 -29.5q3 -16 14 -64.5t18 -90.5t7 -72q0 -92 -41 -155.5t-121 -63.5t-121 63.5t-41 155.5q0 102 68 332q-31 42 -47.5 94t-18.5 81.5t-2 76.5v452q0 37 -8 59t-20 28.5t-26 12t-26 9.5t-20 20.5t-8 46.5v37l432 15v-689
q0 -204 127 -204q36 0 83.5 20t63.5 49v596q0 37 -8.5 59t-21 28.5t-27.5 12t-27.5 9.5t-21 20.5t-8.5 46.5v37l438 15v-795q0 -44 12 -66.5t28.5 -28t33.5 -9.5t29 -20.5t12 -51.5z" />
    <glyph glyph-name="pi" unicode="&#x3c0;" horiz-adv-x="1226" 
d="M1112 1012l70 -17q-7 -68 -33.5 -154.5t-48.5 -117.5q-38 -16 -125 -16q-10 -141 -10 -369q1 -99 20 -139.5t55 -40.5t86 37l27 -64q-40 -65 -114 -112.5t-146 -47.5q-231 0 -231 297q0 90 2 156.5t8 162t8 126.5q-47 0 -118 2t-107 2v-15q0 -492 -136 -690
q-79 -33 -161 -41l-21 54q104 152 151.5 338t47.5 358q-85 1 -135 -13.5t-123 -58.5l-37 74q4 6 22 30.5t26 34.5t27.5 33t34 34t38 29.5t47.5 27.5t54 19.5t65 14.5t75 4q249 -6 561 -6q52 0 76 14t45 54z" />
    <glyph glyph-name="uni2010" unicode="&#x2010;" horiz-adv-x="491" 
d="M0 606h492v-221h-492v221z" />
    <glyph glyph-name="endash" unicode="&#x2013;" horiz-adv-x="1024" 
d="M0 606h1024v-221h-1024v221z" />
    <glyph glyph-name="emdash" unicode="&#x2014;" horiz-adv-x="2048" 
d="M0 606h2048v-221h-2048v221z" />
    <glyph glyph-name="quoteleft" unicode="&#x2018;" horiz-adv-x="573" 
d="M367 1497l59 -65q-37 -33 -54 -49.5t-46 -48t-46 -61.5t-26 -63q32 9 47 9q67 0 113.5 -54.5t46.5 -124.5q0 -73 -49.5 -121.5t-124.5 -48.5q-80 0 -127 65t-47 148q0 217 254 414z" />
    <glyph glyph-name="quoteright" unicode="&#x2019;" horiz-adv-x="573" 
d="M207 842l-60 65q38 35 54 50t46 47t46.5 61.5t25.5 62.5q-28 -8 -47 -8q-67 0 -113 54t-46 124q0 73 49.5 121.5t124.5 48.5q80 0 127 -65t47 -148q0 -216 -254 -413z" />
    <glyph glyph-name="quotesinglbase" unicode="&#x201a;" horiz-adv-x="573" 
d="M207 -299l-60 66q38 35 54 50t46 47t46.5 61.5t25.5 62.5q-6 -2 -22 -6q-4 0 -12.5 -1t-12.5 -1q-67 0 -113 54t-46 124q0 73 49.5 121.5t124.5 48.5q80 0 127 -65t47 -148q0 -217 -254 -414z" />
    <glyph glyph-name="quotedblleft" unicode="&#x201c;" horiz-adv-x="1024" 
d="M377 1497l59 -65q-37 -33 -54 -49.5t-46 -48t-46 -61.5t-26 -63q31 9 47 9q67 0 113.5 -54.5t46.5 -124.5q0 -73 -49.5 -121.5t-124.5 -48.5q-80 0 -127 65t-47 148q0 217 254 414zM807 1497l59 -65q-37 -33 -54 -49.5t-46 -48t-46 -61.5t-26 -63q31 9 47 9
q67 0 113.5 -54.5t46.5 -124.5q0 -73 -49.5 -121.5t-124.5 -48.5q-80 0 -127 65t-47 148q0 217 254 414z" />
    <glyph glyph-name="quotedblright" unicode="&#x201d;" horiz-adv-x="1024" 
d="M647 842l-59 65q38 35 54 50t46 47t46.5 61.5t25.5 62.5q-28 -8 -47 -8q-67 0 -113.5 54t-46.5 124q0 73 49.5 121.5t124.5 48.5q80 0 127 -65t47 -148q0 -216 -254 -413zM217 842l-59 65q38 35 54 50t46 47t46.5 61.5t25.5 62.5q-28 -8 -47 -8q-67 0 -113.5 54
t-46.5 124q0 73 49.5 121.5t124.5 48.5q80 0 127 -65t47 -148q0 -216 -254 -413z" />
    <glyph glyph-name="quotedblbase" unicode="&#x201e;" horiz-adv-x="1024" 
d="M647 -299l-59 66q38 35 54 50t46 47t46.5 61.5t25.5 62.5q-3 -1 -23 -6q-4 0 -12 -1t-12 -1q-67 0 -113.5 54t-46.5 124q0 73 49.5 121.5t124.5 48.5q80 0 127 -65t47 -148q0 -217 -254 -414zM217 -299l-59 66q38 35 54 50t46 47t46.5 61.5t25.5 62.5q-3 -1 -23 -6
q-4 0 -12 -1t-12 -1q-67 0 -113.5 54t-46.5 124q0 73 49.5 121.5t124.5 48.5q80 0 127 -65t47 -148q0 -217 -254 -414z" />
    <glyph glyph-name="dagger" unicode="&#x2020;" horiz-adv-x="1228" 
d="M664 -446h-99l-71 1169q-2 40 6.5 67.5t22.5 42t28 26.5t24.5 30t10.5 43q0 19 -13.5 29t-33.5 10q-27 0 -71 -28.5t-97.5 -57.5t-102.5 -29q-51 0 -93 42t-42 93q0 55 39 97t96 42q37 0 78 -16.5t69.5 -36.5t60.5 -36.5t54 -16.5q24 0 39 13.5t15 37.5q0 30 -27 72.5
t-54.5 91.5t-27.5 94q0 58 40.5 101t98.5 43t99 -43t41 -101q0 -36 -17 -74.5t-37.5 -66.5t-37.5 -60.5t-17 -56.5t14.5 -37.5t38.5 -13.5q27 0 70 26.5t94.5 53t98.5 26.5q57 0 96 -42t39 -97q0 -51 -42 -93t-93 -42q-49 0 -102.5 29t-97.5 57.5t-71 28.5q-20 0 -33.5 -10
t-13.5 -29q0 -25 10.5 -43t24.5 -30t28 -26.5t22.5 -42t6.5 -67.5z" />
    <glyph glyph-name="daggerdbl" unicode="&#x2021;" horiz-adv-x="1228" 
d="M715 205l-49 -651h-103l-49 651q-2 28 9 50t25 34t26 29t12 36q0 18 -12.5 28.5t-30.5 10.5q-30 0 -64 -18t-61.5 -39t-68 -39t-81.5 -18q-54 0 -94.5 43.5t-40.5 97.5q0 57 42 95t99 38q49 0 100 -28t92.5 -55.5t68.5 -27.5q20 0 32.5 10.5t12.5 30.5q0 8 -1 14.5
t-4 12.5t-4.5 9.5t-7.5 8.5t-7.5 6t-9.5 6.5t-9 6.5q-43 34 -43 102v119q0 16 7.5 31t15.5 23.5t24 23.5q17 18 23.5 26t14 24.5t7.5 33.5q0 20 -12.5 30.5t-32.5 10.5q-23 0 -56.5 -18t-63.5 -39.5t-72 -39.5t-79 -18q-52 0 -94.5 42t-42.5 95q0 55 40.5 96t96.5 41
q47 0 100 -27t97.5 -54t71.5 -27q19 0 32 13t13 40q0 33 -27 75t-53.5 89.5t-26.5 93.5q0 58 39 101t98 43t98.5 -43t39.5 -101q0 -37 -16.5 -75t-37 -65t-37 -59.5t-16.5 -58.5q0 -27 13 -40t32 -13q22 0 55 17t62.5 37t71.5 37t79 17q56 0 97 -41t41 -96q0 -53 -43 -95
t-95 -42q-47 0 -100 29t-97.5 57.5t-72.5 28.5q-20 0 -32.5 -10.5t-12.5 -30.5q0 -17 7.5 -33t15.5 -25.5t24 -25.5l17.5 -17.5t13 -16t11.5 -22t3 -22.5v-119q0 -72 -43 -102q-3 -2 -12 -8.5t-12.5 -10t-9 -10.5t-7.5 -15.5t-2 -19.5q0 -20 12.5 -30.5t32.5 -10.5
q22 0 53 17.5t59 38t68.5 38t79.5 17.5q57 0 99.5 -38t42.5 -95q0 -54 -40.5 -97.5t-94.5 -43.5q-41 0 -81.5 18t-68 39t-61.5 39t-64 18q-18 0 -30.5 -10.5t-12.5 -28.5q0 -19 12 -36t26 -29t25 -34t9 -50z" />
    <glyph glyph-name="bullet" unicode="&#x2022;" 
d="M573 356q-149 0 -254.5 106.5t-105.5 256.5q0 149 105.5 253.5t254.5 104.5q150 0 255.5 -104.5t105.5 -253.5t-106 -256t-255 -107z" />
    <glyph glyph-name="ellipsis" unicode="&#x2026;" horiz-adv-x="2048" 
d="M342 328q72 0 123 -51t51 -123t-51 -123t-123 -51t-123 51t-51 123t51 123t123 51zM1024 328q72 0 123 -51t51 -123t-51 -123t-123 -51t-123 51t-51 123t51 123t123 51zM1706 328q72 0 123 -51t51 -123t-51 -123t-123 -51t-123 51t-51 123t51 123t123 51z" />
    <glyph glyph-name="perthousand" unicode="&#x2030;" horiz-adv-x="2498" 
d="M412 1448q154 0 255 -89t101 -241q0 -146 -96 -242t-242 -96q-158 0 -258 93.5t-100 250.5q0 140 99 232t241 92zM416 1391q-121 0 -121 -275q0 -278 129 -278q28 0 50 12.5t34.5 36.5t20.5 47.5t11 57.5t4 54t1 48q0 297 -129 297zM1251 659q154 0 255.5 -88.5
t101.5 -240.5q0 -146 -96 -242t-242 -96q-158 0 -258.5 93.5t-100.5 250.5q0 140 99 231.5t241 91.5zM1255 602q-28 0 -50 -14t-34.5 -40.5t-20 -52t-10.5 -62t-4 -56.5t-1 -49q0 -279 129 -279q28 0 50 12.5t34.5 36.5t20 47.5t10.5 57.5t4 53.5t1 48.5q0 297 -129 297z
M2089 659q154 0 255 -88.5t101 -240.5q0 -146 -96 -242t-242 -96q-158 0 -258 93.5t-100 250.5q0 140 99 231.5t241 91.5zM2093 602q-121 0 -121 -274q0 -279 129 -279q28 0 50 12.5t34.5 36.5t20.5 47.5t11 57.5t4 54t1 48q0 297 -129 297zM1493 1440l-1157 -1440h-143
l1157 1440h143z" />
    <glyph glyph-name="guilsinglleft" unicode="&#x2039;" horiz-adv-x="614" 
d="M479 809l-125 -313l125 -314l-125 -65l-219 379l219 378z" />
    <glyph glyph-name="guilsinglright" unicode="&#x203a;" horiz-adv-x="614" 
d="M135 182l125 314l-125 313l125 65l219 -378l-219 -379z" />
    <glyph glyph-name="fraction" unicode="&#x2044;" horiz-adv-x="327" 
d="M688 1440l-928 -1440h-120l925 1440h123z" />
    <glyph glyph-name="Euro" unicode="&#x20ac;" 
d="M848 588h-328q9 -98 29 -181.5t52 -152.5t82 -108.5t112 -39.5q78 0 135 46t104 133l94 -64q-77 -142 -173.5 -200t-213.5 -58q-227 0 -385.5 169.5t-193.5 455.5h-129v106h121v45q0 37 4 103h-125v106h139q43 237 174.5 383t331.5 146q101 0 184 -52q12 -7 28.5 -18
t26 -17t19 -11t14.5 -5q24 0 33 39h88v-397h-65q-17 0 -29 5.5t-21.5 20t-14 25.5t-13.5 35q-6 15 -21 63.5t-30 83.5t-33 60q-46 63 -117 63q-187 0 -211 -424h332v-106h-336v-80q0 -12 1 -34t1 -34h334v-106z" />
    <glyph glyph-name="afii61289" unicode="&#x2113;" horiz-adv-x="960" 
d="M872 309l58 -51q-151 -293 -412 -293q-170 0 -252 86q-44 57 -62 117.5t-18 200.5v129l-112 -70l-31 76l143 96v307q0 204 24.5 308t88.5 192q54 73 122.5 111t137.5 38q115 0 176.5 -83.5t61.5 -217.5q0 -170 -71 -297.5t-234 -285.5v-156q0 -204 32.5 -284t124.5 -80
q115 0 223 157zM492 1012v-205q63 73 101 187t38 255q0 226 -72 226q-15 0 -25.5 -6.5t-18 -27.5t-12 -50.5t-7 -86t-3.5 -122.5t-1 -170z" />
    <glyph glyph-name="trademark" unicode="&#x2122;" horiz-adv-x="2048" 
d="M850 1440v-217h-72q0 81 -33.5 111t-117.5 30h-88v-573v-47.5t4.5 -31t9.5 -21t20 -10t30.5 -5.5h47.5h15v-64h-433v64h19q83 0 98 15.5t15 99.5v573h-80q-84 0 -118 -30t-34 -111h-72v217h789zM1235 1440l227 -527l219 527h306v-58h-39q-44 0 -54 -14t-10 -59v-518
q0 -55 6.5 -75.5t25.5 -28.5t71 -11v-64h-381v64q71 2 87.5 19.5t16.5 95.5v522h-4l-283 -701h-24l-299 701h-4v-522q0 -19 1 -34t2 -26.5t5 -20t5.5 -14.5t9 -10t10 -6t13.5 -3t15 -1h18.5h20.5v-64h-281v64h31q46 0 60 18.5t14 96.5v518v15.5v14.5t-0.5 11t-2 10.5
t-4.5 7.5t-7 7t-9.5 3.5t-13.5 3t-18 0.5h-31v58h301z" />
    <glyph glyph-name="Omega" unicode="&#x2126;" horiz-adv-x="1499" 
d="M1434 381l-58 -381h-534l-23 49q2 5 35 96.5t40.5 114.5t35 104.5t36.5 122t25 107.5t21.5 120.5t5.5 104.5q0 572 -273 572q-50 0 -89 -15.5t-73 -55t-55.5 -104t-34 -166t-12.5 -237.5q0 -163 53 -351t142 -413l-23 -49h-536l-51 381h77q33 -88 65 -114.5t101 -26.5
h180q-43 33 -69 53.5t-69 59t-70 70.5t-60 80.5t-51.5 95.5t-31.5 108.5t-13 126.5q0 193 82.5 341t225 226t321.5 78q274 0 447 -173t173 -462q0 -80 -24 -156t-51.5 -126.5t-87.5 -116t-92 -94.5t-106 -92q-5 -4 -7.5 -6.5t-7 -6t-7.5 -6.5h211q62 0 92 26.5t60 114.5h80z
" />
    <glyph glyph-name="estimated" unicode="&#x212e;" horiz-adv-x="1822" 
d="M1749 698h-1358q-12 0 -12 -10v-412q0 -26 18 -47q101 -104 234 -163.5t280 -59.5q160 0 300.5 67t240.5 185h121q-114 -136 -289 -214.5t-375 -78.5q-171 0 -326 59.5t-267.5 160t-179 240t-66.5 292.5q0 155 66.5 295t179 241t267.5 160.5t326 59.5t326.5 -59.5
t268 -160.5t179 -241t66.5 -295v-19zM1442 752v413q0 25 -21 49q-104 101 -235 158.5t-275 57.5q-145 0 -277.5 -59.5t-234.5 -162.5q-20 -20 -20 -53v-403q0 -4 3.5 -9.5t8.5 -5.5h1041q4 0 7 5.5t3 9.5z" />
    <glyph glyph-name="partialdiff" unicode="&#x2202;" horiz-adv-x="1171" 
d="M569 903h2q66 0 127.5 -26.5t102.5 -79.5q24 166 28 239q12 198 -45 312q-61 110 -217 110q-142 0 -309 -145q-19 1 -45.5 40t-41.5 90t-3 81q141 82 309 82q159 0 280.5 -81.5t198.5 -228.5q61 -115 89 -251t28 -257q0 -298 -106 -503q-73 -147 -195 -233.5t-287 -86.5
q-182 0 -291.5 110.5t-109.5 303.5q0 109 37 205t94 161q64 74 156.5 116t197.5 42zM639 793h-2q-46 0 -86.5 -23.5t-77.5 -91.5q-43 -85 -67.5 -215t-24.5 -254q0 -84 28 -122t87 -38q28 0 54.5 20t50 57t40 70.5t35.5 77.5q68 167 100 414q-17 39 -53.5 72t-83.5 33z" />
    <glyph glyph-name="Delta" unicode="&#x2206;" horiz-adv-x="1376" 
d="M1307 0h-1237v88l536 1358l135 33l566 -1391v-88zM922 147l-353 893l-340 -893h693z" />
    <glyph glyph-name="product" unicode="&#x220f;" horiz-adv-x="1531" 
d="M1475 1475v-80q-48 -4 -77 -8.5t-53 -15.5t-35.5 -24t-19 -40.5t-9 -57t-1.5 -80.5v-1030q0 -54 1.5 -85.5t9.5 -60t19 -41.5t35.5 -24.5t52 -16t75.5 -9.5v-80h-660v80q39 4 60 7.5t40 14.5t26.5 23t13.5 41.5t7 60.5t1 88v1157q0 54 -14.5 68t-67.5 14h-236
q-51 0 -62.5 -12.5t-11.5 -63.5v-1163v-8v-52t1 -41.5t2.5 -35.5t5 -27t8 -22.5t12.5 -15.5t17 -13t22.5 -8.5t28.5 -7.5t36 -4v-80h-649v80q47 4 76 8.5t52.5 16t35 25.5t19.5 42t10 59.5t2 83.5v1032q0 52 -2 82.5t-10 57t-20 39.5t-37 24t-54.5 15t-79.5 8v80h1430z" />
    <glyph glyph-name="summation" unicode="&#x2211;" horiz-adv-x="1193" 
d="M1149 291l-105 -490h-991v78l447 635l-441 881v80h988q4 -74 24 -388l-82 -18q-30 128 -80 221q-18 37 -41 54.5t-65 25.5t-119 8h-248l328 -635l-463 -675h455q53 0 83 1.5t61.5 11t49 23t39 43t38 66.5t40.5 98z" />
    <glyph glyph-name="minus" unicode="&#x2212;" 
d="M92 414v164h963v-164h-963z" />
    <glyph glyph-name="uni2215" unicode="&#x2215;" horiz-adv-x="327" 
d="M688 1440l-928 -1440h-120l925 1440h123z" />
    <glyph glyph-name="uni2219" unicode="&#x2219;" horiz-adv-x="573" 
d="M287 670q72 0 123 -51t51 -123t-51 -123t-123 -51t-123 51t-51 123t51 123t123 51z" />
    <glyph glyph-name="radical" unicode="&#x221a;" horiz-adv-x="1193" 
d="M1180 1817l-383 -2192l-70 -28l-434 1136l-184 -80l-31 95l422 180l270 -770h6l285 1679z" />
    <glyph glyph-name="infinity" unicode="&#x221e;" horiz-adv-x="1593" 
d="M1499 600v-2q0 -87 -29 -159.5t-77.5 -119.5t-109.5 -72.5t-126 -25.5q-46 0 -85.5 8.5t-85 31t-93 69t-94.5 116.5q-86 -112 -171.5 -168.5t-199.5 -56.5q-136 0 -236 102.5t-100 264.5q0 164 100.5 267t253.5 103q109 0 194.5 -52.5t164.5 -160.5q3 3 28 31.5t33 37
t34.5 34t42 35.5t44.5 28.5t54 26t58 14t68 6.5q138 -2 235 -100.5t97 -257.5zM449 399h4q69 0 124.5 45.5t124.5 133.5q-72 107 -106 140q-65 66 -150 66q-81 0 -128.5 -53.5t-47.5 -144.5q0 -77 53 -132t126 -55zM1149 784h-2q-21 0 -42 -5.5t-37 -12.5t-36 -22.5
t-31.5 -25t-31 -31.5t-26.5 -30.5t-26.5 -33.5t-23.5 -29q86 -116 140 -155.5t126 -39.5t116 59.5t44 127.5q0 84 -46.5 141t-123.5 57z" />
    <glyph glyph-name="integral" unicode="&#x222b;" horiz-adv-x="886" 
d="M340 -51l-47 823q-6 152 -2 274.5t23 219.5t42.5 170t57.5 126t67.5 88t73 55.5t73 29t68.5 8.5q66 0 121 -36t55 -99q0 -70 -43 -108t-100 -38q-31 0 -52 24t-28.5 53t-18.5 53t-26 24q-20 0 -29.5 -22t-13 -87.5t3.5 -185.5l43 -750q11 -206 -5.5 -378t-55 -291
t-95.5 -201.5t-124 -121t-142 -38.5q-70 0 -121 41.5t-53 98.5q-1 67 51.5 111t114.5 44q26 0 45 -26.5t27 -58.5t20 -58.5t27 -26.5q33 0 42 71t1 212z" />
    <glyph glyph-name="approxequal" unicode="&#x2248;" horiz-adv-x="1093" 
d="M905 971l121 -109q-54 -101 -131 -163t-158 -62q-58 0 -105.5 17.5t-111.5 60.5q-49 35 -83.5 51t-76.5 16q-31 0 -56.5 -10.5t-50.5 -37t-36 -41.5t-37 -54l-121 106q46 95 131.5 158.5t180.5 63.5q45 0 86 -12t63 -23.5t53 -32.5q9 -6 33.5 -21.5t31.5 -19.5t24 -13
t25.5 -11.5t21 -5.5t24.5 -3q51 0 88.5 36.5t83.5 109.5zM905 565l121 -108q-55 -102 -131.5 -164t-159.5 -62q-56 0 -103.5 18t-111.5 58q-53 39 -86.5 55.5t-73.5 16.5q-16 0 -32 -4t-27.5 -8.5t-25 -16t-21 -18.5t-21 -23.5t-18 -23.5t-18 -27t-17.5 -25l-121 107
q46 95 131.5 158t180.5 63q46 0 88 -12t61 -22t53 -31q11 -7 40.5 -26.5t42 -26.5t34.5 -15t41 -8q27 0 50 9.5t46 33.5t37.5 43.5t40.5 58.5z" />
    <glyph glyph-name="notequal" unicode="&#x2260;" horiz-adv-x="1093" 
d="M827 1075l-69 -166h241v-188h-311l-106 -260h417v-189h-487l-94 -225l-148 57l72 168h-250v189h320l106 260h-426v188h494l92 221z" />
    <glyph glyph-name="lessequal" unicode="&#x2264;" horiz-adv-x="1093" 
d="M995 215l-893 455v207l893 452v-217l-712 -336v-6l712 -336v-219zM1004 -49h-908v192h908v-192z" />
    <glyph glyph-name="greaterequal" unicode="&#x2265;" horiz-adv-x="1093" 
d="M109 1329l890 -455v-204l-890 -455v219l710 338v4l-710 336v217zM999 -49h-901v192h901v-192z" />
    <glyph glyph-name="lozenge" unicode="&#x25ca;" horiz-adv-x="1202" 
d="M1108 705l-389 -855h-236l-387 855l393 860h230zM895 705l-289 665h-6l-293 -665l293 -670h6z" />
    <glyph glyph-name="fi" unicode="&#xfb01;" horiz-adv-x="1351" 
d="M496 870v-657q0 -45 13.5 -67.5t33 -28t38.5 -9.5t32.5 -21.5t13.5 -55.5v-31h-572v31q0 38 12 55.5t29 21.5t34.5 9.5t29.5 28t12 67.5v657h-127v31q0 36 11.5 54t28 23.5t34 11t31.5 25.5t18 58q11 111 51 188t109 122t158 65t210 20q52 0 104 -4t119.5 -18.5
t117 -37.5t84 -66.5t34.5 -100.5q0 -69 -50 -114.5t-120 -45.5q-62 0 -106.5 38.5t-44.5 99.5q0 22 10 55t10 45q0 11 -17.5 19t-43.5 11t-43 4t-31 1q-121 0 -172 -52.5t-51 -158.5v-150h297l374 15v-795q0 -45 12.5 -67.5t29.5 -28t34.5 -9.5t30 -21.5t12.5 -55.5v-31
h-555v31q0 38 11.5 55.5t28 21.5t33.5 9.5t28.5 28t11.5 67.5v551q0 73 -16 89.5t-91 16.5h-241z" />
    <glyph glyph-name="fl" unicode="&#xfb02;" horiz-adv-x="1351" 
d="M895 1397l272 43v-1227q0 -45 12 -67.5t29.5 -28t34.5 -9.5t29 -21.5t12 -55.5v-31h-561v31q0 38 12.5 55.5t30.5 21.5t35.5 9.5t30 28t12.5 67.5v913q0 42 -2.5 71t-11.5 62.5t-26 54t-47 34.5t-73 14q-95 0 -142.5 -53.5t-47.5 -149.5v-166h231v-123h-231v-657
q0 -45 13.5 -67.5t33 -28t38.5 -9.5t32.5 -21.5t13.5 -55.5v-31h-572v31q0 38 12 55.5t29 21.5t34.5 9.5t29.5 28t12 67.5v657h-127v31q0 32 9 49t23 20t30.5 8.5t31 13.5t25 35.5t12.5 74.5q4 91 42 162.5t100.5 115t140.5 66t166 22.5q153 0 272 -71z" />
    <glyph glyph-name="a.superior" horiz-adv-x="663" 
d="M399 1100v92q-76 -8 -128 -50.5t-52 -109.5q0 -37 20 -71.5t56 -34.5q32 0 54.5 17.5t32.5 47.5t13.5 55.5t3.5 53.5zM610 1217v-168q0 -1 -0.5 -14t-0.5 -23.5t1.5 -25.5t5 -25t11 -17.5t18.5 -7.5q21 0 35 18l6 -8q16 -21 16 -31q0 -23 -41.5 -46t-72.5 -23
q-59 0 -95 23.5t-61 70.5q-44 -51 -92.5 -72.5t-118.5 -21.5q-93 0 -157 45.5t-64 128.5q0 29 9 54.5t27.5 45t39 35t51 28t54.5 21.5t59.5 17t57 12t55 10t44.5 8q1 27 -3 53t-14.5 53t-33 43.5t-53.5 16.5q-25 0 -45.5 -9.5t-20.5 -29.5q0 -7 4.5 -21.5t4.5 -21.5
q0 -33 -28.5 -54t-64.5 -21q-39 0 -69.5 22t-30.5 57q0 38 26 66t68 43t84.5 22t83.5 7q15 0 29 -0.5t47 -6t60 -14.5t60 -28.5t55.5 -46t38 -69t15.5 -95.5z" />
    <glyph glyph-name="o.superior" horiz-adv-x="712" 
d="M358 1477q155 0 253 -88t98 -230q0 -137 -103.5 -225t-253.5 -88q-149 0 -249.5 91t-100.5 228q0 139 102 225.5t254 86.5zM352 1417q-40 0 -67 -28t-38 -75t-14.5 -82.5t-3.5 -74.5q0 -29 2 -56.5t10 -65t21.5 -64.5t38.5 -46.5t59 -19.5q121 0 121 242q0 270 -129 270z
" />
    <glyph glyph-name="one.superior" horiz-adv-x="688" 
d="M121 1339v45l215 70h131v-754q0 -24 12.5 -31.5t36.5 -9.5q17 -1 25 -2.5t16 -10.5t8 -25v-31h-413v31q0 5 1 10t2 8t4 6t4 5t5.5 3.5l6 2t7.5 1.5t7 1h9l7 1q17 0 26.5 2t18 11.5t8.5 27.5v639h-137z" />
    <glyph glyph-name="two.superior" horiz-adv-x="688" 
d="M47 590v96l272 313q50 64 75.5 114t25.5 110q0 76 -35.5 133t-112.5 57q-27 0 -53 -14t-26 -37q0 -12 14.5 -24t29.5 -33t15 -54q0 -40 -27.5 -65t-70.5 -25q-51 0 -81 32t-30 79q0 87 86 146t209 59q129 0 218 -68.5t89 -173.5q0 -47 -20 -88t-52 -72t-77.5 -66.5
t-91 -66.5t-99.5 -78t-96 -96h280q33 0 52 6t25 15t9.5 19t5 19t12.5 15t32 6h20v-258h-598z" />
    <glyph glyph-name="three.superior" horiz-adv-x="688" 
d="M190 1024v61q49 0 87 7.5t71 25t50.5 52t17.5 83.5q0 70 -34.5 116t-105.5 46q-28 0 -52.5 -9.5t-24.5 -31.5q0 -9 12.5 -21.5t25.5 -31.5t13 -45q0 -38 -29.5 -65t-70.5 -27q-50 0 -82.5 32t-32.5 78q0 59 52 103t116.5 62t124.5 18q76 0 145 -22t118.5 -73.5
t49.5 -124.5q0 -89 -73 -139.5t-191 -58.5v-4q60 -2 110.5 -15t92.5 -38.5t66 -69.5t24 -103q0 -66 -35 -118t-92 -82.5t-121.5 -46t-130.5 -15.5q-46 0 -91 9.5t-87.5 29t-68.5 54.5t-26 81q0 42 36 74.5t81 32.5q46 0 80.5 -26.5t34.5 -67.5q0 -23 -9.5 -39t-20.5 -22.5
t-20.5 -14t-9.5 -16.5q0 -18 22 -25.5t46 -7.5q88 0 130 51t42 135q0 52 -13 91.5t-34 60.5t-47.5 35.5t-53 17t-51 5t-41.5 -0.5z" />
    </font>
</defs>
</svg>
